<svg width="100" height="100" viewBox="0 0 100 100" fill="none" xmlns="http://www.w3.org/2000/svg">
<path d="M34.4182 29.7575C36.2041 32.1114 37.3872 34.7974 37.8652 37.6544C37.9016 37.8645 37.9269 38.0733 37.9549 38.2835C33.915 38.7346 29.896 39.3876 25.9136 40.2465C27.8705 36.1019 30.8044 32.5052 34.4182 29.7575ZM49.814 24.0521V37.5395C47.1856 37.5759 44.5587 37.6964 41.936 37.9024C41.8995 37.5997 41.8589 37.2971 41.8084 36.993C41.2351 33.5826 39.8585 30.3754 37.7755 27.5605C41.3794 25.5527 45.4656 24.3085 49.814 24.0521ZM53.8132 24.0997C58.2275 24.4584 62.3571 25.8301 65.9681 27.9893C63.9495 30.7622 62.6445 33.9441 62.151 37.3489C62.1202 37.5619 62.0992 37.7749 62.0754 37.9878C59.3265 37.7468 56.572 37.6039 53.8132 37.5507V24.0997ZM66.1083 37.9206C66.5092 35.1435 67.583 32.5444 69.2469 30.2788C72.5635 32.9591 75.2605 36.3695 77.0968 40.2661C73.4424 39.473 69.7571 38.8509 66.0508 38.4012C66.0704 38.2414 66.0844 38.0817 66.1083 37.9206ZM23.281 50.5574C23.4016 48.551 23.7338 46.602 24.2539 44.7287C28.7928 43.6414 33.3893 42.8288 38.0152 42.2949C37.7923 44.4961 37.1531 46.6469 36.1662 48.6757C37.6661 48.523 39.166 48.3913 40.6659 48.2834C41.4327 46.2251 41.9079 44.0828 42.0509 41.9026C44.6344 41.6938 47.2235 41.5719 49.814 41.5355V47.8939C51.1471 47.8785 52.4802 47.8785 53.8132 47.8967V41.5467C56.5467 41.6014 59.2788 41.7443 62.0025 41.9909C62.1693 44.1444 62.6571 46.2728 63.4309 48.3268C64.9336 48.4431 66.4363 48.586 67.9362 48.7472C66.9522 46.7211 66.3059 44.5886 66.0536 42.4224C70.322 42.9577 74.561 43.7423 78.7538 44.7497C79.2612 46.5908 79.592 48.5048 79.7182 50.472C81.0639 50.7228 82.4082 50.9904 83.7497 51.279C83.2268 33.9441 68.9665 20 51.5003 20C34.0033 20 19.7233 33.9946 19.2495 51.3729C20.591 51.0801 21.9353 50.8125 23.281 50.5574Z" fill="#E94E0F"/>
<path d="M49.4746 52.6815C46.793 52.7222 44.1128 52.8315 41.4368 53.0122C40.8228 53.6609 40.2075 54.3153 39.5935 54.9724V62.8902C36.6455 63.1228 34.1546 63.368 31.2206 63.7702C31.7954 63.1158 32.3715 62.4643 32.9462 61.8156C34.4742 61.6236 35.5521 61.5269 37.0815 61.3812C37.3534 61.356 37.6254 61.3308 37.8959 61.3056V54.3447C38.8365 53.3317 39.7771 52.3271 40.7205 51.3309C43.8731 51.1053 47.0299 50.9764 50.1882 50.9441C49.9513 51.5228 49.7115 52.1029 49.4746 52.6815ZM43.5563 68.1599V56.2236C44.8277 56.1564 46.0992 56.1045 47.372 56.0681V68.003C46.0992 68.0394 44.8277 68.0913 43.5563 68.1599ZM49.8882 70.4368C47.093 70.4718 44.2979 70.5811 41.5055 70.7674C41.9289 70.1678 42.3494 69.5709 42.7727 68.9768C44.567 68.8717 46.3585 68.7988 48.1542 68.7568V55.2751C48.7317 54.6852 49.3106 54.0995 49.8882 53.5152V70.4368ZM40.7247 73.389C39.7813 72.5119 38.8379 71.6446 37.8959 70.7843V65.5692C38.4622 64.9583 39.0272 64.3502 39.5935 63.7477V69.9352C40.2089 70.49 40.8242 71.0491 41.4396 71.6109C41.2013 72.2036 40.963 72.7949 40.7247 73.389ZM29.7922 72.8271C29.2301 73.4871 28.6666 74.1498 28.1045 74.8153V52.7572C29.7179 52.5022 31.3328 52.2738 32.9504 52.0693C32.3743 52.7138 31.7968 53.3611 31.2206 54.0126C30.744 54.0771 30.2674 54.1443 29.7922 54.2144V72.8271ZM50.5554 50.1665C47.1589 50.1945 43.7652 50.3332 40.3757 50.584C39.2767 51.7568 38.1791 52.9422 37.0815 54.1387V60.6078C35.8143 60.7283 34.9984 60.7927 33.7326 60.9455V51.2005C31.5823 51.4612 29.4362 51.7652 27.2957 52.1155V75.7191C29.4362 75.3688 31.5823 75.0633 33.7326 74.8041V66.7882C34.9984 66.6355 35.8143 66.571 37.0815 66.4505V71.1906C38.1791 72.1784 39.2767 73.1774 40.3757 74.189C43.7652 73.9368 47.1589 73.7981 50.5554 73.7715C51.653 72.6716 52.7562 71.5815 53.858 70.5054V53.4522C52.7562 52.3453 51.653 51.251 50.5554 50.1665Z" fill="#202A25"/>
<path d="M19.4818 56.0162C17.9987 56.3384 16.5212 56.6817 15.0466 57.046V57.0474C14.2223 57.2506 13.3995 57.4622 12.578 57.6793C11.9781 58.4472 11.3781 59.2192 10.7795 59.994C10.1978 65.4669 9.61887 70.9439 9.03853 76.4238C8.50305 76.5793 7.96617 76.739 7.43349 76.9002V77.738C6.88399 78.4807 6.3359 79.2261 5.7906 79.9757C5.7878 78.5493 5.785 77.1257 5.7836 75.698C6.35412 75.5186 6.92465 75.3435 7.49517 75.1698V75.16C8.03766 70.001 8.57735 64.8476 9.11984 59.6942C10.038 58.5004 10.9576 57.315 11.8785 56.1367C15.4307 55.1769 19.0052 54.3474 22.6008 53.6469C22.0302 54.3292 21.4625 55.0158 20.8934 55.7051C20.421 55.8032 19.9514 55.9013 19.4818 56.0036V56.0162ZM13.3953 72.7416C13.8004 68.6517 14.2083 64.5631 14.6134 60.4774C15.1994 60.3373 15.7853 60.1986 16.3699 60.0655C16.5843 60.0136 16.7974 59.9646 17.0105 59.9142V71.8491C15.8035 72.1321 14.598 72.4277 13.3953 72.7416ZM19.4818 69.6353V73.7784C16.9179 74.3333 14.3625 74.9554 11.8211 75.6433C12.236 74.9596 12.6509 74.2786 13.0659 73.5991C14.633 73.1885 16.2044 72.8046 17.7786 72.4459V58.9474C18.3464 58.2468 18.9141 57.5504 19.4818 56.8569V69.6353ZM21.3588 73.3931C21.7765 72.7332 22.1957 72.0732 22.6148 71.4147C23.3437 71.2732 23.7979 71.1793 24.5282 71.0476L23.0886 73.0512C22.5111 73.1619 21.9349 73.2768 21.3588 73.3931ZM23.3942 70.4815V68.4205C23.3928 68.4219 23.3914 68.4219 23.39 68.4219V52.7207C19.4159 53.4745 15.4629 54.3867 11.5421 55.4557C10.4712 56.8387 9.403 58.2356 8.33624 59.6423C7.79235 64.6374 7.24986 69.6353 6.70457 74.6373C6.13684 74.8125 5.56912 74.9904 5 75.174V80.9999C6.45505 80.5333 7.9143 80.0878 9.37917 79.6674C9.48009 79.638 9.57822 79.6086 9.67915 79.5805C9.85717 79.5287 10.0352 79.4783 10.2132 79.4292C11.0739 79.1854 11.9374 78.95 12.8023 78.7216C15.4082 78.0351 18.0282 77.4172 20.6579 76.8679C21.2859 76.739 21.9153 76.6115 22.5447 76.4882C23.383 76.3243 23.9479 76.2108 24.7876 76.0609C24.9642 76.0301 25.138 75.9992 25.3118 75.9684V70.1257C24.5801 70.2532 24.1245 70.3428 23.3942 70.4815Z" fill="#202A25"/>
<path d="M69.9532 61.8116C67.3234 61.4767 63.9746 61.1306 61.3378 60.9316C61.7668 60.3908 62.1971 59.85 62.6261 59.3133C65.0778 59.5179 68.2402 59.8626 70.6835 60.1848C70.4396 60.7285 70.1943 61.2693 69.9532 61.8116ZM70.2195 71.5257C67.4552 71.1656 63.9746 70.8027 61.2005 70.5925C61.6294 70.0573 62.0555 69.5234 62.4831 68.991C64.2633 69.1395 66.7543 69.3987 68.5304 69.6103C68.557 67.8084 68.585 66.0066 68.6103 64.2061C69.1892 63.7003 69.7695 63.1987 70.3485 62.6999C70.305 65.6437 70.2616 68.5847 70.2195 71.5257ZM57.5783 73.2C57.6848 65.8875 57.6133 58.2919 57.7212 50.9808C62.5924 51.2358 68.1659 51.799 73.0021 52.5164C72.4189 53.004 71.8344 53.4944 71.2484 53.9904C67.5435 53.4818 63.1125 53.032 59.388 52.798C59.2954 58.963 59.3852 65.4111 59.2954 71.5775C58.7221 72.1155 58.1502 72.6564 57.5783 73.2ZM63.3368 64.4233C64.5956 64.5354 66.5665 64.7413 67.8225 64.8843C67.8042 66.1719 67.786 67.4624 67.765 68.7528C66.509 68.6085 64.5115 68.3423 63.2527 68.2302L63.3368 64.4233ZM71.0578 59.4633C68.7547 59.1536 65.7338 58.8173 63.4237 58.61L63.4391 56.434C66.6842 56.724 70.4718 57.1808 73.7001 57.6754C73.7296 55.7376 73.7576 53.7998 73.7856 51.8649C68.421 51.041 62.3135 50.4231 56.9054 50.1709C56.7905 57.9963 56.8563 66.1033 56.74 73.9272C57.8362 73.9791 62.2069 74.0996 70.6457 75.093C71.7475 74.1542 73.0329 73.0697 74.1333 72.1534C74.1767 69.1675 74.2216 66.1831 74.2651 63.1959C73.1955 61.9405 72.1273 60.6963 71.0578 59.4633Z" fill="#202A25"/>
<path d="M91.2122 57.9947C90.751 57.863 90.2884 57.7341 89.8258 57.608C89.8258 57.6136 89.8258 57.6164 89.8258 57.622C88.3651 57.2241 87.5381 57.0069 86.0676 56.6524V56.6538C85.249 56.4549 84.4275 56.2629 83.6061 56.0779C82.9879 56.5473 82.3739 57.0237 81.7571 57.5015C80.6581 62.8623 79.5606 68.2328 78.4616 73.6118C77.7971 74.0153 77.1299 74.4231 76.464 74.835C77.6766 68.6742 78.8877 62.5246 80.1002 56.389C81.0506 55.6506 81.9954 54.922 82.9416 54.199C83.9972 54.4316 85.0541 54.6754 86.1055 54.9304C86.5456 55.0355 86.9844 55.1448 87.4231 55.2541C89.4754 55.7711 90.8869 56.1676 92.9209 56.7701C92.3518 57.175 91.7813 57.5828 91.2122 57.9947ZM90.5687 76.1675L88.8502 77.4397L88.0862 59.7139L89.8076 58.4585L90.5687 76.1675ZM82.6206 53.3569C81.5202 54.2088 80.417 55.0747 79.3138 55.9518C78.034 62.4798 76.7528 69.0189 75.4688 75.5706C77.7494 75.9629 79.5087 76.3202 81.7726 76.8162C82.866 71.1248 83.9565 65.4432 85.0443 59.7713L87.311 60.3038L88.0722 78.0142L94.9998 79.774L93.7115 56.2307C93.7115 56.2307 86.5568 54.2116 82.6206 53.3569Z" fill="#202A25"/>
</svg>
