<svg width="100" height="100" viewBox="0 0 100 100" fill="none" xmlns="http://www.w3.org/2000/svg">
<path d="M91.5345 48.2144C91.3502 47.3948 90.6393 47.1973 90.0931 47.1447C88.5793 46.967 87.1478 46.7662 85.7887 46.5621C81.4909 45.8314 74.6691 44.301 67.2285 41.2993C59.0871 38.0145 49.4417 32.6496 44.9169 27.2321C43.1563 25.0697 42.1032 22.9237 42.1131 20.9193C42.1131 20.9193 40.8428 10.7359 58.8008 16.2555C58.8929 16.4398 65.1455 34.2986 86.5028 36.6585C87.8191 36.8066 89.1058 36.6782 89.2408 35.9969C83.4884 19.8727 68.0907 8.33325 49.9946 8.33325C38.6051 8.33325 28.2851 12.9049 20.7623 20.3137C20.578 20.5145 20.3938 20.7185 20.216 20.9193C19.2124 22.0647 16.4974 25.2869 16.4876 28.9995C16.4777 33.4593 21.6772 37.376 28.0251 40.4962H28.0613C28.0613 40.4962 42.2678 47.431 52.229 49.6329C52.8049 49.735 52.8411 49.8567 52.8411 50.018C52.8378 50.2484 52.6766 50.2616 52.4199 50.3439C43.0148 52.3285 28.0942 59.474 28.058 59.4905C28.0482 59.4971 16.4909 64.6184 16.4909 71.0003C16.4909 74.7162 19.2156 77.9351 20.2193 79.0805C20.397 79.2846 20.578 79.4854 20.7656 79.6861C28.2851 87.0949 38.6051 91.6666 49.9946 91.6666C68.0907 91.6666 83.4884 80.1272 89.2408 64.0029C89.1058 63.3216 87.8191 63.1965 86.5028 63.3381C65.1455 65.7045 58.8929 83.56 58.8008 83.7443C40.8428 89.2672 42.1131 79.0805 42.1131 79.0805C42.0736 71.8034 56.0036 62.4527 67.245 57.756C68.7193 57.1405 78.2231 53.5035 90.5373 52.0586C91.3271 51.9928 91.6036 51.3181 91.6365 50.6565C91.6891 49.6955 91.6792 49.057 91.5345 48.2144Z" fill="#E9540D"/>
<path d="M32.4088 50.3441C32.3956 50.3441 32.8498 50.2519 32.8498 50.0182C32.8498 49.7845 32.3035 49.6331 32.3035 49.6331C29.6445 48.6984 25.8469 47.1679 22.6285 45.6276C16.8104 42.6061 12.2263 38.8968 12.2263 34.7069C12.2263 34.3416 11.8709 34.2856 11.6932 34.2856C11.3871 34.2856 11.2028 34.7761 11.2028 34.7761C9.35011 39.4892 8.33325 44.627 8.33325 50.0018C8.33325 55.3765 9.35011 60.511 11.2028 65.2275C11.2028 65.2275 11.3871 65.7146 11.6932 65.7146C11.8709 65.7146 12.2263 65.662 12.2263 65.2933C12.2263 61.0475 16.9354 57.2921 22.8655 54.2509C26.0016 52.7336 29.3253 51.2492 32.4088 50.3441Z" fill="#E9540D"/>
</svg>
