<svg width="100" height="100" viewBox="0 0 100 100" fill="none" xmlns="http://www.w3.org/2000/svg">
<g clip-path="url(#clip0_424_1003)">
<path fill-rule="evenodd" clip-rule="evenodd" d="M99.1816 15.4174L99.1901 11.0223L96.5427 9.71175C95.7401 9.31721 76.6171 0 50.197 0H49.0029C22.4814 0 3.45418 9.31997 2.6656 9.70899L0.00979442 11.0195L0.0182435 15.3264C-0.195798 26.3652 1.20674 54.4051 18.7835 76.2759C33.13 94.1405 46.8793 98.3784 48.3974 98.8005L49.7182 99.1702L51.0334 98.8088C51.6249 98.646 65.6728 94.6261 80.4107 76.2759C98.0044 54.3996 99.4013 26.4535 99.1816 15.4174Z" fill="#FEFEFE"/>
<path fill-rule="evenodd" clip-rule="evenodd" d="M96.3658 15.4382C96.3742 14.4643 96.3742 13.9152 96.3742 13.9152V12.7206L95.2702 12.1743C94.4957 11.7908 75.9501 2.7605 50.1975 2.7605H49.0034C23.2677 2.7605 4.70233 11.7908 3.93066 12.1743L2.82384 12.7206V13.9152C2.82384 13.9152 2.82384 14.4643 2.8351 15.3803C2.62669 26.1184 3.97008 53.3857 20.9949 74.5695C34.8034 91.7637 47.7417 95.7505 49.1695 96.1478L49.7244 96.3051L50.2736 96.1506C50.834 95.9988 64.0145 92.2272 78.2004 74.5695C95.2421 53.3775 96.5826 26.146 96.3658 15.4382Z" fill="#2D2925"/>
<path fill-rule="evenodd" clip-rule="evenodd" d="M49.7236 93.3869C48.6759 93.0917 36.3572 89.3808 23.1232 72.8957C5.67883 51.196 5.60279 22.7809 5.73516 16.0875C5.72671 15.1467 5.72671 14.6169 5.72671 14.6169C5.72671 14.6169 5.74361 14.6086 5.78022 14.5893V14.5342L6.16887 14.3548C7.09545 13.941 9.15983 13.0553 12.1508 12.0041C19.5831 9.33892 32.896 5.59769 49.0082 5.59769H50.1827C66.2668 5.59769 79.543 9.31961 86.9866 11.9821C90.0114 13.0443 92.1011 13.9382 93.0333 14.3548L93.4219 14.5286V14.5893C93.4529 14.6086 93.4754 14.6169 93.4754 14.6169C93.4754 14.6169 93.4754 15.1467 93.4642 16.0875C93.5994 22.7809 93.529 51.196 76.0789 72.8957C62.8111 89.414 50.7318 93.1138 49.7236 93.3869ZM76.9801 73.6268C93.6529 52.8845 94.9653 26.1689 94.7456 15.6488C94.7541 14.6693 94.7541 14.1286 94.7541 14.1258V13.7285L94.3908 13.5492C93.6332 13.1712 75.4734 4.3313 50.1939 4.3313H49.0026C23.7428 4.3313 5.57181 13.1712 4.80577 13.5492L4.43683 13.7285V14.1258C4.43683 14.1286 4.43683 14.6693 4.45091 15.5881C4.24531 26.1469 5.56336 52.8928 22.222 73.6268C35.6869 90.3934 48.1662 94.245 49.5433 94.6257L49.7292 94.6754L49.9095 94.6257C50.4446 94.4823 63.1378 90.8459 76.9801 73.6268Z" fill="#FEFEFE"/>
<path fill-rule="evenodd" clip-rule="evenodd" d="M81.8442 28.0291C75.6483 21.7495 74.9329 20.7315 74.9329 18.149C74.9329 15.5914 76.0735 15.2493 77.1944 15.2493C77.7746 15.2493 78.4928 15.3652 79.318 15.5969C83.8016 16.8606 83.8016 19.2581 83.8016 21.0349V23.5843C83.8016 23.7857 83.9368 23.9678 84.1311 24.034C85.2126 24.3954 85.7561 24.583 86.8911 24.9941C87.0375 25.0466 87.2065 25.0272 87.3361 24.9417C87.4684 24.8479 87.5445 24.7044 87.5445 24.5472V22.4172C87.5445 19.7272 87.5445 15.2217 79.5264 12.9676C73.919 11.3922 71.0576 13.0779 71.0576 17.8455C71.0576 21.8047 73.5332 24.1747 77.6394 28.1008L78.4674 28.8954C83.3369 33.5719 84.3226 35.1142 84.3226 38.0802C84.3226 39.1424 84.1592 39.8873 83.8241 40.3536C83.4777 40.8282 82.9285 41.0461 82.092 41.0461C81.4415 41.0461 80.6191 40.9054 79.6475 40.6323C77.5127 40.0308 75.9637 39.2114 75.0456 38.1933C73.9247 36.9572 73.9247 35.9088 73.9247 33.8175V31.5551C73.9247 31.3316 73.7669 31.1412 73.5501 31.0916C72.3503 30.8267 71.7758 30.7108 70.6267 30.4874C70.4859 30.4625 70.3366 30.4984 70.224 30.5867C70.1113 30.6777 70.0494 30.8129 70.0494 30.9536V34.9597C70.0494 38.7258 73.1896 41.5952 79.1433 43.2589C80.8219 43.7306 82.2723 43.9652 83.458 43.9652C88.119 43.9652 88.119 40.2874 88.119 38.7175C88.119 34.5762 85.9673 32.2035 81.8442 28.0291ZM69.365 10.9976C63.4451 9.93541 57.3955 9.36153 51.3855 9.29532C51.2531 9.2898 51.1292 9.34222 51.0391 9.43051C50.9461 9.52431 50.8954 9.64295 50.8954 9.76987V11.5908C50.8954 11.8502 51.1067 12.0626 51.3742 12.0681C54.1906 12.0985 55.641 12.1592 58.308 12.3661V38.7065C58.308 38.9548 58.4967 39.1617 58.7502 39.1838C59.9274 39.2748 60.4992 39.33 61.6848 39.4542C61.6989 39.4597 61.7214 39.4624 61.7355 39.4624C61.8566 39.4624 61.9693 39.4183 62.0594 39.3383C62.1608 39.2472 62.2228 39.1203 62.2228 38.9824V12.7358C64.8983 13.031 66.3656 13.2462 69.1876 13.7539C69.3312 13.7815 69.4805 13.7401 69.5875 13.6491C69.6945 13.5608 69.7593 13.4256 69.7593 13.2849V11.4667C69.7593 11.2349 69.5959 11.039 69.365 10.9976ZM48.4171 9.34222C43.3814 9.42223 38.3008 9.86092 33.3186 10.6445C33.0821 10.6803 32.9103 10.8818 32.9103 11.1135V39.6721C32.9103 39.8128 32.9751 39.9453 33.0821 40.0363C33.1722 40.1081 33.2849 40.1467 33.3975 40.1467C33.42 40.1467 33.4482 40.1467 33.4707 40.1439C38.3852 39.3714 43.3983 38.9355 48.3748 38.8527C48.6367 38.8499 48.8508 38.6375 48.8508 38.3781V36.5986C48.8508 36.4717 48.8001 36.3447 48.7043 36.2592C48.6142 36.1709 48.4762 36.1213 48.3551 36.124C43.6969 36.2013 41.2072 36.3723 36.7546 36.9407V25.6398C40.4496 25.1707 42.4042 25.0135 46.271 24.8755C46.5301 24.8645 46.7413 24.652 46.7413 24.3982V22.6572C46.7413 22.5276 46.6878 22.4034 46.5892 22.3151C46.4963 22.2268 46.3696 22.1744 46.2344 22.1827C42.452 22.3206 40.413 22.4807 36.8165 22.9359V12.8931C41.348 12.3109 43.7166 12.1481 48.434 12.0737C48.6987 12.0709 48.9099 11.8584 48.9099 11.5991V9.81953C48.9099 9.68986 48.8564 9.5657 48.7663 9.48017C48.6733 9.38912 48.5438 9.33946 48.4171 9.34222ZM29.1195 11.3894C27.9563 11.6184 27.3959 11.737 26.2581 11.9936C26.0356 12.0433 25.8807 12.2392 25.8835 12.4654L26.1173 33.2381C26.1173 34.6176 26.1539 35.884 26.2102 37.0179C23.346 29.8417 20.355 22.4117 17.319 14.8906C17.2204 14.6561 16.9557 14.5319 16.7079 14.6147C15.0181 15.1638 14.1985 15.4479 12.534 16.0632C12.3482 16.1294 12.2214 16.3115 12.2214 16.5046V45.066C12.2214 45.2233 12.2975 45.3695 12.4298 45.4578C12.5087 45.513 12.6073 45.5433 12.7087 45.5433C12.7622 45.5433 12.8241 45.5323 12.8776 45.5102C13.9056 45.1295 14.4238 44.9474 15.5194 44.5721C15.7137 44.5059 15.8461 44.3266 15.8432 44.1252C15.8038 37.3656 15.7644 30.6087 15.7306 23.8574C15.7306 22.0779 15.7081 21.0846 15.6489 19.8265C18.6399 27.2814 21.552 34.579 24.3148 41.5621C24.4077 41.7855 24.6471 41.9125 24.8865 41.849C26.6608 41.4213 27.5311 41.231 29.311 40.8806C29.5335 40.8337 29.6997 40.6405 29.6997 40.4143V11.8557C29.6997 11.7122 29.6321 11.577 29.5222 11.486C29.4068 11.3977 29.2575 11.3618 29.1195 11.3894Z" fill="#FEFEFE"/>
<path fill-rule="evenodd" clip-rule="evenodd" d="M65.9392 76.0352C65.6576 76.2255 65.3788 76.427 65.0662 76.6366C64.2494 77.194 63.4552 77.6658 62.6047 78.1624C62.2132 78.3997 61.8049 78.6342 61.3852 78.8908C58.4844 80.651 55.009 82.5989 51.283 83.7163C50.2043 84.0446 49.2102 84.2819 48.2442 84.4336C47.3458 84.5605 46.5065 84.6268 45.67 84.6268H45.5095C44.4083 84.6185 43.3409 84.5164 42.3158 84.3315C46.2136 85.6862 50.5423 85.9787 54.8541 84.9303C57.3212 84.3315 59.5884 83.3383 61.5908 82.0388C63.5144 80.5655 65.069 78.4714 66.066 75.9441C66.0237 75.9745 65.9843 76.0048 65.9392 76.0352ZM46.2051 83.559C48.6807 83.2721 50.731 82.6596 53.0657 81.5118C53.4065 81.349 53.7417 81.178 54.074 81.0069C54.3584 80.8635 54.6401 80.7172 54.9245 80.5765C56.9072 79.5612 59.0336 78.4576 61.6049 77.1057C62.5089 76.6311 63.413 76.1235 64.2889 75.6351L65.3168 75.075C65.7139 74.8653 66.0857 74.6695 66.4631 74.446C66.4969 74.4239 66.5419 74.3963 66.587 74.3687C66.9165 73.1906 67.1306 71.9104 67.2291 70.5585C64.7029 71.7973 60.9064 72.8844 55.3385 73.9797C48.2076 75.3675 41.2315 74.7467 35.0017 72.1725C30.8167 70.4454 28.8396 68.0533 28.0088 66.7345C28.1158 67.6726 28.2819 68.6107 28.5241 69.5515C29.8985 74.8709 33.2303 79.2163 37.5956 82.0305L37.5759 81.9947L38.1898 82.3478C38.6855 82.6375 39.3023 82.8886 40.0261 83.0927C41.3864 83.49 42.7241 83.6859 44.1267 83.6859C44.7857 83.6859 45.4729 83.6418 46.2051 83.559ZM68.4289 74.606C68.412 74.5205 68.3923 74.5177 68.3472 74.5177C68.2796 74.5177 68.1304 74.5481 67.8262 74.7384C67.7727 74.7798 67.7135 74.8157 67.6516 74.8571C67.6009 74.8902 67.5474 74.9233 67.5023 74.9564C66.9616 76.3607 66.2434 77.6878 65.421 78.8714C66.6152 77.6299 67.6459 76.2504 68.4937 74.7743H68.4655L68.4289 74.606ZM69.2597 69.3335C69.1837 69.3859 69.1133 69.4384 69.0372 69.4935C68.9189 69.5791 68.7978 69.6674 68.6683 69.7529C68.5669 71.102 68.3106 72.4374 67.922 73.7286C68.6035 73.4941 68.8373 73.7645 68.9077 73.919C68.9133 73.9411 68.9189 73.9659 68.9246 73.988C70.0483 71.8277 70.789 69.4797 71.096 67.0353C70.7496 67.8519 70.1863 68.7017 69.2597 69.3335ZM68.7359 68.1775C68.7894 68.1389 68.8429 68.1002 68.8908 68.0671C70.7158 66.8256 71.1861 64.8087 71.2509 64.4776C71.2509 62.7864 71.0396 61.0703 70.5918 59.3569C70.5749 59.2879 70.558 59.2217 70.5355 59.1527C70.3693 60.7254 69.578 62.1821 68.1811 63.4844C68.5528 65.0543 68.7359 66.6297 68.7359 68.1775ZM36.2381 70.7489C41.3807 72.4098 44.2365 72.9423 47.9907 72.9423C49.3566 72.9423 50.9112 72.8623 52.8911 72.7023C58.3745 72.2388 64.1565 70.4647 67.2629 68.9886C67.2573 67.5098 67.1193 66.0117 66.8517 64.5218C65.9308 65.0681 64.8888 65.3247 63.6045 65.3247C62.3146 65.3247 60.7544 65.0846 58.2225 64.4887C55.2315 63.7934 50.9507 61.2965 47.1768 59.0976C45.1068 57.8863 43.1522 56.7441 41.5328 55.9633C35.3707 52.978 31.8728 53.3974 30.9406 53.5933C28.741 57.1773 27.6342 61.3931 27.9186 65.7358C28.3326 66.3151 30.4421 68.8783 36.2381 70.7489ZM39.3811 53.4747C41.4765 54.3327 44.2253 55.7757 47.1289 57.3069C51.7111 59.7183 56.451 62.2152 59.6588 62.996C62.5174 63.6886 64.8634 63.6279 66.511 62.8167C66.5053 62.7864 66.4997 62.7532 66.4912 62.7257C66.4715 62.607 66.449 62.4967 66.4124 62.3808C65.0211 56.6586 57.7099 44.1299 45.0476 44.1299C44.5153 44.1299 43.969 44.1575 43.4282 44.2044C38.5334 45.5949 34.5032 48.5388 31.7742 52.349C32.2361 52.2055 32.8416 52.0758 33.664 52.0758C35.2101 52.0758 37.1337 52.5449 39.3811 53.4747ZM67.7614 61.9173C68.0937 61.5807 68.3528 61.211 68.5528 60.8247C70.0821 57.9443 68.7105 54.7162 68.136 53.5933C63.8777 46.7123 55.8398 42.6593 47.4584 43.4484C56.1356 43.9064 64.5423 51.513 67.7614 61.9173Z" fill="#FEFEFE"/>
<path fill-rule="evenodd" clip-rule="evenodd" d="M58.1475 68.7706C58.1475 67.2228 58.1475 64.9218 56.2775 63.1367C56.4803 62.789 56.6521 62.4138 56.7844 62.0082C57.0971 61.0867 57.1224 60.0769 57.1055 59.4203L57.0971 55.1604V55.0941C57.0464 53.5105 56.8013 51.8357 55.4805 50.3817C54.2948 49.074 52.512 48.387 50.3209 48.387L44.4179 48.4008C43.7758 48.4008 43.1364 48.6463 42.6661 49.1071C42.2127 49.5568 41.9423 50.1693 41.9423 50.8177L41.9986 78.7941C41.9986 79.6246 42.4324 80.3971 43.159 80.8248C43.5589 81.062 44.0151 81.1945 44.4967 81.1945L50.4984 81.1834C52.6669 81.1779 54.4807 80.5737 55.8973 79.379L55.917 79.368C57.8969 77.6271 58.1081 75.5771 58.1588 73.6154V73.5934L58.1475 68.7706Z" fill="#FEFEFE"/>
<path fill-rule="evenodd" clip-rule="evenodd" d="M50.195 61.8586C49.6881 61.9993 49.443 62.0407 48.3418 62.0793L47.2463 62.0821C47.0576 62.0876 47.0069 61.9993 47.0069 61.8586C47.0069 61.7731 46.9956 52.867 46.9956 52.867C46.9956 52.7235 47.0463 52.638 47.2012 52.6214H48.8967H49.0347C49.8458 52.6462 50.747 52.6711 51.3272 53.0215C51.5975 53.1815 51.7581 53.3746 51.8566 53.6312C51.9355 53.8988 52.0144 54.3623 52.0594 55.1542L52.0707 58.6361C52.0594 58.694 52.0594 58.785 52.0594 58.9009C52.0312 59.8004 52.0144 61.3261 50.195 61.8586ZM52.2678 76.3848C51.8257 76.6911 51.2905 76.8704 49.9162 76.9201C49.9162 76.9201 47.5589 76.9256 47.3758 76.9256C47.1646 76.9256 47.0801 76.7987 47.0801 76.6C47.0801 74.8977 47.0576 65.5171 47.0576 65.437C47.0576 65.3488 47.0801 65.2301 47.2632 65.2301C47.4406 65.2301 48.4489 65.2191 48.4489 65.2191C49.6993 65.2798 51.0061 65.3736 51.8566 65.9006C52.3467 66.193 52.679 66.6014 52.8902 67.1504C53.0789 67.7132 53.1155 68.334 53.1155 68.9134L53.124 73.0519C53.124 74.9391 53.0029 75.8275 52.2678 76.3848ZM56.6163 68.9631C56.6163 67.396 56.6163 65.4839 54.9546 64.1348C54.6082 63.8506 54.1914 63.6051 53.6985 63.4092C54.4674 62.9015 54.994 62.2035 55.2841 61.3261C55.5517 60.5398 55.5376 59.5686 55.5291 59.1879L55.5179 54.7458C55.4728 53.5153 55.3376 52.1137 54.3209 50.977C53.4225 50.0003 52.0594 49.4982 50.3302 49.5037L44.1765 49.5203C43.9934 49.5203 43.8216 49.5892 43.6808 49.7244C43.5428 49.8513 43.4808 50.0224 43.4808 50.199L43.5343 79.3922C43.5343 79.6239 43.6555 79.8557 43.8639 79.9743C43.9793 80.0433 44.1145 80.0819 44.2553 80.0819L50.5189 80.0654C51.1807 80.0654 53.2226 80.0598 54.9236 78.639C56.4304 77.3036 56.5825 75.7282 56.6275 73.9569L56.6163 68.9631Z" fill="#2D2925"/>
</g>
<defs>
<clipPath id="clip0_424_1003">
<rect width="100" height="100" fill="white"/>
</clipPath>
</defs>
</svg>
