<svg width="100" height="100" viewBox="0 0 100 100" fill="none" xmlns="http://www.w3.org/2000/svg">
<path d="M30.8492 18.8861C35.7064 15.7755 41.901 17.1543 47.0621 18.6153C49.8682 19.4102 52.768 20.1441 55.704 20.2701C57.2597 20.3312 58.7203 20.1268 60.201 19.7579C60.276 19.742 60.4809 19.6836 60.6763 19.6332C60.9401 19.5602 61.0311 19.3134 60.8852 19.0798C57.1807 13.1891 50.9874 8.26855 43.8061 7.83329C43.5303 7.81471 43.0939 7.87841 42.8382 7.98324C40.2128 8.96126 37.7748 10.4343 35.6863 12.3014C34.5671 13.29 33.5496 14.3928 32.6526 15.5804C32.2121 16.163 31.8011 16.7721 31.4169 17.3945C31.2174 17.7209 31.0273 18.0567 30.8399 18.3937C30.7635 18.5397 30.4061 19.1714 30.8492 18.8861Z" fill="#95569E"/>
<path d="M62.8866 18.3219C63.0312 18.5501 63.3472 18.6563 63.5962 18.5342C65.0702 17.8348 66.8481 16.7945 67.9486 15.9372C68.1936 15.762 68.5136 15.5749 68.4453 15.2259C68.3851 14.8889 67.9714 14.5465 67.7545 14.293C67.2324 13.6985 66.6781 13.1252 66.093 12.5918C65.5843 12.1658 64.4155 11.205 64.4155 11.205C61.9695 9.34589 59.1299 7.99896 56.1351 7.27042C54.6343 6.89753 53.1 6.68786 51.5523 6.62549C50.7866 6.60028 50.0127 6.60558 49.2362 6.65734C49.026 6.67193 47.1544 6.75156 47.145 6.93601C48.1183 7.1271 49.0568 7.3872 49.9525 7.69772C55.3626 9.58077 59.8703 13.534 62.8866 18.3219Z" fill="#95569E"/>
<path d="M66.2233 19.3346C65.8899 19.5403 65.5539 19.734 65.2165 19.9265C65.0076 20.0485 64.7841 20.156 64.5672 20.2715C64.3235 20.3949 64.2419 20.7227 64.3623 20.9708C64.6596 21.5733 64.934 22.197 65.1978 22.8247L65.2352 22.9242H65.2366C66.4937 26.0971 67.2434 29.4372 67.3345 32.8517C67.3372 33.121 67.5366 33.2378 67.7763 33.1104C69.099 32.4098 70.3923 31.6441 71.6133 30.7934C71.881 30.6077 72.1421 30.4192 72.3831 30.2135C72.6816 29.972 73.0471 29.7345 73.2225 29.3841C73.4086 29.0444 73.3484 28.633 73.335 28.2548C73.3149 27.7718 73.2868 27.2928 73.2332 26.8071C72.9427 23.8518 72.0551 20.9934 70.6145 18.3898C70.403 18.0023 70.2008 17.5285 69.9103 17.1981C69.6506 16.9022 69.4203 17.145 69.1994 17.3281C68.8741 17.5949 68.5247 17.8311 68.1846 18.0699C67.5473 18.5145 66.8887 18.9418 66.2233 19.3346Z" fill="#95569E"/>
<path d="M64.8005 36.7476C63.9517 37.2466 63.1042 37.7296 62.2943 38.287C61.2045 39.0341 60.1682 39.8542 59.1641 40.6968C56.3741 43.035 53.8625 45.6745 50.6293 47.4514C48.2516 48.7505 45.5767 49.6104 42.8428 49.5574C42.5711 49.5574 42.298 49.5441 42.0315 49.5149C41.9994 49.5162 41.3983 49.4671 42.4358 49.8692C43.3101 50.2089 44.1883 50.5009 45.0907 50.7344C46.8833 51.1923 48.7403 51.4417 50.5905 51.4643C53.0137 51.4908 55.4329 51.1352 57.737 50.4013C57.9994 50.3217 58.3917 50.1121 58.6005 49.9382C62.5218 46.7786 64.6358 41.9031 65.1807 36.9878C65.2115 36.7184 65.0401 36.6136 64.8005 36.7476Z" fill="#95569E"/>
<path d="M69.6049 41.5474C70.5809 40.0532 71.3173 38.4183 71.9572 36.7595C72.308 35.8717 72.5771 34.9455 72.7939 34.0179C72.893 33.572 72.9841 33.1181 73.055 32.667C73.0831 32.4745 73.3027 31.5523 72.8395 31.9305C71.4592 33.073 69.3024 34.3775 67.6971 35.2772C67.4575 35.4126 67.2406 35.739 67.2152 36.0084C66.7894 40.4115 65.1989 44.7601 62.3192 48.1745C62.1438 48.3816 62.1893 48.44 62.4236 48.2966C65.2498 46.6073 67.815 44.2957 69.6049 41.5474Z" fill="#95569E"/>
<path d="M18.9169 33.4845C19.0173 33.9211 19.348 34.1653 19.7376 34.3365C20.8381 34.8222 22.1353 34.9257 23.3188 35.0345C24.8036 35.1659 26.3004 35.2057 27.7918 35.1712C27.9283 35.1698 28.0649 35.1619 28.1961 35.1632C35.8366 34.9164 43.4008 33.7327 50.7508 31.6599C53.0844 31.003 55.4032 30.2784 57.6845 29.4384C58.8251 29.0217 59.9591 28.5772 61.077 28.1008C61.6339 27.8686 62.1815 27.6284 62.7224 27.3815C63.0785 27.2183 63.4667 27.075 63.8229 26.8906C64.0692 26.7711 64.195 26.4287 64.1161 26.1687C63.6635 24.6744 63.0879 23.2094 62.3997 21.8027C62.2792 21.5559 61.974 21.4418 61.7129 21.5347C60.35 22.0283 58.8907 22.38 57.4609 22.5472C55.4714 22.7755 53.4565 22.6175 51.4952 22.2898C47.4748 21.6223 43.5949 20.2899 39.4875 20.1811C37.0924 20.1148 34.5875 20.4001 32.4495 21.54C31.4092 22.0987 30.4895 22.8604 29.7812 23.8052C29.0087 24.8456 28.5696 26.0121 28.2804 27.2581C28.0622 28.6489 28.1198 30.0807 28.2724 31.4728C28.334 32.0686 28.4197 32.5251 29.0971 32.6034C29.559 32.6631 30.0249 32.6883 30.4828 32.7135C31.5752 32.7666 32.669 32.7865 33.7601 32.7878C34.2314 32.7931 34.704 32.7945 35.1766 32.7905C35.368 32.7905 35.5662 32.7878 35.7697 32.7892C35.8339 32.7852 36.1994 32.8635 35.1297 33.0267C34.6585 33.101 34.1939 33.1594 33.7173 33.2098C32.8082 33.312 31.8979 33.3863 30.9888 33.4394C29.152 33.5456 27.3058 33.6132 25.4703 33.5947C24.5613 33.5827 23.6535 33.5522 22.7539 33.4527C22.3415 33.4115 21.9305 33.3452 21.5369 33.2337C21.2638 33.1541 20.8126 33.0493 20.6894 32.7507C20.4766 32.2345 21.5316 31.697 21.8743 31.5126C22.2398 31.3162 22.616 31.1463 23.0016 31.0043C23.3577 30.8743 23.3617 30.7018 23.1943 30.7203C23.0618 30.7389 22.79 30.8079 22.6575 30.8318C22.2719 30.9274 21.8903 31.0402 21.5182 31.1729C20.8956 31.3971 20.2771 31.6599 19.7376 32.0487C19.2931 32.3791 18.7817 32.8807 18.9169 33.4845Z" fill="#95569E"/>
<path d="M64.321 28.9768C60.6366 30.7006 56.9094 32.3223 53.0429 33.628C47.0585 35.6425 40.8505 36.9775 34.5876 37.7803C32.475 38.047 30.3744 38.2421 28.2604 38.3881C27.2938 38.4544 26.3232 38.5248 25.3526 38.5699C24.8652 38.5977 24.3726 38.6084 23.8812 38.619C23.4247 38.6243 22.9708 38.6296 22.5197 38.6256C22.3095 38.6256 22.1046 38.623 21.8998 38.6256C21.62 38.6296 21.6535 38.7371 21.8797 38.7849C22.4193 38.899 23.3042 39.0104 23.6041 39.0529C24.7956 39.248 25.9938 39.4006 27.1921 39.5174C27.9231 39.5957 28.6554 39.6607 29.3877 39.7032C30.0437 39.7483 30.5591 39.7111 30.8778 40.3547C31.0692 40.7435 31.2888 41.1151 31.5458 41.4694C31.6583 41.626 32.0091 41.9326 31.9488 42.1568C31.8792 42.3997 31.2901 42.3333 31.104 42.3413C30.4949 42.3439 29.8817 42.34 29.2685 42.3293C28.9499 42.3187 28.6246 42.3108 28.3006 42.2988C27.8923 42.2855 27.8923 42.3877 28.2939 42.4554C29.5028 42.6584 32.005 42.969 33.2394 43.0632C33.9851 43.0831 34.7308 43.095 35.4806 43.0831C35.8501 43.0818 36.2249 43.0791 36.5945 43.0725C36.8087 43.0645 37.0108 43.0592 37.2183 43.0552C37.2438 43.0565 38.2171 43.2224 34.6652 43.5117C34.4979 43.525 33.554 43.5157 33.7 43.8461C33.7682 44.0093 34.5073 44.5508 34.7027 44.6967C36.1138 45.7106 37.7472 46.3847 39.4488 46.7311C42.8413 47.4185 46.3248 46.7351 49.3867 45.2103C53.1915 43.3127 56.1369 40.1543 59.5548 37.6848C60.4786 37.0186 61.4452 36.4095 62.4266 35.8243C62.9166 35.531 63.4213 35.247 63.9207 34.971C64.1603 34.8436 64.4013 34.7122 64.6369 34.5835C64.748 34.5238 64.8819 34.4747 65.0038 34.415C65.2046 34.3115 65.3344 33.9691 65.3291 33.697C65.297 32.2081 65.143 30.7192 64.8672 29.2515C64.8136 28.9808 64.5727 28.8601 64.321 28.9768Z" fill="#95569E"/>
<path d="M77.7773 5C77.6555 5 77.5323 5.17251 77.4466 5.51621C76.9834 7.10997 76.6527 7.84912 76.2591 8.41576C75.8655 8.98107 75.409 9.37519 74.2456 10.1316C74.034 10.255 74.034 10.4687 74.2456 10.5921C75.3688 11.3219 75.8468 11.7532 76.2404 12.2854C76.6594 12.8573 76.9673 13.5566 77.4466 15.2075C77.5323 15.5525 77.6541 15.725 77.776 15.725C77.8978 15.725 78.0183 15.5551 78.1026 15.2181C78.5833 13.5805 78.8992 12.8998 79.3263 12.3252C79.7172 11.7957 80.1871 11.3445 81.305 10.5987C81.5152 10.4713 81.5139 10.2524 81.305 10.125C80.1577 9.3606 79.6985 8.92799 79.3062 8.37595C78.8979 7.80533 78.5712 7.10598 78.1026 5.50692C78.0183 5.16986 77.8991 5 77.7773 5ZM77.7813 7.53727C78.0116 8.10125 78.2459 8.53121 78.5257 8.92401C78.8939 9.44022 79.3156 9.86088 79.989 10.3638C79.3491 10.8442 78.9273 11.2635 78.5552 11.7638C78.262 12.1593 78.0223 12.5919 77.7827 13.1758C77.5417 12.56 77.3047 12.1248 77.0115 11.7267C76.6541 11.241 76.2444 10.8416 75.5937 10.3638C76.3006 9.85425 76.6889 9.46543 77.045 8.95453C77.3154 8.56571 77.5497 8.12248 77.7813 7.53727Z" fill="#95569E"/>
<path d="M21.7031 15.936C21.6147 15.936 21.5264 16.0594 21.4648 16.3063C21.1301 17.4528 20.8931 17.9863 20.6106 18.3924C20.3268 18.7984 19.9988 19.0824 19.162 19.6265C19.0108 19.7154 19.0108 19.868 19.162 19.9569C19.9693 20.4824 20.3134 20.7916 20.5959 21.1738C20.8985 21.5865 21.118 22.0894 21.4648 23.2758C21.525 23.524 21.6134 23.6487 21.7017 23.6487C21.7888 23.6487 21.8758 23.5266 21.9374 23.2838C22.2814 22.1067 22.509 21.6157 22.8156 21.203C23.0968 20.8221 23.4342 20.4997 24.2388 19.9622C24.3914 19.8707 24.3901 19.7127 24.2388 19.6212C23.4141 19.0718 23.0834 18.7599 22.8009 18.3645C22.5077 17.9531 22.2734 17.4502 21.9374 16.2996C21.8758 16.0568 21.7901 15.936 21.7031 15.936ZM21.7071 18.1362C21.8343 18.4043 21.9682 18.6312 22.1195 18.8422C22.3645 19.1859 22.6389 19.4726 23.0499 19.7937C22.6603 20.1002 22.3859 20.3816 22.1422 20.7133C21.9816 20.9296 21.841 21.1592 21.7098 21.4392C21.5746 21.1433 21.4353 20.9071 21.2707 20.6854C21.035 20.3656 20.7713 20.0963 20.3804 19.795C20.8048 19.4726 21.0605 19.2071 21.2988 18.8621C21.4474 18.6511 21.5786 18.4162 21.7071 18.1362Z" fill="#95569E"/>
<path d="M37.2721 51.2825C37.2158 51.2825 37.1596 51.3621 37.1208 51.5213C36.9066 52.2552 36.7539 52.5962 36.5732 52.855C36.3925 53.1164 36.1823 53.2956 35.6468 53.6432C35.5504 53.7016 35.5504 53.7998 35.6468 53.8569C36.1635 54.1926 36.3831 54.3904 36.5652 54.6332C36.758 54.8973 36.8985 55.2197 37.1208 55.9788C37.1596 56.1367 37.2158 56.2163 37.2707 56.2163C37.3269 56.2163 37.3832 56.138 37.422 55.9828C37.6416 55.2317 37.7875 54.9185 37.9843 54.6531C38.1637 54.4089 38.3806 54.2019 38.8933 53.8582C38.9924 53.8012 38.9911 53.7003 38.8933 53.6406C38.3672 53.2903 38.1557 53.0885 37.9749 52.8364C37.7875 52.575 37.6375 52.2525 37.422 51.516C37.3832 51.3621 37.3269 51.2825 37.2721 51.2825Z" fill="#95569E"/>
<path d="M49.739 92.0592V84.7061C49.7149 84.7937 49.6894 84.8813 49.6613 84.9715C48.8915 87.4743 48.1244 89.9757 47.3519 92.4785C46.2393 92.6722 45.1322 92.8633 44.0196 93.0611V82.8244C43.9058 81.8955 43.7934 80.9745 43.6782 80.0456C43.6782 80.0456 45.9381 79.6528 47.0225 79.4617V86.7935C47.0493 86.7073 47.0761 86.617 47.1042 86.5308C47.8687 84.036 48.6371 81.5372 49.4029 79.0451C50.5342 78.846 51.6722 78.6483 52.8035 78.4492V91.5204C51.786 91.6982 50.7631 91.876 49.739 92.0592Z" fill="#202A25"/>
<path d="M65.6839 83.9378C65.4469 82.3282 65.2073 80.7092 64.9716 79.0969C64.8618 79.1128 64.7561 79.134 64.653 79.1499C64.4093 80.8499 64.1683 82.5471 63.9247 84.2378C64.5084 84.1382 65.0961 84.0387 65.6839 83.9378ZM66.0788 86.5667C65.2354 86.7153 64.3799 86.8639 63.5297 87.0126C63.3972 87.911 63.2754 88.8133 63.1482 89.7064C62.1735 89.8816 61.1962 90.0448 60.2229 90.22C60.9633 85.736 61.7103 81.2466 62.4507 76.7626C64.0438 76.484 65.6276 76.2106 67.2114 75.9346C67.9397 80.1678 68.6707 84.3957 69.4044 88.6289C68.4244 88.7987 67.4444 88.9686 66.455 89.1345C66.3278 88.2799 66.202 87.4239 66.0788 86.5667Z" fill="#202A25"/>
<path d="M18.3333 79.0347V63.6612L20.0911 61.5141L28.0958 60.1167L29.8804 61.6096V67.2441C28.3796 67.5082 26.8801 67.771 25.3847 68.0337V64.4003C25.3847 64.4003 22.5157 64.89 21.8945 64.9882C21.0912 65.1156 21.0912 65.1156 22.3162 65.5867C22.6843 65.7287 22.8517 65.8786 22.8517 66.2436V76.2467L25.4543 75.7862V71.5835C26.9672 71.3168 28.4773 71.0514 29.9915 70.7886V76.9885L28.2069 79.1064L20.0911 80.5276L18.3333 79.0347Z" fill="#202A25"/>
<path d="M43.5885 57.3933C42.6915 63.0557 40.8252 75.1064 40.8252 75.1064L39.066 77.2018L33.3172 78.2077L32.7736 74.5451C32.7736 74.5451 35.6788 74.0421 36.8864 73.8325C36.8864 73.8325 37.1247 72.1936 37.2091 71.6389C36.4594 71.7703 34.5101 72.11 34.5101 72.11L32.9075 70.7445C32.9075 70.7445 31.5821 63.1805 30.9529 59.5975C32.4269 59.3414 34.0308 59.0601 35.5142 58.8026C35.956 61.8428 36.3978 64.887 36.8369 67.9312C37.1274 67.8794 37.4193 67.825 37.7098 67.7759C38.1422 64.5805 38.5747 61.385 39.0084 58.1895C40.4918 57.9308 42.0997 57.6534 43.5885 57.3933Z" fill="#202A25"/>
<path d="M44.5254 57.2303C44.686 58.5786 44.8507 59.9189 45.0154 61.2631V76.1616C46.5242 75.8975 48.0371 75.6375 49.5472 75.372V64.0234H49.5499V61.8948C49.5499 61.5325 49.3839 61.3826 49.013 61.2406C48.1107 60.8929 47.8737 60.8027 48.1335 60.7257C49.3451 60.5213 51.4055 60.1657 52.0923 60.0463V74.9288C53.6105 74.6634 55.1287 74.3954 56.6455 74.1339V55.1204C52.6291 55.817 44.5214 57.2303 44.5254 57.2303Z" fill="#202A25"/>
<path d="M63.9486 68.9546V65.0253C65.4039 64.7652 67.9877 64.3047 67.9877 64.3047L67.9864 60.4073C67.9864 60.4073 65.5257 60.8425 63.9486 61.1146V59.1638C63.9486 58.8002 63.7812 58.649 63.4117 58.507C62.4531 58.1381 62.2443 58.0584 62.5857 57.9801C64.551 57.6431 67.7039 57.0937 69.2234 56.8309V52.9229C65.8149 53.52 58.8826 54.7316 58.8826 54.7316C59.0486 56.0719 59.2133 57.4201 59.3752 58.7604V73.6616C62.6981 73.0777 66.0237 72.5044 69.356 71.9232V68.0124C67.554 68.3309 65.7493 68.6428 63.9486 68.9546Z" fill="#202A25"/>
<path d="M78.737 62.1376C78.737 62.1376 76.8775 62.4694 76.188 62.5862V59.0377H76.1907V56.9092C76.1907 56.5469 76.0246 56.3969 75.6551 56.255C74.7448 55.9046 74.5118 55.8144 74.7809 55.7387C76.2148 55.4919 78.737 55.058 78.737 55.058V62.1376ZM81.5244 50.769C81.5244 50.769 74.5935 51.9833 71.1702 52.5778C71.3121 53.9247 71.4553 55.2756 71.5946 56.6265V71.5184C73.1248 71.253 74.6577 70.9836 76.188 70.7182V66.4146C77.9271 66.1121 81.5084 65.4857 81.5084 65.4857L83.3331 63.3306V52.2606L81.5244 50.769Z" fill="#202A25"/>
<path d="M57.1186 80.6734C58.2874 80.4691 59.9756 80.1758 60.6289 80.063C60.7963 79.0425 60.9636 78.0181 61.139 76.9883C58.9943 77.3678 54.5923 78.1362 54.5923 78.1282C54.7034 79.0558 54.8159 79.9834 54.9283 80.9057V91.141C55.9579 90.9671 56.9887 90.78 58.0209 90.6062V82.1026C58.0209 82.1 58.0209 82.0986 58.0209 82.096V81.463C58.0209 81.2215 57.9085 81.1193 57.6621 81.0264C57.0182 80.7783 56.883 80.7252 57.1186 80.6734Z" fill="#202A25"/>
<path d="M33.7145 81.7986C33.8591 82.7209 33.997 83.6365 34.1403 84.5628L34.0171 92.0446C33.7132 92.1003 33.0492 92.2131 32.7466 92.2688C32.8309 93.1778 32.9179 94.0868 33.0023 94.9998C33.9033 94.8366 35.7026 94.5248 35.7026 94.5248L36.9705 92.939L37.1231 84.9967C37.1231 84.7539 37.0107 84.653 36.7643 84.5588C36.0909 84.3 35.9744 84.2549 36.2556 84.1979C36.3011 84.1899 38.3789 83.8263 38.6882 83.7719V94.0019C39.7311 93.8201 40.7807 93.6317 41.8236 93.4499V80.3813C39.0791 80.8631 33.7145 81.7986 33.7145 81.7986Z" fill="#202A25"/>
</svg>
