<svg width="100" height="100" viewBox="0 0 100 100" fill="none" xmlns="http://www.w3.org/2000/svg">
<path d="M50.762 49.5114H57.4302L61.9453 32.141L60.8583 29.8066C54.9559 33.5474 49.7945 38.3702 45.6606 43.9798L47.2262 52.2054L50.762 49.5114Z" fill="#F9A50D"/>
<path d="M59.9135 27.7777L56.0483 19.4765C55.9158 19.2283 55.7289 19.0587 55.5327 19.0092C55.2863 18.9473 55.0183 19.0791 54.835 19.2036L42.6235 28.0216L45.104 41.0545C49.2378 35.833 54.2507 31.3278 59.9135 27.7777Z" fill="#F9A50D"/>
<path d="M53.3538 62.0611L55.8701 51.7302H51.5109L47.6897 54.6415L48.9612 61.3226L53.3538 62.0611Z" fill="#F9A50D"/>
<path d="M57.0252 73.7991L53.9814 64.4165L48.8386 63.5518L48.1106 71.3378C50.9977 72.4279 53.9783 73.2506 57.0252 73.7991Z" fill="#F9A50D"/>
<path d="M43.8547 54.7739L47.2259 52.2056L45.6604 43.98C44.4527 45.6185 43.3322 47.3239 42.3071 49.0894L43.8547 54.7739Z" fill="#F2581A"/>
<path d="M41.5029 46.1348C42.6128 44.3761 43.8162 42.6812 45.1044 41.0544L42.6233 28.0215L37.5659 31.6737L41.5029 46.1348Z" fill="#F2581A"/>
<path d="M46.2839 60.8718L48.9612 61.3225L47.6897 54.6414L45.3096 56.4551L46.2839 60.8718Z" fill="#F2581A"/>
<path d="M44.2839 69.7115C45.5393 70.307 46.8157 70.8493 48.1107 71.3377L48.8387 63.5516L46.1583 63.1003L44.2839 69.7115Z" fill="#F2581A"/>
<path d="M52.6927 78.2937C54.6135 78.2937 56.4892 78.1 58.3023 77.7354L58.7307 79.0545L57.7972 76.1779C54.4117 75.6461 51.1012 74.7907 47.8971 73.6226L47.5046 77.8177C49.1865 78.1297 50.9198 78.2937 52.6927 78.2937Z" fill="#F9A50D"/>
<path d="M58.7307 79.0544C58.5593 79.1058 58.3878 79.1566 58.2151 79.2049C58.3878 79.1566 58.5593 79.1058 58.7307 79.0544Z" fill="#2A3C90"/>
<path d="M58.3023 77.7353C56.4892 78.1006 54.6135 78.2937 52.6927 78.2937C50.9198 78.2937 49.1865 78.1297 47.5046 77.8177L47.8971 73.6225C46.4659 73.1013 45.0564 72.5176 43.671 71.8726L42.3983 76.3617L41.6072 79.1529C41.8857 79.2334 42.1662 79.3089 42.4478 79.3813C42.5048 79.3956 42.5623 79.4098 42.6193 79.424C42.8626 79.4853 43.1071 79.5429 43.3522 79.5986C43.3776 79.6042 43.403 79.611 43.429 79.6166C43.4723 79.6265 43.5162 79.6357 43.5602 79.645C43.6283 79.6599 43.6958 79.6747 43.7645 79.689C43.8518 79.7076 43.939 79.7255 44.0269 79.7435C44.082 79.754 44.1371 79.7645 44.1922 79.775C44.2968 79.7955 44.4008 79.8159 44.5055 79.8351C44.524 79.8382 44.5426 79.8425 44.5612 79.8456C44.5909 79.8512 44.6206 79.8567 44.6503 79.8623C44.7184 79.8741 44.7865 79.8846 44.8546 79.8964C44.9945 79.9199 45.1344 79.944 45.2749 79.9657C45.2997 79.97 45.3244 79.9744 45.3492 79.9781C45.377 79.9824 45.4043 79.9861 45.4321 79.9904C45.4755 79.9973 45.5188 80.0028 45.5621 80.009C45.7014 80.0294 45.8419 80.0499 45.9824 80.0684C46.0023 80.0709 46.0227 80.074 46.0431 80.0765C46.4529 80.1297 46.8652 80.1774 47.2805 80.2145V80.2114C48.1781 80.2919 49.0869 80.3334 50.0055 80.3334C51.1903 80.3334 52.359 80.2653 53.5085 80.1334C53.5259 80.131 53.5432 80.1291 53.5599 80.1273C53.8094 80.0975 54.0576 80.0654 54.3052 80.0301C54.3269 80.027 54.3486 80.0239 54.3702 80.0214C54.3882 80.0183 54.4068 80.0164 54.4247 80.0134C54.655 79.9799 54.8834 79.9428 55.1118 79.9038C55.2171 79.8858 55.3217 79.8673 55.4269 79.8481C55.5476 79.8264 55.6683 79.8035 55.789 79.78H55.7897C56.0447 79.7305 56.2985 79.6778 56.5517 79.6221C56.5839 79.6147 56.6161 79.6079 56.6482 79.6011C56.6489 79.6011 56.6495 79.6005 56.6501 79.6005C57.1769 79.4822 57.6987 79.3504 58.215 79.2049C58.3871 79.1566 58.5592 79.1059 58.7306 79.0545L58.3023 77.7353Z" fill="#F2581A"/>
<path d="M31.1865 31.6181C35.134 27.0039 40.5405 23.6766 46.6912 22.3482L50.3942 19.674C50.2642 19.6722 50.1354 19.6685 50.0054 19.6685C48.4374 19.6685 46.8967 19.7873 45.3931 20.017C45.377 20.0194 45.3609 20.0219 45.3448 20.0244C45.1201 20.0591 44.8966 20.0962 44.6738 20.1358C44.5989 20.1494 44.5252 20.1637 44.4509 20.1773C44.2881 20.2076 44.1259 20.238 43.9644 20.2708C43.8393 20.2961 43.7149 20.3234 43.5911 20.35C43.4821 20.3735 43.3732 20.3964 43.2649 20.4212C43.0959 20.4596 42.9275 20.5004 42.7597 20.5413C42.6985 20.5568 42.6366 20.571 42.5753 20.5865C42.3667 20.6391 42.158 20.6942 41.9507 20.7518C41.9327 20.7567 41.9148 20.761 41.8962 20.766C36.9811 22.1316 32.5644 24.7061 28.9871 28.1472C29.6178 29.3686 30.3563 30.5286 31.1865 31.6181Z" fill="#2B378C"/>
<path d="M24.3997 50.0013C24.3997 43.8042 26.3936 38.0733 29.7722 33.4127C28.8759 32.2879 28.0693 31.0895 27.3692 29.8279C24.2759 33.295 21.9663 37.4753 20.7178 42.0864C20.6942 42.1737 20.6701 42.2604 20.6472 42.3477C20.6212 42.4479 20.5971 42.5482 20.5717 42.6485C20.5352 42.7958 20.4986 42.9419 20.4646 43.0893C20.4491 43.1542 20.4349 43.2192 20.4206 43.2842C20.3779 43.4706 20.3371 43.6569 20.2981 43.8451C20.2906 43.8816 20.2832 43.9187 20.2758 43.9559C20.2312 44.1756 20.1891 44.3954 20.1495 44.617C20.147 44.6275 20.1458 44.6387 20.1439 44.6492C19.8344 46.3862 19.6729 48.1745 19.6729 50.0013C19.6729 51.5482 19.7892 53.0692 20.0127 54.5542C21.5107 53.9736 23.0242 53.4387 24.552 52.9472C24.4517 51.9784 24.3997 50.9961 24.3997 50.0013Z" fill="#2B378C"/>
<path d="M30.1242 67.0652C27.5224 63.6296 25.6876 59.5818 24.873 55.1755C23.3787 55.6646 21.8974 56.1951 20.4321 56.772C20.4346 56.7838 20.4371 56.7955 20.4396 56.8079C20.5107 57.1168 20.5869 57.4245 20.6674 57.7296C20.6791 57.7736 20.6915 57.8175 20.7033 57.8615C20.7819 58.1543 20.8636 58.4452 20.9509 58.7343C20.9564 58.7523 20.9614 58.7702 20.967 58.7888C22.3579 63.3758 24.808 67.5071 28.0319 70.8963C28.6156 69.5475 29.3176 68.2667 30.1242 67.0652Z" fill="#2B378C"/>
<path d="M39.4976 78.4595L40.3469 75.4647C37.0153 73.8466 34.0501 71.5933 31.6062 68.8628C30.8776 70.0241 30.2524 71.2609 29.7485 72.5621C32.5719 75.1001 35.8725 77.1169 39.4976 78.4595Z" fill="#2B378C"/>
<path d="M70.9106 28.3552C70.949 28.2834 70.9886 28.2122 71.0264 28.1398C70.9936 28.1082 70.9608 28.076 70.9279 28.0451C70.785 27.9089 70.6407 27.774 70.4946 27.6409C70.4433 27.5932 70.3919 27.5462 70.3399 27.4991C70.1505 27.3283 69.9592 27.1593 69.7654 26.9927C69.7549 26.9841 69.7444 26.9748 69.7339 26.9655C66.8919 24.534 63.6173 22.6361 60.0981 21.39C60.0251 21.364 59.9508 21.3398 59.8778 21.3144C59.6927 21.2507 59.5076 21.1875 59.3219 21.1275C59.2996 21.1201 59.2773 21.1139 59.2544 21.1064L59.9762 22.6565C64.0568 23.741 67.7746 25.7132 70.9106 28.3552Z" fill="#2B378C"/>
<path d="M70.2582 72.5629C70.2204 72.4657 70.1796 72.3692 70.14 72.272C67.3011 74.4992 64.0265 76.1947 60.4646 77.2106L60.8304 78.3378C64.3292 76.9964 67.5184 75.0254 70.2582 72.5629Z" fill="#2B378C"/>
<path d="M31.1865 31.618C32.7229 33.6348 34.5763 35.4046 36.6736 36.842L35.0214 30.7743L46.6912 22.3481C40.5406 23.6766 35.134 27.0038 31.1865 31.618Z" fill="#2B378C"/>
<path d="M64.2934 31.9276L62.9489 37.1008C66.2854 34.9101 69.0401 31.8892 70.9108 28.3552C67.7748 25.7132 64.0569 23.7404 59.9763 22.6565L64.2934 31.9276Z" fill="#2B378C"/>
<path d="M40.3468 75.4643L44.2188 61.808L43.7366 59.6228C38.6476 61.1524 34.3683 64.4605 31.6062 68.8636C34.0501 71.5935 37.0152 73.8461 40.3468 75.4643Z" fill="#3D4EA9"/>
<path d="M42.3614 57.7328L40.7228 51.7146C35.3237 52.333 30.0168 53.4937 24.8733 55.1756C25.6879 59.5818 27.5227 63.6296 30.1245 67.0652C33.0345 62.7301 37.3126 59.4289 42.3614 57.7328Z" fill="#2B378C"/>
<path d="M24.5519 52.9472C29.6143 51.3173 34.8296 50.1776 40.1328 49.5487L37.5255 39.9724C34.5294 38.3171 31.893 36.0732 29.7722 33.4126C26.3935 38.0732 24.3997 43.8042 24.3997 50.0012C24.3997 50.996 24.4517 51.979 24.5519 52.9472Z" fill="#3D4EA9"/>
<path d="M56.2337 59.6123L55.5999 62.2147L60.4648 77.2106C64.0266 76.1954 67.3013 74.4992 70.1401 72.272C67.6746 66.2086 62.5032 61.4923 56.2337 59.6123Z" fill="#3D4EA9"/>
<path d="M58.1861 51.5972L56.7593 57.4544C60.2803 58.4894 63.545 60.3378 66.257 62.8455C68.6668 65.074 70.5926 67.7803 71.9112 70.7615C71.9316 70.8074 71.9533 70.8525 71.9731 70.899C72.4875 70.3579 72.9802 69.7959 73.4544 69.2183C76.3805 65.6546 78.5137 61.4161 79.5759 56.7728C72.7252 54.0757 65.5383 52.3369 58.1861 51.5972Z" fill="#2B378C"/>
<path d="M20.951 58.7344C20.8643 58.4453 20.782 58.1544 20.7034 57.8616C20.7814 58.1544 20.8643 58.4453 20.951 58.7344Z" fill="white"/>
<path d="M20.6675 57.7298C20.587 57.4247 20.5109 57.117 20.4397 56.8081C20.5109 57.1176 20.5876 57.424 20.6675 57.7298Z" fill="white"/>
<path d="M45.4321 79.9904C45.4042 79.9867 45.3764 79.9824 45.3491 79.978C45.3764 79.9824 45.4042 79.9867 45.4321 79.9904Z" fill="white"/>
<path d="M54.4247 80.0134C54.385 80.019 54.3448 80.0246 54.3052 80.0301C54.3448 80.0246 54.385 80.019 54.4247 80.0134Z" fill="white"/>
<path d="M55.4271 79.8481C55.3225 79.8673 55.2173 79.8859 55.1121 79.9038C55.2173 79.8859 55.3225 79.8673 55.4271 79.8481Z" fill="white"/>
<path d="M53.5599 80.1274C53.5426 80.1293 53.5259 80.1312 53.5085 80.1336C53.5259 80.1312 53.5426 80.1293 53.5599 80.1274Z" fill="white"/>
<path d="M56.5519 79.6221C56.2988 79.6778 56.045 79.7304 55.7893 79.7799C56.045 79.7304 56.2988 79.6778 56.5519 79.6221Z" fill="white"/>
<path d="M44.6504 79.8624C44.6207 79.8569 44.591 79.8513 44.5613 79.8457C44.591 79.8513 44.6207 79.8575 44.6504 79.8624Z" fill="white"/>
<path d="M44.0273 79.7428C43.9307 79.7236 43.8341 79.7038 43.7375 79.6833C43.8341 79.7038 43.9307 79.7242 44.0273 79.7428Z" fill="white"/>
<path d="M45.345 20.0243C45.3611 20.0218 45.3772 20.0193 45.3933 20.0168C45.3772 20.0193 45.3611 20.0218 45.345 20.0243Z" fill="white"/>
<path d="M44.4512 20.1772C44.5255 20.1636 44.5991 20.1494 44.674 20.1357C44.5991 20.1487 44.5255 20.1636 44.4512 20.1772Z" fill="white"/>
<path d="M59.322 21.1274C59.5077 21.1875 59.6928 21.2506 59.8779 21.3144C59.6928 21.2512 59.5084 21.1875 59.322 21.1274Z" fill="white"/>
<path d="M70.4949 27.6409C70.641 27.774 70.7852 27.9089 70.9282 28.0451C70.7852 27.9089 70.6403 27.774 70.4949 27.6409Z" fill="white"/>
<path d="M69.7654 26.9927C69.9591 27.1592 70.1504 27.3282 70.3398 27.499C70.1504 27.3282 69.9591 27.1592 69.7654 26.9927Z" fill="white"/>
<path d="M43.5903 20.35C43.7148 20.3234 43.8392 20.2961 43.9642 20.2708C43.8392 20.2961 43.7148 20.3234 43.5903 20.35Z" fill="white"/>
<path d="M42.7598 20.5412C42.9275 20.5004 43.0959 20.4595 43.2649 20.4211C43.0959 20.4595 42.9275 20.5004 42.7598 20.5412Z" fill="white"/>
<path d="M41.9509 20.7511C42.1583 20.6941 42.3669 20.639 42.5755 20.5864C42.3669 20.639 42.1589 20.6948 41.9509 20.7511Z" fill="white"/>
<path d="M80.3099 51.3025C80.3081 51.3477 80.3062 51.3929 80.3037 51.4381C80.3062 51.3929 80.3081 51.3477 80.3099 51.3025Z" fill="white"/>
<path d="M80.1794 53.1074C80.1689 53.2102 80.159 53.3123 80.1472 53.4145C80.159 53.3123 80.1689 53.2102 80.1794 53.1074Z" fill="white"/>
<path d="M80.2334 52.5261C80.2265 52.6097 80.2197 52.6933 80.2117 52.7762C80.2197 52.6933 80.2265 52.6097 80.2334 52.5261Z" fill="white"/>
<path d="M80.2772 51.9209C80.2734 51.9878 80.2685 52.0546 80.2642 52.1215C80.2685 52.0546 80.2734 51.9878 80.2772 51.9209Z" fill="white"/>
<path d="M61.0367 44.4573L59.7175 49.5315C66.6772 50.3436 73.4828 52.0268 79.9974 54.5536C80.0457 54.2317 80.089 53.9073 80.1274 53.5817C80.1336 53.526 80.141 53.4703 80.1472 53.4146C80.159 53.3125 80.1689 53.2097 80.1794 53.1076C80.1905 52.9974 80.2017 52.8872 80.2122 52.7764C80.2196 52.6934 80.2264 52.6099 80.2332 52.5263C80.2444 52.3914 80.2549 52.257 80.2642 52.1215C80.2685 52.0546 80.2735 51.9878 80.2772 51.9209C80.2871 51.76 80.2964 51.5996 80.3038 51.4387C80.3063 51.3929 80.3081 51.3477 80.31 51.3025C80.3193 51.0964 80.3261 50.8902 80.3304 50.6828C80.3304 50.6804 80.331 50.6779 80.331 50.6754C80.3354 50.4507 80.3391 50.2266 80.3391 50.0013C80.3391 45.6229 79.4316 41.4099 77.6798 37.5366C73.0532 41.33 67.3198 43.8234 61.0367 44.4573Z" fill="#2B378C"/>
<path d="M73.6808 31.0363C73.3465 30.6191 73.0005 30.2124 72.6452 29.8149C72.6446 29.8156 72.6439 29.8168 72.6433 29.818C72.6285 29.844 72.613 29.8694 72.5981 29.896C70.1821 34.2236 66.541 37.8096 62.1558 40.1496L61.0366 44.4574C67.3197 43.8235 73.0531 41.33 77.6797 37.5367C76.6404 35.2382 75.3033 33.0586 73.6808 31.0363Z" fill="#3D4EA9"/>
<path fill-rule="evenodd" clip-rule="evenodd" d="M50 82.7223C31.9282 82.7223 17.2777 68.0718 17.2777 50C17.2777 31.9276 31.9282 17.2771 50 17.2771C68.0724 17.2771 82.7229 31.9276 82.7229 50C82.7229 68.0718 68.0724 82.7223 50 82.7223ZM50 5C25.1474 5 5 25.1468 5 50C5 74.8526 25.1474 95 50 95C74.8532 95 95 74.8526 95 50C95 25.1468 74.8532 5 50 5Z" fill="#2B378C"/>
<path fill-rule="evenodd" clip-rule="evenodd" d="M20.5294 71.5817L20.4836 71.5786L18.1617 75.6902L18.1592 75.7348L18.7268 76.425L18.7726 76.4299L23.25 74.9282L23.255 74.8824L22.644 74.1445L22.5994 74.1395L19.4783 75.2259L21.1348 72.3666L21.1385 72.3221L20.5294 71.5817Z" fill="white"/>
<path fill-rule="evenodd" clip-rule="evenodd" d="M23.9159 75.5193L23.8701 75.5205L23.2993 76.1241L23.3006 76.1693L24.2526 77.0681L21.8174 79.6463L21.8186 79.6903L22.4222 80.261L22.4674 80.2604L24.9026 77.6828L25.8559 78.5822L25.8999 78.5804L26.4706 77.9774L26.4694 77.9322L23.9159 75.5193Z" fill="white"/>
<path fill-rule="evenodd" clip-rule="evenodd" d="M26.5235 81.249L26.9296 81.5598C27.1828 81.7542 27.2837 81.9913 27.0707 82.2704C26.8578 82.5484 26.6021 82.5143 26.3489 82.3206L25.9428 82.0123L26.5235 81.249ZM27.569 79.8779L27.8241 80.0717C28.1032 80.284 28.1323 80.5087 27.9782 80.7117C27.8222 80.9154 27.5987 80.9445 27.3189 80.7309L27.0658 80.5372L27.569 79.8779ZM27.4254 78.6423L27.3808 78.6498L24.7073 82.1553L24.7147 82.1986L25.8568 83.0708C26.5167 83.576 27.3158 83.5822 27.8575 82.8703C28.1491 82.4883 28.1918 81.9584 27.9825 81.6C28.2648 81.6533 28.591 81.5412 28.8232 81.2354C29.2874 80.6257 29.025 79.8649 28.3657 79.3598L27.4254 78.6423Z" fill="white"/>
<path fill-rule="evenodd" clip-rule="evenodd" d="M31.8695 81.6768L31.8268 81.691L30.7187 83.8867C30.1269 85.0554 30.5801 86.143 31.5501 86.632C32.5201 87.1223 33.6641 86.8406 34.254 85.6713L35.362 83.4756L35.349 83.4323L34.6062 83.0584L34.5641 83.072L33.5136 85.155C33.1249 85.9239 32.5083 86.0792 31.9679 85.8056C31.4257 85.5326 31.1855 84.9452 31.5742 84.1745L32.6253 82.0934L32.6098 82.0513L31.8695 81.6768Z" fill="white"/>
<path fill-rule="evenodd" clip-rule="evenodd" d="M36.3702 83.8464L36.3299 83.8675L34.9285 88.0465L34.9477 88.0868L35.7357 88.3511L35.7759 88.3313L36.6995 85.5754L37.8973 89.0419L37.9456 89.0921L38.7639 89.3669L38.8048 89.3465L40.2063 85.1668L40.1871 85.1266L39.3984 84.8616L39.3594 84.8833L38.4346 87.6392L37.2387 84.1708L37.1879 84.12L36.3702 83.8464Z" fill="white"/>
<path fill-rule="evenodd" clip-rule="evenodd" d="M41.4398 85.4255L41.4002 85.4484L40.4116 89.7438L40.4358 89.7841L41.2448 89.971L41.2826 89.9463L42.273 85.6496L42.2483 85.6125L41.4398 85.4255Z" fill="white"/>
<path fill-rule="evenodd" clip-rule="evenodd" d="M43.3677 85.8601L43.3324 85.8873L43.2266 86.7106L43.2538 86.7472L44.5519 86.9143L44.0957 90.431L44.1248 90.4675L44.9474 90.574L44.9827 90.5468L45.439 87.0301L46.737 87.1978L46.7742 87.1706L46.88 86.3467L46.8528 86.3114L43.3677 85.8601Z" fill="white"/>
<path fill-rule="evenodd" clip-rule="evenodd" d="M47.8909 86.3733L47.8581 86.4042L47.7808 90.8129L47.8123 90.8433L50.8796 90.8977L50.9106 90.8662L50.9254 90.0367L50.8945 90.0039L48.6901 89.9661L48.7081 88.9744L50.2717 89.0023L50.3045 88.9707L50.3194 88.1406L50.2891 88.1078L48.7235 88.0799L48.7378 87.282L50.8771 87.3185L50.9087 87.287L50.9236 86.4569L50.892 86.4241L47.8909 86.3733Z" fill="white"/>
<path fill-rule="evenodd" clip-rule="evenodd" d="M53.0871 87.1841L53.7234 87.1315C54.5517 87.0647 55.1695 87.5599 55.232 88.3559C55.297 89.1514 54.7659 89.7395 53.9395 89.8076L53.3025 89.8571L53.0871 87.1841ZM52.1542 86.3608L52.1257 86.3949L52.4798 90.7899L52.5151 90.8184L54.0107 90.6983C55.3793 90.5875 56.2868 89.5092 56.1872 88.2792C56.0887 87.0504 55.0209 86.1299 53.651 86.2407L52.1542 86.3608Z" fill="white"/>
<path fill-rule="evenodd" clip-rule="evenodd" d="M58.2268 85.4681L58.2039 85.5071L59.3125 89.7722L59.3528 89.7957L61.8258 89.1532L61.8493 89.1142L61.6388 88.3101L61.6004 88.2865L59.9619 88.7137L59.0686 85.2818L59.0303 85.2595L58.2268 85.4681Z" fill="white"/>
<path fill-rule="evenodd" clip-rule="evenodd" d="M61.6383 84.5051L61.6204 84.546L63.2181 88.6557L63.2589 88.6736L66.1182 87.5625L66.1362 87.5204L65.8347 86.7466L65.7938 86.7293L63.7387 87.5272L63.3796 86.6036L64.8393 86.0372L64.8579 85.9963L64.5558 85.2213L64.5149 85.2034L63.0565 85.771L62.7668 85.0257L64.7625 84.2507L64.7799 84.2086L64.479 83.4361L64.4388 83.4175L61.6383 84.5051Z" fill="white"/>
<path fill-rule="evenodd" clip-rule="evenodd" d="M67.4267 83.2337L68.7118 84.2371L67.7702 84.7416L67.4267 83.2337ZM66.391 82.4933L66.3787 82.5361L67.2113 87.0549L67.2589 87.0661L68.1701 86.5777L68.1819 86.5356L67.9912 85.6299L69.4614 84.8438L70.2414 85.4337L70.2872 85.4449L71.1996 84.9571L71.212 84.9144L67.2602 82.0637L67.2131 82.0532L66.391 82.4933Z" fill="white"/>
<path fill-rule="evenodd" clip-rule="evenodd" d="M72.862 79.6184L72.207 78.8762C71.7007 79.0254 71.2742 79.3163 70.8198 79.7187C69.7904 80.6274 69.6988 82.1156 70.5456 83.0726C71.4128 84.0544 72.9034 84.1014 73.9335 83.1908C74.3625 82.8107 74.6621 82.3768 74.8503 81.8674L73.3071 80.1211L73.2619 80.1167L72.113 81.1332L72.1099 81.1784L72.6614 81.8005L72.7041 81.803L73.2086 81.3585L73.7583 81.9806C73.6803 82.1348 73.486 82.3483 73.3188 82.4981C72.6484 83.0899 71.7942 82.9915 71.2866 82.4164C70.7796 81.8426 70.787 80.9834 71.432 80.412C71.84 80.0517 72.3104 79.7651 72.8595 79.6618L72.862 79.6184Z" fill="white"/>
<path fill-rule="evenodd" clip-rule="evenodd" d="M73.3213 77.9124L73.3188 77.957L74.9902 79.7627C75.8785 80.7253 77.0565 80.6807 77.8532 79.9441C78.6518 79.2056 78.7873 78.035 77.8984 77.0755L76.2283 75.268L76.1831 75.2661L75.5733 75.8313L75.5721 75.8765L77.1543 77.5868C77.7406 78.2213 77.6712 78.8515 77.2255 79.2625C76.7792 79.6754 76.1453 79.6965 75.5591 79.062L73.9775 77.3516L73.9317 77.3497L73.3213 77.9124Z" fill="white"/>
<path fill-rule="evenodd" clip-rule="evenodd" d="M77.2251 74.16L77.2288 74.2051L80.6675 76.9641L80.7121 76.9604L82.6323 74.5691L82.6267 74.5239L81.9798 74.004L81.934 74.0095L80.5536 75.7267L79.7829 75.1077L80.7635 73.887L80.7579 73.8418L80.1104 73.3218L80.0652 73.3255L79.0847 74.5462L78.4625 74.0467L79.8021 72.3784L79.7984 72.3326L79.1497 71.8132L79.1057 71.8188L77.2251 74.16Z" fill="white"/>
<path fill-rule="evenodd" clip-rule="evenodd" d="M16.5513 26.3581L16.5568 26.4039L20.0611 29.0781L20.1057 29.0731L21.9665 26.6348L21.9609 26.5909L21.3004 26.0864L21.2559 26.0919L19.9188 27.8438L19.1314 27.2433L20.0816 25.9997L20.0741 25.9545L19.4143 25.45L19.3703 25.4562L18.4195 26.7004L17.7856 26.2163L19.0831 24.5153L19.0781 24.4695L18.4176 23.9656L18.3737 23.9724L16.5513 26.3581Z" fill="white"/>
<path fill-rule="evenodd" clip-rule="evenodd" d="M21.8217 21.5514L22.8629 20.5604L24.7113 22.5047L23.4851 23.6722C23.3972 23.5336 23.3544 23.4884 23.3111 23.4228L21.8217 21.5514ZM20.6499 21.432L20.6487 21.4759L22.5608 23.9335C22.6617 24.1043 22.7292 24.2132 22.7719 24.3501L22.3733 24.7277V24.7735L23.7382 26.2102H23.7816L24.3833 25.6382L24.3851 25.5924L23.615 24.7828L25.6981 22.8006L26.4687 23.6109L26.5133 23.6122L27.1162 23.0414L27.1175 22.9956L25.7519 21.5589L25.7073 21.5576L25.3601 21.8876L22.9168 19.3192L22.8716 19.3174L20.6499 21.432Z" fill="white"/>
<path fill-rule="evenodd" clip-rule="evenodd" d="M25.1939 17.4138L25.1846 17.4572L27.6854 21.0884L27.7294 21.0964L28.4413 20.6074L28.4753 20.5455L28.6666 16.8833L30.3169 19.2777L30.3609 19.2852L31.0443 18.8135L31.0517 18.7707L28.5533 15.1395L28.5075 15.1296L27.7975 15.6199L27.7634 15.6824L27.5703 19.3446L25.9212 16.9496L25.8773 16.9428L25.1939 17.4138Z" fill="white"/>
<path fill-rule="evenodd" clip-rule="evenodd" d="M30.7713 13.8612L30.7559 13.9039L32.6389 17.8898L32.681 17.9053L33.4313 17.5512L33.4474 17.5072L32.6563 15.8328L34.504 14.9587L35.2958 16.6344L35.3391 16.6493L36.0894 16.2952L36.1042 16.2519L34.2218 12.2666L34.1797 12.2505L33.4269 12.6064L33.4127 12.6485L34.1227 14.1497L32.2731 15.0237L31.5637 13.5207L31.5216 13.5065L30.7713 13.8612Z" fill="white"/>
<path fill-rule="evenodd" clip-rule="evenodd" d="M38.784 11.8655L39.6834 13.1722L38.6998 13.4502L38.784 11.8655ZM38.0405 10.8806L38.0195 10.9202L37.5862 15.6223L37.6264 15.6452L38.5785 15.376L38.6008 15.3357L38.6664 14.3892L40.2034 13.9559L40.7537 14.7291L40.7921 14.7514L41.746 14.4827L41.7671 14.4425L38.9425 10.6596L38.9022 10.6367L38.0405 10.8806Z" fill="white"/>
<path fill-rule="evenodd" clip-rule="evenodd" d="M45.1611 10.3138L45.275 11.2002L44.958 11.2411C44.6089 11.2863 44.4034 11.1835 44.3632 10.8672C44.3223 10.5515 44.4956 10.3998 44.8448 10.3546L45.1611 10.3138ZM45.9014 9.31592L44.6659 9.47563C43.78 9.58953 43.3176 10.2606 43.4117 10.9898C43.4786 11.4974 43.7126 11.8211 44.1496 11.9573L42.8899 14.1821L42.9258 14.2087L43.9385 14.0781L43.9664 14.0428L45.0732 12.1294L45.3895 12.0879L45.6142 13.8317L45.6501 13.8583L46.4728 13.7525L46.5007 13.7166L45.938 9.34377L45.9014 9.31592Z" fill="white"/>
<path fill-rule="evenodd" clip-rule="evenodd" d="M51.9902 9.15552L51.9233 9.18275L51.1681 12.1918C51.0338 12.5973 50.7311 12.7613 50.3479 12.7273L50.3139 12.7551L50.2427 13.5395L50.2699 13.5859C51.0969 13.6608 51.6986 13.3958 51.9729 12.4902L52.6086 10.1113L54.0088 10.2394L53.6857 13.7697L53.7136 13.8044L54.5406 13.8793L54.5771 13.8508L54.9764 9.46008L54.9485 9.42603L51.9902 9.15552Z" fill="white"/>
<path fill-rule="evenodd" clip-rule="evenodd" d="M57.4251 9.79126L57.3886 9.8154L56.3914 14.1102L56.4155 14.1486L57.2555 14.3423L57.3248 14.3256L60.1606 11.9993L59.5038 14.8314L59.528 14.8697L60.3358 15.0579L60.3742 15.0338L61.3714 10.739L61.3473 10.7006L60.506 10.5069L60.4379 10.5236L57.6022 12.8486L58.259 10.0166L58.2348 9.97944L57.4251 9.79126Z" fill="white"/>
<path fill-rule="evenodd" clip-rule="evenodd" d="M63.9605 11.5852L63.9184 11.6044L62.2402 15.6801L62.2576 15.7221L63.0252 16.0372L63.0673 16.0199L64.4174 12.7422L66.3382 13.532L66.379 13.5147L66.6954 12.7471L66.678 12.7063L63.9605 11.5852Z" fill="white"/>
<path fill-rule="evenodd" clip-rule="evenodd" d="M68.8933 15.105L68.6227 16.6675L67.7258 16.1772L68.8933 15.105ZM69.0499 13.8806L69.0078 13.8936L65.4119 16.9541L65.4236 16.9968L66.2934 17.4703L66.3373 17.458L67.0442 16.8259L68.4476 17.5904L68.3002 18.5276L68.3114 18.5716L69.1811 19.0464L69.2251 19.0328L69.8497 14.3511L69.8354 14.3096L69.0499 13.8806Z" fill="white"/>
<path fill-rule="evenodd" clip-rule="evenodd" d="M73.5266 19.9192L73.9228 20.2404C74.1711 20.4416 74.2645 20.6818 74.0429 20.9548C73.8213 21.2284 73.5675 21.1863 73.3187 20.9845L72.9225 20.6632L73.5266 19.9192ZM74.613 18.5796L74.8613 18.7808C75.133 19.0012 75.1572 19.2259 74.995 19.424C74.8346 19.6233 74.6093 19.6468 74.3382 19.4252L74.09 19.224L74.613 18.5796ZM74.5059 17.3416L74.462 17.3465L71.6851 20.7697L71.6894 20.8143L72.8055 21.7205C73.4517 22.243 74.249 22.2739 74.8124 21.5782C75.1144 21.2061 75.1739 20.6769 74.9752 20.3116C75.255 20.3742 75.5837 20.2714 75.8257 19.973C76.3085 19.3781 76.069 18.6087 75.4227 18.0844L74.5059 17.3416Z" fill="white"/>
<path fill-rule="evenodd" clip-rule="evenodd" d="M78.0653 20.298L78.0208 20.2961L77.4209 20.8725L77.4203 20.9183L78.3284 21.8629L75.7712 24.3192V24.365L76.3463 24.9636L76.3909 24.9642L78.9481 22.5061L79.8543 23.4507L79.9001 23.4513L80.4993 22.8762V22.831L78.0653 20.298Z" fill="white"/>
<path fill-rule="evenodd" clip-rule="evenodd" d="M80.4629 26.9066L80.7848 27.3442C81.0119 27.6519 81.0423 27.9075 80.7581 28.1168C80.4505 28.3433 80.2159 28.2406 79.9868 27.9304L79.6649 27.494L80.4629 26.9066ZM82.0321 24.6768L81.9875 24.6707L78.4405 27.286L78.4343 27.3312L79.3065 28.5142C79.8185 29.2075 80.609 29.4192 81.3295 28.8887C82.0488 28.3576 82.0544 27.559 81.5424 26.8632L81.1816 26.3755L81.8247 25.9013L82.9049 27.3671L82.9507 27.3739L83.618 26.88L83.6248 26.836L82.0321 24.6768Z" fill="white"/>
<path d="M71.027 44.6658V44.6775C71.1446 44.7196 71.2567 44.7952 71.3155 44.8428C71.4987 44.9932 71.5786 45.192 71.5786 45.4495C71.5786 45.8729 71.3532 46.1781 70.9837 46.2753C70.871 46.3074 70.7534 46.318 70.5336 46.318H69.4126V43.2185H70.4043C70.6079 43.2185 70.7472 43.229 70.871 43.2618C71.2294 43.3584 71.4659 43.6048 71.4659 43.9966C71.4659 44.2046 71.3916 44.3817 71.2678 44.5005C71.2146 44.5537 71.1391 44.6181 71.027 44.6658ZM70.0347 44.9932V45.8085H70.4631C70.5918 45.8085 70.7101 45.7974 70.7955 45.7169C70.8815 45.637 70.9187 45.5349 70.9187 45.4006C70.9187 45.299 70.8921 45.2025 70.8388 45.1325C70.7472 45.0199 70.6346 44.9932 70.4427 44.9932H70.0347ZM70.0291 44.4572H70.377C70.4847 44.4572 70.538 44.4572 70.5918 44.4411C70.7373 44.3984 70.8277 44.2696 70.8277 44.0926C70.8277 43.8833 70.7317 43.7923 70.5918 43.7496C70.5336 43.7335 70.4742 43.7286 70.3566 43.7286H70.0291V44.4572ZM72.5114 46.318V43.7391H71.6163V43.2185H74.1042L73.9271 43.7391H73.1335V46.318H72.5114ZM74.2973 46.318V43.2185H76.3129L76.1358 43.7391H74.9132V44.425H75.4128C75.8145 44.425 76.0238 44.5216 76.1686 44.6447C76.2813 44.7413 76.4738 44.9561 76.4738 45.3795C76.4738 45.7974 76.2757 46.0283 76.1092 46.1459C75.9161 46.2808 75.7124 46.318 75.3001 46.318H74.2973ZM74.9132 45.7974H75.3806C75.5576 45.7974 75.6647 45.7547 75.739 45.6581C75.7774 45.6104 75.8306 45.5244 75.8306 45.3634C75.8306 45.2025 75.7774 45.0898 75.6703 45.0093C75.6053 44.9617 75.5199 44.9344 75.375 44.9344H74.9132V45.7974Z" fill="white"/>
<path d="M68.8958 42.4441H66.2903L66.1028 42.9604H68.7076L68.8958 42.4441Z" fill="white"/>
<path d="M68.6143 43.2185H66.0089L65.8201 43.7348H68.4262L68.6143 43.2185Z" fill="white"/>
<path d="M68.3329 43.9929H65.7274L65.5386 44.5104H68.1447L68.3329 43.9929Z" fill="white"/>
<path d="M71.9733 70.8982C70.6529 67.8631 68.7036 65.1079 66.2572 62.8453C63.5452 60.3377 60.2805 58.4892 56.7595 57.4542L58.1857 51.597C65.5385 52.3368 72.7254 54.0756 79.5761 56.7727C78.3418 62.1681 75.6645 67.02 71.9733 70.8982ZM41.6076 79.1535L43.6715 71.8726C48.1594 73.963 52.9005 75.4084 57.7976 76.1779L58.7311 79.0545C55.9659 79.8871 53.0367 80.3365 50.0041 80.3365C47.0922 80.3365 44.275 79.9224 41.6076 79.1535ZM20.4314 56.7721C26.9386 54.2099 33.7541 52.5126 40.723 51.7146L42.3616 57.7328C35.9132 59.8988 30.7221 64.6832 28.0324 70.8957C24.3424 67.0175 21.6664 62.1669 20.4314 56.7721ZM27.3694 29.8278C29.7242 34.0737 33.2626 37.6176 37.5258 39.9724L40.1331 49.5487C33.2291 50.367 26.4743 52.0483 20.0105 54.5547C19.7858 53.0691 19.6688 51.5487 19.6688 50.0012C19.6688 42.2621 22.5831 35.1929 27.3694 29.8278ZM50.3984 19.6714L35.0218 30.7743L36.6734 36.8419C33.4439 34.6283 30.7865 31.6285 28.9876 28.1471C34.4437 22.8984 41.8534 19.6659 50.0041 19.6659C50.1353 19.6659 50.2672 19.6696 50.3984 19.6714ZM55.5338 19.0091C55.7294 19.0586 55.917 19.2282 56.0489 19.4771L59.9141 27.7776C52.487 32.4333 46.176 38.7318 41.503 46.1347L37.566 31.6737L54.8356 19.2035C55.0194 19.079 55.2868 18.9472 55.5338 19.0091ZM59.2542 21.1045C63.6468 22.514 67.6896 24.9338 71.028 28.1378C69.1561 31.7659 66.355 34.8648 62.9491 37.1013L64.2936 31.9275L59.2542 21.1045ZM50.7624 49.5115L43.8553 54.7739L42.3078 49.0894C46.8415 41.2797 53.2317 34.6407 60.8587 29.8067L61.9457 32.1411L57.4305 49.5115H50.7624ZM53.3542 62.061L46.2844 60.8719L45.31 56.4551L51.5114 51.7301H55.8706L53.3542 62.061ZM55.6001 62.2145L56.2339 59.6122C62.6043 61.5225 67.8419 66.3589 70.2586 72.5634C67.5188 75.0253 64.3296 76.9962 60.8308 78.337L55.6001 62.2145ZM46.1587 63.1004L53.9819 64.4164L57.0263 73.799C52.612 73.0048 48.3383 71.6349 44.2843 69.7115L46.1587 63.1004ZM43.7371 59.6227L44.2187 61.8078L39.498 78.4596C35.873 77.1169 32.5723 75.1002 29.749 72.5622C32.165 66.328 37.306 61.5559 43.7371 59.6227ZM80.3394 50.0012C80.3394 51.5481 80.2224 53.0678 79.9977 54.5535C73.4831 52.0266 66.6769 50.3429 59.7178 49.5313L62.1568 40.1494C66.5686 37.7946 70.2295 34.1795 72.6455 29.8148C73.0009 30.2122 73.3469 30.6189 73.6812 31.0361C78.0372 36.4662 80.3394 43.0241 80.3394 50.0012ZM75.412 29.6476C70.9865 24.1297 64.8223 20.1654 58.0087 18.4402C57.576 17.6249 56.892 17.0629 56.0749 16.8574C55.2509 16.6506 54.3614 16.8369 53.569 17.3817L53.2521 17.6107C52.1775 17.5042 51.0874 17.4473 50.0041 17.4473C32.0536 17.4473 17.4502 32.0507 17.4502 50.0012C17.4502 67.951 32.0536 82.5551 50.0041 82.5551C67.9546 82.5551 82.558 67.951 82.558 50.0012C82.558 42.6212 80.02 35.3928 75.412 29.6476Z" fill="white"/>
</svg>
