<svg width="200" height="200" viewBox="0 0 200 200" fill="none" xmlns="http://www.w3.org/2000/svg">
<path d="M101.524 99.0231H114.86L123.891 64.2822L121.717 59.6135C109.912 67.0951 99.589 76.7407 91.3213 87.9599L94.4523 104.411L101.524 99.0231Z" fill="#F9A50D"/>
<path d="M119.828 55.5553L112.097 38.9531C111.832 38.4566 111.458 38.1174 111.066 38.0184C110.573 37.8946 110.037 38.1583 109.671 38.4071L85.2476 56.0431L90.2084 82.109C98.4761 71.6661 108.502 62.6556 119.828 55.5553Z" fill="#F9A50D"/>
<path d="M106.708 124.122L111.74 103.46H103.022L95.3796 109.283L97.9226 122.645L106.708 124.122Z" fill="#F9A50D"/>
<path d="M114.051 147.598L107.963 128.833L97.6776 127.104L96.2217 142.676C101.996 144.856 107.957 146.501 114.051 147.598Z" fill="#F9A50D"/>
<path d="M87.7099 109.548L94.4523 104.411L91.3213 87.96C88.9058 91.2371 86.665 94.6479 84.6147 98.1788L87.7099 109.548Z" fill="#F2581A"/>
<path d="M83.0053 92.2695C85.2252 88.7522 87.6319 85.3625 90.2083 82.1089L85.2462 56.043L75.1313 63.3475L83.0053 92.2695Z" fill="#F2581A"/>
<path d="M92.5681 121.744L97.9226 122.645L95.3797 109.283L90.6194 112.91L92.5681 121.744Z" fill="#F2581A"/>
<path d="M88.5679 139.423C91.0786 140.614 93.6315 141.699 96.2215 142.676L97.6774 127.103L92.3167 126.201L88.5679 139.423Z" fill="#F2581A"/>
<path d="M105.385 156.587C109.227 156.587 112.978 156.2 116.605 155.471L117.461 158.109L115.594 152.356C108.823 151.292 102.202 149.581 95.7942 147.245L95.0093 155.635C98.3731 156.259 101.84 156.587 105.385 156.587Z" fill="#F9A50D"/>
<path d="M117.461 158.109C117.119 158.212 116.776 158.313 116.43 158.41C116.776 158.313 117.119 158.212 117.461 158.109Z" fill="#2A3C90"/>
<path d="M116.605 155.471C112.979 156.201 109.227 156.587 105.386 156.587C101.84 156.587 98.3733 156.259 95.0095 155.635L95.7944 147.245C92.932 146.203 90.113 145.035 87.3423 143.745L84.7968 152.723L83.2146 158.306C83.7717 158.467 84.3326 158.618 84.8959 158.763C85.0098 158.791 85.1249 158.82 85.2388 158.848C85.7254 158.971 86.2144 159.086 86.7047 159.197C86.7554 159.208 86.8062 159.222 86.8582 159.233C86.9448 159.253 87.0327 159.271 87.1206 159.29C87.2568 159.32 87.3918 159.349 87.5292 159.378C87.7038 159.415 87.8783 159.451 88.0541 159.487C88.1643 159.508 88.2745 159.529 88.3847 159.55C88.5939 159.591 88.8019 159.632 89.0111 159.67C89.0483 159.676 89.0854 159.685 89.1226 159.691C89.182 159.702 89.2414 159.713 89.3008 159.725C89.437 159.748 89.5732 159.769 89.7094 159.793C89.9892 159.84 90.269 159.888 90.55 159.931C90.5996 159.94 90.6491 159.949 90.6986 159.956C90.7543 159.965 90.8088 159.972 90.8645 159.981C90.9512 159.995 91.0378 160.006 91.1245 160.018C91.4031 160.059 91.6841 160.1 91.9651 160.137C92.0047 160.142 92.0456 160.148 92.0865 160.153C92.906 160.259 93.7306 160.355 94.5613 160.429V160.423C96.3565 160.584 98.1739 160.667 100.011 160.667C102.381 160.667 104.718 160.531 107.017 160.267C107.052 160.262 107.087 160.258 107.12 160.255C107.619 160.195 108.115 160.131 108.611 160.06C108.654 160.054 108.697 160.048 108.741 160.043C108.777 160.037 108.814 160.033 108.85 160.027C109.31 159.96 109.767 159.886 110.224 159.808C110.434 159.772 110.644 159.735 110.854 159.696C111.095 159.653 111.337 159.607 111.578 159.56H111.58C112.09 159.461 112.597 159.356 113.104 159.244C113.168 159.229 113.232 159.216 113.297 159.202C113.298 159.202 113.299 159.201 113.3 159.201C114.354 158.964 115.398 158.701 116.43 158.41C116.774 158.313 117.119 158.212 117.462 158.109L116.605 155.471Z" fill="#F2581A"/>
<path d="M62.3732 63.2362C70.2682 54.0078 81.0813 47.3533 93.3826 44.6964L100.789 39.3481C100.529 39.3443 100.271 39.3369 100.011 39.3369C96.8751 39.3369 93.7936 39.5746 90.7864 40.0339C90.7542 40.0389 90.722 40.0438 90.6898 40.0488C90.2404 40.1181 89.7935 40.1924 89.3478 40.2716C89.198 40.2989 89.0506 40.3274 88.9021 40.3546C88.5765 40.4153 88.2521 40.4759 87.929 40.5415C87.6789 40.5923 87.43 40.6468 87.1824 40.7C86.9645 40.7471 86.7466 40.7929 86.53 40.8424C86.192 40.9191 85.8552 41.0009 85.5197 41.0826C85.3972 41.1135 85.2734 41.142 85.1508 41.1729C84.7336 41.2782 84.3163 41.3884 83.9016 41.5035C83.8657 41.5134 83.8298 41.5221 83.7926 41.532C73.9625 44.2631 65.1291 49.4122 57.9744 56.2945C59.2359 58.7372 60.7129 61.0573 62.3732 63.2362Z" fill="#2B378C"/>
<path d="M48.7994 100.003C48.7994 87.6084 52.7872 76.1466 59.5445 66.8253C57.7518 64.5758 56.1386 62.1789 54.7384 59.6558C48.5518 66.5901 43.9327 74.9506 41.4355 84.1729C41.3885 84.3474 41.3402 84.5207 41.2944 84.6953C41.2424 84.8959 41.1941 85.0964 41.1434 85.297C41.0703 85.5917 40.9973 85.8838 40.9292 86.1785C40.8982 86.3085 40.8697 86.4385 40.8413 86.5685C40.7558 86.9411 40.6741 87.3138 40.5961 87.6902C40.5813 87.7632 40.5664 87.8375 40.5516 87.9118C40.4624 88.3513 40.3782 88.7908 40.299 89.234C40.294 89.255 40.2916 89.2773 40.2879 89.2984C39.6688 92.7723 39.3457 96.3491 39.3457 100.003C39.3457 103.096 39.5785 106.138 40.0254 109.108C43.0215 107.947 46.0485 106.877 49.104 105.894C48.9034 103.957 48.7994 101.992 48.7994 100.003Z" fill="#2B378C"/>
<path d="M60.2486 134.131C55.0451 127.259 51.3755 119.164 49.7463 110.351C46.7576 111.329 43.795 112.39 40.8645 113.544C40.8695 113.568 40.8744 113.591 40.8794 113.616C41.0217 114.234 41.174 114.849 41.335 115.46C41.3585 115.547 41.3832 115.635 41.4068 115.723C41.564 116.309 41.7274 116.891 41.902 117.469C41.9131 117.505 41.923 117.541 41.9342 117.578C44.7161 126.752 49.6163 135.015 56.064 141.793C57.2315 139.095 58.6355 136.534 60.2486 134.131Z" fill="#2B378C"/>
<path d="M78.9951 156.919L80.6937 150.93C74.0305 147.693 68.1003 143.187 63.2125 137.726C61.7553 140.048 60.5048 142.522 59.4971 145.124C65.1438 150.2 71.7451 154.234 78.9951 156.919Z" fill="#2B378C"/>
<path d="M141.821 56.7104C141.898 56.5668 141.977 56.4245 142.053 56.2796C141.987 56.2165 141.922 56.1521 141.856 56.0902C141.57 55.8178 141.281 55.5479 140.989 55.2817C140.887 55.1864 140.784 55.0923 140.68 54.9982C140.301 54.6565 139.918 54.3185 139.531 53.9855C139.51 53.9682 139.489 53.9496 139.468 53.931C133.784 49.068 127.235 45.2721 120.196 42.7799C120.05 42.7279 119.902 42.6796 119.756 42.6289C119.385 42.5014 119.015 42.3751 118.644 42.255C118.599 42.2401 118.555 42.2277 118.509 42.2129L119.952 45.313C128.114 47.482 135.549 51.4265 141.821 56.7104Z" fill="#2B378C"/>
<path d="M140.516 145.126C140.441 144.931 140.359 144.738 140.28 144.544C134.602 148.998 128.053 152.389 120.929 154.421L121.661 156.675C128.658 153.992 135.037 150.051 140.516 145.126Z" fill="#2B378C"/>
<path d="M62.373 63.2361C65.4459 67.2696 69.1526 70.8092 73.3471 73.684L70.0428 61.5486L93.3825 44.6963C81.0812 47.3531 70.2681 54.0077 62.373 63.2361Z" fill="#2B378C"/>
<path d="M128.587 63.8552L125.898 74.2016C132.571 69.8202 138.08 63.7785 141.821 56.7105C135.549 51.4265 128.114 47.4808 119.952 45.313L128.587 63.8552Z" fill="#2B378C"/>
<path d="M80.6937 150.928L88.4377 123.616L87.4732 119.245C77.2952 122.305 68.7366 128.921 63.2124 137.727C68.1002 143.187 74.0305 147.692 80.6937 150.928Z" fill="#3D4EA9"/>
<path d="M84.7225 115.466L81.4454 103.429C70.6471 104.666 60.0333 106.988 49.7463 110.351C51.3756 119.164 55.0452 127.259 60.2487 134.131C66.0688 125.461 74.6249 118.858 84.7225 115.466Z" fill="#2B378C"/>
<path d="M49.1039 105.894C59.2286 102.635 69.6592 100.355 80.2656 99.0974L75.0509 79.9448C69.0588 76.6343 63.7859 72.1463 59.5443 66.8252C52.7871 76.1465 48.7993 87.6083 48.7993 100.002C48.7993 101.992 48.9033 103.958 49.1039 105.894Z" fill="#3D4EA9"/>
<path d="M112.467 119.224L111.199 124.429L120.929 154.421C128.053 152.39 134.602 148.998 140.28 144.544C135.349 132.417 125.006 122.984 112.467 119.224Z" fill="#3D4EA9"/>
<path d="M116.372 103.194L113.518 114.909C120.56 116.979 127.09 120.675 132.514 125.691C137.333 130.148 141.185 135.56 143.822 141.523C143.863 141.614 143.906 141.705 143.946 141.798C144.975 140.716 145.96 139.592 146.908 138.436C152.761 131.309 157.027 122.832 159.152 113.545C145.45 108.151 131.076 104.674 116.372 103.194Z" fill="#2B378C"/>
<path d="M41.902 117.469C41.7286 116.891 41.564 116.309 41.4067 115.723C41.5627 116.309 41.7286 116.891 41.902 117.469Z" fill="white"/>
<path d="M41.335 115.459C41.174 114.849 41.0218 114.234 40.8794 113.616C41.0218 114.235 41.1753 114.848 41.335 115.459Z" fill="white"/>
<path d="M90.8644 159.981C90.8087 159.974 90.753 159.965 90.6985 159.956C90.753 159.965 90.8087 159.974 90.8644 159.981Z" fill="white"/>
<path d="M108.85 160.027C108.77 160.038 108.69 160.049 108.611 160.06C108.69 160.049 108.77 160.038 108.85 160.027Z" fill="white"/>
<path d="M110.854 159.696C110.645 159.735 110.434 159.772 110.224 159.808C110.434 159.772 110.645 159.735 110.854 159.696Z" fill="white"/>
<path d="M107.12 160.255C107.085 160.258 107.052 160.262 107.017 160.267C107.052 160.262 107.085 160.258 107.12 160.255Z" fill="white"/>
<path d="M113.104 159.244C112.597 159.356 112.09 159.461 111.578 159.56C112.09 159.461 112.597 159.356 113.104 159.244Z" fill="white"/>
<path d="M89.3008 159.725C89.2414 159.714 89.182 159.703 89.1226 159.691C89.182 159.703 89.2414 159.715 89.3008 159.725Z" fill="white"/>
<path d="M88.054 159.486C87.8609 159.447 87.6677 159.408 87.4746 159.367C87.6677 159.408 87.8609 159.449 88.054 159.486Z" fill="white"/>
<path d="M90.6897 40.0488C90.7219 40.0438 90.7541 40.0389 90.7863 40.0339C90.7541 40.0389 90.7219 40.0438 90.6897 40.0488Z" fill="white"/>
<path d="M88.9021 40.3544C89.0507 40.3272 89.198 40.2987 89.3478 40.2715C89.198 40.2975 89.0507 40.3272 88.9021 40.3544Z" fill="white"/>
<path d="M118.644 42.2549C119.015 42.375 119.385 42.5013 119.756 42.6288C119.385 42.5025 119.016 42.375 118.644 42.2549Z" fill="white"/>
<path d="M140.989 55.2817C141.281 55.5479 141.57 55.8178 141.856 56.0902C141.57 55.8178 141.28 55.5479 140.989 55.2817Z" fill="white"/>
<path d="M139.531 53.9854C139.919 54.3184 140.301 54.6564 140.68 54.9981C140.301 54.6564 139.919 54.3184 139.531 53.9854Z" fill="white"/>
<path d="M87.1812 40.7C87.43 40.6467 87.6788 40.5923 87.9289 40.5415C87.6788 40.5923 87.43 40.6467 87.1812 40.7Z" fill="white"/>
<path d="M85.5198 41.0825C85.8553 41.0008 86.192 40.919 86.53 40.8423C86.192 40.919 85.8553 41.0008 85.5198 41.0825Z" fill="white"/>
<path d="M83.9016 41.5022C84.3164 41.3883 84.7336 41.2781 85.1508 41.1729C84.7336 41.2781 84.3176 41.3895 83.9016 41.5022Z" fill="white"/>
<path d="M160.62 102.605C160.616 102.695 160.612 102.786 160.607 102.876C160.612 102.786 160.616 102.695 160.62 102.605Z" fill="white"/>
<path d="M160.359 106.215C160.338 106.421 160.318 106.625 160.294 106.829C160.318 106.625 160.338 106.421 160.359 106.215Z" fill="white"/>
<path d="M160.466 105.052C160.453 105.22 160.439 105.387 160.423 105.553C160.439 105.387 160.453 105.22 160.466 105.052Z" fill="white"/>
<path d="M160.554 103.842C160.547 103.976 160.537 104.109 160.528 104.243C160.537 104.109 160.547 103.976 160.554 103.842Z" fill="white"/>
<path d="M122.073 88.9146L119.435 99.0629C133.354 100.687 146.966 104.054 159.995 109.107C160.091 108.463 160.178 107.815 160.255 107.163C160.267 107.052 160.282 106.941 160.294 106.829C160.318 106.625 160.338 106.419 160.359 106.215C160.381 105.995 160.403 105.774 160.424 105.553C160.439 105.387 160.453 105.22 160.466 105.053C160.489 104.783 160.51 104.514 160.528 104.243C160.537 104.109 160.547 103.976 160.554 103.842C160.574 103.52 160.593 103.199 160.608 102.877C160.613 102.786 160.616 102.695 160.62 102.605C160.639 102.193 160.652 101.78 160.661 101.366C160.661 101.361 160.662 101.356 160.662 101.351C160.671 100.901 160.678 100.453 160.678 100.003C160.678 91.2459 158.863 82.8197 155.36 75.0732C146.106 82.66 134.64 87.6469 122.073 88.9146Z" fill="#2B378C"/>
<path d="M147.362 62.0723C146.693 61.2379 146.001 60.4245 145.29 59.6296C145.289 59.6309 145.288 59.6334 145.287 59.6358C145.257 59.6878 145.226 59.7386 145.196 59.7918C140.364 68.447 133.082 75.619 124.312 80.2989L122.073 88.9145C134.639 87.6467 146.106 82.6598 155.359 75.0731C153.281 70.4762 150.607 66.117 147.362 62.0723Z" fill="#3D4EA9"/>
<path fill-rule="evenodd" clip-rule="evenodd" d="M100 165.445C63.8564 165.445 34.5555 136.144 34.5555 100C34.5555 63.8551 63.8564 34.5542 100 34.5542C136.145 34.5542 165.446 63.8551 165.446 100C165.446 136.144 136.145 165.445 100 165.445ZM100 10C50.2948 10 10 50.2936 10 100C10 149.705 50.2948 190 100 190C149.706 190 190 149.705 190 100C190 50.2936 149.706 10 100 10Z" fill="#2B378C"/>
<path fill-rule="evenodd" clip-rule="evenodd" d="M41.0588 143.163L40.9672 143.157L36.3233 151.38L36.3184 151.47L37.4537 152.85L37.5453 152.86L46.5001 149.856L46.51 149.765L45.288 148.289L45.1989 148.279L38.9566 150.452L42.2697 144.733L42.2771 144.644L41.0588 143.163Z" fill="white"/>
<path fill-rule="evenodd" clip-rule="evenodd" d="M47.8322 151.039L47.7406 151.041L46.5991 152.248L46.6016 152.339L48.5057 154.136L43.6353 159.293L43.6377 159.381L44.8448 160.522L44.9352 160.521L49.8057 155.366L51.7123 157.164L51.8002 157.161L52.9417 155.955L52.9392 155.864L47.8322 151.039Z" fill="white"/>
<path fill-rule="evenodd" clip-rule="evenodd" d="M53.047 162.498L53.8591 163.119C54.3655 163.508 54.5673 163.982 54.1414 164.541C53.7155 165.097 53.2042 165.028 52.6979 164.641L51.8857 164.024L53.047 162.498ZM55.1381 159.756L55.6481 160.143C56.2065 160.568 56.2647 161.017 55.9564 161.423C55.6444 161.831 55.1975 161.889 54.6379 161.462L54.1315 161.074L55.1381 159.756ZM54.8508 157.284L54.7617 157.299L49.4146 164.31L49.4294 164.397L51.7136 166.141C53.0334 167.152 54.6317 167.164 55.715 165.74C56.2981 164.976 56.3835 163.917 55.9651 163.2C56.5296 163.306 57.1821 163.082 57.6463 162.471C58.5749 161.251 58.0499 159.73 56.7314 158.719L54.8508 157.284Z" fill="white"/>
<path fill-rule="evenodd" clip-rule="evenodd" d="M63.7387 163.354L63.6533 163.382L61.4372 167.773C60.2536 170.111 61.1599 172.286 63.0999 173.264C65.0399 174.245 67.3279 173.681 68.5077 171.343L70.7238 166.951L70.6978 166.865L69.2122 166.117L69.128 166.144L67.027 170.31C66.2495 171.848 65.0164 172.159 63.9356 171.611C62.8511 171.065 62.3707 169.89 63.1482 168.349L65.2504 164.187L65.2195 164.103L63.7387 163.354Z" fill="white"/>
<path fill-rule="evenodd" clip-rule="evenodd" d="M72.7406 167.693L72.6601 167.735L69.8572 176.093L69.8956 176.174L71.4716 176.702L71.5521 176.663L73.3992 171.151L75.7949 178.084L75.8914 178.184L77.5281 178.734L77.6098 178.693L80.4128 170.334L80.3744 170.253L78.7971 169.723L78.7191 169.767L76.8695 175.278L74.4776 168.342L74.3761 168.24L72.7406 167.693Z" fill="white"/>
<path fill-rule="evenodd" clip-rule="evenodd" d="M82.8792 170.851L82.7999 170.897L80.8228 179.488L80.871 179.568L82.4892 179.942L82.5647 179.893L84.5456 171.299L84.496 171.225L82.8792 170.851Z" fill="white"/>
<path fill-rule="evenodd" clip-rule="evenodd" d="M86.7356 171.72L86.6651 171.775L86.4534 173.421L86.5078 173.494L89.104 173.829L88.1916 180.862L88.2498 180.935L89.8951 181.148L89.9657 181.093L90.8782 174.06L93.4743 174.396L93.5486 174.341L93.7603 172.693L93.7059 172.623L86.7356 171.72Z" fill="white"/>
<path fill-rule="evenodd" clip-rule="evenodd" d="M95.7819 172.747L95.7163 172.808L95.5615 181.626L95.6247 181.687L101.759 181.795L101.821 181.732L101.851 180.073L101.789 180.008L97.3802 179.932L97.4161 177.949L100.543 178.005L100.609 177.941L100.639 176.281L100.578 176.216L97.4471 176.16L97.4756 174.564L101.754 174.637L101.817 174.574L101.847 172.914L101.784 172.848L95.7819 172.747Z" fill="white"/>
<path fill-rule="evenodd" clip-rule="evenodd" d="M106.174 174.368L107.447 174.263C109.103 174.13 110.339 175.12 110.464 176.712C110.594 178.303 109.532 179.479 107.879 179.615L106.605 179.714L106.174 174.368ZM104.308 172.722L104.251 172.79L104.96 181.58L105.03 181.637L108.021 181.397C110.759 181.175 112.574 179.019 112.374 176.559C112.177 174.101 110.042 172.26 107.302 172.482L104.308 172.722Z" fill="white"/>
<path fill-rule="evenodd" clip-rule="evenodd" d="M116.454 170.937L116.408 171.015L118.625 179.545L118.706 179.592L123.652 178.307L123.699 178.229L123.278 176.62L123.201 176.573L119.924 177.428L118.138 170.564L118.061 170.519L116.454 170.937Z" fill="white"/>
<path fill-rule="evenodd" clip-rule="evenodd" d="M123.277 169.01L123.241 169.092L126.436 177.311L126.518 177.347L132.236 175.125L132.272 175.041L131.669 173.493L131.588 173.459L127.477 175.054L126.759 173.207L129.679 172.074L129.716 171.993L129.112 170.443L129.03 170.407L126.113 171.542L125.534 170.051L129.525 168.501L129.56 168.417L128.958 166.872L128.878 166.835L123.277 169.01Z" fill="white"/>
<path fill-rule="evenodd" clip-rule="evenodd" d="M134.854 166.467L137.424 168.474L135.541 169.483L134.854 166.467ZM132.782 164.986L132.758 165.072L134.423 174.11L134.518 174.132L136.34 173.155L136.364 173.071L135.983 171.26L138.923 169.687L140.483 170.867L140.575 170.889L142.399 169.914L142.424 169.828L134.521 164.127L134.426 164.106L132.782 164.986Z" fill="white"/>
<path fill-rule="evenodd" clip-rule="evenodd" d="M145.724 159.237L144.414 157.752C143.401 158.051 142.548 158.633 141.639 159.437C139.581 161.255 139.397 164.231 141.091 166.145C142.825 168.109 145.807 168.203 147.867 166.382C148.725 165.621 149.324 164.754 149.7 163.735L146.614 160.242L146.523 160.233L144.226 162.266L144.219 162.357L145.323 163.601L145.408 163.606L146.417 162.717L147.516 163.961C147.36 164.27 146.972 164.697 146.637 164.996C145.297 166.18 143.588 165.983 142.573 164.833C141.559 163.685 141.574 161.967 142.864 160.824C143.68 160.103 144.621 159.53 145.719 159.324L145.724 159.237Z" fill="white"/>
<path fill-rule="evenodd" clip-rule="evenodd" d="M146.643 155.825L146.638 155.914L149.981 159.525C151.758 161.451 154.114 161.361 155.707 159.888C157.304 158.411 157.575 156.07 155.798 154.151L152.457 150.536L152.367 150.532L151.147 151.663L151.145 151.753L154.309 155.174C155.482 156.443 155.343 157.703 154.452 158.525C153.559 159.351 152.291 159.393 151.119 158.124L147.956 154.703L147.864 154.7L146.643 155.825Z" fill="white"/>
<path fill-rule="evenodd" clip-rule="evenodd" d="M154.45 148.32L154.458 148.41L161.335 153.928L161.424 153.921L165.265 149.138L165.254 149.048L163.96 148.008L163.868 148.019L161.107 151.453L159.566 150.215L161.527 147.774L161.516 147.684L160.221 146.644L160.131 146.651L158.17 149.092L156.925 148.093L159.604 144.757L159.597 144.665L158.3 143.626L158.212 143.638L154.45 148.32Z" fill="white"/>
<path fill-rule="evenodd" clip-rule="evenodd" d="M33.1033 52.7165L33.1144 52.8081L40.123 58.1564L40.2122 58.1465L43.9337 53.2699L43.9226 53.182L42.6016 52.173L42.5124 52.1841L39.8383 55.6878L38.2635 54.4869L40.1639 51.9996L40.149 51.9092L38.8292 50.9002L38.7413 50.9126L36.8397 53.4011L35.5719 52.4329L38.1669 49.0308L38.157 48.9392L36.836 47.9314L36.7481 47.945L33.1033 52.7165Z" fill="white"/>
<path fill-rule="evenodd" clip-rule="evenodd" d="M43.644 43.1029L45.7264 41.1208L49.4232 45.0095L46.9706 47.3444C46.7948 47.0671 46.7094 46.9767 46.6227 46.8455L43.644 43.1029ZM41.3003 42.8639L41.2979 42.9518L45.1222 47.8669C45.324 48.2086 45.4589 48.4265 45.5444 48.7001L44.7471 49.4553V49.5469L47.477 52.4204H47.5636L48.767 51.2765L48.7707 51.1849L47.2306 49.5655L51.3966 45.6013L52.938 47.2219L53.0271 47.2243L54.233 46.0829L54.2355 45.9913L51.5043 43.1177L51.4152 43.1153L50.7206 43.7751L45.8341 38.6385L45.7437 38.6348L41.3003 42.8639Z" fill="white"/>
<path fill-rule="evenodd" clip-rule="evenodd" d="M50.3877 34.8279L50.3691 34.9146L55.3709 42.177L55.4588 42.1931L56.8825 41.215L56.9506 41.0912L57.3332 33.7669L60.6338 38.5557L60.7217 38.5705L62.0885 37.6272L62.1034 37.5417L57.1066 30.2793L57.015 30.2595L55.5949 31.2401L55.5269 31.3651L55.1406 38.6894L51.8424 33.8994L51.7545 33.8858L50.3877 34.8279Z" fill="white"/>
<path fill-rule="evenodd" clip-rule="evenodd" d="M61.5427 27.7226L61.5117 27.808L65.2779 35.7798L65.3621 35.8108L66.8626 35.1026L66.8948 35.0147L65.3125 31.6658L69.0081 29.9177L70.5916 33.2691L70.6782 33.2988L72.1788 32.5906L72.2085 32.504L68.4436 24.5334L68.3594 24.5012L66.8539 25.2131L66.8254 25.2973L68.2455 28.2996L64.5462 30.0477L63.1274 27.0417L63.0432 27.0132L61.5427 27.7226Z" fill="white"/>
<path fill-rule="evenodd" clip-rule="evenodd" d="M77.5677 23.7312L79.3666 26.3447L77.3994 26.9006L77.5677 23.7312ZM76.0808 21.7615L76.0388 21.8407L75.1721 31.2449L75.2526 31.2907L77.1567 30.7522L77.2013 30.6717L77.3325 28.7787L80.4066 27.9121L81.5072 29.4584L81.584 29.503L83.4918 28.9657L83.5339 28.8852L77.8847 21.3195L77.8042 21.2737L76.0808 21.7615Z" fill="white"/>
<path fill-rule="evenodd" clip-rule="evenodd" d="M90.3222 20.6273L90.55 22.4002L89.9161 22.4819C89.2178 22.5723 88.8068 22.3668 88.7263 21.7341C88.6446 21.1027 88.9913 20.7994 89.6895 20.709L90.3222 20.6273ZM91.8029 18.6316L89.3317 18.951C87.5601 19.1788 86.6353 20.5209 86.8235 21.9793C86.9572 22.9945 87.4252 23.642 88.2992 23.9143L85.7798 28.3639L85.8516 28.4171L87.877 28.1559L87.9328 28.0853L90.1464 24.2585L90.779 24.1756L91.2284 27.6632L91.3002 27.7164L92.9456 27.5047L93.0013 27.4329L91.8759 18.6873L91.8029 18.6316Z" fill="white"/>
<path fill-rule="evenodd" clip-rule="evenodd" d="M103.98 18.311L103.847 18.3655L102.336 24.3837C102.068 25.1946 101.462 25.5227 100.696 25.4546L100.628 25.5103L100.485 27.0789L100.54 27.1718C102.194 27.3216 103.397 26.7917 103.946 24.9804L105.217 20.2226L108.018 20.4789L107.371 27.5395L107.427 27.6088L109.081 27.7586L109.154 27.7016L109.953 18.9202L109.897 18.8521L103.98 18.311Z" fill="white"/>
<path fill-rule="evenodd" clip-rule="evenodd" d="M114.85 19.5825L114.777 19.6308L112.783 28.2204L112.831 28.2971L114.511 28.6847L114.65 28.6512L120.321 23.9986L119.008 29.6627L119.056 29.7395L120.672 30.1158L120.748 30.0676L122.743 21.478L122.695 21.4012L121.012 21.0137L120.876 21.0471L115.204 25.6972L116.518 20.0332L116.47 19.9589L114.85 19.5825Z" fill="white"/>
<path fill-rule="evenodd" clip-rule="evenodd" d="M127.921 23.1704L127.836 23.2088L124.48 31.3601L124.515 31.4443L126.05 32.0745L126.134 32.0398L128.834 25.4843L132.676 27.0641L132.758 27.0294L133.39 25.4942L133.356 25.4125L127.921 23.1704Z" fill="white"/>
<path fill-rule="evenodd" clip-rule="evenodd" d="M137.787 30.2098L137.245 33.3347L135.452 32.3541L137.787 30.2098ZM138.1 27.761L138.016 27.787L130.824 33.9079L130.847 33.9933L132.587 34.9404L132.675 34.9157L134.088 33.6516L136.895 35.1806L136.6 37.055L136.623 37.1429L138.362 38.0925L138.45 38.0653L139.699 28.7019L139.671 28.619L138.1 27.761Z" fill="white"/>
<path fill-rule="evenodd" clip-rule="evenodd" d="M147.053 39.8383L147.846 40.4809C148.342 40.8833 148.529 41.3636 148.086 41.9096C147.643 42.4568 147.135 42.3726 146.637 41.969L145.845 41.3265L147.053 39.8383ZM149.226 37.1592L149.723 37.5616C150.266 38.0023 150.314 38.4517 149.99 38.8479C149.669 39.2466 149.219 39.2936 148.676 38.8504L148.18 38.448L149.226 37.1592ZM149.012 34.6831L148.924 34.693L143.37 41.5394L143.379 41.6286L145.611 43.4411C146.904 44.486 148.498 44.5479 149.625 43.1563C150.229 42.4123 150.348 41.3537 149.95 40.6233C150.51 40.7483 151.167 40.5428 151.651 39.9461C152.617 38.7563 152.138 37.2174 150.845 36.1688L149.012 34.6831Z" fill="white"/>
<path fill-rule="evenodd" clip-rule="evenodd" d="M156.131 40.596L156.042 40.5923L154.842 41.7449L154.841 41.8365L156.657 43.7258L151.542 48.6384V48.73L152.693 49.9272L152.782 49.9284L157.896 45.0121L159.709 46.9014L159.8 46.9026L160.999 45.7525V45.6621L156.131 40.596Z" fill="white"/>
<path fill-rule="evenodd" clip-rule="evenodd" d="M160.926 53.8134L161.57 54.6887C162.024 55.304 162.085 55.8153 161.516 56.2338C160.901 56.6869 160.432 56.4814 159.974 55.8611L159.33 54.9883L160.926 53.8134ZM164.064 49.3539L163.975 49.3416L156.881 54.5723L156.869 54.6627L158.613 57.0286C159.637 58.4152 161.218 58.8386 162.659 57.7776C164.098 56.7154 164.109 55.1183 163.085 53.7267L162.363 52.7511L163.649 51.8028L165.81 54.7345L165.901 54.7481L167.236 53.7602L167.25 53.6723L164.064 49.3539Z" fill="white"/>
<path d="M142.054 89.3318V89.3553C142.289 89.4395 142.513 89.5906 142.631 89.6859C142.997 89.9867 143.157 90.3842 143.157 90.8992C143.157 91.746 142.706 92.3564 141.967 92.5507C141.742 92.6151 141.507 92.6362 141.067 92.6362H138.825V86.4373H140.809C141.216 86.4373 141.494 86.4583 141.742 86.5239C142.459 86.7171 142.932 87.2098 142.932 87.9935C142.932 88.4095 142.783 88.7636 142.536 89.0013C142.429 89.1077 142.278 89.2365 142.054 89.3318ZM140.069 89.9867V91.6173H140.926C141.184 91.6173 141.42 91.595 141.591 91.434C141.763 91.2743 141.837 91.07 141.837 90.8014C141.837 90.5983 141.784 90.4052 141.678 90.2653C141.494 90.04 141.269 89.9867 140.885 89.9867H140.069ZM140.058 88.9146H140.754C140.969 88.9146 141.076 88.9146 141.184 88.8824C141.475 88.797 141.655 88.5395 141.655 88.1854C141.655 87.7669 141.463 87.5849 141.184 87.4995C141.067 87.4673 140.948 87.4574 140.713 87.4574H140.058V88.9146ZM145.023 92.6362V87.4785H143.233V86.4373H148.208L147.854 87.4785H146.267V92.6362H145.023ZM148.595 92.6362V86.4373H152.626L152.272 87.4785H149.826V88.8502H150.826C151.629 88.8502 152.048 89.0434 152.337 89.2897C152.563 89.4829 152.948 89.9125 152.948 90.7593C152.948 91.595 152.551 92.0568 152.218 92.292C151.832 92.5619 151.425 92.6362 150.6 92.6362H148.595ZM149.826 91.595H150.761C151.115 91.595 151.329 91.5095 151.478 91.3164C151.555 91.2211 151.661 91.049 151.661 90.7271C151.661 90.4052 151.555 90.1799 151.341 90.0189C151.211 89.9236 151.04 89.8691 150.75 89.8691H149.826V91.595Z" fill="white"/>
<path d="M137.791 84.8884H132.58L132.205 85.921H137.415L137.791 84.8884Z" fill="white"/>
<path d="M137.228 86.4373H132.017L131.64 87.4698H136.852L137.228 86.4373Z" fill="white"/>
<path d="M136.665 87.9858H131.454L131.076 89.0208H136.289L136.665 87.9858Z" fill="white"/>
<path d="M143.946 141.797C141.305 135.727 137.406 130.216 132.514 125.691C127.09 120.676 120.56 116.979 113.518 114.909L116.371 103.194C131.076 104.674 145.45 108.151 159.152 113.546C156.683 124.336 151.328 134.04 143.946 141.797ZM83.2145 158.307L87.3422 143.745C96.3181 147.926 105.8 150.817 115.594 152.356L117.461 158.109C111.931 159.774 106.073 160.673 100.007 160.673C94.1837 160.673 88.5493 159.845 83.2145 158.307ZM40.8621 113.544C53.8765 108.42 67.5074 105.025 81.4454 103.43L84.7225 115.466C71.8257 119.798 61.4434 129.367 56.0641 141.792C48.6841 134.035 43.332 124.334 40.8621 113.544ZM54.7382 59.6558C59.4477 68.1476 66.5244 75.2354 75.0508 79.9449L80.2655 99.0976C66.4575 100.734 52.9479 104.097 40.0202 109.11C39.5708 106.138 39.3368 103.098 39.3368 100.003C39.3368 84.5245 45.1656 70.386 54.7382 59.6558ZM100.796 39.3431L70.0429 61.5488L73.3461 73.6841C66.8871 69.2569 61.5722 63.2573 57.9744 56.2945C68.8866 45.7971 83.7061 39.332 100.007 39.332C100.27 39.332 100.534 39.3394 100.796 39.3431ZM111.067 38.0184C111.458 38.1174 111.833 38.4567 112.097 38.9544L119.827 55.5554C104.973 64.8667 92.3513 77.4639 83.0053 92.2697L75.1313 63.3477L109.67 38.4072C110.038 38.1583 110.573 37.8946 111.067 38.0184ZM118.508 42.2092C127.293 45.0282 135.379 49.8678 142.055 56.2759C138.311 63.5321 132.709 69.7298 125.898 74.2029L128.587 63.8553L118.508 42.2092ZM101.524 99.0233L87.7099 109.548L84.6148 98.1789C93.6823 82.5597 106.463 69.2816 121.717 59.6137L123.891 64.2824L114.86 99.0233H101.524ZM106.708 124.122L92.568 121.744L90.6193 112.91L103.022 103.46H111.74L106.708 124.122ZM111.199 124.429L112.467 119.225C125.208 123.045 135.683 132.718 140.516 145.127C135.037 150.051 128.658 153.993 121.661 156.674L111.199 124.429ZM92.3167 126.201L107.963 128.833L114.052 147.598C105.223 146.01 96.6759 143.27 88.5679 139.423L92.3167 126.201ZM87.4734 119.246L88.4366 123.616L78.9953 156.919C71.7453 154.234 65.144 150.201 59.4972 145.125C64.3293 132.656 74.6113 123.112 87.4734 119.246ZM160.678 100.003C160.678 103.096 160.444 106.136 159.995 109.107C146.965 104.053 133.353 100.686 119.435 99.0629L124.313 80.299C133.136 75.5895 140.458 68.3593 145.29 59.6298C146.001 60.4246 146.693 61.238 147.362 62.0725C156.074 72.9326 160.678 86.0485 160.678 100.003ZM150.823 59.2955C141.972 48.2595 129.644 40.3311 116.017 36.8806C115.151 35.2501 113.783 34.126 112.149 33.7149C110.501 33.3014 108.722 33.6741 107.137 34.7636L106.503 35.2217C104.354 35.0087 102.174 34.8948 100.007 34.8948C64.1065 34.8948 34.8997 64.1016 34.8997 100.003C34.8997 135.902 64.1065 165.11 100.007 165.11C135.908 165.11 165.115 135.902 165.115 100.003C165.115 85.2426 160.039 70.7859 150.823 59.2955Z" fill="white"/>
</svg>
