<svg width="84" height="210" viewBox="0 0 84 210" fill="none" xmlns="http://www.w3.org/2000/svg">
<g clip-path="url(#clip0_317_849)">
<path fill-rule="evenodd" clip-rule="evenodd" d="M43.3829 39.9667C43.1025 39.8566 42.8723 39.9567 42.672 40.257C41.821 40.9479 40.8498 41.2082 39.7785 41.038C39.2178 40.7677 39.0776 40.217 39.338 39.376C39.9487 38.3247 41.06 37.8541 42.672 37.9642C44.0637 38.0544 44.9348 38.585 45.2652 39.5662C45.7958 40.7877 46.0662 41.4084 46.0662 41.4084C45.5555 42.7 45.4854 43.531 45.8359 43.8714C45.9961 44.2819 45.906 44.6224 45.5455 44.9127C44.8246 45.2531 44.5843 46.0641 44.8246 47.3557C44.9548 49.1078 44.7846 50.049 44.334 50.1791C43.7433 50.3293 43.483 49.5884 43.5431 47.9765C42.1614 48.2167 41.3404 47.9364 41.0801 47.1354C42.3116 47.1454 43.1526 46.9552 43.6031 46.5747C43.7533 45.2832 43.9936 44.2519 44.334 43.491C44.4242 42.8702 44.274 42.4397 43.8835 42.1894C43.6632 42.1193 43.493 42.1093 43.3729 42.1894C43.0625 42.4197 42.692 42.4998 42.2415 42.4297C42.1414 43.1205 42.1514 43.6612 42.2615 44.0617C42.672 44.2319 42.9123 44.5122 42.9824 44.9127C42.5719 44.7525 42.3016 44.7525 42.1414 44.9227C41.9311 45.0429 41.7108 45.0629 41.4505 44.9528C41.2303 45.0128 41.05 45.123 40.8999 45.2832C40.7797 44.8226 40.9399 44.5723 41.4005 44.5523C41.4605 44.332 41.6107 44.2018 41.831 44.1518C41.7008 42.9203 41.7909 42.1794 42.0913 41.9191C42.4718 41.5586 42.9223 41.5086 43.453 41.7689C43.6332 41.8089 43.7433 41.7789 43.8034 41.6788C43.8635 40.8778 43.7233 40.3071 43.3829 39.9667ZM411.602 168.754H395.662V166.531L404.083 157.17C405.334 155.758 406.195 154.596 406.666 153.715C407.146 152.824 407.377 151.913 407.377 150.962C407.377 149.69 406.996 148.649 406.225 147.838C405.454 147.017 404.433 146.617 403.151 146.617C401.61 146.617 400.418 147.057 399.567 147.928C398.716 148.809 398.295 150.031 398.295 151.583H395.192C395.192 149.35 395.923 147.538 397.364 146.156C398.806 144.774 400.728 144.084 403.151 144.084C405.404 144.084 407.196 144.674 408.508 145.866C409.83 147.047 410.49 148.629 410.49 150.602C410.49 152.994 408.958 155.848 405.905 159.162L399.387 166.231H411.602V168.754ZM319.519 168.754H316.406V148.159L310.178 150.451V147.638L319.029 144.324H319.519V168.754ZM392.388 168.754H376.449V166.531L384.869 157.17C386.121 155.758 386.982 154.596 387.452 153.715C387.923 152.824 388.163 151.913 388.163 150.962C388.163 149.69 387.783 148.649 387.012 147.838C386.241 147.017 385.22 146.617 383.938 146.617C382.396 146.617 381.205 147.057 380.354 147.928C379.493 148.809 379.072 150.031 379.072 151.583H375.978C375.978 149.35 376.699 147.538 378.141 146.156C379.583 144.774 381.515 144.084 383.938 144.084C386.191 144.084 387.983 144.674 389.295 145.866C390.616 147.047 391.267 148.629 391.267 150.602C391.267 152.994 389.745 155.848 386.691 159.162L380.173 166.231H392.388V168.754ZM372.484 158.381C372.484 162.005 371.873 164.699 370.632 166.461C369.39 168.223 367.458 169.104 364.835 169.104C362.232 169.104 360.319 168.243 359.068 166.521C357.816 164.799 357.175 162.226 357.125 158.802V154.666C357.125 151.092 357.746 148.429 358.988 146.687C360.219 144.955 362.161 144.084 364.805 144.084C367.418 144.084 369.35 144.925 370.582 146.597C371.813 148.279 372.454 150.862 372.484 154.366V158.381ZM369.39 154.136C369.39 151.523 369.03 149.61 368.289 148.409C367.558 147.217 366.397 146.617 364.805 146.617C363.213 146.617 362.061 147.217 361.34 148.409C360.62 149.6 360.249 151.433 360.219 153.906V158.852C360.219 161.495 360.6 163.427 361.37 164.689C362.131 165.94 363.283 166.571 364.835 166.571C366.357 166.571 367.498 165.97 368.239 164.799C368.98 163.617 369.36 161.755 369.39 159.212V154.136ZM353.951 168.754H338.012V166.531L346.432 157.17C347.684 155.758 348.545 154.596 349.015 153.715C349.496 152.824 349.726 151.913 349.726 150.962C349.726 149.69 349.346 148.649 348.575 147.838C347.804 147.017 346.783 146.617 345.501 146.617C343.959 146.617 342.768 147.057 341.917 147.928C341.066 148.809 340.635 150.031 340.635 151.583H337.541C337.541 149.35 338.262 147.538 339.714 146.156C341.156 144.774 343.078 144.084 345.501 144.084C347.754 144.084 349.546 144.674 350.858 145.866C352.179 147.047 352.83 148.629 352.83 150.602C352.83 152.994 351.308 155.848 348.255 159.162L341.737 166.231H353.951V168.754ZM335.319 159.693H327.169V157.16H335.319V159.693ZM306.083 168.754H290.134V166.531L298.564 157.17C299.805 155.758 300.677 154.596 301.147 153.715C301.618 152.824 301.848 151.913 301.848 150.962C301.848 149.69 301.467 148.649 300.697 147.838C299.926 147.017 298.904 146.617 297.623 146.617C296.081 146.617 294.889 147.057 294.048 147.928C293.187 148.809 292.767 150.031 292.767 151.583H289.673C289.673 149.35 290.394 147.538 291.836 146.156C293.277 144.774 295.21 144.084 297.623 144.084C299.886 144.084 301.678 144.674 302.989 145.866C304.301 147.047 304.962 148.629 304.962 150.602C304.962 152.994 303.44 155.848 300.376 159.162L293.868 166.231H306.083V168.754ZM286.179 158.381C286.179 162.005 285.558 164.699 284.327 166.461C283.085 168.223 281.153 169.104 278.53 169.104C275.926 169.104 274.014 168.243 272.762 166.521C271.511 164.799 270.87 162.226 270.82 158.802V154.666C270.82 151.092 271.441 148.429 272.672 146.687C273.914 144.955 275.856 144.084 278.489 144.084C281.113 144.084 283.045 144.925 284.277 146.597C285.508 148.279 286.139 150.862 286.179 154.366V158.381ZM283.085 154.136C283.085 151.523 282.725 149.61 281.984 148.409C281.253 147.217 280.081 146.617 278.489 146.617C276.908 146.617 275.756 147.217 275.035 148.409C274.304 149.6 273.934 151.433 273.914 153.906V158.852C273.914 161.495 274.294 163.427 275.065 164.689C275.816 165.94 276.978 166.571 278.53 166.571C280.051 166.571 281.183 165.97 281.924 164.799C282.665 163.617 283.055 161.755 283.085 159.212V154.136ZM267.646 168.754H251.707V166.531L260.127 157.17C261.379 155.758 262.24 154.596 262.71 153.715C263.181 152.824 263.421 151.913 263.421 150.962C263.421 149.69 263.041 148.649 262.27 147.838C261.499 147.017 260.478 146.617 259.196 146.617C257.654 146.617 256.463 147.057 255.612 147.928C254.751 148.809 254.33 150.031 254.33 151.583H251.236C251.236 149.35 251.957 147.538 253.399 146.156C254.841 144.774 256.773 144.084 259.196 144.084C261.449 144.084 263.241 144.674 264.552 145.866C265.874 147.047 266.525 148.629 266.525 150.602C266.525 152.994 265.003 155.848 261.949 159.162L255.431 166.231H267.646V168.754ZM238.341 168.754H235.117V157.53H222.852V168.754H219.638V144.424H222.852V154.897H235.117V144.424H238.341V168.754ZM214.822 157.38C214.822 159.763 214.431 161.845 213.62 163.627C212.819 165.4 211.688 166.761 210.216 167.692C208.744 168.634 207.032 169.104 205.07 169.104C203.148 169.104 201.456 168.624 199.974 167.682C198.492 166.741 197.341 165.4 196.52 163.657C195.699 161.915 195.288 159.893 195.258 157.6V155.838C195.258 153.505 195.669 151.433 196.479 149.63C197.29 147.838 198.442 146.467 199.934 145.515C201.416 144.564 203.118 144.084 205.04 144.084C206.982 144.084 208.704 144.554 210.186 145.495C211.678 146.436 212.819 147.798 213.62 149.59C214.431 151.382 214.822 153.465 214.822 155.838V157.38ZM211.638 155.808C211.638 152.924 211.057 150.712 209.896 149.17C208.744 147.628 207.122 146.857 205.04 146.857C203.007 146.857 201.406 147.628 200.244 149.17C199.083 150.712 198.482 152.854 198.452 155.588V157.38C198.452 160.173 199.033 162.366 200.214 163.968C201.385 165.56 203.007 166.361 205.07 166.361C207.142 166.361 208.744 165.61 209.876 164.098C211.017 162.596 211.608 160.434 211.638 157.61V155.808ZM188.29 150.952C188.29 149.66 187.809 148.629 186.868 147.868C185.927 147.097 184.605 146.717 182.903 146.717C181.471 146.717 180.28 147.107 179.319 147.898C178.357 148.689 177.877 149.66 177.877 150.822H174.663C174.663 149.52 175.013 148.369 175.724 147.338C176.435 146.316 177.416 145.515 178.688 144.945C179.959 144.364 181.371 144.084 182.903 144.084C185.626 144.084 187.729 144.694 189.241 145.916C190.743 147.137 191.493 148.829 191.493 151.002C191.493 152.133 191.153 153.155 190.462 154.086C189.771 155.007 188.8 155.738 187.569 156.268C190.432 157.23 191.864 159.132 191.864 161.975C191.864 164.158 191.043 165.89 189.421 167.182C187.799 168.463 185.626 169.104 182.903 169.104C181.291 169.104 179.819 168.814 178.498 168.243C177.176 167.672 176.155 166.851 175.414 165.79C174.683 164.729 174.312 163.477 174.312 162.015H177.526C177.526 163.287 178.027 164.348 179.048 165.189C180.059 166.04 181.341 166.461 182.903 166.461C184.655 166.461 186.047 166.06 187.088 165.249C188.129 164.438 188.65 163.367 188.65 162.025C188.65 159.172 186.888 157.73 183.353 157.67H180.35V155.037H183.343C184.965 154.997 186.197 154.636 187.028 153.926C187.869 153.225 188.29 152.234 188.29 150.952ZM170.107 157.53H159.564V166.12H171.809V168.754H156.351V144.424H171.649V147.057H159.564V154.897H170.107V157.53ZM151.975 161.044C151.675 163.617 150.734 165.6 149.132 167.002C147.53 168.403 145.407 169.104 142.754 169.104C139.881 169.104 137.578 168.073 135.846 166.01C134.113 163.948 133.252 161.184 133.252 157.73V155.387C133.252 153.125 133.643 151.132 134.454 149.42C135.265 147.698 136.406 146.386 137.888 145.465C139.37 144.544 141.092 144.084 143.034 144.084C145.628 144.084 147.7 144.804 149.252 146.246C150.814 147.688 151.725 149.68 151.975 152.244H148.751C148.481 150.291 147.87 148.889 146.939 148.028C146.008 147.147 144.706 146.717 143.034 146.717C140.992 146.717 139.38 147.478 138.218 148.99C137.057 150.501 136.466 152.664 136.466 155.457V157.82C136.466 160.464 137.027 162.566 138.128 164.128C139.23 165.68 140.772 166.461 142.754 166.461C144.536 166.461 145.908 166.06 146.859 165.259C147.81 164.448 148.441 163.047 148.751 161.044H151.975ZM440.627 107.419H429.764V112.115H433.679C436.542 112.115 438.815 112.805 440.487 114.197C442.169 115.579 443 117.451 443 119.804C443 122.167 442.169 124.069 440.507 125.501C438.835 126.933 436.622 127.664 433.859 127.684H424.708V103.354H440.627V107.419ZM429.764 116.15V123.649H433.759C435.04 123.649 436.062 123.288 436.822 122.587C437.593 121.887 437.974 120.945 437.974 119.764C437.974 118.663 437.603 117.792 436.873 117.151C436.152 116.5 435.15 116.17 433.879 116.15H429.764ZM421.904 107.419H414.445V127.684H409.439V107.419H402.08V103.354H421.904V107.419ZM382.196 127.684V103.354H390.716C393.67 103.354 395.913 103.915 397.434 105.046C398.966 106.177 399.727 107.839 399.727 110.022C399.727 111.214 399.417 112.275 398.806 113.176C398.195 114.087 397.344 114.748 396.243 115.178C397.495 115.489 398.476 116.12 399.197 117.061C399.917 118.012 400.278 119.163 400.278 120.535C400.278 122.878 399.527 124.64 398.035 125.851C396.543 127.053 394.421 127.664 391.657 127.684H382.196ZM387.202 117.111V123.649H391.497C392.679 123.649 393.61 123.368 394.271 122.808C394.931 122.247 395.262 121.476 395.262 120.485C395.262 118.262 394.11 117.141 391.808 117.111H387.202ZM387.202 113.546H390.917C393.45 113.506 394.711 112.495 394.711 110.523C394.711 109.421 394.391 108.63 393.75 108.15C393.109 107.659 392.098 107.419 390.716 107.419H387.202V113.546ZM364.304 103.354H369.33V127.684H364.304V111.524L354.562 127.684H349.546V103.354H354.562V119.544L364.304 103.354ZM346.602 107.419H335.689V127.684H330.683V103.354H346.602V107.419ZM321.272 103.354H326.298V127.684H321.272V111.524L311.53 127.684H306.514V103.354H311.53V119.544L321.272 103.354ZM302.308 103.354V127.684H297.282V107.419H290.794L290.394 116.009C290.224 118.903 289.853 121.186 289.283 122.848C288.722 124.51 287.891 125.731 286.8 126.512C285.708 127.283 284.216 127.674 282.324 127.684H281.013V123.649L281.854 123.559C283.105 123.398 284.006 122.667 284.557 121.376C285.088 120.094 285.438 117.802 285.578 114.508L285.999 103.354H302.308ZM264.633 103.354H269.649V127.684H264.633V111.524L254.881 127.684H249.875V103.354H254.881V119.544L264.633 103.354ZM265.584 96.9862C265.584 98.458 265.053 99.6394 263.992 100.551C262.92 101.462 261.529 101.912 259.807 101.912C258.075 101.912 256.673 101.462 255.612 100.571C254.55 99.6695 254.02 98.478 254.02 96.9862H257.444C257.444 97.677 257.654 98.2177 258.075 98.6082C258.495 98.9886 259.066 99.1789 259.807 99.1789C260.528 99.1789 261.088 98.9886 261.509 98.6082C261.919 98.2177 262.12 97.677 262.12 96.9862H265.584ZM246.39 116.069C246.39 118.462 245.96 120.565 245.119 122.377C244.268 124.179 243.056 125.571 241.484 126.552C239.902 127.533 238.09 128.024 236.058 128.024C234.035 128.024 232.243 127.543 230.661 126.572C229.079 125.601 227.848 124.219 226.977 122.417C226.116 120.615 225.675 118.542 225.665 116.2V114.998C225.665 112.605 226.096 110.493 226.957 108.67C227.818 106.848 229.039 105.447 230.611 104.475C232.193 103.494 233.995 103.004 236.018 103.004C238.05 103.004 239.852 103.494 241.434 104.475C243.006 105.447 244.228 106.848 245.089 108.67C245.95 110.493 246.39 112.595 246.39 114.978V116.069ZM241.304 114.968C241.304 112.405 240.844 110.473 239.932 109.141C239.021 107.809 237.72 107.149 236.018 107.149C234.336 107.149 233.044 107.809 232.123 109.121C231.212 110.433 230.751 112.355 230.741 114.888V116.069C230.741 118.552 231.192 120.495 232.113 121.857C233.024 123.238 234.336 123.919 236.058 123.919C237.74 123.919 239.031 123.258 239.932 121.937C240.834 120.615 241.294 118.693 241.304 116.16V114.968ZM222.031 127.684H217.015V117.241H207.243V127.684H202.227V103.354H207.243V113.206H217.015V103.354H222.031V127.684ZM192.855 103.354H197.881V127.684H192.855V111.524L183.103 127.684H178.097V103.354H183.103V119.544L192.855 103.354ZM175.244 133.671H170.618V127.684H155.94V133.651H151.194L150.934 123.649H152.776C153.767 122.828 154.528 121.606 155.069 120.014C155.61 118.412 155.97 116.44 156.17 114.077L156.871 103.354H172.801V123.649H175.644L175.244 133.671ZM158.523 123.649H167.795V107.419H161.627L161.207 113.817C160.876 118.102 159.975 121.376 158.523 123.649ZM148.07 117.111H138.449V123.649H149.743V127.684H133.433V103.354H149.702V107.419H138.449V113.206H148.07V117.111ZM307.555 71.0346H311.46C314.323 71.0346 316.596 71.7354 318.268 73.1171C319.94 74.5088 320.781 76.3811 320.781 78.7339C320.781 81.0968 319.95 82.9891 318.288 84.4209C316.616 85.8526 314.403 86.5835 311.64 86.6135H302.499V62.2739H307.555V71.0346ZM327.89 86.6135H322.874V62.2739H327.89V86.6135ZM307.555 75.0795V82.5686H311.54C312.821 82.5686 313.853 82.2182 314.603 81.5173C315.374 80.8165 315.755 79.8753 315.755 78.6939C315.755 77.5825 315.384 76.7115 314.654 76.0707C313.923 75.4299 312.931 75.0995 311.66 75.0795H307.555ZM298.073 86.6135H293.057V76.1708H283.275V86.6135H278.269V62.2739H283.275V72.1359H293.057V62.2739H298.073V86.6135ZM274.615 74.9994C274.615 77.3923 274.184 79.4949 273.343 81.2971C272.492 83.1093 271.281 84.501 269.709 85.4822C268.127 86.4634 266.325 86.954 264.282 86.954C262.27 86.954 260.467 86.4634 258.886 85.4922C257.304 84.531 256.072 83.1393 255.211 81.3371C254.34 79.5449 253.899 77.4724 253.889 75.1295V73.9281C253.889 71.5252 254.32 69.4126 255.191 67.5904C256.052 65.7681 257.274 64.3764 258.846 63.3952C260.427 62.4241 262.23 61.9335 264.252 61.9335C266.285 61.9335 268.077 62.4241 269.659 63.3952C271.231 64.3764 272.452 65.7681 273.313 67.5904C274.184 69.4126 274.615 71.5252 274.615 73.9081V74.9994ZM269.529 73.888C269.529 71.3349 269.078 69.3926 268.167 68.0609C267.246 66.7393 265.944 66.0785 264.252 66.0785C262.57 66.0785 261.278 66.7293 260.357 68.0409C259.446 69.3525 258.976 71.2748 258.966 73.8079V74.9994C258.966 77.4824 259.426 79.4148 260.347 80.7864C261.258 82.1581 262.57 82.849 264.282 82.849C265.964 82.849 267.256 82.1781 268.167 80.8565C269.068 79.5449 269.519 77.6126 269.529 75.0795V73.888ZM245.259 62.2739H250.285V86.6135H245.259V70.4538L235.517 86.6135H230.511V62.2739H235.517V78.4736L245.259 62.2739ZM226.276 86.6135H221.25V66.3488H211.508V86.6135H206.492V62.2739H226.276V86.6135ZM183.023 62.2739L189.281 79.9254L195.498 62.2739H202.076V86.6135H197.05V79.9554L197.551 68.4714L190.983 86.6135H187.539L180.991 68.4915L181.491 79.9554V86.6135H176.475V62.2739H183.023ZM171.859 76.0306H162.238V82.5686H173.532V86.6135H157.232V62.2739H173.501V66.3488H162.238V72.1359H171.859V76.0306ZM152.836 62.2739V86.6135H147.81V77.3623C146.288 77.6927 144.696 77.8429 143.034 77.8429C139.941 77.8429 137.608 77.172 136.006 75.8304C134.404 74.4788 133.583 72.5364 133.543 69.9833V62.2739H138.569V69.8832C138.579 71.2748 138.919 72.2761 139.58 72.8868C140.251 73.4976 141.392 73.8079 143.034 73.8079C144.696 73.8079 146.288 73.6477 147.81 73.3274V62.2739H152.836ZM29.8464 124.35V136.344H25.7113V124.35H29.8464ZM32.9602 136.344V124.35H40.4393V136.344H32.9602ZM33.5409 112.185C27.5235 112.355 26.7626 112.435 26.7626 112.435C18.022 87.1642 3.92478 58.2189 15.0684 42.4998C10.0623 57.6783 24.9704 98.3078 33.5409 112.185ZM47.2576 111.464C53.285 111.634 56.2986 111.714 56.2986 111.714C71.2368 68.5115 78.8761 49.218 48.5191 8.68856C58.4613 38.3447 58.0407 72.6065 47.2576 111.464ZM43.5531 136.344V124.35H46.6168V136.344H43.5531ZM56.0183 124.35V136.344H57.9607V124.35H56.0183ZM24.62 121.166H59.052C60.2034 121.166 61.1445 122.107 61.1445 123.258V137.435C61.1445 138.587 60.2034 139.528 59.052 139.528H24.62C23.4686 139.528 22.5275 138.587 22.5275 137.435V123.258C22.5275 122.107 23.4686 121.166 24.62 121.166ZM41.9912 160.644C32.81 160.644 25.3609 168.093 25.3609 177.284C25.3609 186.465 32.81 193.914 41.9912 193.914C51.1824 193.914 58.6315 186.465 58.6315 177.284C58.6315 168.093 51.1824 160.644 41.9912 160.644ZM41.9912 161.805C33.4508 161.805 26.5223 168.734 26.5223 177.284C26.5223 185.824 33.4508 192.753 41.9912 192.753C50.5416 192.753 57.4701 185.824 57.4701 177.284C57.4701 168.734 50.5416 161.805 41.9912 161.805ZM41.9912 161.214C33.1204 161.214 25.9316 168.403 25.9316 177.284C25.9316 186.155 33.1204 193.344 41.9912 193.344C50.872 193.344 58.0608 186.155 58.0608 177.284C58.0608 168.403 50.872 161.214 41.9912 161.214ZM40.3992 166.971H40.4093H40.3992ZM40.0889 167.022C40.1089 167.022 40.1389 167.012 40.159 167.012C40.1389 167.012 40.1089 167.022 40.0889 167.022ZM39.7885 167.082C39.8386 167.072 39.8786 167.062 39.9187 167.062C39.8786 167.062 39.8386 167.072 39.7885 167.082ZM39.5082 167.152C39.5682 167.132 39.6183 167.122 39.6784 167.112C39.6183 167.122 39.5682 167.132 39.5082 167.152ZM31.8588 184.703H31.8488L31.0478 186.115V186.135L31.2381 186.365H31.2581L32.8 185.855V185.835L32.5897 185.584H32.5697L31.4984 185.955L32.0691 184.973V184.953L31.8588 184.703ZM33.0303 186.055H33.0102L32.81 186.265V186.275L33.1404 186.585L32.2994 187.477L32.3094 187.487L32.5096 187.687H32.5297L33.3607 186.796L33.6911 187.106H33.7111L33.9013 186.906V186.886L33.0303 186.055ZM33.9213 188.027L34.0615 188.137C34.1516 188.197 34.1817 188.277 34.1116 188.378C34.0415 188.478 33.9514 188.458 33.8613 188.398L33.7211 188.287L33.9213 188.027ZM34.2818 187.557L34.3719 187.627C34.462 187.697 34.472 187.777 34.422 187.837C34.3719 187.917 34.2918 187.927 34.1917 187.847L34.1116 187.787L34.2818 187.557ZM34.2317 187.126L34.2217 187.136L33.3006 188.338V188.358L33.6911 188.658C33.9213 188.828 34.1917 188.828 34.3819 188.588C34.482 188.458 34.492 188.267 34.422 188.147C34.5221 188.167 34.6322 188.127 34.7123 188.017C34.8725 187.817 34.7824 187.547 34.5521 187.376L34.2317 187.126ZM35.7636 188.177H35.7436L35.3631 188.938C35.1629 189.339 35.313 189.709 35.6535 189.879C35.9839 190.05 36.3743 189.95 36.5846 189.549L36.9651 188.788L36.955 188.778L36.7047 188.648L36.6847 188.658L36.3243 189.369C36.1941 189.639 35.9839 189.689 35.7936 189.589C35.6034 189.499 35.5233 189.299 35.6635 189.028L36.0239 188.318L36.0139 188.308L35.7636 188.177ZM37.3055 188.918L37.2955 188.928L36.8149 190.36V190.38L37.0952 190.47L37.1052 190.46L37.4256 189.519L37.8361 190.71L37.8461 190.72L38.1365 190.821L38.1465 190.811L38.6271 189.379L38.6171 189.359L38.3467 189.269L38.3367 189.279L38.0163 190.22L37.6058 189.028L37.5858 189.018L37.3055 188.918ZM39.0476 189.459L39.0376 189.469L38.6972 190.951L38.7072 190.961L38.9875 191.031L38.9975 191.021L39.338 189.539L39.3279 189.529L39.0476 189.459ZM39.7184 189.609L39.6984 189.619L39.6684 189.909L39.6784 189.919L40.1189 189.98L39.9687 191.181L39.9787 191.201L40.2591 191.231L40.2691 191.221L40.4293 190.01L40.8698 190.07L40.8898 190.06L40.9199 189.779L40.9099 189.769L39.7184 189.609ZM41.2703 189.789L41.2603 189.799L41.2303 191.311L41.2403 191.331L42.3016 191.341L42.3116 191.331V191.051L42.3016 191.041L41.5406 191.021L41.5506 190.68L42.0913 190.69L42.1013 190.68V190.4L42.0913 190.39L41.5607 190.38V190.1L42.3016 190.11L42.3116 190.1V189.819L42.3016 189.809L41.2703 189.789ZM43.0525 190.07L43.2727 190.05C43.5631 190.03 43.7734 190.2 43.7934 190.47C43.8134 190.74 43.6332 190.951 43.3528 190.971L43.1326 190.991L43.0525 190.07ZM42.7321 189.789L42.7221 189.799L42.8522 191.311L42.8622 191.321L43.3729 191.281C43.8434 191.241 44.1538 190.871 44.1238 190.44C44.0937 190.02 43.7233 189.709 43.2527 189.739L42.7321 189.789ZM44.8246 189.479L44.8146 189.489L45.1951 190.961H45.2151L46.0662 190.74V190.73L45.9961 190.45H45.9861L45.4254 190.59L45.115 189.409H45.105L44.8246 189.479ZM45.9961 189.149V189.159L46.5367 190.57L46.5567 190.58L47.5379 190.2L47.548 190.18L47.4378 189.919L47.4278 189.909L46.7169 190.19L46.5968 189.869L47.0974 189.669L47.1074 189.659L46.9973 189.389H46.9873L46.4867 189.579L46.3865 189.329L47.0774 189.058V189.048L46.9773 188.778L46.9572 188.768L45.9961 189.149ZM47.9885 188.708L48.429 189.058L48.1086 189.229L47.9885 188.708ZM47.6281 188.458V188.468L47.9184 190.02L47.9284 190.03L48.2488 189.859V189.849L48.1787 189.529L48.6893 189.259L48.9597 189.469H48.9697L49.2901 189.299V189.289L47.9284 188.308H47.9184L47.6281 188.458ZM49.8608 187.466L49.6305 187.206C49.4603 187.266 49.3101 187.366 49.1599 187.497C48.7995 187.817 48.7694 188.328 49.0598 188.658C49.3602 188.988 49.8708 189.008 50.2212 188.698C50.3714 188.568 50.4815 188.418 50.5416 188.237L50.011 187.637H49.9909L49.6005 187.987V188.007L49.7907 188.217H49.8007L49.9809 188.067L50.1611 188.277C50.1411 188.328 50.071 188.408 50.011 188.458C49.7807 188.658 49.4903 188.628 49.3201 188.428C49.1399 188.227 49.1399 187.937 49.3702 187.737C49.5104 187.617 49.6705 187.517 49.8608 187.477V187.466ZM50.011 186.876V186.896L50.5917 187.517C50.892 187.847 51.3025 187.827 51.5729 187.577C51.8532 187.326 51.8933 186.926 51.5929 186.595L51.0122 185.975L51.0022 185.965L50.7919 186.165V186.175L51.3326 186.766C51.5328 186.986 51.5128 187.206 51.3626 187.346C51.2024 187.487 50.9821 187.497 50.7819 187.276L50.2412 186.686H50.2212L50.011 186.876ZM51.3626 185.584V185.604L52.544 186.555H52.5541L53.2149 185.734V185.714L52.9946 185.534H52.9746L52.504 186.125L52.2337 185.915L52.5741 185.494V185.484L52.3538 185.304H52.3338L51.9934 185.724L51.7831 185.554L52.2437 184.973V184.963L52.0234 184.783H52.0034L51.3626 185.584ZM30.4972 169.154V169.164L31.6986 170.085H31.7187L32.3594 169.244L32.3494 169.234L32.1292 169.054H32.1091L31.6486 169.665L31.3782 169.455L31.7087 169.024V169.014L31.4784 168.834L31.4583 168.844L31.138 169.264L30.9177 169.104L31.3682 168.513L31.3582 168.503L31.138 168.323L31.1179 168.333L30.4972 169.154ZM32.3094 167.502L32.6598 167.162L33.3006 167.823L32.8801 168.223C32.85 168.183 32.83 168.163 32.82 168.143L32.3094 167.502ZM31.8989 167.452V167.472L32.5597 168.313C32.5897 168.373 32.6198 168.413 32.6298 168.463L32.4996 168.593V168.603L32.9602 169.104H32.9802L33.1905 168.904V168.884L32.9201 168.614L33.641 167.923L33.9013 168.203H33.9213L34.1216 168.013L34.1316 167.993L33.661 167.502H33.641L33.5209 167.612L32.6798 166.731H32.6698L31.8989 167.452ZM33.4608 166.07V166.09L34.3218 167.342H34.3419L34.5822 167.172L34.5922 167.152L34.6623 165.89L35.2229 166.711L35.243 166.721L35.4732 166.551L35.4833 166.541L34.6222 165.289H34.6022L34.3619 165.46L34.3519 165.48L34.2818 166.741L33.7111 165.91H33.7011L33.4608 166.07ZM35.3831 164.849L35.3731 164.869L36.0239 166.241H36.0439L36.2942 166.12L36.3043 166.11L36.0339 165.53L36.6647 165.229L36.935 165.81H36.955L37.2154 165.69V165.68L36.5746 164.308L36.5546 164.298L36.2942 164.418V164.438L36.5345 164.949L35.9038 165.249L35.6535 164.739L35.6434 164.729L35.3831 164.849ZM38.1365 164.168L38.4469 164.619L38.1064 164.709L38.1365 164.168ZM37.8862 163.828L37.8762 163.838L37.726 165.46L37.736 165.47L38.0664 165.37L38.0764 165.36L38.0964 165.039L38.6271 164.889L38.8173 165.149L38.8273 165.159L39.1577 165.069L39.1677 165.049L38.1966 163.748H38.1765L37.8862 163.828ZM40.3292 163.637L40.3692 163.938L40.2591 163.948C40.1389 163.968 40.0688 163.928 40.0588 163.828C40.0388 163.718 40.0989 163.667 40.219 163.647L40.3292 163.637ZM40.5895 163.287L40.159 163.347C39.8586 163.387 39.6984 163.617 39.7284 163.868C39.7485 164.038 39.8386 164.148 39.9787 164.198L39.5482 164.959L39.5582 164.969L39.9086 164.929L39.9187 164.919L40.2991 164.258L40.4093 164.248L40.4894 164.839L40.4994 164.849L40.7797 164.819L40.7897 164.799L40.5995 163.297L40.5895 163.287ZM42.682 163.237L42.662 163.247L42.4017 164.278C42.3516 164.418 42.2515 164.478 42.1113 164.458L42.1013 164.468L42.0813 164.739L42.0913 164.759C42.3716 164.789 42.5819 164.689 42.672 164.378L42.8923 163.567L43.3729 163.607L43.2627 164.819L43.2727 164.829L43.5531 164.859L43.5731 164.849L43.7033 163.337L43.6933 163.327L42.682 163.237ZM44.5443 163.457H44.5343L44.1939 164.939L44.2039 164.949L44.4942 165.019L44.5143 165.009L45.4854 164.208L45.2652 165.189L45.2752 165.199L45.5455 165.269L45.5655 165.259L45.906 163.778L45.8959 163.768L45.6056 163.698L45.5856 163.708L44.6144 164.508L44.8347 163.527L44.8246 163.517L44.5443 163.457ZM46.797 164.068L46.777 164.078L46.2063 165.48V165.49L46.4767 165.6H46.4867L46.9572 164.468L47.618 164.739H47.6281L47.7382 164.468L47.7282 164.458L46.797 164.068ZM48.4891 165.279L48.399 165.82L48.0886 165.65L48.4891 165.279ZM48.5492 164.859L48.5292 164.869L47.2977 165.92V165.93L47.598 166.09H47.618L47.8583 165.87L48.3389 166.13L48.2889 166.461V166.471L48.5892 166.631H48.6093L48.8195 165.019V165.009L48.5492 164.859ZM50.081 166.931L50.2212 167.042C50.3113 167.112 50.3414 167.202 50.2613 167.292C50.1912 167.382 50.1011 167.372 50.011 167.302L49.8808 167.192L50.081 166.931ZM50.4615 166.471L50.5416 166.541C50.6417 166.621 50.6517 166.701 50.5917 166.761C50.5316 166.831 50.4615 166.841 50.3614 166.771L50.2813 166.701L50.4615 166.471ZM50.4215 166.05H50.4114L49.4503 167.232V167.242L49.8408 167.552C50.061 167.732 50.3314 167.742 50.5316 167.502C50.6317 167.382 50.6517 167.202 50.5817 167.072C50.6818 167.092 50.7919 167.062 50.872 166.951C51.0422 166.751 50.9621 166.481 50.7419 166.301L50.4215 166.05ZM51.6429 167.072L51.6329 167.062L51.4227 167.262V167.282L51.7331 167.602L50.862 168.453V168.463L51.0522 168.674H51.0723L51.9533 167.823L52.2637 168.153H52.2737L52.484 167.953V167.933L51.6429 167.072ZM52.474 169.334L52.5841 169.485C52.6642 169.595 52.6742 169.685 52.5741 169.755C52.464 169.835 52.3839 169.795 52.3038 169.695L52.1936 169.545L52.474 169.334ZM53.0146 168.573H52.9946L51.7731 169.465V169.485L52.0735 169.895C52.2537 170.125 52.524 170.205 52.7743 170.025C53.0146 169.835 53.0146 169.565 52.8444 169.324L52.7143 169.154L52.9445 168.994L53.315 169.495L53.325 169.505L53.5553 169.334V169.314L53.0146 168.573ZM49.23 175.442V175.452C49.2701 175.462 49.3101 175.492 49.3301 175.512C49.3902 175.562 49.4202 175.632 49.4202 175.712C49.4202 175.862 49.3401 175.962 49.21 176.003C49.1699 176.013 49.1299 176.013 49.0598 176.013H48.6693V174.951H49.0097C49.0798 174.951 49.1299 174.951 49.1699 174.961C49.3001 175.001 49.3802 175.081 49.3802 175.212C49.3802 175.292 49.3502 175.352 49.3101 175.392C49.2901 175.412 49.2701 175.432 49.23 175.442ZM48.8896 175.562V175.842H49.0298C49.0798 175.842 49.1199 175.832 49.1499 175.812C49.1799 175.782 49.19 175.742 49.19 175.702C49.19 175.662 49.1799 175.632 49.1599 175.602C49.1299 175.572 49.0898 175.562 49.0298 175.562H48.8896ZM48.8796 175.372H48.9997C49.0398 175.372 49.0598 175.372 49.0798 175.372C49.1299 175.352 49.1599 175.312 49.1599 175.252C49.1599 175.182 49.1299 175.141 49.0798 175.131C49.0598 175.121 49.0398 175.121 48.9997 175.121H48.8796V175.372ZM49.7406 176.013V175.131H49.4303V174.951H50.2813L50.2212 175.131H49.9509V176.013H49.7406ZM50.3514 176.013V174.951H51.0422L50.9821 175.131H50.5616V175.362H50.7318C50.872 175.362 50.9421 175.392 50.9922 175.442C51.0322 175.472 51.1023 175.542 51.1023 175.692C51.1023 175.832 51.0322 175.912 50.9721 175.952C50.9121 176.003 50.842 176.013 50.6918 176.013H50.3514ZM50.5616 175.832H50.7218C50.7819 175.832 50.8219 175.822 50.852 175.792C50.862 175.772 50.882 175.742 50.882 175.682C50.882 175.632 50.862 175.592 50.8219 175.562C50.8019 175.552 50.7719 175.542 50.7218 175.542H50.5616V175.832ZM48.4891 174.681H47.598L47.5379 174.861H48.429L48.4891 174.681ZM48.399 174.951H47.4979L47.4378 175.121H48.3289L48.399 174.951ZM48.2989 175.212H47.4078L47.3377 175.392H48.2388L48.2989 175.212ZM49.5504 184.463C49.0998 183.422 48.429 182.48 47.588 181.699C46.6569 180.838 45.5355 180.198 44.324 179.847L44.8146 177.835C47.3377 178.085 49.8107 178.686 52.1636 179.607C51.7431 181.469 50.8219 183.131 49.5504 184.463ZM39.1077 187.306L39.8185 184.803C41.3604 185.524 42.9924 186.015 44.6745 186.285L44.9948 187.276L39.1077 187.306ZM44.8246 187.326C44.6344 187.376 44.4442 187.426 44.2439 187.466L44.8246 187.326ZM44.0237 187.517C43.3629 187.647 42.682 187.717 42.0012 187.717C41.4605 187.717 40.9399 187.677 40.4293 187.597L44.0237 187.517ZM40.3992 187.587C40.239 187.567 40.0889 187.537 39.9387 187.507H39.9287H39.9187H39.9086V187.497H39.8986H39.8886H39.8786H39.8686H39.8586V187.487H39.8486H39.8386C39.5983 187.436 39.348 187.376 39.1077 187.306L40.3992 187.587ZM31.8288 179.607C34.0615 178.726 36.4044 178.145 38.8073 177.875L39.368 179.937C37.1553 180.688 35.3631 182.33 34.442 184.463C33.3306 183.301 32.4796 181.87 32.009 180.288L31.8288 179.607ZM31.9289 180.027L31.9089 179.927V179.937V179.927L31.9289 180.027ZM31.8288 179.617V179.607V179.617ZM34.2117 170.346C35.0227 171.807 36.2442 173.019 37.706 173.83L38.6071 177.124C36.2242 177.404 33.9013 177.985 31.6786 178.846C31.6085 178.335 31.5685 177.815 31.5685 177.284C31.5685 174.621 32.5697 172.188 34.2117 170.346ZM42.1314 166.851L36.8449 170.666L37.4156 172.759C36.3043 171.998 35.3831 170.966 34.7724 169.765C36.0039 168.573 37.5257 167.692 39.2278 167.222H39.2378H39.2478V167.212H39.2579H39.2679H39.2779H39.2879V167.202H39.2979H39.3079H39.3179L39.3279 167.192H39.338H39.348H39.358V167.182H39.368H39.378H39.388H39.398V167.172H39.408H39.418H39.4281H39.4381V167.162C40.2591 166.951 41.1101 166.851 42.0012 166.851C42.0412 166.851 42.0913 166.851 42.1314 166.851ZM43.9035 166.621C43.9636 166.641 44.0337 166.701 44.0737 166.781L45.4053 169.635C42.8522 171.237 40.6796 173.409 39.0776 175.952L37.716 170.976L43.6532 166.691C43.7233 166.651 43.8134 166.601 43.9035 166.621ZM45.1751 167.342L45.2051 167.352L45.1751 167.342ZM45.3252 167.392C46.5868 167.823 47.7682 168.493 48.7895 169.364L45.3252 167.392ZM48.9296 169.485L49.0598 169.605L48.9296 169.485ZM49.19 169.735L49.23 169.765C48.5792 171.006 47.618 172.078 46.4466 172.849L46.9072 171.066L45.1751 167.342L49.19 169.735ZM42.2615 177.114L39.8786 178.926L39.348 176.964C40.9099 174.28 43.1025 171.998 45.7257 170.336L46.1062 171.137L44.5543 177.114H42.2615ZM43.1526 181.429L40.7196 181.019L40.3792 179.497L42.5118 177.875H44.0136L43.1526 181.429ZM43.9235 181.479L44.1438 180.588C46.3265 181.239 48.1287 182.911 48.9597 185.044C48.0185 185.885 46.9272 186.565 45.7157 187.026L43.9235 181.479ZM40.6696 181.79L43.3629 182.24L44.4141 185.464C42.8923 185.194 41.4205 184.723 40.0288 184.062L40.6696 181.79ZM39.8386 180.588L40.0088 181.339L38.3868 187.066C37.1353 186.605 36.0039 185.915 35.0327 185.044C35.8637 182.891 37.6259 181.259 39.8386 180.588ZM52.4239 177.284C52.4239 177.434 52.4239 177.584 52.4139 177.745L52.4239 177.284ZM52.4139 177.755L52.4039 177.985V177.945V177.985L52.4139 177.755ZM52.4039 178.005L52.3939 178.145L52.4039 178.005ZM52.3839 178.235L52.3738 178.345L52.3839 178.235ZM52.3738 178.355C52.3538 178.526 52.3338 178.686 52.3138 178.846C50.071 177.975 47.7282 177.394 45.3353 177.124L46.1763 173.89C47.6981 173.079 48.9497 171.837 49.7807 170.336C49.9008 170.476 50.021 170.616 50.1411 170.756C51.6329 172.628 52.4239 174.881 52.4239 177.284L52.3738 178.355ZM50.7318 170.286C49.21 168.383 47.0974 167.022 44.7445 166.431C44.6044 166.15 44.3641 165.95 44.0837 165.88C43.8034 165.81 43.493 165.88 43.2227 166.06L43.1126 166.14C42.7421 166.1 42.3716 166.09 42.0012 166.09C35.8237 166.09 30.7975 171.107 30.7975 177.284C30.7975 183.452 35.8237 188.478 42.0012 188.478C48.1687 188.478 53.1948 183.452 53.1948 177.284C53.1948 174.741 52.3238 172.258 50.7318 170.286ZM53.6254 204.167C56.0183 203.776 58.3411 203.246 60.4737 202.525C62.2659 201.924 67.0517 200.082 66.8515 197.559L66.8415 197.509L66.7814 196.177L66.8515 196.067C66.8315 195.987 66.8215 195.917 66.8014 195.847L66.7614 195.626L66.6813 193.914C66.5211 190.46 66.3008 187.376 65.8302 183.952C65.5299 181.8 65.3296 179.627 64.9692 177.484C64.6588 175.602 64.1282 173.62 63.6476 171.777C63.147 169.785 62.6163 167.792 62.0556 165.82C60.9943 162.096 59.7128 158.531 58.4112 154.887C58.0908 153.976 57.7304 153.095 57.41 152.183C57.0195 151.092 56.5589 150.191 56.2886 149.03L55.9882 147.768L56.1885 147.468H42.2916L42.4618 147.938C43.8935 151.943 45.3052 155.888 46.5467 159.933C54.2461 161.945 59.9331 168.944 59.9331 177.284C59.9331 183.091 57.1597 188.267 52.8644 191.541C53.2549 195.757 53.4351 199.972 53.6254 204.167ZM16.8606 197.559L16.9206 197.669L16.8706 198.76C17.261 201.504 22.5575 203.496 24.6901 204.177C30.5572 206.059 37.5358 206.74 43.7533 206.8C43.463 206.8 43.1826 206.8 42.9023 206.8C36.2942 206.79 28.7551 206.109 22.4474 204.087C20.2447 203.376 14.768 201.313 14.3675 198.48L14.4076 197.349L14.3475 197.228C14.3675 197.158 14.3775 197.078 14.3975 196.998L14.4376 196.768L14.5277 194.936C14.6979 191.261 14.9282 187.967 15.4288 184.303C15.7492 182.02 15.9695 179.697 16.3499 177.424C16.6803 175.412 17.251 173.299 17.7516 171.317C18.3023 169.204 18.863 167.082 19.4637 164.979C20.5951 161.004 21.9668 157.19 23.3485 153.305C23.6889 152.344 24.0794 151.393 24.4198 150.431C24.8403 149.26 25.3209 148.299 25.6112 147.057L25.9316 145.706L25.7113 145.385H58.281L58.0608 145.706L58.3712 147.057C58.6615 148.299 59.1621 149.26 59.5726 150.431C59.913 151.393 60.3035 152.344 60.6439 153.305C62.0256 157.19 63.3973 161.004 64.5287 164.979C65.1294 167.082 65.6901 169.204 66.2307 171.317C66.7414 173.299 67.302 175.412 67.6425 177.414C68.0229 179.697 68.2432 182.02 68.5536 184.313C69.0642 187.967 69.2945 191.261 69.4647 194.936L69.5448 196.768L69.5948 196.998C69.6149 197.078 69.6249 197.158 69.6449 197.228L69.5748 197.359L69.6449 198.77V198.83C69.8551 201.514 64.7589 203.486 62.8466 204.127C58.1609 205.709 52.6141 206.44 47.3978 206.69C41.6808 206.37 35.7436 205.529 30.5572 203.856C28.1143 203.076 22.0669 200.803 21.6163 197.659L21.6664 196.417L21.5963 196.287C21.6163 196.197 21.6364 196.117 21.6564 196.027L21.7065 195.767L21.7966 193.754C21.9868 189.689 22.2371 186.055 22.7978 182C23.1482 179.477 23.3885 176.914 23.809 174.391C24.1795 172.178 24.8102 169.835 25.3709 167.652C25.9616 165.309 26.5924 162.967 27.2532 160.644C28.5047 156.248 30.0166 152.043 31.5384 147.748L31.6486 147.468H27.8439L28.0442 147.768L27.7438 149.07C27.4635 150.271 26.9929 151.202 26.5924 152.334C26.262 153.265 25.8815 154.176 25.5511 155.107C24.2195 158.862 22.8879 162.546 21.7966 166.391C21.2159 168.423 20.6752 170.466 20.1546 172.518C19.664 174.431 19.1133 176.473 18.7929 178.415C18.4225 180.618 18.2122 182.851 17.9018 185.064C17.4212 188.608 17.191 191.782 17.0308 195.336L16.9507 197.108L16.9006 197.329C16.8906 197.409 16.8706 197.479 16.8606 197.559ZM11.2737 196.377C11.0735 197.369 10.9734 197.729 11.1936 198.119L11.1736 198.58C12.3651 213.739 74.0302 213.829 72.8188 198.58L72.7987 198.119C73.019 197.729 72.9189 197.379 72.7186 196.377L72.6486 194.795C72.4183 190.4 72.3682 188.598 71.7074 183.872C71.387 181.489 71.1567 179.126 70.7863 176.894C70.3257 174.11 68.4134 166.971 67.5924 164.098C66.3008 159.562 65.1594 156.489 63.6476 152.234C63.2771 151.192 62.9467 150.411 62.5763 149.36C62.1858 148.279 61.7353 147.438 61.4749 146.336C62.2659 145.155 62.8566 145.956 62.8566 143.923C62.8566 143.032 62.316 142.231 61.1345 142.201H22.8579C21.6764 142.231 21.1458 143.032 21.1458 143.923C21.1458 145.956 21.7265 145.155 22.5174 146.336C22.2571 147.448 21.8066 148.279 21.4161 149.36C21.0457 150.401 20.7153 151.192 20.3448 152.234C18.833 156.489 17.6916 159.562 16.4 164.098C15.579 166.971 13.6767 174.11 13.2061 176.894C12.8356 179.126 12.6054 181.489 12.275 183.872C11.6242 188.598 11.5741 190.4 11.3438 194.795L11.2737 196.377ZM8.97094 76.0106C10.5429 81.7777 13.2261 90.0277 15.1485 95.7847L18.5326 105.457C19.4537 107.93 21.0156 112.305 22.167 114.708C21.4962 115.068 20.7953 115.208 20.7953 116.26C20.7953 117.421 21.0156 118.142 22.5174 118.492H61.4749C62.9768 118.142 63.197 117.421 63.197 116.26C63.197 115.208 62.4962 115.068 61.8254 114.708C62.9768 112.305 64.5387 107.92 65.4598 105.457L68.8439 95.7847C70.7663 90.0277 73.4495 81.7777 75.0214 76.0106C77.4244 67.1598 83.9924 35.9918 83.9924 31.186C83.9924 26.9408 81.8398 21.8646 79.1565 18.4905C77.2442 16.0876 76.2229 14.9963 73.6798 13.3142C46.1563 -4.96808 36.2442 -3.89678 10.3126 13.3042C7.76947 14.9963 6.74823 16.0976 4.83589 18.4905C2.14261 21.8646 0 26.9408 0 31.186C0 40.1269 6.81831 68.111 8.97094 76.0106ZM25.9917 115.309H58.0007L58.9519 113.326C60.3035 110.503 61.3748 107.289 62.4661 104.375L65.8302 94.7535C67.9729 88.3156 70.1555 81.7376 71.9477 75.1696C72.8388 71.9056 73.5897 68.5515 74.3306 65.2475C75.1716 61.4829 75.9926 57.7183 76.7736 53.9437C70.4158 34.2397 60.724 17.4492 47.5179 3.84265C45.4754 3.39211 43.443 3.16183 41.4405 3.18185C39.8285 3.21189 38.1966 3.41213 36.5546 3.75255C23.1783 17.4492 13.3963 34.3799 6.99853 54.2641C8.52039 61.2326 10.1724 68.2912 12.0447 75.1696C13.8369 81.7376 16.0195 88.3156 18.1621 94.7535L21.5262 104.375C22.6176 107.289 23.6889 110.503 25.0405 113.326L25.9917 115.309ZM79.2166 41.6087C79.4168 40.5474 79.607 39.4861 79.7873 38.4248C80.0676 36.8529 80.3279 35.271 80.5482 33.689C80.6583 32.9181 80.8085 31.9669 80.8085 31.186C80.8085 27.6317 78.8661 23.2263 76.6634 20.4729C75.0515 18.4505 74.0903 17.4092 71.9177 15.9674C67.252 12.8737 61.6852 9.25926 55.8581 6.6661C66.5611 15.647 74.4007 27.2512 79.2166 41.6087ZM28.2745 6.52593C22.4073 9.1291 16.7905 12.8336 12.0747 15.9574C9.90207 17.3992 8.9409 18.4505 7.32893 20.4729C5.12625 23.2263 3.18388 27.6317 3.18388 31.186C3.18388 34.0795 3.76459 37.4636 4.24517 40.3171C4.33528 40.8778 4.42539 41.4285 4.52552 41.9791C9.37142 27.3713 17.3511 15.607 28.2745 6.52593ZM36.2542 19.9223C34.9726 19.7921 33.641 20.0825 32.2593 20.7933C32.4696 19.3015 33.3306 18.2202 34.8224 17.5394C36.4244 17.289 37.9863 17.9198 39.4881 19.4216C40.0588 19.8221 40.4493 20.3027 40.6696 20.8734C40.3492 21.2739 39.9988 21.5342 39.6483 21.6343C38.6972 20.8734 37.5658 20.3027 36.2542 19.9223ZM42.0813 19.3816C41.6307 19.7621 41.4005 19.9623 41.4005 19.9623C40.5995 19.0212 39.2779 17.8998 37.4356 16.5982C38.9775 16.3779 40.6095 16.9586 42.3416 18.3604C42.4417 18.7809 42.3616 19.1213 42.0813 19.3816ZM31.8188 22.0749C31.7287 23.0461 32.0491 24.0573 32.7599 25.1086C34.9025 24.5579 36.7748 23.6468 38.3868 22.3552C38.3067 21.9447 37.8161 21.7445 36.905 21.7445C35.5233 21.4741 33.8312 21.5843 31.8188 22.0749ZM43.1526 19.702C43.6332 20.9235 43.6933 21.9247 43.3428 22.6956C43.1226 21.8947 42.7721 21.2138 42.2815 20.6632C42.692 20.2727 42.9824 19.9523 43.1526 19.702ZM41.841 25.7694C41.3504 26.5003 40.8198 26.8707 40.239 26.8807C40.3992 25.6392 40.4793 24.2776 40.4593 22.8058C40.9299 22.5154 41.2303 22.2951 41.3604 22.135C42.0012 23.1562 42.1514 24.3677 41.841 25.7694ZM38.3167 27.5516C35.9138 27.3413 34.5721 26.8107 34.3118 25.9396C36.4044 25.1486 37.9863 24.4277 39.0776 23.777C39.3279 23.837 39.4481 24.1574 39.4381 24.7281C39.2178 26.6505 38.8474 27.5916 38.3167 27.5516ZM43.9836 30.5853C43.5731 29.6942 43.2527 29.0834 43.0325 28.733C42.8622 28.1523 43.0425 27.9621 43.5831 28.1623C43.8434 28.3525 44.0537 28.6329 44.2039 29.0033C44.4642 29.7242 44.7546 29.8544 45.085 29.3938C45.4955 28.2724 45.4053 27.2712 44.8046 26.3801C44.6544 25.9796 44.4542 25.5892 44.2039 25.1887C44.0537 24.7081 44.1238 24.4978 44.4242 24.5579C44.5543 24.1074 44.8046 24.0473 45.1751 24.3777C45.4754 24.8282 45.6957 25.4089 45.8559 26.1298C45.916 25.5691 45.926 25.0385 45.906 24.5379C46.1462 24.2275 46.3465 24.2676 46.4967 24.6781C46.6268 25.449 46.6769 26.25 46.6268 27.081C46.9272 27.131 47.0974 27.0009 47.1475 26.7005C47.0273 25.459 47.1775 24.8683 47.598 24.9183C47.7883 24.9284 47.8784 25.1386 47.8583 25.5691C47.8884 26.9408 47.9585 27.922 48.0786 28.5127C48.0085 30.8556 48.429 32.3474 49.3401 32.9982C50.041 33.639 50.6517 34.1396 51.1824 34.5C51.3125 35.0006 51.1423 35.1708 50.6818 35.0106C49.4803 34.2998 48.3189 33.679 47.1975 33.1484C45.5956 32.3074 44.5243 31.4463 43.9836 30.5853ZM36.925 32.4776C36.8649 36.152 36.5646 38.6951 36.0339 40.1069C35.8837 41.008 35.9839 41.5086 36.3243 41.6287C36.6947 41.7288 36.955 41.3684 37.1253 40.5574C37.4957 39.0155 37.7861 36.3823 37.9663 32.6678C38.1665 31.4463 38.6972 30.5152 39.5582 29.8544C41.1401 28.9933 41.9511 28.3025 41.9812 27.7618C41.7609 27.4014 41.3804 27.4414 40.8198 27.912C39.9787 28.2824 39.2178 28.5127 38.547 28.5928C38.3768 28.6028 37.9262 28.8632 37.1653 29.3838C35.7536 29.3638 34.6723 28.773 33.9113 27.6216C32.9402 26.6605 32.5196 26.6605 32.6598 27.6116C33.1304 29.524 34.4019 30.5552 36.4644 30.7254C36.7348 30.9557 36.895 31.5364 36.925 32.4776ZM35.5834 35.8216C35.7536 35.1308 35.7235 34.3799 35.5033 33.5789C34.9326 35.1809 34.2317 36.6627 33.4107 38.0243C32.1192 41.3584 32.1592 43.491 33.5209 44.4021C34.0315 44.5523 34.5121 44.5723 34.9526 44.4622C35.0427 43.8614 34.8525 43.3909 34.3719 43.0705C34.3218 41.1782 34.7223 38.7652 35.5834 35.8216ZM37.1653 45.8439C36.8449 44.9127 36.5145 44.1318 36.1841 43.511C36.3743 43.0104 36.5846 42.7 36.8149 42.5899C37.1453 42.5598 37.4056 42.7601 37.5958 43.2106C38.1765 44.8927 38.6972 46.2343 39.1778 47.2255C39.398 48.0866 39.2679 48.5171 38.7773 48.5271C38.2666 48.6573 37.736 47.7662 37.1653 45.8439ZM47.9585 45.183C48.7194 43.9115 49.22 42.3896 49.4403 40.6175C49.7807 40.0368 50.1211 39.9767 50.4415 40.4473C50.1712 42.1694 50.041 43.9415 50.031 45.7738C50.061 47.1955 49.8007 48.0065 49.24 48.2167C48.5492 48.2868 48.2288 47.7562 48.2588 46.6148C47.8683 47.2556 47.5279 47.8763 47.2476 48.467C46.6068 48.407 46.3665 47.8463 46.5367 46.795C46.8171 46.1342 47.2977 45.5935 47.9585 45.183ZM39.348 53.333C39.4981 54.4143 38.9775 55.3254 37.776 56.0563C36.4544 54.8048 35.6535 53.1728 35.3731 51.1603C34.7824 49.8888 34.1817 48.7874 33.5609 47.8263C33.1905 46.6749 33.0903 45.8338 33.2806 45.3132C33.5509 45.153 33.9013 45.2732 34.3218 45.6837C34.6322 46.1042 34.8725 46.6048 35.0327 47.1655C36.0539 48.5672 36.885 49.5784 37.5358 50.1791C37.5257 50.9701 37.5157 51.3606 37.5157 51.3606C37.9362 51.9413 38.547 52.6021 39.348 53.333ZM46.0061 76.6714C45.1851 80.3559 44.6044 83.2895 44.264 85.4722C42.7621 88.1354 41.3905 89.8275 40.169 90.5684C39.9887 89.8074 40.209 88.9564 40.8298 88.0253C41.5406 87.1242 42.1314 85.7825 42.6119 84.0104C43.0325 81.9679 43.503 79.3447 44.0036 76.1608C43.9235 75.7503 43.3528 75.5501 42.2916 75.5701C40.8198 75.3198 39.1577 75.54 37.3055 76.2309C37.3655 74.8692 37.5257 73.7679 37.776 72.9169C39.8986 72.1059 42.1213 72.5864 44.4542 74.3786C44.4742 73.3073 43.6933 72.5164 42.1314 71.9957C40.6295 72.0558 39.398 71.7354 38.4168 71.0546C38.2366 70.5339 38.3467 69.8531 38.7572 68.9921C39.8686 68.902 41.2603 69.3926 42.9423 70.4639C43.2127 70.2336 43.2127 69.8832 42.9423 69.3926C41.801 68.9921 40.7196 68.4414 39.7084 67.7506C39.2078 67.28 39.2478 67.0297 39.8386 67.0097C40.99 67.2399 41.7809 67.33 42.2014 67.27C40.5895 66.5791 39.5282 65.5979 39.0176 64.3264C41.9111 65.5379 43.7934 66.0385 44.6845 65.8382C44.6444 65.1073 42.9724 63.8358 39.6784 62.0035C39.2979 61.7833 39.0176 61.5029 38.8474 61.1525C41.6307 62.4941 43.6632 63.2551 44.9348 63.4553C45.095 62.334 43.5831 61.0624 40.3892 59.6507C39.5382 59.3003 38.9275 58.9298 38.527 58.5293C37.9663 58.2089 37.9763 57.8485 38.547 57.448C40.4693 55.8661 41.04 53.0526 40.2591 49.0077C40.9599 48.8075 41.3104 48.7174 41.3104 48.7174C42.1414 49.5884 42.9123 50.8299 43.6232 52.4219C45.155 52.2817 45.926 52.2116 45.926 52.2116C45.936 51.0101 45.8158 49.8788 45.5856 48.8075C45.7357 48.4871 45.926 48.467 46.1462 48.7574C47.2977 50.1291 48.1988 52.0514 48.8395 54.5445C49.2901 53.6634 49.4703 52.9025 49.3902 52.2517C49.0798 51.2304 49.0698 50.5796 49.3702 50.2993C49.7707 49.7386 50.2513 48.9677 50.8119 47.9965C52.0134 45.3132 52.6642 42.7501 52.7643 40.3171C52.6141 39.8465 52.3038 39.4861 51.8232 39.2458C50.041 38.1345 48.8495 37.1432 48.2588 36.2522C50.1111 37.4036 51.683 38.1144 52.9445 38.3747C53.8356 38.9755 54.176 39.8866 53.9558 41.1081C53.6053 44.7625 52.8144 47.4358 51.5829 49.1379C51.0222 50.1491 50.7018 51.0602 50.6217 51.8912C50.2012 53.8036 49.7406 55.2553 49.26 56.2766C49.3101 62.8646 49.3301 66.1486 49.3301 66.1486C48.3389 67.2499 46.8771 67.6805 44.9248 67.4502C46.0762 67.9408 47.4779 68.141 49.1399 68.0709C49.7907 71.1147 50.071 73.9882 49.9809 76.7015C49.5304 76.9317 49.3401 77.0419 49.4202 77.0219C48.3389 82.3383 47.578 85.4722 47.1475 86.4233C46.6769 87.004 46.1863 87.3244 45.6757 87.4045C46.9272 83.7901 47.7282 80.0155 48.0786 76.1007C47.2476 76.1308 46.5567 76.321 46.0061 76.6714ZM38.7873 76.7415C39.6183 76.4011 40.0989 76.3811 40.229 76.6714C40.3492 82.1381 40.2991 85.6824 40.0889 87.3244C39.2879 88.1154 38.8974 88.5059 38.8974 88.5059C38.4869 88.3757 38.2967 88.0253 38.3267 87.4646C38.0664 81.0768 37.9362 77.8829 37.9362 77.8829C37.7961 77.2621 38.0764 76.8817 38.7873 76.7415ZM41.5306 95.4643C41.5907 94.1027 42.7721 92.0201 45.0749 89.2067C45.7458 88.666 46.0862 88.656 46.1062 89.1566C43.493 97.5969 42.1914 101.822 42.1914 101.822C41.9211 102.623 41.5506 102.783 41.0701 102.303C40.5494 101.962 40.4293 101.271 40.7196 100.22C41.2603 97.0463 41.5306 95.4643 41.5306 95.4643ZM37.0151 93.3417C37.0752 92.5408 37.8461 91.5295 39.3179 90.278C39.4281 96.3154 39.1177 100.29 38.3968 102.193C37.9663 102.062 37.6359 101.692 37.3856 101.091C36.935 96.9361 36.8149 94.353 37.0151 93.3417ZM34.8725 103.604C34.6823 103.084 35.3631 102.703 36.925 102.473C37.1853 104.285 37.1853 105.947 36.925 107.469C36.3243 106.548 35.6434 105.256 34.8725 103.604ZM42.662 103.915C42.2916 105.567 41.7709 106.868 41.1001 107.819C40.0388 106.948 39.7184 105.276 40.1189 102.783C41.811 103.534 42.662 103.915 42.662 103.915ZM38.7773 104.866C37.9963 104.265 37.6359 104.235 37.706 104.756C37.706 107.779 37.706 109.301 37.706 109.301C38.6571 110.933 39.6083 112.115 40.5494 112.856C40.9399 111.944 41.1602 111.153 41.2102 110.483C40.239 108.851 39.4381 106.978 38.7773 104.866Z" fill="white"/>
</g>
<defs>
<clipPath id="clip0_317_849">
<rect width="84" height="210" fill="white"/>
</clipPath>
</defs>
</svg>
