<svg width="800" height="380" viewBox="0 0 800 380" fill="none" xmlns="http://www.w3.org/2000/svg">
<path d="M175.042 315.556L487.521 178.722L800 41.8868H543.029L505.239 91.0928L518.001 41.639H489.875C464.476 100.265 449.979 125.673 447.129 117.865C445.395 113.031 466.086 42.1347 466.086 42.1347H438.456L430.031 72.2532L388.152 126.789L412.809 42.7544H382.701L369.815 92.2083L343.176 98.6534L359.036 42.2587H325.458L307.617 109.065C303.528 113.775 285.562 134.226 257.189 171.285C224.603 213.798 231.541 144.637 231.541 144.637C289.899 128.772 334.999 40.0277 278.995 39.7798C215.434 39.5319 194.99 137.696 194.99 137.696L166.369 151.578C165.378 135.713 149.519 117.989 149.519 117.989C190.034 99.1492 241.453 20.0726 193.008 3.34009C144.563 -13.5164 95.1261 38.9122 95.1261 38.9122L84.2227 78.4505C112.844 50.8108 140.598 24.0388 158.316 47.8362C176.157 71.5096 105.905 129.887 105.905 129.887C129.571 148.727 127.712 173.392 127.712 173.392C-69.043 295.353 -3.7471 447.929 93.0197 347.286C180.494 256.311 170.086 171.285 170.086 171.285L192.76 161.369C196.725 300.807 299.563 138.687 299.563 138.687L299.687 138.44L284.199 196.817L319.016 184.175L334.627 122.575L361.266 115.882L346.274 173.764L377.992 163.724L419.128 110.304C419.128 110.304 412.065 146.124 433.252 147.24C454.44 148.355 475.503 96.1745 475.503 96.1745L471.538 133.73L497.185 122.823L541.666 66.4279H557.525L544.64 106.958L573.261 97.0421L584.164 66.4279H677.09L186.937 273.043L175.042 315.556ZM268.464 63.7011C288.04 68.411 254.339 117.121 234.887 121.335C234.887 121.335 246.409 58.3714 268.464 63.7011ZM81.7447 328.447C61.9205 356.086 35.034 350.757 44.2027 311.094C60.5576 240.942 127.216 197.437 127.216 197.437C127.216 197.437 120.154 274.531 81.7447 328.447Z" fill="white"/>
</svg>
