<svg width="300" height="142" viewBox="0 0 300 142" fill="none" xmlns="http://www.w3.org/2000/svg">
<path d="M65.6409 117.744L300 15.6293H203.636L189.465 33.9895L194.25 15.5368H183.703C174.178 37.4118 168.742 46.8925 167.674 43.979C167.023 42.1753 174.782 15.7217 174.782 15.7217H164.421L161.262 26.9599L145.557 47.3088L154.803 15.953H143.513L138.681 34.4057L128.691 36.8106L134.638 15.768H122.047L115.356 40.6954C113.823 42.4528 107.086 50.0836 96.4458 63.9116C84.226 79.7745 86.828 53.9684 86.828 53.9684C108.712 48.0487 125.625 14.9355 104.623 14.8431C80.7878 14.7506 73.1214 51.3786 73.1214 51.3786L62.3885 56.5583C62.0168 50.6386 56.0695 44.0252 56.0695 44.0252C71.2629 36.9956 90.545 7.4897 72.378 1.24629C54.211 -5.04337 35.6723 14.5193 35.6723 14.5193L31.5835 29.2723C42.3165 18.9591 52.7242 8.96962 59.3684 17.8491C66.059 26.6824 39.7145 48.465 39.7145 48.465C48.589 55.4946 47.892 64.6978 47.892 64.6978C-25.8911 110.205 -1.40516 167.136 34.8824 129.583C67.6852 95.6374 63.7824 63.9116 63.7824 63.9116L72.2851 60.2118C73.7719 112.24 112.336 51.7485 112.336 51.7485L112.383 51.656L106.575 73.4386L119.631 68.7214L125.485 45.7364L135.475 43.239L129.853 64.8366L141.747 61.0905L157.173 41.1579C157.173 41.1579 154.524 54.5234 162.47 54.9396C170.415 55.3558 178.314 35.8856 178.314 35.8856L176.827 49.8986L186.445 45.8289L203.125 24.7863H209.072L204.24 39.9092L214.973 36.2094L219.062 24.7863H253.909L70.1013 101.881L65.6409 117.744ZM100.674 23.7688C108.015 25.5262 95.3772 43.7015 88.0825 45.2739C88.0825 45.2739 92.4035 21.7802 100.674 23.7688ZM30.6543 122.553C23.2202 132.867 13.1377 130.878 16.576 116.079C22.7091 89.9027 47.7062 73.6698 47.7062 73.6698C47.7062 73.6698 45.0578 102.436 30.6543 122.553Z" fill="white"/>
<path d="M54.7716 127.2V129.554H48.1752V141.79H45.1641V127.2H54.7716ZM47.1379 132.521H50.562C51.7168 132.521 52.7104 132.711 53.543 133.092C54.3755 133.472 55.0167 134.007 55.4665 134.695C55.9163 135.383 56.1412 136.185 56.1412 137.1C56.1412 137.795 56.0137 138.429 55.7585 139.004C55.5034 139.572 55.1308 140.066 54.6407 140.487C54.1573 140.901 53.5732 141.222 52.8884 141.449C52.2036 141.676 51.4281 141.79 50.562 141.79H45.1641V127.2H48.1954V139.445H50.562C51.1394 139.445 51.6161 139.338 51.9921 139.124C52.368 138.91 52.65 138.626 52.838 138.272C53.0327 137.912 53.1301 137.514 53.1301 137.08C53.1301 136.666 53.0327 136.292 52.838 135.958C52.65 135.617 52.368 135.35 51.9921 135.156C51.6161 134.962 51.1394 134.865 50.562 134.865H47.1379V132.521Z" fill="white"/>
<path d="M65.1083 129.695L61.1202 141.79H57.9077L63.356 127.2H65.4003L65.1083 129.695ZM68.4216 141.79L64.4235 129.695L64.1012 127.2H66.1657L71.6442 141.79H68.4216ZM68.2403 136.358V138.713H60.4958V136.358H68.2403Z" fill="white"/>
<path d="M82.3535 136.95H85.3647C85.3043 137.932 85.0323 138.803 84.549 139.565C84.0723 140.327 83.4042 140.921 82.5449 141.349C81.6922 141.776 80.665 141.99 79.4632 141.99C78.5233 141.99 77.6807 141.83 76.9354 141.509C76.1902 141.182 75.5524 140.714 75.022 140.106C74.4983 139.498 74.0988 138.763 73.8235 137.902C73.5483 137.04 73.4106 136.074 73.4106 135.006V133.994C73.4106 132.925 73.5516 131.959 73.8336 131.098C74.1223 130.229 74.5319 129.491 75.0623 128.883C75.5994 128.275 76.2405 127.808 76.9858 127.48C77.731 127.153 78.5635 126.989 79.4833 126.989C80.7053 126.989 81.7358 127.21 82.5751 127.651C83.421 128.091 84.0756 128.699 84.5389 129.474C85.0089 130.249 85.2908 131.131 85.3848 132.12H82.3636C82.33 131.532 82.2125 131.034 82.0111 130.627C81.8097 130.212 81.5042 129.902 81.0947 129.695C80.6918 129.481 80.1547 129.374 79.4833 129.374C78.9798 129.374 78.54 129.468 78.1641 129.655C77.7881 129.842 77.4725 130.126 77.2174 130.506C76.9623 130.887 76.7709 131.368 76.6434 131.949C76.5225 132.524 76.4621 133.199 76.4621 133.974V135.006C76.4621 135.761 76.5192 136.425 76.6333 137C76.7474 137.568 76.922 138.049 77.157 138.443C77.3987 138.83 77.7075 139.124 78.0835 139.325C78.4662 139.518 78.9261 139.615 79.4632 139.615C80.0943 139.615 80.6146 139.515 81.0242 139.314C81.4337 139.114 81.7459 138.817 81.9608 138.423C82.1823 138.029 82.3132 137.537 82.3535 136.95Z" fill="white"/>
<path d="M91.4112 127.2V141.79H88.39V127.2H91.4112ZM100.052 127.2L94.4324 135.767H90.7365L90.3538 133.092H92.8211L96.3862 127.2H100.052ZM96.9401 141.79L92.8312 135.266L94.9259 133.122L100.525 141.79H96.9401Z" fill="white"/>
<path d="M112.584 139.445V141.79H104.779V139.445H112.584ZM105.766 127.2V141.79H102.745V127.2H105.766ZM111.567 133.142V135.426H104.779V133.142H111.567ZM112.574 127.2V129.554H104.779V127.2H112.574Z" fill="white"/>
<path d="M122.135 127.2V141.79H119.124V127.2H122.135ZM126.647 127.2V129.554H114.683V127.2H126.647Z" fill="white"/>
<path d="M138.988 127.2V129.554H132.391V141.79H129.38V127.2H138.988ZM131.354 132.521H134.778C135.933 132.521 136.927 132.711 137.759 133.092C138.592 133.472 139.233 134.007 139.683 134.695C140.132 135.383 140.357 136.185 140.357 137.1C140.357 137.795 140.23 138.429 139.975 139.004C139.719 139.572 139.347 140.066 138.857 140.487C138.373 140.901 137.789 141.222 137.104 141.449C136.42 141.676 135.644 141.79 134.778 141.79H129.38V127.2H132.411V139.445H134.778C135.355 139.445 135.832 139.338 136.208 139.124C136.584 138.91 136.866 138.626 137.054 138.272C137.249 137.912 137.346 137.514 137.346 137.08C137.346 136.666 137.249 136.292 137.054 135.958C136.866 135.617 136.584 135.35 136.208 135.156C135.832 134.962 135.355 134.865 134.778 134.865H131.354V132.521Z" fill="white"/>
<path d="M155.407 134.154V134.845C155.407 135.954 155.256 136.95 154.954 137.831C154.652 138.713 154.225 139.465 153.675 140.086C153.124 140.701 152.466 141.172 151.701 141.499C150.942 141.826 150.1 141.99 149.173 141.99C148.253 141.99 147.411 141.826 146.646 141.499C145.887 141.172 145.229 140.701 144.672 140.086C144.114 139.465 143.681 138.713 143.372 137.831C143.07 136.95 142.919 135.954 142.919 134.845V134.154C142.919 133.038 143.07 132.043 143.372 131.168C143.675 130.286 144.101 129.534 144.651 128.913C145.209 128.292 145.867 127.818 146.625 127.49C147.391 127.163 148.233 126.999 149.153 126.999C150.08 126.999 150.922 127.163 151.681 127.49C152.446 127.818 153.104 128.292 153.655 128.913C154.212 129.534 154.642 130.286 154.944 131.168C155.253 132.043 155.407 133.038 155.407 134.154ZM152.356 134.845V134.134C152.356 133.359 152.285 132.678 152.144 132.09C152.003 131.502 151.795 131.007 151.52 130.607C151.245 130.206 150.909 129.905 150.513 129.705C150.117 129.498 149.663 129.394 149.153 129.394C148.643 129.394 148.19 129.498 147.794 129.705C147.404 129.905 147.072 130.206 146.797 130.607C146.528 131.007 146.323 131.502 146.182 132.09C146.041 132.678 145.971 133.359 145.971 134.134V134.845C145.971 135.614 146.041 136.295 146.182 136.889C146.323 137.477 146.531 137.975 146.807 138.383C147.082 138.783 147.418 139.087 147.814 139.294C148.21 139.502 148.663 139.605 149.173 139.605C149.684 139.605 150.137 139.502 150.533 139.294C150.929 139.087 151.261 138.783 151.53 138.383C151.798 137.975 152.003 137.477 152.144 136.889C152.285 136.295 152.356 135.614 152.356 134.845Z" fill="white"/>
<path d="M168.07 127.2V129.554H160.779V127.2H168.07ZM170.225 127.2V141.79H167.204V127.2H170.225ZM160.396 127.2H163.407L163.035 134.525C162.981 135.62 162.877 136.572 162.723 137.381C162.575 138.189 162.373 138.877 162.118 139.445C161.863 140.006 161.548 140.46 161.172 140.808C160.802 141.148 160.366 141.399 159.862 141.559C159.359 141.713 158.785 141.79 158.14 141.79H157.395V139.445L157.778 139.415C158.107 139.381 158.395 139.294 158.644 139.154C158.892 139.014 159.104 138.803 159.278 138.523C159.46 138.242 159.607 137.885 159.721 137.451C159.842 137.01 159.936 136.472 160.003 135.837C160.077 135.203 160.128 134.461 160.154 133.613L160.396 127.2Z" fill="white"/>
<path d="M175.839 132.521H179.263C180.418 132.521 181.411 132.711 182.244 133.092C183.076 133.472 183.717 134.007 184.167 134.695C184.617 135.383 184.842 136.185 184.842 137.1C184.842 137.795 184.714 138.429 184.459 139.004C184.204 139.572 183.832 140.066 183.341 140.487C182.858 140.901 182.274 141.222 181.589 141.449C180.904 141.676 180.129 141.79 179.263 141.79H173.865V127.2H176.896V139.445H179.263C179.84 139.445 180.317 139.338 180.693 139.124C181.069 138.91 181.351 138.626 181.539 138.272C181.734 137.912 181.831 137.514 181.831 137.08C181.831 136.666 181.734 136.292 181.539 135.958C181.351 135.617 181.069 135.35 180.693 135.156C180.317 134.962 179.84 134.865 179.263 134.865H175.839V132.521Z" fill="white"/>
<path d="M197.586 133.142V135.487H189.932V133.142H197.586ZM190.828 127.2V141.79H187.807V127.2H190.828ZM199.741 127.2V141.79H196.73V127.2H199.741Z" fill="white"/>
<path d="M205.395 132.521H208.819C209.967 132.521 210.957 132.711 211.789 133.092C212.629 133.472 213.27 134.007 213.713 134.695C214.163 135.383 214.388 136.185 214.388 137.1C214.388 137.795 214.26 138.429 214.005 139.004C213.75 139.572 213.381 140.066 212.897 140.487C212.414 140.901 211.83 141.222 211.145 141.449C210.46 141.676 209.685 141.79 208.819 141.79H203.421V127.2H206.452V139.445H208.819C209.389 139.445 209.863 139.338 210.239 139.124C210.621 138.91 210.907 138.626 211.095 138.272C211.283 137.912 211.377 137.514 211.377 137.08C211.377 136.666 211.283 136.292 211.095 135.958C210.907 135.617 210.621 135.35 210.239 135.156C209.863 134.962 209.389 134.865 208.819 134.865H205.395V132.521ZM218.698 127.2V141.79H215.687V127.2H218.698Z" fill="white"/>
<path d="M225.268 137.06L231.16 127.2H234.181V141.79H231.16V131.929L225.268 141.79H222.247V127.2H225.268V137.06ZM229.679 123.372H231.744C231.744 123.946 231.599 124.457 231.311 124.905C231.029 125.346 230.626 125.693 230.102 125.947C229.579 126.194 228.961 126.318 228.249 126.318C227.168 126.318 226.312 126.044 225.681 125.496C225.057 124.948 224.745 124.24 224.745 123.372H226.799C226.799 123.719 226.906 124.03 227.121 124.304C227.343 124.578 227.719 124.714 228.249 124.714C228.773 124.714 229.142 124.578 229.357 124.304C229.572 124.03 229.679 123.719 229.679 123.372Z" fill="white"/>
<path d="M247.029 127.2V141.79H244.008V127.2H247.029ZM255.67 127.2L250.05 135.767H246.354L245.972 133.092H248.439L252.004 127.2H255.67ZM252.558 141.79L248.449 135.266L250.544 133.122L256.143 141.79H252.558Z" fill="white"/>
<path d="M268.142 127.2V129.554H260.85V127.2H268.142ZM270.297 127.2V141.79H267.276V127.2H270.297ZM260.468 127.2H263.479L263.106 134.525C263.053 135.62 262.948 136.572 262.794 137.381C262.646 138.189 262.445 138.877 262.19 139.445C261.935 140.006 261.619 140.46 261.243 140.808C260.874 141.148 260.438 141.399 259.934 141.559C259.43 141.713 258.856 141.79 258.212 141.79H257.467V139.445L257.849 139.415C258.178 139.381 258.467 139.294 258.715 139.154C258.964 139.014 259.175 138.803 259.35 138.523C259.531 138.242 259.679 137.885 259.793 137.451C259.914 137.01 260.008 136.472 260.075 135.837C260.149 135.203 260.199 134.461 260.226 133.613L260.468 127.2Z" fill="white"/>
<path d="M278.559 136.499L282.164 127.2H285.417L280.392 138.964C280.217 139.365 280.016 139.749 279.788 140.116C279.566 140.477 279.301 140.801 278.992 141.088C278.683 141.369 278.314 141.592 277.884 141.76C277.454 141.92 276.941 142 276.343 142C276.196 142 276.014 141.997 275.799 141.99C275.585 141.983 275.413 141.973 275.286 141.96L275.266 139.615C275.346 139.635 275.474 139.649 275.648 139.655C275.823 139.655 275.951 139.655 276.031 139.655C276.427 139.655 276.739 139.598 276.968 139.485C277.196 139.371 277.377 139.211 277.512 139.004C277.653 138.79 277.777 138.54 277.884 138.252L278.559 136.499ZM276.172 127.2L279.516 134.424L280.452 137.741L278.206 137.781L272.929 127.2H276.172Z" fill="white"/>
<path d="M297.607 127.2V129.554H291.01V141.79H287.999V127.2H297.607ZM289.973 132.521H293.397C294.552 132.521 295.546 132.711 296.378 133.092C297.211 133.472 297.852 134.007 298.302 134.695C298.752 135.383 298.976 136.185 298.976 137.1C298.976 137.795 298.849 138.429 298.594 139.004C298.339 139.572 297.966 140.066 297.476 140.487C296.992 140.901 296.408 141.222 295.724 141.449C295.039 141.676 294.263 141.79 293.397 141.79H287.999V127.2H291.031V139.445H293.397C293.975 139.445 294.451 139.338 294.827 139.124C295.203 138.91 295.485 138.626 295.673 138.272C295.868 137.912 295.965 137.514 295.965 137.08C295.965 136.666 295.868 136.292 295.673 135.958C295.485 135.617 295.203 135.35 294.827 135.156C294.451 134.962 293.975 134.865 293.397 134.865H289.973V132.521Z" fill="white"/>
</svg>
