<svg width="800" height="381" viewBox="0 0 800 381" fill="none" xmlns="http://www.w3.org/2000/svg">
<path d="M175.042 315.556L800 41.8868H543.029L505.239 91.0928L518.001 41.639H489.875C464.476 100.265 449.979 125.673 447.129 117.865C445.395 113.031 466.086 42.1347 466.086 42.1347H438.456L430.031 72.2532L388.152 126.789L412.809 42.7544H382.701L369.815 92.2083L343.176 98.6534L359.036 42.2587H325.458L307.617 109.065C303.528 113.775 285.562 134.226 257.189 171.285C224.603 213.798 231.541 144.637 231.541 144.637C289.899 128.772 334.999 40.0277 278.995 39.7798C215.434 39.5319 194.99 137.696 194.99 137.696L166.369 151.578C165.378 135.713 149.519 117.989 149.519 117.989C190.034 99.1492 241.453 20.0726 193.008 3.34009C144.563 -13.5164 95.1261 38.9122 95.1261 38.9122L84.2227 78.4505C112.844 50.8108 140.598 24.0388 158.316 47.8362C176.157 71.5096 105.905 129.887 105.905 129.887C129.571 148.727 127.712 173.392 127.712 173.392C-69.043 295.353 -3.74709 447.929 93.0197 347.286C180.494 256.311 170.086 171.285 170.086 171.285L192.76 161.369C196.725 300.807 299.563 138.688 299.563 138.688L299.687 138.44L284.199 196.817L319.016 184.175L334.627 122.575L361.266 115.882L346.274 173.764L377.992 163.724L419.128 110.304C419.128 110.304 412.065 146.124 433.252 147.24C454.44 148.355 475.503 96.1745 475.503 96.1745L471.538 133.73L497.185 122.823L541.666 66.4279H557.525L544.64 106.958L573.261 97.0421L584.164 66.4279H677.09L186.937 273.043L175.042 315.556ZM268.464 63.7011C288.04 68.411 254.339 117.121 234.887 121.335C234.887 121.335 246.409 58.3714 268.464 63.7011ZM81.7447 328.447C61.9205 356.086 35.034 350.757 44.2027 311.094C60.5576 240.942 127.216 197.437 127.216 197.437C127.216 197.437 120.154 274.531 81.7447 328.447Z" fill="#71A6DC"/>
<path d="M146.058 340.898V347.209H128.467V380H120.438V340.898H146.058ZM125.701 355.159H134.832C137.911 355.159 140.561 355.669 142.781 356.689C145.001 357.71 146.711 359.142 147.911 360.986C149.11 362.83 149.71 364.979 149.71 367.432C149.71 369.294 149.37 370.994 148.689 372.534C148.009 374.056 147.015 375.381 145.708 376.509C144.419 377.619 142.862 378.478 141.036 379.087C139.209 379.696 137.142 380 134.832 380H120.438V340.898H128.521V373.716H134.832C136.372 373.716 137.643 373.429 138.646 372.856C139.648 372.284 140.4 371.523 140.901 370.574C141.421 369.607 141.68 368.542 141.68 367.378C141.68 366.268 141.421 365.265 140.901 364.37C140.4 363.457 139.648 362.741 138.646 362.222C137.643 361.702 136.372 361.443 134.832 361.443H125.701V355.159Z" fill="#71A6DC"/>
<path d="M173.622 347.585L162.987 380H154.42L168.949 340.898H174.401L173.622 347.585ZM182.458 380L171.796 347.585L170.937 340.898H176.442L191.051 380H182.458ZM181.974 365.444V371.755H161.322V365.444H181.974Z" fill="#71A6DC"/>
<path d="M219.609 367.029H227.639C227.478 369.661 226.753 371.997 225.464 374.038C224.193 376.079 222.411 377.673 220.12 378.818C217.846 379.964 215.107 380.537 211.902 380.537C209.395 380.537 207.148 380.107 205.161 379.248C203.174 378.371 201.473 377.118 200.059 375.488C198.662 373.859 197.597 371.89 196.863 369.58C196.129 367.271 195.762 364.683 195.762 361.819V359.106C195.762 356.242 196.138 353.655 196.89 351.345C197.66 349.018 198.752 347.039 200.166 345.41C201.598 343.781 203.308 342.528 205.295 341.65C207.283 340.773 209.503 340.334 211.956 340.334C215.214 340.334 217.962 340.925 220.2 342.107C222.456 343.289 224.202 344.918 225.437 346.995C226.69 349.071 227.442 351.435 227.693 354.084H219.636C219.547 352.509 219.233 351.175 218.696 350.083C218.159 348.973 217.345 348.14 216.252 347.585C215.178 347.013 213.746 346.726 211.956 346.726C210.613 346.726 209.44 346.977 208.438 347.478C207.435 347.979 206.593 348.74 205.913 349.761C205.233 350.781 204.722 352.07 204.382 353.628C204.06 355.168 203.899 356.976 203.899 359.053V361.819C203.899 363.842 204.051 365.623 204.355 367.163C204.66 368.685 205.125 369.974 205.752 371.03C206.396 372.069 207.22 372.856 208.223 373.394C209.243 373.913 210.47 374.172 211.902 374.172C213.585 374.172 214.972 373.904 216.064 373.367C217.157 372.83 217.989 372.033 218.562 370.977C219.153 369.92 219.502 368.604 219.609 367.029Z" fill="#71A6DC"/>
<path d="M243.763 340.898V380H235.707V340.898H243.763ZM266.805 340.898L251.82 363.86H241.964L240.943 356.689H247.523L257.03 340.898H266.805ZM258.507 380L247.55 362.517L253.136 356.77L268.067 380H258.507Z" fill="#71A6DC"/>
<path d="M300.224 373.716V380H279.411V373.716H300.224ZM282.043 340.898V380H273.986V340.898H282.043ZM297.512 356.824V362.947H279.411V356.824H297.512ZM300.197 340.898V347.209H279.411V340.898H300.197Z" fill="#71A6DC"/>
<path d="M325.694 340.898V380H317.664V340.898H325.694ZM337.725 340.898V347.209H305.821V340.898H337.725Z" fill="#71A6DC"/>
<path d="M370.634 340.898V347.209H353.043V380H345.014V340.898H370.634ZM350.277 355.159H359.408C362.488 355.159 365.137 355.669 367.357 356.689C369.577 357.71 371.287 359.142 372.487 360.986C373.686 362.83 374.286 364.979 374.286 367.432C374.286 369.294 373.946 370.994 373.266 372.534C372.585 374.056 371.592 375.381 370.285 376.509C368.996 377.619 367.438 378.478 365.612 379.087C363.786 379.696 361.718 380 359.408 380H345.014V340.898H353.097V373.716H359.408C360.948 373.716 362.219 373.429 363.222 372.856C364.224 372.284 364.976 371.523 365.478 370.574C365.997 369.607 366.256 368.542 366.256 367.378C366.256 366.268 365.997 365.265 365.478 364.37C364.976 363.457 364.224 362.741 363.222 362.222C362.219 361.702 360.948 361.443 359.408 361.443H350.277V355.159Z" fill="#71A6DC"/>
<path d="M414.419 359.536V361.389C414.419 364.361 414.016 367.029 413.21 369.392C412.405 371.755 411.268 373.77 409.8 375.435C408.332 377.082 406.577 378.344 404.536 379.221C402.513 380.098 400.266 380.537 397.795 380.537C395.343 380.537 393.096 380.098 391.055 379.221C389.032 378.344 387.277 377.082 385.791 375.435C384.305 373.77 383.15 371.755 382.327 369.392C381.521 367.029 381.118 364.361 381.118 361.389V359.536C381.118 356.546 381.521 353.879 382.327 351.533C383.132 349.17 384.269 347.156 385.737 345.491C387.223 343.826 388.978 342.555 391.001 341.677C393.042 340.8 395.289 340.361 397.742 340.361C400.212 340.361 402.459 340.8 404.482 341.677C406.523 342.555 408.278 343.826 409.746 345.491C411.232 347.156 412.378 349.17 413.184 351.533C414.007 353.879 414.419 356.546 414.419 359.536ZM406.282 361.389V359.482C406.282 357.406 406.094 355.579 405.718 354.004C405.342 352.428 404.787 351.104 404.053 350.029C403.319 348.955 402.424 348.149 401.367 347.612C400.311 347.057 399.102 346.78 397.742 346.78C396.381 346.78 395.173 347.057 394.116 347.612C393.078 348.149 392.192 348.955 391.458 350.029C390.741 351.104 390.195 352.428 389.819 354.004C389.443 355.579 389.255 357.406 389.255 359.482V361.389C389.255 363.448 389.443 365.274 389.819 366.868C390.195 368.443 390.75 369.777 391.484 370.869C392.218 371.943 393.114 372.758 394.17 373.313C395.226 373.868 396.435 374.146 397.795 374.146C399.156 374.146 400.365 373.868 401.421 373.313C402.477 372.758 403.363 371.943 404.08 370.869C404.796 369.777 405.342 368.443 405.718 366.868C406.094 365.274 406.282 363.448 406.282 361.389Z" fill="#71A6DC"/>
<path d="M448.187 340.898V347.209H428.744V340.898H448.187ZM453.934 340.898V380H445.877V340.898H453.934ZM427.723 340.898H435.753L434.759 360.53C434.616 363.466 434.339 366.017 433.927 368.184C433.533 370.35 432.996 372.194 432.315 373.716C431.635 375.22 430.794 376.437 429.791 377.368C428.806 378.281 427.643 378.953 426.3 379.382C424.957 379.794 423.426 380 421.708 380H419.72V373.716L420.741 373.635C421.618 373.546 422.388 373.313 423.05 372.937C423.713 372.561 424.277 371.997 424.742 371.245C425.226 370.493 425.619 369.535 425.924 368.372C426.246 367.19 426.497 365.749 426.676 364.048C426.873 362.347 427.007 360.36 427.079 358.086L427.723 340.898Z" fill="#71A6DC"/>
<path d="M468.903 355.159H478.034C481.114 355.159 483.763 355.669 485.983 356.689C488.203 357.71 489.913 359.142 491.113 360.986C492.312 362.83 492.912 364.979 492.912 367.432C492.912 369.294 492.572 370.994 491.892 372.534C491.211 374.056 490.218 375.381 488.911 376.509C487.622 377.619 486.064 378.478 484.238 379.087C482.412 379.696 480.344 380 478.034 380H463.64V340.898H471.723V373.716H478.034C479.574 373.716 480.845 373.429 481.848 372.856C482.85 372.284 483.602 371.523 484.104 370.574C484.623 369.607 484.882 368.542 484.882 367.378C484.882 366.268 484.623 365.265 484.104 364.37C483.602 363.457 482.85 362.741 481.848 362.222C480.845 361.702 479.574 361.443 478.034 361.443H468.903V355.159Z" fill="#71A6DC"/>
<path d="M526.895 356.824V363.108H506.485V356.824H526.895ZM508.875 340.898V380H500.818V340.898H508.875ZM532.642 340.898V380H524.612V340.898H532.642Z" fill="#71A6DC"/>
<path d="M547.719 355.159H556.85C559.911 355.159 562.552 355.669 564.772 356.689C567.01 357.71 568.72 359.142 569.901 360.986C571.101 362.83 571.701 364.979 571.701 367.432C571.701 369.294 571.361 370.994 570.68 372.534C570 374.056 569.015 375.381 567.726 376.509C566.437 377.619 564.879 378.478 563.053 379.087C561.227 379.696 559.159 380 556.85 380H542.455V340.898H550.539V373.716H556.85C558.371 373.716 559.634 373.429 560.636 372.856C561.657 372.284 562.418 371.523 562.919 370.574C563.42 369.607 563.671 368.542 563.671 367.378C563.671 366.268 563.42 365.265 562.919 364.37C562.418 363.457 561.657 362.741 560.636 362.222C559.634 361.702 558.371 361.443 556.85 361.443H547.719V355.159ZM583.195 340.898V380H575.165V340.898H583.195Z" fill="#71A6DC"/>
<path d="M600.715 367.324L616.426 340.898H624.482V380H616.426V353.574L600.715 380H592.659V340.898H600.715V367.324ZM612.478 330.64H617.983C617.983 332.179 617.598 333.549 616.829 334.749C616.077 335.93 615.002 336.861 613.606 337.542C612.209 338.204 610.562 338.535 608.665 338.535C605.782 338.535 603.499 337.801 601.816 336.333C600.151 334.865 599.319 332.967 599.319 330.64H604.797C604.797 331.571 605.084 332.403 605.657 333.137C606.248 333.871 607.25 334.238 608.665 334.238C610.061 334.238 611.046 333.871 611.619 333.137C612.192 332.403 612.478 331.571 612.478 330.64Z" fill="#71A6DC"/>
<path d="M658.745 340.898V380H650.688V340.898H658.745ZM681.787 340.898L666.801 363.86H656.945L655.925 356.689H662.504L672.011 340.898H681.787ZM673.488 380L662.531 362.517L668.117 356.77L683.049 380H673.488Z" fill="#71A6DC"/>
<path d="M715.044 340.898V347.209H695.601V340.898H715.044ZM720.792 340.898V380H712.735V340.898H720.792ZM694.581 340.898H702.61L701.617 360.53C701.473 363.466 701.196 366.017 700.784 368.184C700.39 370.35 699.853 372.194 699.173 373.716C698.493 375.22 697.651 376.437 696.648 377.368C695.664 378.281 694.5 378.953 693.157 379.382C691.814 379.794 690.284 380 688.565 380H686.578V373.716L687.598 373.635C688.475 373.546 689.245 373.313 689.908 372.937C690.57 372.561 691.134 371.997 691.6 371.245C692.083 370.493 692.477 369.535 692.781 368.372C693.104 367.19 693.354 365.749 693.533 364.048C693.73 362.347 693.864 360.36 693.936 358.086L694.581 340.898Z" fill="#71A6DC"/>
<path d="M742.824 365.82L752.438 340.898H761.112L747.711 372.427C747.246 373.501 746.709 374.53 746.1 375.515C745.509 376.482 744.802 377.35 743.979 378.12C743.155 378.872 742.17 379.472 741.024 379.919C739.879 380.349 738.509 380.564 736.916 380.564C736.522 380.564 736.038 380.555 735.465 380.537C734.892 380.519 734.436 380.492 734.096 380.457L734.042 374.172C734.257 374.226 734.597 374.262 735.062 374.28C735.528 374.28 735.868 374.28 736.083 374.28C737.139 374.28 737.972 374.128 738.581 373.823C739.189 373.519 739.673 373.089 740.031 372.534C740.407 371.961 740.738 371.29 741.024 370.52L742.824 365.82ZM736.459 340.898L745.375 360.261L747.873 369.15L741.884 369.258L727.812 340.898H736.459Z" fill="#71A6DC"/>
<path d="M793.618 340.898V347.209H776.028V380H767.998V340.898H793.618ZM773.262 355.159H782.393C785.472 355.159 788.122 355.669 790.342 356.689C792.562 357.71 794.272 359.142 795.471 360.986C796.671 362.83 797.271 364.979 797.271 367.432C797.271 369.294 796.93 370.994 796.25 372.534C795.57 374.056 794.576 375.381 793.269 376.509C791.98 377.619 790.422 378.478 788.596 379.087C786.77 379.696 784.702 380 782.393 380H767.998V340.898H776.082V373.716H782.393C783.932 373.716 785.203 373.429 786.206 372.856C787.209 372.284 787.961 371.523 788.462 370.574C788.981 369.607 789.241 368.542 789.241 367.378C789.241 366.268 788.981 365.265 788.462 364.37C787.961 363.457 787.209 362.741 786.206 362.222C785.203 361.702 783.932 361.443 782.393 361.443H773.262V355.159Z" fill="#71A6DC"/>
</svg>
