<svg width="212" height="105" viewBox="0 0 212 105" fill="none" xmlns="http://www.w3.org/2000/svg">
<path d="M44.4281 87.9509L203.051 18.3436H137.828L128.237 30.859L131.476 18.2805H124.337C117.89 33.1919 114.211 39.6545 113.488 37.6684C113.047 36.439 118.299 18.4066 118.299 18.4066H111.286L109.148 26.0672L98.5184 39.9382L104.777 18.5643H97.1347L93.8641 31.1428L87.1028 32.7821L91.1282 18.4382H82.6058L78.0773 35.4302C77.0395 36.6281 72.4796 41.8297 65.2781 51.2557C57.0073 62.0688 58.7684 44.4779 58.7684 44.4779C73.5803 40.4426 85.0273 17.8707 70.8129 17.8077C54.6801 17.7446 49.4912 42.7125 49.4912 42.7125L42.2268 46.2433C41.9752 42.208 37.9499 37.7 37.9499 37.7C48.2333 32.9082 61.2842 12.7952 48.9881 8.5393C36.692 4.2519 24.1443 17.587 24.1443 17.587L21.3769 27.6435C28.6413 20.6134 35.6857 13.804 40.1827 19.8568C44.7112 25.8781 26.8803 40.7264 26.8803 40.7264C32.8868 45.5182 32.4151 51.7917 32.4151 51.7917C-17.5241 82.8123 -0.951065 121.62 23.6097 96.0213C45.8118 72.8819 43.1702 51.2557 43.1702 51.2557L48.9252 48.7337C49.9315 84.1994 76.0332 42.9646 76.0332 42.9646L76.0647 42.9016L72.1337 57.7499L80.9705 54.5343L84.9329 38.8664L91.6942 37.164L87.889 51.8862L95.9397 49.3327L106.38 35.7454C106.38 35.7454 104.588 44.8561 109.965 45.1399C115.343 45.4236 120.689 32.1516 120.689 32.1516L119.683 41.7036L126.192 38.9294L137.482 24.5856H141.508L138.237 34.8942L145.501 32.3722L148.269 24.5856H171.855L47.4471 77.1378L44.4281 87.9509ZM68.1398 23.892C73.1086 25.0899 64.5548 37.4793 59.6174 38.5511C59.6174 38.5511 62.5421 22.5364 68.1398 23.892ZM20.7479 91.2295C15.7163 98.2596 8.8921 96.904 11.2192 86.816C15.3704 68.9728 32.2893 57.9075 32.2893 57.9075C32.2893 57.9075 30.4968 77.5161 20.7479 91.2295Z" fill="white"/>
<path d="M61.1974 6.46446H61.8821C62.9521 6.46446 63.7789 6.68146 64.3626 7.11546C64.9462 7.54945 65.2381 8.16304 65.2381 8.95621C65.2381 10.666 64.1082 11.5209 61.8484 11.5209H59.4577V3.31611H64.6432V4.75279H61.1974V6.46446ZM61.1974 10.0954H61.781C62.3684 10.0954 62.7987 10.0019 63.0718 9.81485C63.3449 9.62404 63.4815 9.33782 63.4815 8.95621C63.4815 8.57833 63.3431 8.30708 63.0662 8.14246C62.7893 7.9741 62.3142 7.88992 61.6407 7.88992H61.1974V10.0954Z" fill="white"/>
<path d="M72.6843 11.5209L72.0895 9.56792H69.0982L68.5034 11.5209H66.6289L69.5248 3.28244H71.6517L74.5588 11.5209H72.6843ZM71.6742 8.10879C71.1242 6.33913 70.8137 5.33831 70.7426 5.10635C70.6752 4.87438 70.6266 4.69106 70.5967 4.55637C70.4732 5.03526 70.1196 6.2194 69.536 8.10879H71.6742Z" fill="white"/>
<path d="M80.0015 4.64616C79.3468 4.64616 78.8398 4.89309 78.4807 5.38695C78.1215 5.87707 77.9419 6.56174 77.9419 7.44096C77.9419 9.27048 78.6284 10.1852 80.0015 10.1852C80.5777 10.1852 81.2755 10.0412 82.0948 9.75311V11.2122C81.4214 11.4928 80.6694 11.6331 79.8388 11.6331C78.6453 11.6331 77.7324 11.2721 77.1001 10.55C76.4678 9.8242 76.1517 8.7841 76.1517 7.42973C76.1517 6.5767 76.3069 5.8303 76.6175 5.19053C76.928 4.54701 77.3732 4.05503 77.9531 3.71456C78.5368 3.37036 79.2196 3.19826 80.0015 3.19826C80.7984 3.19826 81.5991 3.39094 82.4035 3.7763L81.8423 5.19053C81.5355 5.04462 81.2268 4.91741 80.9163 4.80891C80.6058 4.70041 80.3008 4.64616 80.0015 4.64616Z" fill="white"/>
<path d="M91.4548 11.5209H89.4794L86.505 7.36239V11.5209H84.7653V3.31611H86.505V7.28943L89.4457 3.31611H91.2977L88.3064 7.25576L91.4548 11.5209Z" fill="white"/>
<path d="M98.1322 11.5209H93.4069V3.31611H98.1322V4.74157H95.1466V6.54303H97.9246V7.96849H95.1466V10.0842H98.1322V11.5209Z" fill="white"/>
<path d="M103.934 11.5209H102.194V4.76401H99.9665V3.31611H106.162V4.76401H103.934V11.5209Z" fill="white"/>
<path d="M110.084 6.46446H110.769C111.839 6.46446 112.666 6.68146 113.249 7.11546C113.833 7.54945 114.125 8.16304 114.125 8.95621C114.125 10.666 112.995 11.5209 110.735 11.5209H108.344V3.31611H113.53V4.75279H110.084V6.46446ZM110.084 10.0954H110.668C111.255 10.0954 111.685 10.0019 111.958 9.81485C112.232 9.62404 112.368 9.33782 112.368 8.95621C112.368 8.57833 112.23 8.30708 111.953 8.14246C111.676 7.9741 111.201 7.88992 110.527 7.88992H110.084V10.0954Z" fill="white"/>
<path d="M124.052 7.40728C124.052 8.7654 123.715 9.80923 123.041 10.5388C122.368 11.2684 121.403 11.6331 120.146 11.6331C118.888 11.6331 117.923 11.2684 117.25 10.5388C116.576 9.80923 116.24 8.76165 116.24 7.39606C116.24 6.03046 116.576 4.9885 117.25 4.27015C117.927 3.54807 118.896 3.18703 120.157 3.18703C121.418 3.18703 122.381 3.54994 123.047 4.27577C123.717 5.00159 124.052 6.04543 124.052 7.40728ZM118.063 7.40728C118.063 8.32392 118.237 9.0142 118.585 9.47812C118.933 9.94205 119.453 10.174 120.146 10.174C121.534 10.174 122.228 9.25177 122.228 7.40728C122.228 5.55905 121.537 4.63494 120.157 4.63494C119.465 4.63494 118.943 4.86877 118.591 5.33644C118.239 5.80037 118.063 6.49065 118.063 7.40728Z" fill="white"/>
<path d="M133.052 11.5209H131.318V4.76401H129.309L129.219 5.51603C128.987 7.42786 128.782 8.76914 128.602 9.53986C128.426 10.3068 128.17 10.8475 127.833 11.1617C127.5 11.476 127.038 11.6331 126.447 11.6331C126.133 11.6331 125.856 11.592 125.616 11.5097V10.0842C125.833 10.1591 126.037 10.1965 126.228 10.1965C126.426 10.1965 126.584 10.1067 126.7 9.92709C126.816 9.74376 126.924 9.40704 127.025 8.91692C127.13 8.42306 127.266 7.6168 127.435 6.49813C127.607 5.37573 127.753 4.31505 127.872 3.31611H133.052V11.5209Z" fill="white"/>
<path d="M141.823 8.95621C141.823 10.666 140.693 11.5209 138.433 11.5209H136.043V3.31611H137.782V6.46446H138.467C139.537 6.46446 140.364 6.68146 140.948 7.11546C141.531 7.54945 141.823 8.16304 141.823 8.95621ZM137.782 10.0954H138.366C138.953 10.0954 139.384 10.0019 139.657 9.81485C139.93 9.62404 140.066 9.33782 140.066 8.95621C140.066 8.57833 139.928 8.30708 139.651 8.14246C139.374 7.9741 138.899 7.88992 138.226 7.88992H137.782V10.0954Z" fill="white"/>
<path d="M151.026 11.5209H149.292V7.97971H146.042V11.5209H144.303V3.31611H146.042V6.53181H149.292V3.31611H151.026V11.5209Z" fill="white"/>
<path d="M159.634 8.95621C159.634 9.80923 159.35 10.4509 158.781 10.8811C158.216 11.3076 157.378 11.5209 156.267 11.5209H154.022V3.31611H155.762V6.46446H156.323C157.374 6.46446 158.188 6.68333 158.764 7.12107C159.344 7.55507 159.634 8.16678 159.634 8.95621ZM155.762 10.0954H156.216C156.789 10.0954 157.208 10.0019 157.473 9.81485C157.739 9.62404 157.872 9.33782 157.872 8.95621C157.872 8.57459 157.743 8.30147 157.484 8.13685C157.23 7.97223 156.781 7.88992 156.138 7.88992H155.762V10.0954ZM162.367 11.5209H160.633V3.31611H162.367V11.5209Z" fill="white"/>
<path d="M165.357 3.31611H166.923V7.27821L166.901 8.33888L166.844 9.54547H166.878L170.666 3.31611H172.748V11.5209H171.199V7.58126C171.199 7.05372 171.233 6.27178 171.3 5.23542H171.255L167.451 11.5209H165.357V3.31611ZM171.772 0.650391C171.701 1.35002 171.437 1.86072 170.981 2.18248C170.524 2.50049 169.866 2.6595 169.005 2.6595C168.118 2.6595 167.462 2.5061 167.035 2.19931C166.612 1.89252 166.375 1.37621 166.323 0.650391H167.855C167.881 1.03575 167.976 1.307 168.141 1.46414C168.309 1.61753 168.608 1.69423 169.039 1.69423C169.417 1.69423 169.697 1.61005 169.881 1.44169C170.068 1.26959 170.182 1.00582 170.223 0.650391H171.772Z" fill="white"/>
<path d="M186.243 11.5209H184.268L181.294 7.36239V11.5209H179.554V3.31611H181.294V7.28943L184.234 3.31611H186.086L183.095 7.25576L186.243 11.5209Z" fill="white"/>
<path d="M194.689 11.5209H192.955V4.76401H190.945L190.856 5.51603C190.624 7.42786 190.418 8.76914 190.238 9.53986C190.062 10.3068 189.806 10.8475 189.469 11.1617C189.136 11.476 188.674 11.6331 188.083 11.6331C187.769 11.6331 187.492 11.592 187.253 11.5097V10.0842C187.47 10.1591 187.674 10.1965 187.864 10.1965C188.063 10.1965 188.22 10.1067 188.336 9.92709C188.452 9.74376 188.56 9.40704 188.661 8.91692C188.766 8.42306 188.903 7.6168 189.071 6.49813C189.243 5.37573 189.389 4.31505 189.509 3.31611H194.689V11.5209Z" fill="white"/>
<path d="M204.268 3.31611L201.725 9.11895C201.407 9.84478 201.11 10.3686 200.833 10.6903C200.556 11.0083 200.227 11.2459 199.845 11.4031C199.467 11.5564 199.003 11.6331 198.453 11.6331C197.982 11.6331 197.544 11.577 197.14 11.4648V9.97198C197.477 10.1067 197.887 10.174 198.369 10.174C198.672 10.174 198.919 10.1048 199.11 9.96637C199.301 9.82794 199.464 9.5754 199.598 9.20875L196.759 3.31611H198.599L200.625 7.88992H200.681C200.738 7.6804 200.865 7.34555 201.063 6.88536L202.472 3.31611H204.268Z" fill="white"/>
<path d="M207.959 6.46446H208.644C209.714 6.46446 210.541 6.68146 211.125 7.11546C211.708 7.54945 212 8.16304 212 8.95621C212 10.666 210.87 11.5209 208.61 11.5209H206.22V3.31611H211.405V4.75279H207.959V6.46446ZM207.959 10.0954H208.543C209.13 10.0954 209.561 10.0019 209.834 9.81485C210.107 9.62404 210.243 9.33782 210.243 8.95621C210.243 8.57833 210.105 8.30708 209.828 8.14246C209.551 7.9741 209.076 7.88992 208.403 7.88992H207.959V10.0954Z" fill="white"/>
</svg>
