<svg width="212" height="101" viewBox="0 0 212 101" fill="none" xmlns="http://www.w3.org/2000/svg">
<path d="M46.3862 83.7985L129.193 47.4609L212 11.1234H143.903L133.888 24.1904L137.27 11.0576H129.817C123.086 26.6261 119.244 33.3735 118.489 31.2999C118.03 30.0163 123.513 11.1892 123.513 11.1892H116.191L113.958 19.1874L102.86 33.6698L109.394 11.3538H101.416L98.001 24.4866L90.9417 26.1982L95.1444 11.2221H86.2465L81.5184 28.963C80.4349 30.2138 75.674 35.6446 68.155 45.4861C59.5197 56.7757 61.3584 38.4095 61.3584 38.4095C76.8232 34.1964 88.7747 10.6297 73.9338 10.5638C57.09 10.498 51.6725 36.5662 51.6725 36.5662L44.0879 40.2527C43.8252 36.0396 39.6224 31.3328 39.6224 31.3328C50.3591 26.3299 63.9851 5.33044 51.1471 0.886988C38.3091 -3.58938 25.2084 10.3334 25.2084 10.3334L22.319 20.8331C29.9036 13.4932 37.2584 6.3837 41.9537 12.7033C46.6817 18.9899 28.0649 34.4926 28.0649 34.4926C34.3362 39.4956 33.8437 46.0456 33.8437 46.0456C-18.2964 78.4334 -0.99298 118.951 24.6502 92.2246C47.8309 68.0654 45.0729 45.4861 45.0729 45.4861L51.0815 42.8529C52.1321 79.8816 79.3842 36.8296 79.3842 36.8296L79.417 36.7637L75.3128 52.2664L84.5391 48.9092L88.6762 32.5507L95.7354 30.7733L91.7626 46.1443L100.168 43.4783L111.069 29.2922C111.069 29.2922 109.197 38.8044 114.812 39.1006C120.426 39.3969 126.008 25.5399 126.008 25.5399L124.958 35.513L131.754 32.6165L143.541 17.6404H147.744L144.329 28.4035L151.914 25.7703L154.803 17.6404H179.429L49.5383 72.5088L46.3862 83.7985ZM71.1429 16.9163C76.3307 18.1671 67.3999 31.1024 62.2449 32.2215C62.2449 32.2215 65.2985 15.501 71.1429 16.9163ZM21.6624 87.2216C16.4089 94.5615 9.284 93.1462 11.7137 82.6135C16.0478 63.984 33.7124 52.431 33.7124 52.431C33.7124 52.431 31.8408 72.9038 21.6624 87.2216Z" fill="white" fill-opacity="0.2"/>
</svg>
