<svg width="800" height="381" viewBox="0 0 800 381" fill="none" xmlns="http://www.w3.org/2000/svg">
<path d="M175.042 316.221L487.521 179.098L800 41.975H543.029L505.239 91.2846L518.001 41.7266H489.875C464.475 100.476 449.979 125.938 447.129 118.113C445.395 113.269 466.086 42.2234 466.086 42.2234H438.456L430.031 72.4054L388.152 127.056L412.809 42.8445H382.701L369.815 92.4024L343.176 98.8611L359.036 42.3476H325.458L307.617 109.294C303.528 114.014 285.562 134.508 257.189 171.646C224.603 214.248 231.541 144.941 231.541 144.941C289.899 129.043 334.999 40.1119 278.995 39.8635C215.434 39.6151 194.99 137.986 194.99 137.986L166.369 151.897C165.378 135.999 149.519 118.237 149.519 118.237C190.034 99.3579 241.453 20.1149 193.008 3.34712C144.563 -13.5448 95.126 38.9941 95.126 38.9941L84.2227 78.6156C112.844 50.9178 140.598 24.0894 158.316 47.9369C176.157 71.6601 105.905 130.161 105.905 130.161C129.571 149.04 127.712 173.757 127.712 173.757C-69.043 295.975 -3.7471 448.872 93.0197 348.017C180.494 256.85 170.086 171.646 170.086 171.646L192.76 161.709C196.725 301.44 299.563 138.979 299.563 138.979L299.687 138.731L284.199 197.232L319.015 184.563L334.627 122.833L361.266 116.126L346.274 174.13L377.992 164.069L419.128 110.536C419.128 110.536 412.065 146.432 433.252 147.55C454.439 148.667 475.503 96.377 475.503 96.377L471.538 134.011L497.185 123.081L541.666 66.5677H557.525L544.64 107.183L573.261 97.2464L584.164 66.5677H677.09L186.937 273.618L175.042 316.221ZM268.464 63.8352C288.04 68.555 254.339 117.368 234.887 121.591C234.887 121.591 246.409 58.4943 268.464 63.8352ZM81.7447 329.138C61.9205 356.836 35.034 351.495 44.2027 311.749C60.5576 241.449 127.216 197.853 127.216 197.853C127.216 197.853 120.154 275.109 81.7447 329.138Z" fill="#71A6DC" fill-opacity="0.1"/>
</svg>
