<svg width="200" height="98" viewBox="0 0 200 98" fill="none" xmlns="http://www.w3.org/2000/svg">
<path d="M41.9133 82.5086L191.558 16.722H130.027L120.978 28.5505L124.034 16.6624H117.299C111.217 30.7553 107.746 36.8632 107.064 34.9861C106.648 33.8241 111.603 16.7816 111.603 16.7816H104.987L102.97 24.0217L92.9419 37.1313L98.8458 16.9306H91.6365L88.5511 28.8186L82.1725 30.368L85.97 16.8114H77.93L73.6578 32.8707C72.6788 34.0029 68.377 38.919 61.5831 47.8276C53.7804 58.0472 55.4418 41.4218 55.4418 41.4218C69.4154 37.6081 80.2144 16.2751 66.8046 16.2155C51.585 16.1559 46.6899 39.7533 46.6899 39.7533L39.8366 43.0903C39.5993 39.2766 35.8018 35.0159 35.8018 35.0159C45.5031 30.4871 57.8153 11.4782 46.2152 7.45589C34.6151 3.40382 22.7776 16.0069 22.7776 16.0069L20.1669 25.5114C27.0201 18.8672 33.6657 12.4316 37.9082 18.1522C42.1804 23.8429 25.3587 37.8762 25.3587 37.8762C31.0253 42.405 30.5803 48.3341 30.5803 48.3341C-16.5321 77.652 -0.897231 114.329 22.2733 90.136C43.2187 68.2667 40.7266 47.8276 40.7266 47.8276L46.1558 45.444C47.1052 78.963 71.7294 39.9916 71.7294 39.9916L71.7591 39.932L68.0506 53.9653L76.3873 50.9263L80.1254 36.1183L86.504 34.5094L82.9142 48.4235L90.5091 46.0101L100.359 33.1687C100.359 33.1687 98.6678 41.7793 103.741 42.0475C108.814 42.3156 113.858 29.7721 113.858 29.7721L112.908 38.7998L119.05 36.1779L129.7 22.6214H133.498L130.412 32.3642L137.266 29.9806L139.876 22.6214H162.127L44.7615 72.289L41.9133 82.5086ZM64.2828 21.9659C68.9703 23.0981 60.9007 34.8074 56.2429 35.8204C56.2429 35.8204 59.002 20.6847 64.2828 21.9659ZM19.5735 85.6072C14.8267 92.2514 8.38878 90.9702 10.5842 81.436C14.5003 64.5722 30.4616 54.1143 30.4616 54.1143C30.4616 54.1143 28.7705 72.6465 19.5735 85.6072Z" fill="#71A6DC"/>
<path d="M57.7334 5.49494H58.3793C59.3888 5.49494 60.1688 5.70002 60.7194 6.1102C61.27 6.52037 61.5453 7.10028 61.5453 7.84991C61.5453 9.46586 60.4794 10.2738 58.3475 10.2738H56.0921V2.5194H60.9841V3.87722H57.7334V5.49494ZM57.7334 8.92662H58.284C58.8381 8.92662 59.244 8.83822 59.5017 8.66142C59.7594 8.48108 59.8882 8.21058 59.8882 7.84991C59.8882 7.49277 59.7576 7.23641 59.4964 7.08083C59.2352 6.92171 58.787 6.84215 58.1516 6.84215H57.7334V8.92662Z" fill="#71A6DC"/>
<path d="M68.5701 10.2738L68.0089 8.42804H65.187L64.6258 10.2738H62.8575L65.5894 2.48757H67.596L70.3384 10.2738H68.5701ZM67.6171 7.04901C67.0983 5.37648 66.8053 4.4306 66.7383 4.21137C66.6747 3.99214 66.6289 3.81887 66.6006 3.69158C66.4841 4.14419 66.1506 5.26333 65.6 7.04901H67.6171Z" fill="#71A6DC"/>
<path d="M75.4731 3.77644C74.8555 3.77644 74.3772 4.00982 74.0384 4.47657C73.6995 4.93978 73.5301 5.58687 73.5301 6.41783C73.5301 8.14693 74.1778 9.01148 75.4731 9.01148C76.0167 9.01148 76.675 8.87535 77.4479 8.60308V9.98211C76.8126 10.2473 76.1032 10.3799 75.3196 10.3799C74.1937 10.3799 73.3324 10.0387 72.7359 9.35624C72.1394 8.67026 71.8412 7.68725 71.8412 6.40722C71.8412 5.60102 71.9877 4.89558 72.2806 4.29093C72.5736 3.68274 72.9936 3.21776 73.5407 2.89598C74.0913 2.57067 74.7355 2.40801 75.4731 2.40801C76.2249 2.40801 76.9803 2.59012 77.7391 2.95432L77.2097 4.29093C76.9203 4.15303 76.6291 4.0328 76.3361 3.93026C76.0432 3.82771 75.7555 3.77644 75.4731 3.77644Z" fill="#71A6DC"/>
<path d="M86.2781 10.2738H84.4145L81.6085 6.34357V10.2738H79.9672V2.5194H81.6085V6.27462L84.3827 2.5194H86.1299L83.308 6.2428L86.2781 10.2738Z" fill="#71A6DC"/>
<path d="M92.5776 10.2738H88.1197V2.5194H92.5776V3.86661H89.761V5.56919H92.3817V6.91641H89.761V8.91601H92.5776V10.2738Z" fill="#71A6DC"/>
<path d="M98.0511 10.2738H96.4099V3.88783H94.308V2.5194H100.153V3.88783H98.0511V10.2738Z" fill="#71A6DC"/>
<path d="M103.853 5.49494H104.499C105.508 5.49494 106.288 5.70002 106.839 6.1102C107.39 6.52037 107.665 7.10028 107.665 7.84991C107.665 9.46586 106.599 10.2738 104.467 10.2738H102.212V2.5194H107.104V3.87722H103.853V5.49494ZM103.853 8.92662H104.404C104.958 8.92662 105.364 8.83822 105.621 8.66142C105.879 8.48108 106.008 8.21058 106.008 7.84991C106.008 7.49277 105.877 7.23641 105.616 7.08083C105.355 6.92171 104.906 6.84215 104.271 6.84215H103.853V8.92662Z" fill="#71A6DC"/>
<path d="M117.03 6.38601C117.03 7.66957 116.712 8.65611 116.077 9.34563C115.441 10.0352 114.531 10.3799 113.345 10.3799C112.159 10.3799 111.248 10.0352 110.613 9.34563C109.978 8.65611 109.66 7.66604 109.66 6.3754C109.66 5.08476 109.978 4.09999 110.613 3.42107C111.252 2.73863 112.166 2.3974 113.355 2.3974C114.545 2.3974 115.454 2.7404 116.082 3.42638C116.714 4.11236 117.03 5.0989 117.03 6.38601ZM111.381 6.38601C111.381 7.25232 111.545 7.90472 111.873 8.34318C112.201 8.78164 112.692 9.00087 113.345 9.00087C114.654 9.00087 115.309 8.12925 115.309 6.38601C115.309 4.63922 114.658 3.76583 113.355 3.76583C112.702 3.76583 112.21 3.98683 111.878 4.42883C111.547 4.8673 111.381 5.51969 111.381 6.38601Z" fill="#71A6DC"/>
<path d="M125.521 10.2738H123.885V3.88783H121.99L121.905 4.59856C121.686 6.40545 121.492 7.67311 121.323 8.40152C121.157 9.1264 120.915 9.63735 120.597 9.93438C120.283 10.2314 119.847 10.3799 119.29 10.3799C118.993 10.3799 118.732 10.341 118.506 10.2632V8.91601C118.711 8.98673 118.903 9.02209 119.083 9.02209C119.27 9.02209 119.418 8.93723 119.528 8.7675C119.637 8.59424 119.74 8.276 119.835 7.81278C119.934 7.34603 120.063 6.58402 120.221 5.52676C120.384 4.46596 120.521 3.46351 120.634 2.5194H125.521V10.2738Z" fill="#71A6DC"/>
<path d="M133.795 7.84991C133.795 9.46586 132.729 10.2738 130.598 10.2738H128.342V2.5194H129.983V5.49494H130.629C131.639 5.49494 132.419 5.70002 132.969 6.1102C133.52 6.52037 133.795 7.10028 133.795 7.84991ZM129.983 8.92662H130.534C131.088 8.92662 131.494 8.83822 131.752 8.66142C132.009 8.48108 132.138 8.21058 132.138 7.84991C132.138 7.49277 132.008 7.23641 131.746 7.08083C131.485 6.92171 131.037 6.84215 130.402 6.84215H129.983V8.92662Z" fill="#71A6DC"/>
<path d="M142.477 10.2738H140.841V6.92701H137.776V10.2738H136.135V2.5194H137.776V5.55858H140.841V2.5194H142.477V10.2738Z" fill="#71A6DC"/>
<path d="M150.598 7.84991C150.598 8.65612 150.33 9.26254 149.793 9.66918C149.26 10.0723 148.47 10.2738 147.421 10.2738H145.304V2.5194H146.945V5.49494H147.474C148.466 5.49494 149.234 5.70179 149.777 6.1155C150.324 6.52568 150.598 7.10381 150.598 7.84991ZM146.945 8.92662H147.374C147.914 8.92662 148.309 8.83822 148.56 8.66142C148.81 8.48108 148.936 8.21058 148.936 7.84991C148.936 7.48924 148.814 7.23111 148.57 7.07553C148.33 6.91994 147.907 6.84215 147.3 6.84215H146.945V8.92662ZM153.176 10.2738H151.54V2.5194H153.176V10.2738Z" fill="#71A6DC"/>
<path d="M155.997 2.5194H157.475V6.26401L157.453 7.26647L157.4 8.40683H157.432L161.006 2.5194H162.97V10.2738H161.509V6.55043C161.509 6.05186 161.541 5.31283 161.604 4.33336H161.562L157.972 10.2738H155.997V2.5194ZM162.049 0C161.982 0.661231 161.733 1.14389 161.302 1.44799C160.872 1.74855 160.251 1.89883 159.439 1.89883C158.602 1.89883 157.983 1.75385 157.58 1.4639C157.182 1.17395 156.957 0.685983 156.908 0H158.353C158.378 0.364207 158.468 0.620567 158.623 0.769079C158.782 0.914055 159.065 0.986543 159.471 0.986543C159.827 0.986543 160.092 0.906983 160.265 0.747863C160.441 0.585207 160.549 0.335919 160.588 0H162.049Z" fill="#71A6DC"/>
<path d="M175.701 10.2738H173.838L171.032 6.34357V10.2738H169.39V2.5194H171.032V6.27462L173.806 2.5194H175.553L172.731 6.2428L175.701 10.2738Z" fill="#71A6DC"/>
<path d="M183.669 10.2738H182.033V3.88783H180.137L180.052 4.59856C179.834 6.40545 179.64 7.67311 179.47 8.40152C179.304 9.1264 179.062 9.63735 178.745 9.93438C178.431 10.2314 177.995 10.3799 177.437 10.3799C177.141 10.3799 176.879 10.341 176.654 10.2632V8.91601C176.858 8.98673 177.051 9.02209 177.231 9.02209C177.418 9.02209 177.566 8.93723 177.675 8.7675C177.785 8.59424 177.887 8.276 177.982 7.81278C178.081 7.34603 178.21 6.58402 178.369 5.52676C178.531 4.46596 178.669 3.46351 178.782 2.5194H183.669V10.2738Z" fill="#71A6DC"/>
<path d="M192.705 2.5194L190.307 8.00372C190.007 8.68971 189.726 9.18475 189.465 9.48884C189.204 9.7894 188.893 10.0139 188.533 10.1624C188.177 10.3074 187.739 10.3799 187.22 10.3799C186.776 10.3799 186.363 10.3269 185.981 10.2208V8.80993C186.299 8.93723 186.685 9.00087 187.141 9.00087C187.427 9.00087 187.66 8.93546 187.84 8.80463C188.02 8.67379 188.173 8.43512 188.3 8.08859L185.621 2.5194H187.358L189.269 6.84215H189.322C189.375 6.64413 189.495 6.32766 189.682 5.89274L191.011 2.5194H192.705Z" fill="#71A6DC"/>
<path d="M196.188 5.49494H196.834C197.843 5.49494 198.623 5.70002 199.174 6.1102C199.725 6.52037 200 7.10028 200 7.84991C200 9.46586 198.934 10.2738 196.802 10.2738H194.547V2.5194H199.439V3.87722H196.188V5.49494ZM196.188 8.92662H196.739C197.293 8.92662 197.699 8.83822 197.956 8.66142C198.214 8.48108 198.343 8.21058 198.343 7.84991C198.343 7.49277 198.212 7.23641 197.951 7.08083C197.69 6.92171 197.242 6.84215 196.606 6.84215H196.188V8.92662Z" fill="#71A6DC"/>
</svg>
