<svg width="1300" height="1215" viewBox="0 0 1300 1215" fill="none" xmlns="http://www.w3.org/2000/svg">
<g clip-path="url(#clip0_28_1272)">
<path d="M0 0H80.8889V131.939L82.3333 198.634L89.5556 263.878H0V0Z" fill="#00AB96" fill-opacity="0.2"/>
<path d="M0 260.979H89.5556L93.1667 278.74L96.7778 293.601L100.389 308.462L104 323.323L109.056 337.822L114.111 352.321L125.667 381.319L137.222 408.141L151.667 434.964L169 464.687L189.222 494.409L212.333 524.857L235.444 550.955L275.889 590.101L299 608.95L351 645.197L0 1217.9V260.979Z" fill="#95569E" fill-opacity="0.2"/>
<path d="M75.1111 0H437.667V263.878H85.2222L82.3333 249.379L79.4444 231.981L78 214.582L76.5555 197.184L75.1111 165.286V131.939V0Z" fill="#606C38" fill-opacity="0.2"/>
<path d="M86.6666 260.979H439.111V501.659L349.555 646.647L329.333 633.598L307.667 619.099L267.222 585.752L232.556 552.405L200.778 514.708L173.333 477.011L147.333 434.964L128.556 394.368L111.222 352.321L96.7777 307.375L86.6666 260.979Z" fill="#FF0303" fill-opacity="0.2"/>
<path d="M1298.56 0H1217.67V131.939L1216.22 198.634L1209 263.878H1298.56V0Z" fill="#00AB96" fill-opacity="0.2"/>
<path d="M1298.56 260.979H1209L1205.39 278.74L1201.78 293.601L1198.17 308.462L1194.56 323.323L1189.5 337.822L1184.44 352.321L1172.89 381.319L1161.33 408.141L1146.89 434.964L1129.56 464.687L1109.33 494.409L1086.22 524.857L1063.11 550.955L1022.67 590.101L999.555 608.95L947.555 645.197L1298.56 1217.9V260.979Z" fill="#95569E" fill-opacity="0.2"/>
<path d="M1220.56 0H858V263.878H1210.44L1213.33 249.379L1216.22 231.981L1217.67 214.582L1219.11 197.184L1220.56 165.286V131.939V0Z" fill="#606C38" fill-opacity="0.2"/>
<path d="M1211.89 260.979H859.444V501.659L949 646.647L969.222 633.598L990.889 619.099L1031.33 585.752L1066 552.405L1097.78 514.708L1125.22 477.011L1151.22 434.964L1170 394.368L1187.33 352.321L1201.78 307.375L1211.89 260.979Z" fill="#FF0303" fill-opacity="0.2"/>
<rect x="439.111" width="421.778" height="498.759" fill="#202A25" fill-opacity="0.2"/>
<path d="M439.111 498.759H860.889L951.889 646.647L918.667 665.495L884 682.894L847.889 697.393L810.333 710.442L771.333 720.591L730.889 727.84L690.445 732.19H650H612.445L573.445 727.84L534.445 720.591L496.889 711.891L459.333 700.292L420.333 684.344L382.778 666.945L346.667 646.647L439.111 498.759Z" fill="#FF9900" fill-opacity="0.2"/>
<path d="M348.111 643.747L384.222 664.045L417.444 679.994L453.556 694.493L488.222 706.092L527.222 716.241L564.778 723.49L606.667 729.29H648.556H687.556L728 724.94L767 717.691L806 707.542L843.556 695.943L881.111 681.444L917.222 664.045L950.444 645.197L1300 1215H0L348.111 643.747Z" fill="#2B378C" fill-opacity="0.2"/>
<g clip-path="url(#clip1_28_1272)">
<path d="M0 0H4.33333V2427.13H0V0Z" fill="#202A25"/>
<path d="M4.33333 0H1295.67V4.33416H4.33333V0Z" fill="#202A25"/>
<path d="M4.33333 1211.4H1295.67V1215.73H4.33333V1211.4Z" fill="#202A25"/>
<path d="M4.33333 2422.8H1295.67V2427.13H4.33333V2422.8Z" fill="#202A25"/>
<path d="M1295.67 0H1300V2427.13H1295.67V0Z" fill="#202A25"/>
<path d="M806 1213.57C806 1299.74 736.156 1369.6 650 1369.6C563.844 1369.6 494 1299.74 494 1213.57C494 1127.39 563.844 1057.54 650 1057.54C736.156 1057.54 806 1127.39 806 1213.57ZM498.68 1213.57C498.68 1297.15 566.428 1364.91 650 1364.91C733.572 1364.91 801.32 1297.15 801.32 1213.57C801.32 1129.98 733.572 1062.22 650 1062.22C566.428 1062.22 498.68 1129.98 498.68 1213.57Z" fill="#202A25"/>
<path d="M806 1924.37C806 2010.54 736.156 2080.4 650 2080.4C563.844 2080.4 494 2010.54 494 1924.37C494 1838.2 563.844 1768.34 650 1768.34C736.156 1768.34 806 1838.2 806 1924.37ZM498.68 1924.37C498.68 2007.96 566.428 2075.72 650 2075.72C733.572 2075.72 801.32 2007.96 801.32 1924.37C801.32 1840.78 733.572 1773.02 650 1773.02C566.428 1773.02 498.68 1840.78 498.68 1924.37Z" fill="#202A25"/>
<path d="M437.667 1924.37H442V2427.13H437.667V1924.37Z" fill="#202A25"/>
<path d="M442 1924.37H858V1928.7H442V1924.37Z" fill="#202A25"/>
<path d="M858 1924.37H862.333V2427.13H858V1924.37Z" fill="#202A25"/>
<path d="M871 2275.44H862.333V2271.1H871V2275.44Z" fill="#202A25"/>
<path d="M871 2197.42H862.333V2162.75H871V2197.42Z" fill="#202A25"/>
<path d="M871 2089.07H862.333V2084.73H871V2089.07Z" fill="#202A25"/>
<path d="M871 2011.05H862.333V2006.72H871V2011.05Z" fill="#202A25"/>
<path d="M437.667 2275.44H429V2271.1H437.667V2275.44Z" fill="#202A25"/>
<path d="M437.667 2197.42H429V2162.75H437.667V2197.42Z" fill="#202A25"/>
<path d="M437.667 2089.07H429V2084.73H437.667V2089.07Z" fill="#202A25"/>
<path d="M437.667 2011.05H429V2006.72H437.667V2011.05Z" fill="#202A25"/>
<path d="M1222.87 2266.33C1222.87 2191.15 1208.06 2116.7 1179.29 2047.23C1150.53 1977.77 1108.36 1914.65 1055.2 1861.48C1002.05 1808.32 938.945 1766.15 869.494 1737.37C800.043 1708.6 725.606 1693.79 650.433 1693.79C575.26 1693.79 500.823 1708.6 431.373 1737.37C361.922 1766.15 298.817 1808.32 245.662 1861.48C192.506 1914.65 150.341 1977.77 121.574 2047.23C92.8064 2116.7 78 2191.15 78 2266.33H82.4078C82.4078 2191.73 97.1002 2117.85 125.646 2048.92C154.192 1979.99 196.033 1917.36 248.779 1864.6C301.525 1811.85 364.143 1770 433.059 1741.45C501.975 1712.89 575.839 1698.2 650.433 1698.2C725.028 1698.2 798.891 1712.89 867.807 1741.45C936.723 1770 999.342 1811.85 1052.09 1864.6C1104.83 1917.36 1146.67 1979.99 1175.22 2048.92C1203.77 2117.85 1218.46 2191.73 1218.46 2266.33H1222.87Z" fill="#202A25"/>
<path d="M78 2266.33H82.3333V2426.7H78V2266.33Z" fill="#202A25"/>
<path d="M1218.53 2266.33H1222.87V2426.7H1218.53V2266.33Z" fill="#202A25"/>
<path d="M806 501.029C806 587.202 736.156 657.059 650 657.059C563.844 657.059 494 587.202 494 501.029C494 414.856 563.844 344.999 650 344.999C736.156 344.999 806 414.856 806 501.029ZM498.68 501.029C498.68 584.617 566.428 652.378 650 652.378C733.572 652.378 801.32 584.617 801.32 501.029C801.32 417.442 733.572 349.68 650 349.68C566.428 349.68 498.68 417.442 498.68 501.029Z" fill="#202A25"/>
<path d="M870.133 419.547H861.467V415.213H870.133V419.547Z" fill="#202A25"/>
<path d="M870.133 341.532H861.467V337.198H870.133V341.532Z" fill="#202A25"/>
<path d="M870.133 263.517H861.467V228.844H870.133V263.517Z" fill="#202A25"/>
<path d="M870.133 155.163H861.467V150.829H870.133V155.163Z" fill="#202A25"/>
<path d="M436.8 0H441.133V502.763H436.8V0Z" fill="#202A25"/>
<path d="M441.133 498.429H857.133V502.763H441.133V498.429Z" fill="#202A25"/>
<path d="M857.133 0H861.467V502.763H857.133V0Z" fill="#202A25"/>
<path d="M437.667 419.547H429V415.213H437.667V419.547Z" fill="#202A25"/>
<path d="M437.667 341.532H429V337.198H437.667V341.532Z" fill="#202A25"/>
<path d="M437.667 263.517H429V228.844H437.667V263.517Z" fill="#202A25"/>
<path d="M437.667 155.163H429V150.829H437.667V155.163Z" fill="#202A25"/>
<path d="M78 160.797C78 235.985 92.8064 310.436 121.574 379.9C150.341 449.364 192.506 512.481 245.662 565.646C298.817 618.812 361.922 660.985 431.373 689.758C500.823 718.531 575.26 733.34 650.433 733.34C725.606 733.34 800.043 718.531 869.494 689.758C938.945 660.985 1002.05 618.812 1055.2 565.646C1108.36 512.481 1150.53 449.364 1179.29 379.9C1208.06 310.436 1222.87 235.985 1222.87 160.797H1218.46C1218.46 235.406 1203.77 309.284 1175.22 378.213C1146.67 447.142 1104.83 509.773 1052.09 562.529C999.342 615.285 936.723 657.134 867.807 685.685C798.891 714.237 725.028 728.932 650.433 728.932C575.839 728.932 501.975 714.237 433.059 685.685C364.143 657.134 301.525 615.285 248.779 562.529C196.033 509.773 154.192 447.142 125.646 378.213C97.1002 309.284 82.4078 235.406 82.4078 160.797H78Z" fill="#202A25"/>
<path d="M1222.87 160.797H1218.53V0.433363H1222.87V160.797Z" fill="#202A25"/>
<path d="M82.3333 160.797L78 160.797V0.433363H82.3333V160.797Z" fill="#202A25"/>
</g>
</g>
<defs>
<clipPath id="clip0_28_1272">
<rect width="1300" height="1215" fill="white"/>
</clipPath>
<clipPath id="clip1_28_1272">
<rect width="1300" height="1217.9" fill="white"/>
</clipPath>
</defs>
</svg>
