<svg width="1300" height="1383" viewBox="0 0 1300 1383" fill="none" xmlns="http://www.w3.org/2000/svg">
<g clip-path="url(#clip0_28_1265)">
<path d="M0 0H80.8889V131.939L82.3333 198.634L89.5556 263.878H0V0Z" fill="#00AB96" fill-opacity="0.2"/>
<path d="M0 260.979H89.5556L93.1667 278.74L96.7778 293.601L100.389 308.462L104 323.323L109.056 337.822L114.111 352.321L125.667 381.319L137.222 408.141L151.667 434.964L169 464.687L189.222 494.409L212.333 524.857L235.444 550.955L275.889 590.101L299 608.95L351 645.197L0 1217.9V260.979Z" fill="#95569E" fill-opacity="0.2"/>
<path d="M75.1111 0H437.667V263.878H85.2222L82.3333 249.379L79.4444 231.981L78 214.582L76.5555 197.184L75.1111 165.286V131.939V0Z" fill="#606C38" fill-opacity="0.2"/>
<path d="M86.6666 260.979H439.111V501.659L349.555 646.647L329.333 633.598L307.667 619.099L267.222 585.752L232.556 552.405L200.778 514.708L173.333 477.011L147.333 434.964L128.556 394.368L111.222 352.321L96.7777 307.375L86.6666 260.979Z" fill="#FF0303" fill-opacity="0.2"/>
<path d="M1298.56 0H1217.67V131.939L1216.22 198.634L1209 263.878H1298.56V0Z" fill="#00AB96" fill-opacity="0.2"/>
<path d="M1298.56 260.979H1209L1205.39 278.74L1201.78 293.601L1198.17 308.462L1194.56 323.323L1189.5 337.822L1184.44 352.321L1172.89 381.319L1161.33 408.141L1146.89 434.964L1129.56 464.687L1109.33 494.409L1086.22 524.857L1063.11 550.955L1022.67 590.101L999.555 608.95L947.555 645.197L1298.56 1217.9V260.979Z" fill="#95569E" fill-opacity="0.2"/>
<path d="M1220.56 0H858V263.878H1210.44L1213.33 249.379L1216.22 231.981L1217.67 214.582L1219.11 197.184L1220.56 165.286V131.939V0Z" fill="#606C38" fill-opacity="0.2"/>
<path d="M1211.89 260.979H859.444V501.659L949 646.647L969.222 633.598L990.889 619.099L1031.33 585.752L1066 552.405L1097.78 514.708L1125.22 477.011L1151.22 434.964L1170 394.368L1187.33 352.321L1201.78 307.375L1211.89 260.979Z" fill="#FF0303" fill-opacity="0.2"/>
<rect x="439.111" width="421.778" height="498.759" fill="#202A25" fill-opacity="0.2"/>
<path d="M439.111 498.759H860.889L951.889 646.647L918.667 665.495L884 682.894L847.889 697.393L810.333 710.442L771.333 720.591L730.889 727.84L690.445 732.19H650H612.445L573.445 727.84L534.445 720.591L496.889 711.891L459.333 700.292L420.333 684.344L382.778 666.945L346.667 646.647L439.111 498.759Z" fill="#FF9900" fill-opacity="0.2"/>
<path d="M348.111 643.747L384.222 664.045L417.444 679.994L453.556 694.493L488.222 706.092L527.222 716.241L564.778 723.49L606.667 729.29H648.556H687.556L728 724.94L767 717.691L806 707.542L843.556 695.943L881.111 681.444L917.222 664.045L950.444 645.197L1300 1215H0L348.111 643.747Z" fill="#2B378C" fill-opacity="0.2"/>
<g clip-path="url(#clip1_28_1265)">
<path d="M0 0H4.33333V2427.13H0V0Z" fill="#202A25"/>
<path d="M4.33333 0H1295.67V4.33416H4.33333V0Z" fill="#202A25"/>
<path d="M4.33333 1211.4H1295.67V1215.73H4.33333V1211.4Z" fill="#202A25"/>
<path d="M4.33333 2422.8H1295.67V2427.13H4.33333V2422.8Z" fill="#202A25"/>
<path d="M1295.67 0H1300V2427.13H1295.67V0Z" fill="#202A25"/>
<path d="M806 1213.57C806 1299.74 736.156 1369.6 650 1369.6C563.844 1369.6 494 1299.74 494 1213.57C494 1127.39 563.844 1057.54 650 1057.54C736.156 1057.54 806 1127.39 806 1213.57ZM498.68 1213.57C498.68 1297.15 566.428 1364.91 650 1364.91C733.572 1364.91 801.32 1297.15 801.32 1213.57C801.32 1129.98 733.572 1062.22 650 1062.22C566.428 1062.22 498.68 1129.98 498.68 1213.57Z" fill="#202A25"/>
<path d="M806 1924.37C806 2010.54 736.156 2080.4 650 2080.4C563.844 2080.4 494 2010.54 494 1924.37C494 1838.2 563.844 1768.34 650 1768.34C736.156 1768.34 806 1838.2 806 1924.37ZM498.68 1924.37C498.68 2007.96 566.428 2075.72 650 2075.72C733.572 2075.72 801.32 2007.96 801.32 1924.37C801.32 1840.78 733.572 1773.02 650 1773.02C566.428 1773.02 498.68 1840.78 498.68 1924.37Z" fill="#202A25"/>
<path d="M437.667 1924.37H442V2427.13H437.667V1924.37Z" fill="#202A25"/>
<path d="M442 1924.37H858V1928.7H442V1924.37Z" fill="#202A25"/>
<path d="M858 1924.37H862.333V2427.13H858V1924.37Z" fill="#202A25"/>
<path d="M871 2275.44H862.333V2271.1H871V2275.44Z" fill="#202A25"/>
<path d="M871 2197.42H862.333V2162.75H871V2197.42Z" fill="#202A25"/>
<path d="M871 2089.07H862.333V2084.73H871V2089.07Z" fill="#202A25"/>
<path d="M871 2011.05H862.333V2006.72H871V2011.05Z" fill="#202A25"/>
<path d="M437.667 2275.44H429V2271.1H437.667V2275.44Z" fill="#202A25"/>
<path d="M437.667 2197.42H429V2162.75H437.667V2197.42Z" fill="#202A25"/>
<path d="M437.667 2089.07H429V2084.73H437.667V2089.07Z" fill="#202A25"/>
<path d="M437.667 2011.05H429V2006.72H437.667V2011.05Z" fill="#202A25"/>
<path d="M1222.87 2266.33C1222.87 2191.15 1208.06 2116.7 1179.29 2047.23C1150.53 1977.77 1108.36 1914.65 1055.2 1861.48C1002.05 1808.32 938.945 1766.15 869.494 1737.37C800.043 1708.6 725.606 1693.79 650.433 1693.79C575.26 1693.79 500.823 1708.6 431.373 1737.37C361.922 1766.15 298.817 1808.32 245.662 1861.48C192.506 1914.65 150.341 1977.77 121.574 2047.23C92.8064 2116.7 78 2191.15 78 2266.33H82.4078C82.4078 2191.73 97.1002 2117.85 125.646 2048.92C154.192 1979.99 196.033 1917.36 248.779 1864.6C301.525 1811.85 364.143 1770 433.059 1741.45C501.975 1712.89 575.839 1698.2 650.433 1698.2C725.028 1698.2 798.891 1712.89 867.807 1741.45C936.723 1770 999.342 1811.85 1052.09 1864.6C1104.83 1917.36 1146.67 1979.99 1175.22 2048.92C1203.77 2117.85 1218.46 2191.73 1218.46 2266.33H1222.87Z" fill="#202A25"/>
<path d="M78 2266.33H82.3333V2426.7H78V2266.33Z" fill="#202A25"/>
<path d="M1218.53 2266.33H1222.87V2426.7H1218.53V2266.33Z" fill="#202A25"/>
<path d="M806 501.029C806 587.202 736.156 657.059 650 657.059C563.844 657.059 494 587.202 494 501.029C494 414.856 563.844 344.999 650 344.999C736.156 344.999 806 414.856 806 501.029ZM498.68 501.029C498.68 584.617 566.428 652.378 650 652.378C733.572 652.378 801.32 584.617 801.32 501.029C801.32 417.442 733.572 349.68 650 349.68C566.428 349.68 498.68 417.442 498.68 501.029Z" fill="#202A25"/>
<path d="M870.133 419.547H861.467V415.213H870.133V419.547Z" fill="#202A25"/>
<path d="M870.133 341.532H861.467V337.198H870.133V341.532Z" fill="#202A25"/>
<path d="M870.133 263.517H861.467V228.844H870.133V263.517Z" fill="#202A25"/>
<path d="M870.133 155.163H861.467V150.829H870.133V155.163Z" fill="#202A25"/>
<path d="M436.8 0H441.133V502.763H436.8V0Z" fill="#202A25"/>
<path d="M441.133 498.429H857.133V502.763H441.133V498.429Z" fill="#202A25"/>
<path d="M857.133 0H861.467V502.763H857.133V0Z" fill="#202A25"/>
<path d="M437.667 419.547H429V415.213H437.667V419.547Z" fill="#202A25"/>
<path d="M437.667 341.532H429V337.198H437.667V341.532Z" fill="#202A25"/>
<path d="M437.667 263.517H429V228.844H437.667V263.517Z" fill="#202A25"/>
<path d="M437.667 155.163H429V150.829H437.667V155.163Z" fill="#202A25"/>
<path d="M78 160.797C78 235.985 92.8064 310.436 121.574 379.9C150.341 449.364 192.506 512.481 245.662 565.646C298.817 618.812 361.922 660.985 431.373 689.758C500.823 718.531 575.26 733.34 650.433 733.34C725.606 733.34 800.043 718.531 869.494 689.758C938.945 660.985 1002.05 618.812 1055.2 565.646C1108.36 512.481 1150.53 449.364 1179.29 379.9C1208.06 310.436 1222.87 235.985 1222.87 160.797H1218.46C1218.46 235.406 1203.77 309.284 1175.22 378.213C1146.67 447.142 1104.83 509.773 1052.09 562.529C999.342 615.285 936.723 657.134 867.807 685.685C798.891 714.237 725.028 728.932 650.433 728.932C575.839 728.932 501.975 714.237 433.059 685.685C364.143 657.134 301.525 615.285 248.779 562.529C196.033 509.773 154.192 447.142 125.646 378.213C97.1002 309.284 82.4078 235.406 82.4078 160.797H78Z" fill="#202A25"/>
<path d="M1222.87 160.797H1218.53V0.433363H1222.87V160.797Z" fill="#202A25"/>
<path d="M82.3333 160.797L78 160.797V0.433363H82.3333V160.797Z" fill="#202A25"/>
</g>
</g>
<circle cx="230" cy="1211" r="160" fill="white"/>
<mask id="path-14-outside-1_28_1265" maskUnits="userSpaceOnUse" x="69" y="1050" width="322" height="322" fill="black">
<rect fill="white" x="69" y="1050" width="322" height="322"/>
<path d="M390 1211C390 1299.37 318.366 1371 230 1371C141.634 1371 70 1299.37 70 1211C70 1122.63 141.634 1051 230 1051C318.366 1051 390 1122.63 390 1211ZM102 1211C102 1281.69 159.308 1339 230 1339C300.692 1339 358 1281.69 358 1211C358 1140.31 300.692 1083 230 1083C159.308 1083 102 1140.31 102 1211Z"/>
</mask>
<path d="M390 1211C390 1299.37 318.366 1371 230 1371C141.634 1371 70 1299.37 70 1211C70 1122.63 141.634 1051 230 1051C318.366 1051 390 1122.63 390 1211ZM102 1211C102 1281.69 159.308 1339 230 1339C300.692 1339 358 1281.69 358 1211C358 1140.31 300.692 1083 230 1083C159.308 1083 102 1140.31 102 1211Z" fill="#146EB4"/>
<path d="M390 1211C390 1299.37 318.366 1371 230 1371C141.634 1371 70 1299.37 70 1211C70 1122.63 141.634 1051 230 1051C318.366 1051 390 1122.63 390 1211ZM102 1211C102 1281.69 159.308 1339 230 1339C300.692 1339 358 1281.69 358 1211C358 1140.31 300.692 1083 230 1083C159.308 1083 102 1140.31 102 1211Z" stroke="#146EB4" stroke-width="2" mask="url(#path-14-outside-1_28_1265)"/>
<mask id="path-15-inside-2_28_1265" fill="white">
<path d="M390 1211C390 1299.37 318.366 1371 230 1371C141.634 1371 70 1299.37 70 1211C70 1122.63 141.634 1051 230 1051C318.366 1051 390 1122.63 390 1211ZM102 1211C102 1281.69 159.308 1339 230 1339C300.692 1339 358 1281.69 358 1211C358 1140.31 300.692 1083 230 1083C159.308 1083 102 1140.31 102 1211Z"/>
</mask>
<path d="M390 1211C390 1299.37 318.366 1371 230 1371C141.634 1371 70 1299.37 70 1211C70 1122.63 141.634 1051 230 1051C318.366 1051 390 1122.63 390 1211ZM102 1211C102 1281.69 159.308 1339 230 1339C300.692 1339 358 1281.69 358 1211C358 1140.31 300.692 1083 230 1083C159.308 1083 102 1140.31 102 1211Z" fill="#146EB4" stroke="white" stroke-width="8" mask="url(#path-15-inside-2_28_1265)"/>
<mask id="path-16-outside-3_28_1265" maskUnits="userSpaceOnUse" x="66" y="1047" width="328" height="234" fill="black">
<rect fill="white" x="66" y="1047" width="328" height="234"/>
<path d="M70 1211C70 1187.19 75.3125 1163.69 85.5503 1142.19C95.7881 1120.7 110.693 1101.76 129.179 1086.76C147.664 1071.76 169.264 1061.07 192.404 1055.48C215.545 1049.89 239.641 1049.53 262.938 1054.43C286.235 1059.33 308.144 1069.37 327.069 1083.81C345.994 1098.25 361.458 1116.74 372.332 1137.91C383.207 1159.09 389.218 1182.43 389.929 1206.23C390.639 1230.02 386.03 1253.68 376.439 1275.47L347.151 1262.57C354.824 1245.14 358.511 1226.22 357.943 1207.18C357.375 1188.14 352.565 1169.47 343.866 1152.53C335.166 1135.59 322.795 1120.8 307.655 1109.25C292.515 1097.69 274.988 1089.66 256.35 1085.74C237.713 1081.82 218.436 1082.11 199.924 1086.58C181.411 1091.06 164.131 1099.61 149.343 1111.61C134.554 1123.61 122.63 1138.76 114.44 1155.96C106.25 1173.15 102 1191.95 102 1211L70 1211Z"/>
</mask>
<path d="M70 1211C70 1187.19 75.3125 1163.69 85.5503 1142.19C95.7881 1120.7 110.693 1101.76 129.179 1086.76C147.664 1071.76 169.264 1061.07 192.404 1055.48C215.545 1049.89 239.641 1049.53 262.938 1054.43C286.235 1059.33 308.144 1069.37 327.069 1083.81C345.994 1098.25 361.458 1116.74 372.332 1137.91C383.207 1159.09 389.218 1182.43 389.929 1206.23C390.639 1230.02 386.03 1253.68 376.439 1275.47L347.151 1262.57C354.824 1245.14 358.511 1226.22 357.943 1207.18C357.375 1188.14 352.565 1169.47 343.866 1152.53C335.166 1135.59 322.795 1120.8 307.655 1109.25C292.515 1097.69 274.988 1089.66 256.35 1085.74C237.713 1081.82 218.436 1082.11 199.924 1086.58C181.411 1091.06 164.131 1099.61 149.343 1111.61C134.554 1123.61 122.63 1138.76 114.44 1155.96C106.25 1173.15 102 1191.95 102 1211L70 1211Z" fill="#146EB4"/>
<path d="M70 1211C70 1187.19 75.3125 1163.69 85.5503 1142.19C95.7881 1120.7 110.693 1101.76 129.179 1086.76C147.664 1071.76 169.264 1061.07 192.404 1055.48C215.545 1049.89 239.641 1049.53 262.938 1054.43C286.235 1059.33 308.144 1069.37 327.069 1083.81C345.994 1098.25 361.458 1116.74 372.332 1137.91C383.207 1159.09 389.218 1182.43 389.929 1206.23C390.639 1230.02 386.03 1253.68 376.439 1275.47L347.151 1262.57C354.824 1245.14 358.511 1226.22 357.943 1207.18C357.375 1188.14 352.565 1169.47 343.866 1152.53C335.166 1135.59 322.795 1120.8 307.655 1109.25C292.515 1097.69 274.988 1089.66 256.35 1085.74C237.713 1081.82 218.436 1082.11 199.924 1086.58C181.411 1091.06 164.131 1099.61 149.343 1111.61C134.554 1123.61 122.63 1138.76 114.44 1155.96C106.25 1173.15 102 1191.95 102 1211L70 1211Z" stroke="#FF0303" stroke-width="8" mask="url(#path-16-outside-3_28_1265)"/>
<path d="M70 1211C70 1187.19 75.3125 1163.69 85.5503 1142.19C95.7881 1120.7 110.693 1101.76 129.179 1086.76C147.664 1071.76 169.264 1061.07 192.404 1055.48C215.545 1049.89 239.641 1049.53 262.938 1054.43C286.235 1059.33 308.144 1069.37 327.069 1083.81C345.994 1098.25 361.458 1116.74 372.332 1137.91C383.207 1159.09 389.218 1182.43 389.929 1206.23C390.639 1230.02 386.03 1253.68 376.439 1275.47L347.151 1262.57C354.824 1245.14 358.511 1226.22 357.943 1207.18C357.375 1188.14 352.565 1169.47 343.866 1152.53C335.166 1135.59 322.795 1120.8 307.655 1109.25C292.515 1097.69 274.988 1089.66 256.35 1085.74C237.713 1081.82 218.436 1082.11 199.924 1086.58C181.411 1091.06 164.131 1099.61 149.343 1111.61C134.554 1123.61 122.63 1138.76 114.44 1155.96C106.25 1173.15 102 1191.95 102 1211L70 1211Z" stroke="black" stroke-opacity="0.2" stroke-width="8" mask="url(#path-16-outside-3_28_1265)"/>
<mask id="path-17-inside-4_28_1265" fill="white">
<path d="M70 1211C70 1187.19 75.3125 1163.69 85.5503 1142.19C95.7881 1120.7 110.693 1101.76 129.179 1086.76C147.664 1071.76 169.264 1061.07 192.404 1055.48C215.545 1049.89 239.641 1049.53 262.938 1054.43C286.235 1059.33 308.144 1069.37 327.069 1083.81C345.994 1098.25 361.458 1116.74 372.332 1137.91C383.207 1159.09 389.218 1182.43 389.929 1206.23C390.639 1230.02 386.03 1253.68 376.439 1275.47L347.151 1262.57C354.824 1245.14 358.511 1226.22 357.943 1207.18C357.375 1188.14 352.565 1169.47 343.866 1152.53C335.166 1135.59 322.795 1120.8 307.655 1109.25C292.515 1097.69 274.988 1089.66 256.35 1085.74C237.713 1081.82 218.436 1082.11 199.924 1086.58C181.411 1091.06 164.131 1099.61 149.343 1111.61C134.554 1123.61 122.63 1138.76 114.44 1155.96C106.25 1173.15 102 1191.95 102 1211L70 1211Z"/>
</mask>
<path d="M70 1211C70 1187.19 75.3125 1163.69 85.5503 1142.19C95.7881 1120.7 110.693 1101.76 129.179 1086.76C147.664 1071.76 169.264 1061.07 192.404 1055.48C215.545 1049.89 239.641 1049.53 262.938 1054.43C286.235 1059.33 308.144 1069.37 327.069 1083.81C345.994 1098.25 361.458 1116.74 372.332 1137.91C383.207 1159.09 389.218 1182.43 389.929 1206.23C390.639 1230.02 386.03 1253.68 376.439 1275.47L347.151 1262.57C354.824 1245.14 358.511 1226.22 357.943 1207.18C357.375 1188.14 352.565 1169.47 343.866 1152.53C335.166 1135.59 322.795 1120.8 307.655 1109.25C292.515 1097.69 274.988 1089.66 256.35 1085.74C237.713 1081.82 218.436 1082.11 199.924 1086.58C181.411 1091.06 164.131 1099.61 149.343 1111.61C134.554 1123.61 122.63 1138.76 114.44 1155.96C106.25 1173.15 102 1191.95 102 1211L70 1211Z" fill="#FF0303"/>
<path d="M70 1211C70 1187.19 75.3125 1163.69 85.5503 1142.19C95.7881 1120.7 110.693 1101.76 129.179 1086.76C147.664 1071.76 169.264 1061.07 192.404 1055.48C215.545 1049.89 239.641 1049.53 262.938 1054.43C286.235 1059.33 308.144 1069.37 327.069 1083.81C345.994 1098.25 361.458 1116.74 372.332 1137.91C383.207 1159.09 389.218 1182.43 389.929 1206.23C390.639 1230.02 386.03 1253.68 376.439 1275.47L347.151 1262.57C354.824 1245.14 358.511 1226.22 357.943 1207.18C357.375 1188.14 352.565 1169.47 343.866 1152.53C335.166 1135.59 322.795 1120.8 307.655 1109.25C292.515 1097.69 274.988 1089.66 256.35 1085.74C237.713 1081.82 218.436 1082.11 199.924 1086.58C181.411 1091.06 164.131 1099.61 149.343 1111.61C134.554 1123.61 122.63 1138.76 114.44 1155.96C106.25 1173.15 102 1191.95 102 1211L70 1211Z" fill="black" fill-opacity="0.2"/>
<path d="M70 1211C70 1187.19 75.3125 1163.69 85.5503 1142.19C95.7881 1120.7 110.693 1101.76 129.179 1086.76C147.664 1071.76 169.264 1061.07 192.404 1055.48C215.545 1049.89 239.641 1049.53 262.938 1054.43C286.235 1059.33 308.144 1069.37 327.069 1083.81C345.994 1098.25 361.458 1116.74 372.332 1137.91C383.207 1159.09 389.218 1182.43 389.929 1206.23C390.639 1230.02 386.03 1253.68 376.439 1275.47L347.151 1262.57C354.824 1245.14 358.511 1226.22 357.943 1207.18C357.375 1188.14 352.565 1169.47 343.866 1152.53C335.166 1135.59 322.795 1120.8 307.655 1109.25C292.515 1097.69 274.988 1089.66 256.35 1085.74C237.713 1081.82 218.436 1082.11 199.924 1086.58C181.411 1091.06 164.131 1099.61 149.343 1111.61C134.554 1123.61 122.63 1138.76 114.44 1155.96C106.25 1173.15 102 1191.95 102 1211L70 1211Z" stroke="white" stroke-width="8" mask="url(#path-17-inside-4_28_1265)"/>
<path d="M139.744 1165H131.365V1163.05L135.213 1158.15C135.701 1157.48 136.059 1156.89 136.287 1156.38C136.522 1155.86 136.639 1155.37 136.639 1154.9C136.639 1154.27 136.528 1153.78 136.307 1153.42C136.092 1153.06 135.779 1152.88 135.369 1152.88C134.92 1152.88 134.562 1153.09 134.295 1153.51C134.035 1153.92 133.904 1154.51 133.904 1155.26H131.131C131.131 1154.39 131.31 1153.59 131.668 1152.87C132.033 1152.15 132.54 1151.59 133.192 1151.19C133.849 1150.79 134.591 1150.59 135.418 1150.59C136.688 1150.59 137.671 1150.94 138.367 1151.64C139.07 1152.34 139.422 1153.33 139.422 1154.62C139.422 1155.42 139.227 1156.23 138.836 1157.06C138.452 1157.88 137.752 1158.89 136.736 1160.1L134.91 1162.71H139.744V1165ZM146.971 1160.06H142.196V1157.75H146.971V1160.06ZM154.296 1155.66L156.21 1150.78H159.501L156.161 1157.83L159.579 1165H156.249L154.296 1160.03L152.353 1165H149.023L152.441 1157.83L149.091 1150.78H152.382L154.296 1155.66ZM176.534 1159.17C176.534 1161.08 176.081 1162.56 175.176 1163.61C174.278 1164.67 173.028 1165.2 171.426 1165.2C169.831 1165.2 168.578 1164.67 167.666 1163.63C166.755 1162.58 166.293 1161.12 166.28 1159.24V1156.81C166.28 1154.85 166.732 1153.33 167.637 1152.24C168.542 1151.14 169.799 1150.59 171.407 1150.59C172.989 1150.59 174.235 1151.13 175.147 1152.21C176.058 1153.28 176.521 1154.79 176.534 1156.74V1159.17ZM173.653 1156.79C173.653 1155.5 173.47 1154.55 173.106 1153.93C172.741 1153.3 172.175 1152.99 171.407 1152.99C170.645 1152.99 170.082 1153.29 169.717 1153.9C169.353 1154.5 169.164 1155.41 169.151 1156.64V1159.17C169.151 1160.41 169.336 1161.33 169.707 1161.92C170.078 1162.51 170.651 1162.8 171.426 1162.8C172.175 1162.8 172.731 1162.52 173.096 1161.94C173.461 1161.36 173.646 1160.47 173.653 1159.26V1156.79ZM188.956 1150.78V1165H186.085V1159.64C185.323 1159.81 184.607 1159.89 183.936 1159.89C182.387 1159.89 181.205 1159.5 180.392 1158.72C179.578 1157.94 179.155 1156.81 179.122 1155.34V1150.78H182.003V1155.19C182.003 1156.02 182.143 1156.61 182.423 1156.97C182.709 1157.33 183.214 1157.51 183.936 1157.51C184.633 1157.51 185.349 1157.43 186.085 1157.26V1150.78H188.956ZM195.841 1159.2H194.591V1165H191.72V1150.78H194.591V1156.47H195.558L198.029 1150.78H201.525L198.048 1157.4L201.916 1165H198.498L195.841 1159.2ZM213.127 1159.17C213.127 1161.08 212.675 1162.56 211.77 1163.61C210.871 1164.67 209.621 1165.2 208.02 1165.2C206.425 1165.2 205.171 1164.67 204.26 1163.63C203.348 1162.58 202.886 1161.12 202.873 1159.24V1156.81C202.873 1154.85 203.326 1153.33 204.231 1152.24C205.135 1151.14 206.392 1150.59 208 1150.59C209.582 1150.59 210.829 1151.13 211.74 1152.21C212.652 1153.28 213.114 1154.79 213.127 1156.74V1159.17ZM210.246 1156.79C210.246 1155.5 210.064 1154.55 209.699 1153.93C209.335 1153.3 208.768 1152.99 208 1152.99C207.238 1152.99 206.675 1153.29 206.311 1153.9C205.946 1154.5 205.757 1155.41 205.744 1156.64V1159.17C205.744 1160.41 205.93 1161.33 206.301 1161.92C206.672 1162.51 207.245 1162.8 208.02 1162.8C208.768 1162.8 209.325 1162.52 209.689 1161.94C210.054 1161.36 210.24 1160.47 210.246 1159.26V1156.79ZM215.628 1165V1150.78H220.022C221.506 1150.78 222.633 1151.11 223.401 1151.78C224.176 1152.44 224.563 1153.4 224.563 1154.68C224.563 1155.4 224.404 1156.02 224.085 1156.54C223.766 1157.06 223.329 1157.44 222.776 1157.69C223.414 1157.87 223.906 1158.24 224.251 1158.79C224.596 1159.34 224.768 1160.01 224.768 1160.82C224.768 1162.2 224.387 1163.24 223.626 1163.95C222.87 1164.65 221.773 1165 220.335 1165H215.628ZM218.499 1158.82V1162.62H220.335C220.849 1162.62 221.24 1162.46 221.506 1162.14C221.773 1161.82 221.907 1161.37 221.907 1160.78C221.907 1159.51 221.445 1158.85 220.52 1158.82H218.499ZM218.499 1156.73H219.993C221.119 1156.73 221.682 1156.15 221.682 1154.98C221.682 1154.34 221.552 1153.87 221.292 1153.59C221.031 1153.31 220.608 1153.17 220.022 1153.17H218.499V1156.73ZM230.208 1155.89H231.907C233.346 1155.89 234.492 1156.3 235.345 1157.12C236.198 1157.93 236.624 1159.02 236.624 1160.39C236.624 1161.75 236.208 1162.86 235.374 1163.7C234.541 1164.54 233.437 1164.97 232.064 1165H227.327V1150.78H230.208V1155.89ZM240.237 1165H237.366V1150.78H240.237V1165ZM230.208 1158.27V1162.62H231.946C232.506 1162.62 232.946 1162.41 233.265 1161.99C233.59 1161.57 233.753 1161.03 233.753 1160.37C233.753 1159.75 233.594 1159.25 233.275 1158.87C232.962 1158.48 232.526 1158.28 231.966 1158.27H230.208ZM250.336 1158.85H245.863V1162.62H251.156V1165H242.992V1150.78H251.136V1153.17H245.863V1156.53H250.336V1158.85ZM266.274 1153.17H261.177V1155.89H262.876C264.315 1155.89 265.46 1156.3 266.313 1157.12C267.166 1157.93 267.593 1159.02 267.593 1160.39C267.593 1161.75 267.176 1162.86 266.343 1163.7C265.509 1164.54 264.406 1164.97 263.032 1165H258.296V1150.78H266.274V1153.17ZM261.177 1158.27V1162.62H262.915C263.475 1162.62 263.914 1162.41 264.233 1161.99C264.559 1161.57 264.722 1161.03 264.722 1160.37C264.722 1159.75 264.562 1159.25 264.243 1158.87C263.931 1158.48 263.494 1158.28 262.934 1158.27H261.177ZM272.535 1160V1165H269.663V1150.78H274.507C275.913 1150.78 277.033 1151.22 277.867 1152.09C278.706 1152.96 279.126 1154.1 279.126 1155.49C279.126 1156.88 278.713 1157.98 277.886 1158.79C277.059 1159.6 275.913 1160 274.449 1160H272.535ZM272.535 1157.61H274.507C275.054 1157.61 275.477 1157.43 275.777 1157.07C276.076 1156.71 276.226 1156.19 276.226 1155.51C276.226 1154.8 276.073 1154.24 275.767 1153.82C275.461 1153.4 275.051 1153.18 274.537 1153.17H272.535V1157.61ZM291.5 1159.17C291.5 1161.08 291.047 1162.56 290.143 1163.61C289.244 1164.67 287.994 1165.2 286.393 1165.2C284.797 1165.2 283.544 1164.67 282.633 1163.63C281.721 1162.58 281.259 1161.12 281.246 1159.24V1156.81C281.246 1154.85 281.699 1153.33 282.603 1152.24C283.508 1151.14 284.765 1150.59 286.373 1150.59C287.955 1150.59 289.202 1151.13 290.113 1152.21C291.025 1153.28 291.487 1154.79 291.5 1156.74V1159.17ZM288.619 1156.79C288.619 1155.5 288.437 1154.55 288.072 1153.93C287.708 1153.3 287.141 1152.99 286.373 1152.99C285.611 1152.99 285.048 1153.29 284.684 1153.9C284.319 1154.5 284.13 1155.41 284.117 1156.64V1159.17C284.117 1160.41 284.303 1161.33 284.674 1161.92C285.045 1162.51 285.618 1162.8 286.393 1162.8C287.141 1162.8 287.698 1162.52 288.062 1161.94C288.427 1161.36 288.613 1160.47 288.619 1159.26V1156.79ZM303.639 1160.26C303.568 1161.89 303.112 1163.11 302.272 1163.95C301.432 1164.78 300.247 1165.2 298.717 1165.2C297.109 1165.2 295.876 1164.67 295.016 1163.61C294.163 1162.55 293.737 1161.04 293.737 1159.08V1156.69C293.737 1154.74 294.18 1153.23 295.065 1152.18C295.95 1151.12 297.181 1150.59 298.756 1150.59C300.306 1150.59 301.481 1151.02 302.282 1151.89C303.089 1152.75 303.548 1153.99 303.659 1155.62H300.778C300.752 1154.61 300.596 1153.92 300.309 1153.55C300.029 1153.16 299.512 1152.97 298.756 1152.97C297.988 1152.97 297.445 1153.24 297.126 1153.78C296.807 1154.31 296.637 1155.2 296.618 1156.43V1159.11C296.618 1160.52 296.774 1161.49 297.086 1162.02C297.405 1162.55 297.949 1162.81 298.717 1162.81C299.473 1162.81 299.993 1162.63 300.28 1162.27C300.566 1161.89 300.729 1161.23 300.768 1160.26H303.639ZM309.987 1159.2H308.737V1165H305.866V1150.78H308.737V1156.47H309.704L312.175 1150.78H315.671L312.194 1157.4L316.062 1165H312.644L309.987 1159.2ZM324.539 1150.78H327.41V1165H324.539V1155.59L320.349 1165H317.468V1150.78H320.349V1160.21L324.539 1150.78Z" fill="#202A25"/>
<circle cx="650" cy="1211" r="160" fill="white"/>
<mask id="path-20-outside-5_28_1265" maskUnits="userSpaceOnUse" x="489" y="1050" width="322" height="322" fill="black">
<rect fill="white" x="489" y="1050" width="322" height="322"/>
<path d="M810 1211C810 1299.37 738.366 1371 650 1371C561.634 1371 490 1299.37 490 1211C490 1122.63 561.634 1051 650 1051C738.366 1051 810 1122.63 810 1211ZM522 1211C522 1281.69 579.308 1339 650 1339C720.692 1339 778 1281.69 778 1211C778 1140.31 720.692 1083 650 1083C579.308 1083 522 1140.31 522 1211Z"/>
</mask>
<path d="M810 1211C810 1299.37 738.366 1371 650 1371C561.634 1371 490 1299.37 490 1211C490 1122.63 561.634 1051 650 1051C738.366 1051 810 1122.63 810 1211ZM522 1211C522 1281.69 579.308 1339 650 1339C720.692 1339 778 1281.69 778 1211C778 1140.31 720.692 1083 650 1083C579.308 1083 522 1140.31 522 1211Z" fill="#146EB4"/>
<path d="M810 1211C810 1299.37 738.366 1371 650 1371C561.634 1371 490 1299.37 490 1211C490 1122.63 561.634 1051 650 1051C738.366 1051 810 1122.63 810 1211ZM522 1211C522 1281.69 579.308 1339 650 1339C720.692 1339 778 1281.69 778 1211C778 1140.31 720.692 1083 650 1083C579.308 1083 522 1140.31 522 1211Z" stroke="#146EB4" stroke-width="2" mask="url(#path-20-outside-5_28_1265)"/>
<mask id="path-21-inside-6_28_1265" fill="white">
<path d="M810 1211C810 1299.37 738.366 1371 650 1371C561.634 1371 490 1299.37 490 1211C490 1122.63 561.634 1051 650 1051C738.366 1051 810 1122.63 810 1211ZM522 1211C522 1281.69 579.308 1339 650 1339C720.692 1339 778 1281.69 778 1211C778 1140.31 720.692 1083 650 1083C579.308 1083 522 1140.31 522 1211Z"/>
</mask>
<path d="M810 1211C810 1299.37 738.366 1371 650 1371C561.634 1371 490 1299.37 490 1211C490 1122.63 561.634 1051 650 1051C738.366 1051 810 1122.63 810 1211ZM522 1211C522 1281.69 579.308 1339 650 1339C720.692 1339 778 1281.69 778 1211C778 1140.31 720.692 1083 650 1083C579.308 1083 522 1140.31 522 1211Z" fill="#146EB4" stroke="white" stroke-width="8" mask="url(#path-21-inside-6_28_1265)"/>
<mask id="path-22-outside-7_28_1265" maskUnits="userSpaceOnUse" x="486" y="1047" width="288" height="168" fill="black">
<rect fill="white" x="486" y="1047" width="288" height="168"/>
<path d="M490 1211C490 1178.76 499.742 1147.26 517.95 1120.65C536.158 1094.04 561.982 1073.55 592.036 1061.87C622.09 1050.19 654.973 1047.86 686.373 1055.19C717.773 1062.52 746.226 1079.17 768.002 1102.95L744.402 1124.56C726.981 1105.53 704.219 1092.22 679.098 1086.35C653.978 1080.49 627.672 1082.35 603.629 1091.69C579.585 1101.04 558.927 1117.43 544.36 1138.72C529.794 1160.01 522 1185.2 522 1211L490 1211Z"/>
</mask>
<path d="M490 1211C490 1178.76 499.742 1147.26 517.95 1120.65C536.158 1094.04 561.982 1073.55 592.036 1061.87C622.09 1050.19 654.973 1047.86 686.373 1055.19C717.773 1062.52 746.226 1079.17 768.002 1102.95L744.402 1124.56C726.981 1105.53 704.219 1092.22 679.098 1086.35C653.978 1080.49 627.672 1082.35 603.629 1091.69C579.585 1101.04 558.927 1117.43 544.36 1138.72C529.794 1160.01 522 1185.2 522 1211L490 1211Z" fill="#146EB4"/>
<path d="M490 1211C490 1178.76 499.742 1147.26 517.95 1120.65C536.158 1094.04 561.982 1073.55 592.036 1061.87C622.09 1050.19 654.973 1047.86 686.373 1055.19C717.773 1062.52 746.226 1079.17 768.002 1102.95L744.402 1124.56C726.981 1105.53 704.219 1092.22 679.098 1086.35C653.978 1080.49 627.672 1082.35 603.629 1091.69C579.585 1101.04 558.927 1117.43 544.36 1138.72C529.794 1160.01 522 1185.2 522 1211L490 1211Z" stroke="#FF0303" stroke-width="8" mask="url(#path-22-outside-7_28_1265)"/>
<path d="M490 1211C490 1178.76 499.742 1147.26 517.95 1120.65C536.158 1094.04 561.982 1073.55 592.036 1061.87C622.09 1050.19 654.973 1047.86 686.373 1055.19C717.773 1062.52 746.226 1079.17 768.002 1102.95L744.402 1124.56C726.981 1105.53 704.219 1092.22 679.098 1086.35C653.978 1080.49 627.672 1082.35 603.629 1091.69C579.585 1101.04 558.927 1117.43 544.36 1138.72C529.794 1160.01 522 1185.2 522 1211L490 1211Z" stroke="black" stroke-opacity="0.2" stroke-width="8" mask="url(#path-22-outside-7_28_1265)"/>
<mask id="path-23-inside-8_28_1265" fill="white">
<path d="M490 1211C490 1178.76 499.742 1147.26 517.95 1120.65C536.158 1094.04 561.982 1073.55 592.036 1061.87C622.09 1050.19 654.973 1047.86 686.373 1055.19C717.773 1062.52 746.226 1079.17 768.002 1102.95L744.402 1124.56C726.981 1105.53 704.219 1092.22 679.098 1086.35C653.978 1080.49 627.672 1082.35 603.629 1091.69C579.585 1101.04 558.927 1117.43 544.36 1138.72C529.794 1160.01 522 1185.2 522 1211L490 1211Z"/>
</mask>
<path d="M490 1211C490 1178.76 499.742 1147.26 517.95 1120.65C536.158 1094.04 561.982 1073.55 592.036 1061.87C622.09 1050.19 654.973 1047.86 686.373 1055.19C717.773 1062.52 746.226 1079.17 768.002 1102.95L744.402 1124.56C726.981 1105.53 704.219 1092.22 679.098 1086.35C653.978 1080.49 627.672 1082.35 603.629 1091.69C579.585 1101.04 558.927 1117.43 544.36 1138.72C529.794 1160.01 522 1185.2 522 1211L490 1211Z" fill="#FF0303"/>
<path d="M490 1211C490 1178.76 499.742 1147.26 517.95 1120.65C536.158 1094.04 561.982 1073.55 592.036 1061.87C622.09 1050.19 654.973 1047.86 686.373 1055.19C717.773 1062.52 746.226 1079.17 768.002 1102.95L744.402 1124.56C726.981 1105.53 704.219 1092.22 679.098 1086.35C653.978 1080.49 627.672 1082.35 603.629 1091.69C579.585 1101.04 558.927 1117.43 544.36 1138.72C529.794 1160.01 522 1185.2 522 1211L490 1211Z" fill="black" fill-opacity="0.2"/>
<path d="M490 1211C490 1178.76 499.742 1147.26 517.95 1120.65C536.158 1094.04 561.982 1073.55 592.036 1061.87C622.09 1050.19 654.973 1047.86 686.373 1055.19C717.773 1062.52 746.226 1079.17 768.002 1102.95L744.402 1124.56C726.981 1105.53 704.219 1092.22 679.098 1086.35C653.978 1080.49 627.672 1082.35 603.629 1091.69C579.585 1101.04 558.927 1117.43 544.36 1138.72C529.794 1160.01 522 1185.2 522 1211L490 1211Z" stroke="white" stroke-width="8" mask="url(#path-23-inside-8_28_1265)"/>
<path d="M553.826 1156.63H555.164C555.672 1156.63 556.043 1156.46 556.277 1156.1C556.518 1155.75 556.639 1155.27 556.639 1154.68C556.639 1154.11 556.515 1153.67 556.268 1153.36C556.027 1153.04 555.701 1152.88 555.291 1152.88C554.907 1152.88 554.591 1153.03 554.344 1153.33C554.103 1153.63 553.983 1154.01 553.983 1154.46H551.219C551.219 1153.72 551.388 1153.06 551.727 1152.47C552.072 1151.88 552.55 1151.42 553.162 1151.08C553.781 1150.75 554.464 1150.59 555.213 1150.59C556.522 1150.59 557.547 1150.95 558.289 1151.67C559.031 1152.39 559.402 1153.38 559.402 1154.64C559.402 1155.28 559.233 1155.88 558.895 1156.44C558.563 1156.98 558.123 1157.4 557.576 1157.7C558.247 1157.98 558.745 1158.41 559.07 1158.98C559.402 1159.56 559.568 1160.23 559.568 1161.02C559.568 1162.28 559.165 1163.29 558.358 1164.05C557.557 1164.81 556.502 1165.2 555.193 1165.2C553.976 1165.2 552.986 1164.82 552.225 1164.07C551.47 1163.32 551.092 1162.33 551.092 1161.1H553.856C553.856 1161.61 553.989 1162.04 554.256 1162.38C554.523 1162.73 554.861 1162.9 555.272 1162.9C555.747 1162.9 556.121 1162.72 556.395 1162.37C556.675 1162.02 556.815 1161.55 556.815 1160.97C556.815 1159.57 556.271 1158.86 555.184 1158.86H553.826V1156.63ZM566.971 1160.06H562.196V1157.75H566.971V1160.06ZM574.296 1155.66L576.21 1150.78H579.501L576.161 1157.83L579.579 1165H576.249L574.296 1160.03L572.353 1165H569.023L572.441 1157.83L569.091 1150.78H572.382L574.296 1155.66ZM596.534 1159.17C596.534 1161.08 596.081 1162.56 595.176 1163.61C594.278 1164.67 593.028 1165.2 591.426 1165.2C589.831 1165.2 588.578 1164.67 587.666 1163.63C586.755 1162.58 586.293 1161.12 586.28 1159.24V1156.81C586.28 1154.85 586.732 1153.33 587.637 1152.24C588.542 1151.14 589.799 1150.59 591.407 1150.59C592.989 1150.59 594.235 1151.13 595.147 1152.21C596.058 1153.28 596.521 1154.79 596.534 1156.74V1159.17ZM593.653 1156.79C593.653 1155.5 593.47 1154.55 593.106 1153.93C592.741 1153.3 592.175 1152.99 591.407 1152.99C590.645 1152.99 590.082 1153.29 589.717 1153.9C589.353 1154.5 589.164 1155.41 589.151 1156.64V1159.17C589.151 1160.41 589.336 1161.33 589.707 1161.92C590.078 1162.51 590.651 1162.8 591.426 1162.8C592.175 1162.8 592.731 1162.52 593.096 1161.94C593.461 1161.36 593.646 1160.47 593.653 1159.26V1156.79ZM608.956 1150.78V1165H606.085V1159.64C605.323 1159.81 604.607 1159.89 603.936 1159.89C602.387 1159.89 601.205 1159.5 600.392 1158.72C599.578 1157.94 599.155 1156.81 599.122 1155.34V1150.78H602.003V1155.19C602.003 1156.02 602.143 1156.61 602.423 1156.97C602.709 1157.33 603.214 1157.51 603.936 1157.51C604.633 1157.51 605.349 1157.43 606.085 1157.26V1150.78H608.956ZM615.841 1159.2H614.591V1165H611.72V1150.78H614.591V1156.47H615.558L618.029 1150.78H621.525L618.048 1157.4L621.916 1165H618.498L615.841 1159.2ZM633.127 1159.17C633.127 1161.08 632.675 1162.56 631.77 1163.61C630.871 1164.67 629.621 1165.2 628.02 1165.2C626.425 1165.2 625.171 1164.67 624.26 1163.63C623.348 1162.58 622.886 1161.12 622.873 1159.24V1156.81C622.873 1154.85 623.326 1153.33 624.231 1152.24C625.135 1151.14 626.392 1150.59 628 1150.59C629.582 1150.59 630.829 1151.13 631.74 1152.21C632.652 1153.28 633.114 1154.79 633.127 1156.74V1159.17ZM630.246 1156.79C630.246 1155.5 630.064 1154.55 629.699 1153.93C629.335 1153.3 628.768 1152.99 628 1152.99C627.238 1152.99 626.675 1153.29 626.311 1153.9C625.946 1154.5 625.757 1155.41 625.744 1156.64V1159.17C625.744 1160.41 625.93 1161.33 626.301 1161.92C626.672 1162.51 627.245 1162.8 628.02 1162.8C628.768 1162.8 629.325 1162.52 629.689 1161.94C630.054 1161.36 630.24 1160.47 630.246 1159.26V1156.79ZM635.628 1165V1150.78H640.022C641.506 1150.78 642.633 1151.11 643.401 1151.78C644.176 1152.44 644.563 1153.4 644.563 1154.68C644.563 1155.4 644.404 1156.02 644.085 1156.54C643.766 1157.06 643.329 1157.44 642.776 1157.69C643.414 1157.87 643.906 1158.24 644.251 1158.79C644.596 1159.34 644.768 1160.01 644.768 1160.82C644.768 1162.2 644.387 1163.24 643.626 1163.95C642.87 1164.65 641.773 1165 640.335 1165H635.628ZM638.499 1158.82V1162.62H640.335C640.849 1162.62 641.24 1162.46 641.506 1162.14C641.773 1161.82 641.907 1161.37 641.907 1160.78C641.907 1159.51 641.445 1158.85 640.52 1158.82H638.499ZM638.499 1156.73H639.993C641.119 1156.73 641.682 1156.15 641.682 1154.98C641.682 1154.34 641.552 1153.87 641.292 1153.59C641.031 1153.31 640.608 1153.17 640.022 1153.17H638.499V1156.73ZM650.208 1155.89H651.907C653.346 1155.89 654.492 1156.3 655.345 1157.12C656.198 1157.93 656.624 1159.02 656.624 1160.39C656.624 1161.75 656.208 1162.86 655.374 1163.7C654.541 1164.54 653.437 1164.97 652.064 1165H647.327V1150.78H650.208V1155.89ZM660.237 1165H657.366V1150.78H660.237V1165ZM650.208 1158.27V1162.62H651.946C652.506 1162.62 652.946 1162.41 653.265 1161.99C653.59 1161.57 653.753 1161.03 653.753 1160.37C653.753 1159.75 653.594 1159.25 653.275 1158.87C652.962 1158.48 652.526 1158.28 651.966 1158.27H650.208ZM670.336 1158.85H665.863V1162.62H671.156V1165H662.992V1150.78H671.136V1153.17H665.863V1156.53H670.336V1158.85ZM686.274 1153.17H681.177V1155.89H682.876C684.315 1155.89 685.46 1156.3 686.313 1157.12C687.166 1157.93 687.593 1159.02 687.593 1160.39C687.593 1161.75 687.176 1162.86 686.343 1163.7C685.509 1164.54 684.406 1164.97 683.032 1165H678.296V1150.78H686.274V1153.17ZM681.177 1158.27V1162.62H682.915C683.475 1162.62 683.914 1162.41 684.233 1161.99C684.559 1161.57 684.722 1161.03 684.722 1160.37C684.722 1159.75 684.562 1159.25 684.243 1158.87C683.931 1158.48 683.494 1158.28 682.934 1158.27H681.177ZM692.535 1160V1165H689.663V1150.78H694.507C695.913 1150.78 697.033 1151.22 697.867 1152.09C698.706 1152.96 699.126 1154.1 699.126 1155.49C699.126 1156.88 698.713 1157.98 697.886 1158.79C697.059 1159.6 695.913 1160 694.449 1160H692.535ZM692.535 1157.61H694.507C695.054 1157.61 695.477 1157.43 695.777 1157.07C696.076 1156.71 696.226 1156.19 696.226 1155.51C696.226 1154.8 696.073 1154.24 695.767 1153.82C695.461 1153.4 695.051 1153.18 694.537 1153.17H692.535V1157.61ZM711.5 1159.17C711.5 1161.08 711.047 1162.56 710.143 1163.61C709.244 1164.67 707.994 1165.2 706.393 1165.2C704.797 1165.2 703.544 1164.67 702.633 1163.63C701.721 1162.58 701.259 1161.12 701.246 1159.24V1156.81C701.246 1154.85 701.699 1153.33 702.603 1152.24C703.508 1151.14 704.765 1150.59 706.373 1150.59C707.955 1150.59 709.202 1151.13 710.113 1152.21C711.025 1153.28 711.487 1154.79 711.5 1156.74V1159.17ZM708.619 1156.79C708.619 1155.5 708.437 1154.55 708.072 1153.93C707.708 1153.3 707.141 1152.99 706.373 1152.99C705.611 1152.99 705.048 1153.29 704.684 1153.9C704.319 1154.5 704.13 1155.41 704.117 1156.64V1159.17C704.117 1160.41 704.303 1161.33 704.674 1161.92C705.045 1162.51 705.618 1162.8 706.393 1162.8C707.141 1162.8 707.698 1162.52 708.062 1161.94C708.427 1161.36 708.613 1160.47 708.619 1159.26V1156.79ZM723.639 1160.26C723.568 1161.89 723.112 1163.11 722.272 1163.95C721.432 1164.78 720.247 1165.2 718.717 1165.2C717.109 1165.2 715.876 1164.67 715.016 1163.61C714.163 1162.55 713.737 1161.04 713.737 1159.08V1156.69C713.737 1154.74 714.18 1153.23 715.065 1152.18C715.95 1151.12 717.181 1150.59 718.756 1150.59C720.306 1150.59 721.481 1151.02 722.282 1151.89C723.089 1152.75 723.548 1153.99 723.659 1155.62H720.778C720.752 1154.61 720.596 1153.92 720.309 1153.55C720.029 1153.16 719.512 1152.97 718.756 1152.97C717.988 1152.97 717.445 1153.24 717.126 1153.78C716.807 1154.31 716.637 1155.2 716.618 1156.43V1159.11C716.618 1160.52 716.774 1161.49 717.086 1162.02C717.405 1162.55 717.949 1162.81 718.717 1162.81C719.473 1162.81 719.993 1162.63 720.28 1162.27C720.566 1161.89 720.729 1161.23 720.768 1160.26H723.639ZM729.987 1159.2H728.737V1165H725.866V1150.78H728.737V1156.47H729.704L732.175 1150.78H735.671L732.194 1157.4L736.062 1165H732.644L729.987 1159.2ZM744.539 1150.78H747.41V1165H744.539V1155.59L740.349 1165H737.468V1150.78H740.349V1160.21L744.539 1150.78Z" fill="#202A25"/>
<circle cx="1070" cy="1211" r="160" fill="white"/>
<mask id="path-26-outside-9_28_1265" maskUnits="userSpaceOnUse" x="909" y="1050" width="322" height="322" fill="black">
<rect fill="white" x="909" y="1050" width="322" height="322"/>
<path d="M1230 1211C1230 1299.37 1158.37 1371 1070 1371C981.634 1371 910 1299.37 910 1211C910 1122.63 981.634 1051 1070 1051C1158.37 1051 1230 1122.63 1230 1211ZM942 1211C942 1281.69 999.308 1339 1070 1339C1140.69 1339 1198 1281.69 1198 1211C1198 1140.31 1140.69 1083 1070 1083C999.308 1083 942 1140.31 942 1211Z"/>
</mask>
<path d="M1230 1211C1230 1299.37 1158.37 1371 1070 1371C981.634 1371 910 1299.37 910 1211C910 1122.63 981.634 1051 1070 1051C1158.37 1051 1230 1122.63 1230 1211ZM942 1211C942 1281.69 999.308 1339 1070 1339C1140.69 1339 1198 1281.69 1198 1211C1198 1140.31 1140.69 1083 1070 1083C999.308 1083 942 1140.31 942 1211Z" fill="#146EB4"/>
<path d="M1230 1211C1230 1299.37 1158.37 1371 1070 1371C981.634 1371 910 1299.37 910 1211C910 1122.63 981.634 1051 1070 1051C1158.37 1051 1230 1122.63 1230 1211ZM942 1211C942 1281.69 999.308 1339 1070 1339C1140.69 1339 1198 1281.69 1198 1211C1198 1140.31 1140.69 1083 1070 1083C999.308 1083 942 1140.31 942 1211Z" stroke="#146EB4" stroke-width="2" mask="url(#path-26-outside-9_28_1265)"/>
<mask id="path-27-inside-10_28_1265" fill="white">
<path d="M1230 1211C1230 1299.37 1158.37 1371 1070 1371C981.634 1371 910 1299.37 910 1211C910 1122.63 981.634 1051 1070 1051C1158.37 1051 1230 1122.63 1230 1211ZM942 1211C942 1281.69 999.308 1339 1070 1339C1140.69 1339 1198 1281.69 1198 1211C1198 1140.31 1140.69 1083 1070 1083C999.308 1083 942 1140.31 942 1211Z"/>
</mask>
<path d="M1230 1211C1230 1299.37 1158.37 1371 1070 1371C981.634 1371 910 1299.37 910 1211C910 1122.63 981.634 1051 1070 1051C1158.37 1051 1230 1122.63 1230 1211ZM942 1211C942 1281.69 999.308 1339 1070 1339C1140.69 1339 1198 1281.69 1198 1211C1198 1140.31 1140.69 1083 1070 1083C999.308 1083 942 1140.31 942 1211Z" fill="#146EB4" stroke="white" stroke-width="8" mask="url(#path-27-inside-10_28_1265)"/>
<mask id="path-28-outside-11_28_1265" maskUnits="userSpaceOnUse" x="906" y="1047" width="329" height="329" fill="black">
<rect fill="white" x="906" y="1047" width="329" height="329"/>
<path d="M910 1211C910 1178.58 919.846 1146.93 938.235 1120.24C956.623 1093.54 982.687 1073.06 1012.97 1061.51C1043.26 1049.95 1076.34 1047.87 1107.84 1055.54C1139.34 1063.21 1167.76 1080.26 1189.35 1104.44C1210.94 1128.62 1224.68 1158.79 1228.74 1190.95C1232.8 1223.11 1227 1255.74 1212.1 1284.53C1197.2 1313.32 1173.91 1336.91 1145.31 1352.17C1116.71 1367.42 1084.15 1373.64 1051.94 1369.98L1055.55 1338.18C1081.32 1341.11 1107.37 1336.14 1130.25 1323.93C1153.13 1311.73 1171.76 1292.86 1183.68 1269.83C1195.6 1246.79 1200.24 1220.69 1196.99 1194.96C1193.74 1169.23 1182.75 1145.09 1165.48 1125.75C1148.21 1106.41 1125.47 1092.76 1100.27 1086.63C1075.07 1080.5 1048.61 1082.16 1024.38 1091.41C1000.15 1100.65 979.299 1117.03 964.588 1138.39C949.877 1159.75 942 1185.07 942 1211L910 1211Z"/>
</mask>
<path d="M910 1211C910 1178.58 919.846 1146.93 938.235 1120.24C956.623 1093.54 982.687 1073.06 1012.97 1061.51C1043.26 1049.95 1076.34 1047.87 1107.84 1055.54C1139.34 1063.21 1167.76 1080.26 1189.35 1104.44C1210.94 1128.62 1224.68 1158.79 1228.74 1190.95C1232.8 1223.11 1227 1255.74 1212.1 1284.53C1197.2 1313.32 1173.91 1336.91 1145.31 1352.17C1116.71 1367.42 1084.15 1373.64 1051.94 1369.98L1055.55 1338.18C1081.32 1341.11 1107.37 1336.14 1130.25 1323.93C1153.13 1311.73 1171.76 1292.86 1183.68 1269.83C1195.6 1246.79 1200.24 1220.69 1196.99 1194.96C1193.74 1169.23 1182.75 1145.09 1165.48 1125.75C1148.21 1106.41 1125.47 1092.76 1100.27 1086.63C1075.07 1080.5 1048.61 1082.16 1024.38 1091.41C1000.15 1100.65 979.299 1117.03 964.588 1138.39C949.877 1159.75 942 1185.07 942 1211L910 1211Z" fill="#146EB4"/>
<path d="M910 1211C910 1178.58 919.846 1146.93 938.235 1120.24C956.623 1093.54 982.687 1073.06 1012.97 1061.51C1043.26 1049.95 1076.34 1047.87 1107.84 1055.54C1139.34 1063.21 1167.76 1080.26 1189.35 1104.44C1210.94 1128.62 1224.68 1158.79 1228.74 1190.95C1232.8 1223.11 1227 1255.74 1212.1 1284.53C1197.2 1313.32 1173.91 1336.91 1145.31 1352.17C1116.71 1367.42 1084.15 1373.64 1051.94 1369.98L1055.55 1338.18C1081.32 1341.11 1107.37 1336.14 1130.25 1323.93C1153.13 1311.73 1171.76 1292.86 1183.68 1269.83C1195.6 1246.79 1200.24 1220.69 1196.99 1194.96C1193.74 1169.23 1182.75 1145.09 1165.48 1125.75C1148.21 1106.41 1125.47 1092.76 1100.27 1086.63C1075.07 1080.5 1048.61 1082.16 1024.38 1091.41C1000.15 1100.65 979.299 1117.03 964.588 1138.39C949.877 1159.75 942 1185.07 942 1211L910 1211Z" stroke="#FF0303" stroke-width="8" mask="url(#path-28-outside-11_28_1265)"/>
<path d="M910 1211C910 1178.58 919.846 1146.93 938.235 1120.24C956.623 1093.54 982.687 1073.06 1012.97 1061.51C1043.26 1049.95 1076.34 1047.87 1107.84 1055.54C1139.34 1063.21 1167.76 1080.26 1189.35 1104.44C1210.94 1128.62 1224.68 1158.79 1228.74 1190.95C1232.8 1223.11 1227 1255.74 1212.1 1284.53C1197.2 1313.32 1173.91 1336.91 1145.31 1352.17C1116.71 1367.42 1084.15 1373.64 1051.94 1369.98L1055.55 1338.18C1081.32 1341.11 1107.37 1336.14 1130.25 1323.93C1153.13 1311.73 1171.76 1292.86 1183.68 1269.83C1195.6 1246.79 1200.24 1220.69 1196.99 1194.96C1193.74 1169.23 1182.75 1145.09 1165.48 1125.75C1148.21 1106.41 1125.47 1092.76 1100.27 1086.63C1075.07 1080.5 1048.61 1082.16 1024.38 1091.41C1000.15 1100.65 979.299 1117.03 964.588 1138.39C949.877 1159.75 942 1185.07 942 1211L910 1211Z" stroke="black" stroke-opacity="0.2" stroke-width="8" mask="url(#path-28-outside-11_28_1265)"/>
<mask id="path-29-inside-12_28_1265" fill="white">
<path d="M910 1211C910 1178.58 919.846 1146.93 938.235 1120.24C956.623 1093.54 982.687 1073.06 1012.97 1061.51C1043.26 1049.95 1076.34 1047.87 1107.84 1055.54C1139.34 1063.21 1167.76 1080.26 1189.35 1104.44C1210.94 1128.62 1224.68 1158.79 1228.74 1190.95C1232.8 1223.11 1227 1255.74 1212.1 1284.53C1197.2 1313.32 1173.91 1336.91 1145.31 1352.17C1116.71 1367.42 1084.15 1373.64 1051.94 1369.98L1055.55 1338.18C1081.32 1341.11 1107.37 1336.14 1130.25 1323.93C1153.13 1311.73 1171.76 1292.86 1183.68 1269.83C1195.6 1246.79 1200.24 1220.69 1196.99 1194.96C1193.74 1169.23 1182.75 1145.09 1165.48 1125.75C1148.21 1106.41 1125.47 1092.76 1100.27 1086.63C1075.07 1080.5 1048.61 1082.16 1024.38 1091.41C1000.15 1100.65 979.299 1117.03 964.588 1138.39C949.877 1159.75 942 1185.07 942 1211L910 1211Z"/>
</mask>
<path d="M910 1211C910 1178.58 919.846 1146.93 938.235 1120.24C956.623 1093.54 982.687 1073.06 1012.97 1061.51C1043.26 1049.95 1076.34 1047.87 1107.84 1055.54C1139.34 1063.21 1167.76 1080.26 1189.35 1104.44C1210.94 1128.62 1224.68 1158.79 1228.74 1190.95C1232.8 1223.11 1227 1255.74 1212.1 1284.53C1197.2 1313.32 1173.91 1336.91 1145.31 1352.17C1116.71 1367.42 1084.15 1373.64 1051.94 1369.98L1055.55 1338.18C1081.32 1341.11 1107.37 1336.14 1130.25 1323.93C1153.13 1311.73 1171.76 1292.86 1183.68 1269.83C1195.6 1246.79 1200.24 1220.69 1196.99 1194.96C1193.74 1169.23 1182.75 1145.09 1165.48 1125.75C1148.21 1106.41 1125.47 1092.76 1100.27 1086.63C1075.07 1080.5 1048.61 1082.16 1024.38 1091.41C1000.15 1100.65 979.299 1117.03 964.588 1138.39C949.877 1159.75 942 1185.07 942 1211L910 1211Z" fill="#FF0303"/>
<path d="M910 1211C910 1178.58 919.846 1146.93 938.235 1120.24C956.623 1093.54 982.687 1073.06 1012.97 1061.51C1043.26 1049.95 1076.34 1047.87 1107.84 1055.54C1139.34 1063.21 1167.76 1080.26 1189.35 1104.44C1210.94 1128.62 1224.68 1158.79 1228.74 1190.95C1232.8 1223.11 1227 1255.74 1212.1 1284.53C1197.2 1313.32 1173.91 1336.91 1145.31 1352.17C1116.71 1367.42 1084.15 1373.64 1051.94 1369.98L1055.55 1338.18C1081.32 1341.11 1107.37 1336.14 1130.25 1323.93C1153.13 1311.73 1171.76 1292.86 1183.68 1269.83C1195.6 1246.79 1200.24 1220.69 1196.99 1194.96C1193.74 1169.23 1182.75 1145.09 1165.48 1125.75C1148.21 1106.41 1125.47 1092.76 1100.27 1086.63C1075.07 1080.5 1048.61 1082.16 1024.38 1091.41C1000.15 1100.65 979.299 1117.03 964.588 1138.39C949.877 1159.75 942 1185.07 942 1211L910 1211Z" fill="black" fill-opacity="0.2"/>
<path d="M910 1211C910 1178.58 919.846 1146.93 938.235 1120.24C956.623 1093.54 982.687 1073.06 1012.97 1061.51C1043.26 1049.95 1076.34 1047.87 1107.84 1055.54C1139.34 1063.21 1167.76 1080.26 1189.35 1104.44C1210.94 1128.62 1224.68 1158.79 1228.74 1190.95C1232.8 1223.11 1227 1255.74 1212.1 1284.53C1197.2 1313.32 1173.91 1336.91 1145.31 1352.17C1116.71 1367.42 1084.15 1373.64 1051.94 1369.98L1055.55 1338.18C1081.32 1341.11 1107.37 1336.14 1130.25 1323.93C1153.13 1311.73 1171.76 1292.86 1183.68 1269.83C1195.6 1246.79 1200.24 1220.69 1196.99 1194.96C1193.74 1169.23 1182.75 1145.09 1165.48 1125.75C1148.21 1106.41 1125.47 1092.76 1100.27 1086.63C1075.07 1080.5 1048.61 1082.16 1024.38 1091.41C1000.15 1100.65 979.299 1117.03 964.588 1138.39C949.877 1159.75 942 1185.07 942 1211L910 1211Z" stroke="white" stroke-width="8" mask="url(#path-29-inside-12_28_1265)"/>
<path d="M983.207 1150.78V1162.62H986.098V1150.78H988.969V1162.62H991.82V1150.78H994.691V1165H980.326V1150.78H983.207ZM1006.34 1153.17H1002.83V1165H999.946V1153.17H996.489V1150.78H1006.34V1153.17ZM1011.3 1160V1165H1008.43V1150.78H1013.28C1014.68 1150.78 1015.8 1151.22 1016.64 1152.09C1017.48 1152.96 1017.9 1154.1 1017.9 1155.49C1017.9 1156.88 1017.48 1157.98 1016.66 1158.79C1015.83 1159.6 1014.68 1160 1013.22 1160H1011.3ZM1011.3 1157.61H1013.28C1013.82 1157.61 1014.25 1157.43 1014.55 1157.07C1014.85 1156.71 1015 1156.19 1015 1155.51C1015 1154.8 1014.84 1154.24 1014.54 1153.82C1014.23 1153.4 1013.82 1153.18 1013.31 1153.17H1011.3V1157.61ZM1025.31 1162.09H1021.39L1020.63 1165H1017.59L1022.04 1150.78H1024.66L1029.14 1165H1026.07L1025.31 1162.09ZM1022.02 1159.7H1024.67L1023.35 1154.63L1022.02 1159.7ZM1038.42 1152.05C1039.94 1152.05 1041.16 1152.6 1042.09 1153.71C1043.02 1154.81 1043.48 1156.23 1043.48 1157.97C1043.48 1159.66 1043.02 1161.05 1042.1 1162.14C1041.17 1163.23 1039.95 1163.77 1038.42 1163.77V1165.59H1035.67V1163.77C1034.63 1163.77 1033.74 1163.53 1032.97 1163.05C1032.22 1162.56 1031.63 1161.88 1031.21 1161C1030.78 1160.11 1030.57 1159.11 1030.57 1157.99C1030.57 1156.25 1031.04 1154.83 1031.97 1153.72C1032.9 1152.61 1034.13 1152.05 1035.67 1152.05V1150.2H1038.42V1152.05ZM1035.52 1154.5C1034.83 1154.5 1034.28 1154.81 1033.87 1155.43C1033.48 1156.05 1033.28 1156.9 1033.28 1157.99C1033.28 1159 1033.48 1159.81 1033.87 1160.41C1034.28 1161.01 1034.83 1161.31 1035.54 1161.31H1035.67V1154.5H1035.52ZM1038.42 1154.5V1161.31H1038.57C1039.25 1161.31 1039.78 1161.01 1040.18 1160.41C1040.58 1159.8 1040.78 1158.99 1040.78 1157.97C1040.78 1156.89 1040.58 1156.05 1040.18 1155.43C1039.79 1154.81 1039.24 1154.5 1038.54 1154.5H1038.42ZM1055.8 1165H1052.94V1158.92H1048.7V1165H1045.83V1150.78H1048.7V1156.53H1052.94V1150.78H1055.8V1165ZM1061.46 1155.89H1063.16C1064.6 1155.89 1065.75 1156.3 1066.6 1157.12C1067.45 1157.93 1067.88 1159.02 1067.88 1160.39C1067.88 1161.75 1067.46 1162.86 1066.63 1163.7C1065.79 1164.54 1064.69 1164.97 1063.32 1165H1058.58V1150.78H1061.46V1155.89ZM1071.49 1165H1068.62V1150.78H1071.49V1165ZM1061.46 1158.27V1162.62H1063.2C1063.76 1162.62 1064.2 1162.41 1064.52 1161.99C1064.84 1161.57 1065.01 1161.03 1065.01 1160.37C1065.01 1159.75 1064.85 1159.25 1064.53 1158.87C1064.22 1158.48 1063.78 1158.28 1063.22 1158.27H1061.46ZM1081.59 1158.85H1077.12V1162.62H1082.41V1165H1074.25V1150.78H1082.39V1153.17H1077.12V1156.53H1081.59V1158.85ZM1097.53 1153.17H1092.43V1155.89H1094.13C1095.57 1155.89 1096.71 1156.3 1097.57 1157.12C1098.42 1157.93 1098.85 1159.02 1098.85 1160.39C1098.85 1161.75 1098.43 1162.86 1097.6 1163.7C1096.76 1164.54 1095.66 1164.97 1094.29 1165H1089.55V1150.78H1097.53V1153.17ZM1092.43 1158.27V1162.62H1094.17C1094.73 1162.62 1095.17 1162.41 1095.49 1161.99C1095.81 1161.57 1095.98 1161.03 1095.98 1160.37C1095.98 1159.75 1095.82 1159.25 1095.5 1158.87C1095.18 1158.48 1094.75 1158.28 1094.19 1158.27H1092.43ZM1103.79 1160V1165H1100.92V1150.78H1105.76C1107.17 1150.78 1108.29 1151.22 1109.12 1152.09C1109.96 1152.96 1110.38 1154.1 1110.38 1155.49C1110.38 1156.88 1109.97 1157.98 1109.14 1158.79C1108.31 1159.6 1107.17 1160 1105.7 1160H1103.79ZM1103.79 1157.61H1105.76C1106.31 1157.61 1106.73 1157.43 1107.03 1157.07C1107.33 1156.71 1107.48 1156.19 1107.48 1155.51C1107.48 1154.8 1107.33 1154.24 1107.02 1153.82C1106.72 1153.4 1106.3 1153.18 1105.79 1153.17H1103.79V1157.61ZM1122.75 1159.17C1122.75 1161.08 1122.3 1162.56 1121.4 1163.61C1120.5 1164.67 1119.25 1165.2 1117.65 1165.2C1116.05 1165.2 1114.8 1164.67 1113.89 1163.63C1112.98 1162.58 1112.51 1161.12 1112.5 1159.24V1156.81C1112.5 1154.85 1112.95 1153.33 1113.86 1152.24C1114.76 1151.14 1116.02 1150.59 1117.63 1150.59C1119.21 1150.59 1120.46 1151.13 1121.37 1152.21C1122.28 1153.28 1122.74 1154.79 1122.75 1156.74V1159.17ZM1119.87 1156.79C1119.87 1155.5 1119.69 1154.55 1119.33 1153.93C1118.96 1153.3 1118.4 1152.99 1117.63 1152.99C1116.87 1152.99 1116.3 1153.29 1115.94 1153.9C1115.57 1154.5 1115.38 1155.41 1115.37 1156.64V1159.17C1115.37 1160.41 1115.56 1161.33 1115.93 1161.92C1116.3 1162.51 1116.87 1162.8 1117.65 1162.8C1118.4 1162.8 1118.95 1162.52 1119.32 1161.94C1119.68 1161.36 1119.87 1160.47 1119.87 1159.26V1156.79ZM1134.89 1160.26C1134.82 1161.89 1134.37 1163.11 1133.53 1163.95C1132.69 1164.78 1131.5 1165.2 1129.97 1165.2C1128.36 1165.2 1127.13 1164.67 1126.27 1163.61C1125.42 1162.55 1124.99 1161.04 1124.99 1159.08V1156.69C1124.99 1154.74 1125.43 1153.23 1126.32 1152.18C1127.2 1151.12 1128.43 1150.59 1130.01 1150.59C1131.56 1150.59 1132.74 1151.02 1133.54 1151.89C1134.34 1152.75 1134.8 1153.99 1134.91 1155.62H1132.03C1132.01 1154.61 1131.85 1153.92 1131.56 1153.55C1131.28 1153.16 1130.77 1152.97 1130.01 1152.97C1129.24 1152.97 1128.7 1153.24 1128.38 1153.78C1128.06 1154.31 1127.89 1155.2 1127.87 1156.43V1159.11C1127.87 1160.52 1128.03 1161.49 1128.34 1162.02C1128.66 1162.55 1129.2 1162.81 1129.97 1162.81C1130.73 1162.81 1131.25 1162.63 1131.53 1162.27C1131.82 1161.89 1131.98 1161.23 1132.02 1160.26H1134.89ZM1141.24 1159.2H1139.99V1165H1137.12V1150.78H1139.99V1156.47H1140.96L1143.43 1150.78H1146.93L1143.45 1157.4L1147.32 1165H1143.9L1141.24 1159.2ZM1155.79 1150.78H1158.66V1165H1155.79V1155.59L1151.6 1165H1148.72V1150.78H1151.6V1160.21L1155.79 1150.78Z" fill="#202A25"/>
<defs>
<clipPath id="clip0_28_1265">
<rect width="1300" height="1215" fill="white"/>
</clipPath>
<clipPath id="clip1_28_1265">
<rect width="1300" height="1217.9" fill="white"/>
</clipPath>
</defs>
</svg>
