<svg width="600" height="600" viewBox="0 0 600 600" fill="none" xmlns="http://www.w3.org/2000/svg">
<g opacity="0.6">
<g clip-path="url(#clip0_430_2776)">
<path fill-rule="evenodd" clip-rule="evenodd" d="M303.301 145.167C302.634 144.904 302.085 145.143 301.608 145.858C299.582 147.503 297.269 148.123 294.718 147.718C293.383 147.074 293.05 145.763 293.669 143.76C295.124 141.257 297.77 140.136 301.608 140.399C304.922 140.613 306.996 141.877 307.783 144.213C309.047 147.122 309.69 148.6 309.69 148.6C308.474 151.675 308.308 153.654 309.142 154.464C309.523 155.442 309.309 156.252 308.451 156.944C306.734 157.754 306.162 159.686 306.734 162.761C307.044 166.933 306.639 169.174 305.566 169.484C304.159 169.842 303.539 168.077 303.683 164.239C300.393 164.811 298.438 164.144 297.818 162.236C300.75 162.26 302.753 161.807 303.826 160.901C304.183 157.826 304.755 155.37 305.566 153.558C305.78 152.08 305.423 151.055 304.493 150.459C303.969 150.292 303.563 150.268 303.277 150.459C302.538 151.008 301.656 151.198 300.583 151.031C300.345 152.676 300.369 153.964 300.631 154.917C301.608 155.323 302.181 155.99 302.347 156.944C301.37 156.562 300.726 156.562 300.345 156.968C299.844 157.254 299.32 157.301 298.7 157.039C298.175 157.182 297.746 157.445 297.389 157.826C297.103 156.729 297.484 156.133 298.581 156.086C298.724 155.561 299.081 155.251 299.606 155.132C299.296 152.2 299.51 150.435 300.226 149.816C301.132 148.957 302.204 148.838 303.468 149.458C303.897 149.553 304.159 149.482 304.302 149.243C304.445 147.336 304.112 145.977 303.301 145.167ZM1180.08 451.828H1142.13V446.535L1162.18 424.244C1165.16 420.883 1167.21 418.117 1168.33 416.019C1169.48 413.897 1170.02 411.728 1170.02 409.463C1170.02 406.435 1169.12 403.956 1167.28 402.025C1165.45 400.07 1163.01 399.116 1159.96 399.116C1156.29 399.116 1153.45 400.165 1151.43 402.239C1149.4 404.337 1148.4 407.246 1148.4 410.941H1141.01C1141.01 405.625 1142.75 401.309 1146.18 398.019C1149.62 394.729 1154.19 393.084 1159.96 393.084C1165.33 393.084 1169.59 394.491 1172.72 397.328C1175.87 400.141 1177.44 403.908 1177.44 408.605C1177.44 414.303 1173.79 421.097 1166.52 428.988L1151 445.82H1180.08V451.828ZM960.823 451.828H953.409V402.788L938.58 408.247V401.548L959.655 393.657H960.823V451.828ZM1134.33 451.828H1096.38V446.535L1116.43 424.244C1119.41 420.883 1121.46 418.117 1122.58 416.019C1123.7 413.897 1124.27 411.728 1124.27 409.463C1124.27 406.435 1123.37 403.956 1121.53 402.025C1119.7 400.07 1117.26 399.116 1114.21 399.116C1110.54 399.116 1107.7 400.165 1105.68 402.239C1103.63 404.337 1102.63 407.246 1102.63 410.941H1095.26C1095.26 405.625 1096.98 401.309 1100.41 398.019C1103.84 394.729 1108.44 393.084 1114.21 393.084C1119.58 393.084 1123.84 394.491 1126.97 397.328C1130.12 400.141 1131.66 403.908 1131.66 408.605C1131.66 414.303 1128.04 421.097 1120.77 428.988L1105.25 445.82H1134.33V451.828ZM1086.94 427.129C1086.94 435.759 1085.49 442.172 1082.53 446.368C1079.57 450.564 1074.97 452.662 1068.73 452.662C1062.53 452.662 1057.97 450.612 1054.99 446.511C1052.01 442.411 1050.49 436.284 1050.37 428.13V418.284C1050.37 409.773 1051.85 403.431 1054.8 399.283C1057.74 395.159 1062.36 393.084 1068.65 393.084C1074.88 393.084 1079.48 395.087 1082.41 399.068C1085.34 403.074 1086.87 409.225 1086.94 417.569V427.129ZM1079.57 417.02C1079.57 410.798 1078.71 406.244 1076.95 403.384C1075.21 400.547 1072.44 399.116 1068.65 399.116C1064.86 399.116 1062.12 400.547 1060.41 403.384C1058.69 406.221 1057.81 410.583 1057.74 416.472V428.249C1057.74 434.543 1058.64 439.144 1060.48 442.148C1062.29 445.128 1065.03 446.63 1068.73 446.63C1072.35 446.63 1075.07 445.2 1076.83 442.411C1078.6 439.597 1079.5 435.163 1079.57 429.108V417.02ZM1042.81 451.828H1004.86V446.535L1024.91 424.244C1027.89 420.883 1029.94 418.117 1031.06 416.019C1032.2 413.897 1032.75 411.728 1032.75 409.463C1032.75 406.435 1031.84 403.956 1030.01 402.025C1028.17 400.07 1025.74 399.116 1022.69 399.116C1019.02 399.116 1016.18 400.165 1014.15 402.239C1012.13 404.337 1011.1 407.246 1011.1 410.941H1003.74C1003.74 405.625 1005.45 401.309 1008.91 398.019C1012.34 394.729 1016.92 393.084 1022.69 393.084C1028.05 393.084 1032.32 394.491 1035.44 397.328C1038.59 400.141 1040.14 403.908 1040.14 408.605C1040.14 414.303 1036.52 421.097 1029.25 428.988L1013.73 445.82H1042.81V451.828ZM998.444 430.252H979.037V424.22H998.444V430.252ZM928.829 451.828H890.851V446.535L910.925 424.244C913.881 420.883 915.955 418.117 917.076 416.019C918.196 413.897 918.745 411.728 918.745 409.463C918.745 406.435 917.839 403.956 916.003 402.025C914.167 400.07 911.736 399.116 908.684 399.116C905.013 399.116 902.176 400.165 900.173 402.239C898.123 404.337 897.121 407.246 897.121 410.941H889.755C889.755 405.625 891.471 401.309 894.904 398.019C898.337 394.729 902.938 393.084 908.684 393.084C914.072 393.084 918.339 394.491 921.463 397.328C924.586 400.141 926.159 403.908 926.159 408.605C926.159 414.303 922.535 421.097 915.24 428.988L899.744 445.82H928.829V451.828ZM881.434 427.129C881.434 435.759 879.956 442.172 877.024 446.368C874.068 450.564 869.466 452.662 863.22 452.662C857.022 452.662 852.468 450.612 849.488 446.511C846.508 442.411 844.982 436.284 844.863 428.13V418.284C844.863 409.773 846.341 403.431 849.273 399.283C852.23 395.159 856.855 393.084 863.125 393.084C869.371 393.084 873.972 395.087 876.905 399.068C879.837 403.074 881.339 409.225 881.434 417.569V427.129ZM874.068 417.02C874.068 410.798 873.209 406.244 871.445 403.384C869.705 400.547 866.915 399.116 863.125 399.116C859.358 399.116 856.616 400.547 854.9 403.384C853.159 406.221 852.277 410.583 852.23 416.472V428.249C852.23 434.543 853.136 439.144 854.971 442.148C856.759 445.128 859.525 446.63 863.22 446.63C866.844 446.63 869.538 445.2 871.302 442.411C873.066 439.597 873.996 435.163 874.068 429.108V417.02ZM837.305 451.828H799.351V446.535L819.401 424.244C822.381 420.883 824.432 418.117 825.552 416.019C826.673 413.897 827.245 411.728 827.245 409.463C827.245 406.435 826.339 403.956 824.503 402.025C822.667 400.07 820.236 399.116 817.184 399.116C813.513 399.116 810.676 400.165 808.649 402.239C806.599 404.337 805.598 407.246 805.598 410.941H798.231C798.231 405.625 799.947 401.309 803.38 398.019C806.813 394.729 811.415 393.084 817.184 393.084C822.548 393.084 826.816 394.491 829.939 397.328C833.086 400.141 834.635 403.908 834.635 408.605C834.635 414.303 831.012 421.097 823.74 428.988L808.22 445.82H837.305V451.828ZM767.524 451.828H759.848V425.102H730.643V451.828H722.99V393.895H730.643V418.832H759.848V393.895H767.524V451.828ZM711.523 424.745C711.523 430.419 710.593 435.378 708.662 439.621C706.755 443.841 704.061 447.083 700.556 449.3C697.052 451.541 692.975 452.662 688.302 452.662C683.725 452.662 679.696 451.518 676.167 449.277C672.639 447.036 669.897 443.841 667.942 439.693C665.987 435.544 665.01 430.729 664.938 425.269V421.073C664.938 415.518 665.916 410.583 667.847 406.292C669.778 402.025 672.52 398.759 676.072 396.494C679.6 394.229 683.653 393.084 688.231 393.084C692.856 393.084 696.956 394.205 700.485 396.446C704.037 398.687 706.755 401.929 708.662 406.197C710.593 410.464 711.523 415.423 711.523 421.073V424.745ZM703.941 421.002C703.941 414.136 702.559 408.867 699.793 405.195C697.052 401.524 693.189 399.688 688.231 399.688C683.391 399.688 679.576 401.524 676.811 405.195C674.045 408.867 672.615 413.969 672.543 420.477V424.745C672.543 431.396 673.926 436.617 676.739 440.432C679.529 444.222 683.391 446.13 688.302 446.13C693.237 446.13 697.052 444.342 699.745 440.742C702.463 437.166 703.87 432.016 703.941 425.293V421.002ZM648.345 409.439C648.345 406.364 647.201 403.908 644.96 402.096C642.719 400.26 639.572 399.355 635.519 399.355C632.11 399.355 629.273 400.284 626.984 402.168C624.695 404.051 623.551 406.364 623.551 409.129H615.898C615.898 406.03 616.733 403.288 618.425 400.833C620.118 398.401 622.454 396.494 625.482 395.135C628.51 393.752 631.871 393.084 635.519 393.084C642.004 393.084 647.01 394.539 650.61 397.447C654.186 400.356 655.974 404.385 655.974 409.558C655.974 412.252 655.164 414.684 653.519 416.901C651.874 419.095 649.561 420.835 646.629 422.098C653.447 424.387 656.856 428.917 656.856 435.688C656.856 440.885 654.901 445.009 651.039 448.085C647.177 451.136 642.004 452.662 635.519 452.662C631.681 452.662 628.176 451.971 625.029 450.612C621.882 449.253 619.451 447.298 617.686 444.771C615.946 442.244 615.064 439.264 615.064 435.783H622.717C622.717 438.811 623.909 441.338 626.34 443.34C628.748 445.367 631.8 446.368 635.519 446.368C639.691 446.368 643.005 445.414 645.484 443.483C647.964 441.552 649.204 439.001 649.204 435.807C649.204 429.012 645.008 425.579 636.592 425.436H629.44V419.166H636.568C640.43 419.071 643.363 418.212 645.341 416.52C647.344 414.851 648.345 412.491 648.345 409.439ZM605.051 425.102H579.947V445.558H609.104V451.828H572.294V393.895H608.722V400.165H579.947V418.832H605.051V425.102ZM561.876 433.47C561.16 439.597 558.919 444.318 555.105 447.655C551.29 450.993 546.236 452.662 539.918 452.662C533.076 452.662 527.593 450.206 523.469 445.295C519.344 440.384 517.294 433.804 517.294 425.579V420C517.294 414.612 518.224 409.868 520.155 405.791C522.086 401.691 524.804 398.568 528.332 396.374C531.86 394.181 535.961 393.084 540.586 393.084C546.761 393.084 551.696 394.801 555.391 398.234C559.11 401.667 561.28 406.411 561.876 412.515H554.199C553.555 407.866 552.101 404.528 549.884 402.478C547.667 400.38 544.567 399.355 540.586 399.355C535.723 399.355 531.884 401.166 529.119 404.766C526.353 408.366 524.947 413.516 524.947 420.167V425.794C524.947 432.088 526.282 437.094 528.904 440.813C531.527 444.509 535.198 446.368 539.918 446.368C544.162 446.368 547.428 445.414 549.693 443.507C551.958 441.576 553.46 438.238 554.199 433.47H561.876ZM1249.2 305.78H1223.33V316.962H1232.65C1239.47 316.962 1244.88 318.607 1248.86 321.92C1252.87 325.21 1254.85 329.669 1254.85 335.271C1254.85 340.898 1252.87 345.427 1248.91 348.836C1244.93 352.246 1239.66 353.986 1233.08 354.034H1211.29V296.101H1249.2V305.78ZM1223.33 326.569V344.426H1232.84C1235.9 344.426 1238.33 343.568 1240.14 341.899C1241.97 340.23 1242.88 337.989 1242.88 335.176C1242.88 332.553 1242 330.479 1240.26 328.953C1238.54 327.404 1236.16 326.617 1233.13 326.569H1223.33ZM1204.62 305.78H1186.86V354.034H1174.94V305.78H1157.41V296.101H1204.62V305.78ZM1110.07 354.034V296.101H1130.35C1137.39 296.101 1142.73 297.436 1146.35 300.13C1150 302.824 1151.81 306.782 1151.81 311.979C1151.81 314.816 1151.07 317.343 1149.62 319.489C1148.16 321.658 1146.14 323.232 1143.51 324.257C1146.49 324.996 1148.83 326.498 1150.55 328.739C1152.26 331.004 1153.12 333.745 1153.12 337.011C1153.12 342.59 1151.33 346.786 1147.78 349.671C1144.23 352.532 1139.17 353.986 1132.59 354.034H1110.07ZM1121.99 328.858V344.426H1132.21C1135.03 344.426 1137.24 343.758 1138.82 342.423C1140.39 341.088 1141.18 339.253 1141.18 336.892C1141.18 331.6 1138.44 328.93 1132.95 328.858H1121.99ZM1121.99 320.371H1130.83C1136.86 320.275 1139.87 317.868 1139.87 313.171C1139.87 310.548 1139.1 308.665 1137.58 307.521C1136.05 306.353 1133.64 305.78 1130.35 305.78H1121.99V320.371ZM1067.46 296.101H1079.43V354.034H1067.46V315.555L1044.27 354.034H1032.32V296.101H1044.27V334.651L1067.46 296.101ZM1025.31 305.78H999.326V354.034H987.406V296.101H1025.31V305.78ZM964.995 296.101H976.963V354.034H964.995V315.555L941.799 354.034H929.854V296.101H941.799V334.651L964.995 296.101ZM919.841 296.101V354.034H907.873V305.78H892.425L891.471 326.236C891.066 333.125 890.184 338.561 888.825 342.519C887.49 346.476 885.511 349.385 882.912 351.244C880.314 353.08 876.762 354.01 872.256 354.034H869.133V344.426L871.135 344.211C874.115 343.83 876.261 342.09 877.572 339.014C878.836 335.963 879.67 330.503 880.004 322.659L881.005 296.101H919.841ZM830.129 296.101H842.074V354.034H830.129V315.555L806.909 354.034H794.988V296.101H806.909V334.651L830.129 296.101ZM832.394 280.939C832.394 284.443 831.131 287.256 828.604 289.426C826.053 291.595 822.739 292.668 818.638 292.668C814.514 292.668 811.176 291.595 808.649 289.473C806.122 287.328 804.858 284.491 804.858 280.939H813.012C813.012 282.584 813.513 283.871 814.514 284.801C815.515 285.707 816.874 286.16 818.638 286.16C820.355 286.16 821.69 285.707 822.691 284.801C823.669 283.871 824.145 282.584 824.145 280.939H832.394ZM786.692 326.379C786.692 332.077 785.667 337.083 783.664 341.398C781.638 345.689 778.753 349.003 775.01 351.34C771.243 353.676 766.928 354.844 762.089 354.844C757.273 354.844 753.005 353.7 749.238 351.387C745.472 349.075 742.539 345.785 740.465 341.494C738.415 337.202 737.366 332.267 737.342 326.689V323.828C737.342 318.13 738.367 313.099 740.417 308.76C742.468 304.421 745.376 301.084 749.119 298.771C752.886 296.435 757.177 295.267 761.993 295.267C766.833 295.267 771.124 296.435 774.891 298.771C778.634 301.084 781.542 304.421 783.593 308.76C785.643 313.099 786.692 318.106 786.692 323.78V326.379ZM774.581 323.756C774.581 317.653 773.484 313.052 771.315 309.881C769.145 306.71 766.046 305.137 761.993 305.137C757.988 305.137 754.913 306.71 752.719 309.833C750.55 312.956 749.453 317.534 749.429 323.565V326.379C749.429 332.291 750.502 336.916 752.695 340.158C754.865 343.448 757.988 345.07 762.089 345.07C766.094 345.07 769.169 343.496 771.315 340.349C773.46 337.202 774.557 332.625 774.581 326.593V323.756ZM728.688 354.034H716.744V329.168H693.475V354.034H681.531V296.101H693.475V319.56H716.744V296.101H728.688V354.034ZM659.217 296.101H671.185V354.034H659.217V315.555L635.996 354.034H624.076V296.101H635.996V334.651L659.217 296.101ZM617.281 368.29H606.267V354.034H571.316V368.243H560.016L559.396 344.426H563.783C566.143 342.471 567.955 339.562 569.242 335.772C570.53 331.957 571.388 327.261 571.865 321.634L573.534 296.101H611.464V344.426H618.235L617.281 368.29ZM577.467 344.426H599.544V305.78H584.858L583.857 321.014C583.07 331.218 580.924 339.014 577.467 344.426ZM552.578 328.858H529.667V344.426H556.559V354.034H517.723V296.101H556.464V305.78H529.667V319.56H552.578V328.858ZM932.334 219.144H941.632C948.45 219.144 953.862 220.813 957.843 224.103C961.825 227.417 963.827 231.875 963.827 237.477C963.827 243.104 961.848 247.609 957.891 251.019C953.91 254.428 948.641 256.168 942.061 256.24H920.294V198.283H932.334V219.144ZM980.754 256.24H968.81V198.283H980.754V256.24ZM932.334 228.775V246.608H941.822C944.874 246.608 947.33 245.774 949.118 244.105C950.953 242.436 951.859 240.195 951.859 237.382C951.859 234.736 950.977 232.661 949.237 231.136C947.496 229.61 945.136 228.823 942.108 228.775H932.334ZM909.757 256.24H897.813V231.374H874.521V256.24H862.6V198.283H874.521V221.766H897.813V198.283H909.757V256.24ZM853.898 228.585C853.898 234.283 852.873 239.289 850.871 243.58C848.844 247.896 845.96 251.209 842.217 253.546C838.45 255.882 834.158 257.05 829.295 257.05C824.503 257.05 820.212 255.882 816.445 253.57C812.678 251.281 809.746 247.967 807.695 243.676C805.621 239.408 804.572 234.473 804.549 228.895V226.034C804.549 220.312 805.574 215.282 807.648 210.943C809.698 206.604 812.607 203.29 816.35 200.954C820.116 198.641 824.408 197.473 829.223 197.473C834.063 197.473 838.331 198.641 842.097 200.954C845.84 203.29 848.749 206.604 850.799 210.943C852.873 215.282 853.898 220.312 853.898 225.986V228.585ZM841.787 225.938C841.787 219.859 840.715 215.234 838.545 212.063C836.352 208.916 833.253 207.343 829.223 207.343C825.218 207.343 822.143 208.892 819.95 212.016C817.78 215.139 816.66 219.716 816.636 225.748V228.585C816.636 234.497 817.732 239.098 819.926 242.365C822.095 245.631 825.218 247.276 829.295 247.276C833.3 247.276 836.376 245.678 838.545 242.531C840.691 239.408 841.764 234.807 841.787 228.775V225.938ZM783.998 198.283H795.966V256.24H783.998V217.761L760.801 256.24H748.881V198.283H760.801V236.857L783.998 198.283ZM738.796 256.24H726.828V207.986H703.632V256.24H691.687V198.283H738.796V256.24ZM635.805 198.283L650.705 240.314L665.51 198.283H681.174V256.24H669.206V240.386L670.398 213.041L654.758 256.24H646.557L630.966 213.088L632.158 240.386V256.24H620.213V198.283H635.805ZM609.223 231.04H586.312V246.608H613.204V256.24H574.392V198.283H613.133V207.986H586.312V221.766H609.223V231.04ZM563.926 198.283V256.24H551.958V234.211C548.334 234.998 544.544 235.355 540.586 235.355C533.219 235.355 527.664 233.758 523.85 230.563C520.035 227.345 518.081 222.72 517.985 216.641V198.283H529.953V216.402C529.977 219.716 530.788 222.1 532.361 223.554C533.958 225.009 536.676 225.748 540.586 225.748C544.544 225.748 548.334 225.366 551.958 224.603V198.283H563.926ZM271.069 346.095V374.656H261.223V346.095H271.069ZM278.483 374.656V346.095H296.292V374.656H278.483ZM279.866 317.128C265.538 317.534 263.726 317.724 263.726 317.724C242.913 257.551 209.345 188.628 235.88 151.198C223.96 187.341 259.458 284.085 279.866 317.128ZM312.527 315.412C326.879 315.817 334.055 316.008 334.055 316.008C369.625 213.136 387.816 167.195 315.531 70.6888C339.205 141.304 338.204 222.887 312.527 315.412ZM303.706 374.656V346.095H311.002V374.656H303.706ZM333.388 346.095V374.656H338.013V346.095H333.388ZM258.624 338.513H340.612C343.353 338.513 345.594 340.754 345.594 343.496V377.254C345.594 379.996 343.353 382.237 340.612 382.237H258.624C255.882 382.237 253.641 379.996 253.641 377.254V343.496C253.641 340.754 255.882 338.513 258.624 338.513ZM299.987 432.517C278.125 432.517 260.388 450.254 260.388 472.14C260.388 494.002 278.125 511.739 299.987 511.739C321.873 511.739 339.61 494.002 339.61 472.14C339.61 450.254 321.873 432.517 299.987 432.517ZM299.987 435.282C279.651 435.282 263.154 451.78 263.154 472.14C263.154 492.476 279.651 508.973 299.987 508.973C320.347 508.973 336.845 492.476 336.845 472.14C336.845 451.78 320.347 435.282 299.987 435.282ZM299.987 433.876C278.865 433.876 261.747 450.993 261.747 472.14C261.747 493.262 278.865 510.38 299.987 510.38C321.134 510.38 338.251 493.262 338.251 472.14C338.251 450.993 321.134 433.876 299.987 433.876ZM296.197 447.584H296.22H296.197ZM295.458 447.703C295.505 447.703 295.577 447.679 295.624 447.679C295.577 447.679 295.505 447.703 295.458 447.703ZM294.742 447.846C294.862 447.822 294.957 447.799 295.052 447.799C294.957 447.799 294.862 447.822 294.742 447.846ZM294.075 448.013C294.218 447.965 294.337 447.942 294.48 447.918C294.337 447.942 294.218 447.965 294.075 448.013ZM275.861 489.806H275.837L273.93 493.167V493.215L274.382 493.763H274.43L278.102 492.547V492.5L277.601 491.904H277.553L275.002 492.786L276.361 490.449V490.402L275.861 489.806ZM278.65 493.024H278.602L278.125 493.525V493.549L278.912 494.288L276.91 496.409L276.933 496.433L277.41 496.91H277.458L279.437 494.788L280.223 495.527H280.271L280.724 495.051V495.003L278.65 493.024ZM280.772 497.721L281.106 497.983C281.32 498.126 281.392 498.317 281.225 498.555C281.058 498.793 280.843 498.746 280.629 498.603L280.295 498.341L280.772 497.721ZM281.63 496.6L281.845 496.767C282.059 496.934 282.083 497.125 281.964 497.268C281.845 497.458 281.654 497.482 281.415 497.292L281.225 497.148L281.63 496.6ZM281.511 495.575L281.487 495.599L279.294 498.46V498.507L280.223 499.223C280.772 499.628 281.415 499.628 281.868 499.056C282.107 498.746 282.131 498.293 281.964 498.007C282.202 498.054 282.464 497.959 282.655 497.697C283.037 497.22 282.822 496.576 282.274 496.171L281.511 495.575ZM285.158 498.078H285.111L284.205 499.89C283.728 500.844 284.086 501.726 284.896 502.131C285.683 502.536 286.613 502.298 287.113 501.344L288.019 499.533L287.995 499.509L287.399 499.199L287.352 499.223L286.493 500.915C286.184 501.559 285.683 501.678 285.23 501.44C284.777 501.225 284.586 500.748 284.92 500.105L285.778 498.412L285.754 498.388L285.158 498.078ZM288.83 499.842L288.806 499.866L287.662 503.275V503.323L288.329 503.538L288.353 503.514L289.116 501.273L290.093 504.11L290.117 504.134L290.809 504.372L290.832 504.348L291.977 500.939L291.953 500.891L291.309 500.677L291.285 500.701L290.523 502.942L289.545 500.105L289.497 500.081L288.83 499.842ZM292.978 501.13L292.954 501.154L292.144 504.682L292.168 504.706L292.835 504.873L292.859 504.849L293.669 501.321L293.646 501.297L292.978 501.13ZM294.575 501.487L294.528 501.511L294.456 502.203L294.48 502.227L295.529 502.37L295.171 505.23L295.195 505.278L295.863 505.35L295.887 505.326L296.268 502.441L297.317 502.584L297.365 502.56L297.436 501.893L297.412 501.869L294.575 501.487ZM298.271 501.917L298.247 501.94L298.175 505.54L298.199 505.588L300.726 505.612L300.75 505.588V504.92L300.726 504.897L298.914 504.849L298.938 504.038L300.226 504.062L300.249 504.038V503.371L300.226 503.347L298.962 503.323V502.656L300.726 502.679L300.75 502.656V501.988L300.726 501.964L298.271 501.917ZM302.514 502.584L303.039 502.536C303.73 502.489 304.231 502.894 304.279 503.538C304.326 504.181 303.897 504.682 303.23 504.73L302.705 504.777L302.514 502.584ZM301.751 501.917L301.728 501.94L302.038 505.54L302.061 505.564L303.277 505.469C304.398 505.373 305.137 504.491 305.065 503.466C304.994 502.465 304.112 501.726 302.991 501.797L301.751 501.917ZM306.734 501.178L306.71 501.201L307.616 504.706H307.664L309.69 504.181V504.158L309.523 503.49H309.5L308.165 503.824L307.425 501.011H307.402L306.734 501.178ZM309.523 500.391V500.415L310.811 503.776L310.859 503.8L313.195 502.894L313.219 502.846L312.957 502.227L312.933 502.203L311.24 502.87L310.954 502.107L312.146 501.63L312.17 501.607L311.908 500.963H311.884L310.692 501.416L310.453 500.82L312.098 500.176V500.152L311.86 499.509L311.812 499.485L309.523 500.391ZM314.268 499.342L315.317 500.176L314.554 500.582L314.268 499.342ZM313.409 498.746V498.77L314.101 502.465L314.125 502.489L314.888 502.083V502.06L314.721 501.297L315.937 500.653L316.58 501.154H316.604L317.367 500.748V500.725L314.125 498.388H314.101L313.409 498.746ZM318.726 496.386L318.178 495.766C317.772 495.909 317.415 496.147 317.057 496.457C316.199 497.22 316.127 498.436 316.819 499.223C317.534 500.009 318.75 500.057 319.584 499.318C319.942 499.008 320.204 498.65 320.347 498.221L319.084 496.791H319.036L318.106 497.625V497.673L318.559 498.174H318.583L319.012 497.816L319.441 498.317C319.393 498.436 319.227 498.627 319.084 498.746C318.535 499.223 317.844 499.151 317.439 498.674C317.009 498.197 317.009 497.506 317.558 497.029C317.891 496.743 318.273 496.505 318.726 496.409V496.386ZM319.084 494.979V495.027L320.466 496.505C321.181 497.292 322.159 497.244 322.803 496.648C323.47 496.052 323.566 495.098 322.85 494.311L321.468 492.833L321.444 492.809L320.943 493.286V493.31L322.23 494.717C322.707 495.241 322.66 495.766 322.302 496.099C321.921 496.433 321.396 496.457 320.919 495.933L319.632 494.526H319.584L319.084 494.979ZM322.302 491.904V491.951L325.115 494.216H325.139L326.712 492.261V492.213L326.188 491.784H326.14L325.02 493.191L324.376 492.69L325.187 491.689V491.665L324.662 491.236H324.615L323.804 492.237L323.303 491.832L324.4 490.449V490.425L323.875 489.996H323.828L322.302 491.904ZM272.618 452.781V452.805L275.479 454.998H275.527L277.053 452.996L277.029 452.972L276.504 452.543H276.457L275.36 453.997L274.716 453.496L275.503 452.471V452.447L274.955 452.018L274.907 452.042L274.144 453.043L273.62 452.662L274.692 451.255L274.669 451.232L274.144 450.802L274.096 450.826L272.618 452.781ZM276.933 448.848L277.768 448.037L279.294 449.61L278.292 450.564C278.221 450.469 278.173 450.421 278.149 450.373L276.933 448.848ZM275.956 448.728V448.776L277.529 450.779C277.601 450.922 277.672 451.017 277.696 451.136L277.386 451.446V451.47L278.483 452.662H278.531L279.031 452.185V452.138L278.388 451.494L280.104 449.849L280.724 450.516H280.772L281.249 450.063L281.272 450.016L280.152 448.848H280.104L279.818 449.11L277.816 447.012H277.792L275.956 448.728ZM279.675 445.438V445.486L281.725 448.466H281.773L282.345 448.061L282.369 448.013L282.536 445.009L283.871 446.964L283.919 446.988L284.467 446.583L284.491 446.559L282.441 443.579H282.393L281.821 443.984L281.797 444.032L281.63 447.036L280.271 445.057H280.247L279.675 445.438ZM284.252 442.53L284.229 442.577L285.778 445.844H285.826L286.422 445.558L286.446 445.534L285.802 444.151L287.304 443.436L287.948 444.818H287.995L288.615 444.532V444.509L287.09 441.242L287.042 441.219L286.422 441.505V441.552L286.994 442.768L285.492 443.483L284.896 442.268L284.872 442.244L284.252 442.53ZM290.809 440.909L291.548 441.981L290.737 442.196L290.809 440.909ZM290.213 440.098L290.189 440.122L289.831 443.984L289.855 444.008L290.642 443.769L290.666 443.746L290.713 442.983L291.977 442.625L292.43 443.245L292.454 443.269L293.24 443.054L293.264 443.007L290.952 439.907H290.904L290.213 440.098ZM296.03 439.645L296.125 440.36L295.863 440.384C295.577 440.432 295.41 440.336 295.386 440.098C295.338 439.836 295.481 439.717 295.767 439.669L296.03 439.645ZM296.65 438.811L295.624 438.954C294.909 439.049 294.528 439.597 294.599 440.193C294.647 440.599 294.862 440.861 295.195 440.98L294.17 442.792L294.194 442.816L295.028 442.72L295.052 442.697L295.958 441.123L296.22 441.099L296.411 442.506L296.435 442.53L297.103 442.458L297.126 442.411L296.673 438.834L296.65 438.811ZM301.632 438.691L301.585 438.715L300.965 441.171C300.846 441.505 300.607 441.648 300.273 441.6L300.249 441.624L300.202 442.268L300.226 442.315C300.893 442.387 301.394 442.148 301.608 441.409L302.133 439.478L303.277 439.574L303.015 442.458L303.039 442.482L303.706 442.554L303.754 442.53L304.064 438.93L304.04 438.906L301.632 438.691ZM306.067 439.216H306.043L305.232 442.744L305.256 442.768L305.947 442.935L305.995 442.911L308.308 441.004L307.783 443.34L307.807 443.364L308.451 443.531L308.498 443.507L309.309 439.979L309.285 439.955L308.594 439.788L308.546 439.812L306.233 441.719L306.758 439.383L306.734 439.359L306.067 439.216ZM311.431 440.67L311.383 440.694L310.024 444.032V444.056L310.668 444.318H310.692L311.812 441.624L313.386 442.268H313.409L313.672 441.624L313.648 441.6L311.431 440.67ZM315.46 443.555L315.245 444.842L314.506 444.437L315.46 443.555ZM315.603 442.554L315.555 442.577L312.623 445.081V445.105L313.338 445.486H313.386L313.958 444.961L315.102 445.581L314.983 446.368V446.392L315.698 446.773H315.746L316.246 442.935V442.911L315.603 442.554ZM319.25 447.489L319.584 447.751C319.799 447.918 319.87 448.132 319.68 448.347C319.513 448.561 319.298 448.538 319.084 448.371L318.774 448.108L319.25 447.489ZM320.156 446.392L320.347 446.559C320.585 446.75 320.609 446.94 320.466 447.083C320.323 447.25 320.156 447.274 319.918 447.107L319.727 446.94L320.156 446.392ZM320.061 445.391H320.037L317.748 448.204V448.228L318.678 448.967C319.203 449.396 319.846 449.42 320.323 448.848C320.562 448.561 320.609 448.132 320.442 447.822C320.681 447.87 320.943 447.799 321.134 447.536C321.539 447.059 321.348 446.416 320.824 445.987L320.061 445.391ZM322.97 447.822L322.946 447.799L322.445 448.275V448.323L323.184 449.086L321.11 451.112V451.136L321.563 451.637H321.611L323.709 449.61L324.448 450.397H324.471L324.972 449.92V449.873L322.97 447.822ZM324.948 453.21L325.211 453.568C325.401 453.83 325.425 454.045 325.187 454.212C324.924 454.402 324.734 454.307 324.543 454.069L324.281 453.711L324.948 453.21ZM326.236 451.398H326.188L323.279 453.52V453.568L323.995 454.545C324.424 455.094 325.067 455.284 325.664 454.855C326.236 454.402 326.236 453.759 325.83 453.187L325.52 452.781L326.069 452.4L326.951 453.592L326.975 453.616L327.523 453.21V453.163L326.236 451.398ZM317.224 467.753V467.777C317.319 467.801 317.415 467.872 317.462 467.92C317.605 468.039 317.677 468.206 317.677 468.397C317.677 468.754 317.486 468.993 317.176 469.088C317.081 469.112 316.986 469.112 316.819 469.112H315.889V466.585H316.699C316.866 466.585 316.986 466.585 317.081 466.609C317.391 466.704 317.582 466.895 317.582 467.205C317.582 467.395 317.51 467.539 317.415 467.634C317.367 467.682 317.319 467.729 317.224 467.753ZM316.413 468.039V468.707H316.747C316.866 468.707 316.962 468.683 317.033 468.635C317.105 468.564 317.129 468.468 317.129 468.373C317.129 468.278 317.105 468.206 317.057 468.135C316.986 468.063 316.89 468.039 316.747 468.039H316.413ZM316.39 467.586H316.676C316.771 467.586 316.819 467.586 316.866 467.586C316.986 467.539 317.057 467.443 317.057 467.3C317.057 467.133 316.986 467.038 316.866 467.014C316.819 466.99 316.771 466.99 316.676 466.99H316.39V467.586ZM318.44 469.112V467.014H317.701V466.585H319.727L319.584 467.014H318.94V469.112H318.44ZM319.894 469.112V466.585H321.539L321.396 467.014H320.395V467.562H320.8C321.134 467.562 321.301 467.634 321.42 467.753C321.515 467.825 321.682 467.991 321.682 468.349C321.682 468.683 321.515 468.874 321.372 468.969C321.229 469.088 321.062 469.112 320.705 469.112H319.894ZM320.395 468.683H320.776C320.919 468.683 321.015 468.659 321.086 468.587C321.11 468.54 321.158 468.468 321.158 468.325C321.158 468.206 321.11 468.111 321.015 468.039C320.967 468.015 320.895 467.991 320.776 467.991H320.395V468.683ZM315.46 465.941H313.338L313.195 466.37H315.317L315.46 465.941ZM315.245 466.585H313.1L312.957 466.99H315.078L315.245 466.585ZM315.007 467.205H312.885L312.718 467.634H314.864L315.007 467.205ZM317.987 489.233C316.914 486.754 315.317 484.513 313.314 482.653C311.097 480.603 308.427 479.077 305.542 478.243L306.71 473.451C312.718 474.047 318.607 475.477 324.209 477.671C323.208 482.105 321.015 486.063 317.987 489.233ZM293.121 496.004L294.814 490.044C298.485 491.761 302.371 492.929 306.377 493.572L307.139 495.933L293.121 496.004ZM306.734 496.052C306.281 496.171 305.828 496.29 305.351 496.386L306.734 496.052ZM304.827 496.505C303.253 496.815 301.632 496.982 300.011 496.982C298.724 496.982 297.484 496.886 296.268 496.696L304.827 496.505ZM296.197 496.672C295.815 496.624 295.458 496.552 295.1 496.481H295.076H295.052H295.028V496.457H295.005H294.981H294.957H294.933H294.909V496.433H294.885H294.862C294.289 496.314 293.693 496.171 293.121 496.004L296.197 496.672ZM275.789 477.671C281.106 475.573 286.684 474.19 292.406 473.546L293.741 478.457C288.472 480.246 284.205 484.155 282.011 489.233C279.365 486.468 277.339 483.059 276.218 479.292L275.789 477.671ZM276.027 478.672L275.98 478.434V478.457V478.434L276.027 478.672ZM275.789 477.695V477.671V477.695ZM281.463 455.618C283.394 459.099 286.303 461.984 289.783 463.915L291.929 471.758C286.255 472.426 280.724 473.809 275.431 475.859C275.265 474.643 275.169 473.403 275.169 472.14C275.169 465.798 277.553 460.005 281.463 455.618ZM300.321 447.298L287.733 456.381L289.092 461.364C286.446 459.552 284.252 457.096 282.798 454.235C285.731 451.398 289.354 449.3 293.407 448.18H293.431H293.455V448.156H293.479H293.503H293.526H293.55V448.132H293.574H293.598H293.622L293.646 448.108H293.669H293.693H293.717V448.085H293.741H293.765H293.789H293.813V448.061H293.836H293.86H293.884H293.908V448.037C295.863 447.536 297.889 447.298 300.011 447.298C300.106 447.298 300.226 447.298 300.321 447.298ZM304.541 446.75C304.684 446.797 304.851 446.94 304.946 447.131L308.117 453.926C302.038 457.74 296.864 462.913 293.05 468.969L289.807 457.12L303.945 446.916C304.112 446.821 304.326 446.702 304.541 446.75ZM307.569 448.466L307.64 448.49L307.569 448.466ZM307.926 448.585C310.93 449.61 313.743 451.208 316.175 453.282L307.926 448.585ZM316.509 453.568L316.819 453.854L316.509 453.568ZM317.129 454.164L317.224 454.235C315.674 457.192 313.386 459.743 310.596 461.578L311.693 457.335L307.569 448.466L317.129 454.164ZM300.631 471.734L294.957 476.05L293.693 471.377C297.412 464.988 302.634 459.552 308.88 455.594L309.786 457.502L306.09 471.734H300.631ZM302.753 482.01L296.959 481.032L296.149 477.409L301.227 473.546H304.803L302.753 482.01ZM304.588 482.129L305.113 480.007C310.31 481.557 314.601 485.538 316.58 490.616C314.339 492.619 311.741 494.24 308.856 495.337L304.588 482.129ZM296.84 482.868L303.253 483.941L305.757 491.617C302.133 490.974 298.628 489.853 295.314 488.28L296.84 482.868ZM294.862 480.007L295.267 481.795L291.405 495.432C288.425 494.335 285.731 492.69 283.418 490.616C285.397 485.49 289.593 481.604 294.862 480.007ZM324.829 472.14C324.829 472.497 324.829 472.855 324.805 473.236L324.829 472.14ZM324.805 473.26L324.781 473.809V473.713V473.809L324.805 473.26ZM324.781 473.856L324.758 474.19L324.781 473.856ZM324.734 474.405L324.71 474.667L324.734 474.405ZM324.71 474.691C324.662 475.096 324.615 475.477 324.567 475.859C319.227 473.785 313.648 472.402 307.95 471.758L309.953 464.058C313.576 462.127 316.556 459.17 318.535 455.594C318.821 455.928 319.107 456.262 319.393 456.596C322.946 461.054 324.829 466.418 324.829 472.14L324.71 474.691ZM320.8 455.475C317.176 450.945 312.146 447.703 306.543 446.297C306.21 445.629 305.637 445.152 304.97 444.985C304.302 444.818 303.563 444.985 302.92 445.414L302.657 445.605C301.775 445.51 300.893 445.486 300.011 445.486C285.301 445.486 273.334 457.43 273.334 472.14C273.334 486.826 285.301 498.793 300.011 498.793C314.697 498.793 326.665 486.826 326.665 472.14C326.665 466.084 324.591 460.172 320.8 455.475ZM327.69 536.152C333.388 535.222 338.919 533.958 343.997 532.242C348.264 530.811 359.66 526.425 359.183 520.417L359.159 520.298L359.016 517.127L359.183 516.865C359.136 516.674 359.112 516.507 359.064 516.34L358.969 515.816L358.778 511.739C358.397 503.514 357.872 496.171 356.752 488.018C356.036 482.892 355.56 477.718 354.701 472.617C353.962 468.135 352.699 463.414 351.554 459.027C350.362 454.283 349.099 449.539 347.764 444.842C345.237 435.974 342.185 427.486 339.086 418.808C338.323 416.639 337.465 414.541 336.702 412.371C335.772 409.773 334.675 407.627 334.032 404.862L333.316 401.858L333.793 401.143H300.702L301.108 402.263C304.517 411.799 307.878 421.192 310.835 430.824C329.168 435.616 342.709 452.281 342.709 472.14C342.709 485.967 336.106 498.293 325.878 506.089C326.808 516.126 327.237 526.162 327.69 536.152ZM240.147 520.417L240.291 520.679L240.171 523.278C241.101 529.81 253.713 534.554 258.791 536.175C272.761 540.657 289.378 542.279 304.183 542.422C303.492 542.422 302.824 542.422 302.157 542.422C286.422 542.398 268.47 540.777 253.451 535.961C248.206 534.268 235.165 529.357 234.211 522.61L234.307 519.916L234.164 519.63C234.211 519.463 234.235 519.272 234.283 519.082L234.378 518.533L234.593 514.171C234.998 505.421 235.546 497.578 236.738 488.852C237.501 483.416 238.026 477.885 238.932 472.474C239.718 467.682 241.077 462.651 242.269 457.931C243.581 452.9 244.916 447.846 246.346 442.84C249.04 433.375 252.306 424.292 255.596 415.042C256.407 412.753 257.337 410.488 258.147 408.199C259.148 405.41 260.293 403.121 260.984 400.165L261.747 396.947L261.223 396.184H338.776L338.251 396.947L338.99 400.165C339.682 403.121 340.874 405.41 341.851 408.199C342.662 410.488 343.592 412.753 344.402 415.042C347.692 424.292 350.958 433.375 353.652 442.84C355.083 447.846 356.418 452.9 357.705 457.931C358.921 462.651 360.256 467.682 361.067 472.45C361.973 477.885 362.497 483.416 363.236 488.876C364.452 497.578 365 505.421 365.406 514.171L365.596 518.533L365.716 519.082C365.763 519.272 365.787 519.463 365.835 519.63L365.668 519.94L365.835 523.302V523.445C366.335 529.834 354.201 534.53 349.647 536.056C338.49 539.823 325.282 541.563 312.861 542.159C299.248 541.397 285.111 539.394 272.761 535.413C266.944 533.553 252.545 528.141 251.472 520.655L251.591 517.699L251.424 517.389C251.472 517.175 251.519 516.984 251.567 516.769L251.686 516.149L251.901 511.357C252.354 501.678 252.95 493.024 254.285 483.369C255.119 477.361 255.692 471.258 256.693 465.25C257.575 459.981 259.077 454.402 260.412 449.205C261.819 443.626 263.32 438.048 264.894 432.517C267.874 422.051 271.474 412.038 275.098 401.81L275.36 401.143H266.301L266.777 401.858L266.062 404.957C265.395 407.818 264.274 410.035 263.32 412.729C262.534 414.946 261.628 417.116 260.841 419.333C257.67 428.273 254.499 437.046 251.901 446.201C250.518 451.041 249.231 455.904 247.991 460.792C246.823 465.345 245.512 470.209 244.749 474.834C243.867 480.079 243.366 485.395 242.627 490.664C241.483 499.103 240.934 506.661 240.553 515.124L240.362 519.344L240.243 519.869C240.219 520.059 240.171 520.226 240.147 520.417ZM226.844 517.604C226.368 519.964 226.129 520.822 226.654 521.752L226.606 522.849C229.443 558.943 376.277 559.158 373.392 522.849L373.345 521.752C373.869 520.822 373.631 519.988 373.154 517.604L372.987 513.837C372.439 503.371 372.319 499.08 370.746 487.827C369.983 482.153 369.435 476.526 368.553 471.21C367.456 464.582 362.902 447.584 360.948 440.742C357.872 429.942 355.154 422.623 351.554 412.491C350.672 410.011 349.886 408.152 349.003 405.648C348.074 403.074 347.001 401.071 346.381 398.449C348.264 395.635 349.671 397.543 349.671 392.703C349.671 390.581 348.384 388.674 345.57 388.602H254.428C251.615 388.674 250.351 390.581 250.351 392.703C250.351 397.543 251.734 395.635 253.617 398.449C252.998 401.095 251.925 403.074 250.995 405.648C250.113 408.128 249.326 410.011 248.444 412.491C244.844 422.623 242.126 429.942 239.051 440.742C237.096 447.584 232.566 464.582 231.446 471.21C230.564 476.526 230.015 482.153 229.229 487.827C227.679 499.08 227.56 503.371 227.011 513.837L226.844 517.604ZM221.361 230.993C225.104 244.725 231.493 264.369 236.071 278.078L244.129 301.108C246.322 306.996 250.041 317.415 252.783 323.136C251.186 323.995 249.517 324.328 249.517 326.832C249.517 329.597 250.041 331.314 253.617 332.148H346.381C349.957 331.314 350.482 329.597 350.482 326.832C350.482 324.328 348.813 323.995 347.215 323.136C349.957 317.415 353.676 306.972 355.869 301.108L363.928 278.078C368.505 264.369 374.894 244.725 378.637 230.993C384.359 209.918 399.998 135.702 399.998 124.258C399.998 114.15 394.873 102.063 388.483 94.0287C383.93 88.3069 381.498 85.7083 375.443 81.7031C309.905 38.1703 286.303 40.7212 224.556 81.6792C218.5 85.7083 216.069 88.3308 211.515 94.0287C205.102 102.063 200 114.15 200 124.258C200 145.548 216.235 212.182 221.361 230.993ZM261.89 324.567H338.108L340.373 319.846C343.592 313.123 346.143 305.47 348.741 298.533L356.752 275.622C361.853 260.293 367.051 244.629 371.318 228.99C373.44 221.218 375.228 213.231 376.992 205.364C378.995 196.4 380.95 187.436 382.809 178.448C367.671 131.53 344.593 91.5492 313.147 59.1499C308.284 58.0771 303.444 57.5288 298.676 57.5765C294.838 57.648 290.952 58.1248 287.042 58.9354C255.191 91.5492 231.899 131.864 216.665 179.211C220.288 195.804 224.222 212.612 228.68 228.99C232.948 244.629 238.145 260.293 243.247 275.622L251.257 298.533C253.856 305.47 256.407 313.123 259.625 319.846L261.89 324.567ZM388.626 149.076C389.103 146.549 389.556 144.022 389.985 141.495C390.653 137.752 391.273 133.985 391.797 130.219C392.059 128.383 392.417 126.118 392.417 124.258C392.417 115.795 387.792 105.305 382.547 98.7491C378.709 93.9333 376.42 91.4539 371.247 88.0208C360.137 80.6541 346.882 72.0477 333.006 65.873C358.492 87.2579 377.159 114.889 388.626 149.076ZM267.326 65.5392C253.355 71.7377 239.981 80.5587 228.752 87.997C223.578 91.43 221.29 93.9333 217.451 98.7491C212.206 105.305 207.581 115.795 207.581 124.258C207.581 131.148 208.964 139.206 210.108 146.001C210.323 147.336 210.538 148.647 210.776 149.959C222.315 115.175 241.316 87.1626 267.326 65.5392ZM286.327 97.4379C283.275 97.1279 280.104 97.8193 276.814 99.512C277.315 95.9597 279.365 93.385 282.917 91.7638C286.732 91.1678 290.451 92.6697 294.027 96.2458C295.386 97.1994 296.316 98.3438 296.84 99.7027C296.077 100.656 295.243 101.276 294.409 101.515C292.144 99.7027 289.45 98.3438 286.327 97.4379ZM300.202 96.1505C299.129 97.0564 298.581 97.5332 298.581 97.5332C296.673 95.2922 293.526 92.6221 289.14 89.5228C292.811 88.9983 296.697 90.381 300.822 93.7187C301.06 94.72 300.869 95.5306 300.202 96.1505ZM275.765 102.564C275.551 104.876 276.314 107.284 278.006 109.787C283.108 108.476 287.566 106.307 291.405 103.231C291.214 102.254 290.046 101.777 287.876 101.777C284.586 101.133 280.557 101.395 275.765 102.564ZM302.753 96.9134C303.897 99.8219 304.04 102.206 303.206 104.042C302.681 102.134 301.847 100.513 300.679 99.2021C301.656 98.2723 302.347 97.5094 302.753 96.9134ZM299.63 111.361C298.461 113.101 297.198 113.983 295.815 114.007C296.197 111.051 296.387 107.808 296.34 104.304C297.46 103.613 298.175 103.088 298.485 102.707C300.011 105.138 300.369 108.023 299.63 111.361ZM291.238 115.604C285.516 115.104 282.321 113.84 281.702 111.766C286.684 109.883 290.451 108.166 293.05 106.616C293.646 106.76 293.932 107.522 293.908 108.881C293.383 113.459 292.501 115.7 291.238 115.604ZM304.732 122.828C303.754 120.706 302.991 119.252 302.467 118.418C302.061 117.035 302.491 116.582 303.778 117.059C304.398 117.512 304.898 118.179 305.256 119.061C305.876 120.778 306.567 121.088 307.354 119.991C308.331 117.321 308.117 114.937 306.686 112.815C306.329 111.861 305.852 110.932 305.256 109.978C304.898 108.834 305.065 108.333 305.78 108.476C306.09 107.403 306.686 107.26 307.569 108.047C308.284 109.12 308.808 110.502 309.19 112.219C309.333 110.884 309.357 109.62 309.309 108.428C309.881 107.689 310.358 107.785 310.715 108.762C311.025 110.598 311.145 112.505 311.025 114.484C311.741 114.603 312.146 114.293 312.265 113.578C311.979 110.622 312.337 109.215 313.338 109.334C313.791 109.358 314.005 109.859 313.958 110.884C314.029 114.15 314.196 116.486 314.482 117.893C314.315 123.472 315.317 127.024 317.486 128.574C319.155 130.099 320.609 131.291 321.873 132.15C322.183 133.342 321.778 133.747 320.681 133.366C317.82 131.673 315.054 130.195 312.384 128.931C308.57 126.929 306.019 124.878 304.732 122.828ZM287.924 127.334C287.781 136.083 287.066 142.139 285.802 145.5C285.445 147.646 285.683 148.838 286.493 149.124C287.376 149.363 287.995 148.504 288.401 146.573C289.283 142.902 289.974 136.632 290.403 127.787C290.88 124.878 292.144 122.661 294.194 121.088C297.961 119.037 299.892 117.392 299.963 116.105C299.439 115.247 298.533 115.342 297.198 116.463C295.195 117.345 293.383 117.893 291.786 118.084C291.381 118.108 290.308 118.727 288.496 119.967C285.135 119.919 282.56 118.513 280.748 115.771C278.435 113.483 277.434 113.483 277.768 115.747C278.888 120.301 281.916 122.757 286.827 123.162C287.471 123.71 287.852 125.093 287.924 127.334ZM284.729 135.297C285.135 133.652 285.063 131.864 284.539 129.956C283.18 133.771 281.511 137.299 279.556 140.542C276.48 148.48 276.576 153.558 279.818 155.728C281.034 156.086 282.178 156.133 283.227 155.871C283.442 154.441 282.989 153.32 281.845 152.557C281.725 148.051 282.679 142.306 284.729 135.297ZM288.496 159.161C287.733 156.944 286.946 155.084 286.16 153.606C286.613 152.414 287.113 151.675 287.662 151.413C288.448 151.341 289.068 151.818 289.521 152.891C290.904 156.896 292.144 160.091 293.288 162.451C293.813 164.501 293.503 165.526 292.334 165.55C291.119 165.86 289.855 163.738 288.496 159.161ZM314.196 157.588C316.008 154.56 317.2 150.936 317.725 146.716C318.535 145.334 319.346 145.19 320.109 146.311C319.465 150.412 319.155 154.631 319.131 158.994C319.203 162.379 318.583 164.311 317.248 164.811C315.603 164.978 314.84 163.715 314.911 160.997C313.982 162.523 313.171 164.001 312.504 165.407C310.978 165.264 310.406 163.929 310.811 161.426C311.478 159.852 312.623 158.565 314.196 157.588ZM293.693 176.994C294.051 179.569 292.811 181.738 289.95 183.478C286.803 180.498 284.896 176.612 284.229 171.82C282.822 168.793 281.392 166.17 279.914 163.881C279.031 161.14 278.793 159.137 279.246 157.897C279.89 157.516 280.724 157.802 281.725 158.78C282.464 159.781 283.037 160.973 283.418 162.308C285.85 165.646 287.829 168.054 289.378 169.484C289.354 171.367 289.331 172.297 289.331 172.297C290.332 173.68 291.786 175.253 293.693 176.994ZM309.547 232.566C307.592 241.339 306.21 248.325 305.399 253.522C301.823 259.863 298.557 263.893 295.648 265.657C295.219 263.845 295.744 261.818 297.222 259.601C298.914 257.456 300.321 254.261 301.465 250.041C302.467 245.178 303.587 238.931 304.779 231.35C304.588 230.373 303.23 229.896 300.702 229.944C297.198 229.348 293.24 229.872 288.83 231.517C288.973 228.275 289.354 225.652 289.95 223.626C295.005 221.695 300.297 222.839 305.852 227.107C305.9 224.556 304.04 222.672 300.321 221.433C296.745 221.576 293.813 220.813 291.476 219.192C291.047 217.952 291.309 216.331 292.287 214.28C294.933 214.066 298.247 215.234 302.252 217.785C302.896 217.237 302.896 216.402 302.252 215.234C299.534 214.28 296.959 212.969 294.552 211.324C293.36 210.204 293.455 209.608 294.862 209.56C297.603 210.108 299.487 210.323 300.488 210.18C296.65 208.535 294.122 206.198 292.907 203.171C299.797 206.055 304.279 207.247 306.4 206.771C306.305 205.03 302.324 202.002 294.48 197.64C293.574 197.115 292.907 196.448 292.501 195.613C299.129 198.808 303.969 200.62 306.996 201.097C307.378 198.426 303.778 195.399 296.173 192.037C294.146 191.203 292.692 190.321 291.738 189.367C290.403 188.604 290.427 187.746 291.786 186.792C296.363 183.025 297.722 176.326 295.863 166.695C297.532 166.218 298.366 166.003 298.366 166.003C300.345 168.077 302.181 171.034 303.873 174.824C307.521 174.49 309.357 174.324 309.357 174.324C309.38 171.463 309.094 168.769 308.546 166.218C308.904 165.455 309.357 165.407 309.881 166.099C312.623 169.365 314.768 173.942 316.294 179.878C317.367 177.78 317.796 175.969 317.605 174.419C316.866 171.987 316.843 170.438 317.558 169.77C318.511 168.435 319.656 166.599 320.991 164.287C323.852 157.897 325.401 151.794 325.64 146.001C325.282 144.881 324.543 144.022 323.399 143.45C319.155 140.804 316.318 138.444 314.911 136.322C319.322 139.063 323.065 140.756 326.069 141.376C328.191 142.806 329.001 144.976 328.477 147.884C327.642 156.586 325.759 162.952 322.826 167.005C321.491 169.412 320.729 171.582 320.538 173.561C319.536 178.114 318.44 181.571 317.295 184.003C317.415 199.69 317.462 207.51 317.462 207.51C315.102 210.132 311.621 211.157 306.973 210.609C309.714 211.777 313.052 212.254 317.009 212.087C318.559 219.335 319.227 226.177 319.012 232.638C317.939 233.186 317.486 233.448 317.677 233.4C315.102 246.06 313.29 253.522 312.265 255.787C311.145 257.17 309.976 257.932 308.761 258.123C311.741 249.517 313.648 240.529 314.482 231.207C312.504 231.279 310.859 231.732 309.547 232.566ZM292.358 232.733C294.337 231.922 295.481 231.875 295.791 232.566C296.077 245.583 295.958 254.023 295.458 257.932C293.55 259.816 292.621 260.746 292.621 260.746C291.643 260.436 291.19 259.601 291.262 258.266C290.642 243.056 290.332 235.451 290.332 235.451C289.998 233.973 290.666 233.067 292.358 232.733ZM298.891 277.315C299.034 274.072 301.847 269.114 307.33 262.414C308.927 261.127 309.738 261.103 309.786 262.295C303.563 282.393 300.464 292.454 300.464 292.454C299.82 294.361 298.938 294.742 297.794 293.598C296.554 292.787 296.268 291.142 296.959 288.639C298.247 281.082 298.891 277.315 298.891 277.315ZM288.138 272.261C288.282 270.353 290.117 267.945 293.622 264.965C293.884 279.341 293.145 288.806 291.428 293.336C290.403 293.026 289.617 292.144 289.021 290.713C287.948 280.819 287.662 274.668 288.138 272.261ZM283.037 296.697C282.584 295.457 284.205 294.551 287.924 294.003C288.544 298.318 288.544 302.276 287.924 305.9C286.493 303.706 284.872 300.631 283.037 296.697ZM301.585 297.436C300.702 301.37 299.463 304.469 297.865 306.734C295.338 304.66 294.575 300.679 295.529 294.742C299.558 296.53 301.585 297.436 301.585 297.436ZM292.334 299.701C290.475 298.271 289.617 298.199 289.783 299.439C289.783 306.639 289.783 310.262 289.783 310.262C292.048 314.148 294.313 316.962 296.554 318.726C297.484 316.556 298.008 314.673 298.128 313.076C295.815 309.19 293.908 304.731 292.334 299.701Z" fill="#3A3A3A"/>
</g>
</g>
<defs>
<clipPath id="clip0_430_2776">
<rect width="200" height="500" fill="white" transform="translate(200 50)"/>
</clipPath>
</defs>
</svg>
