<svg width="600" height="600" viewBox="0 0 600 600" fill="none" xmlns="http://www.w3.org/2000/svg">
<g opacity="0.6">
<path d="M449.989 145.395C449.69 102.954 436.66 79.5792 413.298 79.5792C404.256 79.5792 395.543 83.0874 389.847 86.0145C390.415 68.667 390.423 57.9588 390.423 57.4265L390.424 50H209.58V57.4256C209.58 57.6795 209.595 68.5566 210.169 86.0233C204.474 83.0942 195.753 79.5792 186.702 79.5792C163.34 79.5792 150.31 102.953 150.011 145.395C149.717 187.147 155.43 224.313 166.989 255.862C178.339 286.837 192.846 305.502 203.017 315.703C219.308 332.045 235.589 335.475 246.38 335.475C249.04 335.475 251.603 335.266 254 334.854C254.159 334.826 254.306 334.795 254.461 334.767C259.678 344.132 265.303 351.634 271.313 357.209C275.743 361.317 278.824 368.483 279.88 376.719C273.906 379.818 269.557 389.121 269.557 400.084C269.557 411.293 274.106 420.76 280.286 423.641V454.807H256.179V487.33H232.39V550H367.613V487.33H343.824V454.807H319.717V423.641C325.898 420.759 330.446 411.293 330.446 400.084C330.446 389.12 326.097 379.818 320.123 376.719C321.179 368.483 324.26 361.318 328.691 357.209C334.686 351.648 340.349 344.106 345.554 334.771C347.398 335.112 350.163 335.474 353.62 335.474C353.62 335.474 353.62 335.474 353.622 335.474C364.411 335.474 380.692 332.042 396.982 315.702C407.153 305.5 421.66 286.836 433.009 255.861C444.571 224.313 450.283 187.146 449.989 145.395ZM381.44 64.8511C381.401 67.5672 381.337 70.9817 381.24 74.9782H218.782C218.681 70.9826 218.613 67.5633 218.57 64.8511H381.44ZM387.5 133.035C393.537 129.686 401.36 126.309 408.368 126.309C414.245 126.309 418.476 128.702 420.944 133.421C423.781 138.845 424.696 147.957 423.661 160.508C419.353 212.784 405.754 253.591 385.368 275.409C378.267 283.009 370.619 286.149 364.21 287.265C377.767 239.769 384.329 180.177 387.5 133.035ZM217.087 184.762C221.469 223.941 227.52 257.585 235.071 284.759C235.305 285.603 235.543 286.434 235.78 287.265C229.373 286.147 221.73 283.008 214.632 275.411C194.247 253.592 180.647 212.786 176.339 160.509C175.305 147.958 176.219 138.845 179.056 133.423C181.525 128.703 185.756 126.312 191.632 126.312C198.646 126.312 206.477 129.694 212.516 133.045C213.594 149.123 215.069 166.721 217.087 184.762ZM246.38 320.624C236.719 320.624 222.15 317.562 207.612 302.979C192.744 288.066 158.235 242.872 158.921 145.569C159.163 111.159 168.25 94.4314 186.702 94.4314C196.569 94.4314 206.315 99.3899 210.77 102.005C210.992 106.987 211.241 111.984 211.517 116.96C205.461 113.995 198.326 111.458 191.632 111.458C183.067 111.458 176.577 115.562 172.34 123.659C167.735 132.462 166.111 145.539 167.511 162.528C169.91 191.634 174.923 217.359 182.412 238.988C189.561 259.637 198.782 276.096 209.817 287.906C220.596 299.443 232.255 302.352 240.571 302.631C240.599 302.713 240.628 302.791 240.656 302.872C241.112 304.203 241.572 305.512 242.037 306.804C242.182 307.207 242.328 307.608 242.474 308.007C242.917 309.222 243.365 310.425 243.816 311.604C243.986 312.048 244.158 312.48 244.33 312.92C244.637 313.708 244.947 314.489 245.258 315.262C245.559 316.009 245.862 316.748 246.166 317.48C246.464 318.196 246.763 318.908 247.064 319.61C247.205 319.94 247.344 320.283 247.485 320.609C247.127 320.619 246.758 320.624 246.38 320.624ZM358.704 502.184V535.149H241.301V502.184H256.18H343.825H358.704ZM319.719 469.66H334.914V487.331H265.09V469.66H280.286H319.719ZM289.196 454.807V424.549H310.808V454.807H289.196ZM321.537 400.084C321.537 405.384 318.95 409.696 315.77 409.696H284.234C281.054 409.696 278.467 405.384 278.467 400.084C278.467 394.784 281.054 390.472 284.234 390.472H315.77C318.95 390.472 321.537 394.784 321.537 400.084ZM343.823 315.189C343.774 315.295 343.724 315.401 343.675 315.508C343.237 316.453 342.795 317.375 342.351 318.285C342.242 318.506 342.135 318.732 342.025 318.953C341.537 319.941 341.045 320.908 340.55 321.851C340.526 321.896 340.504 321.943 340.48 321.988C335.512 331.435 330.088 338.918 324.36 344.231C317.299 350.778 312.497 362.407 311.177 375.62H288.828C287.507 362.406 282.706 350.778 275.644 344.231C270.115 339.104 265.122 332.251 260.611 324.062L259.521 321.989C255.091 313.568 250.916 303.366 247.112 291.669L245.946 288.083C226.788 226.381 220.993 137.2 219.246 89.8293H380.791C380.717 91.8901 380.635 94.0182 380.545 96.2284C380.541 96.331 380.536 96.4364 380.532 96.539C380.434 98.9338 380.328 101.335 380.216 103.739C380.214 103.809 380.21 103.88 380.207 103.951C379.851 111.569 379.429 119.215 378.948 126.771L378.657 131.339C375.419 179.712 368.582 241.336 354.164 287.755L352.891 291.668C350.058 300.376 347.019 308.253 343.823 315.189ZM392.389 302.979C377.85 317.563 363.283 320.624 353.623 320.624H353.621C353.242 320.624 352.873 320.619 352.514 320.609C352.52 320.595 352.526 320.581 352.532 320.567C353.11 319.237 353.679 317.887 354.24 316.519C354.309 316.352 354.376 316.181 354.445 316.014C354.919 314.85 355.386 313.67 355.847 312.478C355.966 312.173 356.085 311.866 356.203 311.558C356.714 310.221 357.22 308.875 357.715 307.506C357.793 307.292 357.869 307.073 357.946 306.857C358.352 305.726 358.754 304.584 359.15 303.432C359.242 303.162 359.338 302.904 359.431 302.633C367.747 302.354 379.406 299.445 390.184 287.907C401.22 276.096 410.441 259.637 417.59 238.99C425.078 217.361 430.091 191.636 432.491 162.53C433.89 145.54 432.266 132.463 427.661 123.661C423.426 115.563 416.935 111.459 408.37 111.459C401.676 111.459 394.54 113.994 388.485 116.96C388.766 111.886 389.007 107.02 389.213 102.394C389.219 102.265 389.225 102.135 389.231 102.007C393.687 99.3909 403.432 94.4333 413.3 94.4333C431.751 94.4333 440.838 111.161 441.081 145.569C441.764 242.872 407.257 288.065 392.389 302.979Z" fill="#3A3A3A"/>
</g>
</svg>
