<svg width="600" height="600" viewBox="0 0 600 600" fill="none" xmlns="http://www.w3.org/2000/svg">
<g opacity="0.6">
<path d="M442.857 501.613H421.429V445.161C421.429 431.823 411.814 420.968 400 420.968H353.757C332.636 386.911 321.429 347.008 321.429 305.387V280.79L368.236 307.21C369.25 307.782 370.343 308.065 371.429 308.065C373.143 308.065 374.843 307.371 376.186 306.024C378.371 303.831 379.143 300.347 378.143 297.25L351.443 214.355L418.379 161.452C420.836 159.508 421.957 156.04 421.186 152.766C420.414 149.5 417.914 147.113 414.929 146.806L340.5 139.169L306.5 54.7339C305.343 51.8468 302.8 50 300 50C297.2 50 294.657 51.8468 293.5 54.7258L259.5 139.161L185.071 146.798C182.086 147.105 179.586 149.484 178.814 152.758C178.043 156.032 179.164 159.5 181.621 161.444L248.557 214.347L221.857 297.242C220.857 300.347 221.636 303.823 223.814 306.016C226 308.21 229.143 308.685 231.764 307.21L278.571 280.79V305.387C278.571 347.016 267.364 386.911 246.243 420.968H200C188.186 420.968 178.571 431.823 178.571 445.161V501.613H157.143C153.2 501.613 150 505.226 150 509.677V541.935C150 546.387 153.2 550 157.143 550H442.857C446.8 550 450 546.387 450 541.935V509.677C450 505.226 446.8 501.613 442.857 501.613ZM263.857 214.048C264.957 210.621 263.886 206.782 261.236 204.685L205.807 160.879L264.929 154.815C267.486 154.548 269.721 152.758 270.786 150.113L300 77.5564L329.214 150.113C330.271 152.758 332.507 154.548 335.071 154.815L394.193 160.879L338.764 204.685C336.114 206.782 335.043 210.621 336.143 214.048L358.593 283.742L303.2 252.468C302.193 251.895 301.093 251.613 300 251.613C298.907 251.613 297.807 251.895 296.807 252.46L241.414 283.734L263.857 214.048ZM292.857 305.387V272.726L300 268.694L307.143 272.726V305.387C307.143 346.629 317.371 386.282 336.664 420.968H263.336C282.629 386.29 292.857 346.629 292.857 305.387ZM192.857 445.161C192.857 440.718 196.064 437.097 200 437.097H400C403.936 437.097 407.143 440.718 407.143 445.161V501.613H364.286V461.29C364.286 456.839 361.086 453.226 357.143 453.226H242.857C238.914 453.226 235.714 456.839 235.714 461.29V501.613H192.857V445.161ZM350 501.613H250V469.355H350V501.613ZM435.714 533.871H164.286V517.742H435.714V533.871Z" fill="#3A3A3A"/>
</g>
</svg>
