<svg width="600" height="600" viewBox="0 0 600 600" fill="none" xmlns="http://www.w3.org/2000/svg">
<g opacity="0.6">
<path d="M421.691 351.932H410.58V450H370V150H419.034C436.264 150 449.066 157.891 457.44 173.672C465.813 189.453 470 215.378 470 251.449C470 287.52 466.055 313.285 458.164 328.744C450.274 344.203 438.116 351.932 421.691 351.932ZM426.28 286.715C427.729 281.24 428.454 271.417 428.454 257.246C428.454 243.076 427.649 233.092 426.039 227.295C424.428 221.498 421.208 218.599 416.377 218.599H410.58V294.928H417.343C421.852 294.928 424.831 292.19 426.28 286.715Z" fill="#3A3A3A"/>
<path d="M360 150L338.17 450H283.285L260 150H299.293L310.52 346.618H314.054L322.578 150H360Z" fill="#3A3A3A"/>
<path d="M250 450H218.962V293.478H217.183L205.519 450H173.69L162.619 293.478H160.643V450H130L134.152 150H178.633L189.703 312.319H191.285L201.96 150H245.848L250 450Z" fill="#3A3A3A"/>
</g>
</svg>
