<svg width="100" height="70" viewBox="0 0 100 70" fill="none" xmlns="http://www.w3.org/2000/svg">
<rect width="100" height="70" rx="2" fill="white"/>
<mask id="mask0_385_1893" style="mask-type:alpha" maskUnits="userSpaceOnUse" x="0" y="0" width="100" height="70">
<rect width="100" height="70" rx="2" fill="white"/>
</mask>
<g mask="url(#mask0_385_1893)">
<path fill-rule="evenodd" clip-rule="evenodd" d="M100 0H0V4.66667H100V0ZM100 9.33333H0V14H100V9.33333ZM0 18.6667H100V23.3333H0V18.6667ZM100 28H0V32.6667H100V28ZM0 37.3333H100V42H0V37.3333ZM100 46.6667H0V51.3333H100V46.6667ZM0 56H100V60.6667H0V56ZM100 65.3333H0V70H100V65.3333Z" fill="#D02F44"/>
<rect width="42.8571" height="32.6667" fill="#46467F"/>
<g filter="url(#filter0_d_385_1893)">
<path fill-rule="evenodd" clip-rule="evenodd" d="M9.52387 6.99984C9.52387 8.2885 8.45788 9.33317 7.14292 9.33317C5.82795 9.33317 4.76196 8.2885 4.76196 6.99984C4.76196 5.71117 5.82795 4.6665 7.14292 4.6665C8.45788 4.6665 9.52387 5.71117 9.52387 6.99984ZM19.0477 6.99984C19.0477 8.2885 17.9817 9.33317 16.6667 9.33317C15.3518 9.33317 14.2858 8.2885 14.2858 6.99984C14.2858 5.71117 15.3518 4.6665 16.6667 4.6665C17.9817 4.6665 19.0477 5.71117 19.0477 6.99984ZM26.1905 9.33317C27.5055 9.33317 28.5715 8.2885 28.5715 6.99984C28.5715 5.71117 27.5055 4.6665 26.1905 4.6665C24.8756 4.6665 23.8096 5.71117 23.8096 6.99984C23.8096 8.2885 24.8756 9.33317 26.1905 9.33317ZM38.0953 6.99984C38.0953 8.2885 37.0293 9.33317 35.7143 9.33317C34.3994 9.33317 33.3334 8.2885 33.3334 6.99984C33.3334 5.71117 34.3994 4.6665 35.7143 4.6665C37.0293 4.6665 38.0953 5.71117 38.0953 6.99984ZM11.9048 13.9998C13.2198 13.9998 14.2858 12.9552 14.2858 11.6665C14.2858 10.3778 13.2198 9.33317 11.9048 9.33317C10.5899 9.33317 9.52387 10.3778 9.52387 11.6665C9.52387 12.9552 10.5899 13.9998 11.9048 13.9998ZM23.8096 11.6665C23.8096 12.9552 22.7436 13.9998 21.4286 13.9998C20.1137 13.9998 19.0477 12.9552 19.0477 11.6665C19.0477 10.3778 20.1137 9.33317 21.4286 9.33317C22.7436 9.33317 23.8096 10.3778 23.8096 11.6665ZM30.9524 13.9998C32.2674 13.9998 33.3334 12.9552 33.3334 11.6665C33.3334 10.3778 32.2674 9.33317 30.9524 9.33317C29.6375 9.33317 28.5715 10.3778 28.5715 11.6665C28.5715 12.9552 29.6375 13.9998 30.9524 13.9998ZM38.0953 16.3332C38.0953 17.6218 37.0293 18.6665 35.7143 18.6665C34.3994 18.6665 33.3334 17.6218 33.3334 16.3332C33.3334 15.0445 34.3994 13.9998 35.7143 13.9998C37.0293 13.9998 38.0953 15.0445 38.0953 16.3332ZM26.1905 18.6665C27.5055 18.6665 28.5715 17.6218 28.5715 16.3332C28.5715 15.0445 27.5055 13.9998 26.1905 13.9998C24.8756 13.9998 23.8096 15.0445 23.8096 16.3332C23.8096 17.6218 24.8756 18.6665 26.1905 18.6665ZM19.0477 16.3332C19.0477 17.6218 17.9817 18.6665 16.6667 18.6665C15.3518 18.6665 14.2858 17.6218 14.2858 16.3332C14.2858 15.0445 15.3518 13.9998 16.6667 13.9998C17.9817 13.9998 19.0477 15.0445 19.0477 16.3332ZM7.14292 18.6665C8.45788 18.6665 9.52387 17.6218 9.52387 16.3332C9.52387 15.0445 8.45788 13.9998 7.14292 13.9998C5.82795 13.9998 4.76196 15.0445 4.76196 16.3332C4.76196 17.6218 5.82795 18.6665 7.14292 18.6665ZM14.2858 20.9998C14.2858 22.2885 13.2198 23.3332 11.9048 23.3332C10.5899 23.3332 9.52387 22.2885 9.52387 20.9998C9.52387 19.7112 10.5899 18.6665 11.9048 18.6665C13.2198 18.6665 14.2858 19.7112 14.2858 20.9998ZM21.4286 23.3332C22.7436 23.3332 23.8096 22.2885 23.8096 20.9998C23.8096 19.7112 22.7436 18.6665 21.4286 18.6665C20.1137 18.6665 19.0477 19.7112 19.0477 20.9998C19.0477 22.2885 20.1137 23.3332 21.4286 23.3332ZM33.3334 20.9998C33.3334 22.2885 32.2674 23.3332 30.9524 23.3332C29.6375 23.3332 28.5715 22.2885 28.5715 20.9998C28.5715 19.7112 29.6375 18.6665 30.9524 18.6665C32.2674 18.6665 33.3334 19.7112 33.3334 20.9998ZM35.7143 27.9998C37.0293 27.9998 38.0953 26.9552 38.0953 25.6665C38.0953 24.3778 37.0293 23.3332 35.7143 23.3332C34.3994 23.3332 33.3334 24.3778 33.3334 25.6665C33.3334 26.9552 34.3994 27.9998 35.7143 27.9998ZM28.5715 25.6665C28.5715 26.9552 27.5055 27.9998 26.1905 27.9998C24.8756 27.9998 23.8096 26.9552 23.8096 25.6665C23.8096 24.3778 24.8756 23.3332 26.1905 23.3332C27.5055 23.3332 28.5715 24.3778 28.5715 25.6665ZM16.6667 27.9998C17.9817 27.9998 19.0477 26.9552 19.0477 25.6665C19.0477 24.3778 17.9817 23.3332 16.6667 23.3332C15.3518 23.3332 14.2858 24.3778 14.2858 25.6665C14.2858 26.9552 15.3518 27.9998 16.6667 27.9998ZM9.52387 25.6665C9.52387 26.9552 8.45788 27.9998 7.14292 27.9998C5.82795 27.9998 4.76196 26.9552 4.76196 25.6665C4.76196 24.3778 5.82795 23.3332 7.14292 23.3332C8.45788 23.3332 9.52387 24.3778 9.52387 25.6665Z" fill="url(#paint0_linear_385_1893)"/>
</g>
</g>
<defs>
<filter id="filter0_d_385_1893" x="4.76196" y="4.6665" width="33.3333" height="24.3335" filterUnits="userSpaceOnUse" color-interpolation-filters="sRGB">
<feFlood flood-opacity="0" result="BackgroundImageFix"/>
<feColorMatrix in="SourceAlpha" type="matrix" values="0 0 0 0 0 0 0 0 0 0 0 0 0 0 0 0 0 0 127 0" result="hardAlpha"/>
<feOffset dy="1"/>
<feColorMatrix type="matrix" values="0 0 0 0 0 0 0 0 0 0 0 0 0 0 0 0 0 0 0.06 0"/>
<feBlend mode="normal" in2="BackgroundImageFix" result="effect1_dropShadow_385_1893"/>
<feBlend mode="normal" in="SourceGraphic" in2="effect1_dropShadow_385_1893" result="shape"/>
</filter>
<linearGradient id="paint0_linear_385_1893" x1="4.76196" y1="4.6665" x2="4.76196" y2="27.9998" gradientUnits="userSpaceOnUse">
<stop stop-color="white"/>
<stop offset="1" stop-color="#F0F0F0"/>
</linearGradient>
</defs>
</svg>
