<svg width="36" height="90" viewBox="0 0 36 90" fill="none" xmlns="http://www.w3.org/2000/svg">
<g clip-path="url(#clip0_317_849)">
<path fill-rule="evenodd" clip-rule="evenodd" d="M18.5942 17.13C18.474 17.0828 18.3753 17.1257 18.2895 17.2544C17.9248 17.5505 17.5085 17.6621 17.0493 17.5892C16.809 17.4733 16.7489 17.2373 16.8605 16.8768C17.1223 16.4262 17.5986 16.2245 18.2895 16.2717C18.886 16.3104 19.2593 16.5378 19.401 16.9583C19.6284 17.4819 19.7443 17.7479 19.7443 17.7479C19.5254 18.3015 19.4954 18.6577 19.6456 18.8036C19.7142 18.9795 19.6756 19.1254 19.5211 19.2499C19.2121 19.3958 19.1092 19.7434 19.2121 20.297C19.2679 21.0479 19.195 21.4513 19.0019 21.5071C18.7487 21.5715 18.6371 21.2539 18.6629 20.563C18.0707 20.666 17.7188 20.5459 17.6072 20.2026C18.135 20.2069 18.4955 20.1253 18.6886 19.9622C18.753 19.4087 18.856 18.9667 19.0019 18.6405C19.0405 18.3745 18.9761 18.1899 18.8088 18.0827C18.7144 18.0526 18.6414 18.0483 18.5899 18.0827C18.4569 18.1814 18.2981 18.2157 18.105 18.1857C18.0621 18.4818 18.0664 18.7135 18.1136 18.8851C18.2895 18.9581 18.3925 19.0782 18.4225 19.2499C18.2466 19.1812 18.1307 19.1812 18.0621 19.2542C17.972 19.3057 17.8775 19.3143 17.766 19.2671C17.6716 19.2928 17.5943 19.34 17.53 19.4087C17.4785 19.2113 17.5471 19.104 17.7445 19.0954C17.7703 19.001 17.8346 18.9452 17.929 18.9238C17.8733 18.3959 17.9119 18.0784 18.0406 17.9668C18.2037 17.8123 18.3968 17.7909 18.6242 17.9024C18.7015 17.9196 18.7487 17.9067 18.7744 17.8638C18.8002 17.5205 18.7401 17.2759 18.5942 17.13ZM176.415 72.329H169.584V71.3763L173.193 67.3639C173.729 66.7589 174.098 66.2611 174.3 65.8834C174.506 65.5015 174.604 65.111 174.604 64.7033C174.604 64.1583 174.441 63.712 174.111 63.3644C173.78 63.0126 173.343 62.8409 172.793 62.8409C172.133 62.8409 171.622 63.0297 171.257 63.4031C170.892 63.7807 170.712 64.3042 170.712 64.9694H169.382C169.382 64.0124 169.695 63.2357 170.313 62.6435C170.931 62.0513 171.755 61.7552 172.793 61.7552C173.759 61.7552 174.527 62.0084 175.089 62.5191C175.656 63.0254 175.939 63.7035 175.939 64.5488C175.939 65.5745 175.282 66.7975 173.974 68.2179L171.18 71.2476H176.415V72.329ZM136.948 72.329H135.614V63.5018L132.944 64.4845V63.2786L136.738 61.8582H136.948V72.329ZM168.18 72.329H161.349V71.3763L164.958 67.3639C165.494 66.7589 165.863 66.2611 166.065 65.8834C166.266 65.5015 166.369 65.111 166.369 64.7033C166.369 64.1583 166.206 63.712 165.876 63.3644C165.545 63.0126 165.108 62.8409 164.558 62.8409C163.898 62.8409 163.387 63.0297 163.022 63.4031C162.653 63.7807 162.473 64.3042 162.473 64.9694H161.147C161.147 64.0124 161.456 63.2357 162.074 62.6435C162.692 62.0513 163.52 61.7552 164.558 61.7552C165.524 61.7552 166.292 62.0084 166.854 62.5191C167.421 63.0254 167.7 63.7035 167.7 64.5488C167.7 65.5745 167.047 66.7975 165.739 68.2179L162.945 71.2476H168.18V72.329ZM159.649 67.8832C159.649 69.4366 159.387 70.591 158.855 71.3463C158.323 72.1015 157.495 72.4792 156.371 72.4792C155.255 72.4792 154.435 72.1101 153.899 71.372C153.362 70.6339 153.088 69.531 153.066 68.0634V66.2911C153.066 64.7591 153.332 63.6176 153.865 62.8709C154.392 62.1285 155.225 61.7552 156.358 61.7552C157.478 61.7552 158.306 62.1157 158.834 62.8323C159.362 63.5533 159.636 64.6604 159.649 66.1624V67.8832ZM158.323 66.0637C158.323 64.9436 158.169 64.124 157.851 63.609C157.538 63.0984 157.04 62.8409 156.358 62.8409C155.675 62.8409 155.182 63.0984 154.873 63.609C154.564 64.1197 154.405 64.905 154.392 65.965V68.0849C154.392 69.2178 154.555 70.046 154.886 70.5867C155.212 71.1231 155.705 71.3935 156.371 71.3935C157.023 71.3935 157.512 71.136 157.83 70.6339C158.147 70.1275 158.31 69.3293 158.323 68.2394V66.0637ZM151.706 72.329H144.874V71.3763L148.483 67.3639C149.02 66.7589 149.389 66.2611 149.59 65.8834C149.796 65.5015 149.895 65.111 149.895 64.7033C149.895 64.1583 149.732 63.712 149.402 63.3644C149.071 63.0126 148.633 62.8409 148.084 62.8409C147.423 62.8409 146.913 63.0297 146.548 63.4031C146.183 63.7807 145.999 64.3042 145.999 64.9694H144.673C144.673 64.0124 144.982 63.2357 145.604 62.6435C146.222 62.0513 147.046 61.7552 148.084 61.7552C149.05 61.7552 149.818 62.0084 150.38 62.5191C150.946 63.0254 151.225 63.7035 151.225 64.5488C151.225 65.5745 150.573 66.7975 149.264 68.2179L146.471 71.2476H151.706V72.329ZM143.72 68.4453H140.227V67.3596H143.72V68.4453ZM131.189 72.329H124.353V71.3763L127.967 67.3639C128.499 66.7589 128.872 66.2611 129.074 65.8834C129.275 65.5015 129.374 65.111 129.374 64.7033C129.374 64.1583 129.211 63.712 128.881 63.3644C128.55 63.0126 128.112 62.8409 127.563 62.8409C126.902 62.8409 126.392 63.0297 126.031 63.4031C125.662 63.7807 125.482 64.3042 125.482 64.9694H124.156C124.156 64.0124 124.465 63.2357 125.083 62.6435C125.701 62.0513 126.529 61.7552 127.563 61.7552C128.533 61.7552 129.301 62.0084 129.863 62.5191C130.425 63.0254 130.709 63.7035 130.709 64.5488C130.709 65.5745 130.056 66.7975 128.743 68.2179L125.954 71.2476H131.189V72.329ZM122.658 67.8832C122.658 69.4366 122.392 70.591 121.864 71.3463C121.332 72.1015 120.504 72.4792 119.38 72.4792C118.264 72.4792 117.444 72.1101 116.908 71.372C116.371 70.6339 116.097 69.531 116.075 68.0634V66.2911C116.075 64.7591 116.341 63.6176 116.869 62.8709C117.401 62.1285 118.234 61.7552 119.362 61.7552C120.487 61.7552 121.315 62.1157 121.843 62.8323C122.371 63.5533 122.641 64.6604 122.658 66.1624V67.8832ZM121.332 66.0637C121.332 64.9436 121.178 64.124 120.86 63.609C120.547 63.0984 120.045 62.8409 119.362 62.8409C118.684 62.8409 118.191 63.0984 117.882 63.609C117.569 64.1197 117.41 64.905 117.401 65.965V68.0849C117.401 69.2178 117.564 70.046 117.895 70.5867C118.217 71.1231 118.714 71.3935 119.38 71.3935C120.032 71.3935 120.517 71.136 120.834 70.6339C121.152 70.1275 121.319 69.3293 121.332 68.2394V66.0637ZM114.715 72.329H107.883V71.3763L111.492 67.3639C112.029 66.7589 112.398 66.2611 112.599 65.8834C112.801 65.5015 112.904 65.111 112.904 64.7033C112.904 64.1583 112.741 63.712 112.411 63.3644C112.08 63.0126 111.642 62.8409 111.093 62.8409C110.432 62.8409 109.922 63.0297 109.557 63.4031C109.188 63.7807 109.008 64.3042 109.008 64.9694H107.682C107.682 64.0124 107.991 63.2357 108.608 62.6435C109.226 62.0513 110.055 61.7552 111.093 61.7552C112.059 61.7552 112.827 62.0084 113.389 62.5191C113.955 63.0254 114.234 63.7035 114.234 64.5488C114.234 65.5745 113.582 66.7975 112.273 68.2179L109.48 71.2476H114.715V72.329ZM102.154 72.329H100.773V67.5184H95.5157V72.329H94.1382V61.9011H95.5157V66.3898H100.773V61.9011H102.154V72.329ZM92.0741 67.454C92.0741 68.4754 91.9067 69.368 91.5591 70.1318C91.2158 70.8914 90.7309 71.475 90.1001 71.8741C89.4693 72.2775 88.7355 72.4792 87.8944 72.4792C87.0704 72.4792 86.3452 72.2732 85.7101 71.8698C85.075 71.4664 84.5815 70.8914 84.2296 70.1447C83.8777 69.398 83.7018 68.5312 83.6889 67.5485V66.7932C83.6889 65.7933 83.8648 64.905 84.2124 64.1326C84.56 63.3644 85.0535 62.7765 85.6929 62.3689C86.3281 61.9612 87.0576 61.7552 87.8815 61.7552C88.714 61.7552 89.4521 61.9569 90.0872 62.3603C90.7266 62.7637 91.2158 63.3473 91.5591 64.1154C91.9067 64.8836 92.0741 65.7762 92.0741 66.7932V67.454ZM90.7095 66.7803C90.7095 65.5444 90.4606 64.596 89.9628 63.9352C89.4693 63.2743 88.7741 62.9439 87.8815 62.9439C87.0104 62.9439 86.3238 63.2743 85.826 63.9352C85.3282 64.596 85.0707 65.5144 85.0578 66.6859V67.454C85.0578 68.6513 85.3067 69.5911 85.8131 70.2777C86.3152 70.96 87.0104 71.3033 87.8944 71.3033C88.7827 71.3033 89.4693 70.9815 89.9542 70.3335C90.4434 69.6898 90.6966 68.7629 90.7095 67.5527V66.7803ZM80.7022 64.699C80.7022 64.1455 80.4962 63.7035 80.0928 63.3773C79.6894 63.0469 79.123 62.8838 78.3934 62.8838C77.7798 62.8838 77.2691 63.0512 76.8572 63.3902C76.4452 63.7292 76.2392 64.1455 76.2392 64.6432H74.8617C74.8617 64.0854 75.0119 63.5919 75.3166 63.1499C75.6213 62.7122 76.0418 62.3689 76.5868 62.1243C77.1318 61.8754 77.7369 61.7552 78.3934 61.7552C79.5607 61.7552 80.4618 62.017 81.1098 62.5405C81.7535 63.0641 82.0754 63.7893 82.0754 64.7205C82.0754 65.2054 81.9295 65.6431 81.6334 66.0422C81.3373 66.437 80.921 66.7503 80.3932 66.9777C81.6205 67.3897 82.2342 68.205 82.2342 69.4238C82.2342 70.3593 81.8823 71.1017 81.1871 71.6552C80.4919 72.2045 79.5607 72.4792 78.3934 72.4792C77.7025 72.4792 77.0717 72.3547 76.5053 72.1101C75.9388 71.8655 75.5011 71.5136 75.1835 71.0587C74.8703 70.6039 74.7115 70.0674 74.7115 69.4409H76.089C76.089 69.9859 76.3036 70.4408 76.7413 70.8013C77.1747 71.166 77.724 71.3463 78.3934 71.3463C79.1444 71.3463 79.7409 71.1746 80.1872 70.827C80.6335 70.4794 80.8566 70.0202 80.8566 69.4452C80.8566 68.2222 80.1014 67.6042 78.5865 67.5785H77.2992V66.4499H78.5823C79.2774 66.4327 79.8053 66.2782 80.1615 65.9736C80.5219 65.6732 80.7022 65.2483 80.7022 64.699ZM72.9092 67.5184H68.3904V71.2004H73.6387V72.329H67.0129V61.9011H73.57V63.0297H68.3904V66.3898H72.9092V67.5184ZM65.1376 69.0247C65.0089 70.1275 64.6055 70.9772 63.9189 71.578C63.2323 72.1788 62.3225 72.4792 61.1853 72.4792C59.9537 72.4792 58.9667 72.0372 58.2243 71.1531C57.4819 70.2691 57.1129 69.0847 57.1129 67.6042V66.6001C57.1129 65.6302 57.2803 64.7763 57.6278 64.0425C57.9754 63.3044 58.4646 62.7422 59.0998 62.3474C59.7349 61.9526 60.473 61.7552 61.3055 61.7552C62.4169 61.7552 63.3052 62.0642 63.9704 62.6821C64.6398 63.3001 65.0303 64.154 65.1376 65.2526H63.7558C63.64 64.4158 63.3782 63.815 62.9791 63.446C62.58 63.0683 62.0221 62.8838 61.3055 62.8838C60.4301 62.8838 59.7392 63.21 59.2414 63.8579C58.7436 64.5059 58.4904 65.4328 58.4904 66.6301V67.6429C58.4904 68.7758 58.7307 69.6769 59.2028 70.3464C59.6748 71.0115 60.3357 71.3463 61.1853 71.3463C61.9492 71.3463 62.5371 71.1746 62.9448 70.8313C63.3524 70.4837 63.6228 69.8829 63.7558 69.0247H65.1376ZM188.856 46.0405H184.2V48.0531H185.878C187.105 48.0531 188.079 48.3492 188.796 48.9457C189.517 49.5379 189.873 50.3404 189.873 51.3488C189.873 52.3616 189.517 53.1769 188.804 53.7906C188.088 54.4042 187.139 54.7175 185.955 54.7261H182.033V44.2982H188.856V46.0405ZM184.2 49.7825V52.9967H185.912C186.461 52.9967 186.899 52.8422 187.225 52.5418C187.555 52.2414 187.719 51.838 187.719 51.3316C187.719 50.8596 187.56 50.4863 187.247 50.2116C186.938 49.9327 186.508 49.7911 185.963 49.7825H184.2ZM180.831 46.0405H177.634V54.7261H175.488V46.0405H172.334V44.2982H180.831V46.0405ZM163.812 54.7261V44.2982H167.464C168.73 44.2982 169.691 44.5385 170.343 45.0234C171 45.5083 171.326 46.2207 171.326 47.1562C171.326 47.6669 171.193 48.1217 170.931 48.508C170.669 48.8985 170.304 49.1817 169.832 49.3662C170.369 49.4993 170.789 49.7696 171.098 50.173C171.407 50.5807 171.562 51.0742 171.562 51.6621C171.562 52.6662 171.24 53.4215 170.601 53.9407C169.961 54.4557 169.051 54.7175 167.867 54.7261H163.812ZM165.957 50.1944V52.9967H167.798C168.305 52.9967 168.704 52.8765 168.987 52.6362C169.27 52.3959 169.412 52.0655 169.412 51.6406C169.412 50.6879 168.918 50.2073 167.931 50.1944H165.957ZM165.957 48.6667H167.549C168.635 48.6496 169.176 48.2162 169.176 47.3708C169.176 46.8987 169.039 46.5597 168.764 46.3537C168.489 46.1435 168.056 46.0405 167.464 46.0405H165.957V48.6667ZM156.143 44.2982H158.297V54.7261H156.143V47.7999L151.968 54.7261H149.818V44.2982H151.968V51.2372L156.143 44.2982ZM148.556 46.0405H143.879V54.7261H141.733V44.2982H148.556V46.0405ZM137.699 44.2982H139.853V54.7261H137.699V47.7999L133.524 54.7261H131.374V44.2982H133.524V51.2372L137.699 44.2982ZM129.571 44.2982V54.7261H127.417V46.0405H124.636L124.465 49.7224C124.392 50.9626 124.233 51.941 123.988 52.6534C123.748 53.3657 123.392 53.8893 122.924 54.224C122.456 54.5544 121.817 54.7218 121.006 54.7261H120.444V52.9967L120.804 52.958C121.341 52.8894 121.727 52.5761 121.963 52.0225C122.19 51.4733 122.341 50.4905 122.401 49.0787L122.581 44.2982H129.571ZM113.423 44.2982H115.573V54.7261H113.423V47.7999L109.244 54.7261H107.098V44.2982H109.244V51.2372L113.423 44.2982ZM113.831 41.5689C113.831 42.1998 113.604 42.7061 113.149 43.0966C112.689 43.4871 112.093 43.6803 111.355 43.6803C110.613 43.6803 110.012 43.4871 109.557 43.1052C109.102 42.719 108.875 42.2083 108.875 41.5689H110.342C110.342 41.865 110.432 42.0968 110.613 42.2641C110.793 42.4272 111.037 42.5087 111.355 42.5087C111.664 42.5087 111.904 42.4272 112.084 42.2641C112.26 42.0968 112.346 41.865 112.346 41.5689H113.831ZM105.605 49.7482C105.605 50.7738 105.42 51.6749 105.06 52.4517C104.695 53.2241 104.176 53.8206 103.502 54.2411C102.824 54.6617 102.047 54.872 101.176 54.872C100.309 54.872 99.541 54.666 98.8629 54.2497C98.1849 53.8335 97.6571 53.2413 97.2837 52.4688C96.9147 51.6964 96.7259 50.8081 96.7216 49.8039V49.289C96.7216 48.2634 96.9061 47.3579 97.2752 46.5769C97.6442 45.7959 98.1677 45.1951 98.8415 44.7788C99.5195 44.3583 100.292 44.148 101.159 44.148C102.03 44.148 102.802 44.3583 103.48 44.7788C104.154 45.1951 104.678 45.7959 105.047 46.5769C105.416 47.3579 105.605 48.2591 105.605 49.2804V49.7482ZM103.425 49.2761C103.425 48.1775 103.227 47.3493 102.837 46.7786C102.446 46.2078 101.888 45.9246 101.159 45.9246C100.438 45.9246 99.8843 46.2078 99.4895 46.77C99.099 47.3322 98.9016 48.1561 98.8973 49.2418V49.7482C98.8973 50.8124 99.0904 51.6449 99.4852 52.2285C99.8757 52.8207 100.438 53.1125 101.176 53.1125C101.897 53.1125 102.45 52.8293 102.837 52.2629C103.223 51.6964 103.42 50.8725 103.425 49.7868V49.2761ZM95.1638 54.7261H93.0139V50.2502H88.8256V54.7261H86.6756V44.2982H88.8256V48.5208H93.0139V44.2982H95.1638V54.7261ZM82.659 44.2982H84.8132V54.7261H82.659V47.7999L78.4793 54.7261H76.3336V44.2982H78.4793V51.2372L82.659 44.2982ZM75.1106 57.2923H73.128V54.7261H66.837V57.2837H64.8029L64.6913 52.9967H65.4809C65.9058 52.6448 66.2319 52.1212 66.4636 51.4389C66.6954 50.7523 66.8498 49.9069 66.9357 48.8942L67.2361 44.2982H74.0635V52.9967H75.2822L75.1106 57.2923ZM67.9441 52.9967H71.9179V46.0405H69.2744L69.0942 48.7826C68.9526 50.6193 68.5664 52.0225 67.9441 52.9967ZM63.464 50.1944H59.3401V52.9967H64.1807V54.7261H57.1901V44.2982H64.1635V46.0405H59.3401V48.5208H63.464V50.1944ZM131.82 30.4459H133.494C134.721 30.4459 135.695 30.7463 136.412 31.3385C137.128 31.935 137.489 32.7374 137.489 33.7459C137.489 34.7586 137.133 35.5697 136.42 36.1834C135.704 36.797 134.755 37.1103 133.571 37.1232H129.653V26.691H131.82V30.4459ZM140.536 37.1232H138.386V26.691H140.536V37.1232ZM131.82 32.1796V35.3895H133.528C134.077 35.3895 134.519 35.2393 134.841 34.9389C135.172 34.6385 135.335 34.2351 135.335 33.7287C135.335 33.2524 135.176 32.8791 134.863 32.6044C134.549 32.3298 134.125 32.1882 133.58 32.1796H131.82ZM127.756 37.1232H125.606V32.6473H121.414V37.1232H119.268V26.691H121.414V30.9179H125.606V26.691H127.756V37.1232ZM117.702 32.1452C117.702 33.1709 117.517 34.072 117.157 34.8445C116.792 35.6212 116.273 36.2177 115.599 36.6382C114.921 37.0588 114.149 37.2691 113.273 37.2691C112.411 37.2691 111.638 37.0588 110.96 36.6425C110.282 36.2306 109.754 35.6341 109.385 34.8616C109.012 34.0935 108.823 33.2052 108.819 32.201V31.6861C108.819 30.6562 109.003 29.7507 109.377 28.9697C109.746 28.1887 110.269 27.5922 110.943 27.1716C111.621 26.7554 112.393 26.5451 113.26 26.5451C114.131 26.5451 114.9 26.7554 115.578 27.1716C116.251 27.5922 116.775 28.1887 117.144 28.9697C117.517 29.7507 117.702 30.6562 117.702 31.6775V32.1452ZM115.522 31.6689C115.522 30.5746 115.329 29.7421 114.938 29.1714C114.543 28.6049 113.985 28.3217 113.26 28.3217C112.539 28.3217 111.986 28.6006 111.591 29.1628C111.2 29.725 110.999 30.5489 110.994 31.6346V32.1452C110.994 33.2095 111.192 34.0377 111.587 34.6256C111.977 35.2135 112.539 35.5096 113.273 35.5096C113.994 35.5096 114.548 35.2221 114.938 34.6557C115.324 34.0935 115.517 33.2653 115.522 32.1796V31.6689ZM105.12 26.691H107.274V37.1232H105.12V30.197L100.944 37.1232H98.7986V26.691H100.944V33.6343L105.12 26.691ZM96.9833 37.1232H94.8291V28.4376H90.6537V37.1232H88.5037V26.691H96.9833V37.1232ZM78.4449 26.691L81.127 34.2566L83.7919 26.691H86.6113V37.1232H84.457V34.2694L84.6716 29.3473L81.8565 37.1232H80.3803L77.5738 29.3559L77.7884 34.2694V37.1232H75.6384V26.691H78.4449ZM73.6601 32.5872H69.5362V35.3895H74.3768V37.1232H67.3906V26.691H74.3639V28.4376H69.5362V30.9179H73.6601V32.5872ZM65.5067 26.691V37.1232H63.3524V33.158C62.7002 33.2996 62.0178 33.364 61.3055 33.364C59.9795 33.364 58.9796 33.0765 58.293 32.5014C57.6064 31.9221 57.2545 31.0896 57.2373 29.9953V26.691H59.3916V29.9524C59.3959 30.5489 59.5418 30.978 59.825 31.2398C60.1125 31.5016 60.6017 31.6346 61.3055 31.6346C62.0178 31.6346 62.7002 31.5659 63.3524 31.4286V26.691H65.5067ZM12.7924 53.2971V58.438H11.0201V53.2971H12.7924ZM14.127 58.438V53.2971H17.3326V58.438H14.127ZM14.3758 48.0831C11.7968 48.1561 11.4706 48.1904 11.4706 48.1904C7.72434 37.3592 1.68219 24.953 6.4584 18.2157C4.31275 24.7213 10.7025 42.1354 14.3758 48.0831ZM20.2549 47.7742C22.8383 47.8471 24.13 47.8814 24.13 47.8814C30.5326 29.3645 33.8068 21.0952 20.7956 3.72398C25.0569 16.4348 24.8767 31.1196 20.2549 47.7742ZM18.6671 58.438V53.2971H19.9803V58.438H18.6671ZM24.0098 53.2971V58.438H24.8423V53.2971H24.0098ZM10.5523 51.9324H25.3101C25.8036 51.9324 26.207 52.3358 26.207 52.8293V58.9058C26.207 59.3993 25.8036 59.8027 25.3101 59.8027H10.5523C10.0588 59.8027 9.65542 59.3993 9.65542 58.9058V52.8293C9.65542 52.3358 10.0588 51.9324 10.5523 51.9324ZM17.9977 68.853C14.0626 68.853 10.8699 72.0457 10.8699 75.9852C10.8699 79.9203 14.0626 83.113 17.9977 83.113C21.9371 83.113 25.1298 79.9203 25.1298 75.9852C25.1298 72.0457 21.9371 68.853 17.9977 68.853ZM17.9977 69.3508C14.3372 69.3508 11.3676 72.3204 11.3676 75.9852C11.3676 79.6456 14.3372 82.6152 17.9977 82.6152C21.6625 82.6152 24.6321 79.6456 24.6321 75.9852C24.6321 72.3204 21.6625 69.3508 17.9977 69.3508ZM17.9977 69.0976C14.1956 69.0976 11.1145 72.1788 11.1145 75.9852C11.1145 79.7872 14.1956 82.8684 17.9977 82.8684C21.8041 82.8684 24.8852 79.7872 24.8852 75.9852C24.8852 72.1788 21.8041 69.0976 17.9977 69.0976ZM17.3154 71.5651H17.3197H17.3154ZM17.1824 71.5866C17.1909 71.5866 17.2038 71.5823 17.2124 71.5823C17.2038 71.5823 17.1909 71.5866 17.1824 71.5866ZM17.0536 71.6123C17.0751 71.608 17.0922 71.6037 17.1094 71.6037C17.0922 71.6037 17.0751 71.608 17.0536 71.6123ZM16.9335 71.6424C16.9592 71.6338 16.9807 71.6295 17.0064 71.6252C16.9807 71.6295 16.9592 71.6338 16.9335 71.6424ZM13.6549 79.165H13.6506L13.3073 79.7701V79.7787L13.3889 79.8774H13.3974L14.0583 79.6585V79.6499L13.9682 79.5426H13.9596L13.5004 79.7014L13.745 79.2809V79.2723L13.6549 79.165ZM14.157 79.7443H14.1484L14.0626 79.8344V79.8387L14.2042 79.9718L13.8437 80.3537L13.848 80.358L13.9338 80.4438H13.9424L14.2986 80.0619L14.4402 80.1949H14.4488L14.5303 80.1091V80.1005L14.157 79.7443ZM14.5389 80.5897L14.599 80.6369C14.6376 80.6627 14.6505 80.697 14.6205 80.7399C14.5904 80.7828 14.5518 80.7742 14.5132 80.7485L14.4531 80.7013L14.5389 80.5897ZM14.6934 80.388L14.732 80.4181C14.7706 80.4481 14.7749 80.4824 14.7535 80.5082C14.732 80.5425 14.6977 80.5468 14.6548 80.5125L14.6205 80.4867L14.6934 80.388ZM14.6719 80.2035L14.6677 80.2078L14.2729 80.7227V80.7313L14.4402 80.8601C14.5389 80.933 14.6548 80.933 14.7363 80.83C14.7792 80.7742 14.7835 80.6927 14.7535 80.6412C14.7964 80.6498 14.8436 80.6326 14.8779 80.5854C14.9466 80.4996 14.908 80.3837 14.8093 80.3108L14.6719 80.2035ZM15.3285 80.6541H15.3199L15.1569 80.9802C15.071 81.1519 15.1354 81.3107 15.2813 81.3836C15.4229 81.4566 15.5903 81.4136 15.6804 81.242L15.8435 80.9159L15.8392 80.9116L15.7319 80.8558L15.7233 80.8601L15.5688 81.1648C15.513 81.2806 15.4229 81.3021 15.3414 81.2592C15.2599 81.2205 15.2255 81.1347 15.2856 81.0188L15.4401 80.7142L15.4358 80.7099L15.3285 80.6541ZM15.9894 80.9716L15.9851 80.9759L15.7791 81.5896V81.5982L15.8993 81.6368L15.9036 81.6325L16.0409 81.2291L16.2168 81.7398L16.2211 81.7441L16.3456 81.787L16.3498 81.7827L16.5558 81.169L16.5515 81.1605L16.4357 81.1218L16.4314 81.1261L16.2941 81.5295L16.1181 81.0188L16.1095 81.0146L15.9894 80.9716ZM16.7361 81.2034L16.7318 81.2077L16.5859 81.8428L16.5902 81.8471L16.7103 81.8771L16.7146 81.8728L16.8605 81.2377L16.8562 81.2334L16.7361 81.2034ZM17.0236 81.2677L17.015 81.272L17.0021 81.3965L17.0064 81.4008L17.1952 81.4265L17.1309 81.9415L17.1352 81.9501L17.2553 81.9629L17.2596 81.9586L17.3283 81.4394L17.5171 81.4651L17.5257 81.4609L17.5385 81.3407L17.5342 81.3364L17.0236 81.2677ZM17.6887 81.345L17.6844 81.3493L17.6716 81.9973L17.6759 82.0058L18.1307 82.0101L18.135 82.0058V81.8857L18.1307 81.8814L17.8046 81.8728L17.8089 81.7269L18.0406 81.7312L18.0449 81.7269V81.6068L18.0406 81.6025L17.8132 81.5982V81.478L18.1307 81.4823L18.135 81.478V81.3579L18.1307 81.3536L17.6887 81.345ZM18.4526 81.4651L18.547 81.4566C18.6714 81.448 18.7616 81.5209 18.7701 81.6368C18.7787 81.7527 18.7015 81.8428 18.5813 81.8514L18.4869 81.8599L18.4526 81.4651ZM18.3153 81.345L18.311 81.3493L18.3668 81.9973L18.371 82.0016L18.5899 81.9844C18.7916 81.9672 18.9246 81.8084 18.9118 81.6239C18.8989 81.4437 18.7401 81.3107 18.5384 81.3235L18.3153 81.345ZM19.2121 81.212L19.2079 81.2162L19.3709 81.8471H19.3795L19.7443 81.7527V81.7484L19.7142 81.6282H19.7099L19.4696 81.6883L19.3366 81.1819H19.3323L19.2121 81.212ZM19.7142 81.0703V81.0746L19.946 81.6797L19.9545 81.684L20.3751 81.5209L20.3794 81.5123L20.3322 81.4008L20.3279 81.3965L20.0232 81.5166L19.9717 81.3793L20.1863 81.2935L20.1906 81.2892L20.1434 81.1733H20.1391L19.9245 81.2549L19.8816 81.1476L20.1777 81.0317V81.0274L20.1348 80.9116L20.1262 80.9073L19.7142 81.0703ZM20.5682 80.8815L20.757 81.0317L20.6197 81.1047L20.5682 80.8815ZM20.4137 80.7742V80.7785L20.5382 81.4437L20.5424 81.448L20.6798 81.375V81.3707L20.6497 81.2334L20.8686 81.1175L20.9844 81.2077H20.9887L21.1261 81.1347V81.1304L20.5424 80.7099H20.5382L20.4137 80.7742ZM21.3707 80.3494L21.272 80.2378C21.199 80.2636 21.1346 80.3065 21.0703 80.3623C20.9158 80.4996 20.9029 80.7185 21.0274 80.8601C21.1561 81.0017 21.375 81.0103 21.5252 80.8772C21.5895 80.8214 21.6367 80.7571 21.6625 80.6798L21.435 80.4224H21.4265L21.2591 80.5726V80.5811L21.3406 80.6713H21.3449L21.4222 80.6069L21.4994 80.697C21.4908 80.7185 21.4608 80.7528 21.435 80.7742C21.3363 80.8601 21.2119 80.8472 21.1389 80.7614C21.0617 80.6755 21.0617 80.5511 21.1604 80.4653C21.2205 80.4138 21.2891 80.3709 21.3707 80.3537V80.3494ZM21.435 80.0962V80.1048L21.6839 80.3709C21.8127 80.5125 21.9886 80.5039 22.1045 80.3966C22.2246 80.2893 22.2418 80.1177 22.1131 79.9761L21.8642 79.71L21.8599 79.7057L21.7698 79.7915V79.7958L22.0015 80.049C22.0873 80.1434 22.0787 80.2378 22.0144 80.2979C21.9457 80.358 21.8513 80.3623 21.7655 80.2679L21.5337 80.0147H21.5252L21.435 80.0962ZM22.0144 79.5426V79.5512L22.5207 79.9589H22.525L22.8083 79.607V79.5984L22.7138 79.5212H22.7053L22.5036 79.7744L22.3877 79.6843L22.5336 79.504V79.4997L22.4392 79.4225H22.4306L22.2847 79.6027L22.1946 79.5298L22.392 79.2809V79.2766L22.2976 79.1993H22.289L22.0144 79.5426ZM13.0713 72.5006V72.5049L13.5863 72.8997H13.5948L13.8695 72.5392L13.8652 72.535L13.7708 72.4577H13.7622L13.5648 72.7195L13.4489 72.6294L13.5905 72.4448V72.4405L13.4918 72.3633L13.4833 72.3676L13.3459 72.5478L13.2515 72.4792L13.4446 72.226L13.4403 72.2217L13.3459 72.1444L13.3374 72.1487L13.0713 72.5006ZM13.848 71.7926L13.9982 71.6466L14.2729 71.9299L14.0926 72.1015C14.0798 72.0844 14.0712 72.0758 14.0669 72.0672L13.848 71.7926ZM13.6721 71.7711V71.7797L13.9553 72.1402C13.9682 72.1659 13.9811 72.1831 13.9853 72.2045L13.9296 72.2603V72.2646L14.127 72.4792H14.1355L14.2257 72.3933V72.3848L14.1098 72.2689L14.4188 71.9728L14.5303 72.0929H14.5389L14.6247 72.0114L14.629 72.0028L14.4273 71.7926H14.4188L14.3673 71.8398L14.0068 71.4621H14.0025L13.6721 71.7711ZM14.3415 71.1789V71.1875L14.7106 71.7239H14.7192L14.8221 71.6509L14.8264 71.6424L14.8565 71.1017L15.0968 71.4535L15.1054 71.4578L15.2041 71.3849L15.2084 71.3806L14.8393 70.8442H14.8307L14.7277 70.9171L14.7234 70.9257L14.6934 71.4664L14.4488 71.1102H14.4445L14.3415 71.1789ZM15.1654 70.6554L15.1612 70.6639L15.4401 71.2518H15.4487L15.556 71.2004L15.5602 71.1961L15.4444 70.9472L15.7147 70.8184L15.8306 71.0673H15.8392L15.9508 71.0158V71.0115L15.6761 70.4236L15.6675 70.4193L15.556 70.4708V70.4794L15.6589 70.6983L15.3886 70.827L15.2813 70.6082L15.277 70.6039L15.1654 70.6554ZM16.3456 70.3635L16.4786 70.5567L16.3327 70.5953L16.3456 70.3635ZM16.2383 70.2176L16.234 70.2219L16.1696 70.9171L16.1739 70.9214L16.3155 70.8785L16.3198 70.8742L16.3284 70.7369L16.5558 70.6725L16.6374 70.7841L16.6417 70.7884L16.7833 70.7498L16.7876 70.7412L16.3713 70.1833H16.3627L16.2383 70.2176ZM17.2853 70.1361L17.3025 70.2648L17.2553 70.2691C17.2038 70.2777 17.1738 70.2606 17.1695 70.2176C17.1609 70.1704 17.1867 70.149 17.2381 70.1404L17.2853 70.1361ZM17.3969 69.9859L17.2124 70.0117C17.0837 70.0288 17.015 70.1275 17.0279 70.2348C17.0365 70.3078 17.0751 70.355 17.1352 70.3764L16.9506 70.7026L16.9549 70.7069L17.1051 70.6897L17.1094 70.6854L17.2725 70.4022L17.3197 70.3979L17.354 70.6511L17.3583 70.6554L17.4785 70.6425L17.4827 70.6339L17.4012 69.9902L17.3969 69.9859ZM18.2938 69.9645L18.2852 69.9687L18.1736 70.4108C18.1522 70.4708 18.1093 70.4966 18.0492 70.488L18.0449 70.4923L18.0363 70.6082L18.0406 70.6167C18.1608 70.6296 18.2509 70.5867 18.2895 70.4537L18.3839 70.1061L18.5899 70.1232L18.5427 70.6425L18.547 70.6468L18.6671 70.6596L18.6757 70.6554L18.7315 70.0074L18.7272 70.0031L18.2938 69.9645ZM19.092 70.0589H19.0877L18.9418 70.694L18.9461 70.6983L19.0705 70.7283L19.0791 70.724L19.4954 70.3807L19.401 70.8013L19.4053 70.8056L19.5211 70.8356L19.5297 70.8313L19.6756 70.1962L19.6713 70.1919L19.5469 70.1619L19.5383 70.1661L19.122 70.5095L19.2164 70.0889L19.2121 70.0846L19.092 70.0589ZM20.0575 70.3206L20.0489 70.3249L19.8043 70.9257V70.93L19.9202 70.9772H19.9245L20.1262 70.4923L20.4094 70.6082H20.4137L20.4609 70.4923L20.4566 70.488L20.0575 70.3206ZM20.7828 70.8399L20.7441 71.0716L20.6111 70.9987L20.7828 70.8399ZM20.8085 70.6596L20.7999 70.6639L20.2721 71.1145V71.1188L20.4008 71.1875H20.4094L20.5124 71.0931L20.7184 71.2046L20.6969 71.3463V71.3505L20.8257 71.4192H20.8343L20.9244 70.7283V70.724L20.8085 70.6596ZM21.4651 71.5479L21.5252 71.5952C21.5638 71.6252 21.5766 71.6638 21.5423 71.7024C21.5123 71.7411 21.4737 71.7368 21.435 71.7067L21.3792 71.6595L21.4651 71.5479ZM21.6281 71.3505L21.6625 71.3806C21.7054 71.4149 21.7097 71.4492 21.6839 71.475C21.6582 71.505 21.6281 71.5093 21.5852 71.4793L21.5509 71.4492L21.6281 71.3505ZM21.611 71.1703H21.6067L21.1947 71.6767V71.681L21.3621 71.814C21.4565 71.8913 21.5724 71.8955 21.6582 71.7926C21.7011 71.7411 21.7097 71.6638 21.6796 71.608C21.7226 71.6166 21.7698 71.6037 21.8041 71.5565C21.877 71.4707 21.8427 71.3548 21.7483 71.2776L21.611 71.1703ZM22.1345 71.608L22.1302 71.6037L22.0401 71.6896V71.6981L22.1731 71.8355L21.7998 72.2002V72.2045L21.8813 72.2946H21.8899L22.2675 71.9299L22.4006 72.0715H22.4049L22.495 71.9857V71.9771L22.1345 71.608ZM22.4907 72.5779L22.5379 72.6422C22.5722 72.6894 22.5765 72.7281 22.5336 72.7581C22.4864 72.7924 22.4521 72.7753 22.4177 72.7323L22.3705 72.668L22.4907 72.5779ZM22.7224 72.2517H22.7138L22.1903 72.6337V72.6422L22.319 72.8182C22.3963 72.9169 22.5122 72.9512 22.6194 72.874C22.7224 72.7924 22.7224 72.6766 22.6495 72.5736L22.5937 72.5006L22.6924 72.432L22.8512 72.6465L22.8555 72.6508L22.9542 72.5779V72.5693L22.7224 72.2517ZM21.1003 75.1956V75.1998C21.1175 75.2041 21.1346 75.217 21.1432 75.2256C21.169 75.2471 21.1818 75.2771 21.1818 75.3114C21.1818 75.3758 21.1475 75.4187 21.0917 75.4359C21.0746 75.4402 21.0574 75.4402 21.0274 75.4402H20.86V74.9853H21.0059C21.0359 74.9853 21.0574 74.9853 21.0746 74.9896C21.1304 75.0067 21.1647 75.0411 21.1647 75.0969C21.1647 75.1312 21.1518 75.1569 21.1346 75.1741C21.1261 75.1827 21.1175 75.1913 21.1003 75.1956ZM20.9544 75.2471V75.3672H21.0145C21.0359 75.3672 21.0531 75.3629 21.066 75.3543C21.0789 75.3415 21.0831 75.3243 21.0831 75.3071C21.0831 75.29 21.0789 75.2771 21.0703 75.2642C21.0574 75.2513 21.0402 75.2471 21.0145 75.2471H20.9544ZM20.9501 75.1655H21.0016C21.0188 75.1655 21.0274 75.1655 21.0359 75.1655C21.0574 75.1569 21.0703 75.1398 21.0703 75.114C21.0703 75.084 21.0574 75.0668 21.0359 75.0625C21.0274 75.0582 21.0188 75.0582 21.0016 75.0582H20.9501V75.1655ZM21.3192 75.4402V75.0625H21.1861V74.9853H21.5509L21.5252 75.0625H21.4093V75.4402H21.3192ZM21.5809 75.4402V74.9853H21.877L21.8513 75.0625H21.6711V75.1612H21.744C21.8041 75.1612 21.8341 75.1741 21.8556 75.1956C21.8727 75.2084 21.9028 75.2385 21.9028 75.3028C21.9028 75.3629 21.8727 75.3972 21.847 75.4144C21.8213 75.4359 21.7912 75.4402 21.7268 75.4402H21.5809ZM21.6711 75.3629H21.7397C21.7655 75.3629 21.7826 75.3586 21.7955 75.3458C21.7998 75.3372 21.8084 75.3243 21.8084 75.2985C21.8084 75.2771 21.7998 75.2599 21.7826 75.2471C21.774 75.2428 21.7612 75.2385 21.7397 75.2385H21.6711V75.3629ZM20.7828 74.8694H20.4008L20.3751 74.9467H20.757L20.7828 74.8694ZM20.7441 74.9853H20.3579L20.3322 75.0582H20.7141L20.7441 74.9853ZM20.7012 75.0969H20.3193L20.2893 75.1741H20.6755L20.7012 75.0969ZM21.2376 79.062C21.0445 78.6157 20.757 78.2123 20.3965 77.8776C19.9975 77.5086 19.5168 77.2339 18.9976 77.0837L19.2079 76.2212C20.2893 76.3285 21.3492 76.5859 22.3577 76.9807C22.1774 77.7789 21.7826 78.4913 21.2376 79.062ZM16.7618 80.2807L17.0665 79.2079C17.7274 79.5169 18.4268 79.7272 19.1478 79.843L19.2851 80.2679L16.7618 80.2807ZM19.2121 80.2893C19.1306 80.3108 19.0491 80.3322 18.9632 80.3494L19.2121 80.2893ZM18.8688 80.3709C18.5856 80.4266 18.2938 80.4567 18.002 80.4567C17.7703 80.4567 17.5471 80.4395 17.3283 80.4052L18.8688 80.3709ZM17.3154 80.4009C17.2467 80.3923 17.1824 80.3794 17.118 80.3666H17.1137H17.1094H17.1051V80.3623H17.1008H17.0965H17.0922H17.088H17.0837V80.358H17.0794H17.0751C16.9721 80.3365 16.8648 80.3108 16.7618 80.2807L17.3154 80.4009ZM13.642 76.9807C14.599 76.6031 15.6032 76.3542 16.6331 76.2383L16.8734 77.1223C15.925 77.4442 15.1569 78.148 14.7621 79.062C14.2857 78.5642 13.921 77.9506 13.7193 77.2725L13.642 76.9807ZM13.685 77.161L13.6764 77.1181V77.1223V77.1181L13.685 77.161ZM13.642 76.985V76.9807V76.985ZM14.6634 73.0113C15.011 73.6378 15.5345 74.1571 16.161 74.5047L16.5472 75.9165C15.5259 76.0366 14.5303 76.2855 13.5777 76.6546C13.5476 76.4357 13.5305 76.2126 13.5305 75.9852C13.5305 74.8437 13.9596 73.8009 14.6634 73.0113ZM18.0578 71.5136L15.792 73.1486L16.0366 74.0455C15.5602 73.7193 15.1654 73.2773 14.9037 72.7624C15.4315 72.2517 16.0838 71.8741 16.8133 71.6724H16.8176H16.8219V71.6681H16.8262H16.8305H16.8348H16.8391V71.6638H16.8433H16.8476H16.8519L16.8562 71.6595H16.8605H16.8648H16.8691V71.6552H16.8734H16.8777H16.882H16.8863V71.6509H16.8906H16.8948H16.8991H16.9034V71.6466C17.2553 71.5565 17.6201 71.5136 18.002 71.5136C18.0192 71.5136 18.0406 71.5136 18.0578 71.5136ZM18.8173 71.4149C18.8431 71.4235 18.8731 71.4492 18.8903 71.4836L19.461 72.7066C18.3668 73.3932 17.4355 74.3244 16.7489 75.4144L16.1653 73.2816L18.7101 71.445C18.7401 71.4278 18.7787 71.4063 18.8173 71.4149ZM19.3623 71.7239L19.3752 71.7282L19.3623 71.7239ZM19.4267 71.7453C19.9674 71.9299 20.4738 72.2174 20.9115 72.5907L19.4267 71.7453ZM20.9716 72.6422L21.0274 72.6937L20.9716 72.6422ZM21.0831 72.7495L21.1003 72.7624C20.8214 73.2945 20.4094 73.7537 19.9073 74.0841L20.1047 73.3203L19.3623 71.7239L21.0831 72.7495ZM18.1136 75.9122L17.0922 76.6889L16.8648 75.8478C17.5342 74.6978 18.474 73.7193 19.5984 73.007L19.7614 73.3503L19.0963 75.9122H18.1136ZM18.4955 77.7618L17.4527 77.5858L17.3068 76.9335L18.2209 76.2383H18.8645L18.4955 77.7618ZM18.8259 77.7832L18.9203 77.4013C19.8558 77.6802 20.6283 78.3969 20.9844 79.3109C20.5811 79.6714 20.1133 79.9632 19.5941 80.1606L18.8259 77.7832ZM17.4313 77.9162L18.5856 78.1093L19.0362 79.4911C18.3839 79.3753 17.7531 79.1736 17.1566 78.8904L17.4313 77.9162ZM17.0751 77.4013L17.148 77.7231L16.4528 80.1778C15.9164 79.9804 15.4315 79.6843 15.0153 79.3109C15.3714 78.3883 16.1267 77.6888 17.0751 77.4013ZM22.4692 75.9852C22.4692 76.0495 22.4692 76.1139 22.4649 76.1826L22.4692 75.9852ZM22.4649 76.1868L22.4607 76.2855V76.2684V76.2855L22.4649 76.1868ZM22.4607 76.2941L22.4564 76.3542L22.4607 76.2941ZM22.4521 76.3928L22.4478 76.44L22.4521 76.3928ZM22.4478 76.4443C22.4392 76.5173 22.4306 76.5859 22.422 76.6546C21.4608 76.2813 20.4566 76.0324 19.431 75.9165L19.7915 74.5304C20.4437 74.1828 20.9802 73.6507 21.3363 73.007C21.3878 73.0671 21.4393 73.1271 21.4908 73.1872C22.1302 73.9897 22.4692 74.9552 22.4692 75.9852L22.4478 76.4443ZM21.744 72.9855C21.0917 72.1702 20.1863 71.5866 19.1778 71.3334C19.1177 71.2132 19.0147 71.1274 18.8946 71.0974C18.7744 71.0673 18.6414 71.0974 18.5255 71.1746L18.4783 71.2089C18.3196 71.1918 18.1608 71.1875 18.002 71.1875C15.3543 71.1875 13.2 73.3374 13.2 75.9852C13.2 78.6286 15.3543 80.7828 18.002 80.7828C20.6454 80.7828 22.7997 78.6286 22.7997 75.9852C22.7997 74.8952 22.4263 73.8309 21.744 72.9855ZM22.9842 87.5073C24.0098 87.3399 25.0054 87.1125 25.9194 86.8035C26.6876 86.546 28.7388 85.7564 28.653 84.675L28.6487 84.6536L28.623 84.0828L28.653 84.0356C28.6444 84.0013 28.6401 83.9713 28.6315 83.9412L28.6144 83.8468L28.58 83.113C28.5114 81.6325 28.417 80.3108 28.2153 78.8432C28.0865 77.9205 28.0007 76.9893 27.8462 76.071C27.7132 75.2642 27.4858 74.4145 27.2798 73.6249C27.0652 72.771 26.8378 71.917 26.5975 71.0716C26.1426 69.4753 25.5933 67.9475 25.0354 66.3855C24.8981 65.995 24.7436 65.6174 24.6063 65.2269C24.4389 64.7591 24.2415 64.3729 24.1257 63.8751L23.9969 63.3344L24.0828 63.2057H18.1264L18.1994 63.4074C18.8131 65.1239 19.4181 66.8146 19.9502 68.5483C23.2503 69.4109 25.6877 72.4105 25.6877 75.9852C25.6877 78.4741 24.499 80.6927 22.6581 82.096C22.8254 83.9026 22.9027 85.7092 22.9842 87.5073ZM7.22655 84.675L7.25229 84.7222L7.23084 85.19C7.3982 86.3658 9.6683 87.2198 10.5823 87.5116C13.097 88.3183 16.0881 88.6102 18.753 88.6359C18.6285 88.6359 18.5084 88.6359 18.3882 88.6359C15.556 88.6316 12.3246 88.3398 9.62109 87.473C8.67701 87.1683 6.32967 86.2843 6.15801 85.0698L6.17518 84.5849L6.14943 84.5334C6.15801 84.5034 6.1623 84.4691 6.17089 84.4347L6.18805 84.336L6.22667 83.5507C6.29963 81.9758 6.39833 80.564 6.61289 78.9934C6.75021 78.0149 6.84462 77.0194 7.00769 76.0452C7.1493 75.1827 7.39391 74.2772 7.60847 73.4275C7.84449 72.5221 8.08481 71.6123 8.34228 70.7111C8.8272 69.0075 9.41511 67.3725 10.0073 65.7075C10.1532 65.2955 10.3206 64.8879 10.4665 64.4759C10.6467 63.9738 10.8527 63.5618 10.9771 63.0297L11.1145 62.4504L11.0201 62.3131H24.9796L24.8852 62.4504L25.0183 63.0297C25.1427 63.5618 25.3573 63.9738 25.5332 64.4759C25.6791 64.8879 25.8465 65.2955 25.9924 65.7075C26.5846 67.3725 27.1725 69.0075 27.6574 70.7111C27.9149 71.6123 28.1552 72.5221 28.3869 73.4275C28.6058 74.2772 28.8461 75.1827 28.992 76.0409C29.1551 77.0194 29.2495 78.0149 29.3825 78.9976C29.6014 80.564 29.7001 81.9758 29.773 83.5507L29.8074 84.336L29.8288 84.4347C29.8374 84.4691 29.8417 84.5034 29.8503 84.5334L29.8202 84.5892L29.8503 85.1943V85.22C29.9404 86.3701 27.7561 87.2155 26.9365 87.4901C24.9282 88.1682 22.5508 88.4814 20.315 88.5887C17.8647 88.4514 15.3199 88.0909 13.097 87.3743C12.05 87.0395 9.45802 86.0654 9.26491 84.7179L9.28637 84.1858L9.25633 84.13C9.26491 84.0914 9.2735 84.0571 9.28208 84.0185L9.30353 83.9069L9.34216 83.0443C9.42369 81.3021 9.53097 79.7443 9.77129 78.0064C9.92148 76.9249 10.0245 75.8264 10.2047 74.745C10.3635 73.7966 10.6338 72.7924 10.8742 71.8569C11.1273 70.8528 11.3977 69.8486 11.6809 68.853C12.2173 66.9691 12.8653 65.1668 13.5176 63.3258L13.5648 63.2057H11.9341L12.0199 63.3344L11.8912 63.8923C11.771 64.4072 11.5693 64.8063 11.3977 65.2912C11.2561 65.6903 11.093 66.0808 10.9514 66.4799C10.3807 68.0892 9.80991 69.6684 9.34216 71.3162C9.09326 72.1874 8.86153 73.0628 8.63838 73.9425C8.42811 74.7621 8.19209 75.6376 8.05477 76.4701C7.89599 77.4142 7.80587 78.3711 7.67284 79.3195C7.46686 80.8386 7.36816 82.199 7.2995 83.7224L7.26517 84.4819L7.24371 84.5763C7.23942 84.6107 7.23084 84.6407 7.22655 84.675ZM4.832 84.1687C4.74618 84.5935 4.70326 84.748 4.79767 84.9153L4.78909 85.1127C5.29975 91.6098 31.7299 91.6484 31.2106 85.1127L31.202 84.9153C31.2964 84.748 31.2535 84.5978 31.1677 84.1687L31.1377 83.4906C31.039 81.6068 31.0175 80.8343 30.7343 78.8088C30.597 77.7875 30.4983 76.7748 30.3395 75.8178C30.1421 74.6248 29.3224 71.5651 28.9706 70.3335C28.417 68.3896 27.9278 67.0721 27.2798 65.2483C27.121 64.802 26.9794 64.4673 26.8206 64.0167C26.6533 63.5533 26.4601 63.1928 26.3486 62.7207C26.6876 62.2144 26.9408 62.5577 26.9408 61.6865C26.9408 61.3046 26.709 60.9613 26.2027 60.9484H9.79703C9.29066 60.9613 9.06322 61.3046 9.06322 61.6865C9.06322 62.5577 9.31212 62.2144 9.65113 62.7207C9.53956 63.1971 9.34645 63.5533 9.17909 64.0167C9.02031 64.463 8.8787 64.802 8.71992 65.2483C8.07193 67.0721 7.58272 68.3896 7.02915 70.3335C6.67726 71.5651 5.86191 74.6248 5.66022 75.8178C5.50144 76.7748 5.40274 77.7875 5.26113 78.8088C4.9822 80.8343 4.96074 81.6068 4.86204 83.4906L4.832 84.1687ZM3.845 32.5787C4.51874 35.0505 5.66881 38.5865 6.49273 41.054L7.94319 45.1994C8.33799 46.2593 9.00744 48.1346 9.50093 49.1645C9.21342 49.319 8.91303 49.3791 8.91303 49.8297C8.91303 50.3275 9.00744 50.6365 9.65113 50.7866H26.3486C26.9923 50.6365 27.0867 50.3275 27.0867 49.8297C27.0867 49.3791 26.7863 49.319 26.4988 49.1645C26.9923 48.1346 27.6617 46.255 28.0565 45.1994L29.507 41.054C30.3309 38.5865 31.481 35.0505 32.1547 32.5787C33.1846 28.7852 35.9997 15.4263 35.9997 13.3665C35.9997 11.547 35.0771 9.37133 33.927 7.92516C33.1074 6.89525 32.6697 6.42749 31.5797 5.70656C19.7829 -2.12935 15.5345 -1.67019 4.42004 5.70226C3.33005 6.42749 2.89234 6.89954 2.0727 7.92516C0.918338 9.37133 0 11.547 0 13.3665C0 17.1987 2.92237 29.1928 3.845 32.5787ZM11.1402 49.422H24.8595L25.2672 48.5723C25.8465 47.3622 26.3057 45.9847 26.7734 44.7359L28.2153 40.612C29.1336 37.8527 30.0691 35.0333 30.8373 32.2182C31.2192 30.8192 31.541 29.3816 31.8586 27.9655C32.2191 26.352 32.571 24.7385 32.9057 23.1206C30.1807 14.6754 26.0267 7.47886 20.3665 1.64699C19.4911 1.45388 18.6199 1.35518 17.7617 1.36376C17.0708 1.37664 16.3713 1.46246 15.6675 1.60837C9.93436 7.47886 5.74176 14.7354 2.99962 23.258C3.65189 26.2447 4.35996 29.2701 5.16243 32.2182C5.93057 35.0333 6.86608 37.8527 7.78442 40.612L9.22629 44.7359C9.69404 45.9847 10.1532 47.3622 10.7325 48.5723L11.1402 49.422ZM33.9528 17.8338C34.0386 17.3789 34.1201 16.924 34.1974 16.4691C34.3175 15.7954 34.4291 15.1174 34.5235 14.4393C34.5707 14.1089 34.6351 13.7012 34.6351 13.3665C34.6351 11.8431 33.8026 9.95494 32.8585 8.77483C32.1676 7.90799 31.7556 7.4617 30.8244 6.84375C28.8247 5.51774 26.4387 3.96858 23.9412 2.85713C28.5286 6.70643 31.8886 11.68 33.9528 17.8338ZM12.1186 2.79706C9.60393 3.91279 7.19651 5.50057 5.17531 6.83946C4.24409 7.45741 3.83213 7.90799 3.14123 8.77483C2.19714 9.95494 1.36463 11.8431 1.36463 13.3665C1.36463 14.6067 1.61353 16.0572 1.81951 17.2802C1.85813 17.5205 1.89675 17.7565 1.93967 17.9925C4.01666 11.7315 7.43682 6.68926 12.1186 2.79706ZM15.5388 8.53881C14.9895 8.48303 14.4188 8.60747 13.8266 8.91216C13.9167 8.27275 14.2857 7.80929 14.9251 7.51748C15.6117 7.4102 16.2812 7.68055 16.9249 8.32425C17.1695 8.4959 17.3368 8.70188 17.4313 8.94649C17.2939 9.11814 17.1437 9.22971 16.9935 9.27262C16.5859 8.94649 16.101 8.70188 15.5388 8.53881ZM18.0363 8.30708C17.8432 8.47015 17.7445 8.55598 17.7445 8.55598C17.4012 8.1526 16.8348 7.67197 16.0452 7.1141C16.706 7.01969 17.4055 7.26859 18.1479 7.86937C18.1908 8.04961 18.1565 8.19551 18.0363 8.30708ZM13.6377 9.46144C13.5991 9.8777 13.7364 10.3111 14.0411 10.7617C14.9595 10.5257 15.7619 10.1352 16.4528 9.5816C16.4185 9.40565 16.2082 9.31983 15.8177 9.31983C15.2255 9.20396 14.5003 9.25117 13.6377 9.46144ZM18.4955 8.4444C18.7015 8.96794 18.7272 9.39707 18.577 9.7275C18.4826 9.3842 18.3324 9.09239 18.1222 8.85637C18.2981 8.68901 18.4225 8.55169 18.4955 8.4444ZM17.9333 11.0449C17.7231 11.3582 17.4956 11.517 17.2467 11.5213C17.3154 10.9891 17.3497 10.4055 17.3411 9.77471C17.5428 9.65026 17.6716 9.55585 17.7274 9.48719C18.002 9.9249 18.0664 10.4441 17.9333 11.0449ZM16.4228 11.8088C15.3929 11.7187 14.8179 11.4912 14.7063 11.1179C15.6032 10.7789 16.2812 10.4699 16.7489 10.191C16.8562 10.2167 16.9077 10.354 16.9034 10.5986C16.809 11.4226 16.6502 11.8259 16.4228 11.8088ZM18.8517 13.109C18.6757 12.7271 18.5384 12.4654 18.444 12.3152C18.371 12.0663 18.4483 11.9847 18.68 12.0706C18.7916 12.1521 18.8817 12.2722 18.9461 12.431C19.0577 12.74 19.1821 12.7958 19.3237 12.5984C19.4997 12.1178 19.461 11.6886 19.2036 11.3067C19.1392 11.135 19.0534 10.9677 18.9461 10.796C18.8817 10.5901 18.9118 10.4999 19.0405 10.5257C19.0963 10.3326 19.2036 10.3068 19.3623 10.4484C19.4911 10.6415 19.5855 10.8904 19.6541 11.1994C19.6799 10.9591 19.6842 10.7317 19.6756 10.5171C19.7786 10.3841 19.8644 10.4012 19.9288 10.5772C19.9846 10.9076 20.006 11.2509 19.9846 11.6071C20.1133 11.6285 20.1863 11.5728 20.2077 11.444C20.1562 10.9119 20.2206 10.6587 20.4008 10.6802C20.4824 10.6845 20.521 10.7746 20.5124 10.9591C20.5253 11.547 20.5553 11.9676 20.6068 12.2207C20.5768 13.2249 20.757 13.8643 21.1475 14.1432C21.4479 14.4179 21.7097 14.6325 21.9371 14.7869C21.9929 15.0015 21.92 15.0745 21.7226 15.0058C21.2076 14.7011 20.7098 14.4351 20.2292 14.2076C19.5426 13.8471 19.0834 13.4781 18.8517 13.109ZM15.8263 13.9201C15.8006 15.495 15.6718 16.585 15.4444 17.1901C15.38 17.5763 15.4229 17.7909 15.5688 17.8423C15.7276 17.8853 15.8392 17.7308 15.9121 17.3832C16.0709 16.7223 16.1954 15.5937 16.2726 14.0016C16.3584 13.4781 16.5859 13.079 16.9549 12.7958C17.6329 12.4267 17.9805 12.1306 17.9934 11.8989C17.899 11.7444 17.7359 11.7616 17.4956 11.9633C17.1352 12.122 16.809 12.2207 16.5215 12.2551C16.4485 12.2594 16.2554 12.3709 15.9293 12.5941C15.3242 12.5855 14.8608 12.3323 14.5346 11.8388C14.1184 11.4269 13.9381 11.4269 13.9982 11.8345C14.1999 12.6542 14.7449 13.0962 15.6289 13.1691C15.7448 13.2678 15.8134 13.5167 15.8263 13.9201ZM15.2513 15.3534C15.3242 15.0573 15.3114 14.7354 15.2169 14.3921C14.9723 15.0788 14.6719 15.7139 14.3201 16.2975C13.7665 17.7265 13.7837 18.6405 14.3673 19.031C14.5861 19.0954 14.7921 19.104 14.9809 19.0568C15.0195 18.7993 14.938 18.5976 14.732 18.4603C14.7106 17.6492 14.8822 16.615 15.2513 15.3534ZM15.9293 19.649C15.792 19.2499 15.6504 18.9152 15.5088 18.6491C15.5903 18.4345 15.6804 18.3015 15.7791 18.2543C15.9207 18.2414 16.0323 18.3273 16.1138 18.5204C16.3627 19.2413 16.5859 19.8163 16.7919 20.2412C16.8863 20.6102 16.8305 20.7948 16.6202 20.7991C16.4013 20.8548 16.1739 20.4729 15.9293 19.649ZM20.5553 19.3658C20.8815 18.8208 21.096 18.1685 21.1904 17.4089C21.3363 17.16 21.4822 17.1343 21.6196 17.336C21.5037 18.0741 21.4479 18.8336 21.4436 19.6189C21.4565 20.2283 21.3449 20.5759 21.1046 20.666C20.8085 20.6961 20.6712 20.4686 20.6841 19.9794C20.5167 20.2541 20.3708 20.5201 20.2506 20.7733C19.976 20.7476 19.873 20.5072 19.946 20.0567C20.0661 19.7734 20.2721 19.5417 20.5553 19.3658ZM16.8648 22.8589C16.9292 23.3223 16.706 23.7128 16.1911 24.0261C15.6246 23.4897 15.2813 22.7902 15.1612 21.9277C14.908 21.3827 14.6505 20.9106 14.3844 20.4987C14.2257 20.0052 14.1827 19.6447 14.2643 19.4215C14.3801 19.3529 14.5303 19.4044 14.7106 19.5803C14.8436 19.7606 14.9466 19.9751 15.0153 20.2154C15.453 20.8162 15.8091 21.2496 16.0881 21.5071C16.0838 21.8461 16.0795 22.0135 16.0795 22.0135C16.2597 22.2624 16.5215 22.5456 16.8648 22.8589ZM19.7185 32.8619C19.3666 34.4411 19.1177 35.6984 18.9718 36.6339C18.3281 37.7754 17.7402 38.5007 17.2167 38.8182C17.1394 38.4921 17.2339 38.1273 17.4999 37.7282C17.8046 37.342 18.0578 36.767 18.2638 36.0074C18.444 35.132 18.6457 34.0077 18.8603 32.643C18.8259 32.4671 18.5813 32.3813 18.1264 32.3898C17.4956 32.2826 16.7833 32.377 15.9894 32.6731C16.0151 32.0895 16.0838 31.6174 16.1911 31.2527C17.1008 30.9051 18.0535 31.111 19.0534 31.8792C19.0619 31.42 18.7272 31.081 18.0578 30.8579C17.4141 30.8836 16.8863 30.7463 16.4657 30.4545C16.3885 30.2313 16.4357 29.9395 16.6116 29.5705C17.088 29.5318 17.6844 29.7421 18.4054 30.2013C18.5212 30.1026 18.5212 29.9524 18.4054 29.7421C17.9162 29.5705 17.4527 29.3344 17.0193 29.0383C16.8047 28.8367 16.8219 28.7294 17.0751 28.7208C17.5686 28.8195 17.9076 28.8581 18.0878 28.8324C17.3969 28.5363 16.942 28.1157 16.7232 27.5707C17.9634 28.09 18.7701 28.3045 19.1521 28.2187C19.1349 27.9054 18.4183 27.3604 17.0064 26.5751C16.8433 26.4807 16.7232 26.3606 16.6502 26.2104C17.8432 26.7854 18.7144 27.1116 19.2593 27.1974C19.328 26.7168 18.68 26.1718 17.3111 25.5667C16.9463 25.4165 16.6846 25.2577 16.5129 25.0861C16.2726 24.9487 16.2769 24.7943 16.5215 24.6226C17.3454 23.9446 17.59 22.7387 17.2553 21.005C17.5557 20.9192 17.7059 20.8806 17.7059 20.8806C18.0621 21.2539 18.3925 21.7861 18.6972 22.4684C19.3538 22.4083 19.6842 22.3783 19.6842 22.3783C19.6885 21.8633 19.637 21.3784 19.5383 20.9192C19.6027 20.7819 19.6842 20.7733 19.7786 20.8978C20.2721 21.4857 20.6583 22.3096 20.933 23.3781C21.1261 23.0005 21.2033 22.6743 21.169 22.3954C21.0359 21.9577 21.0317 21.6788 21.1604 21.5586C21.332 21.3183 21.538 20.9879 21.7783 20.5716C22.2933 19.4215 22.5722 18.323 22.6151 17.2802C22.5508 17.0785 22.4177 16.924 22.2118 16.821C21.4479 16.3447 20.9372 15.9198 20.6841 15.5379C21.4779 16.0314 22.1517 16.3361 22.6924 16.4477C23.0743 16.7052 23.2202 17.0957 23.1258 17.6192C22.9756 19.1855 22.6366 20.3313 22.1088 21.0608C21.8685 21.4942 21.7311 21.8848 21.6968 22.2409C21.5166 23.0606 21.3192 23.6828 21.1132 24.1205C21.1346 26.9442 21.1432 28.3517 21.1432 28.3517C20.7184 28.8238 20.0919 29.0083 19.2551 28.9096C19.7486 29.1199 20.3493 29.2057 21.0617 29.1757C21.3406 30.4802 21.4608 31.7118 21.4222 32.8748C21.2291 32.9735 21.1475 33.0207 21.1818 33.0121C20.7184 35.2908 20.3923 36.6339 20.2077 37.0416C20.006 37.2905 19.7958 37.4278 19.5769 37.4622C20.1133 35.913 20.4566 34.2952 20.6068 32.6173C20.2506 32.6302 19.9545 32.7117 19.7185 32.8619ZM16.6245 32.8919C16.9807 32.746 17.1867 32.7374 17.2424 32.8619C17.2939 35.2049 17.2725 36.7241 17.1824 37.4278C16.8391 37.7668 16.6717 37.9342 16.6717 37.9342C16.4958 37.8784 16.4142 37.7282 16.4271 37.4879C16.3155 34.7501 16.2597 33.3811 16.2597 33.3811C16.1997 33.1151 16.3198 32.952 16.6245 32.8919ZM17.8003 40.9167C17.8261 40.333 18.3324 39.4405 19.3194 38.2346C19.6069 38.0029 19.7528 37.9986 19.7614 38.2131C18.6414 41.8307 18.0835 43.6416 18.0835 43.6416C17.9677 43.9849 17.8089 44.0536 17.6029 43.8476C17.3798 43.7017 17.3283 43.4056 17.4527 42.955C17.6844 41.5947 17.8003 40.9167 17.8003 40.9167ZM15.8649 40.0069C15.8907 39.6636 16.2211 39.2302 16.8519 38.6938C16.8991 41.2814 16.7661 42.9851 16.4571 43.8004C16.2726 43.7446 16.131 43.5858 16.0237 43.3284C15.8306 41.5475 15.7791 40.4403 15.8649 40.0069ZM14.9466 44.4055C14.8651 44.1823 15.1569 44.0193 15.8263 43.9206C15.9379 44.6973 15.9379 45.4096 15.8263 46.0619C15.5688 45.6671 15.277 45.1135 14.9466 44.4055ZM18.2852 44.5385C18.1264 45.2466 17.9033 45.8044 17.6158 46.2121C17.1609 45.8388 17.0236 45.1221 17.1952 44.0536C17.9205 44.3754 18.2852 44.5385 18.2852 44.5385ZM16.6202 44.9462C16.2855 44.6887 16.131 44.6758 16.161 44.899C16.161 46.195 16.161 46.8472 16.161 46.8472C16.5687 47.5467 16.9764 48.0531 17.3798 48.3706C17.5471 47.9801 17.6415 47.6411 17.663 47.3536C17.2467 46.6541 16.9034 45.8517 16.6202 44.9462Z" fill="#3A3A3A"/>
</g>
<defs>
<clipPath id="clip0_317_849">
<rect width="36" height="90" fill="white"/>
</clipPath>
</defs>
</svg>
