<svg width="100" height="100" viewBox="0 0 100 100" fill="none" xmlns="http://www.w3.org/2000/svg">
<path d="M26.8525 62.3467V68.0596H7.93164V62.3467H26.8525ZM10.3242 32.5127V68.0596H3V32.5127H10.3242ZM24.3867 46.9902V52.5566H7.93164V46.9902H24.3867ZM26.8281 32.5127V38.25H7.93164V32.5127H26.8281Z" fill="white"/>
<path d="M61.0557 32.5127V68.0596H53.7314L39.4492 44.2314V68.0596H32.125V32.5127H39.4492L53.7559 56.3652V32.5127H61.0557Z" fill="white"/>
<path d="M96.6016 49.4805V63.5674C96.0482 64.2347 95.1937 64.959 94.0381 65.7402C92.8825 66.5052 91.3932 67.1644 89.5703 67.7178C87.7474 68.2712 85.542 68.5479 82.9541 68.5479C80.6592 68.5479 78.5677 68.1735 76.6797 67.4248C74.7917 66.6598 73.1641 65.5449 71.7969 64.0801C70.446 62.6152 69.4043 60.8249 68.6719 58.709C67.9395 56.5768 67.5732 54.1436 67.5732 51.4092V49.1875C67.5732 46.4531 67.9232 44.0199 68.623 41.8877C69.3392 39.7555 70.3564 37.957 71.6748 36.4922C72.9932 35.0273 74.5638 33.9124 76.3867 33.1475C78.2096 32.3825 80.236 32 82.4658 32C85.5583 32 88.0973 32.5046 90.083 33.5137C92.0687 34.5065 93.5824 35.89 94.624 37.6641C95.682 39.4219 96.333 41.4401 96.5771 43.7188H89.4727C89.2936 42.5143 88.9518 41.4645 88.4473 40.5693C87.9427 39.6742 87.2184 38.9743 86.2744 38.4697C85.3467 37.9652 84.1423 37.7129 82.6611 37.7129C81.4404 37.7129 80.3499 37.9652 79.3896 38.4697C78.4456 38.958 77.6481 39.6823 76.9971 40.6426C76.346 41.6029 75.8496 42.791 75.5078 44.207C75.166 45.623 74.9951 47.2669 74.9951 49.1387V51.4092C74.9951 53.2646 75.1742 54.9085 75.5322 56.3408C75.8903 57.7568 76.4193 58.9531 77.1191 59.9297C77.8353 60.89 78.7142 61.6143 79.7559 62.1025C80.7975 62.5908 82.0101 62.835 83.3936 62.835C84.5492 62.835 85.5094 62.7373 86.2744 62.542C87.0557 62.3467 87.6823 62.1107 88.1543 61.834C88.6426 61.541 89.0169 61.2643 89.2773 61.0039V54.7051H82.5879V49.4805H96.6016Z" fill="white"/>
</svg>
