<svg width="80" height="100" viewBox="0 0 80 100" fill="none" xmlns="http://www.w3.org/2000/svg">
<path d="M40 47.5C36.2112 47.5 32.5776 46.183 29.8985 43.8388C27.2194 41.4946 25.7143 38.3152 25.7143 35C25.7143 31.6848 27.2194 28.5054 29.8985 26.1612C32.5776 23.817 36.2112 22.5 40 22.5C43.7888 22.5 47.4224 23.817 50.1015 26.1612C52.7806 28.5054 54.2857 31.6848 54.2857 35C54.2857 36.6415 53.9162 38.267 53.1983 39.7835C52.4804 41.3001 51.4281 42.6781 50.1015 43.8388C48.775 44.9996 47.2001 45.9203 45.4669 46.5485C43.7337 47.1767 41.876 47.5 40 47.5ZM40 0C29.3913 0 19.2172 3.68749 11.7157 10.2513C4.21427 16.815 0 25.7174 0 35C0 61.25 40 100 40 100C40 100 80 61.25 80 35C80 25.7174 75.7857 16.815 68.2843 10.2513C60.7828 3.68749 50.6087 0 40 0Z" fill="#71A6DC"/>
</svg>
