<svg width="100" height="100" viewBox="0 0 100 100" fill="none" xmlns="http://www.w3.org/2000/svg">
<path d="M50 65C54.05 65 57.5 63.5 60.55 60.55C63.5 57.5 65 54.05 65 50C65 45.95 63.5 42.5 60.55 39.45C57.5 36.5 54.05 35 50 35C45.95 35 42.5 36.5 39.45 39.45C36.5 42.5 35 45.95 35 50C35 54.05 36.5 57.5 39.45 60.55C42.5 63.5 45.95 65 50 65ZM50 0C63.75 0 75.5 5 85.25 14.75C95 24.5 100 36.25 100 50V57.25C100 62.25 98.25 66.5 95 70C91.5 73.35 87.5 75 82.5 75C76.5 75 71.55 72.5 67.8 67.5C62.8 72.5 56.9 75 50 75C43.15 75 37.25 72.5 32.3 67.7C27.5 62.75 25 56.9 25 50C25 43.15 27.5 37.25 32.3 32.3C37.25 27.5 43.15 25 50 25C56.9 25 62.75 27.5 67.7 32.3C72.5 37.25 75 43.15 75 50V57.25C75 59.3 75.8 61.1 77.3 62.65C78.8 64.2 80.55 65 82.5 65C84.6 65 86.35 64.2 87.85 62.65C89.35 61.1 90 59.3 90 57.25V50C90 39.05 86.15 29.65 78.25 21.75C70.35 13.85 60.95 10 50 10C39.05 10 29.65 13.85 21.75 21.75C13.85 29.65 10 39.05 10 50C10 60.95 13.85 70.35 21.75 78.25C29.65 86.15 39.05 90 50 90H75V100H50C36.25 100 24.5 95 14.75 85.25C5 75.5 0 63.75 0 50C0 36.25 5 24.5 14.75 14.75C24.5 5 36.25 0 50 0Z" fill="#71A6DC"/>
</svg>
