<svg width="100" height="100" viewBox="0 0 100 100" fill="none" xmlns="http://www.w3.org/2000/svg">
<path d="M15.625 1.5H84.375C92.176 1.5 98.5 7.82398 98.5 15.625V84.375C98.5 92.176 92.176 98.5 84.375 98.5H15.625C7.82398 98.5 1.5 92.176 1.5 84.375V15.625C1.5 7.82398 7.82398 1.5 15.625 1.5Z" stroke="#71A6DC" stroke-width="3"/>
<path fill-rule="evenodd" clip-rule="evenodd" d="M65.2384 35.8445C65.2384 44.1858 58.4383 50.9858 50.0967 50.9858C41.6648 50.9858 34.8648 44.1858 34.8648 35.8445C34.8648 27.5032 41.6648 20.7031 50.0967 20.7031C58.4383 20.7031 65.2384 27.5032 65.2384 35.8445ZM56.3529 35.8445C56.3529 32.3992 53.5421 29.5885 50.0967 29.5885C46.5609 29.5885 43.75 32.3992 43.8408 35.8445C43.8408 39.2899 46.6517 42.1004 50.0967 42.1004C53.5421 42.1004 56.3529 39.2899 56.3529 35.8445Z" fill="#71A6DC"/>
<path d="M64.9663 59.7808C62.2463 61.5033 59.2542 62.6821 56.1717 63.4075L64.785 71.7488C66.5075 73.4717 66.5075 76.2821 64.785 78.005C63.0625 79.7275 60.2517 79.7275 58.5292 78.005L50.1875 69.6633L41.8463 78.005C40.9396 78.8208 39.8516 79.2742 38.6729 79.2742C37.4942 79.2742 36.4062 78.9117 35.4996 78.005C33.7768 76.2821 33.7768 73.4717 35.4996 71.7488L43.9317 63.3167C40.8489 62.5912 37.8569 61.4129 35.1369 59.69C33.0515 58.4208 32.4168 55.7008 33.5955 53.6154C34.9556 51.53 37.6756 50.9862 39.7609 52.2554C45.9263 56.1542 53.9954 56.1542 60.1609 52.2554C62.2463 50.8954 65.0571 51.53 66.3263 53.6154C67.6863 55.7008 67.0517 58.5112 64.9663 59.7808Z" fill="#71A6DC"/>
</svg>
