<svg width="100" height="100" viewBox="0 0 100 100" fill="none" xmlns="http://www.w3.org/2000/svg">
<path d="M20 32H33.2568C35.9749 32 38.3105 32.4069 40.2637 33.2207C42.2331 34.0345 43.7467 35.2389 44.8047 36.834C45.8626 38.429 46.3916 40.3903 46.3916 42.7178C46.3916 44.6221 46.0661 46.2578 45.415 47.625C44.7803 48.9759 43.877 50.1071 42.7051 51.0186C41.5495 51.9137 40.1904 52.6299 38.6279 53.167L36.3086 54.3877H24.7852L24.7363 48.6748H33.3057C34.5915 48.6748 35.6576 48.4469 36.5039 47.9912C37.3503 47.5355 37.985 46.9007 38.4082 46.0869C38.8477 45.2731 39.0674 44.3291 39.0674 43.2549C39.0674 42.1156 38.8558 41.1309 38.4326 40.3008C38.0094 39.4707 37.3665 38.8359 36.5039 38.3965C35.6413 37.957 34.5589 37.7373 33.2568 37.7373H27.3242V67.5469H20V32ZM39.873 67.5469L31.7676 51.7021L39.5068 51.6533L47.71 67.2051V67.5469H39.873Z" fill="white"/>
<path d="M72.6602 32H79.96V55.4863C79.96 58.2207 79.374 60.5238 78.2021 62.3955C77.0465 64.2673 75.4434 65.6751 73.3926 66.6191C71.3581 67.5632 69.0143 68.0352 66.3613 68.0352C63.7083 68.0352 61.3483 67.5632 59.2812 66.6191C57.2305 65.6751 55.6191 64.2673 54.4473 62.3955C53.2917 60.5238 52.7139 58.2207 52.7139 55.4863V32H60.0381V55.4863C60.0381 57.0814 60.2904 58.3835 60.7949 59.3926C61.2995 60.4017 62.0238 61.1423 62.9678 61.6143C63.9281 62.0863 65.0592 62.3223 66.3613 62.3223C67.696 62.3223 68.8271 62.0863 69.7549 61.6143C70.6989 61.1423 71.415 60.4017 71.9033 59.3926C72.4079 58.3835 72.6602 57.0814 72.6602 55.4863V32Z" fill="white"/>
</svg>
