<svg width="100" height="100" viewBox="0 0 100 100" fill="none" xmlns="http://www.w3.org/2000/svg">
<path d="M62.8571 0C53.0062 0 43.5588 3.91325 36.5932 10.8789C29.6275 17.8445 25.7143 27.292 25.7143 37.1429C25.7143 46.3429 29.0857 54.8 34.6286 61.3143L33.0857 62.8571H28.5714L0 91.4286L8.57143 100L37.1429 71.4286V66.9143L38.6857 65.3714C45.2 70.9143 53.6571 74.2857 62.8571 74.2857C72.708 74.2857 82.1555 70.3725 89.1211 63.4068C96.0867 56.4412 100 46.9938 100 37.1429C100 27.292 96.0867 17.8445 89.1211 10.8789C82.1555 3.91325 72.708 0 62.8571 0ZM62.8571 11.4286C77.1429 11.4286 88.5714 22.8571 88.5714 37.1429C88.5714 51.4286 77.1429 62.8571 62.8571 62.8571C48.5714 62.8571 37.1429 51.4286 37.1429 37.1429C37.1429 22.8571 48.5714 11.4286 62.8571 11.4286Z" fill="#71A6DC"/>
</svg>
