<svg width="100" height="100" viewBox="0 0 100 100" fill="none" xmlns="http://www.w3.org/2000/svg">
<path d="M97.0176 91.0842L72.9822 66.3308C79.1621 59.0563 82.5481 49.9035 82.5481 40.375C82.5481 18.1126 64.2565 0 41.7741 0C19.2916 0 1 18.1126 1 40.375C1 62.6374 19.2916 80.7499 41.7741 80.7499C50.2143 80.7499 58.2574 78.2291 65.134 73.4438L89.3521 98.385C90.3643 99.426 91.7258 100 93.1848 100C94.5658 100 95.8759 99.4786 96.8704 98.5307C98.9836 96.5172 99.051 93.1784 97.0176 91.0842ZM41.7741 10.5326C58.3921 10.5326 71.9114 23.9195 71.9114 40.375C71.9114 56.8304 58.3921 70.2173 41.7741 70.2173C25.156 70.2173 11.6367 56.8304 11.6367 40.375C11.6367 23.9195 25.156 10.5326 41.7741 10.5326Z" fill="white"/>
</svg>
