<svg width="100" height="100" viewBox="0 0 100 100" fill="none" xmlns="http://www.w3.org/2000/svg">
<path d="M81.0132 64.2442C74.9119 64.2442 69.4714 66.9851 65.9912 71.2209L36.8502 55.8762C37.533 54.0282 37.9075 52.0349 37.9075 49.9792C37.9075 47.9028 37.533 45.9302 36.8282 44.0615L65.9471 28.7375C69.4053 32.9942 74.8678 35.7558 80.9912 35.7558C91.4317 35.7558 99.956 27.7409 99.956 17.8779C99.956 8.01495 91.4537 0 80.9912 0C70.5286 0 62.0264 8.01495 62.0264 17.8779C62.0264 19.9543 62.4009 21.9477 63.1057 23.7957L34.0088 39.1196C30.5507 34.8422 25.0881 32.1013 18.9648 32.1013C8.52423 32.1013 0 40.1163 0 49.9792C0 59.8422 8.52423 67.8571 18.9868 67.8571C25.1101 67.8571 30.5727 65.0955 34.0529 60.8181L63.1718 76.1628C62.467 78.0316 62.0705 80.0457 62.0705 82.1221C62.0705 91.9643 70.5727 100 81.0352 100C91.4978 100 100 91.9851 100 82.1221C100 72.2591 91.4758 64.2442 81.0132 64.2442ZM81.0132 5.62708C88.1938 5.62708 94.0308 11.1296 94.0308 17.8987C94.0308 24.6678 88.1938 30.1703 81.0132 30.1703C73.8326 30.1703 67.9956 24.6678 67.9956 17.8987C67.9956 11.1296 73.8546 5.62708 81.0132 5.62708ZM18.9868 62.2508C11.8062 62.2508 5.96916 56.7483 5.96916 49.9792C5.96916 43.2101 11.8062 37.7076 18.9868 37.7076C26.1674 37.7076 32.0044 43.2101 32.0044 49.9792C32.0044 56.7483 26.1454 62.2508 18.9868 62.2508ZM81.0132 94.3729C73.8326 94.3729 67.9956 88.8704 67.9956 82.1013C67.9956 75.3322 73.8326 69.8297 81.0132 69.8297C88.1938 69.8297 94.0308 75.3322 94.0308 82.1013C94.0308 88.8704 88.1938 94.3729 81.0132 94.3729Z" fill="#71A6DC"/>
</svg>
