<svg width="102" height="102" viewBox="0 0 102 102" fill="none" xmlns="http://www.w3.org/2000/svg">
<path d="M82.0132 65.2442C75.9119 65.2442 70.4714 67.9851 66.9912 72.2209L37.8502 56.8762C38.533 55.0282 38.9075 53.0349 38.9075 50.9792C38.9075 48.9028 38.533 46.9302 37.8282 45.0615L66.9471 29.7375C70.4053 33.9942 75.8678 36.7558 81.9912 36.7558C92.4317 36.7558 100.956 28.7409 100.956 18.8779C100.956 9.01495 92.4537 1 81.9912 1C71.5286 1 63.0264 9.01495 63.0264 18.8779C63.0264 20.9543 63.4009 22.9477 64.1057 24.7957L35.0088 40.1196C31.5507 35.8422 26.0881 33.1013 19.9648 33.1013C9.52423 33.1013 1 41.1163 1 50.9792C1 60.8422 9.52423 68.8571 19.9868 68.8571C26.1101 68.8571 31.5727 66.0955 35.0529 61.8181L64.1718 77.1628C63.467 79.0316 63.0705 81.0457 63.0705 83.1221C63.0705 92.9643 71.5727 101 82.0352 101C92.4978 101 101 92.9851 101 83.1221C101 73.2591 92.4758 65.2442 82.0132 65.2442ZM82.0132 6.62708C89.1938 6.62708 95.0308 12.1296 95.0308 18.8987C95.0308 25.6678 89.1938 31.1703 82.0132 31.1703C74.8326 31.1703 68.9956 25.6678 68.9956 18.8987C68.9956 12.1296 74.8546 6.62708 82.0132 6.62708ZM19.9868 63.2508C12.8062 63.2508 6.96916 57.7483 6.96916 50.9792C6.96916 44.2101 12.8062 38.7076 19.9868 38.7076C27.1674 38.7076 33.0044 44.2101 33.0044 50.9792C33.0044 57.7483 27.1454 63.2508 19.9868 63.2508ZM82.0132 95.3729C74.8326 95.3729 68.9956 89.8704 68.9956 83.1013C68.9956 76.3322 74.8326 70.8297 82.0132 70.8297C89.1938 70.8297 95.0308 76.3322 95.0308 83.1013C95.0308 89.8704 89.1938 95.3729 82.0132 95.3729Z" fill="white" stroke="white"/>
</svg>
