<svg width="100" height="100" viewBox="0 0 100 100" fill="none" xmlns="http://www.w3.org/2000/svg">
<path d="M20.7143 0.203542C20.4796 0.234074 20.2449 0.234074 19.949 0C17.6632 0.52921 15.3673 1.00753 13.0917 1.60798C10.2549 2.37127 8.06102 4.08102 6.30589 6.41158C4.07116 9.41383 2.59154 12.7723 1.40785 16.2834C0.0914996 20.171 -0.347283 24.1198 0.28538 28.2211C0.83641 31.8442 2.06092 35.2332 3.30584 38.6527C5.35689 44.3213 7.62224 49.878 10.7958 55.0378C15.6632 62.9862 21.6837 69.9677 28.4287 76.3691C33.7553 81.4068 39.5105 85.9152 45.8372 89.6502C52.8067 93.7516 60.3782 96.4587 68.062 98.8198C72.0417 100.061 76.1846 100.397 80.3378 99.4711C84.9093 98.4534 89.2053 96.7946 93.0523 94.1078C94.44 93.1206 95.8176 91.8994 96.787 90.5051C99.1034 87.1466 99.7667 83.2386 99.9912 79.2594C100.073 77.8448 99.5932 76.8169 98.3993 76.1147C96.185 74.7916 93.991 73.4075 91.7359 72.115C87.5318 69.7031 83.0827 67.6982 79.103 64.8588C78.7357 64.5942 78.2867 64.411 77.8683 64.2074C76.3683 63.4543 74.9397 63.5764 73.6336 64.6756C72.9907 65.2048 72.3274 65.7543 71.7764 66.3752C69.4804 68.95 67.2559 71.5451 64.9497 74.0996C62.4701 76.8576 61.2252 77.1629 58.0313 75.3615C54.6434 73.4483 51.2862 71.4434 48.0617 69.2553C39.6942 63.607 33.0716 56.2795 27.8879 47.6594C26.4899 45.3289 25.2246 42.9474 23.949 40.566C23.1225 39.0089 23.4388 37.5332 24.6633 36.3527C26.2348 34.8464 27.9083 33.4318 29.5206 31.9561C31.4492 30.1955 33.4492 28.4756 35.2656 26.6233C36.5411 25.3308 36.5819 23.7025 35.7248 22.0843C35.3064 21.3719 34.8778 20.6392 34.4288 19.9268C33.939 19.1737 33.3574 18.4613 32.939 17.6777C31.3063 14.7568 29.7757 11.7851 28.1124 8.8948C26.6736 6.39123 25.1531 3.94872 23.6429 1.50621C22.9694 0.396908 21.9286 0.101771 20.7143 0.203542Z" fill="#71A6DC"/>
</svg>
