<svg width="48" height="48" viewBox="0 0 48 48" fill="none" xmlns="http://www.w3.org/2000/svg">
<circle cx="24" cy="24" r="24" fill="white"/>
<path fill-rule="evenodd" clip-rule="evenodd" d="M0 24C0 37.2548 10.7452 48 24 48C37.2548 48 48 37.2548 48 24C48 10.7452 37.2548 0 24 0C10.7452 0 0 10.7452 0 24ZM19.5999 35L20.0083 28.8822L20.0079 28.882L31.1369 18.839C31.6253 18.4055 31.0302 18.1941 30.3818 18.5873L16.6472 27.2523L10.7146 25.4006C9.43344 25.0084 9.42424 24.128 11.0023 23.4951L34.1203 14.5808C35.1761 14.1015 36.1952 14.8344 35.7921 16.4505L31.8551 35.0031C31.5802 36.3215 30.7836 36.6367 29.6799 36.0278L23.6826 31.5969L20.7999 34.4L20.7728 34.4264C20.4504 34.7403 20.1836 35 19.5999 35Z" fill="#71A6DC"/>
</svg>
