<svg width="100" height="100" viewBox="0 0 100 100" fill="none" xmlns="http://www.w3.org/2000/svg">
<path d="M15.625 1.5H84.375C92.176 1.5 98.5 7.82398 98.5 15.625V84.375C98.5 92.176 92.176 98.5 84.375 98.5H15.625C7.82398 98.5 1.5 92.176 1.5 84.375V15.625C1.5 7.82398 7.82398 1.5 15.625 1.5Z" stroke="#71A6DC" stroke-width="3"/>
<path d="M45.3074 44.6884V42.7419C44.6406 42.6529 43.9626 42.5972 43.2624 42.5972C34.9157 42.5862 28.125 49.3825 28.125 57.7474C28.125 62.8753 30.6812 67.4137 34.5934 70.1612C32.0705 67.4583 30.5256 63.8208 30.5256 59.8386C30.5256 51.5961 37.1274 44.8775 45.3074 44.6884Z" fill="#71A6DC"/>
<path d="M45.6742 66.7575C49.3975 66.7575 52.4427 63.7876 52.5762 60.0946L52.5873 27.0912H58.6111C58.4888 26.4127 58.4221 25.7119 58.4221 25H50.1977L50.1866 58.0034C50.0533 61.6964 47.0079 64.6662 43.2847 64.6662C42.1289 64.6662 41.0397 64.3771 40.0728 63.8654C41.3175 65.6117 43.3625 66.7575 45.6742 66.7575Z" fill="#71A6DC"/>
<path d="M58.4218 57.7475V41.0067C61.645 43.3204 65.6016 44.6885 69.8695 44.6885V38.2926C67.4021 37.7699 65.2348 36.435 63.6345 34.5996C61.0559 32.92 59.1999 30.2281 58.6108 27.0913H52.587L52.5759 60.0945C52.4426 63.7875 49.3972 66.7576 45.6741 66.7576C43.3623 66.7576 41.3284 65.6118 40.0614 63.8766C37.8608 62.7086 36.3493 60.4061 36.3493 57.7475C36.3493 53.9322 39.4501 50.8287 43.2623 50.8287C43.9736 50.8287 44.6626 50.951 45.3073 51.1513V44.6997C37.1273 44.8777 30.5255 51.5962 30.5255 59.8388C30.5255 63.8209 32.0704 67.4473 34.5933 70.1614C37.0495 71.8855 40.0503 72.9089 43.2734 72.9089C51.6201 72.9089 58.4218 66.1013 58.4218 57.7475Z" fill="#71A6DC"/>
</svg>
