<svg width="100" height="100" viewBox="0 0 100 100" fill="none" xmlns="http://www.w3.org/2000/svg">
<path d="M15.625 1.5H84.375C92.176 1.5 98.5 7.82398 98.5 15.625V84.375C98.5 92.176 92.176 98.5 84.375 98.5H15.625C7.82398 98.5 1.5 92.176 1.5 84.375V15.625C1.5 7.82398 7.82398 1.5 15.625 1.5Z" stroke="#71A6DC" stroke-width="3"/>
<path d="M75 34.375C73.125 35.3125 71.25 35.625 69.0625 35.9375C71.25 34.6875 72.8125 32.8125 73.4375 30.3125C71.5625 31.5625 69.375 32.1875 66.875 32.8125C65 30.9375 62.1875 29.6875 59.375 29.6875C52.8125 29.6875 47.8125 35.9375 49.375 42.1875C40.9375 41.875 33.4375 37.8125 28.125 31.5625C25.3125 36.25 26.875 42.1875 31.25 45.3125C29.6875 45.3125 28.125 44.6875 26.5625 44.0625C26.5625 48.75 30 53.125 34.6875 54.375C33.125 54.6875 31.5625 55 30 54.6875C31.25 58.75 35 61.875 39.6875 61.875C35.9375 64.6875 30.3125 66.25 25 65.625C29.6875 68.4375 35 70.3125 40.625 70.3125C59.6875 70.3125 70.3125 54.375 69.6875 39.6875C71.875 38.4375 73.75 36.5625 75 34.375Z" fill="#71A6DC"/>
</svg>
