<svg width="100" height="100" viewBox="0 0 100 100" fill="none" xmlns="http://www.w3.org/2000/svg">
<path d="M52.6877 68.2479C52.6877 68.2479 53.8608 68.1199 54.4617 67.4864C55.0117 66.906 54.9926 65.8106 54.9926 65.8106C54.9926 65.8106 54.9195 60.6959 57.3388 59.9407C59.7232 59.198 62.7847 64.8869 66.0338 67.0745C68.4881 68.7284 70.3511 68.3664 70.3511 68.3664L79.0333 68.2479C79.0333 68.2479 83.5732 67.9732 81.4209 64.4688C81.2428 64.1817 80.1651 61.8755 74.9672 57.1384C69.5213 52.1797 70.2525 52.9817 76.8079 44.403C80.8009 39.1791 82.3969 35.9898 81.8977 34.626C81.4241 33.3216 78.4865 33.668 78.4865 33.668L68.7138 33.7273C68.7138 33.7273 67.989 33.6305 67.4517 33.9457C66.9271 34.2547 66.587 34.9755 66.587 34.9755C66.587 34.9755 65.0419 39.0168 62.9786 42.4557C58.6264 49.7081 56.8874 50.0919 56.1752 49.6426C54.5189 48.5909 54.9322 45.4235 54.9322 43.1735C54.9322 36.1427 56.0194 33.2124 52.818 32.4541C51.7562 32.2013 50.9741 32.0359 48.256 32.0078C44.7684 31.9735 41.8182 32.0203 40.1459 32.8223C39.0332 33.3559 38.1749 34.548 38.6994 34.6167C39.3448 34.7009 40.8072 35.0036 41.5829 36.0397C42.5844 37.3784 42.5494 40.3805 42.5494 40.3805C42.5494 40.3805 43.1248 48.6564 41.2046 49.6831C39.8884 50.3884 38.0827 48.9498 34.2009 42.3683C32.214 38.9981 30.7134 35.272 30.7134 35.272C30.7134 35.272 30.4241 34.5761 29.9059 34.2016C29.2796 33.7491 28.4053 33.6087 28.4053 33.6087L19.119 33.668C19.119 33.668 17.7234 33.7054 17.2115 34.3015C16.7569 34.8289 17.1766 35.9242 17.1766 35.9242C17.1766 35.9242 24.4473 52.6228 32.6813 61.0392C40.2318 68.7534 48.8028 68.2479 48.8028 68.2479H52.6877Z" fill="white"/>
</svg>
