<svg width="48" height="48" viewBox="0 0 48 48" fill="none" xmlns="http://www.w3.org/2000/svg">
<circle cx="24" cy="24" r="24" fill="white"/>
<path fill-rule="evenodd" clip-rule="evenodd" d="M24 0C10.7452 0 0 10.7452 0 24C0 37.2548 10.7452 48 24 48C37.2548 48 48 37.2548 48 24C48 10.7452 37.2548 0 24 0ZM25.9541 31.5763C25.7174 31.8258 25.2554 31.8762 25.2554 31.8762H23.7254C23.7254 31.8762 20.3497 32.0753 17.376 29.0371C14.133 25.7223 11.2695 19.1456 11.2695 19.1456C11.2695 19.1456 11.1042 18.7142 11.2833 18.5065C11.4849 18.2718 12.0345 18.257 12.0345 18.257L15.6919 18.2337C15.6919 18.2337 16.0362 18.289 16.2829 18.4672C16.487 18.6147 16.6009 18.8888 16.6009 18.8888C16.6009 18.8888 17.1919 20.3563 17.9745 21.6836C19.5033 24.2757 20.2145 24.8423 20.7328 24.5645C21.4891 24.1602 21.2625 20.9007 21.2625 20.9007C21.2625 20.9007 21.2762 19.7184 20.8818 19.1911C20.5763 18.7831 20.0004 18.6638 19.7462 18.6307C19.5396 18.6036 19.8777 18.1341 20.3159 17.924C20.9745 17.6081 22.1364 17.5897 23.51 17.6032C24.5805 17.6142 24.8885 17.6794 25.3067 17.7789C26.2773 18.0088 26.247 18.7456 26.1816 20.3358C26.1621 20.8113 26.1394 21.3632 26.1394 22.0007C26.1394 22.144 26.1351 22.2967 26.1308 22.4538C26.1081 23.2684 26.0821 24.2013 26.629 24.5486C26.9094 24.7255 27.5943 24.5744 29.3085 21.718C30.1211 20.3636 30.7296 18.772 30.7296 18.772C30.7296 18.772 30.8636 18.4881 31.0702 18.3664C31.2818 18.2423 31.5672 18.2804 31.5672 18.2804L35.4162 18.257C35.4162 18.257 36.5731 18.1206 36.7597 18.6343C36.9563 19.1714 36.3277 20.4275 34.7551 22.485C33.2633 24.4372 32.5373 25.1559 32.604 25.7916C32.6527 26.2561 33.1246 26.6762 34.0301 27.5007C35.9205 29.2236 36.4272 30.13 36.549 30.3478C36.559 30.3658 36.5665 30.3791 36.5719 30.3878C37.4195 31.768 35.6315 31.8762 35.6315 31.8762L32.2121 31.9229C32.2121 31.9229 31.4783 32.0655 30.5117 31.4141C30.0054 31.0731 29.5106 30.5163 29.0393 29.9859C28.3196 29.1759 27.6547 28.4277 27.0872 28.6044C26.1344 28.9019 26.1632 30.9163 26.1632 30.9163C26.1632 30.9163 26.1707 31.3477 25.9541 31.5763Z" fill="#71A6DC"/>
</svg>
