<svg width="48" height="48" viewBox="0 0 48 48" fill="none" xmlns="http://www.w3.org/2000/svg">
<path d="M0 24C0 10.7452 10.7452 0 24 0C37.2548 0 48 10.7452 48 24C48 37.2548 37.2548 48 24 48C10.7452 48 0 37.2548 0 24Z" fill="#71A6DC"/>
<g clip-path="url(#clip0_472_1430)">
<path fill-rule="evenodd" clip-rule="evenodd" d="M20.3721 17.5919C20.0957 16.9775 19.8048 16.9652 19.5419 16.9545C19.3269 16.9452 19.0807 16.9458 18.8349 16.9458C18.5889 16.9458 18.1892 17.0382 17.8512 17.4074C17.513 17.7766 16.5598 18.669 16.5598 20.484C16.5598 22.2993 17.8819 24.0532 18.0662 24.2996C18.2507 24.5455 20.6184 28.3893 24.3682 29.8681C27.4846 31.097 28.1188 30.8525 28.7953 30.791C29.4717 30.7295 30.9779 29.8988 31.2854 29.0373C31.5928 28.176 31.5928 27.4377 31.5006 27.2834C31.4084 27.1296 31.1624 27.0374 30.7934 26.8529C30.4245 26.6684 28.6108 25.7758 28.2726 25.6528C27.9343 25.5298 27.6884 25.4683 27.4424 25.8377C27.1964 26.2066 26.4898 27.0374 26.2746 27.2834C26.0593 27.5299 25.8441 27.5606 25.4751 27.3762C25.1062 27.1911 23.918 26.802 22.5084 25.5452C21.4117 24.5674 20.6713 23.3598 20.456 22.9905C20.2408 22.6215 20.433 22.4216 20.618 22.2377C20.7837 22.0725 20.987 21.8071 21.1715 21.5916C21.3556 21.3762 21.4171 21.2225 21.5401 20.9765C21.6631 20.7301 21.6016 20.5147 21.5093 20.3303C21.4171 20.1458 20.7001 18.3214 20.3721 17.5919Z" fill="white"/>
<path d="M34.5062 13.3316C31.7184 10.5418 28.0115 9.00468 24.062 9.00293C15.9234 9.00293 9.30032 15.6239 9.29704 23.7621C9.29608 26.3635 9.97579 28.9029 11.2677 31.1413L9.1731 38.7896L17.0002 36.7372C19.1567 37.9133 21.5848 38.533 24.0557 38.534H24.0619H24.062C32.1992 38.534 38.8233 31.9118 38.8268 23.774C38.8281 19.83 37.2937 16.1215 34.5062 13.3316ZM24.062 36.0412H24.0572C21.8548 36.04 19.695 35.4487 17.8111 34.3309L17.3628 34.0651L12.718 35.2829L13.9581 30.756L13.666 30.2919C12.4375 28.3385 11.7889 26.081 11.7899 23.7631C11.7926 16.9989 17.2974 11.496 24.0666 11.496C27.3447 11.4973 30.4255 12.775 32.7427 15.0938C35.0597 17.4125 36.3347 20.4949 36.3338 23.7731C36.3309 30.5375 30.8258 36.0412 24.062 36.0412Z" fill="white"/>
</g>
<defs>
<clipPath id="clip0_472_1430">
<rect width="30" height="30.1326" fill="white" transform="translate(9 9)"/>
</clipPath>
</defs>
</svg>
