<svg width="100" height="100" viewBox="0 0 100 100" fill="none" xmlns="http://www.w3.org/2000/svg">
<path fill-rule="evenodd" clip-rule="evenodd" d="M37.7401 28.5133C36.823 26.4744 35.8575 26.4336 34.985 26.3979C34.2714 26.3673 33.4544 26.3692 32.6388 26.3692C31.8225 26.3692 30.4959 26.6759 29.3742 27.9011C28.2517 29.1262 25.0885 32.0879 25.0885 38.1114C25.0885 44.1355 29.4762 49.9563 30.0878 50.7738C30.7 51.5901 38.5577 64.3464 51.002 69.2538C61.3444 73.3322 63.449 72.521 65.6938 72.3169C67.9387 72.1128 72.9373 69.3559 73.9577 66.4968C74.9781 63.6384 74.9781 61.1882 74.672 60.6761C74.3659 60.1659 73.5496 59.8597 72.3251 59.2475C71.1006 58.6353 65.0816 55.6729 63.9592 55.2648C62.8367 54.8566 62.0204 54.6525 61.2041 55.8783C60.3878 57.1028 58.0428 59.8597 57.3285 60.6761C56.6142 61.4942 55.8999 61.5963 54.6755 60.984C53.451 60.3699 49.5078 59.0784 44.83 54.9076C41.1903 51.6627 38.7331 47.6551 38.0188 46.4294C37.3045 45.2049 37.9422 44.5417 38.5564 43.9313C39.1061 43.3828 39.7809 42.5021 40.3931 41.7872C41.004 41.0722 41.2081 40.562 41.6163 39.7457C42.0244 38.9281 41.8204 38.2132 41.5142 37.601C41.2081 36.9888 38.8287 30.9342 37.7401 28.5133V28.5133Z" fill="#71A6DC"/>
<path d="M84.6467 14.3746C75.3949 5.11639 63.0927 0.0150732 49.9858 0.00927734C22.9766 0.00927734 0.996661 21.9822 0.985804 48.9901C0.982621 57.6234 3.23835 66.0505 7.52588 73.479L0.574463 98.8613L26.5499 92.0501C33.7067 95.9531 41.7646 98.0099 49.9648 98.013H49.9856H49.9858C76.9905 98.013 98.9737 76.0363 98.9852 49.0296C98.9897 35.9406 93.8972 23.6334 84.6467 14.3746V14.3746ZM49.9858 89.7403H49.9699C42.6607 89.7364 35.493 87.7741 29.2412 84.0643L27.7533 83.1823L12.339 87.2237L16.4543 72.2003L15.485 70.6602C11.4079 64.1775 9.25549 56.6858 9.25868 48.9934C9.26757 26.5453 27.5365 8.2828 50.0012 8.2828C60.8799 8.28729 71.1042 12.5276 78.7942 20.2227C86.4835 27.9178 90.7149 38.1472 90.7117 49.0266C90.7021 71.4752 72.4325 89.7403 49.9858 89.7403Z" fill="#71A6DC"/>
</svg>
