<svg width="47" height="47" viewBox="0 0 47 47" fill="none" xmlns="http://www.w3.org/2000/svg">
<g clip-path="url(#clip0_335_939)">
<path d="M0.79899 43.2254C0.017941 42.4443 0.017941 41.178 0.79899 40.397L40.397 0.798975C41.178 0.0179265 42.4443 0.0179265 43.2254 0.798975L46.0538 3.6274C46.8349 4.40845 46.8349 5.67478 46.0538 6.45583L6.45584 46.0538C5.6748 46.8349 4.40847 46.8349 3.62742 46.0538L0.79899 43.2254Z" fill="#71A6DC"/>
<path d="M43.2254 46.0538C42.4443 46.8349 41.178 46.8349 40.397 46.0538L0.798991 6.45583C0.0179422 5.67478 0.017941 4.40845 0.79899 3.6274L3.62742 0.798975C4.40847 0.0179265 5.6748 0.0179265 6.45584 0.798975L46.0538 40.397C46.8349 41.178 46.8349 42.4443 46.0538 43.2254L43.2254 46.0538Z" fill="#71A6DC"/>
</g>
<defs>
<clipPath id="clip0_335_939">
<rect width="47" height="47" fill="white"/>
</clipPath>
</defs>
</svg>
