<svg width="150" height="150" viewBox="0 0 150 150" fill="none" xmlns="http://www.w3.org/2000/svg">
<g clip-path="url(#clip0_429_2730)">
<mask id="mask0_429_2730" style="mask-type:alpha" maskUnits="userSpaceOnUse" x="25" y="25" width="100" height="100">
<path d="M25 124.775H124.881V25.1199H25V124.775Z" fill="white"/>
</mask>
<g mask="url(#mask0_429_2730)">
<path fill-rule="evenodd" clip-rule="evenodd" d="M111.623 40.8055C102.271 30.8351 88.6561 25.1179 74.2625 25.1179C73.0326 25.1179 71.796 25.1574 70.5727 25.2429C47.3484 26.8153 36.1205 43.2759 34.9565 45.0884C33.2451 47.2595 18.5053 67.1149 28.378 94.5526L28.5626 95.1447C28.6582 95.4407 38.2704 124.776 72.6369 124.776H72.6435C74.4835 124.776 76.3993 124.691 78.3284 124.52C103.993 122.273 123.085 103.352 124.76 78.5228C125.713 64.2563 121.047 50.8615 111.623 40.8055Z" fill="#FEFEFE"/>
</g>
<path fill-rule="evenodd" clip-rule="evenodd" d="M101.511 86.2034C104.997 78.5587 103.243 70.2461 97.3697 63.6869C95.7374 61.8678 93.7029 60.6276 91.7343 59.427C90.4548 58.6474 89.1293 57.8414 87.9422 56.8842C87.3849 56.4335 86.9265 55.8283 86.4418 55.1835C85.8384 54.3842 85.1558 53.4763 84.1764 52.769C78.7323 48.8414 72.3285 47.4039 66.004 45.5387C63.0164 44.6604 60.108 44.0091 57.3711 43.0387C60.7477 40.6966 65.0938 39.1834 69.8323 38.7229C71.3228 38.5782 72.81 38.5025 74.2609 38.5025C88.2323 38.5025 100.433 45.5223 106.903 57.2789C113.379 69.0586 112.954 83.3515 105.782 94.5851C98.415 106.125 85.347 112.263 70.5578 111.046C61.7106 110.322 52.2831 105.638 49.3813 100.681C51.1784 99.5785 67.3328 91.0357 78.386 94.4765C81.5549 94.4864 76.4867 102.141 76.4867 102.141C76.4867 102.141 94.9328 100.621 101.511 86.2034ZM109.168 43.0157C99.5394 32.7525 85.2811 27.4827 70.7293 28.4663C47.6303 30.0353 37.385 47.1703 37.385 47.1703C37.385 47.1703 55.6861 52.7032 58.2087 53.4829C59.9201 54.0158 71.3459 56.8316 76.4966 59.6605C77.5715 60.2493 78.6267 61.4303 79.6655 62.5322C80.4371 63.348 81.1625 64.1211 81.9176 64.7395C83.2696 65.8448 84.5952 66.802 85.8746 67.7264C89.0501 70.0159 91.7903 71.9895 93.0632 74.9961C94.1678 77.608 94.2107 80.3153 93.1852 82.8317C92.2948 85.0225 90.6197 86.9732 88.539 88.3087C88.75 87.2002 89.0336 85.6146 87.5333 84.6278C86.8936 84.21 83.4378 83.3975 81.1262 83.1672C80.0216 83.0521 67.656 82.4764 50.486 91.7232C55.6366 84.8745 59.3232 83.733 59.3232 83.733C59.1847 82.9074 31.5485 94.0752 31.5485 94.0752C31.5485 94.0752 41.0815 124.539 77.9804 121.302C101.986 119.194 119.872 101.681 121.441 78.3021C122.338 64.9467 117.979 52.4138 109.168 43.0157Z" fill="#E0393D"/>
<path fill-rule="evenodd" clip-rule="evenodd" d="M74.1682 63.0348C68.236 63.2684 62.782 56.1565 58.2051 60.8144C59.0921 61.0381 60.8958 60.3506 61.1761 61.1828C58.825 70.377 74.066 72.7454 74.1682 63.0348Z" fill="#E0393D"/>
</g>
<defs>
<clipPath id="clip0_429_2730">
<rect width="150" height="150" fill="white"/>
</clipPath>
</defs>
</svg>
