<svg width="150" height="150" viewBox="0 0 150 150" fill="none" xmlns="http://www.w3.org/2000/svg">
<path fill-rule="evenodd" clip-rule="evenodd" d="M124.871 72.0537C124.871 58.7244 119.676 46.1914 110.244 36.7605C102.292 28.8116 92.2647 23.904 81.1978 22.5298C81.0374 22.4082 80.8714 22.2921 80.6999 22.1815C75.8151 19.0378 71.5332 21.1474 69.2374 22.2838L68.7367 22.5271C65.3151 22.9529 61.9433 23.7353 58.6794 24.8606C58.519 24.6864 58.353 24.5122 58.1843 24.3436C55.3823 21.54 51.6592 20 47.6954 20C39.5162 20 32.8611 26.6522 32.8611 34.8279C32.8611 37.5015 33.5499 40.0451 34.872 42.2957C28.4935 50.8667 25 61.3538 25 72.0537C25 85.3858 30.1946 97.9216 39.6269 107.35C43.7344 111.455 48.434 114.768 53.612 117.212C53.6148 118.124 53.7033 118.97 53.8748 119.728C53.6673 120.057 53.4875 120.433 53.3575 120.867C52.1294 123.118 53.2801 125.603 56.9202 128.371C59.1358 130.066 60.859 130.356 62.2836 130.356C62.668 130.356 63.0332 130.334 63.3789 130.314L63.8962 130.287C66.3967 130.185 68.438 128.481 69.9815 126.684L72.3935 126.322C73.3782 126.175 74.598 125.935 76.1912 125.263C78.6143 124.243 79.6018 122.86 79.978 121.716C85.7922 121.143 91.3575 119.581 96.5853 117.06C96.7319 117.864 96.884 118.987 97.0085 120.436C97.1772 122.413 97.5202 123.767 98.3998 126.596C99.1467 129.001 100.4 130.107 102.151 129.894C102.953 129.795 104.836 129.206 105.016 125.725C105.063 124.782 105.188 122.274 105.08 120.367C104.928 117.77 105.044 115.993 105.174 115.561C105.434 114.735 105.663 113.283 104.842 112.033C106.753 110.601 108.562 109.031 110.244 107.35C119.676 97.9188 124.871 85.3858 124.871 72.0537Z" fill="#FEFEFE"/>
<mask id="mask0_429_1995" style="mask-type:alpha" maskUnits="userSpaceOnUse" x="28" y="23" width="94" height="104">
<path d="M28.0002 23H121.554V127H28.0002V23Z" fill="white"/>
</mask>
<g mask="url(#mask0_429_1995)">
<path fill-rule="evenodd" clip-rule="evenodd" d="M121.554 71.901C121.554 59.407 116.687 47.661 107.852 38.826C100.222 31.194 90.4202 26.528 79.8402 25.398C79.5952 25.154 79.3202 24.929 79.0082 24.729C75.2632 22.32 72.1372 24.109 69.9702 25.162C69.8142 25.238 69.6322 25.328 69.4272 25.433C65.3482 25.899 61.4282 26.894 57.7342 28.344C57.2982 27.691 56.7942 27.074 56.2252 26.505C53.9652 24.245 50.9602 23 47.7632 23C41.1642 23 35.7962 28.369 35.7962 34.968C35.7962 37.733 36.7292 40.355 38.4442 42.475C31.9172 50.518 28.0002 60.759 28.0002 71.901C28.0002 84.396 32.8662 96.143 41.7002 104.978C46.0152 109.292 51.0282 112.658 56.4792 114.975C56.1752 117.447 56.5762 119.124 57.0282 119.812C56.3402 120.391 56.0512 120.752 55.9422 121.402C54.8582 122.885 57.4972 124.765 58.5812 125.596C60.8092 127.304 61.9802 127.007 63.7152 126.935C65.8572 126.845 67.8722 124.33 69.0312 122.704C71.3442 122.379 71.7782 122.74 71.8502 123.029C72.5732 122.921 73.5852 122.74 74.9592 122.161C78.0832 120.846 77.2002 119.234 76.8762 118.944C76.7912 118.87 76.7232 118.765 76.6572 118.639C84.0732 118.347 91.1812 116.336 97.5242 112.796C97.7472 113.046 97.9792 113.332 98.2062 113.666C98.8932 114.679 99.2542 117.968 99.3992 119.667C99.5442 121.366 99.8332 122.525 100.664 125.198C101.495 127.874 101.821 125.922 101.858 125.198C101.894 124.476 102.038 121.873 101.93 119.992C101.821 118.112 101.785 115.401 102.147 114.244C102.509 113.088 101.858 112.798 101.677 112.582C101.495 112.364 101.677 112.292 101.206 110.81C101.18 110.728 101.159 110.641 101.142 110.553C103.521 108.921 105.769 107.062 107.852 104.978C116.687 96.143 121.554 84.396 121.554 71.901Z" fill="white"/>
</g>
<mask id="mask1_429_1995" style="mask-type:alpha" maskUnits="userSpaceOnUse" x="28" y="23" width="94" height="104">
<path d="M28.0002 23H121.554V127H28.0002V23Z" fill="white"/>
</mask>
<g mask="url(#mask1_429_1995)">
<path fill-rule="evenodd" clip-rule="evenodd" d="M121.554 71.901C121.554 59.407 116.687 47.661 107.852 38.826C100.222 31.194 90.4202 26.528 79.8402 25.398C79.5952 25.154 79.3202 24.929 79.0082 24.729C75.2632 22.32 72.1372 24.109 69.9702 25.162C69.8142 25.238 69.6322 25.328 69.4272 25.433C65.3482 25.899 61.4282 26.894 57.7342 28.344C57.2982 27.691 56.7942 27.074 56.2252 26.505C53.9652 24.245 50.9602 23 47.7632 23C41.1642 23 35.7962 28.369 35.7962 34.968C35.7962 37.733 36.7292 40.355 38.4442 42.475C31.9172 50.518 28.0002 60.759 28.0002 71.901C28.0002 84.396 32.8662 96.143 41.7002 104.978C46.0152 109.292 51.0282 112.658 56.4792 114.975C56.1752 117.447 56.5762 119.124 57.0282 119.812C56.3402 120.391 56.0512 120.752 55.9422 121.402C54.8582 122.885 57.4972 124.765 58.5812 125.596C60.8092 127.304 61.9802 127.007 63.7152 126.935C65.8572 126.845 67.8722 124.33 69.0312 122.704C71.3442 122.379 71.7782 122.74 71.8502 123.029C72.5732 122.921 73.5852 122.74 74.9592 122.161C78.0832 120.846 77.2002 119.234 76.8762 118.944C76.7912 118.87 76.7232 118.765 76.6572 118.639C84.0732 118.347 91.1812 116.336 97.5242 112.796C97.7472 113.046 97.9792 113.332 98.2062 113.666C98.8932 114.679 99.2542 117.968 99.3992 119.667C99.5442 121.366 99.8332 122.525 100.664 125.198C101.495 127.874 101.821 125.922 101.858 125.198C101.894 124.476 102.038 121.873 101.93 119.992C101.821 118.112 101.785 115.401 102.147 114.244C102.509 113.088 101.858 112.798 101.677 112.582C101.495 112.364 101.677 112.292 101.206 110.81C101.18 110.728 101.159 110.641 101.142 110.553C103.521 108.921 105.769 107.062 107.852 104.978C116.687 96.143 121.554 84.396 121.554 71.901Z" fill="#061922"/>
</g>
<path fill-rule="evenodd" clip-rule="evenodd" d="M63.7151 115.546C65.4521 115.473 67.8731 114.932 68.9761 114.461C69.1211 114.498 69.3561 114.642 69.7181 114.786C69.8611 113.63 69.1211 111.226 68.7051 110.122C68.4291 109.391 68.1621 108.894 67.8371 108.135C66.8611 107.953 65.6501 107.43 64.7821 107.068C64.7821 107.755 64.9091 109.545 65.0541 110.737C64.6931 110.774 64.1861 110.81 63.5701 110.81C63.6431 112.111 63.7891 114.461 63.7151 115.546Z" fill="#008348"/>
<path fill-rule="evenodd" clip-rule="evenodd" d="M96.4353 111.714C96.1093 111.388 96.8323 110.375 97.1583 108.496C97.4823 106.616 97.5183 103.47 96.1453 101.698C95.4763 100.836 95.1522 100.293 95.0392 99.905C90.7572 103.02 85.8512 105.088 80.6352 105.975C80.5732 106.085 80.5112 106.181 80.4552 106.254C79.6952 107.231 78.2132 108.641 77.1272 109.219C76.0432 109.797 74.7783 110.232 74.0913 110.449C73.9473 111.605 73.7592 114.187 74.0562 115.075C74.1652 115.401 75.5012 116.197 75.9712 117.065C76.0202 117.154 76.0642 117.242 76.1072 117.33C83.4842 117.117 90.4272 115.139 96.5252 111.8C96.4942 111.771 96.4613 111.739 96.4353 111.714Z" fill="#008348"/>
<path fill-rule="evenodd" clip-rule="evenodd" d="M106.915 39.7634C99.7878 32.6364 90.7088 28.1704 80.8848 26.8594C81.6718 28.4164 81.7938 30.2054 81.8648 31.3454C83.2748 30.7304 84.3588 30.4044 84.9378 29.4654C85.5168 28.5244 86.3118 28.7054 86.8178 29.3924C87.3248 30.0784 87.3248 30.9474 85.9868 31.7784C84.6488 32.6104 83.6738 33.0084 83.3838 33.1534C83.0938 33.2964 83.3478 33.5504 83.6738 34.0924C83.9978 34.6344 84.8258 35.9744 84.9748 38.7924C84.9758 38.8194 84.9778 38.8474 84.9778 38.8744C90.2928 40.5104 95.1638 43.4284 99.2068 47.4714C105.735 53.9984 109.33 62.6784 109.33 71.9094C109.33 77.2104 108.141 82.3294 105.896 86.9644C106.195 87.1184 106.601 88.1684 106.739 89.5514C106.811 90.2744 106.774 91.0704 106.559 91.5754C106.342 92.0824 104.635 94.6424 103.774 95.4084C103.449 95.6984 102.688 95.6624 102.364 95.1924C102.039 94.7214 102.003 94.9744 101.749 95.2264C101.496 95.4804 100.628 96.7454 100.413 97.0714C100.195 97.3974 99.4718 97.7214 99.9408 99.0234C100.413 100.326 100.953 101.301 100.774 102.024C100.592 102.748 100.52 102.965 101.496 103.797C102.474 104.627 102.437 105.639 102.003 106.29C101.731 106.698 101.304 107.785 101.138 108.906C112.685 100.656 120.228 87.1424 120.228 71.9014C120.228 59.7614 115.499 48.3474 106.915 39.7634Z" fill="#008348"/>
<path fill-rule="evenodd" clip-rule="evenodd" d="M54.7129 105.458C54.5859 104.233 54.3999 102.02 55.2559 100.441C53.5119 99.2411 51.8619 97.8761 50.3319 96.3461C43.8049 89.8171 40.2099 81.1401 40.2099 71.9091C40.2099 62.0241 44.3819 53.0961 51.0559 46.7921C51.1189 46.6581 51.1989 46.5301 51.2969 46.4061C50.1669 46.7541 48.9799 46.9351 47.7629 46.9351C44.5789 46.9351 41.5849 45.6981 39.3279 43.4551C32.8489 51.4961 29.3269 61.4281 29.3269 71.9011C29.3269 84.0411 34.0539 95.4551 42.6389 104.039C46.7539 108.154 51.5209 111.381 56.7049 113.627C56.9049 112.659 57.2049 111.6 57.6419 110.449C58.0399 109.399 57.4249 106.978 56.4119 105.712C55.8699 105.566 55.1839 105.495 54.7129 105.458Z" fill="#008348"/>
<path fill-rule="evenodd" clip-rule="evenodd" d="M66.7647 27.1531C63.8947 27.6601 61.0977 28.4411 58.4027 29.4801C59.2687 31.1571 59.7307 33.0261 59.7307 34.9681C59.7307 37.5421 58.9227 39.9921 57.4277 42.0281C59.9287 40.5711 62.6277 39.4171 65.4737 38.6211C65.6587 38.4401 65.8437 38.2661 66.0297 38.1061C64.9807 36.3691 63.5707 33.5861 64.8007 29.8251C65.1467 28.7661 65.9087 27.8751 66.7647 27.1531Z" fill="#008348"/>
<path fill-rule="evenodd" clip-rule="evenodd" d="M84.938 40.8527C85.95 41.3587 87.082 42.4597 86.636 44.5037C86.456 45.3357 85.761 46.1357 85.698 46.4577C85.589 46.9987 84.45 47.9207 84.088 48.6437C83.729 49.3607 83.673 49.9717 83.778 50.2807C83.779 50.2847 83.781 50.2867 83.782 50.2887C84.359 50.8317 85.661 51.5547 86.383 51.8067C86.949 52.0047 86.909 52.1577 86.672 52.5307C87.071 52.5667 87.275 52.8117 87.65 53.2537C88.046 53.7247 89.095 53.4347 89.746 53.1087C90.397 52.7837 91.228 52.6747 91.88 53.4707C92.53 54.2657 93.507 55.7487 93.976 57.1227C94.447 58.4957 94.953 59.6167 95.098 59.8327C95.242 60.0507 94.591 64.0277 94.409 65.6187C94.229 67.2087 94.084 67.8957 94.048 68.1487C94.012 68.4017 95.061 67.2457 95.098 68.6187C95.125 69.7147 95.637 73.2287 96.229 75.8317C96.379 76.4937 96.534 77.0957 96.688 77.5847C97.123 77.6577 97.482 78.5257 97.736 79.8627C97.989 81.2007 98.531 82.0327 98.568 82.6827C98.604 83.3327 98.785 83.4417 99.001 83.5497C99.218 83.6597 99.146 83.9847 98.496 84.7427C98.64 84.8517 98.857 85.0697 99.001 85.2117C99.183 85.0317 99.688 84.4557 99.688 84.4557C99.688 84.4557 101.677 85.2497 102.111 85.3937C102.545 85.5387 103.061 84.4677 104.352 85.0317C104.706 85.1867 105.097 85.6757 105.375 86.1587C107.399 81.8267 108.534 76.9987 108.534 71.9087C108.534 62.8907 105.021 54.4117 98.644 48.0347C94.752 44.1437 90.079 41.3217 84.978 39.7097C84.963 40.2067 84.938 40.6777 84.938 40.8527Z" fill="white"/>
<path fill-rule="evenodd" clip-rule="evenodd" d="M95.3853 97.722C94.8803 97.469 94.5503 97.836 94.3013 95.843C94.2293 95.265 93.7603 94.504 93.3983 94.144C93.0363 93.782 92.9923 93.105 93.1803 92.516C93.4693 91.612 93.5434 90.782 93.5074 90.059C93.4694 89.335 93.6144 88.432 94.6264 87.996C94.2654 87.6 94.0844 87.093 93.9764 86.696C92.4944 86.207 92.1984 86.165 91.8974 85.448C91.3924 84.244 91.0803 82.486 90.9303 81.528C90.8563 81.055 90.8064 80.618 90.7954 80.224C90.3204 79.326 89.2664 77.331 88.4504 75.832C88.1514 75.27 87.8804 74.782 87.6864 74.439C86.9624 73.174 87.6863 71.511 88.0463 70.535C88.4083 69.559 88.6983 68.691 88.3723 67.715C88.0463 66.739 88.0463 66.521 87.9753 66.124C87.9033 65.726 87.5764 65.22 87.1444 66.595C86.7094 67.968 85.8783 69.993 85.4073 72.09C85.1413 73.281 84.9553 74.577 85.0173 75.832C85.0643 76.788 85.2554 77.718 85.6604 78.561C86.6004 80.513 87.7214 82.321 87.5764 83.406C87.4324 84.49 87.1954 84.528 87.1794 84.707C86.9984 86.804 86.0944 90.818 85.6244 91.974C85.1544 93.13 83.3113 97.324 82.9133 99.096C82.6093 100.453 81.7733 103.359 81.0583 105.082C86.4683 104.059 91.4284 101.743 95.5994 98.465C95.7214 98.161 95.6993 97.879 95.3853 97.722Z" fill="white"/>
<path fill-rule="evenodd" clip-rule="evenodd" d="M55.2056 50.2804C55.6046 50.8004 56.1276 51.2774 56.8096 51.6274C58.5816 52.5304 58.9436 53.1814 58.9436 54.7354C58.9436 56.2894 59.2326 59.4724 59.7396 60.0144C60.0636 59.6894 60.4266 59.2184 60.4976 59.0744C61.0036 60.0144 62.0236 61.7544 63.6426 62.8344C63.7516 62.9074 63.7026 63.3054 63.9686 63.3764C64.5106 63.5214 68.0176 64.0634 68.1266 64.7874C68.8506 64.0634 70.0066 62.2564 70.2236 61.6404C70.4396 61.0274 71.7056 59.0744 72.6456 57.9904C72.6456 57.5554 72.6456 57.3024 72.6826 57.1944C72.4286 57.4114 72.0316 57.9534 71.4526 58.2064C70.8736 58.4594 68.8506 59.3274 67.4036 60.0504C66.8976 60.3034 65.9936 60.5934 65.6316 57.9534C65.2696 55.3144 65.6316 53.9404 65.8846 53.3264C66.1376 52.7114 66.6076 52.1684 67.5126 52.4224C68.4156 52.6754 69.8606 53.2174 70.2596 53.2174C70.3316 52.9284 70.5856 52.3854 69.6096 52.2774C68.9146 52.1994 67.1026 51.6834 66.0766 50.2804C65.6616 49.7184 65.3736 49.0064 65.3426 48.1194C63.2826 48.4454 58.5456 49.0604 57.4976 49.3124C56.4496 49.5664 55.5606 49.7804 55.2206 47.3964C55.0756 46.3844 54.8226 44.9744 55.5456 45.4804C56.1236 45.0464 56.9246 44.5364 58.3286 44.7584C58.5856 44.7984 58.9066 45.0134 59.0076 45.2144C59.0846 45.5654 58.9346 46.1384 58.7626 46.6734C58.4516 47.6424 57.8416 48.3364 59.8116 47.8844C61.8736 47.4114 64.4926 47.0174 65.1796 46.8724C65.2696 46.1684 65.8486 45.0824 66.5356 44.2874C67.2246 43.4884 67.3316 42.8414 67.3676 42.5884C67.4036 42.3354 67.1656 42.2794 66.8256 42.5884C66.4276 42.9494 65.2336 43.6734 64.1126 43.3834C63.6796 43.2724 63.1376 42.4434 62.8486 41.9744C63.0856 41.4774 63.6846 40.6194 64.4226 39.7544C60.5726 40.9884 56.9696 42.9154 53.7666 45.4704C53.7456 45.8714 53.7986 46.8034 54.0626 47.8304C54.2396 48.5194 54.5686 49.4524 55.2056 50.2804Z" fill="white"/>
<path fill-rule="evenodd" clip-rule="evenodd" d="M57.7151 99.674C59.1961 99.096 60.3651 99.123 61.5111 100.651C61.8361 101.084 62.0891 102.351 64.8731 101.229C63.3911 99.458 62.5021 97.359 61.6921 94.54C60.4111 90.091 57.5161 85.031 58.5821 82.719C57.9681 82.139 57.2451 79.899 56.4851 80.152C55.9751 80.322 55.2571 80.332 55.8341 78.633C56.0951 77.869 56.5241 76.944 57.3351 75.832C58.3251 74.477 59.8891 72.846 62.4141 70.896C62.6321 70.715 62.6681 70.572 62.5231 70.426C62.2701 70.174 62.0171 69.885 61.7641 69.74C61.5111 69.595 61.2571 69.667 61.0401 69.885C60.8231 70.102 60.4621 70.355 60.2451 70.499C60.0281 70.643 58.2931 68.944 57.3891 67.715C56.4851 66.486 55.5461 66.089 55.2571 65.944C55.6181 65.546 56.4341 64.683 56.1241 64.787C55.5821 64.967 54.6321 65.088 53.6651 64.063C52.4721 62.799 52.9431 62.147 52.6891 61.967C52.4361 61.786 51.1341 62.075 50.1591 60.557C49.1821 59.038 48.7911 58.377 49.5791 57.302C49.9781 56.76 50.1221 56.507 50.0141 55.82C49.9051 55.133 50.0141 54.7 50.9181 53.832C51.8221 52.965 52.3641 52.169 52.7611 52.241C53.0771 52.299 52.1631 51.15 51.6101 50.28C51.4651 50.048 51.3461 49.839 51.2781 49.674C51.1361 49.324 50.9091 48.722 50.8571 48.074C44.5041 54.447 41.0061 62.909 41.0061 71.909C41.0061 80.926 44.5181 89.405 50.8951 95.782C52.3911 97.278 54.0041 98.614 55.7111 99.786C56.4521 98.982 57.3331 99.293 57.7151 99.674Z" fill="white"/>
<path fill-rule="evenodd" clip-rule="evenodd" d="M38.5027 28.3707C41.4667 29.1297 43.6887 31.5257 44.6627 32.8627C44.9127 33.2037 45.1697 33.1527 45.2777 32.8997C45.5077 32.3627 45.9287 30.6217 45.9287 29.2837C45.9287 26.2477 46.3447 25.0457 47.1047 23.6367C43.5577 23.8307 40.4457 25.6547 38.5027 28.3707Z" fill="#A73832"/>
<path fill-rule="evenodd" clip-rule="evenodd" d="M36.7129 37.673C42.2799 38.179 44.0119 35.069 44.3739 34.598C44.7339 34.129 44.3009 33.839 44.1199 33.586C43.1579 32.238 41.0029 29.854 38.0379 29.095C36.9989 30.809 36.3899 32.813 36.3899 34.965C36.3899 35.899 36.4999 36.805 36.7129 37.673Z" fill="#A73832"/>
<path fill-rule="evenodd" clip-rule="evenodd" d="M58.8034 37.4556C56.4534 36.4786 53.6654 37.3816 51.6774 39.1176C49.6884 40.8526 48.6774 42.1856 47.9904 46.3076C47.9054 46.3096 47.8204 46.3096 47.7364 46.3096C44.7904 46.3096 42.1164 45.1886 40.0984 43.3466C43.4984 42.4786 46.3634 40.9256 49.5794 37.8886C52.7984 34.8516 54.3884 31.3086 54.8224 29.6456C55.2564 27.9826 54.6404 28.9586 54.3164 29.7166C53.8124 30.8916 52.1464 34.0556 48.8574 37.1286C45.5664 40.2026 43.0374 41.7186 39.6044 42.8756C38.4574 41.6986 37.5744 40.2706 37.0244 38.6846C38.1814 38.7566 41.8264 38.3366 43.6504 36.8396C46.0494 34.8726 46.3264 32.5376 46.6514 29.2106C46.9764 25.8856 47.4654 24.8956 48.2604 23.6306C54.2824 23.9046 59.0814 28.8736 59.0814 34.9646C59.0814 35.8206 58.9834 36.6536 58.8034 37.4556Z" fill="#A73832"/>
<path fill-rule="evenodd" clip-rule="evenodd" d="M58.4895 38.5931C57.9465 37.8341 56.0135 37.4691 52.9425 39.3881C52.6535 39.5701 52.4535 39.6961 52.7985 40.0391C53.4485 40.6911 54.4265 41.9221 55.1135 43.5851C56.6485 42.2691 57.8285 40.5511 58.4895 38.5931Z" fill="#A73832"/>
<path fill-rule="evenodd" clip-rule="evenodd" d="M54.2067 44.2863C53.5567 42.6953 53.0147 41.5393 52.4007 40.7443C52.0687 40.3153 52.0027 40.1303 51.3877 40.6723C49.6787 42.1803 49.0197 44.4663 48.6577 46.2733C50.7097 46.1083 52.6087 45.3983 54.2067 44.2863Z" fill="#A73832"/>
<path fill-rule="evenodd" clip-rule="evenodd" d="M51.0989 56.9777C50.6289 56.8327 50.2669 57.3737 50.0499 57.8087C49.8329 58.2437 49.5789 58.7127 50.2669 59.6887C50.9539 60.6657 51.3809 61.2467 52.5809 61.1707C53.1599 61.1347 53.6649 60.7007 53.8459 60.4487C54.0269 60.1947 54.0629 60.6287 53.7739 61.0627C53.4849 61.4957 53.2679 62.5087 53.8099 63.1957C54.3529 63.8827 55.4729 64.4607 56.9549 63.5937C58.4369 62.7267 59.0529 61.6777 59.3049 61.2067C59.5579 60.7377 59.5579 60.5207 59.3049 60.2317C59.0529 59.9417 58.2209 58.5657 58.0399 55.8567C57.9319 54.2287 58.2209 53.1817 57.2079 52.6027C56.1959 52.0237 53.8799 50.6557 53.5929 47.9747C53.4849 46.9627 53.5569 45.4087 52.5449 46.2397C51.5319 47.0717 51.5319 47.6497 51.4239 48.2637C51.3149 48.8797 51.8219 49.7097 52.2559 50.2887C52.6889 50.8677 53.1949 52.1327 53.5929 52.4577C53.9909 52.7837 54.2439 53.0367 54.5699 53.0727C54.8939 53.1087 56.1959 53.1087 56.5209 53.2177C56.8469 53.3267 57.0279 53.7247 56.2319 53.7247C55.4369 53.7247 54.2079 53.9397 53.6649 54.0127C53.1239 54.0847 52.6179 54.1207 52.3639 55.2057C52.1109 56.2897 51.7489 57.5557 51.7129 57.9537C51.6769 58.3507 51.4599 58.5677 51.4599 58.7847C51.4599 59.0017 51.8939 60.0507 52.8699 59.0017C53.8459 57.9537 54.2439 56.9057 54.4249 56.3987C54.6049 55.8927 54.8229 55.9647 54.6409 56.7607C54.4609 57.5557 54.4069 59.5447 54.7859 60.2317C55.1949 60.9697 56.0189 61.7297 57.0639 61.2067C57.2809 61.0987 57.6419 60.9177 57.9319 60.9537C58.2209 60.9897 57.8769 61.4957 57.6239 61.7137C57.3709 61.9307 56.5399 62.8507 55.0759 61.5327C54.7129 61.2067 54.2119 60.4837 54.0989 59.5807C54.0629 59.2907 53.6649 59.1827 53.4849 59.4357C53.3039 59.6887 52.3279 60.5927 51.6409 59.9417C50.9539 59.2907 50.6689 58.9307 51.0629 57.5557C51.1339 57.3027 51.2749 57.0317 51.0989 56.9777Z" fill="#FAB383"/>
<path fill-rule="evenodd" clip-rule="evenodd" d="M51.8218 54.9523C51.6658 55.4193 51.5318 56.0363 51.4598 56.2543C51.3868 56.4713 51.0628 56.9413 50.7728 56.3273C50.4848 55.7123 50.4988 55.2273 50.9538 54.7723C51.0988 54.6273 51.3148 54.3383 51.4598 54.4823C51.6048 54.6273 51.8578 54.8443 51.8218 54.9523Z" fill="#FAB383"/>
<path fill-rule="evenodd" clip-rule="evenodd" d="M53.4484 53.2896C53.1504 53.4386 52.5144 53.4377 52.2914 53.9397C52.1464 54.2657 51.5684 53.9056 51.8574 53.5066C52.1464 53.1086 52.3644 53.1447 52.5444 53.0367C52.7254 52.9287 52.7984 52.6026 53.1594 52.7836C53.5204 52.9646 53.5924 53.2176 53.4484 53.2896Z" fill="#FAB383"/>
<path fill-rule="evenodd" clip-rule="evenodd" d="M77.2732 35.3938C76.2612 35.5018 75.3212 36.1178 74.3812 36.7678C73.4402 37.4178 70.0432 40.2748 69.2472 40.8528C70.0782 41.2868 70.2952 42.1548 70.0062 43.6008C69.9412 43.9218 70.0062 44.0348 70.2242 43.8178C70.4402 43.6008 71.4522 42.5168 71.4172 41.6488C71.3802 40.7808 70.9832 40.2748 70.9102 40.1658C70.8382 40.0578 71.2002 39.6238 71.5982 40.5278C71.9952 41.4318 71.8862 42.6968 70.6942 44.1068C69.5012 45.5168 68.5602 45.4798 68.0542 45.7338C67.5482 45.9868 67.0432 46.3838 67.5132 47.1438C67.9822 47.9038 68.8862 47.6138 69.2472 47.3608C69.6092 47.1068 70.1152 46.8178 71.2722 46.9268C72.4282 47.0348 72.8142 46.2998 72.0312 45.5168C71.7782 45.2638 71.1272 44.6848 71.9222 44.6848C72.3932 44.6848 72.9712 45.7338 73.2962 46.0228C73.6222 46.3118 74.3452 46.4198 75.3212 46.4928C76.2972 46.5648 77.8162 46.9258 77.8162 47.8668C77.8162 48.4448 77.5042 48.6138 77.0922 48.1568C76.9302 47.9748 76.6982 48.2608 76.5142 48.4448C75.8992 49.0608 74.3262 50.7228 73.2062 51.0118C72.0862 51.3008 71.6692 50.9758 70.1872 50.1808C68.7052 49.3858 67.3312 48.5898 66.9342 48.3368C66.5362 48.0838 65.7042 47.5048 66.1022 48.6628C66.5002 49.8188 67.4762 51.0118 69.4282 51.6638C71.3802 52.3128 71.6692 52.5308 72.1032 52.7478C72.5372 52.9648 72.2852 53.1818 71.7062 53.1088C71.2032 53.0468 70.6572 52.6028 71.0922 53.5798C71.5242 54.5558 72.1762 55.6028 74.1652 55.3508C76.1522 55.0978 76.2112 54.6768 77.4542 52.6028C77.6702 52.2408 77.8892 52.4948 77.7442 53.4348C78.7192 52.9648 79.2612 52.8198 79.8392 52.6748C80.4192 52.5308 81.9222 52.0198 82.9142 50.1808C83.4192 49.2408 83.6922 48.9178 83.6002 47.9398C83.5652 47.5748 84.1062 46.8548 84.6492 46.3478C85.1912 45.8428 86.6722 43.9258 85.9152 42.5518C85.1542 41.1778 83.8892 41.8658 83.2752 42.8778C82.6602 43.8908 81.9732 45.0108 81.9372 46.7458C81.5032 46.6018 81.0602 46.7608 80.8532 47.1068C80.7442 47.2888 79.1532 47.0718 78.6102 47.2158C78.0692 47.3608 77.8892 47.0348 78.4662 46.2758C79.0452 45.5168 81.0822 42.7658 80.9612 40.7078C80.9252 40.0938 81.0072 39.9798 81.1052 39.5158C81.2322 38.9188 81.2882 38.9098 80.5452 38.5028C80.0622 38.2388 80.0332 37.4858 79.9492 36.9118C79.8582 36.2978 79.7412 36.2948 79.0452 36.4418C78.5302 36.5508 77.6702 36.0438 77.2732 35.3938Z" fill="#FAB383"/>
<path fill-rule="evenodd" clip-rule="evenodd" d="M73.0435 46.7097C72.8455 47.1617 72.2985 47.5947 71.0365 47.4507C70.4045 47.3787 69.7865 47.3707 69.6815 47.8667C69.6095 48.2107 69.3215 48.1907 68.9225 48.1747C68.5055 48.1567 68.0545 48.0477 68.0355 48.1927C68.0175 48.3367 69.8085 49.4027 70.4045 49.6737C71.0015 49.9457 71.8705 50.5917 72.5735 50.5237C73.5135 50.4337 74.3325 49.9687 75.7195 48.4987C76.2915 47.8937 76.7495 47.5777 76.2075 47.3237C75.8385 47.1527 75.4655 47.1067 74.9785 47.1067C74.4895 47.1067 73.4405 47.0347 73.0435 46.7097Z" fill="#FAB383"/>
<path fill-rule="evenodd" clip-rule="evenodd" d="M66.3003 46.7281C65.8123 46.7091 65.7583 46.3481 66.0833 45.8061C66.4083 45.2631 66.7173 44.7581 67.1503 44.4321C67.2223 44.6671 67.3673 44.9561 67.5843 45.0821C67.2953 45.3901 66.9133 45.7751 66.9853 46.5351L66.3003 46.7281Z" fill="#FAB383"/>
<path fill-rule="evenodd" clip-rule="evenodd" d="M77.3063 44.4827C76.6853 44.4827 75.7632 44.2807 75.1032 43.8297C74.4352 43.3737 74.2122 43.1537 74.3302 42.4787C74.4022 42.0617 74.4393 41.8367 74.4653 41.6827C74.4833 41.5707 74.4962 41.4967 74.5112 41.4127C74.5672 41.0947 74.5492 40.8857 74.4542 40.7737C74.4042 40.7127 74.3322 40.6817 74.2482 40.6817C74.1102 40.6817 73.9272 40.7697 73.6922 40.9497C73.3102 40.6637 72.9492 40.3427 72.6812 40.1057C72.4732 39.9207 72.3233 39.7877 72.2293 39.7257C72.1543 39.6757 72.0632 39.5957 72.0532 39.4977C72.0452 39.4227 72.0852 39.3427 72.1702 39.2567C72.2222 39.2047 72.2903 39.1937 72.3823 39.1937L72.4243 39.1947H72.4672C72.5322 39.1947 72.6532 39.1947 72.7322 39.1027C72.8102 39.0137 72.8292 38.8637 72.7942 38.6167C72.7952 38.6027 72.8222 38.5757 72.9852 38.5757C73.0292 38.5757 73.0752 38.5767 73.1192 38.5787C73.1672 38.5807 73.2122 38.5827 73.2522 38.5827C73.3462 38.5827 73.4042 38.5727 73.4472 38.5517C73.5282 38.5117 73.5492 38.4327 73.5632 38.3757C73.5842 38.2957 73.5932 38.2627 73.7172 38.2627C73.7872 38.2627 73.8812 38.2777 73.9962 38.3067C74.0162 38.3117 74.0363 38.3147 74.0563 38.3147C74.1743 38.3147 74.2312 38.2217 74.2722 38.1537L74.2942 38.1197C74.3402 38.0487 74.3842 38.0107 74.4852 38.0107C74.5092 38.0107 74.5352 38.0127 74.5642 38.0177C74.6622 38.0337 74.7493 38.0557 74.8263 38.0737C74.9313 38.0997 75.0212 38.1217 75.1012 38.1217C75.3142 38.1217 75.3812 37.9617 75.4122 37.8397C75.4772 37.5957 75.5272 37.5217 75.6262 37.5217C75.7132 37.5217 75.8432 37.5747 76.0122 37.6797C76.1602 37.7717 76.2853 37.8157 76.3953 37.8157C76.5613 37.8157 76.6792 37.7117 76.7162 37.5277C76.7172 37.5237 76.7202 37.5117 76.7662 37.5117C76.8732 37.5117 77.0642 37.5837 77.2612 37.6997L77.3592 37.7547C77.6982 37.9477 78.4032 38.3487 79.2072 39.2877C79.3912 39.5017 79.4443 39.6657 79.4303 39.7027C79.4273 39.7017 79.4222 39.7017 79.4182 39.7017C79.4042 39.7017 79.3863 39.7047 79.3683 39.7077C79.2453 39.7267 79.0612 39.7547 79.0232 40.0637C79.0012 40.2337 78.9482 40.3337 78.9222 40.3497C78.9222 40.3447 78.8962 40.3247 78.8582 40.2497C78.8092 40.1527 78.7442 40.0537 78.6342 40.0537C78.6122 40.0537 78.5922 40.0577 78.5782 40.0617C78.5712 40.0477 78.5562 40.0227 78.5372 39.9707C78.5202 39.9227 78.4662 39.7777 78.3312 39.7777C78.2672 39.7777 78.2142 39.8147 78.1762 39.8407C78.1692 39.8447 78.1612 39.8507 78.1552 39.8557C78.1342 39.8017 78.0772 39.6687 77.9482 39.6687C77.9142 39.6687 77.8862 39.6767 77.8642 39.6837C77.8552 39.6867 77.8442 39.6897 77.8372 39.6907C77.8372 39.6877 77.8273 39.6747 77.8123 39.6407C77.7873 39.5827 77.7342 39.5497 77.6642 39.5497C77.6142 39.5497 77.5592 39.5667 77.5012 39.5847C77.4392 39.6037 77.3872 39.6187 77.3492 39.6187C77.3172 39.6187 77.3092 39.6097 77.3022 39.5967C77.2522 39.5047 77.1783 39.4907 77.1383 39.4907C77.0743 39.4907 77.0153 39.5227 76.9583 39.5527C76.9133 39.5757 76.8632 39.6037 76.8282 39.6037C76.8192 39.6037 76.7993 39.6037 76.7713 39.5657C76.7513 39.5407 76.6922 39.4637 76.6052 39.4637C76.5192 39.4637 76.4672 39.5337 76.4252 39.5897L76.4082 39.6137C76.3662 39.6687 76.3373 39.6897 76.3053 39.6897C76.2913 39.6897 76.2762 39.6857 76.2592 39.6787C76.2112 39.6617 76.1703 39.6537 76.1323 39.6537C76.0073 39.6537 75.9512 39.7447 75.9202 39.7937C75.8902 39.8417 75.8852 39.8437 75.8742 39.8437C75.8662 39.8437 75.8462 39.8417 75.8102 39.8267C75.7662 39.8067 75.7252 39.7967 75.6862 39.7967C75.5412 39.7967 75.4802 39.9227 75.4402 40.0057C75.3982 40.0917 75.3802 40.1147 75.3532 40.1147C75.3462 40.1147 75.3373 40.1137 75.3273 40.1107C75.2673 40.0947 75.2213 40.0877 75.1803 40.0877C74.9753 40.0877 74.9482 40.2607 74.9182 40.4447C74.9132 40.4767 74.9082 40.5097 74.9012 40.5457C74.8502 40.8387 74.7192 42.0487 74.7392 42.3597C74.7572 42.6497 75.1353 42.6497 75.2783 42.6497C75.5463 42.6497 75.9122 42.6007 76.3662 42.5377C77.2562 42.4137 78.8932 41.9197 79.7382 41.2147C79.9542 41.0347 80.1222 41.0147 80.1842 41.0147C80.2372 41.0147 80.2622 41.0277 80.2672 41.0327C80.2742 41.0757 80.1722 41.3057 79.9592 41.4847C79.9392 41.5037 79.9143 41.5237 79.8883 41.5477C79.6243 41.7797 79.0072 42.3247 77.7612 42.5667C76.5692 42.7987 75.4682 43.0077 75.0982 43.0077C75.0502 43.0077 75.0262 43.0037 75.0162 43.0017C74.9942 42.9967 74.9752 42.9937 74.9562 42.9937C74.8952 42.9937 74.8472 43.0247 74.8282 43.0757C74.8042 43.1427 74.8413 43.2217 74.9313 43.2977C75.0503 43.3977 75.2172 43.4567 75.3772 43.4567C75.4262 43.4567 75.4743 43.4517 75.5213 43.4407C75.5633 43.4417 75.6942 43.5637 75.7892 43.6527C76.0462 43.8937 76.4352 44.2567 76.9482 44.2567C77.5932 44.2567 78.5262 43.5627 78.7952 43.3507C78.9192 43.2537 79.2022 43.1087 79.3642 43.0627C79.3372 43.0967 79.2962 43.1437 79.2312 43.2087L79.1842 43.2557C78.5902 43.8507 77.9762 44.4657 77.3792 44.4817C77.3552 44.4827 77.3313 44.4827 77.3063 44.4827Z" fill="#061922"/>
<path fill-rule="evenodd" clip-rule="evenodd" d="M84.9381 43.6731C84.5191 43.9691 84.2871 44.0711 84.2511 44.5761C84.2151 45.0821 84.1151 45.9461 83.9251 46.0231C83.6791 46.1231 83.7131 45.5541 83.6371 45.7341C83.5281 45.9871 83.2201 45.8781 83.1311 45.6441C83.0901 45.5421 82.1911 45.5521 82.9141 44.5041C83.5681 43.5551 84.0701 43.0581 84.5401 42.8411C85.0101 42.6241 85.8061 43.0581 84.9381 43.6731Z" fill="#061922"/>
<path fill-rule="evenodd" clip-rule="evenodd" d="M102.634 86.6418C102.467 86.2168 102.761 85.5018 103.665 86.0078C104.57 86.5148 105.256 86.9498 104.606 88.9368C103.953 90.9248 103.485 92.0818 103.231 92.9138C102.979 93.7458 102.002 94.7938 102.327 93.3838C102.654 91.9738 102.825 90.2698 102.688 89.4068C102.437 87.8168 102.947 87.9108 102.78 87.1838C102.728 86.9598 102.696 86.7938 102.634 86.6418Z" fill="#FAB383"/>
<path fill-rule="evenodd" clip-rule="evenodd" d="M106.052 88.3586C106.312 89.1396 106.594 90.9246 106.16 91.6476C105.726 92.3716 104.388 94.3596 103.883 94.8666C103.376 95.3726 102.979 95.1556 103.303 94.6126C103.629 94.0706 104.063 93.3476 104.063 93.0946C104.063 92.8416 104.028 92.5526 104.461 91.7206C104.894 90.8896 105.654 88.1046 105.726 87.8886C105.798 87.6716 105.979 88.1416 106.052 88.3586Z" fill="#FAB383"/>
<path fill-rule="evenodd" clip-rule="evenodd" d="M96.7232 95.0472C96.5072 94.3972 96.3982 93.4562 96.0372 92.9142C96.3262 92.1182 97.2792 89.9812 98.8932 89.3352C99.0732 89.2622 99.1832 89.0812 99.1102 88.9372C99.0362 88.7922 99.3272 88.6852 99.4712 89.1912C99.6172 89.6952 99.8692 91.1422 99.8692 91.1422C99.9412 91.4682 99.7972 91.7212 99.7252 92.1552C99.6522 92.5892 99.4712 93.5652 99.5802 94.0702C99.6882 94.5762 99.8692 94.9392 100.88 94.7222C101.388 94.6122 101.352 94.4692 101.495 94.0342C101.64 93.6012 102.038 92.3712 102.183 91.6842C102.327 90.9972 102.202 89.3172 102.057 88.8832C101.911 88.4492 102.111 86.9842 102.002 86.6952C101.894 86.4062 101.821 85.9742 100.918 85.6842C100.014 85.3942 99.7612 85.3212 99.1462 85.9362C98.5312 86.5522 98.3162 86.8042 98.0262 87.0932C97.7362 87.3822 97.0132 87.1282 97.6272 86.5522C98.2432 85.9742 98.8222 85.3942 99.0002 85.2122L98.8222 84.7422H98.4952C97.5182 85.7202 96.2172 86.2982 95.3492 86.4782C95.0232 86.5462 94.4092 86.5862 94.8432 87.1652C94.9522 87.3112 94.9882 87.7082 95.2422 87.5642C95.4942 87.4182 95.8912 86.7682 96.2532 87.0572C96.6162 87.3452 96.1822 88.0342 95.7472 88.3592C95.3152 88.6852 94.8432 89.0092 94.5192 89.1912C94.1932 89.3712 94.0122 89.5512 94.0482 90.1302C94.0842 90.7082 94.1202 91.7582 93.7942 92.5532C93.4692 93.3482 93.6512 93.5652 93.9392 94.1072C94.2292 94.6502 94.6992 95.1192 94.8432 95.9872C94.9882 96.8542 95.0612 97.0712 95.6392 96.9992C96.2172 96.9272 96.4352 96.6732 96.6522 96.3122L96.7232 95.0472Z" fill="#FAB383"/>
<path fill-rule="evenodd" clip-rule="evenodd" d="M96.9402 96.7092C96.6882 97.1442 96.2532 97.8302 96.2532 98.4452C96.2532 99.0602 95.6392 99.7112 95.7112 100C95.7842 100.288 96.5802 101.048 97.0492 101.844C97.5182 102.639 98.1322 103.831 98.1322 105.82C98.1322 107.81 97.4822 110.52 97.4112 110.882C97.3372 111.243 97.1582 111.533 97.7002 112.039C98.2432 112.546 99.1102 113.485 99.4362 115.617C99.7612 117.751 99.9782 118.872 100.123 118.98C100.268 119.089 100.231 119.269 100.231 119.667C100.231 120.064 100.591 122.343 100.846 122.776C101.098 123.211 101.062 120.318 101.025 119.486C100.989 118.655 101.062 114.679 101.207 114.101C101.352 113.521 101.496 112.87 100.989 112.147C100.485 111.424 99.6172 110.158 100.268 108.063C100.919 105.964 101.966 106.002 101.64 105.17C101.315 104.338 100.737 103.76 100.304 103.291C99.8702 102.82 100.214 101.7 100.195 101.229C100.159 100.36 99.4712 100.217 99.3992 99.2402C99.3272 98.2642 99.2542 97.4692 99.9782 96.4932C100.701 95.5182 99.7252 95.5532 99.3992 94.9382C99.0732 94.3242 98.9002 93.5022 99.1832 92.2272C99.3272 91.5752 99.2542 91.3962 99.0732 91.3232C98.8932 91.2512 98.1322 91.1062 98.1322 91.1062L97.0132 93.3482C97.1952 93.7812 97.2662 94.4332 97.2662 94.8662L96.9402 96.7092Z" fill="#A73832"/>
<path fill-rule="evenodd" clip-rule="evenodd" d="M86.4929 52.7116C85.6019 53.8986 84.2159 56.9056 83.5639 58.7846C82.9139 60.6656 81.4309 65.1486 82.4809 68.1126C83.5279 71.0766 85.5899 69.1976 86.0579 68.0766C86.5289 66.9566 87.2529 65.0396 87.4699 64.5336C87.6859 64.0276 87.7949 63.7376 88.1919 64.9306C88.5899 66.1246 89.1679 68.9806 89.1679 69.2336C89.1679 69.4866 88.7689 70.2106 88.3369 71.3306C87.9029 72.4506 87.6499 73.2466 88.0829 73.9346C88.5169 74.6206 90.2169 77.5486 90.7589 78.8146C91.0839 79.5736 91.3729 79.7176 92.2409 79.5006C93.1089 79.2846 95.2059 78.5606 95.8199 78.2716C96.4349 77.9826 96.1449 77.4756 95.9639 76.8626C95.6899 75.9266 94.5919 70.7146 94.5919 70.0286C94.5919 69.3416 94.7749 68.4416 93.8669 69.4506C93.5439 69.8126 93.1089 69.4506 93.2169 68.9436C93.3259 68.4376 94.4089 61.3876 94.4829 60.5206C93.8669 59.1826 92.0599 54.9526 91.5549 54.1936C91.0479 53.4346 90.8679 53.3986 90.1079 53.7966C89.3489 54.1936 87.6529 54.8036 87.0349 53.3626C86.9269 53.1086 86.7469 52.5306 87.1799 52.4586L86.8539 52.3496C86.8539 52.3496 86.5999 52.5666 86.4929 52.7116Z" fill="white"/>
<path fill-rule="evenodd" clip-rule="evenodd" d="M95.9636 78.7052C95.2916 79.0912 93.0006 80.0782 92.0606 80.2242C91.0956 80.3732 91.3376 80.6222 91.5186 81.3462C91.6976 82.0672 92.2406 84.2362 92.5296 84.9962C92.8196 85.7562 93.2166 85.7422 93.9766 85.7202C95.1336 85.6842 97.0856 85.1772 98.4956 83.8752C98.0966 83.4052 97.4006 81.1522 97.1946 80.1872C96.9766 79.1762 96.9766 78.1272 95.9636 78.7052Z" fill="white"/>
<path fill-rule="evenodd" clip-rule="evenodd" d="M75.2476 57.845C75.1756 57.991 74.9226 58.424 74.3456 58.424C73.7676 58.424 73.2966 58.243 72.9346 58.749C72.5736 59.255 70.5856 61.678 70.1506 63.159C70.5856 64.063 71.1646 65.69 71.5976 66.847C73.0076 65.655 77.5086 61.262 78.3576 60.412C78.6846 60.087 78.7196 59.798 78.2496 59.473C77.7796 59.146 76.0436 58.062 75.7546 57.882C75.4656 57.7 75.3206 57.7 75.2476 57.845Z" fill="white"/>
<path fill-rule="evenodd" clip-rule="evenodd" d="M63.8605 64.2082C63.5825 65.3222 63.0295 67.2812 62.1255 68.8002C62.4865 69.3782 62.7755 69.8852 63.2095 70.0652C64.2215 69.3422 66.1375 67.5692 66.6795 66.9192C67.2225 66.2692 67.9095 65.2922 67.9095 65.0762C67.9095 64.8582 67.6565 64.7872 67.3315 64.8582C67.0055 64.9312 65.6675 64.3962 64.3665 64.1362C64.0055 64.0632 63.8965 64.0632 63.8605 64.2082Z" fill="white"/>
<path fill-rule="evenodd" clip-rule="evenodd" d="M63.066 63.1237C62.668 63.0447 61.294 61.5687 60.823 60.7737C60.354 59.9777 60.28 60.0507 60.101 60.6287C59.92 61.2067 59.233 62.4727 58.763 63.0877C58.293 63.7017 57.064 65.2927 56.738 65.6547C56.412 66.0157 56.738 66.1607 57.028 66.4497C57.317 66.7387 58.799 68.5457 59.124 68.9437C59.45 69.3417 59.812 70.0657 60.678 69.2697C61.547 68.4737 62.595 67.0277 63.066 65.5457C63.535 64.0627 63.57 63.2857 63.968 63.3757L63.986 63.0686L63.878 62.8886L63.661 62.7076C63.715 62.8336 63.715 62.9427 63.626 63.0877C63.535 63.2317 63.246 63.1587 63.066 63.1237Z" fill="white"/>
<path fill-rule="evenodd" clip-rule="evenodd" d="M85.1912 29.8629C84.2172 31.0129 82.2612 32.0309 78.9732 32.8629C75.6832 33.6949 72.5372 36.0089 71.2002 37.1289C69.8612 38.2499 66.4902 41.0099 64.8732 41.6839C64.4402 41.8649 63.5172 42.4779 64.6922 42.6239C65.5602 42.7329 66.1742 42.2269 68.0542 40.8529C69.9352 39.4789 71.3942 38.4879 72.8272 37.0929C74.1652 35.7909 76.5872 34.5619 79.1892 33.8389C81.7932 33.1149 85.2122 31.9789 86.2032 30.9099C86.6722 30.4049 86.7102 30.1509 86.2762 29.7169C85.8422 29.2839 85.5892 29.3929 85.1912 29.8629Z" fill="white"/>
<path fill-rule="evenodd" clip-rule="evenodd" d="M68.5963 41.2326C68.3133 41.3886 68.1993 41.5576 67.8723 42.6066C67.5483 43.6546 67.5843 44.2686 67.8553 44.5226C68.0523 44.7056 68.3423 44.7216 68.4883 44.7216C68.5963 44.7216 68.7053 44.7586 68.6883 44.4506C68.6683 44.1436 68.6483 42.8326 69.6273 42.2456C69.8083 42.1366 69.6033 41.3786 68.9583 41.4856C68.7413 41.5226 68.9583 41.0336 68.5963 41.2326Z" fill="white"/>
<path fill-rule="evenodd" clip-rule="evenodd" d="M57.4249 45.3723C57.9319 45.3723 58.2569 45.3723 58.2209 45.9503C58.1849 46.5293 57.9319 47.3243 57.8959 47.8673C57.8589 48.4093 57.8589 48.6253 58.1849 48.6253C58.5089 48.6253 57.7149 48.9513 57.2799 49.0243C56.8469 49.0963 56.1789 49.3453 55.8339 47.5053C55.7259 46.9263 55.7619 46.0233 55.6899 45.8063C56.1599 45.5893 56.8059 45.3723 57.4249 45.3723Z" fill="white"/>
<path fill-rule="evenodd" clip-rule="evenodd" d="M67.0352 46.9163C67.1692 47.6453 67.3682 47.6313 67.2222 47.7403C67.0772 47.8493 66.9262 47.4643 66.3362 47.5603C65.7762 47.6503 61.2212 48.3553 60.8962 48.3923C59.8842 48.4993 59.8292 48.3363 60.7692 48.1383C61.7092 47.9393 65.1482 47.3123 66.1742 47.1063L67.0352 46.9163Z" fill="white"/>
<path fill-rule="evenodd" clip-rule="evenodd" d="M61.5471 102.205C62.0171 102.494 63.1371 102.82 65.0541 102.024C66.9701 101.228 69.1031 101.77 69.4281 103.144C69.7541 104.519 69.7651 106.29 69.1751 107.05C68.6691 107.7 68.1991 107.628 67.6211 107.448C66.5731 107.119 64.1501 106.002 63.4631 105.676C62.7761 105.35 61.6191 104.989 60.7871 104.989C60.4621 104.302 60.4981 103.108 60.7151 102.675C60.9321 102.241 60.9321 101.807 61.1121 101.916C61.2941 102.024 61.5471 102.205 61.5471 102.205Z" fill="white"/>
<path fill-rule="evenodd" clip-rule="evenodd" d="M69.1394 108.604C69.6094 108.604 70.4604 108.802 70.7294 109.654C70.9454 110.34 72.3564 110.52 72.9714 110.484C73.5854 110.45 73.4774 110.774 73.4404 111.136C73.4054 111.497 73.2964 112.583 73.2964 113.016C73.2964 113.45 73.4054 114.967 73.4774 115.257C73.5494 115.546 73.2964 115.691 72.9714 115.835C72.6464 115.98 71.4524 116.341 70.6944 115.799C70.2944 115.514 69.8254 115.113 70.2954 115.076C70.7654 115.041 69.7184 110.955 69.4284 110.232C69.1394 109.508 68.3064 108.604 69.1394 108.604Z" fill="white"/>
<path fill-rule="evenodd" clip-rule="evenodd" d="M56.7019 100.072C56.8969 100.136 56.9919 100.326 57.1359 100.578C57.2809 100.831 57.3299 101.05 57.0999 101.301C56.7019 101.735 56.2319 103.723 56.3049 105.134C56.0519 105.061 55.5099 104.953 55.2209 105.025C55.1119 104.229 55.1839 101.735 55.5459 100.939C55.9079 100.145 56.2679 99.9274 56.7019 100.072Z" fill="white"/>
<path fill-rule="evenodd" clip-rule="evenodd" d="M56.774 122.125C57.675 123.139 59.377 124.693 60.642 125.235C61.908 125.777 62.74 125.958 63.86 125.85C64.767 125.762 64.583 126.139 63.86 126.248C63.137 126.356 61.474 126.356 60.391 125.777C59.305 125.198 57.585 124.129 56.485 122.56C56.232 122.197 56.485 121.801 56.774 122.125Z" fill="white"/>
<path fill-rule="evenodd" clip-rule="evenodd" d="M75.6094 119.595C74.8754 119.929 73.5134 120.608 72.2124 120.933C72.3564 121.584 72.3934 121.873 72.3934 122.053C73.1874 122.053 74.7204 121.498 75.9714 120.716C76.2614 120.534 76.3694 120.319 76.2614 120.065C76.1514 119.812 76.0074 119.414 75.6094 119.595Z" fill="white"/>
<path fill-rule="evenodd" clip-rule="evenodd" d="M67.0425 116.63C66.8615 116.45 67.8905 116.234 68.1075 116.234C68.3615 116.396 68.8225 116.803 68.9945 116.975C69.1035 117.082 69.0495 117.154 68.9395 117.228C68.8325 117.299 68.1995 117.463 67.9095 117.481C67.5845 117.192 67.1325 116.721 67.0425 116.63Z" fill="white"/>
<path fill-rule="evenodd" clip-rule="evenodd" d="M68.9587 101.591C68.6687 101.373 68.7057 101.266 68.8507 101.048C68.9947 100.831 69.1397 100.687 69.2837 100.614C69.4277 100.542 69.6457 100.506 69.8977 100.867C70.1507 101.229 71.5247 103.508 71.8137 104.121C72.1037 104.736 72.4657 104.338 72.3207 103.977C72.1767 103.615 71.8867 103.001 71.7777 102.82C72.1767 101.591 72.5737 99.711 72.5737 98.482C72.5737 97.251 72.2847 96.024 72.0667 95.589C73.0437 95.625 75.1757 95.589 76.0077 95.336C76.8407 95.082 76.1517 95.011 75.8267 95.047C75.5017 95.082 73.1637 95.074 71.4527 94.866C68.4887 94.504 65.5767 92.837 64.6567 91.684C64.5107 91.504 63.6427 91.575 64.3667 92.155C65.0907 92.733 66.9347 94.46 69.6457 94.939C70.2597 95.047 71.2347 95.227 71.3807 97.469C71.5247 99.711 71.3087 101.156 71.3087 101.373C71.3087 101.591 71.1647 101.663 70.9827 101.409C70.8017 101.156 70.1877 100.326 69.8607 100.146C69.5367 99.964 69.3207 100 69.0307 100.217C68.7417 100.434 68.3067 100.867 68.1267 101.084L68.9587 101.591Z" fill="white"/>
<path fill-rule="evenodd" clip-rule="evenodd" d="M63.1374 108.658C62.8664 108.658 61.2394 108.785 60.8964 108.658C60.5524 108.532 60.3304 108.137 60.5714 107.971C60.8594 107.772 61.4204 108.026 61.9804 108.026C62.5414 108.026 63.1374 107.882 63.2824 107.971C63.4264 108.062 63.6264 108.026 63.6264 108.713L63.1374 108.658Z" fill="white"/>
<path fill-rule="evenodd" clip-rule="evenodd" d="M59.1964 118.582C58.7264 118.294 58.1824 116.954 58.0754 114.28C58.0404 113.376 58.4024 111.857 58.6904 111.136C58.9794 110.412 58.5094 110.701 58.4024 110.954C58.2924 111.207 57.9314 112.22 57.8224 112.978C57.7154 113.738 57.5334 114.858 57.8224 116.485C58.1124 118.112 58.2574 118.618 58.3284 118.908L59.1964 118.582Z" fill="white"/>
<path fill-rule="evenodd" clip-rule="evenodd" d="M75.7364 32.2482C76.2254 32.3022 76.7674 32.2662 76.8944 31.9232C77.0204 31.5802 76.9114 31.3622 76.7494 31.2902C76.5864 31.2182 76.5144 31.2362 76.5864 30.9102C76.6584 30.5852 76.8944 30.6222 76.8764 30.1152C76.8574 29.6092 76.4784 29.5912 76.1344 29.7012C75.7914 29.8082 75.6644 29.9702 75.3384 30.4042C75.0144 30.8382 75.1584 30.1152 75.2124 29.9882C75.2634 29.8712 75.3934 29.0382 74.9474 28.8882C74.6964 29.0142 74.4484 29.1392 74.2104 29.2622C74.1324 29.4212 74.0714 29.6072 74.0014 29.7902C73.8204 30.2602 73.6004 29.9072 73.4404 29.6812C73.4404 29.6802 73.4384 29.6792 73.4374 29.6782C72.9554 29.9452 72.5334 30.1952 72.2124 30.4042C72.1774 30.4272 72.1394 30.4532 72.1044 30.4762C72.1474 30.7612 72.4904 31.1222 72.6824 31.2542C72.9174 31.4172 72.7714 31.7242 72.4834 31.7242C72.1934 31.7242 71.8324 31.5262 71.4704 31.9582C71.1084 32.3932 71.3434 32.8092 71.6884 32.8092C72.0314 32.8092 72.3204 32.9352 72.4474 33.3322C72.5734 33.7302 72.6824 33.8942 73.1524 33.9472C73.6214 34.0012 73.8924 33.6402 74.0194 33.4232C74.1464 33.2062 74.3094 32.8992 74.5074 32.9722C74.8024 33.0792 74.7654 33.3892 74.6754 33.7192C75.0154 33.5192 75.3624 33.3312 75.7324 33.1512C75.6734 32.8452 75.4914 32.5632 75.3574 32.4292C75.1944 32.2662 75.2474 32.1942 75.7364 32.2482Z" fill="#008348"/>
<path fill-rule="evenodd" clip-rule="evenodd" d="M79.7682 27.0061C79.6012 27.0451 79.4232 27.0921 79.2452 27.1431C79.3312 27.5561 79.4982 28.0871 79.4072 28.1631C79.2982 28.2531 78.8822 28.3261 78.5572 28.4151C78.2322 28.5061 77.4542 29.2301 77.8522 29.7531C78.2492 30.2781 78.3762 30.5851 78.4492 30.8571C78.5202 31.1281 79.1712 31.4531 79.6222 30.9101C80.0752 30.3691 80.4182 29.7721 80.5282 30.1511C80.6192 30.4701 80.5942 31.2411 80.5312 31.6551C80.6252 31.6361 80.7202 31.6161 80.8162 31.5971C80.9972 29.5741 80.4932 28.1271 79.7682 27.0061Z" fill="#008348"/>
<path fill-rule="evenodd" clip-rule="evenodd" d="M69.8434 36.713C69.5914 36.515 69.5184 36.207 69.8244 36.117C70.1334 36.026 70.5494 35.954 71.3084 35.629C72.0664 35.303 71.6694 34.743 71.3274 34.598C70.9834 34.453 70.9454 34.129 70.9834 33.784C71.0194 33.441 70.9284 32.936 70.2594 33.189C69.5914 33.441 69.8244 34.092 69.6274 34.309C69.4274 34.526 69.3204 34.453 69.3554 34.129C69.3924 33.803 69.1034 33.586 68.9404 33.513C68.8124 33.458 68.5354 33.392 68.2984 33.373C67.6064 33.997 66.9734 34.65 66.4934 35.298C66.6014 35.521 66.8544 35.769 66.9874 35.809C67.1694 35.864 67.4404 35.991 67.4204 36.352C67.4054 36.657 66.7174 36.678 66.2654 36.689C66.5844 37.553 66.9094 38.166 67.3624 38.656C67.4634 38.627 67.5984 38.581 67.7834 38.503C68.3434 38.268 68.5234 37.418 68.6144 37.165C68.7054 36.912 68.9404 36.966 69.1034 37.292C69.2174 37.52 69.2584 37.73 69.2744 37.935C69.5934 37.616 69.9024 37.318 70.2064 37.037C70.1144 36.946 70.0014 36.838 69.8434 36.713Z" fill="#008348"/>
<path fill-rule="evenodd" clip-rule="evenodd" d="M79.4419 58.314C79.5499 58.296 79.2609 57.014 79.4979 56.959C79.7319 56.905 79.8389 57.664 80.3459 57.573C80.8529 57.483 80.9789 56.978 80.9069 56.417C80.8349 55.856 81.1599 56.164 81.4139 55.766C81.6649 55.369 81.1229 54.827 80.5079 55.206C79.8939 55.585 80.0029 55.079 80.3289 54.881C80.6549 54.681 80.4189 53.959 79.7319 54.193C79.2349 54.364 78.9839 54.042 78.7459 53.906C78.5619 53.977 78.3809 54.054 78.1989 54.135C78.1589 54.275 78.1909 54.445 78.2319 54.627C78.2839 54.859 78.3939 55.459 78.0149 55.206C77.6839 54.986 77.2369 54.862 77.1109 55.278C76.9839 55.694 77.2369 55.731 77.2009 55.983C77.1639 56.236 76.5139 56.29 76.8209 56.814C77.1279 57.338 77.5809 57.05 77.8889 56.851C78.1959 56.652 78.4849 56.887 78.3769 57.158C78.2909 57.369 78.1209 58.081 78.1089 58.55C78.2529 58.645 78.4039 58.747 78.5619 58.859C78.7429 58.677 79.0839 58.376 79.4419 58.314Z" fill="#008348"/>
<path fill-rule="evenodd" clip-rule="evenodd" d="M69.5913 57.0681C69.8613 56.9961 70.3863 57.5551 70.8563 57.2301C71.3273 56.9051 70.6573 56.5801 70.7483 56.3081C70.8383 56.0371 71.0553 55.5131 70.7293 55.2601C70.4043 55.0071 70.0603 55.2421 69.7183 55.6221C69.3733 56.0011 69.5003 55.2771 69.6813 54.9711C69.9163 54.5731 69.6813 54.3011 69.2833 54.2291C68.8853 54.1571 68.7593 54.7171 68.4883 54.4641C68.0573 54.0631 67.3853 54.2291 67.5483 54.7901C67.7113 55.3511 67.8903 55.5311 67.5483 55.6031C67.2053 55.6751 66.8793 54.7721 66.4823 55.4961C66.0833 56.2171 66.7163 56.4351 66.6623 56.9781C66.6083 57.5201 66.8253 58.0981 67.1503 58.1521C67.4763 58.2071 67.8183 57.8451 67.9993 57.6291C68.1813 57.4121 68.6143 57.2491 68.5603 57.6641C68.5223 57.9511 68.5033 58.5471 68.4923 58.8901C69.1583 58.5661 69.8713 58.2281 70.2593 58.0981C70.2763 58.0921 70.2923 58.0861 70.3073 58.0801C70.1263 58.0071 69.8693 57.8871 69.6273 57.7181C69.2653 57.4651 69.3203 57.1411 69.5913 57.0681Z" fill="#008348"/>
<path fill-rule="evenodd" clip-rule="evenodd" d="M61.5826 73.5359C62.4146 73.2829 62.4506 73.9339 62.3416 74.4759C62.2336 75.0179 62.2336 76.1749 62.2696 76.7529L63.6426 76.8269C63.5706 76.4639 63.6426 75.4149 63.6796 74.8019C63.7146 74.1859 64.3306 73.2459 64.5476 74.1859C64.7646 75.1269 65.7036 75.1629 66.3546 74.7649C67.0056 74.3669 67.4766 73.4999 68.1626 72.2699C68.8506 71.0409 67.9466 70.7149 67.4036 70.7879C66.8616 70.8599 66.3186 70.9319 67.5486 69.9209C68.6916 68.9789 66.7676 68.5059 65.8836 68.3289C64.4266 69.8589 62.6356 71.5919 61.0406 72.9569C60.8366 73.1309 60.6466 73.2979 60.4646 73.4599C60.6556 73.5699 61.0306 73.7029 61.5826 73.5359Z" fill="#008348"/>
<path fill-rule="evenodd" clip-rule="evenodd" d="M60.1364 82.6467C60.8234 82.4287 61.2574 83.9117 62.2694 83.0437C63.2824 82.1767 62.5584 81.4537 62.5234 80.7307C62.4864 80.0057 63.3184 79.7177 63.0664 78.8147C62.6794 77.4367 61.4014 78.7417 60.6064 79.5007C59.8114 80.2597 59.7754 79.6447 60.5714 78.4177C61.3664 77.1877 60.0644 76.7897 59.2694 77.1157C58.5624 77.4037 57.9134 77.1217 57.4984 76.7507C57.1924 77.2397 56.9684 77.6917 56.7384 78.1637C56.0514 79.5737 56.5214 79.6087 57.0284 79.6087C57.5334 79.6087 58.6184 81.7427 58.7624 82.1387C58.8134 82.2807 59.1844 82.8227 59.6764 83.5157C59.6474 83.1737 59.7134 82.7797 60.1364 82.6467Z" fill="#008348"/>
<path fill-rule="evenodd" clip-rule="evenodd" d="M79.9128 68.4017C79.2618 68.2577 78.4168 68.1487 78.3218 69.4867C78.2858 69.9927 78.7908 70.3917 79.2618 70.5717C79.7318 70.7517 79.6588 71.0767 79.1528 70.8967C78.6478 70.7147 78.2498 70.6077 77.8898 71.6557C77.5258 72.7037 78.1778 72.8497 78.5038 72.9217C78.8288 72.9937 79.0808 73.0657 79.0088 73.5007C78.9358 73.9347 78.7198 75.1987 79.5508 75.3077C80.3828 75.4157 81.1048 74.4037 81.3588 73.8977C81.6128 73.3917 81.8998 72.8847 81.9738 73.4637C82.0458 74.0427 81.9368 74.3307 81.6488 74.9817C81.3588 75.6327 81.3588 75.9227 81.7928 75.8867C82.2268 75.8487 82.9498 75.8867 83.1668 75.3787C83.3838 74.8737 83.7098 73.8977 83.7458 73.2107C83.7668 72.7807 84.1438 72.7327 84.4228 72.7577C84.5088 72.0237 84.6148 71.3067 84.7218 70.6797C83.3028 70.8917 82.0948 69.1587 81.6748 67.6587C81.1918 68.1837 80.4818 68.5287 79.9128 68.4017Z" fill="#008348"/>
<path fill-rule="evenodd" clip-rule="evenodd" d="M73.1526 68.149C72.8986 68.582 72.1766 69.812 72.5006 70.21C72.8266 70.607 73.1876 69.812 73.4776 70.102C73.7676 70.391 74.4176 70.715 74.4176 70.499C74.4176 70.282 74.4896 69.848 74.5986 69.27C74.7076 68.691 74.9596 68.366 75.2126 68.836C75.4656 69.305 75.8266 69.703 76.7306 69.486C77.6346 69.27 77.5266 68.329 77.3456 67.643C77.1636 66.956 77.8166 66.63 78.1416 66.45C78.4666 66.269 79.2986 65.618 78.6846 65.04C78.0696 64.461 77.5266 65.293 76.9846 65.4C76.4416 65.51 76.6586 65.04 77.7796 64.172C78.7476 63.423 77.9376 62.674 77.3486 62.415C75.7916 63.981 73.0346 66.523 72.4286 67.101C72.2116 67.309 72.0246 67.552 71.8496 67.845C73.3046 67.168 73.3916 67.738 73.1526 68.149Z" fill="#008348"/>
<path fill-rule="evenodd" clip-rule="evenodd" d="M82.1178 82.6829C82.5878 83.1179 83.7098 83.7319 84.5038 83.0079C85.3008 82.2849 84.3228 81.4889 84.2158 80.9119C84.1058 80.3319 84.7938 79.9699 84.4318 79.0319C83.8038 77.3949 82.8778 79.3569 82.3338 79.8989C81.7928 80.4409 81.8828 79.5199 82.3708 79.0319C82.6248 78.7779 83.7458 78.0909 83.0938 77.3319C82.4428 76.5729 81.5038 77.0059 81.0338 77.3319C80.5628 77.6579 80.2018 78.0549 79.4788 77.8379C78.7558 77.6209 78.1408 77.5489 77.7078 78.5979C77.2728 79.6449 78.1048 79.3569 78.7908 80.1149C79.4788 80.8739 79.0458 80.9119 78.5038 80.7309C77.9598 80.5499 77.7078 79.8629 76.9118 79.9699C76.1158 80.0789 76.1158 81.3459 76.3698 81.6709C76.6238 81.9959 77.1278 82.1769 76.7668 82.7909C76.4068 83.4059 76.9478 84.1289 77.5978 84.4179C78.2498 84.7069 79.2238 83.5499 79.5878 83.0799C79.9488 82.6099 80.3088 82.7189 80.2368 83.0799C80.1768 83.3909 80.0068 84.2089 79.9828 84.8919C80.5338 84.7159 81.0788 84.5529 81.6018 84.4099C81.6008 84.0299 81.5188 83.4189 81.3588 82.8289C81.1418 82.0329 81.6488 82.2489 82.1178 82.6829Z" fill="#008348"/>
<path fill-rule="evenodd" clip-rule="evenodd" d="M72.7184 86.5518C71.8504 86.8038 71.7054 86.4058 71.1274 86.1898C70.5494 85.9738 70.5114 86.4778 70.9094 87.0928C71.3084 87.7078 71.7414 88.2858 71.2714 88.2858C70.8014 88.2858 70.4404 88.3588 70.3674 88.7208C70.2954 89.0808 69.5364 88.6488 69.3554 87.8888C69.1754 87.1278 68.9944 85.6838 68.5964 86.4058C68.1994 87.1278 67.8374 88.3228 66.8254 87.7808C65.8124 87.2388 66.4994 86.5148 65.9934 86.0078C65.4874 85.5018 65.0174 84.8518 65.5234 83.9478C66.0304 83.0438 66.4634 83.8028 66.9334 83.8028C67.4034 83.8028 67.4764 83.3688 67.0424 83.0438C66.6084 82.7188 66.0654 81.1638 68.0544 81.2728C68.8204 81.3148 69.6454 81.0558 70.2954 80.5858C70.9454 80.1148 72.6464 80.3678 71.9594 81.5628C71.2714 82.7548 71.4894 83.0078 71.8864 82.5738C72.2844 82.1388 72.7904 81.3458 73.5494 81.5628C74.3094 81.7788 73.9834 82.3568 73.5134 83.0078C73.0434 83.6588 73.3324 84.0928 73.6934 84.3448C74.0554 84.5988 74.7214 85.9658 72.7184 86.5518Z" fill="#008348"/>
<path fill-rule="evenodd" clip-rule="evenodd" d="M76.4068 78.0188C75.7548 78.0548 74.9588 77.8738 74.9588 77.8738C74.8868 78.5608 74.2198 79.5448 73.5498 80.5498C73.4768 80.6588 73.0798 80.6588 72.8978 80.5128C72.7188 80.3688 72.2128 80.1148 72.6088 79.6808C73.0078 79.2488 73.6578 78.3438 73.5498 77.9468C73.4408 77.5488 73.1528 77.1878 72.7188 77.7298C72.2848 78.2718 71.5978 79.3928 70.8388 79.4298C70.0778 79.4648 69.3208 78.7778 69.6808 78.0908C70.0428 77.4048 70.1508 77.0428 69.6448 76.4268C69.1388 75.8128 69.3278 75.0268 70.4048 74.5478C70.7298 74.4038 71.3078 74.5478 71.7058 74.8728C72.1028 75.1988 72.3208 74.8728 71.7778 74.5478C71.2348 74.2228 70.8018 73.8248 70.7298 73.1018C70.6608 72.4148 71.0918 71.6928 72.0318 72.0898C72.9708 72.4868 73.5498 72.1618 73.9478 71.8368C74.3448 71.5108 76.0408 71.1048 75.7918 72.5968C75.6098 73.6798 75.1058 73.7168 74.9588 74.2948C74.8158 74.8728 75.2478 74.5118 75.5018 74.0788C75.7548 73.6438 76.3338 71.8688 77.5258 73.2098C77.8158 73.5358 77.7078 74.0788 77.3448 74.6928C76.9838 75.3078 77.2728 75.6688 77.4898 75.9938C77.7078 76.3198 78.2108 77.9178 76.4068 78.0188Z" fill="#008348"/>
<path fill-rule="evenodd" clip-rule="evenodd" d="M106.229 49.2663L107.333 48.4833L109.726 52.0373L111.135 51.0383L108.671 47.5563L109.742 46.7993L112.364 50.4753L113.775 49.4753L109.881 44.0173L103.475 48.5573L107.008 53.5803L108.418 52.5813L106.229 49.2663Z" fill="white"/>
<path fill-rule="evenodd" clip-rule="evenodd" d="M110.859 61.6081L112.954 60.6391L111.511 57.5041L116.418 55.4601L115.527 53.4961L108.596 56.5111L110.859 61.6081Z" fill="white"/>
<path fill-rule="evenodd" clip-rule="evenodd" d="M112.107 64.9229L112.325 66.8559L116.977 66.3089L117.159 68.3249L119.241 68.1709L118.662 61.4099L116.578 61.5639L116.758 64.3759L112.107 64.9229Z" fill="white"/>
<path fill-rule="evenodd" clip-rule="evenodd" d="M112.341 71.5168L112.37 73.8208L119.208 73.7998L119.18 71.4968L112.341 71.5168Z" fill="white"/>
<path fill-rule="evenodd" clip-rule="evenodd" d="M115.554 77.0772C114.408 76.8572 113.051 77.0462 112.101 77.7662C111.248 78.4142 110.851 79.0642 110.625 80.2442C110.483 80.9922 110.598 81.9742 110.846 82.8342L112.653 82.2282C112.479 81.8122 112.406 81.1802 112.594 80.5402C112.96 79.3042 113.964 78.7472 115.19 78.9282C116.491 79.1192 117.232 80.3122 116.997 81.7322C116.906 82.2982 116.624 82.7882 115.98 83.1732L117.099 84.5212C118.01 83.9632 118.7 82.8642 118.848 82.0922C119.099 80.7912 118.789 79.8932 118.186 78.8372C117.599 77.8072 116.606 77.2782 115.554 77.0772Z" fill="white"/>
<path fill-rule="evenodd" clip-rule="evenodd" d="M114.3 86.63C113.345 86.385 112.044 87.434 111.417 88.037C111.055 88.385 109.792 89.658 109.209 89.461C108.687 89.286 108.846 88.489 109.023 87.968C109.279 87.208 109.672 86.569 110.283 86.158L109.151 85.656C108.601 86.116 107.988 86.858 107.736 87.605C107.445 88.467 107.325 89.476 107.448 90.118C107.606 90.945 107.895 91.472 108.83 91.387C109.55 91.32 111.358 90.146 112.401 89.161C112.93 88.663 113.381 88.609 113.616 88.74C113.998 88.951 113.974 89.602 113.837 90.01C113.653 90.555 113.391 91.388 112.957 91.696L114.502 92.733C115.133 92.099 115.46 91.146 115.645 90.255C116.094 88.103 114.928 86.792 114.3 86.63Z" fill="white"/>
<path fill-rule="evenodd" clip-rule="evenodd" d="M105.713 41.2433C105.579 40.1843 104.994 38.9663 104.399 38.4513C103.479 37.6523 102.39 37.4383 101.232 37.5883C100.057 37.7423 98.9635 38.4963 98.3465 39.3733C97.6745 40.3263 97.2885 41.6413 97.5555 42.8043C97.7935 43.8473 98.2235 44.4773 99.2065 45.1683C99.8295 45.6073 100.772 45.9053 101.658 46.0323L101.849 44.1363C101.398 44.1243 100.791 43.9303 100.287 43.4953C99.3095 42.6523 99.2635 41.3203 99.8835 40.4673C100.656 39.4023 102.003 39.1743 103.201 39.9723C103.679 40.2883 103.868 40.8003 103.953 41.5483L105.713 41.2433Z" fill="white"/>
<path fill-rule="evenodd" clip-rule="evenodd" d="M35.7731 80.6379C35.8221 80.1209 35.7931 79.1759 36.3531 79.0579C36.8931 78.9439 37.2491 79.4679 37.3631 80.0059C37.5291 80.7909 37.7501 81.4019 37.4341 82.0679L38.8901 81.9149C39.1291 81.2399 39.0551 80.3369 38.8921 79.5669C38.7031 78.6749 38.4191 78.0489 37.7631 77.4669C37.1321 76.9069 36.6571 76.7609 35.7371 76.9549C35.1761 77.0739 34.1751 78.0769 34.1401 80.0939C34.1341 80.4769 34.0431 81.2079 33.6991 81.2249C33.2611 81.2479 32.9381 80.7269 32.8501 80.3059C32.7301 79.7429 32.8921 78.5099 33.1071 78.0239L31.5831 78.0169C31.3621 78.8829 31.2771 80.0969 31.4651 80.9879C31.8801 82.9509 33.0701 83.5929 34.0361 83.4869C35.0691 83.3729 35.6111 82.2949 35.7731 80.6379Z" fill="white"/>
<path fill-rule="evenodd" clip-rule="evenodd" d="M32.7242 72.3556L38.1232 72.2886L38.0972 70.5926L32.6982 70.6596L32.6762 68.3586L30.9482 68.3776L31.0172 74.8206L32.7452 74.8016L32.7242 72.3556Z" fill="white"/>
<path fill-rule="evenodd" clip-rule="evenodd" d="M42.4747 55.409L38.3067 53.005L38.3177 52.985L43.8377 52.893L45.1547 50.86L38.3527 46.938L37.3247 48.537L41.9657 51.452L35.6367 51.632L34.7537 53.34L41.4467 57.225L42.4747 55.409Z" fill="white"/>
<path fill-rule="evenodd" clip-rule="evenodd" d="M35.7239 59.3543C36.9249 59.3543 37.9009 60.3283 37.9009 61.5303C37.9009 62.7323 36.9249 63.7073 35.7239 63.7073C34.5209 63.7073 33.5469 62.7323 33.5469 61.5303C33.5469 60.3283 34.5209 59.3543 35.7239 59.3543ZM35.7239 65.7093C38.0319 65.7093 39.9029 63.8383 39.9029 61.5303C39.9029 59.2233 38.0319 57.3513 35.7239 57.3513C33.4149 57.3513 31.5449 59.2233 31.5449 61.5303C31.5449 63.8383 33.4149 65.7093 35.7239 65.7093Z" fill="white"/>
<path fill-rule="evenodd" clip-rule="evenodd" d="M38.417 91.2022C37.215 91.2022 36.24 90.2262 36.24 89.0242C36.24 87.8222 37.215 86.8482 38.417 86.8482C39.618 86.8482 40.593 87.8222 40.593 89.0242C40.593 90.2262 39.618 91.2022 38.417 91.2022ZM42.596 89.0242C42.596 86.7162 40.725 84.8462 38.417 84.8462C36.108 84.8462 34.238 86.7162 34.238 89.0242C34.238 91.3332 36.108 93.2042 38.417 93.2042C40.725 93.2042 42.596 91.3332 42.596 89.0242Z" fill="white"/>
<path fill-rule="evenodd" clip-rule="evenodd" d="M46.2658 98.7688L46.1218 98.5958C45.6608 98.0428 44.1038 96.3948 44.7468 95.7898C45.3338 95.2378 46.8138 97.1168 47.2328 97.6178L47.4118 97.8358L46.2658 98.7688ZM43.6988 101.087C43.1468 100.426 41.5008 99.1318 42.2038 98.4698C42.8738 97.8398 44.5248 99.8528 44.7298 100.099L43.6988 101.087ZM43.4448 93.7978C42.8038 94.3668 42.4938 95.7178 43.0988 96.6328C42.4398 96.3118 41.1108 96.2018 40.5008 96.7318C38.9968 98.0378 40.8208 99.9248 42.3188 101.421L44.4068 103.483L49.9558 98.8928L47.7088 96.2798C46.9208 95.2898 44.7428 92.6498 43.4448 93.7978Z" fill="white"/>
<path fill-rule="evenodd" clip-rule="evenodd" d="M68.1448 115.401C68.3798 115.293 68.7058 115.148 68.8508 115.257C68.9948 115.365 69.8608 115.98 70.4048 116.451C70.9458 116.92 71.1268 117.065 70.6938 117.318C70.2598 117.57 69.8608 117.824 69.9348 117.606C70.0068 117.391 70.1148 117.065 69.8248 116.776C69.5368 116.486 68.8268 115.938 68.5238 115.691C68.3258 115.528 68.1448 115.401 68.1448 115.401Z" fill="#BB9753"/>
<path fill-rule="evenodd" clip-rule="evenodd" d="M66.1017 115.998C65.9207 116.161 65.8847 116.432 66.1017 116.648C66.3187 116.865 67.5297 117.877 67.7287 118.077C67.9277 118.275 68.2167 118.349 68.5417 118.275C68.8677 118.202 68.1627 118.673 67.8907 118.727C67.6217 118.78 67.3137 118.78 67.0247 118.51C66.7337 118.239 65.1077 116.702 64.7827 116.395C64.4567 116.088 64.8727 116.088 65.1617 116.053C65.4517 116.017 65.7037 116.034 66.1017 115.998Z" fill="#BB9753"/>
<path fill-rule="evenodd" clip-rule="evenodd" d="M74.0016 29.7901C74.0696 29.6141 74.1276 29.4211 74.2026 29.2661C73.9356 29.4051 73.6836 29.5411 73.4446 29.6731C73.6046 29.8991 73.8216 30.2571 74.0016 29.7901Z" fill="#BB9753"/>
<path fill-rule="evenodd" clip-rule="evenodd" d="M80.5279 30.1511C80.4189 29.7721 80.0749 30.3691 79.6229 30.9101C79.1719 31.4531 78.5199 31.1281 78.4489 30.8571C78.3769 30.5851 78.2499 30.2781 77.8519 29.7531C77.4539 29.2301 78.2319 28.5061 78.5569 28.4151C78.8819 28.3261 79.2989 28.2531 79.4069 28.1631C79.4989 28.0871 79.3349 27.5541 79.2469 27.1421C77.9469 27.5131 76.3619 28.1921 74.9629 28.8821C75.3889 29.0451 75.2629 29.8721 75.2129 29.9881C75.1579 30.1151 75.0139 30.8381 75.3389 30.4041C75.6649 29.9701 75.7919 29.8081 76.1339 29.7011C76.4779 29.5911 76.8569 29.6091 76.8769 30.1151C76.8939 30.6221 76.6589 30.5851 76.5869 30.9101C76.5139 31.2361 76.5869 31.2181 76.7499 31.2901C76.9119 31.3621 77.0199 31.5801 76.8939 31.9231C76.7669 32.2661 76.2249 32.3021 75.7359 32.2481C75.2479 32.1941 75.1939 32.2661 75.3579 32.4291C75.4889 32.5621 75.6669 32.8511 75.7309 33.1531C76.9069 32.5841 78.3299 32.1081 80.5339 31.6551C80.5939 31.2381 80.6169 30.4661 80.5279 30.1511Z" fill="#BB9753"/>
<path fill-rule="evenodd" clip-rule="evenodd" d="M69.1031 37.2923C68.9401 36.9663 68.7051 36.9123 68.6151 37.1653C68.5231 37.4183 68.3431 38.2683 67.7831 38.5023C67.6031 38.5793 67.4601 38.6243 67.3591 38.6533C67.5531 38.8633 67.7691 39.0513 68.0181 39.2263C68.4601 38.7593 68.8741 38.3333 69.2711 37.9363C69.2561 37.7353 69.2141 37.5153 69.1031 37.2923Z" fill="#BB9753"/>
<path fill-rule="evenodd" clip-rule="evenodd" d="M74.507 32.9719C74.309 32.8999 74.146 33.2069 74.019 33.4229C73.893 33.6399 73.622 34.0019 73.153 33.9479C72.682 33.8939 72.573 33.7309 72.447 33.3329C72.32 32.9359 72.031 32.8089 71.688 32.8089C71.344 32.8089 71.109 32.3929 71.471 31.9589C71.833 31.5259 72.194 31.7239 72.483 31.7239C72.771 31.7239 72.917 31.4169 72.682 31.2539C72.495 31.1249 72.167 30.7559 72.11 30.4719C71.079 31.1499 69.601 32.1989 68.312 33.3609C68.545 33.3809 68.817 33.4589 68.94 33.5139C69.103 33.5859 69.392 33.8029 69.356 34.1289C69.32 34.4529 69.428 34.5269 69.627 34.3089C69.825 34.0929 69.591 33.4409 70.259 33.1889C70.929 32.9359 71.02 33.4409 70.983 33.7839C70.945 34.1289 70.983 34.4529 71.327 34.5979C71.669 34.7429 72.067 35.3029 71.308 35.6289C70.549 35.9539 70.133 36.0269 69.825 36.1179C69.518 36.2069 69.591 36.5149 69.843 36.7129C69.998 36.8349 70.109 36.9529 70.199 37.0439C71.155 36.1559 72.059 35.4299 73.08 34.7429C73.639 34.3679 74.149 34.0289 74.68 33.7169C74.767 33.3919 74.798 33.0769 74.507 32.9719Z" fill="#BB9753"/>
<path fill-rule="evenodd" clip-rule="evenodd" d="M67.4205 36.3517C67.4405 35.9907 67.1695 35.8637 66.9875 35.8097C66.8555 35.7687 66.6075 35.5127 66.4985 35.2927C66.3185 35.5337 66.1595 35.7727 66.0295 36.0087C66.1085 36.2517 66.1875 36.4767 66.2645 36.6887C66.7175 36.6777 67.4055 36.6547 67.4205 36.3517Z" fill="#BB9753"/>
<path fill-rule="evenodd" clip-rule="evenodd" d="M82.6968 53.2176C81.5128 53.1426 80.1038 53.3826 78.7578 53.9016C78.9928 54.0416 79.2438 54.3606 79.7318 54.1936C80.4188 53.9586 80.6548 54.6816 80.3288 54.8816C80.0028 55.0796 79.8938 55.5846 80.5088 55.2056C81.1228 54.8266 81.6648 55.3686 81.4138 55.7666C81.1598 56.1636 80.8348 55.8566 80.9068 56.4166C80.9788 56.9776 80.8528 57.4836 80.3458 57.5736C79.8398 57.6646 79.7318 56.9056 79.4978 56.9596C79.2608 57.0136 79.5508 58.2966 79.4418 58.3146C79.0888 58.3746 78.7518 58.6806 78.5698 58.8646C78.5848 58.8746 78.5968 58.8836 78.6098 58.8936C80.6008 60.3226 81.1048 59.5446 81.3948 58.8576C81.6838 58.1706 82.3268 56.1346 82.5148 55.0616C82.6248 54.4466 82.7688 53.7966 82.6968 53.2176Z" fill="#BB9753"/>
<path fill-rule="evenodd" clip-rule="evenodd" d="M78.3767 57.1585C78.4847 56.8875 78.1957 56.6525 77.8897 56.8505C77.5807 57.0505 77.1277 57.3385 76.8207 56.8145C76.5147 56.2895 77.1637 56.2365 77.2007 55.9835C77.2367 55.7305 76.9837 55.6945 77.1107 55.2785C77.2367 54.8625 77.6847 54.9865 78.0157 55.2055C78.3947 55.4595 78.2837 54.8595 78.2317 54.6275C78.1917 54.4515 78.1637 54.2735 78.1957 54.1365C77.8067 54.3135 77.4217 54.5125 77.0567 54.7355C75.1987 55.8725 75.1407 56.8325 75.5737 57.1945C75.9627 57.5175 76.7577 57.6695 78.1087 58.5515C78.1227 58.0825 78.2927 57.3675 78.3767 57.1585Z" fill="#BB9753"/>
<path fill-rule="evenodd" clip-rule="evenodd" d="M72.4654 56.0728C71.6964 55.6898 70.9454 54.8438 70.4404 53.8678C70.4404 53.8678 70.4764 53.7238 70.2594 53.7238C70.0434 53.7238 69.2464 53.6508 67.9094 53.1808C66.5714 52.7118 66.3914 53.0008 66.2114 53.5788C66.0294 54.1568 65.8844 55.2058 65.8484 56.9418C65.8124 58.6768 66.5714 59.7608 67.0424 59.5798C67.2704 59.4908 67.8614 59.1978 68.4944 58.8898C68.5034 58.5448 68.5224 57.9478 68.5604 57.6638C68.6144 57.2488 68.1814 57.4118 67.9994 57.6288C67.8184 57.8448 67.4764 58.2068 67.1504 58.1518C66.8254 58.0978 66.6084 57.5198 66.6624 56.9778C66.7164 56.4348 66.0834 56.2178 66.4824 55.4958C66.8794 54.7718 67.2054 55.6758 67.5484 55.6028C67.8904 55.5308 67.7114 55.3508 67.5484 54.7898C67.3854 54.2288 68.0574 54.0628 68.4884 54.4638C68.7594 54.7178 68.8854 54.1568 69.2834 54.2288C69.6814 54.3018 69.9164 54.5728 69.6814 54.9708C69.5004 55.2778 69.3734 56.0008 69.7184 55.6218C70.0604 55.2418 70.4044 55.0068 70.7294 55.2608C71.0554 55.5128 70.8384 56.0368 70.7484 56.3078C70.6574 56.5798 71.3274 56.9058 70.8564 57.2298C70.3864 57.5548 69.8614 56.9958 69.5914 57.0678C69.3204 57.1408 69.2654 57.4658 69.6274 57.7188C69.8634 57.8838 70.1104 58.0128 70.2924 58.0858C71.0454 57.8298 71.9264 57.3358 72.2124 57.1578L72.6824 57.1948C72.7184 56.5798 72.6824 56.1818 72.4654 56.0728Z" fill="#BB9753"/>
<path fill-rule="evenodd" clip-rule="evenodd" d="M69.7897 64.0276C69.5007 63.3766 69.3997 63.8766 68.5967 65.1486C68.1907 65.7916 67.1647 66.9836 65.8807 68.3306C66.7707 68.5106 68.6877 68.9816 67.5487 69.9216C66.3187 70.9326 66.8617 70.8606 67.4037 70.7876C67.9467 70.7146 68.8507 71.0406 68.1627 72.2706C67.4767 73.5006 67.0057 74.3666 66.3547 74.7656C65.7037 75.1626 64.7647 75.1266 64.5477 74.1866C64.3307 73.2466 63.7147 74.1866 63.6797 74.8016C63.6427 75.4156 63.5707 76.4646 63.6427 76.8266L62.2697 76.7536C62.2337 76.1746 62.2337 75.0176 62.3417 74.4756C62.4507 73.9346 62.4147 73.2826 61.5827 73.5356C61.0397 73.7016 60.6677 73.5616 60.4747 73.4506C58.8587 74.8886 58.0417 75.8816 57.4937 76.7576C57.9087 77.1256 58.5667 77.4026 59.2687 77.1156C60.0637 76.7896 61.3667 77.1876 60.5707 78.4176C59.7747 79.6446 59.8117 80.2596 60.6057 79.5006C61.4017 78.7416 62.6797 77.4366 63.0657 78.8146C63.3177 79.7176 62.4867 80.0066 62.5227 80.7306C62.5587 81.4536 63.2827 82.1766 62.2697 83.0446C61.2577 83.9116 60.8237 82.4286 60.1367 82.6466C59.7227 82.7786 59.6387 83.1596 59.6617 83.4976C60.5617 84.7706 61.8717 86.5706 62.3417 87.3446C63.0657 88.5396 63.0657 89.9866 63.3537 89.7686C63.6427 89.5506 64.3307 88.8996 64.5477 88.7206C64.7647 88.5396 64.9807 88.3226 64.8727 87.9246C64.7647 87.5276 64.3487 85.3946 64.4757 83.9116C64.6197 82.2126 65.4147 80.3506 65.9937 79.2846C66.5497 78.2586 68.2347 74.9816 68.6327 74.1136C69.0307 73.2466 69.7537 72.2346 69.9347 71.4386C70.1147 70.6426 70.8017 68.7996 71.0917 67.9316C71.0197 67.2086 70.5527 65.7456 69.7897 64.0276Z" fill="#BB9753"/>
<path fill-rule="evenodd" clip-rule="evenodd" d="M75.2125 55.9646C74.9955 56.5436 74.7075 57.2666 74.5625 57.6286C74.4175 57.9906 73.7515 57.8496 73.8025 57.5916C73.9115 57.0496 73.1385 57.4086 73.2245 56.9776C73.2965 56.6156 73.1525 56.0366 73.5495 56.0366C73.9475 56.0366 74.7075 55.9646 75.2125 55.9646Z" fill="#BB9753"/>
<path fill-rule="evenodd" clip-rule="evenodd" d="M74.0016 29.7901C74.0696 29.6141 74.1276 29.4211 74.2026 29.2661C73.9356 29.4051 73.6836 29.5411 73.4446 29.6731C73.6046 29.8991 73.8216 30.2571 74.0016 29.7901Z" fill="#BB9753"/>
<path fill-rule="evenodd" clip-rule="evenodd" d="M76.407 78.0186C75.755 78.0546 74.959 77.8736 74.959 77.8736C74.887 78.5606 74.22 79.5446 73.55 80.5496C73.477 80.6586 73.08 80.6586 72.898 80.5126C72.719 80.3686 72.213 80.1146 72.609 79.6806C73.008 79.2486 73.658 78.3436 73.55 77.9466C73.441 77.5486 73.153 77.1876 72.719 77.7296C72.285 78.2716 71.598 79.3926 70.839 79.4296C70.078 79.4646 69.321 78.7776 69.681 78.0906C70.043 77.4046 70.151 77.0426 69.645 76.4266C69.139 75.8126 69.328 75.0266 70.405 74.5476C70.73 74.4036 71.308 74.5476 71.706 74.8726C72.103 75.1986 72.321 74.8726 71.778 74.5476C71.235 74.2226 70.802 73.8246 70.73 73.1016C70.661 72.4146 71.092 71.6926 72.032 72.0896C72.971 72.4866 73.55 72.1616 73.948 71.8366C74.345 71.5106 76.041 71.1046 75.792 72.5966C75.61 73.6796 75.106 73.7166 74.959 74.2946C74.816 74.8726 75.248 74.5116 75.502 74.0786C75.755 73.6436 76.334 71.8686 77.526 73.2096C77.816 73.5356 77.708 74.0786 77.345 74.6926C76.984 75.3076 77.273 75.6686 77.49 75.9936C77.708 76.3196 78.211 77.9176 76.407 78.0186ZM72.719 86.5516C71.85 86.8036 71.706 86.4066 71.127 86.1896C70.549 85.9736 70.512 86.4776 70.91 87.0926C71.308 87.7076 71.742 88.2866 71.272 88.2866C70.802 88.2866 70.44 88.3586 70.368 88.7206C70.296 89.0816 69.537 88.6486 69.356 87.8886C69.175 87.1276 68.995 85.6836 68.596 86.4066C68.199 87.1276 67.837 88.3226 66.825 87.7806C65.813 87.2386 66.5 86.5146 65.993 86.0076C65.488 85.5016 65.018 84.8516 65.524 83.9476C66.03 83.0436 66.464 83.8026 66.934 83.8026C67.404 83.8026 67.476 83.3696 67.043 83.0436C66.608 82.7186 66.066 81.1646 68.054 81.2726C68.821 81.3146 69.645 81.0556 70.296 80.5856C70.946 80.1146 72.646 80.3686 71.959 81.5626C71.272 82.7546 71.489 83.0076 71.886 82.5746C72.285 82.1386 72.79 81.3456 73.55 81.5626C74.309 81.7786 73.984 82.3566 73.514 83.0076C73.044 83.6596 73.333 84.0926 73.694 84.3446C74.056 84.5986 74.721 85.9656 72.719 86.5516ZM85.553 80.0786C84.613 78.5256 84.432 77.9106 84.287 76.3196C84.196 75.3156 84.278 74.0106 84.423 72.7566C84.145 72.7346 83.767 72.7876 83.746 73.2096C83.71 73.8976 83.384 74.8726 83.167 75.3786C82.95 75.8866 82.227 75.8486 81.793 75.8866C81.359 75.9226 81.359 75.6326 81.649 74.9816C81.937 74.3306 82.046 74.0416 81.973 73.4636C81.9 72.8846 81.613 73.3916 81.359 73.8976C81.105 74.4036 80.383 75.4146 79.551 75.3076C78.72 75.1986 78.936 73.9346 79.009 73.4996C79.081 73.0656 78.829 72.9936 78.504 72.9206C78.178 72.8496 77.526 72.7036 77.889 71.6556C78.25 70.6066 78.648 70.7146 79.153 70.8956C79.659 71.0766 79.732 70.7516 79.261 70.5716C78.791 70.3916 78.286 69.9926 78.322 69.4866C78.417 68.1476 79.261 68.2576 79.913 68.4016C80.479 68.5266 81.193 68.1866 81.678 67.6686C81.668 67.6356 81.656 67.6026 81.649 67.5686C80.684 63.8896 82.515 59.3626 83.021 58.0976C83.528 56.8326 85.48 53.2716 86.149 52.2046C85.788 52.0236 84.83 51.5366 84.305 51.2646C83.782 50.9946 83.492 50.8676 83.347 51.0666C83.202 51.2646 83.021 51.3726 82.769 51.7346C82.261 52.4596 82.697 52.3496 82.841 52.3496C82.986 52.3496 83.6 53.1446 83.71 53.3266C83.818 53.5066 83.71 53.6506 83.456 54.2286C83.124 54.9856 82.914 56.7246 82.625 57.7726C81.749 60.9476 80.383 60.6286 79.768 60.2316C79.153 59.8326 78.973 60.4486 78.358 61.3156C78.211 61.5216 77.843 61.9166 77.357 62.4056C77.946 62.6686 78.743 63.4266 77.78 64.1716C76.659 65.0396 76.441 65.5096 76.984 65.4006C77.526 65.2926 78.069 64.4606 78.684 65.0396C79.299 65.6186 78.467 66.2686 78.141 66.4496C77.816 66.6306 77.164 66.9556 77.345 67.6426C77.526 68.3286 77.635 69.2696 76.73 69.4866C75.827 69.7036 75.466 69.3056 75.213 68.8356C74.959 68.3656 74.707 68.6906 74.598 69.2696C74.49 69.8476 74.418 70.2816 74.418 70.4986C74.418 70.7146 73.767 70.3916 73.477 70.1016C73.188 69.8116 72.827 70.6066 72.5 70.2096C72.177 69.8116 72.898 68.5816 73.153 68.1486C73.391 67.7396 73.291 67.1726 71.854 67.8376C71.389 68.6166 71.02 69.7456 70.44 71.5106C69.645 73.9346 67.844 77.2336 67.096 78.4346C65.149 81.5646 64.801 84.5266 65.091 86.3706C65.378 88.2046 65.632 88.0686 66.03 88.0686C66.428 88.0686 67.404 89.2976 68.054 90.0586C68.705 90.8176 68.959 90.4916 69.284 90.2376C70.329 89.4256 72.428 88.0686 75.393 86.6596C76.658 86.0586 78.342 85.4176 79.985 84.8916C80.01 84.2106 80.177 83.3896 80.237 83.0806C80.309 82.7186 79.949 82.6096 79.588 83.0806C79.224 83.5496 78.25 84.7066 77.598 84.4176C76.948 84.1286 76.407 83.4056 76.767 82.7906C77.128 82.1766 76.624 81.9956 76.37 81.6706C76.116 81.3456 76.116 80.0786 76.912 79.9696C77.708 79.8626 77.96 80.5496 78.504 80.7306C79.046 80.9116 79.479 80.8736 78.791 80.1146C78.105 79.3566 77.273 79.6446 77.708 78.5976C78.141 77.5486 78.756 77.6216 79.479 77.8376C80.202 78.0546 80.563 77.6576 81.034 77.3316C81.504 77.0056 82.443 76.5726 83.094 77.3316C83.746 78.0906 82.625 78.7776 82.371 79.0316C81.883 79.5196 81.793 80.4406 82.334 79.8986C82.878 79.3566 83.803 77.3946 84.432 79.0316C84.794 79.9696 84.106 80.3316 84.216 80.9116C84.323 81.4886 85.301 82.2846 84.504 83.0076C83.71 83.7316 82.588 83.1176 82.118 82.6826C81.649 82.2486 81.142 82.0326 81.359 82.8286C81.518 83.4136 81.599 84.0296 81.601 84.4096C83.183 83.9716 84.561 83.7056 85.262 83.7676C86.295 83.8596 87.071 84.1646 87.035 83.2246C86.999 82.2846 86.493 81.6336 85.553 80.0786Z" fill="#BB9753"/>
<path fill-rule="evenodd" clip-rule="evenodd" d="M64.1285 108.928C63.9695 108.928 63.6245 108.872 63.6245 108.725L63.2075 108.679C63.4595 108.73 63.6895 109.019 63.4235 109.2C63.1345 109.402 62.2125 109.511 61.2385 109.454C60.2625 109.402 60.0245 108.872 60.0075 108.488C59.9955 108.234 60.0245 108.012 60.0245 107.646C60.0245 107.282 59.9375 106.952 60.1535 106.806C60.3685 106.661 60.3155 107.024 60.4585 107.024C61.0755 107.024 63.2075 107.226 63.7145 107.3C64.2235 107.371 64.1875 107.069 64.0745 106.73C64.0405 106.62 63.8975 106.661 63.8435 106.806C63.7875 106.952 63.3175 106.898 63.3175 106.898C63.3175 106.898 62.3775 106.806 61.7665 106.768C61.1495 106.73 60.6755 106.661 60.2995 106.587C59.9175 106.511 59.4455 106.532 59.4855 106.715C59.5155 106.898 59.6275 109.181 59.6485 109.511C59.6645 109.839 59.6835 109.969 59.8455 109.969C60.2625 109.969 63.0675 110.005 63.7145 110.005C64.3665 110.005 64.3325 109.931 64.3475 109.567C64.3665 109.2 64.2955 108.928 64.1285 108.928Z" fill="#BB9753"/>
</svg>
