<svg width="150" height="150" viewBox="0 0 150 150" fill="none" xmlns="http://www.w3.org/2000/svg">
<mask id="mask0_429_2202" style="mask-type:alpha" maskUnits="userSpaceOnUse" x="19" y="18" width="112" height="114">
<path d="M19.0007 131.79H130.911V18.0134H19.0007V131.79Z" fill="white"/>
</mask>
<g mask="url(#mask0_429_2202)">
<path fill-rule="evenodd" clip-rule="evenodd" d="M128.23 29.1377C128.23 29.1377 127.328 29.571 126.308 30.0614C127.719 25.1156 128.573 21.1506 128.583 21.1013L129.244 18.016L126.604 19.7468C126.376 19.8947 104.233 34.4416 87.321 47.7896L87.3081 47.7611C87.1758 47.3822 86.9501 46.9152 86.5585 46.4351C86.6804 46.3495 86.8023 46.2638 86.9216 46.1756C88.605 44.9768 88.9084 44.7484 88.9888 44.6524C90.929 42.9658 91.3907 40.921 91.1987 39.6832L90.5918 35.7624L80.2374 43.4743C77.5113 42.7763 74.1576 42.3222 69.7118 43.4718L59.36 35.7624L58.7505 39.6806C58.556 40.921 59.0202 42.9658 60.8515 44.546C61.0382 44.751 61.3495 44.982 63.0717 46.2093C63.1755 46.2846 63.2818 46.3624 63.3882 46.4351C63.0588 46.8425 62.8046 47.2888 62.636 47.7663L62.6282 47.787C46.0539 34.7063 23.5788 19.8999 23.3453 19.7468L20.71 18.0134L21.3637 21.0987C21.413 21.3245 22.3467 25.7072 23.5995 30.0407C22.5905 29.5554 21.719 29.1377 21.719 29.1377L19.0007 27.835L19.9241 30.705C19.9786 30.8788 21.2962 34.9683 22.3701 37.6904C23.9549 42.042 26.9637 48.9262 29.6664 53.6878C31.067 56.0595 33.2562 58.2366 36.0004 59.9881C37.567 60.9846 39.2478 61.8071 41.0064 62.4325C41.3254 63.1591 41.9402 64.5058 42.6742 65.8032H37.3595V75.0021L29.6249 78.7076L37.3647 82.6077L37.3751 89.8526L44.2927 94.0822L44.7415 94.0277C44.7415 94.0277 48.9097 93.5113 51.3037 93.2518L69.1827 103.577C72.7932 120.14 73.6933 124.85 73.7011 124.894L75.0057 131.791L76.2508 124.883C76.2611 124.834 77.1638 119.865 80.7665 103.579L98.6455 93.2518C101.04 93.5113 105.205 94.0277 105.208 94.0277L105.657 94.0822L112.574 89.8526L112.582 82.6103L120.324 78.7076L112.59 75.0021V65.8032H107.265C108.006 64.4928 108.621 63.1565 108.94 62.4325C111.111 61.6489 117.139 59.0721 120.285 53.6826C121.8 51.0851 125.063 44.4137 127.571 37.7085C127.66 37.4802 129.006 33.9875 130.03 30.6946L130.912 27.8532L128.23 29.1377Z" fill="#FEFEFE"/>
</g>
<path fill-rule="evenodd" clip-rule="evenodd" d="M47.3804 68.2145H39.7521V76.4973L35.1663 78.7445L39.7521 81.1395V88.5012L44.8177 91.6021C46.6853 91.3581 49.0663 91.0701 51.8235 90.7899L71.404 102.08L74.9731 118.506C74.9964 118.467 78.5784 102.08 78.5784 102.08L98.1252 90.7899C100.885 91.0701 103.266 91.3581 105.131 91.6021L110.191 88.5012V81.1395L114.788 78.7964L110.191 76.4973V68.2145H102.568C102.568 68.2145 103.749 67.0727 105.245 64.4986C105.87 63.4217 106.459 62.0802 107.183 60.4895C112.741 58.7977 116.842 55.2479 118.601 51.7863C123.36 43.0675 126.942 32.4078 126.942 32.4078C126.942 32.4078 124.888 33.3938 122.408 34.6186C124.421 28.4765 125.63 23.2634 125.63 23.2634C125.63 23.2634 103.673 37.7947 86.5699 51.4464L85.0888 50.5563C85.094 50.4162 85.1355 49.1681 85.1355 49.0643C85.1355 49.0643 85.3015 47.6137 82.7492 46.747C82.591 46.6926 82.4432 46.6433 82.2953 46.594C83.5326 45.665 85.4572 44.243 86.8604 43.2803C89.0988 41.7441 88.8343 40.0549 88.8343 40.0549L80.7209 46.0957C74.4517 44.0614 69.2278 46.0957 69.2278 46.0957L61.1171 40.0549C61.1171 40.0549 60.8499 41.7441 63.0884 43.2803C64.4942 44.243 66.4162 45.665 67.656 46.594C67.5082 46.6433 67.3577 46.6926 67.2021 46.747C64.6472 47.6137 64.8184 49.0643 64.8184 49.0643C64.8184 49.1681 64.8547 50.4162 64.8625 50.5563L63.3789 51.4464C46.278 37.7947 24.3242 23.2634 24.3242 23.2634C24.3242 23.2634 25.5278 28.4765 27.5405 34.6186C24.8871 33.3056 23.0066 32.4078 23.0066 32.4078C23.0066 32.4078 26.5886 43.0675 31.3508 51.7863C33.1068 55.2479 37.2076 58.7977 42.766 60.4895C42.766 60.4895 43.705 62.6433 44.5169 64.1898C45.5181 66.1022 47.3804 68.2145 47.3804 68.2145Z" fill="#1C1060"/>
<path fill-rule="evenodd" clip-rule="evenodd" d="M84.1822 55.8011C84.1096 56.0424 84.024 56.2734 83.9436 56.5043C91.6316 51.4806 105.062 42.7152 120.111 32.9351C120.111 32.9351 120.13 33.262 121.463 29.3931C105.563 38.9993 91.4811 49.8874 84.1822 55.8011Z" fill="#008CA8"/>
<path fill-rule="evenodd" clip-rule="evenodd" d="M65.7664 55.802C58.4675 49.8883 44.3884 39.0002 28.4885 29.3914C29.8191 33.2629 29.8373 32.9334 29.8373 32.9334C44.8864 42.7134 58.3171 51.4789 66.005 56.5026C65.922 56.2743 65.8416 56.0407 65.7664 55.802Z" fill="#008CA8"/>
<path fill-rule="evenodd" clip-rule="evenodd" d="M51.8074 68.6425C51.8022 68.64 48.0309 65.9439 45.9014 61.0084L47.4084 61.4573C52.3288 62.76 61.7364 64.0574 61.7364 64.0574C57.2051 64.1586 53.3741 64.5141 51.1875 64.758C50.7336 64.1949 50.2122 63.4762 50.0125 62.9416C50.0125 62.9416 50.1811 64.6672 50.5676 65.7467C51.0578 67.3244 51.8022 68.6374 51.8074 68.6425ZM74.9673 63.567C73.6523 63.0636 70.34 61.4106 68.3532 57.0876C69.9821 58.4914 72.0675 58.9403 73.7353 57.3263C71.6992 56.4492 71.4476 52.8164 71.0533 51.8641C70.257 49.9335 68.9964 48.9578 68.0004 48.5478C68.4906 48.3818 68.9523 48.2339 69.3829 48.1015C70.3348 48.6179 71.9248 49.8063 72.4228 52.1755C72.4228 52.1755 72.6303 49.4716 71.2919 47.5748C73.8883 46.9494 76.508 47.035 78.6453 47.5722C77.3043 49.469 77.5092 52.1755 77.5092 52.1755C78.0098 49.8038 79.605 48.6127 80.5595 48.0989C80.9875 48.2313 81.4492 48.3818 81.9472 48.5478C80.9486 48.9578 79.688 49.9335 78.8943 51.8641C78.5027 52.8164 78.2485 56.4492 76.2175 57.3263C76.6844 60.0924 76.1086 62.6717 74.9673 63.567Z" fill="#008CA8"/>
<path fill-rule="evenodd" clip-rule="evenodd" d="M99.3703 65.7457C99.7567 64.6662 99.9253 62.9406 99.9253 62.9406C99.7256 63.4751 99.2043 64.1939 98.7477 64.757C96.5638 64.5157 92.7302 64.1602 88.2014 64.059C88.2014 64.059 97.6065 62.759 102.527 61.4563L104.034 61.01C101.907 65.9455 98.1356 68.6415 98.1304 68.6415C98.1356 68.6389 98.8774 67.3259 99.3703 65.7457Z" fill="#008CA8"/>
<path fill-rule="evenodd" clip-rule="evenodd" d="M63.2593 92.0025L53.6779 86.4702C52.9879 86.5351 52.311 86.6 51.6599 86.6674L64.9634 94.3509C64.315 93.6347 63.7444 92.8458 63.2593 92.0025Z" fill="#008CA8"/>
<path fill-rule="evenodd" clip-rule="evenodd" d="M86.6873 92.0025L96.2687 86.4702C96.9561 86.5351 97.633 86.6 98.2841 86.6674L84.9832 94.3509C85.6316 93.6347 86.2022 92.8458 86.6873 92.0025Z" fill="#008CA8"/>
<path fill-rule="evenodd" clip-rule="evenodd" d="M70.7134 93.2942C66.483 92.3756 64.7322 90.2893 64.7322 90.2893C65.5985 92.0538 66.9084 93.564 68.5139 94.6721C68.5139 94.6721 70.2958 94.1557 70.7134 93.2942Z" fill="#008CA8"/>
<path fill-rule="evenodd" clip-rule="evenodd" d="M68.1235 88.7738C67.8252 88.4831 67.5217 88.1795 67.2209 87.8682C65.8721 88.3378 65.1043 88.862 64.6997 89.2175C65.6361 90.1101 67.4206 91.296 70.6239 91.9629C70.2348 90.8626 69.2388 89.8766 68.1235 88.7738Z" fill="#008CA8"/>
<path fill-rule="evenodd" clip-rule="evenodd" d="M74.89 98.7583C73.4868 98.7817 72.4856 99.324 72.151 99.4486C71.8008 98.7869 71.391 98.1148 71.0045 97.5206C72.2106 97.6685 73.2715 97.4427 73.2715 97.4427C72.7657 97.2766 71.4636 96.8355 69.7517 95.7067C69.7491 95.7067 69.7465 95.7042 69.7465 95.7042C69.8944 95.6419 70.0448 95.5744 70.1979 95.4992C70.1979 95.4992 70.2005 95.4966 70.2005 95.494C70.6518 95.2682 71.1057 94.975 71.4636 94.6065C71.8916 94.1654 72.1847 93.6179 72.1847 92.938C72.1847 90.8362 70.7711 90.1278 69.1811 88.5579C68.8621 88.2439 68.5197 87.9195 68.1721 87.577C69.6298 87.1852 71.6115 86.879 74.2779 86.8323L74.916 95.7509H75.0093L75.6682 86.8323C78.3346 86.879 80.3136 87.1852 81.7739 87.577C81.4264 87.9195 81.084 88.2439 80.7649 88.5579C79.175 90.1278 77.7613 90.8362 77.7613 92.938C77.7613 93.6179 78.0544 94.1654 78.4824 94.6065C78.8404 94.975 79.2917 95.2682 79.743 95.494C79.7456 95.4966 79.7482 95.4992 79.7482 95.4992C79.9012 95.5744 80.0517 95.6419 80.1969 95.7042C80.1969 95.7042 80.1969 95.7067 80.1943 95.7067C78.4824 96.8355 77.1803 97.2766 76.6745 97.4427C76.6745 97.4427 77.7328 97.6685 78.9415 97.5206C78.555 98.1148 78.1452 98.7869 77.7925 99.4486C77.4605 99.324 76.4593 98.7817 75.056 98.7583H74.89Z" fill="#008CA8"/>
<path fill-rule="evenodd" clip-rule="evenodd" d="M81.4334 94.6717C83.039 93.5636 84.3462 92.0534 85.2152 90.2915C85.2152 90.2915 83.4644 92.3752 79.2339 93.2938C79.6489 94.1553 81.4334 94.6717 81.4334 94.6717Z" fill="#008CA8"/>
<path fill-rule="evenodd" clip-rule="evenodd" d="M79.322 91.9631C82.5253 91.2962 84.3099 90.1104 85.2462 89.2177C84.8416 88.8597 84.0738 88.3355 82.7251 87.8684C82.4242 88.1798 82.1181 88.4834 81.8224 88.774C80.7045 89.8768 79.7111 90.8629 79.322 91.9631Z" fill="#008CA8"/>
<path fill-rule="evenodd" clip-rule="evenodd" d="M72.1058 57.5687C72.1058 57.5687 70.5548 56.5437 70.3058 54.364C70.3058 54.364 68.2956 57.7322 72.1058 57.5687Z" fill="#FEFEFE"/>
<path fill-rule="evenodd" clip-rule="evenodd" d="M77.9529 57.5687C77.9529 57.5687 79.504 56.5437 79.753 54.364C79.753 54.364 81.7657 57.7322 77.9529 57.5687Z" fill="#FEFEFE"/>
<path fill-rule="evenodd" clip-rule="evenodd" d="M76.8129 102.02C76.5353 101.732 76.1307 101.397 74.8935 101.394C73.7263 101.392 73.319 101.69 72.9792 101.968L74.9739 109.856L76.8129 102.02Z" fill="#FEFEFE"/>
<path fill-rule="evenodd" clip-rule="evenodd" d="M89.9978 67.3669V70.255H89.0277V67.3669H88.2236V66.5417H90.7993V67.3669H89.9978Z" fill="#FEFEFE"/>
<path fill-rule="evenodd" clip-rule="evenodd" d="M85.4828 67.3669V70.255H84.5101V67.3669H83.7061V66.5417H86.2869V67.3669H85.4828Z" fill="#FEFEFE"/>
<mask id="mask1_429_2202" style="mask-type:alpha" maskUnits="userSpaceOnUse" x="19" y="18" width="112" height="114">
<path d="M19 131.79H130.911V18.0125H19V131.79Z" fill="white"/>
</mask>
<g mask="url(#mask1_429_2202)">
<path fill-rule="evenodd" clip-rule="evenodd" d="M70.2428 68.1039H71.2777V67.3695H70.2428V68.1039ZM71.8405 68.9394H72.1881V66.9414L71.7835 66.5417H69.3271V70.255H70.2428V68.9394H70.9301L71.4592 70.255H72.3671L71.8405 68.9394Z" fill="#FEFEFE"/>
<path fill-rule="evenodd" clip-rule="evenodd" d="M95.5872 67.3681V66.543H92.8638V70.2562H95.5872V69.4207H93.8131V68.8109H95.5872V67.9779H93.8131V67.3681H95.5872Z" fill="#FEFEFE"/>
<path fill-rule="evenodd" clip-rule="evenodd" d="M75.4734 69.4216V66.5413H74.5215V70.2545H76.8429V69.4216H75.4734Z" fill="#FEFEFE"/>
<path fill-rule="evenodd" clip-rule="evenodd" d="M79.5596 69.4221H80.6127V67.3695H79.5596V69.4221ZM81.1133 66.5417H78.6492V69.8372L79.0642 70.255H81.5231V66.9543L81.1133 66.5417Z" fill="#FEFEFE"/>
<path fill-rule="evenodd" clip-rule="evenodd" d="M65.1435 68.2103H66.1992V67.3669H65.1435V68.2103ZM67.1381 70.255L67.1329 66.9569L66.7231 66.5417H64.2097V70.255H65.1435V69.0484H66.1966V70.255H67.1381Z" fill="#FEFEFE"/>
<path fill-rule="evenodd" clip-rule="evenodd" d="M61.2461 66.5417V68.2103H60.1982V66.5417H59.2644V70.255H60.1982V69.0484H61.2461V70.255H62.1772V66.5417H61.2461Z" fill="#FEFEFE"/>
<path fill-rule="evenodd" clip-rule="evenodd" d="M116.947 40.1827C118.752 35.9375 120.112 32.9326 120.112 32.9326C105.062 42.7127 91.6292 51.4808 83.9439 56.5045C83.6508 57.3219 83.3162 58.0666 82.9504 58.749L113.264 42.2275L89.6009 59.3251L90.6929 59.1279L103.198 57.9187C103.198 57.9187 111.648 57.1013 116.351 50.7776C118.563 47.3809 122.332 37.4555 122.332 37.4555L116.947 40.1827Z" fill="#FEFEFE"/>
<path fill-rule="evenodd" clip-rule="evenodd" d="M44.5181 79.7475L47.4335 78.4916V85.1111C48.2661 84.9969 49.1272 84.8905 49.9987 84.7867L49.9961 70.2554H47.4361C47.4309 70.2373 47.4309 75.4633 47.4335 75.4893L44.5181 76.7193L44.5207 70.2554H41.9424V77.778C41.9424 77.778 39.8207 78.7952 39.8311 78.8159L41.9424 79.872V85.9726C42.7699 85.8221 43.644 85.6794 44.5181 85.5392V79.7475Z" fill="#FEFEFE"/>
<path fill-rule="evenodd" clip-rule="evenodd" d="M64.5083 74.8779H67.4133C67.4133 75.5915 67.4081 76.51 67.4081 77.1562C66.4381 77.1691 65.4784 77.1873 64.5109 77.2029L64.5083 74.8779ZM64.5109 79.7043C65.1515 79.6862 65.7767 79.668 66.4199 79.6524C66.892 80.8824 67.3796 82.2785 67.8517 83.511C68.6998 83.4877 69.5558 83.4669 70.4169 83.4513C69.9449 82.2136 69.465 80.8253 68.9955 79.6005C69.3198 79.5954 69.6466 79.5876 69.976 79.585L69.9734 73.6427L68.8373 72.5217H60.9678L61.9404 73.6816V83.7653C62.7886 83.7186 63.642 83.6745 64.5109 83.6356V79.7043Z" fill="#FEFEFE"/>
<path fill-rule="evenodd" clip-rule="evenodd" d="M74.5305 74.8779H77.4745V83.4176C78.359 83.4254 79.2772 83.4384 80.1513 83.4565V73.6868L78.9789 72.5217H70.9355L71.903 73.6816V83.428C72.7745 83.4176 73.6461 83.4098 74.5305 83.4072V74.8779Z" fill="#FEFEFE"/>
<path fill-rule="evenodd" clip-rule="evenodd" d="M89.758 81.372C88.0954 81.2837 86.4587 81.2085 84.7961 81.1514C84.7883 80.5416 84.7883 79.9344 84.7883 79.3272C86.4535 79.3739 88.0954 79.431 89.758 79.5011V76.9373C88.0928 76.8932 86.4431 76.8543 84.7831 76.8257C84.7805 76.3327 84.7805 75.4972 84.7805 74.877H89.758V72.5234H81.1233L82.0804 73.6756V83.5075C84.7079 83.5828 87.2783 83.6996 89.758 83.8553V81.372Z" fill="#FEFEFE"/>
<path fill-rule="evenodd" clip-rule="evenodd" d="M96.2259 74.8779H98.4384V72.5217H91.1836V74.8779H93.4402V84.1234C94.3662 84.1987 95.3311 84.2765 96.2259 84.3621V74.8779Z" fill="#FEFEFE"/>
<path fill-rule="evenodd" clip-rule="evenodd" d="M57.4586 81.4981C56.4704 81.5604 55.5029 81.6227 54.5147 81.6953V74.8786H57.4612L57.4586 81.4981ZM60.0394 73.6824L58.8774 72.5225H50.9819L51.9157 73.646L51.9183 83.2419L52.9376 84.4563C55.202 84.2279 57.5935 84.0333 60.0368 83.875L60.0394 73.6824Z" fill="#FEFEFE"/>
<path fill-rule="evenodd" clip-rule="evenodd" d="M107.734 79.8206C108.528 79.4651 109.327 79.1018 110.123 78.7281C107.563 77.5423 105.001 76.4628 102.438 75.4664L102.433 72.5523H105.151V73.611H107.734V70.2559H98.8896L99.8727 71.395V77.4021L105.151 79.696V83.0538C105.151 83.0538 103.927 82.8981 102.435 82.7061V81.6292L99.8727 81.323V84.7508C102.677 85.0778 105.309 85.4618 107.734 85.89C107.732 84.0632 107.734 81.1803 107.734 79.8206Z" fill="#FEFEFE"/>
<path fill-rule="evenodd" clip-rule="evenodd" d="M56.2454 69.1018V69.4209H55.4154V67.3684H56.2454V67.6746H57.1765V66.5432H54.4998V69.8387L54.9174 70.2539H57.1765V69.1018H56.2454Z" fill="#FEFEFE"/>
<path fill-rule="evenodd" clip-rule="evenodd" d="M33.0029 40.1827C31.1976 35.9375 29.8384 32.9326 29.8384 32.9326C44.8876 42.7127 58.3208 51.4808 66.0062 56.5045C66.2993 57.3219 66.6339 58.0666 66.9996 58.749L36.686 42.2275L60.3491 59.3251L59.2572 59.1279L46.7525 57.9187C46.7525 57.9187 38.302 57.1013 33.5994 50.7776C31.3869 47.3809 27.6182 37.4555 27.6182 37.4555L33.0029 40.1827Z" fill="#FEFEFE"/>
<path fill-rule="evenodd" clip-rule="evenodd" d="M47.3804 68.2144H39.7521V76.4972L35.1663 78.7444L39.7521 81.1394V88.5011L44.8177 91.602C46.6853 91.3581 49.0664 91.07 51.8235 90.7898L71.404 102.08L74.9731 118.506C74.9964 118.467 78.5784 102.08 78.5784 102.08L98.1252 90.7898C100.885 91.07 103.266 91.3581 105.131 91.602L110.191 88.5011V81.1394L114.788 78.7963L110.191 76.4972V68.2144H102.568C102.568 68.2144 103.749 67.0726 105.245 64.4985C105.87 63.4216 106.459 62.0801 107.183 60.4894C112.741 58.7976 116.842 55.2478 118.601 51.7862C123.36 43.0674 126.942 32.4077 126.942 32.4077C126.942 32.4077 124.888 33.3937 122.408 34.6185C124.421 28.4764 125.63 23.2633 125.63 23.2633C125.63 23.2633 103.673 37.7946 86.5699 51.4463L85.0888 50.5562C85.094 50.4161 85.1355 49.168 85.1355 49.0642C85.1355 49.0642 85.3015 47.6136 82.7492 46.747C82.591 46.6925 82.4432 46.6432 82.2953 46.5939C83.5326 45.6649 85.4572 44.2429 86.8604 43.2802C89.0988 41.744 88.8343 40.0548 88.8343 40.0548L80.7209 46.0956C74.4517 44.0613 69.2278 46.0956 69.2278 46.0956L61.1171 40.0548C61.1171 40.0548 60.8499 41.744 63.0884 43.2802C64.4942 44.2429 66.4162 45.6649 67.656 46.5939C67.5082 46.6432 67.3577 46.6925 67.2021 46.747C64.6472 47.6136 64.8184 49.0642 64.8184 49.0642C64.8184 49.168 64.8547 50.4161 64.8625 50.5562L63.3789 51.4463C46.278 37.7946 24.3242 23.2633 24.3242 23.2633C24.3242 23.2633 25.5278 28.4764 27.5405 34.6185C24.8871 33.3055 23.0066 32.4077 23.0066 32.4077C23.0066 32.4077 26.5886 43.0674 31.3508 51.7862C33.1068 55.2478 37.2076 58.7976 42.7661 60.4894C42.7661 60.4894 43.705 62.6432 44.5169 64.1897C45.5181 66.1021 47.3804 68.2144 47.3804 68.2144ZM126.359 37.2471C123.954 43.6798 120.761 50.2942 119.166 53.0292C116.476 57.6325 111.12 60.3778 107.979 61.3898C107.979 61.3898 106.454 65.072 104.882 67.0986H111.294V75.8199L117.384 78.7366L111.286 81.8115L111.278 89.1265L105.367 92.7385C105.367 92.7385 100.657 92.1547 98.3638 91.916L79.6237 102.742C75.8653 119.712 74.9757 124.653 74.9757 124.653C74.9757 124.653 74.0938 119.993 70.3276 102.742L51.5849 91.916C49.292 92.1547 44.5817 92.7385 44.5817 92.7385L38.6705 89.1265L38.6601 81.8115L32.5673 78.7366L38.6549 75.8199V67.0986H45.0667C43.5234 65.168 41.9698 61.3898 41.9698 61.3898C40.0841 60.7723 38.3021 59.916 36.6992 58.891C34.1677 57.2796 32.0926 55.2452 30.7828 53.0292C28.2305 48.527 25.2295 41.7492 23.5902 37.2471C22.506 34.5017 21.1572 30.3084 21.1572 30.3084C21.1572 30.3084 24.6459 31.9769 25.7171 32.5011C24.0467 27.4956 22.6331 20.8319 22.6331 20.8319V20.8293C22.6331 20.8293 46.6334 36.614 63.467 50.1151L63.7342 49.9516C63.7264 49.6714 63.7186 49.3885 63.7186 49.0953C63.7135 48.9267 63.7238 48.5945 63.8639 48.1845C64.0584 47.6292 64.4942 46.9338 65.472 46.337C64.2348 45.4288 62.0067 43.89 61.8122 43.6746C60.1833 42.2604 59.9084 40.6672 60.0329 39.8835L60.3104 38.0879L69.4431 44.8916C74.4102 43.4696 77.9196 44.1728 80.5056 44.8916L89.6383 38.0879L89.9159 39.8835C90.0404 40.6672 89.7654 42.2604 88.1391 43.6746C87.9498 43.877 85.7113 45.4288 84.4793 46.337C85.452 46.9338 85.8903 47.6292 86.0849 48.1845C86.2249 48.5945 86.2379 48.9267 86.2275 49.0953C86.2275 49.3885 86.2249 49.6714 86.2145 49.9516L86.4817 50.1151C103.717 36.3052 127.316 20.8293 127.316 20.8293V20.8319C127.316 20.8319 126.141 26.3175 124.232 32.5011C125.139 32.06 128.792 30.3084 128.792 30.3084C127.757 33.6402 126.359 37.2471 126.359 37.2471Z" fill="#A0A0A4"/>
</g>
</svg>
