<svg width="150" height="150" viewBox="0 0 150 150" fill="none" xmlns="http://www.w3.org/2000/svg">
<g clip-path="url(#clip0_429_2315)">
<mask id="mask0_429_2315" style="mask-type:alpha" maskUnits="userSpaceOnUse" x="20" y="15" width="110" height="111">
<path d="M129.973 15.2275H20.0007V125.887H129.973V15.2275Z" fill="white"/>
</mask>
<g mask="url(#mask0_429_2315)">
<path fill-rule="evenodd" clip-rule="evenodd" d="M121.27 69.7504L116.886 68.2805C123.585 65.5697 130.576 60.1559 129.932 48.8386C129.487 41.0069 126.072 34.1633 124.029 30.0677L116.609 15.2273L118.085 31.2181C118.543 36.2297 118.378 42.8337 116.492 46.418C113.975 51.6506 105.628 51.0754 102.639 50.8757C97.3604 50.5242 80.1679 49.9384 74.9529 49.9384C67.9853 49.9676 60.3413 50.5295 54.1221 50.9875C51.1631 51.2059 48.6088 51.395 46.8909 51.4589C46.7125 51.4642 46.4541 51.4882 46.1079 51.5201C35.2064 52.5267 33.3526 47.4192 32.7401 45.7389C31.6108 42.642 31.6401 35.6998 31.6534 32.7093L31.7013 19.6797L25.9803 30.2568C24.281 33.4017 21.1195 39.2494 20.0434 49.1262C19.3163 63.0346 28.0737 67.0848 30.9502 68.4136C31.3391 68.5947 31.728 68.7625 32.1168 68.9196C31.8798 68.9942 31.656 69.0661 31.443 69.1406C29.5679 69.7797 27.6209 70.6691 27.0323 70.9434L23.7643 72.4985L25.8977 75.465C26.1667 75.8298 26.8778 76.7672 27.6609 77.5368C29.6372 79.4807 34.6231 82.567 40.7197 81.8107C42.8531 81.5471 44.5391 81.1637 45.8415 80.7722C46.0679 81.4326 46.3183 82.125 46.574 82.7587C48.4437 87.4029 52.6919 96.2437 54.2899 99.3167C55.342 101.341 56.3914 103.186 57.2037 104.589L57.1318 104.651C56.9534 104.81 56.7989 104.949 56.5832 105.167L55.8587 106.03L55.8134 107.05C55.7681 108.011 55.5497 116.615 61.5025 123.022L61.9979 123.501L62.5706 123.72C65.3672 124.79 69.0108 125.887 74.8437 125.887C80.8551 125.887 85.8916 124.444 87.8253 123.467L88.3873 123.166L88.7548 122.732C92.7953 117.952 94.5718 110.948 94.6517 108.024L94.7156 107.942L94.6544 107.894L94.5744 106.72L93.4558 105.585C93.2108 105.351 93.0243 105.172 92.8725 104.927C93.2907 104.102 93.802 103.039 94.3587 101.876L94.4732 101.636C94.8008 100.954 95.0778 100.374 95.2403 100.057C96.7851 97.0506 101.292 87.3842 103.079 82.8173C103.457 81.856 103.774 81.0625 104.043 80.4127C105.329 80.8015 107.023 81.1743 109.191 81.398C115.283 82.0318 121.052 78.2664 123.047 75.5236C123.153 75.3798 123.302 75.1987 123.406 75.0736L126.152 71.8515L122.413 70.1632C122.362 70.1419 122.13 70.0433 121.27 69.7504Z" fill="#FEFEFE"/>
</g>
<path fill-rule="evenodd" clip-rule="evenodd" d="M127.273 48.9893C126.858 41.6982 123.592 35.1581 121.643 31.249L121.411 30.7829L120.561 29.0867L120.734 30.9773C120.974 33.5897 121.552 42.5157 118.891 47.5726C115.594 54.4323 105.894 53.7692 102.706 53.5482L102.463 53.5322C97.2242 53.1834 80.1835 52.5789 74.9631 52.6002C68.0595 52.6295 60.4421 53.1914 54.3188 53.6414C51.3225 53.8624 48.7309 54.0541 46.9864 54.1207C46.8452 54.126 46.6375 54.1447 46.3552 54.1713C37.7709 54.9702 32.3481 52.4404 30.236 46.6512C28.9416 43.0989 28.9762 36.0768 28.9895 32.7029L28.9922 31.6937L28.9975 30.277L28.3237 31.5232C26.7096 34.5057 23.7106 40.0579 22.7012 49.2662C22.1365 60.1202 27.775 64.0134 32.0685 65.9973C36.551 68.0717 41.1321 68.3699 42.637 68.4685L42.7462 68.4765L42.7036 68.4711C43.0125 68.5271 43.3668 68.543 43.7397 68.559C44.2031 68.5803 44.7038 68.6069 45.2179 68.7028C44.4055 68.8599 43.3375 69.0437 42.3999 69.2034C41.4012 69.3739 40.4583 69.5363 39.9682 69.6402C38.9508 69.8559 34.6307 70.8651 32.3029 71.6586C30.3266 72.335 28.1985 73.3389 28.1772 73.3469L27.7883 73.5307L28.0413 73.8795C28.0706 73.9195 28.7844 74.9101 29.5275 75.6397C31.0484 77.1363 35.2806 79.8045 40.3917 79.1681C44.4774 78.6621 46.6668 77.7141 47.5111 77.2667C47.7748 78.1455 48.4087 80.18 49.0452 81.7644C50.8857 86.3393 55.0752 95.055 56.652 98.0854C57.9278 100.538 59.1929 102.716 60.0319 104.157L60.3329 104.676C60.0585 105.616 59.4033 106.202 58.9133 106.631C58.7828 106.745 58.6709 106.844 58.575 106.942L58.4791 107.038L58.4738 107.174C58.4338 108.018 58.2368 115.594 63.3905 121.144L63.4464 121.205L63.5237 121.234C66.0912 122.217 69.4445 123.226 74.8433 123.226C80.3513 123.226 84.983 121.918 86.6077 121.098L86.6743 121.066L86.7222 121.01C90.3179 116.758 91.9532 110.361 91.9932 108.037V107.888L91.8893 107.781C91.8014 107.691 91.7082 107.6 91.6096 107.507C91.0503 106.969 90.3578 106.303 89.961 104.729C90.4004 103.978 91.2581 102.186 91.9559 100.727C92.3474 99.9095 92.683 99.2038 92.8694 98.8417C94.3929 95.8778 98.8355 86.3499 100.599 81.8469C101.715 79.0003 102.341 77.5756 102.612 76.9871C103.393 77.4079 105.494 78.3399 109.465 78.75C114.616 79.2826 119.528 75.8341 120.894 73.9567C121.123 73.6398 121.515 73.1845 121.517 73.1818L121.826 72.8197L121.395 72.6253C121.366 72.612 121.19 72.5374 120.423 72.2738L117.573 71.3205L114.731 70.3671C113.956 70.1035 110.477 69.3499 107.942 68.7987L106.019 68.3806L106.647 68.2661C112.528 67.2249 128.152 64.4581 127.273 48.9893Z" fill="#2D2925"/>
<path fill-rule="evenodd" clip-rule="evenodd" d="M24.0342 45.8557C24.8918 41.422 26.3088 37.2758 28.2424 33.2948L28.2637 33.2468H28.317H28.357V33.332V33.2468H28.4422L28.4395 33.3347C28.3863 34.525 28.3516 35.75 28.3516 36.9856C28.3516 39.9227 28.5541 42.9105 29.2093 45.5947L29.2732 45.8557L29.0734 45.6773C28.2185 44.913 27.3688 44.0369 26.4846 43.278C25.7068 44.1488 24.9611 45.0941 24.1754 45.9276L23.9783 46.138L24.0342 45.8557Z" fill="#C21F32"/>
<path fill-rule="evenodd" clip-rule="evenodd" d="M125.761 44.0371L125.681 44.0557L125.758 44.0317C124.623 40.2877 123.609 36.4957 121.752 33.0605L121.595 33.1032C121.67 34.2935 121.707 35.4758 121.707 36.6502C121.707 39.5234 121.483 42.3408 121.017 45.0756L120.99 45.2354L121.137 45.1635C122.048 44.7241 122.911 44.1329 123.843 43.7362L126.086 45.3579L125.761 44.0371Z" fill="#C21F32"/>
<path fill-rule="evenodd" clip-rule="evenodd" d="M89.0958 84.082L88.9226 84.1592C87.6469 84.7211 86.3391 85.2803 84.9568 85.5546C84.0619 85.7836 83.1536 85.9034 82.2561 85.9034C79.4514 85.9007 76.772 84.7424 75.1154 82.2046L75.0621 82.1221L74.9902 82.1886C74.6573 82.4816 74.4548 82.8464 74.1086 83.1579C72.3427 85.1897 69.7805 85.97 67.1623 85.97C65.1301 85.97 63.066 85.4986 61.3401 84.7797L61.1616 84.7078L61.2282 84.8888C62.5546 88.3959 63.3669 92.2891 63.3669 96.2009C63.3669 97.9557 63.2045 99.7106 62.8502 101.439C62.6079 102.65 62.203 103.907 61.8807 105.09L61.8275 105.273L61.9979 105.186C65.7347 103.207 70.2972 102.203 74.8464 102.203C79.1531 102.203 83.4493 103.1 87.0236 104.914C87.6122 105.156 88.1636 105.566 88.7016 105.739L88.8614 105.79L88.8081 105.633C87.7667 102.547 87.1515 99.2686 87.1515 95.8361V95.6896C87.1461 95.4712 87.1435 95.2529 87.1435 95.0372C87.1435 91.2852 87.9292 87.5917 89.0345 84.2604L89.0958 84.082Z" fill="#C21F32"/>
<path fill-rule="evenodd" clip-rule="evenodd" d="M52.5576 87.71C52.1581 87.2147 51.8332 86.6741 51.7133 86.043L51.676 85.8513L51.8412 85.9551C52.5123 86.3892 53.2501 86.5676 54.0065 86.5676C55.5673 86.5676 57.208 85.8007 58.4358 84.9379L58.4918 84.8979L58.5397 84.9485L58.5823 84.9885L58.5211 85.0471L58.5823 84.9885L58.609 85.0151L58.6063 85.0551C58.4358 86.6501 57.8685 88.4742 56.1772 89.1C55.9242 89.1639 55.6792 89.1932 55.4395 89.1932C54.3048 89.1932 53.3194 88.5328 52.5576 87.71Z" fill="#C21F32"/>
<path fill-rule="evenodd" clip-rule="evenodd" d="M92.254 87.1031C91.8918 86.5626 91.6921 85.9794 91.5749 85.3217L91.5349 85.1033L91.708 85.2391C92.547 85.9022 93.6044 86.1898 94.6858 86.1898C95.9562 86.1898 97.256 85.793 98.2548 85.1486L98.4545 85.0208L98.38 85.2471C97.8846 86.6904 96.6327 88.1656 95.1119 88.4958C94.9814 88.5145 94.8482 88.5251 94.7177 88.5251C93.7216 88.5251 92.824 87.9872 92.254 87.1031Z" fill="#C21F32"/>
<path fill-rule="evenodd" clip-rule="evenodd" d="M94.1984 89.2215C94.3955 89.2641 94.5952 89.2801 94.795 89.2801C95.3676 89.2801 95.9429 89.1283 96.5049 88.9525L96.6727 88.8993L96.6061 89.0617C94.51 94.3023 91.9797 99.3699 89.3669 104.4L89.279 104.568L89.2151 104.389C88.6877 102.943 88.5386 101.407 88.5386 99.8359C88.5386 98.6828 88.6185 97.5111 88.6931 96.3395C89.0686 92.9602 89.8836 89.7062 90.8931 86.5772L90.9543 86.3855L91.0475 86.5639C91.6681 87.7729 92.8454 89.0191 94.1931 89.2215" fill="#C21F32"/>
<path fill-rule="evenodd" clip-rule="evenodd" d="M61.098 104.42C57.9365 99.5973 55.5341 94.4978 53.2142 89.3238L53.113 89.1001L53.3288 89.2146C53.9573 89.5528 54.8017 89.8191 55.6034 89.8191C56.1467 89.8191 56.6661 89.6993 57.1002 89.4037C58.115 88.6927 58.7116 87.5743 59.1138 86.4452L59.1777 86.2588L59.2656 86.4372C61.0101 89.9629 61.8465 94.2342 61.8465 98.4576C61.8465 100.457 61.6573 102.449 61.2898 104.348L61.2845 104.372L61.2685 104.391L61.154 104.505L61.098 104.42Z" fill="#C21F32"/>
<path fill-rule="evenodd" clip-rule="evenodd" d="M63.8768 120.567L63.8608 120.559L63.8475 120.545C60.6274 117.012 59.4128 112.469 59.2371 107.662V107.617L59.2743 107.59C63.5092 104.507 69.1717 102.877 74.7543 102.877C78.4191 102.877 82.0521 103.58 85.2242 105.037C87.2511 105.942 89.2034 106.933 90.9932 108.371L90.9426 108.437L90.9932 108.371L91.0305 108.4L91.0252 108.445C90.4819 112.969 88.8652 117.001 86.0099 120.497L85.9966 120.516L85.978 120.524C82.5794 121.848 78.5736 122.564 74.5865 122.564C70.8283 122.564 67.0862 121.93 63.8768 120.567Z" fill="#C21F32"/>
<path fill-rule="evenodd" clip-rule="evenodd" d="M120.528 73.0455C120.528 73.0455 118.536 72.2813 118.024 72.0896C112.564 70.0338 105.543 68.7796 99.5772 68.6358C99.0072 61.9918 98.2428 57.8376 96.9484 54.0829L96.9298 54.0323L96.8765 54.027C93.8002 53.8486 80.1581 53.3 74.8845 53.3C69.6082 53.3 56.2111 54.1309 53.1375 54.3093L53.0842 54.312L53.0656 54.3652C51.8271 57.9442 50.4181 62.4045 49.7629 68.974C43.7329 69.3441 35.6174 71.0697 30.1547 73.1254C29.7578 73.2746 29.4702 73.4157 29.2731 73.5195C29.1772 73.5728 29.1026 73.6154 29.0494 73.6447C29.036 73.65 29.0254 73.658 29.0147 73.6633L28.8496 73.4743L28.9082 73.7752C28.9109 73.7938 28.9189 73.8071 28.9295 73.8178C29.7658 74.7658 32.8421 78.4539 38.5552 78.5817C38.6484 78.5844 38.7443 78.5844 38.8455 78.5844C40.7126 78.5844 43.8741 78.2222 45.9888 77.2982C46.5029 77.0692 47.5017 76.6591 47.7733 76.5499C47.8745 76.7417 48.1755 77.3248 48.3247 77.7429C48.9373 79.4445 49.667 81.8891 50.2051 82.9569C50.9988 84.5413 52.2932 85.8142 54.392 85.8621H54.4745C56.3709 85.8568 57.6787 84.3443 57.9077 84.0221L57.9956 83.8996L57.8438 83.8916C52.5622 83.6253 50.4022 80.8212 50.0426 76.5845L50.0373 76.5206L49.976 76.51C49.3528 76.3982 48.9559 76.3103 48.7109 76.1771C48.4658 76.044 48.3566 75.8789 48.2741 75.554C48.2394 75.4102 48.2235 75.2664 48.2235 75.1199C48.2235 74.6007 48.4339 74.0361 48.8254 73.3837C49.2329 72.8378 49.8348 72.2999 51.0334 72.2973C51.5288 72.2973 52.1254 72.3905 52.8525 72.6221C54.4959 73.1414 55.8143 74.2012 56.7305 75.0054C57.8278 75.9641 61.0133 79.2847 62.9443 80.4458C64.0789 81.1248 65.8022 81.7586 67.5574 81.7586C68.961 81.7586 70.3859 81.3512 71.5285 80.2301C73.9842 77.8228 74.2825 75.7511 74.6048 74.4702L74.6288 74.369L74.5249 74.3663C70.2874 74.2465 66.2736 73.8311 62.5767 73.3198C62.1479 73.2586 62.0201 73.0775 62.0201 72.9257C62.0227 72.7393 62.2278 72.5183 62.5687 72.5183C62.6327 72.5183 62.7019 72.5263 62.7765 72.5449C62.7871 72.5476 69.7653 73.4716 74.6528 73.5009H74.73L74.7353 73.4237C74.7753 72.8538 74.7833 71.8552 74.8179 70.7315L74.8206 70.6463L74.7353 70.6436C71.8402 70.5797 66.9741 70.2734 62.3637 69.3441C61.9641 69.2615 61.807 69.0219 61.807 68.8222C61.8123 68.6278 61.9428 68.4573 62.2305 68.4547C62.2944 68.4547 62.3663 68.4627 62.4462 68.484C63.1334 68.665 70.6416 69.7276 74.73 69.7276H74.762L74.8472 69.7302V69.6477C74.8658 68.7742 74.8738 67.544 74.8792 66.3616V66.2791H74.7939H74.5382C71.8961 66.2791 68.0714 66.0128 62.6327 65.1846C62.1879 65.1154 62.0307 64.8997 62.0307 64.7346C62.0307 64.5642 62.1905 64.3804 62.5314 64.3778C62.5607 64.3778 62.59 64.3804 62.6247 64.3831C62.622 64.3831 69.262 65.371 74.4397 65.371C74.5595 65.371 74.6767 65.371 74.7966 65.3684H74.8792V65.2858C74.8792 64.4843 74.8738 63.5496 74.8658 62.6069V62.591C74.8685 62.0823 75.0949 61.8773 75.26 61.8773C75.4145 61.8773 75.6143 62.0557 75.6169 62.5244C75.6169 62.8812 75.6382 63.8958 75.6382 65.1633V65.2352V65.3204L75.7235 65.3178C80.7281 65.166 85.1307 64.5801 87.1975 64.21C87.3174 64.1887 87.4213 64.178 87.5118 64.178C87.922 64.186 88.0285 64.3511 88.0339 64.5109C88.0339 64.6733 87.8954 64.8624 87.6876 64.8997C87.0111 65.0222 81.2101 66.1433 75.6915 66.2631H75.6089L75.6116 66.3457C75.6116 67.3203 75.6489 68.5852 75.6649 69.6157L75.6675 69.7009L75.7501 69.6983C79.4603 69.5651 83.7564 69.4266 87.4453 68.6118C87.6184 68.5745 87.7675 68.5559 87.898 68.5559C88.3268 68.5612 88.4867 68.7316 88.4867 68.8754C88.4946 69.0432 88.2709 69.2988 87.7436 69.3867C84.1266 69.9885 78.9116 70.609 75.7767 70.6329H75.6915L75.6942 70.7182C75.7155 71.6209 75.7235 72.7153 75.7687 73.4317L75.7741 73.5116H75.854C81.7721 73.3704 87.376 72.5289 88.3295 72.3638C88.3988 72.3532 88.4627 72.3479 88.5239 72.3479C88.8942 72.3505 89.0646 72.5502 89.0646 72.7366C89.0646 72.9204 88.9022 73.1441 88.4547 73.208C87.4133 73.3518 80.4697 74.2465 76.0244 74.3584L75.9152 74.361L75.9445 74.4649C76.384 75.9694 76.4692 78.161 78.6532 80.0384C79.7213 80.9571 81.1569 81.3698 82.6377 81.3698C84.0973 81.3698 85.6022 80.9677 86.8486 80.2487C88.8009 79.1196 91.8852 75.7404 92.9799 74.7818C93.8908 73.9829 95.9683 72.0629 98.7436 72.0629C98.7835 72.0629 98.8208 72.0629 98.8607 72.0656C100.286 72.0949 100.981 72.4704 101.346 72.8778C101.713 73.2879 101.753 73.7406 101.841 73.9855C101.905 74.1586 101.958 74.393 101.958 74.63C101.956 74.9762 101.849 75.317 101.503 75.53C101.018 75.8309 100.56 75.7511 100.046 75.9854L100.006 76.004L99.998 76.0466C99.6358 78.3634 98.9087 80.997 97.0922 82.3737C96.1121 83.1193 94.8469 83.5374 93.8269 83.7691C92.8094 84.0008 92.0397 84.0407 92.0397 84.0407L91.8639 84.0514L91.9811 84.1818C91.9811 84.1818 92.4126 84.6532 92.5564 84.7916C92.8787 85.0952 93.7922 85.5373 94.9881 85.5399C95.116 85.5399 95.2465 85.5346 95.3796 85.5266C96.6874 85.4148 98.1949 84.4215 98.8368 83.7611C99.8089 82.4989 100.701 79.8786 101.362 78.193C101.593 77.5911 102.123 76.5499 102.339 76.0147C102.877 76.2677 103.191 76.4354 104.22 76.8508C106.356 77.7056 109.064 78.0811 110.884 78.0811C110.987 78.0811 111.089 78.0811 111.187 78.0784C114.16 78.0012 117.521 76.2038 119.548 74.3264C119.902 73.9962 120.56 73.1787 120.562 73.176L120.634 73.0855L120.528 73.0455Z" fill="#C21F32"/>
<path fill-rule="evenodd" clip-rule="evenodd" d="M78.0395 109.547C77.7252 110.074 77.5867 110.679 77.5867 111.294C77.5867 112.29 77.9542 113.31 78.5295 114.053C78.5642 114.101 78.6121 114.122 78.668 114.125C78.732 114.125 78.8039 114.09 78.8571 114.032V113.978C78.8625 113.39 78.4816 112.879 78.4763 112.231C78.4763 112.082 78.4976 111.923 78.5535 111.76L78.6094 111.587L78.7027 111.741C79.2833 112.7 80.2155 113.305 81.1903 113.629C81.5712 113.728 81.952 113.779 82.3223 113.779C83.622 113.776 84.8286 113.19 85.6809 112.141C86.0857 111.574 86.3947 110.855 86.3947 110.152C86.3947 109.822 86.3281 109.494 86.1683 109.182C85.5557 107.989 84.3119 107.3 83.0627 107.095C82.8496 107.071 82.6366 107.06 82.4235 107.06C80.615 107.06 78.9237 107.87 78.0395 109.547Z" fill="#2D2925"/>
<path fill-rule="evenodd" clip-rule="evenodd" d="M70.9572 114.525C71.0611 114.53 71.1862 114.411 71.2715 114.264C71.7456 113.519 72.0678 112.549 72.0678 111.604C72.0678 110.983 71.9293 110.374 71.6097 109.841L71.6816 109.798L71.6071 109.836C71.109 108.882 70.0916 108.113 69.1221 107.788C68.5681 107.61 67.9821 107.516 67.4015 107.516C66.0112 107.516 64.6528 108.049 63.7952 109.194C63.4649 109.628 63.2998 110.187 63.2998 110.744C63.2998 111.034 63.3451 111.324 63.4383 111.596C63.8938 112.869 65.1029 113.875 66.3841 114.118C66.6717 114.168 66.954 114.195 67.2284 114.195C68.7199 114.195 70.033 113.465 70.9652 112.184L71.0584 112.057L71.1117 112.206C71.1516 112.318 71.1676 112.437 71.1676 112.555C71.1649 112.818 71.0984 113.085 71.0717 113.298C71.0264 113.673 70.7308 113.963 70.7415 114.222C70.7415 114.307 70.7654 114.389 70.84 114.488C70.8853 114.514 70.9226 114.525 70.9572 114.525Z" fill="#2D2925"/>
<path fill-rule="evenodd" clip-rule="evenodd" d="M64.2141 119.44C67.4688 118.074 71.3601 117.283 75.2247 117.283C78.1412 117.283 81.039 117.733 83.6412 118.729C84.2937 119.006 84.9835 119.233 85.6414 119.438C85.8065 119.222 85.8865 119.174 85.9983 118.985C82.8235 117.427 79.0947 116.703 75.3472 116.703C71.3494 116.703 67.3303 117.528 63.9424 119.036C64.009 119.206 64.0942 119.315 64.2141 119.44Z" fill="#2D2925"/>
<path fill-rule="evenodd" clip-rule="evenodd" d="M67.0528 95.378C68.9998 97.8039 71.9083 98.8771 74.8807 98.8797C75.9727 98.8797 77.0727 98.7333 78.1354 98.4563C83.0921 97.0823 86.0831 91.6819 87.1059 86.9579C86.962 86.8247 86.8342 86.7954 86.6478 86.7395C86.0272 89.5196 84.8419 92.2491 83.0867 94.5472C80.9879 97.1036 77.8904 98.3951 74.8407 98.3951C73.7567 98.3951 72.678 98.2326 71.6499 97.9051C67.1141 96.4911 64.757 91.5168 64.3175 87.0138C64.131 87.0164 64.0059 87.0271 63.8594 87.1283C64.1683 90.2306 65.0979 92.9947 67.0528 95.378Z" fill="#2D2925"/>
<path fill-rule="evenodd" clip-rule="evenodd" d="M30.1884 48.7086C32.7879 53.7229 38.0295 55.3393 43.3617 55.0836C46.3448 55.057 49.2106 54.7481 52.1564 54.559L52.1537 54.7641C50.6542 58.9875 49.6847 63.2881 49.0642 67.7165C41.3455 67.9988 33.4324 67.3889 27.73 62.2362C23.868 58.3084 22.8826 52.9213 23.7215 47.6008C24.6431 46.5091 25.5886 45.593 26.5501 44.5012C27.8152 45.8087 29.8395 46.8765 30.1884 48.7086Z" fill="#FEFEFE"/>
<path fill-rule="evenodd" clip-rule="evenodd" d="M126.177 46.4575C126.371 47.2324 126.408 47.9647 126.483 48.7769C126.851 54.7152 124.286 60.1901 119.217 63.2125C113.669 66.5572 107.258 67.7022 100.456 67.87C100.341 67.2602 100.267 66.4853 100.19 65.7956C99.6516 61.8891 98.9165 57.94 97.8218 54.1933C105.104 54.1107 113.962 56.0307 118.77 49.3468C119.412 48.4147 120.053 47.5626 120.615 46.5507C121.692 46.0687 122.728 45.3817 123.766 44.8171C124.64 45.2698 125.303 45.9649 126.177 46.4575Z" fill="#FEFEFE"/>
<path fill-rule="evenodd" clip-rule="evenodd" d="M98.5033 76.5193C98.5326 78.7961 97.8055 81.1501 95.768 82.2366C94.8118 82.7612 93.6985 82.9582 92.6225 82.9103C92.5852 82.7106 92.5053 82.4629 92.5878 82.2206C94.2578 82.2712 95.8532 81.6694 96.7348 80.2926C97.3367 79.2781 97.5791 78.141 97.5871 76.8814C97.8668 76.719 98.1837 76.5992 98.5033 76.5193Z" fill="#FEFEFE"/>
<path fill-rule="evenodd" clip-rule="evenodd" d="M57.4078 82.7018C57.1069 82.7524 56.963 82.8296 56.3984 82.7044C53.719 82.7044 50.917 80.5581 51.0795 76.9206C51.3964 76.7981 51.7533 76.846 52.081 76.9525C52.081 79.0163 52.9146 81.8363 57.2986 81.8363C57.5969 82.3157 57.3093 82.3636 57.4078 82.7018Z" fill="#FEFEFE"/>
</g>
<defs>
<clipPath id="clip0_429_2315">
<rect width="150" height="150" fill="white"/>
</clipPath>
</defs>
</svg>
