<svg width="150" height="150" viewBox="0 0 150 150" fill="none" xmlns="http://www.w3.org/2000/svg">
<path fill-rule="evenodd" clip-rule="evenodd" d="M97.3176 49.7454C95.8902 49.5982 92.837 50.3952 88.1099 52.3826C81.0545 55.3479 72.7141 61.6095 67.4061 67.308C61.7157 73.4193 50.4132 87.546 50.5652 94.1151C50.5652 94.3454 50.7366 95.2048 51.6839 95.5729L52.0999 95.7024C55.5388 96.4963 60.3634 95.965 70.8706 92.6942C70.8706 92.6942 86.9162 87.8326 106.865 79.0842L112.609 75.8886L109.667 90.7305L109.323 91.0282C94.5332 103.873 71.6483 115.949 52.2727 116.856C47.7937 117.064 42.5625 116.835 37.9538 114.993C31.8825 112.572 28.1381 108.882 26.4995 104.272C25.8434 102.942 20.2745 90.1321 35.8592 70.5708L25.7105 73.0801L33.8701 60.4495C50.3893 46.7851 99.0138 18.4241 121.723 40.0225L123.489 41.8196V49.0494C123.489 49.0494 87.2777 70.1724 87.4666 69.8347C87.793 69.238 95.3574 54.3143 95.3574 54.3143C96.2936 52.4772 96.9319 50.968 97.3176 49.7454Z" fill="#FCB61A" stroke="white" stroke-linecap="round"/>
<path fill-rule="evenodd" clip-rule="evenodd" d="M98.5522 47.311C96.2239 46.5622 92.0121 47.8727 87.0914 49.9499C79.6277 53.0861 70.9819 59.5849 65.4706 65.504C60.113 71.2665 47.729 86.2894 47.921 94.18C47.9336 94.513 47.956 94.8412 48.0041 95.1578C46.8104 94.169 46.0837 92.7303 46.0263 90.6581C45.839 82.7689 58.2167 67.7508 63.5695 61.9946C69.0856 56.074 77.738 49.5769 85.1951 46.4342C92.9178 43.1777 98.8899 41.7903 98.5522 47.311Z" fill="#000840"/>
<path fill-rule="evenodd" clip-rule="evenodd" d="M121.068 42.9941L121.125 47.6556L93.7504 64.2181C94.0416 63.9204 97.1301 57.9515 97.3174 57.5259L121.068 42.9941Z" fill="#000840"/>
<path fill-rule="evenodd" clip-rule="evenodd" d="M40.3521 66.7568C37.4557 67.453 34.5257 68.1778 31.9172 68.8211C32.279 68.3363 34.9641 64.6445 35.5786 63.8445C38.7775 63.0956 42.0596 62.3577 45.0312 61.668C43.591 63.1003 41.9907 64.8189 40.3521 66.7568Z" fill="#000840"/>
<path fill-rule="evenodd" clip-rule="evenodd" d="M107.596 89.032C93.0592 101.656 70.7232 113.344 52.1511 114.223C47.8 114.421 43.0201 114.168 38.941 112.53C33.3675 110.309 30.2791 107.086 28.9622 103.308C30.6775 105.577 33.2971 107.518 37.04 109.022C41.1302 110.643 45.9102 110.906 50.2612 110.694C70.3024 109.764 94.7139 96.2282 108.988 82.511L107.596 89.032Z" fill="#000840"/>
<path fill-rule="evenodd" clip-rule="evenodd" d="M119.875 41.9241L97.7097 55.5149C107.226 36.8707 90.0878 41.2458 78.6398 47.9843C72.1284 51.4056 64.6649 58.3315 62.3238 60.826C43.2779 81.1057 29.9382 108.209 71.6419 95.2279C71.6419 95.2279 87.8523 90.32 107.975 81.4739C51.0118 129.594 -2.75428 109.472 50.1507 58.8819C45.3357 59.9827 40.4743 61.0293 35.7183 62.3591C52.6583 48.3411 99.1307 22.1886 119.875 41.9241Z" fill="#690031"/>
</svg>
