<svg width="150" height="150" viewBox="0 0 150 150" fill="none" xmlns="http://www.w3.org/2000/svg">
<mask id="mask0_429_2422" style="mask-type:alpha" maskUnits="userSpaceOnUse" x="22" y="22" width="106" height="106">
<path d="M22 22.0864H128V127.805H22V22.0864Z" fill="white"/>
</mask>
<g mask="url(#mask0_429_2422)">
<path fill-rule="evenodd" clip-rule="evenodd" d="M25.6756 93.0083C24.8283 91.7476 22 86.956 22 79.2285C22 76.3266 22.4008 73.0156 23.4448 69.3356C23.4533 69.3129 23.4562 69.2886 23.4604 69.2621L23.9154 67.4785L24.0282 67.5899C24.0979 67.3788 24.1723 67.1592 24.245 66.9373C24.6115 65.8348 24.9938 64.6802 25.0823 64.4071C25.1421 64.1712 25.4774 62.8497 25.7411 61.9297C25.821 61.6502 25.888 61.4227 25.9581 61.2258L25.975 61.0953C26.0606 60.41 26.169 59.7525 26.2974 59.1163C26.3429 58.7748 26.4016 58.4446 26.4485 58.1658L26.4686 58.0438L26.5184 57.9312C26.5484 57.8548 26.577 57.7943 26.597 57.7477C27.9148 52.3586 30.385 49.1716 31.7743 47.7268L31.7914 47.709L31.8085 47.6911C32.0796 47.4394 32.844 46.7263 33.7226 46.1792C34.1249 45.6508 35.437 43.95 36.6407 42.6028C37.0516 42.1486 37.4425 41.7351 37.8119 41.4005C38.01 40.9441 38.4893 39.9721 39.3879 38.8488C40.5772 37.3591 42.5241 35.6025 45.4924 34.5151C47.7714 32.9669 50.1848 31.5997 52.6923 30.4174C53.1714 29.9218 54.9899 28.1225 57.8155 26.3134C61.1002 24.216 65.7684 22.0894 71.2882 22.0864C71.4978 22.0864 71.7101 22.0901 71.9214 22.0965L73.9323 22.1556L71.442 25.5016C72.7672 25.4019 74.1065 25.3505 75.4584 25.3505C82.5957 25.3505 89.4105 26.7447 95.6118 29.2628L95.6418 29.2749L95.6689 29.2878C95.9127 29.4041 96.3393 29.6165 96.7828 29.8903C97.158 30.1301 97.5403 30.3725 97.8769 30.7447C98.302 30.7933 99.2118 30.9407 100.227 31.3966L100.259 31.4093L100.285 31.4236C106.999 34.9437 112.847 39.8423 117.411 45.7379L117.453 45.7898L117.485 45.8477C117.557 45.9659 117.736 46.3284 117.89 47.0927C117.968 47.142 118.076 47.2097 118.197 47.2911C118.444 47.4565 118.72 47.6433 118.989 47.9136L119.049 47.9764L119.1 48.0483C124.715 56.2017 128 66.0232 128 76.5848C128 86.5944 125.049 95.943 119.953 103.833L119.933 103.862L119.914 103.887C119.833 103.992 119.796 104.027 119.722 104.098C119.656 104.162 119.573 104.233 119.468 104.313C119.314 104.432 119.111 104.569 118.855 104.722C118.835 104.819 118.806 104.95 118.769 105.095C118.685 105.414 118.589 105.787 118.335 106.197L118.321 106.219L118.301 106.248C108.782 119.308 93.133 127.816 75.4584 127.816C52.3427 127.815 32.7027 113.263 25.6756 93.0083Z" fill="white"/>
<path fill-rule="evenodd" clip-rule="evenodd" d="M118.238 48.6439C117.936 48.3316 117.226 47.9166 117.226 47.9166C116.965 47.8167 116.913 47.5791 116.913 47.5791C116.771 46.6963 116.584 46.3796 116.584 46.3796C112.11 40.6041 106.38 35.8024 99.7996 32.3515C98.6242 31.823 97.5659 31.7667 97.5659 31.7667C97.3263 31.7739 97.2151 31.5849 97.2151 31.5849C96.827 31.038 95.6575 30.4424 95.2197 30.2336C89.1367 27.7652 82.4601 26.399 75.4584 26.399C73.3335 26.399 71.2453 26.528 69.1914 26.772L71.8899 23.1435C61.0903 22.8211 53.3398 31.2582 53.3398 31.2582L53.344 31.2696C50.7538 32.4756 48.2737 33.8804 45.9402 35.478L45.9459 35.4644C40.3148 37.4861 38.6889 42.0261 38.6889 42.0261C37.2627 43.2191 34.4359 46.9724 34.4359 46.9724C33.6271 47.4387 32.784 48.2096 32.5303 48.4529C31.2353 49.8005 28.8589 52.8429 27.5939 58.0823C27.561 58.1694 27.5197 58.2514 27.4811 58.3398C27.4327 58.6314 27.3756 58.9616 27.33 59.2882C27.2073 59.9108 27.0989 60.5555 27.0133 61.2286L27.0676 61.1552C27.0477 61.2958 27.0319 61.3794 27.0319 61.3794C26.8992 61.4706 26.0891 64.6988 26.0891 64.6988C25.9581 65.1083 24.4873 69.5303 24.4873 69.5303L24.4774 69.5211C24.4746 69.5303 24.4746 69.5417 24.4746 69.5496C20.6038 83.0751 25.7455 91.2726 26.6211 92.5341C33.4602 112.432 52.7407 126.768 75.4584 126.768C92.7922 126.768 108.126 118.425 117.454 105.63C117.719 105.215 117.853 104.364 117.853 104.364C117.863 104.086 118.073 103.958 118.073 103.958C118.792 103.571 119.04 103.307 119.071 103.265C124.066 95.5366 126.952 86.3884 126.952 76.5848C126.952 66.2408 123.738 56.6303 118.238 48.6439Z" fill="#061922"/>
</g>
<path fill-rule="evenodd" clip-rule="evenodd" d="M53.8475 38.9239C53.9816 38.7841 54.1042 38.6578 54.2096 38.5395C54.3837 38.3597 54.4509 38.3155 54.4723 38.3284C54.4978 38.3061 54.5092 38.2927 54.5092 38.2927C54.5549 35.7196 55.1368 33.653 55.1368 33.653C59.8179 27.1121 67.5412 25.3791 67.5412 25.3791C68.5011 25.1033 67.882 25.5274 67.882 25.5274C63.0185 30.976 63.5248 35.478 63.5248 35.478L68.1674 52.4135C68.1674 52.4135 64.4048 51.09 61.5065 45.1395C60.1659 57.0105 71.3623 66.6372 71.3623 66.6372C71.85 67.0537 71.0828 66.6015 71.0828 66.6015C68.2786 65.2018 65.0509 62.2506 64.1681 61.4221C64.4048 62.3369 69.8546 89.7323 69.8704 89.813C69.8962 89.9405 69.9702 90.2051 70.0272 90.3812L71.9157 85.6902L73.4759 99.523C66.3789 106.128 58.8195 103.512 58.353 103.34C58.5343 103.637 58.6769 103.854 58.6769 103.854C58.6769 103.854 64.8185 115.91 89.821 114.632C89.821 114.632 90.4202 114.628 90.329 114.706C90.3389 114.725 90.3061 114.754 90.1948 114.793C89.7228 114.965 88.9881 115.083 88.9881 115.083C58.7995 123.147 43.156 97.4229 42.4801 96.2745C42.2889 96.0123 40.8255 93.9469 40.0068 91.8682C39.9825 91.8074 39.9469 91.6035 40.0866 91.762C40.0866 91.762 43.2929 95.1008 52.3556 95.9275C52.424 95.921 52.4612 95.9116 52.4612 95.9116C45.4523 88.0985 42.4744 82.4397 42.0349 81.5733C42.0349 81.5713 42.0322 81.5713 42.0265 81.5713C42.0265 81.5713 41.1851 80.3039 40.1865 76.7153C40.1865 76.7153 40.2121 76.5355 40.2977 76.7153C40.6387 77.4284 42.9593 80.8486 45.7804 81.6132H45.7861C43.3929 77.7494 41.9037 71.6363 41.7127 70.7434C44.9773 75.3119 50.7553 75.6406 50.7553 75.6406C50.7466 75.625 50.7396 75.6135 50.7255 75.5957C50.7396 75.6156 50.7439 75.6285 50.7439 75.6285C41.2362 66.1438 43.2845 55.818 47.1439 48.3631C49.4161 43.9608 52.3199 40.559 53.8475 38.9239Z" fill="white"/>
<path fill-rule="evenodd" clip-rule="evenodd" d="M82.2962 101.707L76.0576 108.272C76.0633 108.267 76.0676 108.264 76.0718 108.259L83.771 102.35L79.7858 88.6039L81.5258 72.0732L78.4851 87.8593L82.2962 101.707Z" fill="#BBC4CA"/>
<path fill-rule="evenodd" clip-rule="evenodd" d="M83.6824 61.2622C83.139 64.0856 82.2503 66.9759 80.7102 68.266C80.8243 68.2089 80.961 68.1347 81.1208 68.0413C81.5831 67.7667 82.1992 67.3311 82.8166 66.6927C84.049 65.4126 85.2857 63.3182 85.2857 60.0285C85.2857 58.5572 85.0389 56.8463 84.4327 54.863C84.3714 55.9992 84.1874 58.6006 83.6824 61.2622Z" fill="#BBC4CA"/>
<path fill-rule="evenodd" clip-rule="evenodd" d="M83.6169 40.1711C85.7904 36.8871 89.3618 36.6033 90.8766 36.5877C89.5687 36.2053 88.3521 36.0647 87.2682 36.0647C84.9732 36.0641 83.2659 36.6954 82.56 37.0089C82.4571 37.0555 82.376 37.0945 82.3162 37.1238C82.8752 37.9048 83.4257 39.5679 83.6169 40.1711ZM83.5825 40.4258L83.6881 40.3951L83.5825 40.4258Z" fill="#BBC4CA"/>
<path fill-rule="evenodd" clip-rule="evenodd" d="M78.157 48.8493L78.2513 48.7978L78.157 48.8493ZM80.8698 47.0665C80.9241 47.0735 80.964 47.1184 80.9668 47.1712C80.9725 47.4756 80.9754 47.7809 80.9754 48.0876C80.9725 55.1583 79.0971 62.9002 78.3795 65.5901C81.0895 59.398 81.8183 53.6116 81.8183 49.1694C81.8183 46.5665 81.5687 44.427 81.3177 42.938C81.1865 42.1621 81.0553 41.5659 80.9611 41.1702C80.2737 46.493 78.2498 48.9077 78.2397 48.9191C78.217 48.9469 78.1799 48.9618 78.1471 48.9575C78.1086 48.954 78.0772 48.9334 78.0601 48.9012C74.7297 42.7547 69.8189 39.0049 67.574 37.5174C67.186 37.2593 66.878 37.0703 66.6726 36.9468C73.0081 50.7133 74.8622 61.3341 75.3387 64.8356C75.353 64.4321 75.3615 64.0219 75.3615 63.6063C75.3615 57.3185 73.7527 49.7363 72.9468 46.3425C72.6787 45.2107 72.5006 44.5462 72.5006 44.5447C72.489 44.4996 72.5063 44.452 72.546 44.4257C72.5832 44.3999 72.6346 44.4027 72.6745 44.4306C75.5212 46.6449 77.521 52.9263 77.8746 54.0915C78.4053 53.4318 79.1041 51.7859 79.669 50.2739C80.2822 48.6368 80.7515 47.1441 80.7528 47.1419C80.7671 47.0955 80.81 47.0657 80.8556 47.0657C80.8613 47.0657 80.8656 47.0665 80.8698 47.0665Z" fill="#BBC4CA"/>
<path fill-rule="evenodd" clip-rule="evenodd" d="M27.5681 75.6154C27.5711 82.162 28.6964 89.0134 34.3302 97.7541L34.3389 97.7663C39.6587 108.974 49.4672 115.007 54.04 117.321C55.5619 118.092 56.4975 118.449 56.5061 118.453C63.7715 121.878 70.6063 123.136 76.7306 123.136C89.5558 123.137 99.2773 117.609 103.334 114.846C104.689 113.926 105.408 113.315 105.408 113.313L105.479 113.396L105.409 113.313C105.679 113.091 105.881 112.915 106.029 112.783C105.948 112.827 105.867 112.876 105.787 112.924C105.496 113.097 105.229 113.27 105.228 113.272C95.2609 119.121 86.0757 120.909 78.5793 120.909C66.8323 120.909 59.2332 116.529 59.226 116.526C34.323 103.466 33.9594 80.83 33.9594 80.8144C33.9594 80.7636 33.9909 80.7196 34.042 80.7075C34.0919 80.6953 34.1405 80.7181 34.1648 80.7628C37.3781 86.9872 41.2734 89.1111 43.0077 89.7857C43.2587 89.8827 43.4626 89.949 43.6139 89.9931C36.3726 80.8677 34.2987 73.1886 34.2987 67.3986C34.2987 59.7296 37.93 55.388 37.9386 55.3773C37.9701 55.3394 38.0242 55.3265 38.0686 55.3488C38.1155 55.3701 38.1383 55.4185 38.1298 55.4679C37.6107 58.1707 37.4138 60.556 37.411 62.6219C37.4138 67.6739 38.5976 70.8184 39.1852 72.0697C39.2024 72.1062 39.2195 72.1417 39.2366 72.1746C39.017 70.3355 38.9186 68.5598 38.9186 66.8496C38.9186 49.7792 48.921 39.2624 51.0318 37.2322C49.4516 37.8947 47.532 39.592 45.9687 41.1936C44.2372 42.9637 42.9308 44.6082 42.9278 44.611C42.8993 44.6467 42.8509 44.6616 42.808 44.6467C42.7653 44.6303 42.7338 44.5889 42.7368 44.5425C42.751 43.1882 43.5241 41.483 43.9433 40.658C42.6569 41.8275 41.5885 43.6617 40.8284 45.265C39.9869 47.0407 39.5218 48.5254 39.5218 48.5289L39.4992 48.5683C35.5369 53.0518 33.6199 57.8391 32.911 59.9486C32.6729 60.6523 32.5731 61.0538 32.5731 61.0538C32.4818 61.4175 32.4303 61.5958 32.3819 61.6878C32.3591 61.7136 32.3591 61.7627 32.2564 61.7776C32.1736 61.7726 32.1508 61.7149 32.1421 61.6957C32.1309 61.6707 32.128 61.6508 32.1252 61.6287C32.1195 61.5844 32.1167 61.533 32.1167 61.4754C32.1167 61.2671 32.1421 60.9811 32.1421 60.9811C32.2179 57.7585 33.5571 54.1349 34.0963 52.7956C30.2995 56.8792 29.3696 62.416 29.3696 66.841C29.3696 68.9326 29.5779 70.774 29.786 72.0911C29.9942 73.4084 30.1997 74.1971 30.1997 74.1991L30.2025 74.2264C30.2126 76.8285 30.7246 80.0448 31.2323 82.6092C31.743 85.1723 32.245 87.0779 32.245 87.075C32.4132 87.5721 32.4761 87.8003 32.4818 87.925C32.4789 87.9478 32.4789 87.9685 32.4675 87.9992C32.4588 88.0299 32.4047 88.0776 32.3534 88.0741C32.2693 88.0634 32.2592 88.0307 32.2306 88.0071C32.208 87.9806 32.1822 87.9491 32.1594 87.9129C32.111 87.8417 32.0567 87.7482 32.0054 87.6562C31.9055 87.4786 31.8142 87.3025 31.8142 87.3002C29.1627 83.2384 27.8692 76.5383 27.5723 74.8482C27.5711 75.1034 27.5681 75.3587 27.5681 75.6154Z" fill="#BBC4CA"/>
<path fill-rule="evenodd" clip-rule="evenodd" d="M85.9845 43.6439L85.9304 43.594L85.9559 43.5248C87.174 40.2714 92.8949 37.3789 94.006 36.8364C91.3444 35.3422 88.7914 34.8938 86.672 34.893C85.0687 34.893 83.7182 35.1525 82.7682 35.4107C81.8183 35.6689 81.2763 35.9243 81.2763 35.9243V35.9249L81.1979 35.9613L81.1465 35.8941C80.1611 34.6646 78.8788 33.4403 77.8434 32.5261C76.8506 31.6497 76.0889 31.0584 76.0234 31.0091C75.8778 30.9143 75.7867 30.8595 75.7751 30.7224C75.7751 30.6433 75.8322 30.5892 75.8751 30.5663C75.9207 30.5406 75.9691 30.5279 76.0234 30.5172C76.1289 30.4972 76.2544 30.4929 76.3657 30.4929C76.5041 30.4929 76.6196 30.5008 76.6482 30.5023C99.4628 30.5086 111.592 46.8096 111.595 46.8138C111.753 46.9963 111.832 47.1739 111.832 47.3438C111.812 47.8357 111.255 48.0698 110.752 48.228C110.24 48.3835 109.732 48.4399 109.732 48.4399C107.53 48.7466 105.485 48.8799 103.596 48.8799C91.7353 48.8799 85.9986 43.6561 85.9845 43.6439Z" fill="#0064B1"/>
<path fill-rule="evenodd" clip-rule="evenodd" d="M78.2085 109.548C78.1698 109.536 78.1426 109.504 78.1341 109.464C78.1257 109.425 78.1426 109.384 78.1726 109.358L85.8276 103.2L81.9439 88.8166L81.9424 88.7759L83.0149 79.1308C83.0177 79.0971 83.0348 79.0686 83.0635 79.051C83.0891 79.0331 83.1233 79.028 83.1533 79.0373C84.8948 79.5729 85.7106 81.9406 86.1327 84.1526C86.4296 85.7365 86.5137 87.2534 86.5392 87.9921C88.5718 83.5942 89.2351 80.0615 89.2351 77.3222C89.2351 73.4412 87.9042 71.1521 87.2481 70.2535C87.0299 69.9541 86.8872 69.8135 86.8872 69.8135C86.8458 69.7715 86.8458 69.7036 86.8872 69.6602C86.9286 69.6181 86.9971 69.616 87.0398 69.6573C96.1567 78.2935 97.988 90.3812 97.988 98.7156C97.988 104.344 97.1523 108.268 97.1523 108.273L97.1494 108.285C96.8485 109.173 95.9285 109.399 95.9142 109.403C92.2031 110.226 88.9312 110.495 86.2441 110.495C81.2022 110.495 78.2169 109.55 78.2085 109.548Z" fill="#0064B1"/>
<path fill-rule="evenodd" clip-rule="evenodd" d="M99.6425 108.503C99.5 108.39 99.4115 108.199 99.4144 107.934C99.4144 107.812 99.4301 107.673 99.4685 107.51C99.4685 107.507 99.7652 106.367 100.062 104.4C100.356 102.433 100.652 99.6471 100.652 96.3723C100.652 87.6899 98.5701 75.5779 88.8969 66.163C88.8599 66.1389 88.7245 66.0447 88.6345 65.9462C88.6032 65.9056 88.5675 65.8706 88.5632 65.7907C88.5605 65.7394 88.6004 65.6774 88.6446 65.6603C88.6887 65.6382 88.7257 65.6345 88.7716 65.6345C88.8685 65.6345 88.9996 65.6575 89.2079 65.7131C89.2165 65.7173 91.7865 66.4969 93.5924 68.5228C93.5765 68.3966 93.5552 68.2376 93.5296 68.0493C93.4497 67.5351 93.3128 66.8099 93.0703 65.9656C92.5883 64.2775 91.6925 62.1174 90.0552 60.2303C90.0522 60.2291 89.8255 59.9915 89.7015 59.826C89.6643 59.7625 89.6301 59.7397 89.6188 59.647C89.6188 59.6264 89.6244 59.5886 89.6529 59.5601C89.6843 59.5301 89.7213 59.5244 89.7412 59.5244C89.8211 59.5307 89.854 59.5572 89.9324 59.6028C90.0051 59.6492 90.1036 59.7176 90.2362 59.8174C90.8154 60.0977 115.112 71.8539 115.964 95.5951C115.964 95.5972 115.976 95.7326 115.976 95.9466C115.974 96.5243 115.884 97.6817 115.116 98.3414C114.881 98.6345 109.124 105.796 100.652 108.546C100.647 108.547 100.396 108.644 100.113 108.646C99.9549 108.644 99.7823 108.616 99.6425 108.503Z" fill="#0064B1"/>
<path fill-rule="evenodd" clip-rule="evenodd" d="M117.919 91.7903C117.853 91.6206 117.819 91.3847 117.809 91.068C117.257 68.2246 92.2131 53.8442 85.9532 50.615C85.0603 50.1537 84.5555 49.9198 84.5555 49.9198L84.1147 49.7164L84.5982 49.7114C84.6181 49.7114 84.6381 49.7114 84.6582 49.7114C87.9414 49.7137 89.9525 51.6954 90.5487 52.3795V52.3787C90.5487 51.7781 90.4302 51.147 90.3119 50.6664C90.1891 50.1849 90.0708 49.8585 90.0708 49.8585L89.9897 49.6345L90.2105 49.7194C92.8321 50.7179 96.2109 51.0493 99.5228 51.0486C102.723 51.0486 105.867 50.7391 108.206 50.4304C110.547 50.1209 112.08 49.8119 112.083 49.8119L112.088 49.8106L112.094 49.8099C112.217 49.7992 112.334 49.7943 112.442 49.7943C113.774 49.7913 114.199 50.5409 114.256 50.6706C117.386 54.1609 121.265 62.2542 121.913 71.9729C121.992 73.193 122.03 74.3776 122.03 75.5201C122.024 84.0464 119.984 90.2616 118.785 91.7355C118.609 91.9453 118.451 92.0778 118.264 92.0835C118.102 92.0835 117.982 91.9587 117.919 91.7903Z" fill="#0064B1"/>
<path fill-rule="evenodd" clip-rule="evenodd" d="M64.6074 27.7651C64.6216 27.7458 64.6431 27.7281 64.6503 27.7046L64.6431 27.7075C64.3649 27.7867 59.3757 29.2585 57.8981 36.8671C57.8981 36.8671 57.8867 37.0061 57.9681 36.8778C58.4173 36.1375 59.9749 33.7777 61.4096 34.4779C61.4096 34.4779 61.4182 34.4203 61.4296 34.3219C61.5065 33.6779 61.9743 31.0335 64.6074 27.7651Z" fill="#061922"/>
<path fill-rule="evenodd" clip-rule="evenodd" d="M60.782 96.5362C59.7037 94.3697 52.7791 79.2404 52.7791 79.2404C50.6227 79.9285 47.9512 78.1729 47.9512 78.1729C47.9512 78.1758 47.9512 78.1808 47.9512 78.1808C51.3599 87.2305 59.38 95.1455 60.6592 96.5804C60.6706 96.5898 60.6736 96.5918 60.6793 96.6005C60.8961 96.8386 60.8961 96.7508 60.8961 96.7508C60.8648 96.7067 60.8333 96.6318 60.782 96.5362Z" fill="#061922"/>
<path fill-rule="evenodd" clip-rule="evenodd" d="M53.9159 47.2704C47.663 61.5596 61.732 67.4509 61.9175 67.5236L61.9232 67.5264L61.1786 64.2352L60.7535 62.3504C60.3968 62.2348 60.0733 62.1066 59.7522 61.9639C59.6438 61.9176 59.5384 61.864 59.4327 61.8163C59.303 61.7529 59.1703 61.6907 59.0477 61.6266C52.9003 58.3575 53.4965 50.5316 53.876 47.99C53.876 47.9699 53.876 47.9543 53.879 47.9364C53.8931 47.863 53.9045 47.7903 53.9159 47.7233C53.9529 47.485 53.9844 47.3231 54.0043 47.2369C54.0102 47.1983 54.0157 47.1727 54.0157 47.1727C54.0157 47.1655 54.0157 47.1655 54.0157 47.1628C54.0328 46.9723 53.9445 47.1896 53.9159 47.2704Z" fill="#061922"/>
<path fill-rule="evenodd" clip-rule="evenodd" d="M63.1725 87.4942L62.1598 69.5388L68.1974 89.5588C68.1974 89.5588 66.2161 84.8278 63.1725 87.4942Z" fill="#BBC4CA"/>
<path fill-rule="evenodd" clip-rule="evenodd" d="M63.5362 35.8686L64.8741 46.6049C64.8741 46.6049 65.5272 49.5387 61.5066 45.1393C64.4048 51.0899 68.1675 52.4134 68.1675 52.4134L63.5605 35.6082C63.5519 35.6376 63.5206 35.6661 63.5362 35.8686Z" fill="#BBC4CA"/>
<path fill-rule="evenodd" clip-rule="evenodd" d="M57.1208 55.4523C56.7456 54.5694 56.5932 53.7608 56.5932 53.039C56.5945 50.4297 58.5143 48.9619 58.5228 48.9534L58.58 48.9107C58.58 48.937 58.483 47.2526 58.6398 44.5625C57.0965 46.8354 53.8247 52.2232 57.7412 56.4328C57.6784 56.3451 57.6216 56.2659 57.5686 56.189C57.3676 55.8966 57.2278 55.6605 57.1208 55.4523Z" fill="#BBC4CA"/>
<path fill-rule="evenodd" clip-rule="evenodd" d="M61.2126 57.6374C60.5481 56.4712 58.851 52.753 58.5856 48.9883C58.5814 48.964 58.5799 48.937 58.5799 48.9106L58.5227 48.9533C58.5142 48.9618 56.5944 50.4296 56.5931 53.0389C56.5931 53.7607 56.7455 54.5693 57.1207 55.4523C57.2277 55.6604 57.3675 55.8965 57.5685 56.1889C57.6215 56.2659 57.6784 56.345 57.7411 56.4328C57.814 56.5263 57.8981 56.6126 57.9894 56.7108C58.6469 57.4291 59.7623 58.1722 61.5893 58.2513C61.5893 58.2513 61.438 58.0366 61.2126 57.6374Z" fill="#061922"/>
<path fill-rule="evenodd" clip-rule="evenodd" d="M69.6963 100.23C69.6963 100.233 69.6963 100.237 69.6963 100.238C69.6963 100.231 69.6978 100.223 69.6978 100.215C69.6978 100.213 69.6978 100.211 69.6963 100.21C69.6963 100.216 69.6963 100.223 69.6963 100.23Z" fill="#BBC4CA"/>
<path fill-rule="evenodd" clip-rule="evenodd" d="M66.6755 91.7392C67.3001 91.7464 67.7751 92.3161 68.1645 93.1076C68.5568 93.9058 68.8691 94.9582 69.1115 96.0087C69.4141 97.3173 69.608 98.6244 69.7136 99.4226C69.7107 99.7827 69.7078 100.047 69.6978 100.2C69.6978 100.205 69.6978 100.21 69.6978 100.213C69.8303 99.3477 71.0999 90.956 66.8353 89.7745C66.8353 89.7745 63.8686 89.0163 64.0598 95.1986C64.0784 95.0572 64.094 94.9341 64.1052 94.8198C65.0795 92.6312 65.8938 91.7563 66.6755 91.7392Z" fill="#BBC4CA"/>
<path fill-rule="evenodd" clip-rule="evenodd" d="M69.7136 99.4224C69.6963 99.1607 69.414 97.3171 69.1115 96.0085C68.8691 94.958 68.5568 93.9056 68.1645 93.1074C67.7751 92.3159 67.3001 91.7462 66.6755 91.739C65.8938 91.7561 65.0794 92.631 64.1052 94.8196C64.0454 94.9786 64.0597 94.9994 64.0597 95.1984L65.5286 98.4352C65.5286 98.4352 66.373 89.7692 69.6906 100.187C69.6936 100.207 69.6936 100.223 69.6963 100.23C69.6963 100.223 69.6963 100.216 69.6963 100.21C69.6978 100.211 69.6978 100.213 69.6978 100.215C69.6978 100.214 69.6978 100.213 69.6978 100.213C69.6978 100.21 69.6978 100.205 69.6978 100.2C69.7077 100.047 69.7447 99.8552 69.7136 99.4224Z" fill="#061922"/>
</svg>
