<svg width="150" height="150" viewBox="0 0 150 150" fill="none" xmlns="http://www.w3.org/2000/svg">
<path fill-rule="evenodd" clip-rule="evenodd" d="M75.5127 27C88.4357 27 100.603 32.048 109.782 41.229C118.945 50.39 124 62.577 124 75.489C124 102.245 102.259 124 75.5127 124C62.5587 124 50.3767 118.962 41.2027 109.777C32.0607 100.612 26.9997 88.434 26.9997 75.489C26.9997 62.577 32.0607 50.39 41.2027 41.229C50.3767 32.048 62.5587 27 75.5127 27Z" fill="#FFC627" stroke="white"/>
<path fill-rule="evenodd" clip-rule="evenodd" d="M75.5195 120.12C100.115 120.12 120.121 100.113 120.121 75.4871C120.121 50.9061 100.115 30.8801 75.5195 30.8801C50.8955 30.8801 30.8795 50.9061 30.8795 75.4871C30.8795 100.113 50.8955 120.12 75.5195 120.12Z" fill="#8B2332"/>
<path fill-rule="evenodd" clip-rule="evenodd" d="M34.2749 75.4884C34.2749 52.7684 52.7749 34.2754 75.5149 34.2754C98.2499 34.2754 116.725 52.7684 116.725 75.4884C116.725 98.2264 98.2499 116.724 75.5149 116.724C52.7749 116.724 34.2749 98.2264 34.2749 75.4884Z" fill="#0D2240"/>
<path fill-rule="evenodd" clip-rule="evenodd" d="M108.031 58.1993L108.952 57.6843L105.984 53.0803L105.153 53.6803C100.104 47.3113 91.1423 40.2093 82.6123 39.1343C89.0343 42.0663 96.2593 49.5553 100.671 55.3283L96.0363 58.6973L96.5933 59.5533L75.6553 73.1563L54.7173 59.5533L55.2783 58.6973L50.6163 55.3283C55.0573 49.5553 62.2643 42.0663 68.6943 39.1343C60.1743 40.2083 51.2043 47.2943 46.1963 53.6573L45.3273 53.0313L42.3583 57.6253L43.2843 58.1613L43.2603 58.1993C39.5733 65.4413 36.8643 76.6363 39.5033 84.8263C39.4343 77.7503 43.2363 68.0173 46.6513 61.5383L51.6523 64.3563L52.1693 63.5663L71.6133 75.7883L45.9663 92.4533L45.9273 92.4023L42.4893 93.3293L42.5263 93.4143C42.3583 94.0533 42.6733 95.2373 43.4043 96.3673C44.1333 97.5293 45.0543 98.2943 45.7443 98.4213L45.8033 98.5163L48.0863 95.7573L48.0663 95.7063L99.1513 63.5663L99.6503 64.3563L104.665 61.5383C108.075 68.0173 111.882 77.7503 111.838 84.8263C114.475 76.6363 111.733 65.4413 108.031 58.1993Z" fill="#FFC627"/>
<path fill-rule="evenodd" clip-rule="evenodd" d="M105.394 92.4023L105.355 92.4533L81.7555 77.1233L77.6225 79.5703L103.249 95.7063L103.221 95.7563L105.498 98.5163L105.567 98.4213C106.256 98.2943 107.178 97.5293 107.908 96.3673C108.617 95.2363 108.953 94.0523 108.785 93.4143L108.827 93.3293L105.394 92.4023Z" fill="#FFC627"/>
<path fill-rule="evenodd" clip-rule="evenodd" d="M79.7031 43.2623L77.9291 45.5803L75.4731 39.7183V66.7923L83.7211 56.2353L92.0191 58.3743L79.7031 43.2623Z" fill="#FFC627"/>
<path fill-rule="evenodd" clip-rule="evenodd" d="M79.7031 49.609V43.262L77.9291 45.581L79.7031 49.609Z" fill="white"/>
<path fill-rule="evenodd" clip-rule="evenodd" d="M75.4731 39.7178L60.5051 57.9638L67.1111 56.2838L75.4731 66.7928V39.7178Z" fill="white"/>
<path fill-rule="evenodd" clip-rule="evenodd" d="M66.6875 107.998C68.8055 105.962 71.5035 104.719 74.4135 104.445V100.387H63.2325C63.4985 103.342 64.7395 105.99 66.6875 107.998Z" fill="#FFC627"/>
<path fill-rule="evenodd" clip-rule="evenodd" d="M74.4141 111.759V106.959C72.2431 107.224 70.2341 108.136 68.5821 109.634C70.3011 110.78 72.2821 111.53 74.4141 111.759Z" fill="#FFC627"/>
<path fill-rule="evenodd" clip-rule="evenodd" d="M76.8965 86.8955V91.6815C79.0625 91.4195 81.0865 90.5205 82.7045 89.0245C81.0095 87.8695 79.0405 87.1135 76.8965 86.8955Z" fill="white"/>
<path fill-rule="evenodd" clip-rule="evenodd" d="M84.6133 90.6611C82.4913 92.6721 79.8013 93.9401 76.8973 94.1971V97.8881H88.0583C87.7193 95.0911 86.4643 92.5671 84.6133 90.6611Z" fill="white"/>
<path fill-rule="evenodd" clip-rule="evenodd" d="M74.4141 91.6808V86.8958C72.2821 87.1138 70.3011 87.8688 68.6101 89.0258C70.2341 90.5208 72.2431 91.4188 74.4141 91.6808Z" fill="white"/>
<path fill-rule="evenodd" clip-rule="evenodd" d="M76.8965 100.388V104.446C79.8005 104.719 82.5105 105.962 84.6125 107.999C86.5655 105.991 87.8515 103.342 88.0835 100.388H76.8965Z" fill="#FFC627"/>
<path fill-rule="evenodd" clip-rule="evenodd" d="M63.2583 97.8886H74.4143V94.1976C71.5033 93.9406 68.8253 92.6706 66.6873 90.6606C64.8413 92.5666 63.5863 95.0906 63.2583 97.8886Z" fill="white"/>
<path fill-rule="evenodd" clip-rule="evenodd" d="M76.8965 111.759C79.0405 111.53 81.0095 110.78 82.7045 109.634C81.0865 108.136 79.0625 107.224 76.8965 106.959V111.759Z" fill="#FFC627"/>
</svg>
