<svg width="150" height="150" viewBox="0 0 150 150" fill="none" xmlns="http://www.w3.org/2000/svg">
<mask id="mask0_429_2534" style="mask-type:alpha" maskUnits="userSpaceOnUse" x="25" y="25" width="101" height="100">
<path d="M125 25V125H25.0002V25H125Z" fill="white"/>
</mask>
<g mask="url(#mask0_429_2534)">
<path fill-rule="evenodd" clip-rule="evenodd" d="M123 75C123 101.509 101.509 123 75.0002 123C48.4892 123 27.0002 101.509 27.0002 75C27.0002 48.49 48.4892 27 75.0002 27C101.509 27 123 48.49 123 75Z" fill="#B4B2B2" stroke="white"/>
</g>
<path fill-rule="evenodd" clip-rule="evenodd" d="M121.622 75C121.622 100.749 100.748 121.623 75.0003 121.623C49.2503 121.623 28.3773 100.749 28.3773 75C28.3773 49.25 49.2503 28.377 75.0003 28.377C100.748 28.377 121.622 49.25 121.622 75Z" fill="#1D428A"/>
<path fill-rule="evenodd" clip-rule="evenodd" d="M75.0001 114.755C53.0421 114.755 35.2431 96.9559 35.2431 74.9999C35.2431 53.0419 53.0421 35.2439 75.0001 35.2439C96.9571 35.2439 114.757 53.0419 114.757 74.9999C114.757 96.9559 96.9571 114.755 75.0001 114.755Z" fill="#C8102E"/>
<path fill-rule="evenodd" clip-rule="evenodd" d="M74.9997 112.475C59.1207 112.475 45.5267 102.544 40.0777 88.5722C46.7407 97.6912 59.8937 103.912 74.9997 103.912C90.1067 103.912 103.259 97.6912 109.923 88.5722C104.474 102.544 90.8787 112.475 74.9997 112.475ZM74.9997 37.5232C90.8787 37.5232 104.475 47.4552 109.923 61.4292C103.259 52.3102 90.1077 46.0882 74.9997 46.0882C59.8927 46.0882 46.7407 52.3102 40.0777 61.4292C45.5257 47.4552 59.1207 37.5232 74.9997 37.5232ZM37.5527 76.1692H44.8697V73.8302H37.5527C37.5807 72.9452 37.6277 72.0642 37.7157 71.1962C40.3087 58.1422 56.0357 48.0682 74.9997 48.0682C93.9627 48.0682 109.691 58.1422 112.285 71.1972C112.373 72.0652 112.421 72.9452 112.448 73.8302H105.13V76.1692H112.448C112.421 77.0552 112.373 77.9352 112.285 78.8042C109.691 91.8582 93.9627 101.931 74.9997 101.931C56.0357 101.931 40.3087 91.8592 37.7157 78.8042C37.6277 77.9352 37.5807 77.0552 37.5527 76.1692ZM74.9997 35.2432C53.0787 35.2432 35.2437 53.0782 35.2437 75.0002C35.2437 96.9212 53.0787 114.755 74.9997 114.755C96.9217 114.755 114.757 96.9212 114.757 75.0002C114.757 53.0782 96.9217 35.2432 74.9997 35.2432Z" fill="#FEFEFE"/>
<path fill-rule="evenodd" clip-rule="evenodd" d="M58.2004 88.6683H61.0134V76.0383H58.2014L58.2004 88.6683Z" fill="#FEFEFE"/>
<path fill-rule="evenodd" clip-rule="evenodd" d="M68.9753 76.0444H68.8903C68.1003 76.0384 65.2293 76.0274 64.6783 76.0384L64.5353 76.0464C63.6863 76.0464 63.1473 76.4494 63.0153 77.1804C62.9923 77.2994 62.9913 77.3904 62.9923 77.3904C62.9893 77.4164 62.7973 79.7834 63.0303 80.4514C63.4073 81.5384 64.2843 81.9404 65.0913 82.1904C65.1183 82.1974 65.1453 82.2064 65.1753 82.2144C65.2263 82.2274 65.2803 82.2414 65.3313 82.2634C65.4203 82.2994 65.4823 82.3474 65.5193 82.4074L65.5313 86.9554L63.2103 86.9624L63.2193 88.6454L66.2713 88.6484H66.2733C67.3333 88.6024 68.0633 88.1384 68.3343 87.3374C68.4113 86.7204 68.4213 82.4854 68.3603 81.6014C68.3413 81.2674 68.1883 80.9994 67.8803 80.7564C67.7603 80.6634 67.6123 80.5674 67.4233 80.4624C67.2563 80.3754 67.0763 80.2864 66.9023 80.2064C66.2433 79.8844 65.4953 79.5184 65.4953 78.6774L65.4973 77.9584H67.7053C68.1583 77.9584 68.5193 77.7364 68.7543 77.3184C68.9323 76.9984 68.9803 76.6784 68.9793 76.6604C68.9983 76.4514 68.9883 76.2574 68.9803 76.1294L68.9753 76.0444Z" fill="#FEFEFE"/>
<path fill-rule="evenodd" clip-rule="evenodd" d="M80.9006 78.8812C80.9136 78.5482 80.9416 78.2982 80.9876 78.1012L81.0376 78.0522C81.1636 78.0322 81.2856 78.0242 81.4346 78.0242L81.4916 78.0252C82.4446 78.0362 82.4716 78.3222 82.4716 80.0472V85.3212C82.4716 85.4792 82.4716 85.6272 82.4616 85.7832C82.4546 85.9342 82.4376 86.0772 82.4096 86.2102L82.3586 86.2602C82.1916 86.2842 82.0306 86.2972 81.8566 86.2972C81.5066 86.2972 81.2636 86.2212 81.1126 86.0662C80.8886 85.8352 80.8816 85.4492 80.8956 85.0042V79.6782C80.8956 79.6782 80.8906 79.0862 80.9006 78.8812ZM81.8276 76.0332C81.1946 76.0332 80.5346 76.0542 80.0036 76.2042C78.6266 76.5362 77.9566 77.4562 77.9566 79.0172V86.5302C77.9566 88.4552 79.3336 88.8502 81.4006 88.8502C83.9056 88.8502 85.3416 87.9652 85.3416 86.4242L85.3456 78.5932C85.3456 76.0332 83.7146 76.0332 81.8276 76.0332Z" fill="#FEFEFE"/>
<path fill-rule="evenodd" clip-rule="evenodd" d="M91.8616 81.4058C90.5186 76.5428 88.3636 75.9998 87.4706 75.9998C87.2386 75.9998 87.0986 76.0368 87.0936 76.0388L87.0266 76.0568L87.0256 88.6768L89.8726 88.6808V83.6038L91.8556 88.6808H94.7496V76.0508H91.8616V81.4058Z" fill="#FEFEFE"/>
<path fill-rule="evenodd" clip-rule="evenodd" d="M53.6423 81.6422L52.0603 81.6442V77.9762C52.0603 77.9762 52.9203 77.9592 53.0483 77.9762C53.3603 78.0162 53.6493 78.1372 53.6493 78.5122C53.6493 78.6342 53.6423 81.6422 53.6423 81.6422ZM54.7783 76.0342L47.6823 76.0432L47.5953 76.0442L47.5913 76.1302C47.5903 76.1452 47.5303 77.6332 49.1903 77.9792V88.6722H52.1003V83.2982H54.5483C55.8403 83.2982 56.5813 82.4482 56.5813 80.9662L56.5883 80.5142C56.5883 76.9362 56.4433 76.2192 54.7783 76.0342Z" fill="#FEFEFE"/>
<path fill-rule="evenodd" clip-rule="evenodd" d="M77.0832 76.0537H70.5012V78.0397H72.3772V88.6907L75.2702 88.6887L75.2722 78.0277C75.3082 78.0297 75.3432 78.0307 75.3772 78.0307C75.8942 78.0307 76.3062 77.8727 76.6012 77.5607C77.1262 77.0087 77.0892 76.1757 77.0882 76.1397L77.0832 76.0537Z" fill="#FEFEFE"/>
<path fill-rule="evenodd" clip-rule="evenodd" d="M102.414 76.0444H102.329C101.538 76.0384 98.6683 76.0274 98.1163 76.0384L97.9743 76.0464C97.1253 76.0464 96.5863 76.4494 96.4543 77.1804C96.4313 77.2994 96.4313 77.3904 96.4313 77.3904C96.4283 77.4164 96.2353 79.7834 96.4693 80.4514C96.8463 81.5384 97.7233 81.9404 98.5293 82.1904C98.5573 82.1974 98.5843 82.2064 98.6133 82.2144C98.6653 82.2274 98.7183 82.2414 98.7693 82.2634C98.8583 82.2994 98.9213 82.3474 98.9583 82.4074L98.9703 86.9554L96.6493 86.9624L96.6573 88.6454L99.7103 88.6484H99.7133C100.771 88.6024 101.502 88.1384 101.773 87.3374C101.85 86.7204 101.86 82.4854 101.8 81.6014C101.779 81.2674 101.627 80.9994 101.318 80.7564C101.198 80.6634 101.051 80.5674 100.862 80.4624C100.694 80.3754 100.515 80.2864 100.342 80.2064C99.6813 79.8844 98.9353 79.5184 98.9353 78.6774L98.9363 77.9584H101.143C101.597 77.9584 101.958 77.7364 102.192 77.3184C102.37 76.9984 102.419 76.6784 102.418 76.6604C102.437 76.4514 102.428 76.2574 102.419 76.1294L102.414 76.0444Z" fill="#FEFEFE"/>
<path fill-rule="evenodd" clip-rule="evenodd" d="M76.5979 63.0898L77.0769 63.0888L77.1529 63.0898C77.8889 63.1018 78.1629 63.1058 78.1439 64.4018C78.1459 65.4358 78.1439 65.5008 78.1229 66.0108L78.1209 66.1078C78.1229 66.2568 78.0599 66.4208 77.9649 66.5188C77.8979 66.5868 77.8189 66.6208 77.7299 66.6208H76.5979V63.0898ZM76.5899 68.2448H77.0779C77.5479 68.2548 78.3359 68.3988 78.3359 69.2428C78.3359 69.6458 78.3719 70.9088 78.3859 71.3828L78.3919 71.5728C78.3949 71.6428 78.4259 72.2608 78.4559 72.3778C78.6579 73.1138 79.2299 73.5548 80.1229 73.6508H80.9469V69.1558C80.9469 68.7698 80.7369 68.2298 80.4339 67.8438L80.3739 67.7618C80.8259 67.2548 81.0009 66.7438 81.0009 65.9638L81.0039 65.5248C81.0039 62.0328 80.8649 61.3338 79.2439 61.1538H73.7799V73.4808H76.5899V68.2448Z" fill="#FEFEFE"/>
<path fill-rule="evenodd" clip-rule="evenodd" d="M94.0374 61.1538H91.2964L91.2874 73.4738L94.0374 73.4758V61.1538Z" fill="#FEFEFE"/>
<path fill-rule="evenodd" clip-rule="evenodd" d="M67.7175 73.4923L70.5385 73.4883L70.5425 63.0753C70.5775 63.0763 70.6115 63.0773 70.6455 63.0773C71.1515 63.0773 71.5545 62.9233 71.8425 62.6183C72.3535 62.0803 72.3165 61.2693 72.3145 61.2363L72.3105 61.1533H65.8875V63.0883H67.7175V73.4923Z" fill="#FEFEFE"/>
<path fill-rule="evenodd" clip-rule="evenodd" d="M97.3108 73.4923L100.134 73.4883V63.0753C100.169 63.0763 100.205 63.0773 100.238 63.0773C100.746 63.0773 101.149 62.9223 101.438 62.6183C101.949 62.0793 101.913 61.2693 101.911 61.2363L101.906 61.1533H95.4818V63.0883H97.3108V73.4923Z" fill="#FEFEFE"/>
<path fill-rule="evenodd" clip-rule="evenodd" d="M64.4104 71.4991H61.4564V68.5041H63.4814V65.8211H61.4564V63.0471H64.4104V61.1541H58.7154L58.7054 73.4741H64.4104V71.4991Z" fill="#FEFEFE"/>
<path fill-rule="evenodd" clip-rule="evenodd" d="M54.1575 71.4991H52.5965V63.0861C53.5635 63.0461 53.7685 63.1311 53.7845 63.1391C54.1485 63.2821 54.1415 63.9571 54.1415 63.9751C54.2435 64.9491 54.1685 70.7241 54.1575 71.4991ZM55.1315 61.1541H48.1055L48.0955 61.2291C48.0905 61.2591 48.0065 61.9671 48.4625 62.5061C48.7515 62.8501 49.1925 63.0421 49.7785 63.0801V73.4591H55.0105C56.2035 73.4591 57.0045 72.4451 57.0045 70.9371L57.0065 65.2191C57.0085 62.0641 57.0095 61.2161 55.1315 61.1541Z" fill="#FEFEFE"/>
<path fill-rule="evenodd" clip-rule="evenodd" d="M85.3772 63.9413C85.3912 63.6153 85.4192 63.3713 85.4642 63.1763L85.5152 63.1293C85.6382 63.1103 85.7602 63.1023 85.9072 63.1023H85.9632C86.9102 63.1143 86.9372 63.3953 86.9372 65.0823V70.2433C86.9372 70.3983 86.9372 70.5433 86.9272 70.6963C86.9192 70.8433 86.9022 70.9833 86.8762 71.1133L86.8242 71.1623C86.6592 71.1873 86.4992 71.1993 86.3262 71.1993C85.9812 71.1993 85.7392 71.1243 85.5892 70.9723C85.3662 70.7463 85.3592 70.3693 85.3732 69.9333V64.7203C85.3732 64.7203 85.3682 64.1413 85.3772 63.9413ZM86.2982 61.1543C85.6702 61.1543 85.0152 61.1733 84.4872 61.3213C83.1202 61.6463 82.4562 62.5463 82.4562 64.0733V71.4273C82.4562 73.3113 83.8232 73.6963 85.8742 73.6963C88.3592 73.6963 89.7852 72.8313 89.7852 71.3233L89.7892 63.6583C89.7892 61.1543 88.1712 61.1543 86.2982 61.1543Z" fill="#FEFEFE"/>
</svg>
