<svg width="150" height="150" viewBox="0 0 150 150" fill="none" xmlns="http://www.w3.org/2000/svg">
<mask id="mask0_429_2634" style="mask-type:alpha" maskUnits="userSpaceOnUse" x="22" y="22" width="106" height="106">
<path d="M22 22H128V127.989H22V22Z" fill="white"/>
</mask>
<g mask="url(#mask0_429_2634)">
<path fill-rule="evenodd" clip-rule="evenodd" d="M128 75C128 104.271 104.271 128 75 128C45.7289 128 22 104.271 22 75C22 45.7289 45.7289 22 75 22C104.271 22 128 45.7289 128 75Z" fill="#1D428A"/>
</g>
<path fill-rule="evenodd" clip-rule="evenodd" d="M75 121.375C69.219 121.375 63.5998 120.324 58.3602 118.313C58.1456 115.141 57.9373 111.35 57.7378 107.204L53.507 105.764L53.5089 116.117C52.8339 115.763 52.1677 115.392 51.51 115.004L51.5122 105.175L53.507 105.246V105.311L55.6697 105.323L59.5752 105.461L108.38 107.189C108.186 107.391 107.991 107.593 107.792 107.792C99.0329 116.551 87.3873 121.375 75 121.375ZM39.4215 104.747L46.7079 105.005C46.5626 107.255 46.4032 109.393 46.2287 111.375C44.8316 110.266 43.4882 109.072 42.2077 107.792C41.2283 106.813 40.3012 105.795 39.4215 104.747ZM47.6822 82.0127C47.5287 87.8968 47.3115 93.9719 47.0186 99.6271L43.027 99.7614L47.6822 82.0127ZM47.9788 61.7527C47.9711 65.8488 47.9207 70.78 47.8176 76.0579L41.5883 99.8096L37.2865 99.9546L47.9788 61.7527ZM31.8414 92.0304C30.7733 89.3219 29.9636 86.5096 29.424 83.624C31.1377 82.26 33.5496 80.0415 36.4234 76.5842L31.8414 92.0304ZM32.6861 94.0337L38.7289 73.6648C41.1735 70.4123 43.8677 66.325 46.6969 61.2157L35.8661 99.9105C34.6611 98.0257 33.6 96.0621 32.6861 94.0337ZM53.4989 63.5764L53.4997 66.4292H51.3392V69.0792H53.5L53.5004 71.932H51.3392V74.582H53.5011L53.5022 79.9328H51.3392V82.5831H53.5026L53.5037 88.0863H51.3392V90.7363H53.5041L53.5059 99.4088L51.5133 99.4762L51.5225 59.1343H53.4982L53.4986 60.9264H51.3392V63.5764H53.4989ZM110.87 97.4798L109.631 94.7098C111.675 95.5347 113.733 96.3241 115.802 97.0816C115.759 97.1607 115.715 97.2395 115.672 97.3186L110.87 97.4798ZM112.451 102.363C112.138 102.791 111.817 103.213 111.488 103.631L57.5781 102.575L57.5553 102.055L112.451 102.363ZM61.0279 99.156L57.383 99.2785C57.1596 93.9424 56.9524 88.3355 56.7665 82.907L61.0279 99.156ZM66.6507 98.9668L62.4416 99.1085L56.5589 76.6792C56.3727 70.8963 56.2144 65.5477 56.0934 61.2462L66.6507 98.9668ZM72.9282 98.7559L68.0703 98.9193L57.379 60.7203C58.3164 61.7538 59.2767 62.7637 60.2634 63.7464C61.2991 64.7796 62.3602 65.7866 63.4405 66.7719L72.9282 98.7559ZM78.7531 98.5601L74.3533 98.708L65.396 68.5142C66.0298 69.0652 66.6687 69.6096 67.3135 70.1469C68.4453 71.0888 69.5944 72.0089 70.7585 72.9099L78.7531 98.5601ZM84.7527 98.3584L80.1833 98.5119L72.6518 74.349C74.3934 75.6482 76.1664 76.9044 77.9676 78.1194L84.7527 98.3584ZM90.5566 98.1633L86.1915 98.3098L79.8385 79.3601C80.8094 79.9928 81.7873 80.6148 82.773 81.2247L84.8013 82.4679L85.0748 82.6284L90.5566 98.1633ZM96.8791 97.9502L92.0023 98.1147L86.9187 83.707C87.2401 83.8938 87.5584 84.0859 87.8834 84.2659L88.9224 84.8441C89.6162 85.228 90.306 85.6196 91.0034 85.9965L92.6133 86.8474L96.8791 97.9502ZM101.963 91.4231C103.888 92.2987 105.828 93.1416 107.781 93.9531L109.381 97.5303L104.59 97.6911L101.963 91.4231ZM103.115 97.7408L98.338 97.9016L94.4624 87.8136L95.2221 88.1945L97.3494 89.2597C98.0624 89.606 98.7812 89.9409 99.497 90.2821C99.6998 90.3775 99.9045 90.4702 100.108 90.5655L103.115 97.7408ZM42.2077 42.2078C50.9671 33.4488 62.6127 28.6251 75 28.6251C87.3873 28.6251 99.0329 33.4488 107.792 42.2078C116.551 50.9672 121.375 62.6132 121.375 75.0001C121.375 81.663 119.977 88.1102 117.324 94.0102C111.703 92.1143 106.163 89.9741 100.741 87.5659C100.03 87.2468 99.3152 86.9343 98.606 86.6104L96.4904 85.6119L95.4326 85.1128L94.3848 84.5924L92.2909 83.5478C91.5967 83.1934 90.9103 82.8239 90.2191 82.4624L89.1834 81.9181C88.8382 81.737 88.5006 81.5419 88.1584 81.3553L86.1116 80.2213L84.0895 79.0454C78.7104 75.8879 73.5274 72.3887 68.6418 68.515C66.2016 66.5753 63.8332 64.5444 61.5781 62.3979C60.45 61.3257 59.354 60.2212 58.2918 59.0887C58.0271 58.8049 57.7621 58.5211 57.5048 58.2311C57.2439 57.9444 56.9881 57.654 56.7356 57.361C56.4805 57.0699 56.2347 56.7733 55.9896 56.4766C55.98 56.4648 55.9701 56.4527 55.9609 56.4409C55.8688 53.0345 55.8188 50.9996 55.8188 50.9996L53.4964 50.4526L53.4971 53.5642H51.5236L51.5243 50.2973L49.0344 50.8895L49.0536 52.0761L47.8898 52.7095C47.9218 53.6838 47.9457 54.9558 47.9608 56.4714C47.0193 58.1148 36.7399 75.8683 29.0542 81.3299C28.7719 79.2493 28.625 77.1363 28.625 75.0001C28.625 62.6132 33.4487 50.9672 42.2077 42.2078ZM109.666 40.334C100.406 31.0745 88.0951 25.9751 75 25.9751C61.905 25.9751 49.5939 31.0745 40.334 40.334C31.0744 49.594 25.975 61.9051 25.975 75.0001C25.975 88.0951 31.0744 100.406 40.334 109.666C49.5939 118.926 61.905 124.025 75 124.025C88.0951 124.025 100.406 118.926 109.666 109.666C118.925 100.406 124.025 88.0951 124.025 75.0001C124.025 61.9051 118.925 49.594 109.666 40.334Z" fill="#FDB927"/>
</svg>
