<svg width="150" height="150" viewBox="0 0 150 150" fill="none" xmlns="http://www.w3.org/2000/svg">
<mask id="mask0_429_2701" style="mask-type:alpha" maskUnits="userSpaceOnUse" x="26" y="10" width="98" height="130">
<path d="M26.012 10.0002H123.915V139.788H26.012V10.0002Z" fill="white"/>
</mask>
<g mask="url(#mask0_429_2701)">
<path fill-rule="evenodd" clip-rule="evenodd" d="M112.826 78.7142C109.869 81.0483 101.996 82.8511 91.6023 83.7761L91.751 71.2827C103.645 72.8339 113.299 74.573 113.299 77.4272C113.299 77.8695 113.136 78.2987 112.826 78.7142ZM81.2348 84.3723C79.2445 84.4312 77.207 84.4626 75.126 84.4626C72.6756 84.4626 70.2845 84.4205 67.9694 84.3402L68.0627 81.444C67.8442 74.1087 68.3007 64.9113 68.4499 55.087C74.3979 55.7751 81.5735 57.4711 81.4495 61.6563L81.2348 84.3723ZM83.6137 39.9521C84.098 43.5465 83.0674 46.2594 81.2132 48.309C77.8973 51.3144 72.7003 52.6839 68.474 53.3053C68.5481 46.5226 68.4483 39.4804 67.86 32.5722C76.0164 33.4431 83.0153 35.5015 83.6137 39.9521ZM57.7324 83.6858C45.0307 82.4609 36.4475 79.8824 36.4475 76.6241C36.4475 76.3868 36.5168 76.1588 36.6492 75.9387C39.6252 73.8445 48.7516 72.524 57.8911 71.1531C57.8785 74.7342 57.825 78.639 57.7088 82.9357L57.7324 83.6858ZM91.7626 70.2654L91.9006 58.6481C91.8864 53.1959 86.2205 52.2821 82.0358 52.3508C84.8421 51.4222 88.2195 49.8363 90.6663 47.1929C93.2311 44.8244 95.0595 41.4885 94.7438 36.8073C94.2102 28.929 84.3584 25.0047 68.0277 26.5884C67.7597 26.6146 67.4929 26.6414 67.227 26.6693C66.4603 20.8473 65.269 15.2077 63.452 10.0002L62.6442 10.8039C60.4733 17.537 59.1759 22.9075 58.4217 27.8896C48.6745 29.5694 41.846 31.8042 41.846 31.8042L41.0414 32.6084C41.0414 32.6084 48.9229 31.8935 57.9063 32.0201C56.9074 42.2322 57.9247 51.9328 57.8933 70.2575C43.382 69.8487 30.648 72.2598 27.5344 76.1356C26.511 76.9787 25.967 77.9047 26.0016 78.898C26.1587 83.3397 39.3542 87.4194 57.8985 88.9771L58.6885 114.164L59.4941 113.358L60.7974 96.2788C60.8026 95.9994 60.8358 95.762 60.8883 95.5613C61.2775 95.6138 61.6463 96.1113 61.6463 96.9795L62.2193 119.474L63.0272 118.67L64.4097 100.363C64.4059 99.9546 64.4512 99.6179 64.5273 99.3489C64.9197 99.4172 65.2815 99.9925 65.2516 101.023L65.8908 124.474L66.695 123.671L67.8007 89.5414C69.9328 89.6085 72.1074 89.6458 74.3208 89.6458C76.665 89.6458 78.9735 89.6053 81.2352 89.5302L82.3551 125.112L83.1604 124.308L84.1168 105.685C84.1188 105.312 84.1605 105.001 84.2288 104.749C84.5948 104.832 84.9311 105.377 84.9289 106.339L85.8906 132.456L86.6938 131.652L87.6691 109.088C87.6801 108.766 87.7274 108.494 87.7999 108.269C88.2642 108.264 88.7327 108.818 88.7544 109.895L89.5564 139.8L90.3606 138.993L91.5334 88.9169C107.382 87.5337 119.414 84.3366 122.395 80.6634C123.385 79.8319 123.915 78.97 123.915 78.0944C123.692 73.2179 109.031 69.4511 91.7626 70.2654Z" fill="#9EA2A2"/>
</g>
<path fill-rule="evenodd" clip-rule="evenodd" d="M91.6021 83.7759L91.7618 70.3733C104.018 71.9539 114.102 73.7102 114.102 76.6239C114.102 79.9646 104.921 82.5909 91.6021 83.7759ZM67.9692 84.34L68.0631 81.4443C67.8378 73.8879 68.3299 64.3564 68.4633 54.1974C74.5443 54.8236 82.3828 56.4781 82.2526 60.8524L82.0308 84.3494C79.7918 84.4241 77.4842 84.463 75.1258 84.463C72.6754 84.463 70.2845 84.4209 67.9692 84.34ZM36.4473 76.6239C36.4473 73.6143 47.5654 72.0232 58.6967 70.3496C58.6847 73.93 58.631 77.8336 58.5154 82.1276L58.5669 83.7639C45.4077 82.5731 36.4473 79.953 36.4473 76.6239ZM84.4167 39.1488C85.7445 49.0032 75.6931 52.244 68.474 53.3056C68.5511 46.2303 68.4409 38.872 67.7827 31.679C76.3098 32.4948 83.7967 34.5386 84.4167 39.1488ZM123.915 78.0948C123.691 73.2177 109.031 69.4515 91.7628 70.2651L91.9004 58.6484C91.881 51.4598 82.0382 52.1601 78.7191 52.6001C82.5919 51.9001 95.5426 48.6659 94.7438 36.8072C94.2102 28.9287 84.3582 25.0045 68.0275 26.5883C67.7597 26.6146 67.4927 26.6418 67.227 26.669C66.4601 20.8471 65.2688 15.2074 63.4518 10C61.1801 17.0422 59.8627 22.5942 59.1248 27.7701C49.003 29.4603 41.8458 31.8045 41.8458 31.8045C41.8458 31.8045 49.7273 31.0896 58.7109 31.2168C57.6962 41.5818 58.7602 51.4193 58.6973 70.2829C41.5307 69.6784 26.628 73.0206 26.8083 78.0948C26.9621 82.5362 40.1588 86.6181 58.7051 88.1765L59.4941 113.358L60.7973 96.2791C60.8366 94.1609 62.4507 94.3562 62.4507 96.1756L63.027 118.67L64.4095 100.362C64.3879 97.8922 66.1159 98.0088 66.0572 100.22L66.6954 123.67L67.8274 88.7165C70.2062 88.8004 72.6434 88.8447 75.1258 88.8447C77.47 88.8447 79.7776 88.8046 82.0392 88.7301L83.1608 124.308L84.1166 105.685C84.1302 103.311 85.7371 103.435 85.7319 105.536L86.6936 131.652L87.6695 109.088C87.7436 106.87 89.5163 106.969 89.5562 109.088L90.361 138.993L91.5497 88.2137V88.1829C110.303 86.6297 123.915 82.5436 123.915 78.0948Z" fill="#CE1141"/>
</svg>
