<svg width="150" height="150" viewBox="0 0 150 150" fill="none" xmlns="http://www.w3.org/2000/svg">
<g clip-path="url(#clip0_429_2091)">
<mask id="mask0_429_2091" style="mask-type:alpha" maskUnits="userSpaceOnUse" x="25" y="28" width="100" height="93">
<path d="M124.998 28.0981H25.001V120.99H124.998V28.0981Z" fill="white"/>
</mask>
<g mask="url(#mask0_429_2091)">
<path fill-rule="evenodd" clip-rule="evenodd" d="M117.078 41.0563C110.172 32.7181 100.266 28.1164 89.1787 28.0972L45.4149 28.1004L25.001 120.968L64.5162 120.99L69.7189 99.2956L86.1083 99.2988H86.4861C98.9471 99.2988 109.205 94.9919 116.121 86.8716C128.918 72.9222 126.658 52.6247 117.078 41.0563Z" fill="#FEFEFE"/>
</g>
<path fill-rule="evenodd" clip-rule="evenodd" d="M115.847 42.0798C109.267 34.1358 99.7935 29.7167 89.1768 29.7007L46.7 29.7039L26.9937 119.364L63.2527 119.389L68.4555 97.6913C73.3252 97.6913 86.1319 97.6945 86.1159 97.6945C98.2663 97.7811 108.23 93.6664 114.941 85.7865C127.126 72.5069 124.984 53.1162 115.847 42.0798Z" fill="#B3B1B1"/>
<path fill-rule="evenodd" clip-rule="evenodd" d="M66.6003 95.3282L61.3976 117.023L29.925 117.036L48.6005 32.0642L89.169 32.093C99.2703 32.1091 107.924 36.2109 114.03 43.5877C123.03 54.4543 123.907 72.5183 113.143 84.2565C106.541 92.0051 96.8626 95.4083 86.137 95.3314L66.6003 95.3282Z" fill="#081E3F"/>
<path fill-rule="evenodd" clip-rule="evenodd" d="M44.4185 50.9398L62.2006 50.9558C64.2433 50.9558 66.4172 52.6702 65.4727 55.2691C64.8932 56.8746 64.445 58.7364 64.2401 60.4829C64.0768 61.848 65.6008 62.71 66.4717 62.71L102.715 62.7357C103.397 62.7357 103.755 62.5434 103.755 62.2165C103.755 61.8929 103.723 60.6912 103.595 59.8484C103.467 59.0441 103.336 58.9063 102.686 58.9063C98.1683 58.8998 96.3274 56.8874 91.5921 53.8303C86.8568 50.7731 79.9123 49.0171 73.9444 49.0107L44.8507 48.9946L44.4185 50.9398Z" fill="#FCB424"/>
<path fill-rule="evenodd" clip-rule="evenodd" d="M66.3731 74.4314C65.7455 73.0886 65.166 71.4896 64.8107 70.0187C64.3624 68.1344 62.7712 66.6027 60.0498 66.6027L40.9741 66.5899L41.448 64.4492L103.263 64.4909C103.881 64.4909 103.75 64.7504 103.718 65.433C103.682 66.1156 103.525 67.3814 103.426 68.128C103.327 68.8715 102.712 68.6952 102.123 68.708C100.734 68.7401 98.1466 69.0702 96.6386 70.2014C94.0772 72.1273 88.6152 75.5113 85.5448 76.4951C82.2502 77.5462 69.9398 81.3147 66.3347 74.3705" fill="#FCB424"/>
<path fill-rule="evenodd" clip-rule="evenodd" d="M37.5564 82.1753L69.8358 82.1978C71.2605 82.1978 72.4868 82.5374 73.4377 83.329C76.1655 85.5818 79.7034 87.2161 83.4557 88.3024C85.1398 88.7895 88.0373 88.1614 90.6275 86.6937C97.0885 83.0374 101.244 76.0803 102.611 71.6004C102.967 70.4307 102.285 70.5268 101.382 70.5909C98.6573 70.7864 95.795 73.2507 92.033 75.6541C88.2647 78.0511 80.6062 80.3231 73.3384 80.3135L37.9694 80.2911L37.5564 82.1753Z" fill="#FCB424"/>
<path fill-rule="evenodd" clip-rule="evenodd" d="M84.9086 38.9074C85.3633 38.8273 86.9961 38.728 87.9054 39.0837C94.0366 41.4999 99.8381 47.893 102.265 54.6834C102.732 55.9876 102.848 56.824 102.265 56.8913C99.4539 57.2021 98.1412 55.8146 94.837 53.5714C91.5297 51.3314 88.4817 49.7997 84.2939 48.4666C80.1669 47.1527 72.6494 46.9636 71.6761 46.9316C70.7059 46.8995 70.8276 46.4926 71.2534 46.0696C74.8553 42.4709 79.6963 39.8592 84.9086 38.9074Z" fill="#FCB424"/>
<path fill-rule="evenodd" clip-rule="evenodd" d="M114.328 62.1903C114.347 62.4499 114.068 62.7447 113.742 62.7447C113.713 62.7447 106.673 62.7383 106.673 62.7383C105.767 62.7383 105.751 62.3153 105.718 61.7961C105.683 61.277 105.539 60.2387 105.507 59.6203C105.475 59.021 105.257 58.3352 106.058 57.9988C108.027 57.1656 109.887 55.2397 110.736 53.5861C111.02 53.0285 111.446 52.1056 111.93 52.8875C113.604 55.5665 114.129 58.8704 114.328 62.1903Z" fill="#FCB424"/>
<path fill-rule="evenodd" clip-rule="evenodd" d="M111.797 74.9062C111.675 75.1465 111.224 75.3228 111.077 74.935C110.046 72.1727 107.593 70.2724 105.906 69.3303C105.397 69.0451 105.352 68.7118 105.416 68.2087C105.486 67.7056 105.698 66.0969 105.73 65.4176C105.755 64.8792 105.973 64.4915 106.376 64.4915L113.744 64.4947C114.006 64.4979 114.333 64.7318 114.333 64.9273C114.333 68.4427 113.263 71.9164 111.797 74.9062Z" fill="#FCB424"/>
<path fill-rule="evenodd" clip-rule="evenodd" d="M92.6369 88.7449C92.1182 88.8186 90.9848 88.6392 92.7714 87.6041C98.1246 84.4893 102.895 77.1797 104.169 72.9818C104.653 71.3795 104.704 71.2962 105.319 71.4725C106.138 71.7064 107.429 72.8216 108.415 74.1867C109.407 75.5486 109.833 78.2052 109.263 78.9679C105.415 84.1368 99.2996 87.7675 92.6369 88.7449Z" fill="#FCB424"/>
<path fill-rule="evenodd" clip-rule="evenodd" d="M106.257 55.6604C105.011 56.3302 104.768 56.2052 104.502 55.2695C102.178 47.1011 95.3166 41.0542 92.5119 39.266C91.9772 38.9296 92.1149 38.702 92.5023 38.7533C99.2162 39.6474 105.796 43.3134 109.109 48.3317C110.998 51.2093 107.457 55.0099 106.257 55.6604Z" fill="#FCB424"/>
</g>
<defs>
<clipPath id="clip0_429_2091">
<rect width="150" height="150" fill="white"/>
</clipPath>
</defs>
</svg>
