<svg width="150" height="150" viewBox="0 0 150 150" fill="none" xmlns="http://www.w3.org/2000/svg">
<path fill-rule="evenodd" clip-rule="evenodd" d="M25 75C25 47.3857 47.3857 25 75 25C102.614 25 125 47.3857 125 75C125 102.614 102.614 125 75 125C47.3857 125 25 102.614 25 75Z" fill="white"/>
<path fill-rule="evenodd" clip-rule="evenodd" d="M109.363 101.412C103.916 94.3479 100.822 85.9499 100.4 77.0836H118.313C117.89 85.9571 114.801 94.3571 109.363 101.412ZM77.0836 118.312V105.891H72.9162V118.312C61.6326 117.775 51.1683 112.937 43.3979 104.66C49.7479 96.7305 53.3305 87.205 53.7693 77.0836V72.9162C53.3305 62.7948 49.7479 53.2693 43.3979 45.3397C51.1683 37.0632 61.6326 32.2234 72.9162 31.6877V43.9979H77.0836V31.6877C88.3673 32.2234 98.8326 37.0632 106.603 45.3397C100.252 53.2693 96.6703 62.7948 96.2315 72.9162V77.0836C96.6703 87.205 100.252 96.7305 106.603 104.66C98.8326 112.937 88.3673 117.775 77.0836 118.312ZM40.6377 101.412C35.1989 94.3571 32.1101 85.9571 31.6877 77.0836H49.6009C49.1785 85.9499 46.0836 94.3489 40.6377 101.412ZM40.6377 48.5877C46.0846 55.652 49.1785 64.0509 49.6009 72.9162H31.6877C32.1101 64.0428 35.1989 55.6438 40.6377 48.5877ZM109.363 48.5877C114.801 55.6428 117.89 64.0418 118.313 72.9162H100.4C100.822 64.0509 103.916 55.652 109.363 48.5877ZM74.9999 27.4622C48.7877 27.4622 27.4622 48.7877 27.4622 74.9999C27.4622 101.213 48.7877 122.538 74.9999 122.538C101.213 122.538 122.538 101.213 122.538 74.9999C122.538 48.7877 101.213 27.4622 74.9999 27.4622Z" fill="#061922"/>
<path fill-rule="evenodd" clip-rule="evenodd" d="M64.8289 55.1697V94.8299H86.0187V89.3768H70.5003V55.1697H64.8289Z" fill="#C8102E"/>
<path fill-rule="evenodd" clip-rule="evenodd" d="M93.2218 68.457V52.1152C93.2218 49.6662 92.2361 48.6672 89.8188 48.6672H60.9759C58.5902 48.6672 57.6157 49.6662 57.6157 52.1152V98.0458C57.6157 100.494 58.5902 101.493 60.9759 101.493H89.8188C92.2361 101.493 93.2218 100.494 93.2218 98.0458V81.6856H87.5065V96.4774H63.2882V53.6825H87.5065V68.457H93.2218Z" fill="#1D428A"/>
<mask id="mask0_429_2165" style="mask-type:alpha" maskUnits="userSpaceOnUse" x="25" y="25" width="100" height="100">
<path d="M25 125H125V25H25V125Z" fill="white"/>
</mask>
<g mask="url(#mask0_429_2165)">
<path fill-rule="evenodd" clip-rule="evenodd" d="M77.7203 72.2245H80.4825V60.6225H77.7203V72.2245ZM86.0091 87.8429L86.0183 55.1694H72.2499L72.1162 87.8429H77.6295L77.7183 77.6572H80.5213L80.4815 87.8429H86.0091Z" fill="#C8102E"/>
</g>
</svg>
