<svg width="150" height="150" viewBox="0 0 150 150" fill="none" xmlns="http://www.w3.org/2000/svg">
<g clip-path="url(#clip0_429_2247)">
<path fill-rule="evenodd" clip-rule="evenodd" d="M32.6273 49.2693C32.6273 49.2693 45.3941 28.3501 71.5345 28.3501C97.6748 28.3501 109.835 48.6612 109.835 48.6612H145.299L143.878 57.3893C143.878 57.3893 142.864 60.8449 141.244 61.2503H143.676C143.676 61.2503 144.487 64.2981 139.623 74.8578H149.958C149.958 74.8578 150.363 93.3348 128.072 102.068C128.072 102.068 116.522 105.724 110.644 99.4303C110.644 99.4303 98.8908 121.363 71.5345 121.363C44.1781 121.363 31.8159 98.8222 31.8159 98.8222H0L5.06873 89.6839H1.62298L5.6755 82.1695H12.5645L13.7805 79.3219H10.5395L18.4423 64.701H22.8993L24.7246 60.2344H20.8743L26.7496 49.2693H32.6273Z" fill="#FEFEFE"/>
<path fill-rule="evenodd" clip-rule="evenodd" d="M71.916 116.47C94.2826 116.47 112.412 98.0278 112.412 75.2721C112.412 52.5213 94.2826 34.0764 71.916 34.0764C49.5519 34.0764 31.4204 52.5213 31.4204 75.2721C31.4204 98.0278 49.5519 116.47 71.916 116.47Z" fill="#FEC42F"/>
<path fill-rule="evenodd" clip-rule="evenodd" d="M76.3843 75.0691L74.6183 75.0543C74.4925 75.0543 74.3914 75.1556 74.3914 75.2792C74.3914 75.4028 74.4925 75.5042 74.6183 75.5042L76.409 75.4869C77.0133 75.4869 77.5707 75.5635 77.4178 75.8329L72.7758 84.7167C72.1986 85.7771 70.9777 85.5077 70.7828 84.6623L68.484 72.7555L76.5693 66.4671C77.3734 65.775 78.9175 64.6478 79.7092 64.6627L81.4728 64.6528C82.5457 64.6454 82.9256 65.1496 82.674 65.7972L82.3632 66.4004C82.161 66.7365 81.5246 66.7786 80.9869 66.7786H79.9682C79.8449 66.7786 79.7437 66.8799 79.7437 67.0084C79.7437 67.132 79.8449 67.2334 79.9682 67.2334H80.9721C81.4062 67.2334 81.9513 67.2433 81.7515 67.5696L77.9999 74.7379C77.8272 75.0172 77.0478 75.0691 76.3843 75.0691ZM90.3745 79.4912C86.5909 84.0889 84.4474 85.6634 80.6046 85.6634C79.2973 85.6634 78.6165 85.3693 78.9816 84.734L83.5397 75.5511H85.2787C87.2198 75.5511 86.951 77.1875 86.4231 79.4047C86.3269 79.7162 86.5637 79.7359 86.7956 79.464L91.1293 71.8335C91.3389 71.3539 90.7938 71.2575 90.525 71.6258C88.3544 74.5747 86.0704 74.3572 85.1085 74.3572H84.3241L89.1881 65.0458H91.1515C93.6229 65.2015 94.7748 67.3051 94.0595 72.3723H95.0881L98.6645 65.3029C98.9531 64.7072 98.3414 64.1609 97.6681 64.1609L73.3825 64.1708C71.9791 64.1708 71.9174 65.2485 73.2617 65.2485C74.3544 65.2485 74.2976 66.8206 73.316 67.5794L63.0083 75.781L65.0876 85.4681C65.243 86.1998 65.7092 86.5483 66.5182 86.5483H86.5983C87.427 86.5483 87.7674 86.2097 88.0362 85.8636L91.6744 79.5679C92.1751 78.6632 91.0109 78.72 90.3745 79.4912Z" fill="#542582"/>
<path fill-rule="evenodd" clip-rule="evenodd" d="M45.9464 76.8483H39.5556L47.6385 66.1675L45.9464 76.8483ZM44.4665 83.4827C44.2741 84.5802 43.174 85.3094 41.7903 85.6728L40.3622 86.0312L41.5338 83.9153C41.8421 83.3369 41.1663 82.9958 40.4288 83.8585C35.4612 89.65 33.8801 92.4259 26.2215 92.4432L24.1644 92.4481C23.5429 92.4481 22.8596 92.2059 23.2814 91.6077L25.9921 86.5528H36.2801C37.6835 86.5528 37.3234 85.4948 36.4971 85.4652C35.9545 85.4478 35.3576 85.1339 34.9358 84.4665C34.8199 84.2811 34.5633 83.547 34.9654 82.981L38.9044 77.7357H45.4556L44.4665 83.4827ZM59.7121 85.4652C59.1695 85.4478 58.8193 85.0721 58.6984 84.7137C58.5257 84.1922 58.5381 83.2751 58.7502 82.8697L68.1181 66.2169C68.271 65.9104 68.6509 65.2628 69.1171 65.2678C69.9433 65.2702 70.301 64.1801 68.9 64.1801H61.3968C59.9933 64.1801 59.9785 65.248 61.3228 65.248C61.8728 65.248 62.0874 65.7868 61.9345 66.1156L59.8601 69.8802C59.6012 70.2955 59.0265 70.3251 58.4221 70.3251L56.6339 70.3202C56.5106 70.3202 56.4095 70.4215 56.4095 70.5476C56.4095 70.6712 56.5106 70.7725 56.6339 70.7725H58.4073C58.8883 70.7725 59.2706 70.9159 58.9919 71.477L52.0757 84.1007C51.5775 84.7953 50.586 84.9485 50.6427 83.6212L53.1018 65.1293C53.198 64.5509 53.0451 64.1604 52.4309 64.1604L48.7213 64.1653C48.2798 64.1653 48.006 64.3828 47.7938 64.6696L46.4668 66.3405C46.2942 66.5136 45.9193 66.5136 45.5074 66.5136L42.3946 66.5086C42.2713 66.5086 42.1701 66.61 42.1701 66.7336C42.1701 66.8571 42.2713 66.9585 42.3946 66.9585H44.9351C45.3865 66.9585 45.9143 67.0648 45.7244 67.2774L42.1578 71.7736C42.0493 71.8997 41.7015 71.9343 41.4894 71.9343L40.483 71.9294C40.3597 71.9294 40.2561 72.0307 40.2561 72.1518C40.2561 72.2804 40.3597 72.3817 40.483 72.3817H41.3241C41.5831 72.3817 41.5856 72.5102 41.4795 72.6264L38.1275 76.8483C37.9548 77.0115 37.6194 77.0461 37.2913 77.0461L34.334 77.0436C34.2082 77.0436 34.1095 77.1425 34.1095 77.2685C34.1095 77.3921 34.2082 77.4935 34.334 77.4935H36.8745C37.2593 77.4935 37.5577 77.5652 37.3555 77.8247L32.5876 83.8164C31.6923 84.9584 27.3759 85.5393 26.5372 85.5393L42.656 55.3112C42.8114 54.9627 43.4083 54.4337 44.0299 54.4337H47.451C49.0666 54.4337 49.0197 53.356 47.6163 53.356H30.4097C29.0062 53.356 28.9495 54.4337 30.5651 54.4337H33.7494C34.6521 54.4337 34.9457 54.9824 34.7113 55.4274L34.2575 56.2604C34.1021 56.5323 33.89 56.641 33.0168 56.641L27.3857 56.6361C27.2624 56.6361 27.1613 56.7374 27.1613 56.861C27.1613 56.9846 27.2624 57.086 27.3857 57.086H33.002C33.3079 57.086 33.7642 57.1675 33.4756 57.7163L32.6888 59.1846C32.5531 59.4045 32.2078 59.5108 31.8156 59.5108L29.2603 59.5059C29.1345 59.5059 29.0334 59.6048 29.0334 59.7308C29.0334 59.8544 29.1345 59.9558 29.2603 59.9558H31.8008C32.1659 59.9558 32.1733 60.198 31.9636 60.5342L30.1507 63.9107C29.9953 64.1999 29.7018 64.2345 29.1246 64.2345L28.1059 64.2296C27.9826 64.2296 27.8815 64.3309 27.8815 64.457C27.8815 64.5831 27.9826 64.6844 28.1059 64.6844H29.1098C29.4946 64.6844 29.5957 64.8994 29.4231 65.2628L27.9333 68.0337C27.7113 68.4317 27.3956 68.5899 26.404 68.5899L20.7754 68.585C20.6496 68.585 20.551 68.6863 20.551 68.8099C20.551 68.936 20.6496 69.0373 20.7754 69.0373H26.3892C27.0256 69.0472 27.2599 69.329 27.0083 69.7813L24.1028 75.2565C23.9301 75.4962 23.4541 75.5333 22.6475 75.5333L17.0189 75.5284C16.8931 75.5284 16.7919 75.6297 16.7919 75.7533C16.7919 75.8769 16.8931 75.9758 17.0189 75.9758L22.6327 75.9807C23.3061 75.9807 23.7155 76.0079 23.5157 76.3638L21.8409 79.5204C21.5326 80.0024 20.6693 80.0024 20.3314 80.0024L18.5457 79.9974C18.4223 79.9974 18.3212 80.0938 18.3212 80.2199C18.3212 80.346 18.4223 80.4473 18.5457 80.4473H20.3166C20.9407 80.4473 21.2736 80.5561 21.1084 80.8947L18.8737 85.1067C18.6714 85.4825 17.7958 85.4998 17.1225 85.4998L8.41806 85.4948C8.29473 85.4948 8.1936 85.5962 8.1936 85.7198C8.1936 85.8433 8.29473 85.9447 8.41806 85.9447L17.1077 85.9472C17.6848 85.9472 18.4125 86.0188 18.1461 86.4786L16.718 89.1704C16.5823 89.3929 16.0939 89.4102 15.3934 89.4102L13.6077 89.4077C13.4819 89.4077 13.3807 89.5091 13.3807 89.6327C13.3807 89.7563 13.4819 89.8576 13.6077 89.8576H15.3786C15.8127 89.8576 16.3381 89.9071 16.1531 90.2358L15.2627 91.9537C14.9741 92.3789 14.6855 92.7571 13.9949 92.7571H9.62666C8.01355 92.7571 8.06781 93.8397 9.47127 93.8397L35.1208 93.8521C35.8706 93.8521 35.8953 93.7508 36.248 93.1995L40.0514 86.5528H59.4951C60.8985 86.5528 60.5384 85.4948 59.7121 85.4652Z" fill="#542582"/>
<path fill-rule="evenodd" clip-rule="evenodd" d="M109.361 73.2754C108.656 73.8563 107.546 74.5237 107.331 74.3111C107.03 74.012 106.098 73.3669 105.597 73.137L109.783 65.4644C109.956 65.1925 110.155 65.0467 110.617 65.0467C112.247 65.0467 112.782 66.819 112.015 69.0263C111.48 70.5737 110.609 72.2471 109.361 73.2754ZM143.177 80.1546C143.071 79.6281 142.879 79.9469 142.534 80.6119C142.428 80.8121 142.09 80.817 141.754 80.817L140.726 80.822C140.602 80.822 140.501 80.9233 140.501 81.0469C140.501 81.1705 140.602 81.2718 140.726 81.2718H141.737C142.122 81.2718 142.127 81.5289 141.947 81.9145C141.241 83.4273 140.511 84.4407 139.544 85.6495C139.391 85.8447 139.001 86.0054 138.693 86.0054L137.662 86.0128C137.536 86.0128 137.435 86.1092 137.435 86.2378C137.435 86.3614 137.536 86.4627 137.662 86.4627H138.671C139.182 86.4627 138.666 86.7766 138.58 86.8928C136.787 89.2905 135.551 90.3608 134.231 91.4336C134.078 91.5572 133.333 91.5151 132.813 91.5127L131.797 91.5176C131.671 91.5176 131.57 91.6165 131.57 91.7425C131.57 91.8661 131.671 91.9675 131.797 91.9675H132.801C133.568 91.9675 132.993 92.4099 132.877 92.5063C130.082 94.8398 125.917 95.5937 124.015 95.3539C117.826 94.5777 116.554 89.8738 116.097 87.9928C116.001 87.5997 115.705 86.7964 115.606 86.2971C115.416 85.3133 118.206 85.034 118.976 85.5506C120.147 86.3342 122.87 87.135 125.014 87.1449C126.997 87.1523 131.054 85.7088 132.228 82.2927C133.43 78.8049 130.411 74.9291 129.074 73.5918C127.372 71.8838 125.766 69.1672 126.442 67.1725C126.952 65.6721 127.808 64.9898 129.639 64.9898C132.004 64.9898 133.726 66.5125 133.726 68.6753C133.726 68.8681 133.607 69.098 133.452 69.098L132.616 69.103C132.492 69.103 132.391 69.2043 132.391 69.3279C132.391 69.4515 132.492 69.5528 132.616 69.5528H133.402C133.622 69.5528 133.76 69.7209 133.703 69.9904C133.548 70.7146 133.499 71.2238 133.341 71.9505C133.25 72.3707 133.866 72.6624 134.078 72.3534L137.795 65.7017C138.064 65.1999 137.467 65.0665 137.026 65.2197C136.01 65.5757 134.352 65.8179 133.768 65.3952C132.376 64.3991 131.111 63.7539 129.167 63.7539C125.865 63.7539 123.549 64.5696 122.064 67.2961C121.95 67.5086 121.625 67.5062 121.346 67.5062L120.712 67.5037C120.586 67.5037 120.485 67.605 120.485 67.7311C120.485 67.8547 120.586 67.956 120.712 67.956L121.252 67.9511C121.482 67.9511 121.637 68.0154 121.521 68.2823C121.418 68.5295 121.329 68.789 121.242 69.056C120.865 70.2351 120.988 71.8887 121.575 73.3669C121.615 73.4633 121.492 73.5103 121.265 73.5078L120.251 73.5127C120.128 73.5127 120.026 73.6141 120.026 73.7377C120.026 73.8637 120.128 73.9651 120.251 73.9651H121.26C121.721 73.9651 121.827 74.012 122.019 74.2815C122.54 75.0156 123.075 75.5619 123.748 76.4171C123.958 76.689 123.055 76.7632 122.574 76.7583H118.569C118.443 76.7583 118.344 76.8596 118.344 76.9832C118.344 77.1093 118.443 77.2081 118.569 77.2081L122.626 77.2032C123.28 77.2032 124.397 77.1933 124.523 77.3367C125.505 78.4712 126.691 80.2213 126.891 81.692C126.95 82.1172 126.79 82.2927 126.269 82.2927H125.727C125.603 82.2927 125.502 82.394 125.502 82.5201C125.502 82.6462 125.603 82.745 125.727 82.745H126.205C126.617 82.745 126.844 82.8093 126.748 83.1183C126.222 84.8066 125.433 86.0252 122.222 86.0054C118.855 85.9906 118.169 82.6833 119.156 79.2326C119.351 78.5454 119.146 78.2512 118.84 78.7876L116.497 82.4806C116.438 82.5671 116.211 82.7772 115.856 82.7772L115.523 82.7747C115.399 82.7747 115.298 82.8761 115.298 83.0021C115.298 83.1257 115.402 83.2246 115.525 83.2246C115.823 83.2246 115.939 83.3853 115.826 83.5484L114.963 84.8931C113.549 81.6476 111.176 77.6506 109.911 76.1947L109.933 76.1255C113.054 75.9351 117.661 73.006 118.413 70.3859C119.723 65.8401 115.318 64.1593 112.918 64.1593L102.364 64.1642C100.963 64.1642 100.859 65.2271 102.206 65.2271C102.931 65.2271 103.567 65.8649 103.244 66.51L100.906 70.7319C100.713 71.0804 99.9907 71.0582 99.0485 71.0582H98.0249C97.9016 71.0582 97.8005 71.1595 97.8005 71.2831C97.8005 71.4067 97.9016 71.5081 98.0249 71.5081H99.0313C99.7046 71.5081 100.445 71.5501 100.195 72.0321L97.4329 77.0302C97.2973 77.2625 96.9396 77.2848 95.9974 77.2848L94.9787 77.2872C94.8554 77.2872 94.7543 77.3886 94.7543 77.5122C94.7543 77.6382 94.8554 77.7396 94.9787 77.7396L95.9752 77.7371C96.7177 77.7371 96.9939 77.836 96.7818 78.2216L93.0894 84.9129C92.6479 85.3949 92.1225 85.4838 91.2197 85.4838C89.8755 85.4838 89.8903 86.5517 91.2937 86.5517H100.331C101.735 86.5517 101.377 85.4641 100.551 85.4641C100.065 85.4665 99.5492 84.5693 99.8724 84.0329L104.487 75.2727H104.956C107.008 75.2727 107.504 78.6467 107.891 82.3323C107.918 82.5943 107.415 82.6066 106.394 82.6066L103.829 82.6091C103.705 82.6091 103.604 82.7104 103.604 82.839C103.604 82.9626 103.705 83.0614 103.829 83.0614H106.367C107.04 83.0614 107.982 83.0689 108.005 83.2864C108.182 84.903 108.315 86.3243 108.621 87.6195C108.72 88.0249 108 87.9606 107.23 87.9606L103.964 87.968C103.839 87.968 103.74 88.0694 103.74 88.1905C103.74 88.3166 103.839 88.4179 103.964 88.4179L107.228 88.4229C108.254 88.4229 108.781 88.4204 108.841 88.633C110.247 93.7991 116.275 97.8653 122.138 97.6404C127.167 97.4476 131.414 94.7063 133.59 92.9587C136.486 90.6302 140.735 85.7582 142.465 82.2161C142.783 81.566 143.293 80.733 143.177 80.1546Z" fill="#542582"/>
<path fill-rule="evenodd" clip-rule="evenodd" d="M58.4657 57.3416C57.6197 58.4416 56.4949 58.7209 55.2345 58.7209H54.8769L57.1017 54.3087C57.2077 54.106 57.4421 53.9502 57.7306 53.9502C58.0094 53.9502 57.9773 53.3916 57.6123 53.3916H54.1073C53.8089 53.3916 53.7028 53.9502 53.9815 53.9502C54.28 53.9502 54.3367 54.2815 54.1912 54.5583L52.2007 58.496C52.0675 58.7085 51.8455 58.7629 51.6013 58.8247C51.3078 58.9013 51.1031 59.4328 51.4385 59.4328H57.0351C57.4667 59.4328 57.5679 59.2721 57.6813 59.1189L58.8061 57.3737C58.9688 57.1612 58.6285 57.129 58.4657 57.3416Z" fill="#542582"/>
<path fill-rule="evenodd" clip-rule="evenodd" d="M75.3196 53.5467C75.1494 53.6382 74.7498 53.6925 74.5771 53.5467C74.1307 53.1735 73.2526 52.8867 72.7938 52.8867C71.4742 52.8867 70.5172 53.1487 69.945 54.397C69.4541 55.4574 69.9573 56.3498 71.1215 56.8886C71.6247 57.121 72.2931 57.4275 72.0366 58.0356C71.8491 58.4805 71.3336 58.5275 70.8675 58.5225C70.2434 58.5176 69.3037 58.0454 69.1581 57.163C69.1088 56.8738 68.7734 56.9381 68.6772 57.0963L67.8829 58.6832C67.7572 58.8958 68.0852 59.1331 68.2159 58.9922C68.4848 58.7054 69.0694 58.6362 69.3579 58.829C69.755 59.091 70.7737 59.5582 71.383 59.5533C72.7198 59.5434 73.6004 59.1973 74.3305 58.0479C75.0014 57.0023 74.5895 55.9617 73.371 55.3833C72.7248 55.0792 72.1747 54.5404 72.4633 53.9496C72.6483 53.564 73.223 53.6456 73.5091 53.6975C74.0542 53.7889 74.7522 54.3031 74.8336 54.753C74.8682 54.9458 75.1124 54.9828 75.2184 54.8123L75.6377 53.8285C75.7339 53.6382 75.4256 53.4898 75.3196 53.5467Z" fill="#542582"/>
<path fill-rule="evenodd" clip-rule="evenodd" d="M114.144 55.1279L114.63 54.2281C114.842 53.8327 114.494 53.3853 113.936 53.3853H107.403C106.932 53.3853 107.07 53.8771 107.262 53.8771C107.681 53.8771 107.807 54.3888 107.553 54.8214L105.587 58.4451C105.294 58.7887 105.106 58.9395 104.687 58.9395C104.352 58.9395 104.231 59.4314 104.702 59.4314H111.324C111.591 59.4314 111.709 59.335 111.805 59.2015L112.706 58.0026C112.925 57.7134 112.452 57.7134 112.306 57.8568C111.164 59.0037 109.941 58.9691 109.053 58.9691H108.281L109.188 56.9422H109.381C109.963 56.9422 110.634 56.9348 110.811 57.3797C110.858 57.4836 111.147 57.5701 111.26 57.3797L112.032 55.8299C112.158 55.6 111.81 55.558 111.717 55.7236C111.411 56.2699 110.069 56.1241 109.716 56.1241H109.524L110.654 53.892H111.911C112.693 53.892 113.367 54.4457 113.586 55.0513C113.641 55.1946 114.057 55.3108 114.144 55.1279Z" fill="#542582"/>
<path fill-rule="evenodd" clip-rule="evenodd" d="M81.8426 56.2769L84.0205 54.4923L84.0304 56.2769H81.8426ZM97.4286 53.3849H95.1027C94.6316 53.3849 94.7722 53.8768 94.9646 53.8768C95.4603 53.8768 95.9117 54.4601 95.6404 54.999L94.6784 56.7639L92.5548 53.6518C92.4117 53.459 92.0762 53.3651 91.7901 53.3651H89.5012C89.0301 53.3651 89.1411 53.8545 89.3335 53.8545C89.8169 53.8545 89.6936 54.2179 89.5727 54.4774L87.7499 57.9949C87.634 58.2791 87.1382 58.3162 86.9828 57.9603L85.572 53.3527C85.5128 53.1698 84.689 53.1797 84.4793 53.3527L80.9423 56.2745L79.1121 56.2769C78.7471 56.2769 78.604 56.4277 78.604 56.6205C78.604 56.8133 78.7422 56.9888 79.1269 56.9888L80.0839 56.9863L79.1269 57.7773C78.5942 58.1753 78.0491 58.7216 77.6865 58.7216H77.4645C77.1167 58.7216 76.9243 58.776 76.9243 59.0553C76.9243 59.3346 77.0698 59.431 77.3954 59.431H80.2492C80.7844 59.431 80.6808 58.729 80.412 58.729C80.1185 58.729 79.6301 58.3533 80.0815 57.8218L80.9522 56.9888H82.6689C83.6851 56.9888 84.3979 58.1728 83.7912 58.5362L83.32 58.7982C83.1005 58.9119 83.0019 59.431 83.32 59.431H88.8944C89.3063 59.431 89.2225 58.8847 89.0301 58.8847C88.4603 58.8847 88.7292 58.0616 88.8377 57.8416L90.3028 55.0633L92.3599 59.0553C92.4931 59.3099 92.614 59.431 92.8557 59.431H93.6425C93.8941 59.431 93.9755 59.2876 94.0939 59.0948L96.4346 54.8556C96.812 54.0992 97.1006 53.8792 97.5742 53.8792C97.7665 53.8792 97.8997 53.3849 97.4286 53.3849Z" fill="#542582"/>
<path fill-rule="evenodd" clip-rule="evenodd" d="M64.9766 56.8974C64.355 58.1407 63.3142 58.8773 62.6531 58.5461C61.9896 58.2124 61.9576 56.9344 62.5767 55.6936C63.1982 54.4502 64.2391 53.7136 64.9026 54.0449C65.5636 54.3761 65.5982 55.654 64.9766 56.8974ZM64.4216 53.1179C62.4632 53.1179 60.4431 54.0869 60.0411 56.1484C59.6908 57.9405 60.9266 59.8018 63.1168 59.8018C65.1986 59.8018 67.1225 58.4348 67.5097 56.4549C67.897 54.4675 66.4195 53.1179 64.4216 53.1179Z" fill="#542582"/>
<path fill-rule="evenodd" clip-rule="evenodd" d="M104.055 56.1248H101.536C101.065 56.1248 101.203 56.6167 101.396 56.6167C101.595 56.6167 101.78 56.723 101.78 57.0394C101.78 58.0603 101.346 58.4533 100.473 58.4533C99.5136 58.4533 99.1683 57.2891 99.8146 55.8603C100.226 54.9458 101.317 54.093 102.612 54.093C103.403 54.093 104.069 54.2635 104.17 55.01C104.195 55.1905 104.469 55.1905 104.565 55.0199L105.162 53.9447C105.229 53.831 105.125 53.695 104.942 53.6851C104.79 53.6752 104.444 53.8705 104.217 53.7049C103.714 53.3267 102.617 52.9658 101.79 52.9658C100.439 52.9658 98.5517 53.2723 97.2765 55.4871C96.1246 57.4942 97.8019 59.6151 99.3583 59.6175C100.224 59.62 101.228 58.9773 101.803 58.7376L102.444 59.1701C102.54 59.2863 102.742 59.4297 102.935 59.4297H103.174C103.396 59.4297 103.482 59.1306 103.569 58.9378L104.555 56.5401C104.681 56.3003 104.612 56.1248 104.055 56.1248Z" fill="#542582"/>
<path fill-rule="evenodd" clip-rule="evenodd" d="M138.545 53.5467C138.375 53.6382 137.975 53.6925 137.803 53.5467C137.356 53.1735 136.478 52.8867 136.019 52.8867C134.702 52.8867 133.743 53.1487 133.171 54.397C132.68 55.4574 133.183 56.3498 134.347 56.8886C134.85 57.121 135.521 57.4275 135.262 58.0356C135.075 58.4805 134.559 58.5275 134.093 58.5225C133.469 58.5176 132.532 58.0454 132.384 57.163C132.337 56.8738 132.001 56.9381 131.905 57.0963L131.106 58.6832C130.983 58.8958 131.311 59.1331 131.442 58.9922C131.71 58.7054 132.297 58.6362 132.584 58.829C132.981 59.091 133.999 59.5582 134.609 59.5533C135.945 59.5434 136.826 59.1973 137.559 58.0479C138.227 57.0023 137.815 55.9617 136.597 55.3833C135.95 55.0792 135.4 54.5404 135.689 53.9496C135.876 53.564 136.451 53.6456 136.737 53.6975C137.28 53.7889 137.978 54.3031 138.059 54.753C138.094 54.9458 138.338 54.9828 138.444 54.8123L138.866 53.8285C138.96 53.6382 138.651 53.4898 138.545 53.5467Z" fill="#542582"/>
<path fill-rule="evenodd" clip-rule="evenodd" d="M121.039 57.3416C120.193 58.4416 119.068 58.7209 117.807 58.7209H117.45L119.675 54.3087C119.781 54.106 120.015 53.9502 120.304 53.9502C120.582 53.9502 120.548 53.3916 120.183 53.3916H116.68C116.382 53.3916 116.276 53.9502 116.554 53.9502C116.853 53.9502 116.907 54.2815 116.764 54.5583L114.774 58.496C114.638 58.7085 114.418 58.7629 114.174 58.8247C113.878 58.9013 113.676 59.4328 114.011 59.4328H119.606C120.04 59.4328 120.138 59.2721 120.254 59.1189L121.379 57.3737C121.542 57.1612 121.201 57.129 121.039 57.3416Z" fill="#542582"/>
<path fill-rule="evenodd" clip-rule="evenodd" d="M129.476 53.892C130.258 53.892 130.932 54.4457 131.151 55.0513C131.205 55.1946 131.622 55.3083 131.708 55.1279L132.197 54.2281C132.407 53.8351 132.059 53.3853 131.501 53.3853H124.967C124.496 53.3853 124.637 53.8747 124.827 53.8747C125.246 53.8747 125.372 54.3888 125.118 54.8214L123.155 58.4451C122.861 58.7887 122.671 58.9395 122.252 58.9395C121.916 58.9395 121.795 59.4314 122.269 59.4314H128.887C129.158 59.4314 129.274 59.335 129.373 59.199L130.271 58.0002C130.492 57.7159 130.016 57.7159 129.873 57.8568C128.729 59.0037 127.506 58.9716 126.618 58.9716H125.846L126.753 56.9398H126.946C127.528 56.9398 128.199 56.9348 128.374 57.3773C128.423 57.4836 128.709 57.5701 128.825 57.3773L129.6 55.8274C129.723 55.5975 129.373 55.5605 129.281 55.7236C128.976 56.2724 127.634 56.1241 127.281 56.1241H127.089L128.216 53.892H129.476Z" fill="#542582"/>
<path fill-rule="evenodd" clip-rule="evenodd" d="M76.3843 75.0694L74.6183 75.0545C74.4925 75.0545 74.3914 75.1559 74.3914 75.2795C74.3914 75.4031 74.4925 75.5044 74.6183 75.5044L76.409 75.4871C77.0133 75.4871 77.5707 75.5637 77.4178 75.8332L72.7758 84.7169C72.1986 85.7774 70.9777 85.5079 70.7828 84.6626L68.484 72.7557L76.5693 66.4674C77.3734 65.7752 78.9175 64.6481 79.7092 64.6629L81.4728 64.653C82.5457 64.6456 82.9256 65.1499 82.674 65.7975L82.3632 66.4006C82.161 66.7368 81.5246 66.7788 80.9869 66.7788H79.9682C79.8449 66.7788 79.7437 66.8802 79.7437 67.0087C79.7437 67.1323 79.8449 67.2336 79.9682 67.2336H80.9721C81.4062 67.2336 81.9513 67.2435 81.7515 67.5698L77.9999 74.7381C77.8273 75.0175 77.0478 75.0694 76.3843 75.0694ZM90.3745 79.4915C86.5909 84.0891 84.4474 85.6637 80.6046 85.6637C79.2973 85.6637 78.6165 85.3695 78.9816 84.7343L83.5397 75.5514H85.2787C87.2198 75.5514 86.951 77.1877 86.4231 79.405C86.3269 79.7164 86.5637 79.7362 86.7956 79.4643L91.1293 71.8337C91.3389 71.3542 90.7938 71.2578 90.525 71.6261C88.3544 74.575 86.0704 74.3575 85.1085 74.3575H84.3241L89.1881 65.0461H91.1515C93.6229 65.2018 94.7748 67.3053 94.0595 72.3726H95.0881L98.6646 65.3031C98.9531 64.7074 98.3414 64.1611 97.6681 64.1611L73.3826 64.171C71.9791 64.171 71.9174 65.2487 73.2617 65.2487C74.3544 65.2487 74.2976 66.8208 73.316 67.5797L63.0083 75.7812L65.0876 85.4684C65.243 86.2001 65.7092 86.5486 66.5182 86.5486H86.5983C87.427 86.5486 87.7674 86.2099 88.0362 85.8639L91.6744 79.5681C92.1751 78.6634 91.0109 78.7203 90.3745 79.4915Z" fill="#542582"/>
<mask id="mask0_429_2247" style="mask-type:alpha" maskUnits="userSpaceOnUse" x="31" y="53" width="39" height="41">
<path d="M35.7619 93.8523C32.9855 88.2707 31.4211 81.9591 31.4211 75.2757C31.4211 67.2201 33.6939 59.7044 37.6224 53.3562H69.8445V93.8523H35.7619Z" fill="white"/>
</mask>
<g mask="url(#mask0_429_2247)">
<path fill-rule="evenodd" clip-rule="evenodd" d="M45.9464 76.8486H39.5556L47.6385 66.1677L45.9464 76.8486ZM44.4665 83.483C44.2741 84.5805 43.174 85.3097 41.7903 85.673L40.3622 86.0314L41.5338 83.9156C41.8421 83.3371 41.1663 82.996 40.4288 83.8587C35.4612 89.6502 33.8801 92.4261 26.2215 92.4434L24.1644 92.4483C23.5429 92.4483 22.8596 92.2061 23.2814 91.6079L25.9921 86.553H36.2801C37.6835 86.553 37.3234 85.4951 36.4971 85.4654C35.9545 85.4481 35.3576 85.1342 34.9358 84.4668C34.8199 84.2814 34.5633 83.5473 34.9654 82.9812L38.9044 77.736H45.4556L44.4665 83.483ZM59.7121 85.4654C59.1695 85.4481 58.8193 85.0724 58.6984 84.714C58.5257 84.1924 58.5381 83.2753 58.7502 82.87L68.1181 66.2172C68.271 65.9107 68.6509 65.2631 69.1171 65.268C69.9433 65.2705 70.301 64.1804 68.9 64.1804H61.3968C59.9933 64.1804 59.9785 65.2482 61.3228 65.2482C61.8728 65.2482 62.0874 65.7871 61.9345 66.1158L59.8601 69.8804C59.6012 70.2957 59.0265 70.3254 58.4221 70.3254L56.6339 70.3204C56.5106 70.3204 56.4095 70.4218 56.4095 70.5478C56.4095 70.6714 56.5106 70.7728 56.6339 70.7728H58.4073C58.8883 70.7728 59.2706 70.9162 58.9919 71.4773L52.0758 84.1009C51.5775 84.7955 50.586 84.9488 50.6427 83.6214L53.1018 65.1296C53.198 64.5512 53.0451 64.1606 52.4309 64.1606L48.7213 64.1656C48.2798 64.1656 48.006 64.3831 47.7938 64.6698L46.4668 66.3408C46.2942 66.5138 45.9193 66.5138 45.5074 66.5138L42.3946 66.5089C42.2713 66.5089 42.1701 66.6102 42.1701 66.7338C42.1701 66.8574 42.2713 66.9587 42.3946 66.9587H44.9351C45.3865 66.9587 45.9143 67.065 45.7244 67.2776L42.1578 71.7739C42.0493 71.8999 41.7015 71.9345 41.4894 71.9345L40.483 71.9296C40.3597 71.9296 40.2561 72.031 40.2561 72.1521C40.2561 72.2806 40.3597 72.382 40.483 72.382H41.3241C41.5831 72.382 41.5856 72.5105 41.4795 72.6267L38.1275 76.8486C37.9548 77.0117 37.6194 77.0463 37.2913 77.0463L34.334 77.0438C34.2082 77.0438 34.1095 77.1427 34.1095 77.2688C34.1095 77.3924 34.2082 77.4937 34.334 77.4937H36.8745C37.2593 77.4937 37.5577 77.5654 37.3555 77.8249L32.5876 83.8167C31.6923 84.9587 27.3759 85.5396 26.5372 85.5396L42.656 55.3114C42.8114 54.9629 43.4083 54.4339 44.0299 54.4339H47.451C49.0666 54.4339 49.0197 53.3562 47.6163 53.3562H30.4097C29.0062 53.3562 28.9495 54.4339 30.5651 54.4339H33.7494C34.6521 54.4339 34.9457 54.9827 34.7113 55.4276L34.2575 56.2606C34.1021 56.5325 33.89 56.6413 33.0168 56.6413L27.3857 56.6363C27.2624 56.6363 27.1613 56.7377 27.1613 56.8613C27.1613 56.9849 27.2624 57.0862 27.3857 57.0862H33.002C33.3079 57.0862 33.7642 57.1678 33.4756 57.7165L32.6888 59.1848C32.5531 59.4048 32.2078 59.5111 31.8156 59.5111L29.2603 59.5061C29.1345 59.5061 29.0334 59.605 29.0334 59.7311C29.0334 59.8547 29.1345 59.956 29.2603 59.956H31.8008C32.1659 59.956 32.1733 60.1983 31.9636 60.5344L30.1507 63.911C29.9953 64.2002 29.7018 64.2348 29.1246 64.2348L28.1059 64.2298C27.9826 64.2298 27.8815 64.3312 27.8815 64.4572C27.8815 64.5833 27.9826 64.6846 28.1059 64.6846H29.1098C29.4946 64.6846 29.5957 64.8997 29.4231 65.2631L27.9333 68.034C27.7113 68.432 27.3956 68.5901 26.404 68.5901L20.7754 68.5852C20.6496 68.5852 20.551 68.6866 20.551 68.8101C20.551 68.9362 20.6496 69.0376 20.7754 69.0376H26.3892C27.0256 69.0474 27.2599 69.3292 27.0083 69.7816L24.1028 75.2567C23.9301 75.4965 23.4541 75.5335 22.6475 75.5335L17.0189 75.5286C16.8931 75.5286 16.7919 75.6299 16.7919 75.7535C16.7919 75.8771 16.8931 75.976 17.0189 75.976L22.6327 75.9809C23.3061 75.9809 23.7155 76.0081 23.5157 76.3641L21.8409 79.5206C21.5326 80.0026 20.6693 80.0026 20.3314 80.0026L18.5457 79.9977C18.4223 79.9977 18.3212 80.0941 18.3212 80.2202C18.3212 80.3462 18.4223 80.4476 18.5457 80.4476H20.3166C20.9407 80.4476 21.2736 80.5563 21.1084 80.895L18.8737 85.107C18.6714 85.4827 17.7958 85.5 17.1225 85.5L8.41806 85.4951C8.29473 85.4951 8.1936 85.5964 8.1936 85.72C8.1936 85.8436 8.29473 85.9449 8.41806 85.9449L17.1077 85.9474C17.6848 85.9474 18.4125 86.0191 18.1461 86.4789L16.718 89.1707C16.5823 89.3932 16.0939 89.4105 15.3934 89.4105L13.6077 89.408C13.4819 89.408 13.3807 89.5093 13.3807 89.6329C13.3807 89.7565 13.4819 89.8579 13.6077 89.8579H15.3786C15.8127 89.8579 16.3381 89.9073 16.1531 90.236L15.2627 91.954C14.9741 92.3791 14.6855 92.7573 13.9949 92.7573H9.62666C8.01354 92.7573 8.06781 93.84 9.47127 93.84L35.1208 93.8523C35.8706 93.8523 35.8953 93.751 36.248 93.1998L40.0514 86.553H59.4951C60.8986 86.553 60.5384 85.4951 59.7121 85.4654Z" fill="#542582"/>
</g>
<mask id="mask1_429_2247" style="mask-type:alpha" maskUnits="userSpaceOnUse" x="90" y="63" width="23" height="35">
<path d="M105.926 97.6495C110.03 91.2068 112.412 83.5244 112.412 75.2756C112.412 71.2765 111.852 67.4104 110.807 63.7542H90.2258V97.6495H105.926Z" fill="white"/>
</mask>
<g mask="url(#mask1_429_2247)">
<path fill-rule="evenodd" clip-rule="evenodd" d="M109.361 73.2757C108.655 73.8566 107.546 74.524 107.331 74.3114C107.03 74.0123 106.098 73.3671 105.597 73.1373L109.783 65.4647C109.955 65.1928 110.155 65.0469 110.616 65.0469C112.247 65.0469 112.782 66.8192 112.015 69.0266C111.48 70.574 110.609 72.2474 109.361 73.2757ZM143.177 80.1548C143.071 79.6283 142.879 79.9472 142.533 80.6121C142.427 80.8123 142.089 80.8173 141.754 80.8173L140.725 80.8222C140.602 80.8222 140.501 80.9235 140.501 81.0471C140.501 81.1707 140.602 81.2721 140.725 81.2721H141.737C142.121 81.2721 142.126 81.5291 141.946 81.9148C141.241 83.4275 140.511 84.441 139.544 85.6497C139.391 85.845 139.001 86.0057 138.693 86.0057L137.662 86.0131C137.536 86.0131 137.435 86.1095 137.435 86.238C137.435 86.3616 137.536 86.4629 137.662 86.4629H138.671C139.181 86.4629 138.666 86.7769 138.579 86.893C136.786 89.2907 135.551 90.361 134.231 91.4338C134.078 91.5574 133.333 91.5154 132.813 91.5129L131.796 91.5179C131.671 91.5179 131.57 91.6167 131.57 91.7428C131.57 91.8664 131.671 91.9677 131.796 91.9677H132.8C133.567 91.9677 132.993 92.4102 132.877 92.5066C130.082 94.84 125.916 95.5939 124.015 95.3541C117.826 94.578 116.553 89.8741 116.097 87.993C116.001 87.6 115.705 86.7966 115.606 86.2973C115.416 85.3135 118.206 85.0342 118.975 85.5508C120.147 86.3344 122.87 87.1353 125.014 87.1452C126.997 87.1526 131.054 85.709 132.228 82.2929C133.429 78.8052 130.41 74.9293 129.073 73.5921C127.372 71.884 125.766 69.1675 126.442 67.1727C126.952 65.6723 127.808 64.9901 129.638 64.9901C132.004 64.9901 133.725 66.5127 133.725 68.6756C133.725 68.8684 133.607 69.0983 133.452 69.0983L132.615 69.1032C132.492 69.1032 132.391 69.2046 132.391 69.3281C132.391 69.4517 132.492 69.5531 132.615 69.5531H133.402C133.622 69.5531 133.76 69.7212 133.703 69.9906C133.548 70.7149 133.498 71.224 133.341 71.9508C133.249 72.371 133.866 72.6627 134.078 72.3537L137.795 65.702C138.064 65.2002 137.467 65.0667 137.026 65.22C136.009 65.5759 134.352 65.8181 133.767 65.3955C132.376 64.3993 131.111 63.7542 129.167 63.7542C125.864 63.7542 123.548 64.5699 122.064 67.2963C121.95 67.5089 121.624 67.5064 121.346 67.5064L120.712 67.5039C120.586 67.5039 120.485 67.6053 120.485 67.7313C120.485 67.8549 120.586 67.9563 120.712 67.9563L121.252 67.9513C121.481 67.9513 121.637 68.0156 121.521 68.2826C121.417 68.5297 121.329 68.7893 121.242 69.0562C120.865 70.2353 120.988 71.889 121.575 73.3671C121.615 73.4635 121.491 73.5105 121.264 73.508L120.251 73.513C120.127 73.513 120.026 73.6143 120.026 73.7379C120.026 73.864 120.127 73.9653 120.251 73.9653H121.259C121.721 73.9653 121.827 74.0123 122.019 74.2817C122.54 75.0159 123.075 75.5621 123.748 76.4174C123.958 76.6893 123.055 76.7634 122.574 76.7585H118.568C118.443 76.7585 118.344 76.8598 118.344 76.9834C118.344 77.1095 118.443 77.2084 118.568 77.2084L122.626 77.2034C123.28 77.2034 124.397 77.1935 124.523 77.3369C125.504 78.4715 126.691 80.2215 126.891 81.6923C126.95 82.1174 126.789 82.2929 126.269 82.2929H125.726C125.603 82.2929 125.502 82.3943 125.502 82.5204C125.502 82.6464 125.603 82.7453 125.726 82.7453H126.205C126.617 82.7453 126.844 82.8096 126.747 83.1185C126.222 84.8068 125.433 86.0254 122.221 86.0057C118.855 85.9908 118.169 82.6835 119.155 79.2328C119.35 78.5456 119.146 78.2515 118.84 78.7879L116.497 82.4808C116.437 82.5673 116.21 82.7774 115.855 82.7774L115.522 82.775C115.399 82.775 115.298 82.8763 115.298 83.0024C115.298 83.126 115.401 83.2248 115.525 83.2248C115.823 83.2248 115.939 83.3855 115.826 83.5486L114.962 84.8933C113.549 81.6478 111.176 77.6508 109.911 76.1949L109.933 76.1257C113.053 75.9354 117.661 73.0062 118.413 70.3861C119.723 65.8404 115.318 64.1595 112.918 64.1595L102.363 64.1645C100.962 64.1645 100.859 65.2274 102.205 65.2274C102.931 65.2274 103.567 65.8651 103.244 66.5103L100.906 70.7322C100.713 71.0807 99.9905 71.0584 99.0483 71.0584H98.0247C97.9013 71.0584 97.8002 71.1598 97.8002 71.2834C97.8002 71.407 97.9013 71.5083 98.0247 71.5083H99.031C99.7044 71.5083 100.444 71.5503 100.195 72.0323L97.4327 77.0304C97.297 77.2628 96.9394 77.285 95.9972 77.285L94.9785 77.2875C94.8552 77.2875 94.754 77.3888 94.754 77.5124C94.754 77.6385 94.8552 77.7398 94.9785 77.7398L95.975 77.7373C96.7174 77.7373 96.9937 77.8362 96.7815 78.2218L93.0891 84.9131C92.6476 85.3951 92.1222 85.4841 91.2195 85.4841C89.8752 85.4841 89.89 86.5519 91.2935 86.5519H100.331C101.734 86.5519 101.377 85.4643 100.55 85.4643C100.064 85.4668 99.549 84.5695 99.8721 84.0331L104.487 75.2729H104.956C107.008 75.2729 107.504 78.647 107.891 82.3325C107.918 82.5945 107.415 82.6069 106.394 82.6069L103.828 82.6093C103.705 82.6093 103.604 82.7107 103.604 82.8392C103.604 82.9628 103.705 83.0617 103.828 83.0617H106.366C107.04 83.0617 107.982 83.0691 108.004 83.2866C108.182 84.9032 108.315 86.3245 108.621 87.6198C108.72 88.0251 107.999 87.9609 107.23 87.9609L103.964 87.9683C103.838 87.9683 103.74 88.0696 103.74 88.1908C103.74 88.3168 103.838 88.4182 103.964 88.4182L107.227 88.4231C108.253 88.4231 108.781 88.4206 108.84 88.6332C110.246 93.7994 116.275 97.8655 122.138 97.6406C127.167 97.4478 131.414 94.7065 133.59 92.9589C136.485 90.6305 140.735 85.7585 142.464 82.2163C142.782 81.5662 143.293 80.7332 143.177 80.1548Z" fill="#542582"/>
</g>
<path fill-rule="evenodd" clip-rule="evenodd" d="M58.4657 57.3416C57.6197 58.4416 56.4949 58.7209 55.2345 58.7209H54.8769L57.1017 54.3087C57.2077 54.106 57.4421 53.9502 57.7306 53.9502C58.0094 53.9502 57.9773 53.3916 57.6123 53.3916H54.1073C53.8089 53.3916 53.7028 53.9502 53.9815 53.9502C54.28 53.9502 54.3367 54.2815 54.1912 54.5583L52.2007 58.496C52.0675 58.7085 51.8455 58.7629 51.6013 58.8247C51.3078 58.9013 51.1031 59.4328 51.4385 59.4328H57.0351C57.4667 59.4328 57.5679 59.2721 57.6813 59.1189L58.8061 57.3737C58.9688 57.1612 58.6285 57.129 58.4657 57.3416Z" fill="#542582"/>
<path fill-rule="evenodd" clip-rule="evenodd" d="M75.3196 53.5469C75.1494 53.6384 74.7498 53.6928 74.5771 53.5469C74.1307 53.1737 73.2526 52.887 72.7938 52.887C71.4742 52.887 70.5172 53.149 69.945 54.3973C69.4541 55.4577 69.9573 56.35 71.1215 56.8889C71.6247 57.1212 72.2931 57.4277 72.0366 58.0358C71.8491 58.4807 71.3336 58.5277 70.8675 58.5228C70.2434 58.5178 69.3037 58.0457 69.1581 57.1632C69.1088 56.874 68.7734 56.9383 68.6772 57.0965L67.8829 58.6834C67.7572 58.896 68.0852 59.1333 68.2159 58.9924C68.4848 58.7057 69.0694 58.6365 69.3579 58.8293C69.755 59.0913 70.7737 59.5585 71.383 59.5535C72.7198 59.5436 73.6004 59.1976 74.3305 58.0482C75.0014 57.0026 74.5895 55.9619 73.371 55.3835C72.7248 55.0795 72.1747 54.5406 72.4633 53.9499C72.6483 53.5642 73.223 53.6458 73.5091 53.6977C74.0542 53.7892 74.7522 54.3033 74.8336 54.7532C74.8682 54.946 75.1124 54.9831 75.2184 54.8125L75.6377 53.8287C75.7339 53.6384 75.4256 53.4901 75.3196 53.5469Z" fill="#542582"/>
<mask id="mask2_429_2247" style="mask-type:alpha" maskUnits="userSpaceOnUse" x="104" y="53" width="6" height="7">
<path d="M109.309 59.4314C108.445 57.3214 107.412 55.3003 106.23 53.3853H104.391V59.4314H109.309Z" fill="white"/>
</mask>
<g mask="url(#mask2_429_2247)">
<path fill-rule="evenodd" clip-rule="evenodd" d="M114.144 55.1279L114.63 54.2282C114.842 53.8327 114.494 53.3853 113.936 53.3853H107.403C106.932 53.3853 107.07 53.8771 107.262 53.8771C107.681 53.8771 107.807 54.3888 107.553 54.8214L105.587 58.4451C105.294 58.7887 105.106 58.9395 104.687 58.9395C104.352 58.9395 104.231 59.4314 104.702 59.4314H111.324C111.591 59.4314 111.709 59.335 111.805 59.2015L112.706 58.0027C112.925 57.7134 112.452 57.7134 112.306 57.8568C111.164 59.0037 109.941 58.9691 109.053 58.9691H108.281L109.188 56.9422H109.381C109.963 56.9422 110.634 56.9348 110.811 57.3797C110.858 57.4836 111.147 57.5701 111.26 57.3797L112.032 55.8299C112.158 55.6 111.81 55.558 111.717 55.7236C111.411 56.2699 110.069 56.1241 109.716 56.1241H109.524L110.654 53.892H111.911C112.693 53.892 113.367 54.4457 113.586 55.0513C113.641 55.1946 114.057 55.3108 114.144 55.1279Z" fill="#542582"/>
</g>
<path fill-rule="evenodd" clip-rule="evenodd" d="M81.8426 56.2772L84.0205 54.4925L84.0304 56.2772H81.8426ZM97.4286 53.3851H95.1027C94.6316 53.3851 94.7722 53.877 94.9646 53.877C95.4603 53.877 95.9117 54.4604 95.6404 54.9992L94.6784 56.7641L92.5548 53.6521C92.4117 53.4593 92.0762 53.3653 91.7901 53.3653H89.5012C89.0301 53.3653 89.1411 53.8548 89.3335 53.8548C89.8169 53.8548 89.6936 54.2181 89.5727 54.4777L87.7499 57.9951C87.634 58.2794 87.1382 58.3164 86.9829 57.9605L85.572 53.353C85.5128 53.1701 84.689 53.18 84.4793 53.353L80.9423 56.2747L79.1121 56.2772C78.7471 56.2772 78.604 56.428 78.604 56.6208C78.604 56.8136 78.7422 56.9891 79.1269 56.9891L80.084 56.9866L79.1269 57.7776C78.5942 58.1755 78.0491 58.7218 77.6865 58.7218H77.4645C77.1167 58.7218 76.9243 58.7762 76.9243 59.0555C76.9243 59.3348 77.0698 59.4312 77.3954 59.4312H80.2492C80.7844 59.4312 80.6809 58.7292 80.412 58.7292C80.1185 58.7292 79.6301 58.3535 80.0815 57.8221L80.9522 56.9891H82.6689C83.6851 56.9891 84.3979 58.1731 83.7912 58.5364L83.32 58.7984C83.1005 58.9122 83.0019 59.4312 83.32 59.4312H88.8944C89.3063 59.4312 89.2225 58.885 89.0301 58.885C88.4603 58.885 88.7292 58.0618 88.8377 57.8418L90.3028 55.0635L92.3599 59.0555C92.4931 59.3101 92.614 59.4312 92.8557 59.4312H93.6425C93.8941 59.4312 93.9755 59.2879 94.0939 59.0951L96.4346 54.8559C96.812 54.0995 97.1006 53.8795 97.5742 53.8795C97.7666 53.8795 97.8997 53.3851 97.4286 53.3851Z" fill="#542582"/>
<path fill-rule="evenodd" clip-rule="evenodd" d="M64.9766 56.8976C64.355 58.1409 63.3142 58.8776 62.6531 58.5463C61.9896 58.2126 61.9576 56.9347 62.5767 55.6938C63.1982 54.4505 64.2391 53.7139 64.9026 54.0451C65.5636 54.3763 65.5982 55.6543 64.9766 56.8976ZM64.4216 53.1182C62.4632 53.1182 60.4431 54.0871 60.0411 56.1486C59.6908 57.9407 60.9266 59.802 63.1168 59.802C65.1986 59.802 67.1225 58.4351 67.5097 56.4551C67.897 54.4678 66.4195 53.1182 64.4216 53.1182Z" fill="#542582"/>
<path fill-rule="evenodd" clip-rule="evenodd" d="M104.055 56.1251H101.536C101.065 56.1251 101.203 56.617 101.396 56.617C101.595 56.617 101.78 56.7233 101.78 57.0397C101.78 58.0605 101.346 58.4535 100.473 58.4535C99.5136 58.4535 99.1683 57.2893 99.8146 55.8606C100.226 54.946 101.317 54.0932 102.612 54.0932C103.403 54.0932 104.069 54.2638 104.17 55.0103C104.195 55.1907 104.469 55.1907 104.565 55.0202L105.162 53.9449C105.229 53.8312 105.125 53.6953 104.942 53.6854C104.79 53.6755 104.444 53.8708 104.217 53.7051C103.714 53.327 102.617 52.9661 101.79 52.9661C100.439 52.9661 98.5517 53.2726 97.2765 55.4873C96.1246 57.4945 97.8019 59.6153 99.3583 59.6178C100.224 59.6203 101.228 58.9776 101.803 58.7378L102.444 59.1704C102.54 59.2866 102.742 59.4299 102.935 59.4299H103.174C103.396 59.4299 103.482 59.1308 103.569 58.938L104.555 56.5403C104.681 56.3006 104.612 56.1251 104.055 56.1251Z" fill="#542582"/>
<path fill-rule="evenodd" clip-rule="evenodd" d="M138.545 53.5469C138.375 53.6384 137.975 53.6928 137.802 53.5469C137.356 53.1737 136.478 52.887 136.019 52.887C134.702 52.887 133.743 53.149 133.17 54.3973C132.679 55.4577 133.183 56.35 134.347 56.8889C134.85 57.1212 135.521 57.4277 135.262 58.0358C135.075 58.4807 134.559 58.5277 134.093 58.5228C133.469 58.5178 132.532 58.0457 132.384 57.1632C132.337 56.874 132.001 56.9383 131.905 57.0965L131.106 58.6834C130.983 58.896 131.311 59.1333 131.441 58.9924C131.71 58.7057 132.297 58.6365 132.583 58.8293C132.98 59.0913 133.999 59.5585 134.608 59.5535C135.945 59.5436 136.826 59.1976 137.558 58.0482C138.227 57.0026 137.815 55.9619 136.596 55.3835C135.95 55.0795 135.4 54.5406 135.689 53.9499C135.876 53.5642 136.451 53.6458 136.737 53.6977C137.28 53.7892 137.978 54.3033 138.059 54.7532C138.094 54.946 138.338 54.9831 138.444 54.8125L138.866 53.8287C138.959 53.6384 138.651 53.4901 138.545 53.5469Z" fill="#542582"/>
<path fill-rule="evenodd" clip-rule="evenodd" d="M121.039 57.3416C120.193 58.4416 119.068 58.7209 117.807 58.7209H117.45L119.675 54.3087C119.781 54.106 120.015 53.9502 120.304 53.9502C120.582 53.9502 120.548 53.3916 120.183 53.3916H116.68C116.382 53.3916 116.276 53.9502 116.554 53.9502C116.853 53.9502 116.907 54.2815 116.764 54.5583L114.774 58.496C114.638 58.7085 114.418 58.7629 114.174 58.8247C113.878 58.9013 113.676 59.4328 114.011 59.4328H119.606C120.04 59.4328 120.138 59.2721 120.254 59.1189L121.379 57.3737C121.542 57.1612 121.201 57.129 121.039 57.3416Z" fill="#542582"/>
<path fill-rule="evenodd" clip-rule="evenodd" d="M129.476 53.892C130.258 53.892 130.932 54.4457 131.151 55.0513C131.205 55.1946 131.622 55.3083 131.708 55.1279L132.197 54.2282C132.407 53.8351 132.059 53.3853 131.501 53.3853H124.967C124.496 53.3853 124.637 53.8747 124.827 53.8747C125.246 53.8747 125.372 54.3888 125.118 54.8214L123.155 58.4451C122.861 58.7887 122.671 58.9395 122.252 58.9395C121.916 58.9395 121.795 59.4314 122.269 59.4314H128.887C129.158 59.4314 129.274 59.335 129.373 59.199L130.271 58.0002C130.492 57.7159 130.016 57.7159 129.873 57.8568C128.729 59.0037 127.506 58.9716 126.618 58.9716H125.846L126.753 56.9398H126.946C127.528 56.9398 128.199 56.9348 128.374 57.3773C128.423 57.4836 128.709 57.5701 128.825 57.3773L129.6 55.8274C129.723 55.5976 129.373 55.5605 129.281 55.7236C128.976 56.2724 127.634 56.1241 127.281 56.1241H127.089L128.216 53.892H129.476Z" fill="#542582"/>
<path fill-rule="evenodd" clip-rule="evenodd" d="M78.9508 38.2716C75.8676 38.0516 73.3493 37.9626 71.1467 38.1949C71.7855 36.5833 73.0607 35.0779 74.0449 34.418C76.1439 34.5045 78.3144 34.811 80.0312 35.1521C85.5315 36.2397 94.0781 39.5965 97.7606 44.55C92.8522 41.265 84.6954 38.6819 78.9508 38.2716ZM69.7186 38.3877C67.8637 38.5014 64.5043 39.2331 63.3056 39.5816C62.9973 38.7709 62.1488 36.2669 61.8774 35.4586C65.2887 34.4896 69.2549 34.151 72.306 34.418C71.4575 35.073 70.0269 37.6536 69.7186 38.3877ZM54.1893 42.9705C53.8094 42.3278 52.0014 40.6767 51.0222 40.3504C53.3013 38.6572 58.5945 36.2298 60.6022 35.8071C60.95 36.3831 61.8774 38.85 62.1858 39.8881C60.4099 40.2737 55.6963 41.9694 54.1893 42.9705ZM103.749 48.594C103.246 48.0155 102.551 46.7846 97.5682 42.4317C90.2426 36.0321 80.5343 33.1104 71.418 33.1104C64.6967 33.1104 58.814 34.6206 52.2974 38.2196C43.9926 42.7975 40.5542 48.0625 39.7057 49.1328C39.0792 49.9213 38.9905 50.3811 39.395 50.6159C39.686 50.784 40.2435 50.171 40.7664 49.4789C43.2354 46.2111 46.4838 42.9705 49.9024 41.0647C50.9655 41.218 52.4528 42.7011 53.03 43.4896C50.8422 44.686 47.2188 47.4495 45.8474 48.5173C44.661 49.4369 44.2516 49.9535 44.5722 50.3267C44.8361 50.6382 45.7438 50.0252 46.5035 49.4022C47.8157 48.3245 51.7178 45.5511 53.6491 44.5105C54.9637 46.0529 54.537 48.9005 54.0733 49.5184C53.8242 49.8496 53.7897 50.2031 54.0733 50.3663C54.3446 50.5195 54.6382 50.129 55.0205 49.5753C55.9158 48.28 55.5582 45.1408 54.7886 44.0112C57.1442 42.5454 60.5258 41.564 62.573 41.1018C62.7457 41.4306 65.227 48.6978 65.7006 50.0177C65.9596 50.742 66.2161 51.6071 66.7439 51.444C67.0942 51.3352 66.8623 50.5442 66.5688 49.7483C66.2087 48.7645 64.3292 42.6615 63.7495 40.8522C64.4278 40.4863 68.505 39.6558 69.5262 39.6953C69.023 42.355 70.9 43.4451 73.0213 44.8392C74.1485 45.5808 81.3162 49.7063 82.8134 50.6357C83.6668 51.1647 84.3303 51.5058 84.5128 51.2512C84.7225 50.9669 84.1404 50.3663 83.3536 49.904C82.7246 49.5357 76.0576 45.6574 73.2704 43.895C71.2774 42.6319 70.2045 41.2798 70.683 39.5025C71.3415 39.3122 73.3493 39.2949 75.436 39.3122C89.6506 39.4259 101.046 47.5929 102.321 48.9005C102.965 49.5654 103.865 50.1339 104.213 49.8645C104.433 49.6939 104.053 48.9425 103.749 48.594Z" fill="#2D2925"/>
<path fill-rule="evenodd" clip-rule="evenodd" d="M106.825 97.3615C107.35 96.3926 107.777 95.8414 107.328 95.5917C106.916 95.3618 106.514 96.2616 106.013 97.1317C104.353 100.019 102.54 102.404 98.4433 106.146C93.9049 110.287 88.6882 112.692 86.8753 113.31C85.3288 108.957 79.4387 90.4181 79.2833 89.8892C79.0514 89.1007 78.8541 88.8708 78.5877 88.9672C78.2893 89.0735 78.4718 89.5036 78.6272 90.1982C78.7801 90.8903 85.7925 112.828 86.0243 113.597C84.6332 114.294 78.9824 115.873 75.0334 116.004C71.5211 116.12 67.3872 116.004 65.3005 115.525C62.8561 113.545 57.2941 105.674 55.1828 101.485C52.694 96.5458 51.0464 92.0026 50.6221 90.0795C50.4174 89.1575 50.156 88.4926 49.6947 88.5791C49.1965 88.6755 49.4826 89.4047 49.7736 90.3934C50.521 92.9295 51.7419 96.5261 54.3318 101.658C57.0771 107.091 61.9781 113.463 63.4062 115.196C58.9294 114.254 53.4858 112.153 48.3135 108.29C43.8589 104.96 40.0308 100.721 38.1069 97.6334C37.7764 97.102 37.3892 96.3506 36.9107 96.6694C36.6936 96.8128 36.96 97.4135 37.2954 98.0191C40.09 103.049 46.9075 110.173 55.644 114.081C65.8259 118.634 76.9277 118.392 86.8555 114.541C95.5378 111.172 103.093 104.241 106.825 97.3615Z" fill="#2D2925"/>
<mask id="mask3_429_2247" style="mask-type:alpha" maskUnits="userSpaceOnUse" x="39" y="34" width="66" height="18">
<path d="M104.278 50.5051C96.888 40.5278 85.1425 34.0774 71.9143 34.0774C58.4453 34.0774 46.5111 40.7691 39.1492 51.0634V51.4641H104.278V50.5051Z" fill="white"/>
</mask>
<g mask="url(#mask3_429_2247)">
<path fill-rule="evenodd" clip-rule="evenodd" d="M78.9508 38.2716C75.8676 38.0516 73.3493 37.9626 71.1467 38.1949C71.7855 36.5833 73.0607 35.0779 74.0449 34.418C76.1439 34.5045 78.3144 34.811 80.0312 35.1521C85.5315 36.2397 94.0781 39.5965 97.7606 44.55C92.8522 41.265 84.6954 38.6819 78.9508 38.2716ZM69.7186 38.3877C67.8637 38.5014 64.5043 39.2331 63.3056 39.5816C62.9973 38.7709 62.1488 36.2669 61.8774 35.4586C65.2887 34.4896 69.2549 34.151 72.306 34.418C71.4575 35.073 70.0269 37.6536 69.7186 38.3877ZM54.1893 42.9705C53.8094 42.3278 52.0014 40.6767 51.0222 40.3504C53.3013 38.6572 58.5945 36.2298 60.6022 35.8071C60.95 36.3831 61.8774 38.85 62.1858 39.8881C60.4099 40.2737 55.6963 41.9694 54.1893 42.9705ZM103.749 48.594C103.246 48.0155 102.551 46.7846 97.5682 42.4317C90.2426 36.0321 80.5343 33.1104 71.418 33.1104C64.6967 33.1104 58.814 34.6206 52.2974 38.2196C43.9926 42.7975 40.5542 48.0625 39.7058 49.1328C39.0792 49.9213 38.9905 50.3811 39.395 50.6159C39.686 50.784 40.2435 50.171 40.7664 49.4789C43.2354 46.2111 46.4838 42.9705 49.9024 41.0647C50.9655 41.218 52.4528 42.7011 53.03 43.4896C50.8422 44.686 47.2188 47.4495 45.8474 48.5173C44.661 49.4369 44.2516 49.9535 44.5722 50.3267C44.8361 50.6382 45.7438 50.0252 46.5035 49.4022C47.8157 48.3245 51.7178 45.5511 53.6491 44.5105C54.9637 46.0529 54.537 48.9005 54.0733 49.5184C53.8242 49.8496 53.7897 50.2031 54.0733 50.3663C54.3446 50.5195 54.6382 50.129 55.0205 49.5753C55.9158 48.28 55.5582 45.1408 54.7886 44.0112C57.1442 42.5454 60.5258 41.564 62.573 41.1018C62.7457 41.4306 65.227 48.6978 65.7006 50.0177C65.9596 50.742 66.2161 51.6071 66.7439 51.444C67.0942 51.3352 66.8623 50.5442 66.5688 49.7483C66.2087 48.7645 64.3292 42.6615 63.7495 40.8522C64.4278 40.4863 68.505 39.6558 69.5262 39.6953C69.023 42.355 70.9 43.4451 73.0213 44.8392C74.1485 45.5808 81.3162 49.7063 82.8134 50.6357C83.6668 51.1647 84.3303 51.5058 84.5128 51.2512C84.7225 50.9669 84.1404 50.3663 83.3536 49.904C82.7246 49.5357 76.0576 45.6574 73.2704 43.895C71.2774 42.6319 70.2045 41.2798 70.683 39.5025C71.3415 39.3122 73.3493 39.2949 75.436 39.3122C89.6506 39.4259 101.046 47.5929 102.321 48.9005C102.965 49.5654 103.865 50.1339 104.213 49.8645C104.433 49.6939 104.053 48.9425 103.749 48.594Z" fill="#2D2925"/>
</g>
<mask id="mask4_429_2247" style="mask-type:alpha" maskUnits="userSpaceOnUse" x="36" y="88" width="72" height="29">
<path d="M36.832 95.8628C43.8323 108.184 56.9226 116.474 71.9143 116.474C87.2866 116.474 100.657 107.763 107.516 94.9291V88.5718H36.832V95.8628Z" fill="white"/>
</mask>
<g mask="url(#mask4_429_2247)">
<path fill-rule="evenodd" clip-rule="evenodd" d="M106.825 97.3618C107.35 96.3928 107.777 95.8416 107.328 95.592C106.916 95.3621 106.514 96.2618 106.013 97.1319C104.353 100.019 102.54 102.404 98.4433 106.147C93.9049 110.287 88.6882 112.692 86.8753 113.31C85.3288 108.957 79.4387 90.4184 79.2833 89.8894C79.0514 89.1009 78.8541 88.871 78.5877 88.9674C78.2893 89.0737 78.4718 89.5038 78.6272 90.1984C78.7801 90.8905 85.7925 112.828 86.0243 113.597C84.6332 114.294 78.9824 115.873 75.0334 116.004C71.5211 116.121 67.3872 116.004 65.3005 115.525C62.8561 113.545 57.2941 105.675 55.1828 101.485C52.694 96.5461 51.0464 92.0028 50.6221 90.0798C50.4174 89.1578 50.156 88.4928 49.6947 88.5793C49.1965 88.6757 49.4826 89.4049 49.7736 90.3937C50.521 92.9298 51.7419 96.5263 54.3318 101.658C57.0771 107.091 61.9781 113.463 63.4062 115.196C58.9294 114.254 53.4858 112.153 48.3135 108.29C43.8589 104.96 40.0308 100.721 38.1069 97.6337C37.7764 97.1022 37.3892 96.3508 36.9107 96.6697C36.6936 96.813 36.96 97.4137 37.2954 98.0193C40.09 103.049 46.9075 110.173 55.644 114.081C65.8259 118.634 76.9277 118.392 86.8555 114.541C95.5378 111.172 103.093 104.241 106.825 97.3618Z" fill="#2D2925"/>
</g>
</g>
<defs>
<clipPath id="clip0_429_2247">
<rect width="150" height="150" fill="white"/>
</clipPath>
</defs>
</svg>
