<svg width="150" height="150" viewBox="0 0 150 150" fill="none" xmlns="http://www.w3.org/2000/svg">
<path fill-rule="evenodd" clip-rule="evenodd" d="M120.161 47.9062C121.447 45.4792 122.06 43.0462 122.06 40.7192C122.06 35.4162 119.102 30.6712 114.945 27.8422C109.164 23.9072 100.477 23.3642 94.337 30.7072C85.373 29.4822 77.857 31.9482 75 33.1222C72.143 31.9482 64.626 29.4822 55.663 30.7072C49.523 23.3642 40.836 23.9072 35.055 27.8422C30.897 30.6712 27.94 35.4162 27.94 40.7192C27.94 43.0462 28.553 45.4792 29.839 47.9062C25.206 54.5932 22 62.5232 22 70.5992C22 80.3262 26.153 85.3332 27.719 87.4872C27.719 87.4872 28.392 86.8142 28.973 86.2342C33.371 97.4292 40.903 103.453 49.994 108.944C49.994 108.944 50.195 107.837 50.375 106.846C60.163 115.329 64.827 113.243 75 124.75C85.136 113.286 89.923 115.256 99.625 106.846C99.806 107.837 100.006 108.944 100.006 108.944C104.053 106.5 115.471 100.376 121.028 86.2342C121.607 86.8142 122.28 87.4872 122.28 87.4872C123.24 86.1682 128 80.8572 128 70.5992C128 62.5252 124.795 54.5942 120.161 47.9062Z" fill="#707271"/>
<path fill-rule="evenodd" clip-rule="evenodd" d="M117.36 48.0444C126.697 33.7134 105.523 18.7914 95.2643 33.2274C84.9013 31.3914 76.1713 35.1684 75.0003 35.7134C73.8303 35.1684 65.0983 31.3914 54.7353 33.2274C44.4763 18.7914 23.3033 33.7134 32.6393 48.0444C22.0013 62.6524 23.0733 77.0564 28.0063 83.8324L30.0463 81.7914C30.0463 81.7914 32.9453 95.8714 48.2673 105.119L48.8193 102.082C58.2513 112.157 66.8683 111.93 75.0003 121.131C83.1313 111.93 91.7493 112.157 101.18 102.082L101.732 105.119C117.054 95.8714 119.954 81.7914 119.954 81.7914L121.994 83.8324C126.941 77.0364 128.007 62.6644 117.36 48.0444Z" fill="#12173F"/>
<path fill-rule="evenodd" clip-rule="evenodd" d="M75.0946 101.63C75.0946 101.63 67.7376 101.741 66.6506 102.421C66.6506 102.421 65.3866 104.609 75.0946 104.568C84.3286 104.526 82.9666 102.843 83.0336 102.594C83.0336 102.594 79.9086 101.63 75.0946 101.63Z" fill="#5D76A9"/>
<path fill-rule="evenodd" clip-rule="evenodd" d="M68.7162 93.0815C68.7162 93.0815 69.8632 89.7585 71.0882 90.8095C72.7892 92.2655 75.0002 95.2275 75.0002 95.5445V99.5015L72.3182 99.6415C70.7782 99.6855 65.8092 100.872 65.8092 100.872C58.9682 83.9325 62.7612 71.1135 64.5882 66.5395C57.8062 68.0095 56.7122 59.8695 56.7122 59.8695C57.4162 59.7255 58.4542 60.0335 59.6242 60.5935C61.4372 61.4605 63.5692 62.9325 65.2692 64.2525H65.2702C65.7732 64.6435 66.2382 65.0215 66.6482 65.3655C71.2592 69.2455 75.0002 68.4585 75.0002 68.4585V85.0385C75.0002 85.0385 61.5462 83.9965 68.7162 93.0815Z" fill="#5D76A9"/>
<path fill-rule="evenodd" clip-rule="evenodd" d="M81.325 93.0845C89.887 84.3975 75.916 84.9045 75.032 85.0405C76.466 85.1215 87.297 85.1815 81.325 93.0845Z" fill="#5D76A9"/>
<path fill-rule="evenodd" clip-rule="evenodd" d="M87.0144 66.8026C94.7204 87.5536 84.9514 100.906 84.8964 100.98C90.9614 85.0996 87.0634 71.8926 84.4094 66.9876C83.0464 67.1236 81.4104 67.0446 81.4104 67.0446C81.4104 67.0446 83.4584 65.7796 84.7854 64.5736C84.8774 64.4896 84.9814 64.3956 85.0964 64.2936C86.1984 63.3156 88.3024 61.5946 90.8564 60.5996C91.7894 60.2356 92.7844 59.9676 93.8114 59.8696C93.8114 59.8696 93.0764 66.7086 87.0144 66.8026Z" fill="#5D76A9"/>
<path fill-rule="evenodd" clip-rule="evenodd" d="M39.3295 46.5888C39.0515 43.9658 42.3655 41.3658 42.3655 41.3658C40.9985 39.9548 38.6135 41.1778 38.6135 41.1778C40.7785 36.9438 45.6275 39.0138 45.6275 39.0138C43.7895 36.7618 39.8965 36.9038 39.8965 36.9038C44.7135 32.1298 50.5285 39.4268 50.5285 39.4268C45.3505 40.5998 39.3295 46.5888 39.3295 46.5888ZM99.2145 39.9508C99.2145 39.9508 102.358 32.0908 111.991 33.9888C111.991 33.9888 103.147 28.1688 96.9935 38.6898C96.9935 38.6898 88.1645 34.5478 74.9995 40.2398C74.9995 40.2398 62.6275 35.8918 53.2245 38.3538C53.2245 38.3538 47.7405 28.8388 40.0165 32.7578C32.2945 36.6748 36.3235 45.7408 37.6685 48.0908C37.6685 48.0908 24.8715 61.1278 29.6825 77.2488L32.2575 74.0368C32.2575 74.0368 35.9335 91.5918 45.4185 97.1248L45.9875 92.8088C45.9875 92.8088 55.8895 104.757 67.5335 109.831C68.6415 110.35 74.8095 113.416 74.9995 114.929V106.569C74.9995 106.569 66.9225 107.241 64.7915 103.513C63.3435 100.977 54.0565 84.4098 58.6455 67.0588C58.6455 67.0588 54.1775 66.3908 53.3355 58.8538C53.3355 58.8538 50.0045 57.2318 45.8635 57.5678C45.8635 57.5678 53.2695 55.2428 60.2105 57.9308C67.1495 60.6168 69.0085 67.4568 73.7105 64.4338L74.9995 45.1648L76.4185 64.4338C81.1205 67.4568 82.9805 60.6168 89.9195 57.9308C96.8605 55.2428 104.268 57.5678 104.268 57.5678C104.268 57.5678 101.305 55.4788 96.5445 54.5268C92.5705 53.7318 86.7295 56.2858 86.7295 56.2858C86.7295 56.2858 87.5375 50.8188 90.1885 47.9048C92.4655 45.3988 97.6215 44.8458 99.2145 39.9508Z" fill="#5D76A9"/>
<path fill-rule="evenodd" clip-rule="evenodd" d="M65.2689 64.2525C64.5249 64.0205 63.2969 64.7885 62.6119 66.1215C60.3129 65.4575 59.5259 62.9745 59.6229 60.5945L59.6239 60.5935C61.4369 61.4605 63.5689 62.9325 65.2689 64.2525Z" fill="#FFBB22"/>
<path fill-rule="evenodd" clip-rule="evenodd" d="M87.8672 66.1221C87.1462 64.7191 85.8222 63.9371 85.0962 64.2941C86.1982 63.3161 88.3032 61.5951 90.8562 60.6001C90.9602 62.9801 90.1532 65.4621 87.8672 66.1221Z" fill="#FFBB22"/>
</svg>
