<svg width="150" height="150" viewBox="0 0 150 150" fill="none" xmlns="http://www.w3.org/2000/svg">
<g clip-path="url(#clip0_429_2372)">
<path fill-rule="evenodd" clip-rule="evenodd" d="M40.6159 64.8418C40.5894 64.8271 40.56 64.8124 40.5306 64.7976C38.7306 63.8074 38.2159 63.0382 38.1776 62.8908C38.3159 61.2994 46.8659 56.9848 65.2394 55.8442C64.1659 57.3178 63.2688 59.2187 62.9365 61.6265L62.7365 63.0765C62.6276 63.8251 62.4865 64.6915 62.1806 65.4961C61.6894 66.781 60.2718 68.1249 58.0688 69.3951C50.3659 68.3902 44.1806 66.7751 40.6159 64.8418ZM100.166 59.5694C100.701 59.3749 101.069 58.8916 101.125 58.3404C106.228 59.6018 109.975 61.1933 111.366 62.7287C111.607 62.9969 111.669 63.1531 111.681 63.1561C111.619 63.3712 111.048 64.1669 109.166 65.1542C106.31 66.6602 101.922 67.9304 96.4747 68.8558C97.3541 67.7595 97.9659 66.2771 98.0335 64.1905C98.0894 62.3073 98.2188 61.7326 98.2865 61.5735C98.6806 60.7895 99.6453 59.758 100.166 59.5694ZM122.154 55.5908C118.557 51.6151 111.098 48.2819 101.031 46.1305C101.189 46.0155 101.378 45.8829 101.598 45.7297C102.289 45.2522 103.148 44.654 104.007 43.8376C107.516 40.4985 105.257 35.73 103.369 33.4431L101.175 30.7612C100.754 30.2484 100.042 30.0774 99.4394 30.3486C98.8335 30.6197 98.4835 31.2622 98.5835 31.9194L99.11 35.3498C99.2718 36.4049 99.2335 36.8735 98.1806 37.7606C98.1218 36.903 97.9953 35.9835 97.7512 34.9756C97.1247 32.3762 95.8012 31.2298 95.6541 31.106C95.2276 30.7641 94.6541 30.6727 94.1512 30.8879C93.9776 30.9586 93.8218 31.0647 93.6894 31.1914L93.6365 30.8879C93.1982 28.3357 93.7982 26.921 93.8012 26.8385C93.9482 26.7501 94.0806 26.6381 94.1865 26.5055C94.6923 25.8866 95.6982 24.8669 95.7041 24.858C96.0423 24.5103 96.1923 24.0211 96.1012 23.5495C96.01 23.075 95.6953 22.6742 95.2541 22.4768C94.9688 22.353 94.1129 22.0848 92.3071 22.3147C88.9041 22.7862 85.5188 24.7755 85.6276 28.1559C85.6718 29.6088 86.1276 30.9498 86.4982 32.0373C86.6482 32.4852 86.86 33.11 86.9306 33.4902C86.7423 33.5727 86.4041 33.6877 85.8335 33.7908C80.5688 34.7486 76.5071 37.2684 74.3923 40.8787C73.8923 41.7333 73.5071 42.6381 73.2394 43.5812C61.5335 43.7079 50.4129 45.2345 41.8041 47.9046C31.3129 51.1553 25.5159 55.7676 25.0335 61.2316C24.7776 64.0874 25.9071 68.2723 32.6512 72.1478C32.7718 72.2745 32.9129 72.3806 33.0776 72.4572L35.8306 73.7746C35.9041 73.8129 35.9835 73.8424 36.0629 73.863C38.1659 74.7914 40.5218 75.6342 43.1012 76.3858C42.7071 76.6923 42.3306 77.0017 41.9718 77.32C35.4806 82.6632 31.7571 90.5585 31.7571 98.9814C31.7571 106.479 34.6688 113.528 39.9571 118.825C45.2453 124.123 52.2776 127.041 59.7571 127.041C72.9865 127.041 84.5218 117.634 87.1394 104.837C89.3688 98.1592 89.11 91.0743 89.0129 88.413C88.8365 83.4441 91.1041 80.6002 92.6747 79.2327C101.039 78.1393 108.328 76.2944 113.795 73.8836C113.875 73.863 113.954 73.8335 114.028 73.7952L114.892 73.3826C114.904 73.3767 114.916 73.3738 114.928 73.3679L116.839 72.4543C116.995 72.3806 117.134 72.2716 117.248 72.1478C121.895 69.4511 124.51 66.1828 124.822 62.6786C125.042 60.1795 124.145 57.7952 122.154 55.5908Z" fill="#FEFEFE"/>
<path fill-rule="evenodd" clip-rule="evenodd" d="M36.7121 62.7607C37.0092 59.3685 49.2092 54.8889 68.9268 54.1904C67.0974 55.5637 64.9268 57.9657 64.3915 61.8294L64.1915 63.2911C64.0592 64.193 63.9003 65.1125 63.5533 66.0231C62.7945 68.0183 60.6533 69.6628 58.3621 70.9183C50.4239 69.9163 43.7886 68.2423 39.9151 66.1381H39.9092C37.7886 64.9857 36.6239 63.7568 36.7121 62.7607ZM112.456 61.7409C113.209 62.572 113.159 63.1084 113.144 63.2882C113.062 64.246 111.862 65.4013 109.856 66.4593H109.85C105.633 68.6814 98.3856 70.3613 89.7562 71.2455C90.1327 71.0008 90.5474 70.7857 90.9945 70.603L91.1356 70.547C93.6151 69.5361 96.4268 68.3926 96.5592 64.2843C96.5798 63.633 96.6151 61.626 96.9739 60.9098C97.4356 59.9903 98.6209 58.5639 99.6651 58.1867C99.6798 58.1779 97.9209 57.836 97.9209 57.836C97.8268 57.8271 97.7386 57.8213 97.6474 57.8213C98.2386 57.391 98.6592 56.8782 98.968 56.3388C105.977 57.8006 110.692 59.7929 112.456 61.7409ZM121.065 56.5805C117.359 52.4869 109.189 49.1655 98.6621 47.1556C98.7092 45.9443 99.4445 45.4315 100.756 44.5238C101.442 44.0493 102.215 43.51 102.994 42.7702C106.392 39.5372 102.403 34.586 102.233 34.3768L100.039 31.6949L100.565 35.1254C100.924 37.4742 100.065 38.3053 97.518 40.0883C97.1915 40.3123 96.9151 40.5628 96.6709 40.8281C96.7768 39.2602 96.8503 37.5125 96.3239 35.3228C95.7945 33.1302 94.7209 32.2431 94.7209 32.2431L94.4415 35.423C94.4386 35.4407 94.1945 37.9045 90.9121 40.8841C91.1945 40.5658 91.4592 40.2357 91.6945 39.8909C93.3033 37.545 92.8386 34.8749 92.3003 31.7863L92.1886 31.1349C91.6356 27.9137 92.4945 25.9038 93.0474 25.5737C93.5856 24.9165 94.6562 23.8231 94.6562 23.8231C94.6562 23.8231 94.0886 23.5696 92.5092 23.7759C90.4562 24.0589 87.0062 25.2908 87.0974 28.1053C87.1356 29.3431 87.5356 30.519 87.8856 31.5564C88.2621 32.6645 88.618 33.7166 88.3033 34.256C88.0504 34.6833 87.2886 35.0222 86.0974 35.2403C81.2592 36.1215 77.5533 38.3908 75.6621 41.6267C75.0356 42.6966 74.618 43.843 74.4092 45.0454C62.4092 45.0808 51.0474 46.5809 42.2386 49.3129C32.3651 52.3749 26.9239 56.5422 26.4974 61.3637C26.2709 63.9012 27.4151 67.5615 33.7533 71.0804L33.7092 71.1276L35.5092 71.9881C35.5121 71.9911 35.5151 71.9911 35.5151 71.9911L36.4621 72.4479L36.4768 72.4331C39.3974 73.7417 42.8239 74.8734 46.6415 75.8047C45.2827 76.5739 44.0298 77.458 42.9062 78.46C36.7651 83.5114 33.2268 91.0001 33.2268 98.9809C33.2268 106.084 35.9856 112.762 40.9974 117.784C46.0092 122.806 52.6709 125.57 59.7592 125.57C72.3033 125.57 83.2209 116.661 85.7445 104.371C87.8856 97.9494 87.6386 91.062 87.5445 88.4656C87.3327 82.5624 90.2239 79.297 92.0621 77.8264C100.444 76.7625 107.862 74.9235 113.386 72.4567L113.394 72.4656L114.289 72.0412C114.289 72.0412 114.292 72.0382 114.294 72.0353L116.206 71.1246L116.153 71.0745C120.597 68.5871 123.08 65.6636 123.356 62.5485C123.539 60.4737 122.768 58.4667 121.065 56.5805Z" fill="#2D2925"/>
<path fill-rule="evenodd" clip-rule="evenodd" d="M34.2497 100.862C34.9438 104.361 36.9409 108.551 40.9085 111.348C42.1085 112.191 43.4144 112.875 44.7997 113.402C43.9409 111.938 42.9438 110.461 41.9291 108.958C40.0291 106.155 38.0673 103.252 36.8232 100.134C35.535 96.9072 35.182 93.5328 35.7438 90.1406C34.732 92.8962 34.1732 95.8728 34.1732 98.982C34.1732 99.6157 34.2026 100.243 34.2497 100.862Z" fill="#8B2231"/>
<path fill-rule="evenodd" clip-rule="evenodd" d="M38.5244 99.4499C39.698 102.388 41.6038 105.203 43.445 107.929C44.8715 110.033 46.2627 112.093 47.3215 114.174C48.4862 114.448 49.695 114.622 50.9274 114.695C49.6538 112.877 48.548 110.808 47.6009 108.442C43.9185 99.2701 44.4509 87.9325 49.0156 81.3721C51.3774 77.9888 54.198 75.6871 57.8303 73.7037C60.9538 71.9914 62.9097 71.4816 64.898 70.2939C67.0597 69.003 68.2156 66.8428 66.795 61.9977C66.3774 60.583 66.3038 59.4661 66.3891 58.5967C65.895 59.5545 65.5097 60.6656 65.3303 61.9594L65.3421 61.9476C65.1185 63.318 65.0244 64.824 64.4421 66.3594C62.5303 71.3755 53.2744 74.1605 52.0538 74.5318C48.5421 75.5928 45.7274 77.2137 43.5362 79.1706C37.198 84.8203 36.0656 93.2962 38.5244 99.4499Z" fill="#8B2231"/>
<path fill-rule="evenodd" clip-rule="evenodd" d="M77.1308 54.1209C77.225 54.4303 77.3014 54.7368 77.3397 55.0374C77.5808 56.791 77.0514 58.2056 74.9073 58.5504C72.6985 58.907 71.9456 56.9826 71.775 55.4117C71.7573 54.8665 71.7985 54.4303 71.8426 54.115C71.472 54.1209 71.1044 54.1268 70.7367 54.1386C70.0279 54.5423 69.1073 55.173 68.222 56.0778C67.7809 57.0268 67.2485 58.3382 68.0661 61.415C69.5073 66.8407 68.8956 70.115 64.5485 71.9894C59.0044 74.3795 55.4632 75.7823 50.7103 81.7709C48.4485 84.6208 47.2132 89.3421 47.0103 94.0958C46.8132 98.7081 47.7603 103.636 49.3808 107.673C50.4661 110.376 51.7338 112.725 53.222 114.72C54.7073 114.664 56.2103 114.472 57.7132 114.142C56.0632 112.203 55.1132 109.845 54.9426 107.199C54.375 98.4016 59.1044 94.7 66.3808 88.8558L69.6367 86.1179C82.6308 75.0603 78.8397 63.814 80.2691 54.2122C79.2426 54.171 78.1956 54.1415 77.1308 54.1209Z" fill="#8B2231"/>
<path fill-rule="evenodd" clip-rule="evenodd" d="M82.3367 54.3059C81.9397 56.2245 81.7602 58.2256 81.6338 60.2974C81.1191 68.6614 81.3691 78.1306 70.8044 87.5349L67.6073 90.1254C60.5367 95.8075 56.4926 99.3558 56.772 107.083C56.8632 109.632 57.9367 111.863 59.7279 113.617C61.7044 113.022 63.6602 112.191 65.5397 111.118C74.7308 105.893 80.5132 98.0797 82.722 88.0565C84.122 81.7202 84.0926 76.5656 84.0691 72.422C84.0573 70.3265 84.3279 66.2182 84.3279 66.2182C84.622 63.6248 85.0397 59.988 88.0426 55.2225C88.1397 55.0692 88.2455 54.913 88.3455 54.7568C86.4308 54.5682 84.4279 54.4179 82.3367 54.3059Z" fill="#8B2231"/>
<path fill-rule="evenodd" clip-rule="evenodd" d="M85.4297 81.1945V81.1621C85.4297 81.1768 85.4268 81.1945 85.4268 81.2092C85.1385 82.7093 85.065 84.3951 84.8826 86.075C84.7944 86.7174 84.7091 87.3393 84.615 87.9434C84.5826 88.1144 84.5503 88.2853 84.512 88.4533C82.1915 99.007 76.1856 107.224 66.5267 112.717C64.8679 113.66 63.1826 114.435 61.4915 115.036C64.3238 116.92 67.6268 117.5 69.8973 117.158C78.5709 115.853 82.7973 110.183 84.8326 104.117C86.9209 97.893 86.6973 91.2501 86.5973 88.5005C86.2679 79.3142 93.3591 75.925 93.3591 75.925C87.8444 75.6244 86.0356 78.0322 85.4297 81.1945Z" fill="#8B2231"/>
<path fill-rule="evenodd" clip-rule="evenodd" d="M79.638 115.078C76.0909 118.049 72.2674 118.7 70.5291 118.969C67.1144 119.493 63.0703 118.68 59.4938 115.854C59.435 115.806 59.3791 115.756 59.3233 115.709C57.7909 116.119 56.2556 116.393 54.7262 116.52C58.2262 120.286 62.835 122.426 69.0144 122.847C69.0409 122.847 69.0703 122.85 69.0938 122.85H69.0997C73.3056 121.197 76.9703 118.462 79.7497 114.981C79.7115 115.017 79.6762 115.046 79.638 115.078Z" fill="#8B2231"/>
<path fill-rule="evenodd" clip-rule="evenodd" d="M47.3599 121.405C47.4276 119.469 46.8835 117.565 45.9952 115.661C43.8747 115.048 41.7952 114.135 39.7952 112.917C38.6688 112.231 37.6541 111.182 36.757 110.206C36.7541 110.2 36.7482 110.2 36.7452 110.194C39.0511 114.936 42.7717 118.859 47.3599 121.408V121.405Z" fill="#8B2231"/>
<path fill-rule="evenodd" clip-rule="evenodd" d="M65.0476 124.045C61.5888 123.243 58.63 122.014 56.0329 120.043C54.7065 119.032 53.4976 117.894 52.3976 116.603C50.9976 116.586 49.6065 116.45 48.23 116.191C48.9947 118.168 49.38 120.184 49.1329 122.3V122.303C52.3712 123.785 55.9653 124.619 59.7594 124.619C61.5859 124.619 63.3682 124.425 65.0859 124.06C65.0712 124.057 65.0594 124.048 65.0476 124.045Z" fill="#8B2231"/>
<path fill-rule="evenodd" clip-rule="evenodd" d="M94.772 61.082C94.175 63.0801 92.2132 62.8443 91.6455 61.7657C90.7426 60.0623 91.0838 58.7449 92.025 57.846C92.9632 56.9471 94.5014 56.4667 95.9926 55.7919C96.0014 55.786 96.0073 55.783 96.0132 55.7801C94.2897 55.4854 92.4544 55.2201 90.5132 54.9902C90.4867 55.0227 90.4602 55.0521 90.4338 55.0816C90.2602 55.2791 90.0897 55.4736 89.922 55.6769C86.8367 60.3275 86.4514 63.7727 86.1485 66.4222L86.0544 67.2385C85.8838 68.6296 85.8926 70.3831 85.9014 72.4108C85.9044 72.6878 85.9073 72.9766 85.9073 73.2713C85.8838 73.9786 85.8573 74.6771 85.825 75.3579C85.8426 75.3638 85.8544 75.3667 85.8691 75.3697C85.8926 75.0867 85.9044 74.9777 85.9014 75.1221C86.775 72.3371 88.3779 70.6425 90.6367 69.723C93.0838 68.7298 95.4985 67.8132 95.6102 64.2531C95.6602 62.7677 95.7691 61.2794 96.1073 60.522C96.725 59.1457 97.8308 58.7803 97.8308 58.7803C96.6426 58.6653 95.3455 59.1634 94.772 61.082Z" fill="#8B2231"/>
<path fill-rule="evenodd" clip-rule="evenodd" d="M97.7332 46.9814C97.9126 44.6002 100.163 44.1551 102.339 42.0804C105.136 39.422 101.501 34.9807 101.501 34.9807C101.96 37.9662 100.58 39.1067 98.0567 40.8661C97.2567 41.4261 96.6744 42.21 96.595 43.1973C96.5067 44.3054 96.4332 45.502 96.192 46.7133C96.7126 46.7987 97.2244 46.8901 97.7332 46.9814Z" fill="#F9A11A"/>
<path fill-rule="evenodd" clip-rule="evenodd" d="M90.0344 42.8316C89.3609 43.3326 88.7315 43.8484 88.1432 44.3759C87.7256 44.7767 87.3168 45.1775 86.9403 45.5607C89.3962 45.7729 91.7844 46.0499 94.0874 46.3859C95.558 43.704 96.2609 40.6596 95.3874 35.4785C95.3874 35.4785 95.1844 38.9886 90.0344 42.8316Z" fill="#F9A11A"/>
<path fill-rule="evenodd" clip-rule="evenodd" d="M76.3061 45.0506C79.1149 45.0771 81.8708 45.192 84.5591 45.3747C84.6502 45.2863 84.7326 45.195 84.8267 45.1066C86.6326 43.1673 89.4208 41.5287 90.9149 39.3538C92.4061 37.1758 91.8061 34.5175 91.2532 31.2963C90.3032 25.7439 92.6385 24.7153 92.6385 24.7153C92.6385 24.7153 87.9561 25.3608 88.0444 28.0751C88.1649 31.7177 91.912 35.1452 86.2679 36.1738C80.0738 37.3025 76.2238 40.6593 75.3767 45.0476C75.6855 45.0506 75.9944 45.0476 76.3061 45.0506Z" fill="#F9A11A"/>
<path fill-rule="evenodd" clip-rule="evenodd" d="M76.29 46.5049C50.3429 46.2485 28.6958 52.9591 27.9429 61.494C27.6429 64.8921 30.7047 68.0691 36.137 70.6773C39.4958 72.2894 43.7576 73.6804 48.69 74.7768C49.6752 74.3377 50.7076 73.9457 51.7958 73.6156C52.6547 73.3563 54.24 72.8346 55.987 72.0743C48.7223 71.0103 42.84 69.3776 39.2223 67.4178C36.5517 65.9678 35.1135 64.341 35.2664 62.6316C35.7723 56.9024 53.937 52.4316 75.8429 52.6467C97.7458 52.8648 115.096 57.6834 114.59 63.4156C114.452 64.9746 113.005 66.4423 110.528 67.7479C105.952 70.1557 97.8694 72.0094 88.0517 72.8729C87.7135 73.3386 87.4135 73.8543 87.1694 74.4408C91.6341 72.7433 96.7782 75.2513 96.7782 75.2513C96.7782 75.2513 97.1223 75.3839 97.3635 75.5489C103.878 74.3848 109.475 72.7285 113.669 70.7245C118.631 68.3579 121.64 65.508 121.911 62.4194C122.663 53.8875 102.24 46.7584 76.29 46.5049Z" fill="#FEFEFE"/>
</g>
<defs>
<clipPath id="clip0_429_2372">
<rect width="150" height="150" fill="white"/>
</clipPath>
</defs>
</svg>
