<svg width="150" height="150" viewBox="0 0 150 150" fill="none" xmlns="http://www.w3.org/2000/svg">
<g clip-path="url(#clip0_429_2451)">
<path fill-rule="evenodd" clip-rule="evenodd" d="M53.9059 117.821C53.3761 117.385 53.1545 116.681 53.3408 116.021L59.5993 93.8177C59.6346 93.6864 59.686 93.5614 59.7502 93.4461L56.8762 88.8556C56.6129 88.4359 56.5455 87.9266 56.6835 87.4525L57.0849 86.1038L53.1481 85.8508C49.4457 85.5785 48.1259 85.0915 47.246 84.6078C43.534 82.5608 42.5642 76.6857 42.3523 74.9334L42.1179 72.9601C42.0023 72.1592 42.211 71.3776 42.6927 70.8138C43.0684 70.3781 43.5853 70.0994 44.1441 70.0354C35.5832 62.3087 27.8444 52.7079 30.5482 39.1766C33.5313 24.2325 45.6373 19.7285 46.151 19.5427C46.3437 19.4722 46.5428 19.4402 46.7355 19.4402C47.3584 19.4402 47.9525 19.7765 48.2608 20.3532C48.4759 20.7568 48.5176 21.2085 48.4053 21.6217C52.4031 18.2389 56.2244 16.7621 57.8267 16.2495C58.0001 16.1919 58.1799 16.1663 58.3533 16.1663C59.018 16.1663 59.641 16.5475 59.93 17.1785C60.2929 17.973 60.0006 18.918 59.2492 19.3697C55.5982 21.5705 52.4192 24.5657 50.0205 28.0126C52.9362 27.3335 54.8917 27.2598 55.5757 27.2598C55.8101 27.2598 55.9289 27.2694 55.9289 27.2694C56.7831 27.3206 57.4767 27.9902 57.5506 28.8391C57.6276 29.688 57.0753 30.4664 56.2436 30.6682C56.1987 30.6811 51.4398 31.8824 46.1864 35.6432C45.1941 38.6608 44.6932 41.813 44.6932 45.0133C44.6932 51.0806 46.6391 57.3113 50.0333 62.1036C50.8425 63.2473 51.6421 64.2435 52.4802 65.1533C52.1559 58.9226 53.9445 49.1873 65.2316 44.6705C65.4435 44.584 65.6619 44.5456 65.877 44.5456C66.5128 44.5456 67.1229 44.8979 67.4216 45.5002C67.8262 46.301 67.5436 47.2781 66.7761 47.7458L66.6926 47.7938C64.9522 48.9247 63.4879 50.3854 62.3705 52.0769C63.5971 51.6988 64.6536 51.5739 65.3664 51.4906L65.5013 51.4746C65.5687 51.465 65.6394 51.4618 65.7068 51.4618C66.4293 51.4618 67.0876 51.9135 67.3349 52.6086C67.6078 53.3678 67.3124 54.2136 66.6316 54.646L66.5738 54.6813C66.5514 54.6973 66.5257 54.7133 66.5 54.7261C62.8874 56.8051 60.8773 59.2237 60.5273 61.921C60.1419 64.8682 61.7764 67.6424 62.9485 69.2089C65.9862 65.7043 67.9642 59.7171 68.5166 57.4618C68.7092 56.6802 69.4093 56.1452 70.196 56.1452C70.2634 56.1452 70.3309 56.1484 70.3983 56.158C71.2653 56.2573 71.9236 56.9877 71.9268 57.8591C71.9717 65.2174 69.9905 70.2436 67.961 73.4534C71.002 74.9911 73.9819 75.0808 74.6273 75.0808C74.7012 75.0808 74.804 75.0776 74.8264 75.0776C74.8457 75.0776 74.9549 75.0808 75.0319 75.0808C75.6774 75.0808 78.6573 74.9911 81.6982 73.4534C79.6688 70.2436 77.6875 65.2174 77.7325 57.8591C77.7357 56.9877 78.3908 56.2573 79.2578 56.158C79.3284 56.1484 79.3959 56.1452 79.4633 56.1452C80.25 56.1452 80.9501 56.6802 81.1395 57.4618C81.695 59.7171 83.6731 65.7043 86.7108 69.2089C87.8797 67.6456 89.5141 64.8682 89.132 61.921C88.782 59.2237 86.7718 56.8051 83.1593 54.7261C83.1368 54.7133 83.0501 54.6588 83.0501 54.6588C82.3662 54.2264 82.0643 53.3742 82.3341 52.615C82.5813 51.9199 83.23 51.4618 83.9557 51.4618C84.0231 51.4618 84.0905 51.465 84.158 51.4746L84.2928 51.4906C85.0025 51.5739 86.0622 51.6988 87.2888 52.0769C86.1714 50.3854 84.7071 48.9247 82.9666 47.7971L82.8864 47.7458C82.1157 47.2781 81.8331 46.301 82.2345 45.5002C82.5364 44.8979 83.1465 44.5456 83.7823 44.5456C83.9974 44.5456 84.2158 44.584 84.4277 44.6705C95.7148 49.1873 97.5034 58.9226 97.1759 65.1533C98.0172 64.2435 98.8168 63.2473 99.626 62.1036C103.02 57.3113 104.966 51.0806 104.966 45.0133C104.966 41.8098 104.465 38.6608 103.47 35.6432C98.1874 31.8535 93.4638 30.6811 93.4157 30.6682C92.584 30.4664 92.0317 29.688 92.1055 28.8391C92.1826 27.9902 92.8762 27.3206 93.7271 27.2694C93.7271 27.2694 93.8492 27.2598 94.0836 27.2598C94.7643 27.2598 96.7231 27.3335 99.6356 28.0126C97.2401 24.5657 94.0611 21.5705 90.41 19.3697C89.6586 18.918 89.3664 17.9762 89.7293 17.1785C90.0183 16.5475 90.6412 16.1663 91.3027 16.1663C91.4794 16.1663 91.656 16.1919 91.8326 16.2495C93.4349 16.7621 97.2562 18.2389 101.254 21.6217C101.142 21.2085 101.18 20.7568 101.395 20.3532C101.704 19.7765 102.301 19.4402 102.924 19.4402C103.116 19.4402 103.316 19.4722 103.508 19.5427C104.022 19.7285 116.125 24.2325 119.111 39.1766C121.815 52.7079 114.076 62.3087 105.515 70.0354C106.074 70.0994 106.591 70.3749 106.963 70.8138C107.448 71.3776 107.657 72.1592 107.541 72.9601L107.304 74.9334C107.095 76.6857 106.125 82.5608 102.413 84.6078C101.533 85.0915 100.21 85.5785 96.5272 85.8508L92.5743 86.1038L92.9757 87.4525C93.1138 87.9266 93.0432 88.4359 92.7831 88.8556L89.9091 93.4461C89.9733 93.5614 90.0247 93.6864 90.06 93.8177L96.3185 116.021C96.5048 116.681 96.2832 117.385 95.7534 117.821L74.8296 134.787L53.9059 117.821Z" fill="#EDE0C5"/>
<path fill-rule="evenodd" clip-rule="evenodd" d="M40.4298 57.2249C40.4298 57.2249 37.8962 45.7662 39.7779 38.9845C39.277 39.5259 38.7664 40.0833 38.2976 40.692C33.7057 46.6183 40.4298 57.2249 40.4298 57.2249ZM109.228 57.2249C109.228 57.2249 115.956 46.6183 111.364 40.692C110.892 40.0833 110.381 39.5259 109.88 38.9845C111.765 45.7662 109.228 57.2249 109.228 57.2249ZM32.2446 39.5131C35.0736 25.3539 46.7364 21.167 46.7364 21.167C42.4656 24.3128 38.1081 30.2327 36.3067 38.5425C38.06 36.3705 39.6848 34.7432 41.5954 33.4426C46.3254 23.2813 54.395 19.1584 58.3543 17.8931C53.2197 20.9908 48.9232 25.6006 46.3126 30.9087C52.2499 28.7944 55.8368 28.9898 55.8368 28.9898C55.8368 28.9898 50.5256 30.2776 44.7231 34.5702C43.5863 37.8409 42.9634 41.3551 42.9634 45.0102C42.9634 51.4459 45.041 58.0418 48.6214 63.1001C50.6347 65.9447 52.5839 67.9116 55.0051 69.7023C54.2023 67.6906 51.1549 52.1635 65.8748 46.2724L65.772 46.3332C62.2944 48.582 59.7319 52.0802 58.6915 56.1998C61.3792 53.6307 64.2146 53.3648 65.7078 53.1854C65.6821 53.2014 65.6596 53.2174 65.6371 53.2302C51.9706 61.0947 62.837 71.7429 62.837 71.7429C67.1464 68.1423 69.6575 60.076 70.1969 57.8688C70.2515 66.3932 67.4097 71.4963 65.4766 73.9886C69.8823 77.0062 74.8242 76.8044 74.8242 76.8044H74.8306H74.8338C74.837 76.8044 79.7757 77.0062 84.1814 73.9886C82.2483 71.4963 79.4097 66.3932 79.4611 57.8688C80.0005 60.076 82.5148 68.1423 86.821 71.7429C86.821 71.7429 97.6906 61.0947 84.0241 53.2302C83.9984 53.2174 83.9759 53.2014 83.9534 53.1854C85.4434 53.3648 88.2788 53.6307 90.9665 56.1998C89.9261 52.0802 87.3636 48.582 83.886 46.3332L83.7832 46.2724C98.5031 52.1635 95.4557 67.6906 94.6529 69.7023C97.0773 67.9116 99.0233 65.9447 101.037 63.1001C104.62 58.0418 106.698 51.4459 106.698 45.0102C106.698 41.3551 106.075 37.8409 104.935 34.5702C99.1324 30.2776 93.8244 28.9898 93.8244 28.9898C93.8244 28.9898 97.4081 28.7944 103.345 30.9087C100.735 25.6006 96.4415 20.9908 91.3037 17.8931C95.263 19.1584 103.333 23.2813 108.063 33.4426C109.973 34.7432 111.601 36.3705 113.355 38.5425C111.553 30.2327 107.192 24.3128 102.922 21.167C102.922 21.167 114.588 25.3539 117.413 39.5131C120.708 55.9948 107.513 66.2875 96.8718 75.1034L104.996 71.8006C105.545 71.5668 105.927 72.0953 105.824 72.7296L105.587 74.7286C105.455 75.8305 104.646 81.4077 101.576 83.0959C100.911 83.4643 99.7682 83.8808 96.3998 84.1307L90.3018 84.5215L91.3165 87.9428L85.331 97.505L88.3944 94.2824L94.6529 116.489L77.483 130.581L82.8392 106.337L74.8306 116.056L66.8188 106.337L72.175 130.581L55.0051 116.489L61.2636 94.2824L64.3302 97.505L58.3447 87.9428L59.3562 84.5215L53.2582 84.1307C49.8898 83.8808 48.7466 83.4643 48.0819 83.0959C45.0121 81.4077 44.2028 75.8305 44.0712 74.7286L43.8336 72.7296C43.7308 72.0953 44.1129 71.5668 44.662 71.8006L52.7862 75.1034C42.1477 66.2875 28.9532 55.9948 32.2446 39.5131Z" fill="#00471A"/>
<path fill-rule="evenodd" clip-rule="evenodd" d="M46.7374 74.6921C46.7374 74.6921 47.3283 79.6639 49.4219 80.8171C50.8316 81.5924 54.2804 81.5187 57.2924 81.7493C53.956 80.4583 49.043 76.9378 46.7374 74.6921ZM65.2111 85.2026C67.035 86.6057 68.5795 85.8241 69.408 85.0136C69.681 84.751 69.5975 84.2961 69.2539 84.1391C68.3837 83.7419 66.7396 82.9891 65.1051 82.2394C64.7776 82.0921 64.4018 82.2939 64.344 82.6495C64.2284 83.3542 64.2445 84.4562 65.2111 85.2026ZM68.5249 94.8514L67.5423 99.1696L69.9571 102.421H72.5196L70.1466 98.9358L70.5223 96.7863C71.598 97.9331 73.1297 98.6507 74.8284 98.6571C76.5303 98.6507 78.0588 97.9331 79.1377 96.7863L79.5134 98.9358L77.1372 102.421H79.7029L82.1177 99.1696L81.135 94.8514C78.8295 93.381 78.2964 91.2956 78.2964 91.2956L76.6876 86.0419L74.8284 86.9421L72.9691 86.0419L71.3636 91.2956C71.3636 91.2956 70.8305 93.381 68.5249 94.8514ZM80.2488 85.0136C81.0773 85.8241 82.625 86.6057 84.4457 85.2026C85.4123 84.4562 85.4315 83.3542 85.3159 82.6495C85.2549 82.2939 84.8792 82.0921 84.5517 82.2394C82.9172 82.9891 81.2763 83.7419 80.4061 84.1391C80.0625 84.2961 79.979 84.751 80.2488 85.0136ZM78.3092 104.423H74.8284H71.3475L73.0205 106.688H74.8284H76.6395L78.3092 104.423ZM92.3676 81.7493C95.3796 81.5187 98.8284 81.5924 100.238 80.8171C102.329 79.6639 102.923 74.6921 102.923 74.6921C100.614 76.9378 95.7007 80.4583 92.3676 81.7493Z" fill="#FEFEFE"/>
</g>
<defs>
<clipPath id="clip0_429_2451">
<rect width="150" height="150" fill="white"/>
</clipPath>
</defs>
</svg>
