<svg width="150" height="150" viewBox="0 0 150 150" fill="none" xmlns="http://www.w3.org/2000/svg">
<path fill-rule="evenodd" clip-rule="evenodd" d="M75.0004 123C54.5864 123 36.3644 110.035 29.6564 90.7394C20.9804 65.7419 34.2594 38.3441 59.2574 29.6673C64.3554 27.8968 69.6514 27 74.9994 27C95.4184 27 113.639 39.9636 120.342 59.2586L120.57 59.9114L120.564 59.9184C128.787 84.735 115.527 111.731 90.7494 120.332C85.6474 122.103 80.3494 123 75.0004 123Z" fill="#C4CDD3" stroke="white"/>
<path fill-rule="evenodd" clip-rule="evenodd" d="M114.792 86.5987C113.741 90.2087 112.235 93.5617 110.366 96.6237C108.17 88.6757 103.103 80.4657 96.5839 72.9657C97.1719 71.9657 97.8449 70.9577 98.6139 69.8827C100.393 67.9517 101.231 69.7427 101.231 69.7427C102.659 65.8697 101.751 63.9197 101.059 63.0857C100.8 62.7027 100.488 62.5647 100.488 62.5647C99.8889 59.8407 97.4199 58.4107 97.4199 58.4107C97.4199 58.4107 98.2709 54.5837 97.8589 50.6217C111.21 56.1977 115.155 66.2847 116.302 71.5777C116.712 76.4987 116.255 81.5747 114.792 86.5987ZM96.9919 110.117C96.6939 105.284 95.8899 101.378 95.8899 101.378C96.3239 101.554 97.4119 102.336 97.4119 102.336C97.2049 93.2947 93.4039 90.1107 93.5079 85.1797C93.5939 81.0507 94.1579 78.1787 95.2479 75.5987C101.845 83.3677 106.773 91.7877 108.354 99.6157C105.234 103.843 101.36 107.383 96.9919 110.117ZM34.4049 66.7117C37.2119 62.9067 44.4449 54.3997 52.4249 55.2517C51.7939 56.3897 51.2629 57.3687 50.9469 57.9947C48.8549 61.2297 46.8919 65.1107 45.4329 69.7017C43.9139 74.4837 43.1239 79.4607 43.0379 84.6027C41.3379 86.0027 39.5839 87.3027 37.7889 88.4387C37.7889 88.4387 40.9849 91.2897 44.1649 92.4117C44.1649 92.4117 41.9799 95.8467 40.5849 98.0877C34.5869 89.1297 32.1049 77.9047 34.4049 66.7117ZM44.2979 47.1617C45.2139 47.0987 46.5159 47.0507 48.0729 47.0937C51.8599 47.4337 53.2319 48.4777 55.4309 49.9197C54.9179 50.8177 54.3559 51.8067 53.7989 52.7947C46.7599 51.4177 40.4239 56.0677 36.2109 60.4387C38.0929 55.4157 40.8629 50.9427 44.2979 47.1617ZM63.0119 35.3427C62.8109 36.6127 62.7859 38.2167 63.4039 39.7937C63.7949 40.7877 64.3969 41.6497 65.1899 42.3837C63.3699 43.1557 61.7309 43.8757 60.3829 44.4817C57.1909 44.3527 51.6049 44.1917 47.6819 44.4237C47.4699 44.4207 47.2459 44.4117 47.0449 44.4117C51.6229 40.2377 57.0909 37.1397 63.0119 35.3427ZM65.9009 34.5777C70.7589 33.4797 75.8619 33.2437 80.9919 33.9987C82.8569 34.2727 84.7239 34.6787 86.5849 35.2217C86.6549 35.2417 86.7219 35.2657 86.7919 35.2857C84.1759 35.6897 80.8099 36.4517 77.0209 37.8337C74.0219 38.8377 70.9089 40.0297 68.0449 41.1967C67.0009 40.5877 66.2589 39.8067 65.8769 38.8417C65.2419 37.2417 65.6209 35.4817 65.9009 34.5777ZM76.3959 55.0987C74.9849 54.1437 73.5689 53.2337 72.1559 52.3827C71.0949 51.1897 68.9559 48.9527 67.8349 47.7857C68.3869 46.9117 69.1219 45.8697 70.0139 44.8837C74.3869 46.3917 78.0159 46.6737 80.2979 46.8287C80.7419 46.8597 81.1379 46.8857 81.4809 46.9197L81.8119 46.9477C82.4139 46.9987 82.9939 47.0637 83.5769 47.1277C81.3849 49.4237 79.0799 51.8887 76.3959 55.0987ZM62.8579 63.8897C59.1849 67.5767 53.1199 75.5257 45.8319 82.1777C46.4669 72.3717 49.7789 64.1107 54.3339 57.7027C54.8139 57.2307 55.3849 56.7627 56.0159 56.3067C58.8579 57.7387 61.0859 60.4727 62.8579 63.8897ZM64.8729 62.1087C63.1809 59.0047 61.1019 56.4047 58.5129 54.7047C59.7099 54.0137 60.9519 53.3817 62.0869 52.8407C63.7119 53.0617 68.4509 53.7507 70.4369 54.4647C71.8529 55.3127 73.2709 56.2237 74.6869 57.1837C74.3249 57.6317 73.9589 58.0897 73.5839 58.5677C73.5839 58.5677 69.3829 58.6197 64.8729 62.1087ZM92.4759 37.4777L92.4779 37.4287C101.916 41.8037 109.104 49.4597 113.051 58.5877C108.73 53.2187 102.881 49.8487 97.2979 47.7337C96.6229 45.5187 95.3469 43.5617 93.0449 42.5977C92.5959 41.5697 91.9669 40.8507 90.7329 40.3877C89.3749 40.6897 87.1609 42.2657 85.7889 44.7597C84.2989 44.5317 83.0169 44.3917 82.0329 44.3077L81.7339 44.2817C81.3709 44.2467 80.9489 44.2187 80.4779 44.1857C78.4749 44.0487 75.6849 43.8477 72.3059 42.8587C72.4899 42.7337 72.6759 42.6147 72.8659 42.5037C83.6489 37.2757 92.3609 37.4747 92.4759 37.4777ZM114.535 53.3077C108.737 42.7477 99.1749 35.0777 87.6069 31.7087C85.6139 31.1297 83.5679 30.6817 81.5289 30.3817H81.5279L81.5239 30.3807C59.3839 27.1197 37.9609 40.8867 31.6969 62.4047C28.3289 73.9717 29.6669 86.1567 35.4639 96.7177C41.2619 107.279 50.8249 114.949 62.3909 118.317C64.3859 118.898 66.4319 119.345 68.4739 119.645C72.9999 120.312 77.4919 120.256 81.8349 119.58C81.8889 119.606 81.9409 119.637 81.9949 119.662L82.0469 119.547C98.8579 116.844 113.338 104.671 118.303 87.6207C121.671 76.0547 120.333 63.8687 114.535 53.3077Z" fill="#002A5B"/>
<path fill-rule="evenodd" clip-rule="evenodd" d="M68.0453 41.1963C70.9093 40.0293 74.0213 38.8383 77.0213 37.8333C80.8093 36.4513 84.1753 35.6893 86.7923 35.2863C86.7213 35.2653 86.6553 35.2403 86.5863 35.2213C84.7233 34.6793 82.8583 34.2733 80.9923 33.9993C75.8613 33.2433 70.7583 33.4803 65.9013 34.5783C65.6213 35.4813 65.2413 37.2413 65.8763 38.8413C66.2593 39.8073 67.0013 40.5883 68.0453 41.1963Z" fill="#004F83"/>
<path fill-rule="evenodd" clip-rule="evenodd" d="M45.4325 69.7017C46.8925 65.1097 48.8555 61.2297 50.9465 57.9947C51.2635 57.3687 51.7935 56.3887 52.4245 55.2517C44.4455 54.3997 37.2125 62.9067 34.4055 66.7117C32.1045 77.9047 34.5875 89.1297 40.5855 98.0877C41.9795 95.8467 44.1645 92.4117 44.1645 92.4117C40.9845 91.2897 37.7895 88.4397 37.7895 88.4397C39.5845 87.3027 41.3385 86.0027 43.0375 84.6027C43.1235 79.4607 43.9135 74.4837 45.4325 69.7017Z" fill="#004F83"/>
<path fill-rule="evenodd" clip-rule="evenodd" d="M47.0453 44.412C47.2453 44.413 47.4693 44.42 47.6803 44.424C51.6053 44.191 57.1903 44.352 60.3823 44.481C61.7313 43.875 63.3703 43.155 65.1903 42.384C64.3973 41.649 63.7953 40.788 63.4043 39.793C62.7863 38.216 62.8113 36.612 63.0123 35.343C57.0903 37.139 51.6233 40.237 47.0453 44.412Z" fill="#004F83"/>
<path fill-rule="evenodd" clip-rule="evenodd" d="M96.9921 110.116C101.36 107.383 105.235 103.843 108.353 99.6151C106.773 91.7871 101.845 83.3671 95.2491 75.5981C94.1581 78.1791 93.5931 81.0501 93.5081 85.1791C93.4041 90.1111 97.2051 93.2951 97.4111 102.336C97.4111 102.336 96.3231 101.553 95.8881 101.378C95.8881 101.378 96.6931 105.282 96.9921 110.116Z" fill="#004F83"/>
<path fill-rule="evenodd" clip-rule="evenodd" d="M62.0868 52.8398C60.9528 53.3808 59.7098 54.0128 58.5128 54.7058C61.1018 56.4038 63.1808 59.0058 64.8718 62.1098C69.3818 58.6188 73.5838 58.5678 73.5838 58.5678C73.9598 58.0898 74.3248 57.6318 74.6858 57.1828C73.2728 56.2248 71.8528 55.3128 70.4368 54.4648C68.4508 53.7518 63.7118 53.0618 62.0868 52.8398Z" fill="#004F83"/>
<path fill-rule="evenodd" clip-rule="evenodd" d="M83.577 47.128C82.994 47.064 82.414 46.999 81.811 46.948L81.481 46.92C81.138 46.885 80.742 46.859 80.298 46.83C78.015 46.673 74.387 46.393 70.014 44.885C69.122 45.869 68.388 46.912 67.836 47.786C68.956 48.952 71.095 51.19 72.156 52.383C73.57 53.233 74.985 54.144 76.395 55.1C79.08 51.888 81.386 49.424 83.577 47.128Z" fill="#004F83"/>
<path fill-rule="evenodd" clip-rule="evenodd" d="M36.2108 60.439C40.4238 56.068 46.7598 51.418 53.7988 52.794C54.3558 51.806 54.9178 50.818 55.4308 49.919C53.2318 48.477 51.8598 47.433 48.0728 47.093C46.5158 47.05 45.2128 47.1 44.2978 47.163C40.8628 50.943 38.0928 55.416 36.2108 60.439Z" fill="#004F83"/>
<path fill-rule="evenodd" clip-rule="evenodd" d="M114.792 86.5986C116.255 81.5746 116.712 76.4986 116.302 71.5776C115.155 66.2846 111.21 56.1976 97.8589 50.6216C98.2709 54.5836 97.4199 58.4106 97.4199 58.4106C97.4199 58.4106 99.8889 59.8406 100.488 62.5646C100.488 62.5646 100.8 62.7026 101.059 63.0856C101.751 63.9196 102.659 65.8696 101.231 69.7426C101.231 69.7426 100.393 67.9516 98.6139 69.8826C97.8449 70.9576 97.1719 71.9656 96.5839 72.9656C103.103 80.4656 108.17 88.6756 110.366 96.6236C112.235 93.5616 113.741 90.2086 114.792 86.5986Z" fill="#004F83"/>
<path fill-rule="evenodd" clip-rule="evenodd" d="M90.7333 40.3882C91.9653 40.8502 92.5953 41.5692 93.0463 42.5972C95.3463 43.5622 96.6233 45.5182 97.2973 47.7342C102.88 49.8482 108.73 53.2182 113.05 58.5872C109.104 49.4602 101.915 41.8032 92.4773 37.4292L92.4753 37.4782C92.3613 37.4742 83.6483 37.2752 72.8663 42.5032C72.6753 42.6142 72.4893 42.7332 72.3063 42.8592C75.6843 43.8472 78.4733 44.0492 80.4773 44.1862C80.9493 44.2192 81.3703 44.2472 81.7333 44.2822L82.0333 44.3082C83.0153 44.3902 84.2983 44.5312 85.7893 44.7602C87.1613 42.2662 89.3753 40.6902 90.7333 40.3882Z" fill="#004F83"/>
<path fill-rule="evenodd" clip-rule="evenodd" d="M62.8583 63.8892C61.0863 60.4722 58.8583 57.7392 56.0153 56.3062C55.3853 56.7632 54.8143 57.2312 54.3333 57.7022C49.7783 64.1102 46.4673 72.3712 45.8303 82.1782C53.1203 75.5252 59.1833 67.5762 62.8583 63.8892Z" fill="#004F83"/>
<path fill-rule="evenodd" clip-rule="evenodd" d="M66.9242 43.9204L64.0582 48.0774C64.0582 48.0774 66.2242 49.5824 68.0052 51.6184C64.8882 50.9814 61.4662 50.4054 61.4662 50.4054L56.0412 53.3554L58.5842 49.1354C58.5842 49.1354 56.8732 47.6744 54.9002 46.4014C57.0632 46.4644 61.1772 46.8054 61.1772 46.8054L66.9242 43.9204Z" fill="#7AC142"/>
<path fill-rule="evenodd" clip-rule="evenodd" d="M72.2841 62.3071C72.2841 62.3071 71.6771 63.9861 71.5971 65.5461C71.5971 65.5461 67.7931 66.1071 65.9621 67.3531C65.9621 67.3531 69.7601 63.5681 72.2841 62.3071Z" fill="#7AC142"/>
<path fill-rule="evenodd" clip-rule="evenodd" d="M97.912 62.1388C98.335 62.0358 98.651 62.0188 98.887 62.0358C98.816 61.8418 98.685 61.5508 98.449 61.2638C98.113 60.8568 97.624 60.5518 97.624 60.5518C97.939 61.0378 97.948 61.7088 97.912 62.1388Z" fill="#FEFEFE"/>
<path fill-rule="evenodd" clip-rule="evenodd" d="M94.4803 63.8701C94.9713 63.5321 95.4193 63.2521 95.8263 63.0241C95.7523 62.8481 95.6373 62.5941 95.4653 62.2871C95.1393 61.7031 94.2893 61.1941 94.2893 61.1941C94.6403 62.2331 94.5653 63.2871 94.4803 63.8701Z" fill="#FEFEFE"/>
<path fill-rule="evenodd" clip-rule="evenodd" d="M53.6747 89.547C50.4407 90.869 42.7877 89.067 42.7877 89.067C50.5187 88.622 58.0807 83.083 58.0807 83.083C58.0747 83.096 58.0677 83.11 58.0637 83.122C55.7967 86.599 52.6727 88.61 52.6727 88.61C53.0167 89.05 53.3637 89.343 53.6747 89.547Z" fill="#C4CDD3"/>
<path fill-rule="evenodd" clip-rule="evenodd" d="M92.2235 43.4191C92.2235 43.4191 90.3225 41.9291 88.1655 44.2401C90.4765 40.0281 91.8115 42.4431 92.2235 43.4191Z" fill="#7AC142"/>
<path fill-rule="evenodd" clip-rule="evenodd" d="M99.7294 63.8467C99.7294 63.8467 99.5304 63.7117 99.4884 63.6887C98.2824 63.0467 96.1204 64.9207 94.7084 65.6977C93.2984 66.4747 91.2434 68.1297 90.2394 65.8497C89.2364 63.5697 91.5434 60.0037 92.3434 57.7597C94.1074 52.7987 94.1714 49.8777 93.7994 48.2987C95.4294 50.1397 95.9424 53.6687 95.9424 53.6687C95.9424 53.6687 96.5484 47.0407 93.3074 45.2947C93.3824 45.5297 93.2974 46.3557 93.2314 47.0067C93.2314 47.0067 93.2254 46.9977 93.2214 46.9927C91.7114 47.2687 88.3824 46.8907 87.3014 46.3247C83.2084 50.7147 78.7464 56.8237 75.3874 62.4337C73.9304 65.4007 72.5044 68.8807 72.1474 71.7097C72.1474 71.7097 71.6834 70.4307 71.5734 68.7247C69.7154 69.4417 63.3974 72.5467 62.0464 82.0667C62.0464 82.0667 66.0614 77.9237 70.5004 76.3097C70.5004 76.3097 67.6894 83.6717 73.0554 96.7217C73.0554 96.7217 75.2274 88.7197 79.7714 86.7007C82.5224 100.365 90.5874 100.589 92.9394 109.886C92.9394 109.886 95.4044 105.07 92.4374 96.8837C92.4374 96.8837 93.4604 97.1697 94.3284 98.1917C94.3284 98.1917 94.1934 95.7967 91.9554 90.6317C90.4974 87.8667 90.0404 84.1347 90.0404 84.1347C88.7304 85.3217 88.3944 89.3307 88.3944 89.3307C84.3904 78.4677 95.7554 67.7017 97.8304 66.1147C98.8424 65.3377 99.4664 65.3247 99.8444 65.5107C100.234 64.7017 100.199 64.1847 99.7294 63.8467Z" fill="#C4CDD3"/>
</svg>
