<svg width="150" height="150" viewBox="0 0 150 150" fill="none" xmlns="http://www.w3.org/2000/svg">
<g clip-path="url(#clip0_429_2152)">
<path fill-rule="evenodd" clip-rule="evenodd" d="M123.312 40.6786L123.32 36.2835L120.725 34.973C119.939 34.5784 101.198 25.2612 75.3066 25.2612H74.1363C48.1453 25.2612 29.4986 34.5812 28.7258 34.9702L26.1231 36.2808L26.1314 40.5876C25.9216 51.6264 27.2961 79.6663 44.5214 101.537C58.5809 119.402 72.0553 123.64 73.5429 124.062L74.8374 124.431L76.1263 124.07C76.7059 123.907 90.4729 119.887 104.916 101.537C122.158 79.6608 123.527 51.7147 123.312 40.6786Z" fill="#FEFEFE"/>
<path fill-rule="evenodd" clip-rule="evenodd" d="M120.552 40.6994C120.56 39.7255 120.56 39.1764 120.56 39.1764V37.9818L119.478 37.4355C118.719 37.052 100.545 28.0217 75.307 28.0217H74.1368C48.9158 28.0217 30.7218 37.052 29.9655 37.4355L28.8808 37.9818V39.1764C28.8808 39.1764 28.8808 39.7255 28.8919 40.6415C28.6876 51.3796 30.0042 78.647 46.6884 99.8307C60.2208 117.025 72.9003 121.012 74.2996 121.409L74.8434 121.566L75.3816 121.412C75.9308 121.26 88.8477 117.488 102.75 99.8307C119.451 78.6387 120.764 51.4072 120.552 40.6994Z" fill="#2D2925"/>
<path fill-rule="evenodd" clip-rule="evenodd" d="M74.8424 118.648C73.8157 118.353 61.7434 114.642 48.7741 98.1572C31.6786 76.4575 31.6041 48.0423 31.7338 41.349C31.7255 40.4081 31.7255 39.8784 31.7255 39.8784C31.7255 39.8784 31.7421 39.8701 31.7779 39.8508V39.7956L32.1588 39.6163C33.0669 39.2024 35.09 38.3168 38.0211 37.2656C45.3048 34.6004 58.3514 30.8592 74.1414 30.8592H75.2923C91.0548 30.8592 104.065 34.5811 111.36 37.2435C114.324 38.3058 116.372 39.1997 117.286 39.6163L117.667 39.7901V39.8508C117.697 39.8701 117.719 39.8784 117.719 39.8784C117.719 39.8784 117.719 40.4081 117.708 41.349C117.841 48.0423 117.772 76.4575 100.671 98.1572C87.6682 114.675 75.8305 118.375 74.8424 118.648ZM101.554 98.8883C117.893 78.146 119.179 51.4304 118.964 40.9103C118.972 39.9308 118.972 39.3901 118.972 39.3873V38.99L118.616 38.8107C117.874 38.4327 100.077 29.5928 75.3034 29.5928H74.1359C49.3813 29.5928 31.5737 38.4327 30.823 38.8107L30.4614 38.99V39.3873C30.4614 39.3901 30.4614 39.9308 30.4752 40.8496C30.2737 51.4083 31.5654 78.1543 47.8909 98.8883C61.0865 115.655 73.3162 119.506 74.6658 119.887L74.848 119.937L75.0246 119.887C75.549 119.744 87.9884 116.107 101.554 98.8883Z" fill="#FEFEFE"/>
<path fill-rule="evenodd" clip-rule="evenodd" d="M106.321 53.2905C100.249 47.011 99.5478 45.9929 99.5478 43.4105C99.5478 40.8529 100.666 40.5108 101.764 40.5108C102.333 40.5108 103.036 40.6266 103.845 40.8584C108.239 42.122 108.239 44.5196 108.239 46.2964V48.8458C108.239 49.0472 108.372 49.2293 108.562 49.2955C109.622 49.6569 110.155 49.8445 111.267 50.2556C111.41 50.308 111.576 50.2887 111.703 50.2032C111.833 50.1094 111.907 49.9659 111.907 49.8087V47.6787C111.907 44.9886 111.907 40.4832 104.049 38.229C98.5542 36.6536 95.75 38.3394 95.75 43.107C95.75 47.0662 98.1761 49.4362 102.2 53.3623L103.012 54.1569C107.784 58.8334 108.75 60.3757 108.75 63.3416C108.75 64.4039 108.59 65.1488 108.261 65.6151C107.922 66.0896 107.383 66.3076 106.564 66.3076C105.926 66.3076 105.12 66.1669 104.168 65.8937C102.076 65.2923 100.558 64.4728 99.6582 63.4548C98.5597 62.2187 98.5597 61.1703 98.5597 59.079V56.8166C98.5597 56.5931 98.4052 56.4027 98.1926 56.3531C97.0169 56.0882 96.4538 55.9723 95.3278 55.7488C95.1898 55.724 95.0435 55.7599 94.9331 55.8481C94.8227 55.9392 94.762 56.0744 94.762 56.2151V60.2212C94.762 63.9873 97.8394 66.8566 103.674 68.5203C105.319 68.9921 106.74 69.2266 107.902 69.2266C112.47 69.2266 112.47 65.5489 112.47 63.979C112.47 59.8377 110.362 57.4649 106.321 53.2905ZM94.0913 36.2591C88.2897 35.1969 82.3612 34.623 76.4713 34.5568C76.3416 34.5513 76.2202 34.6037 76.1319 34.692C76.0408 34.7858 75.9911 34.9044 75.9911 35.0313V36.8523C75.9911 37.1116 76.1981 37.3241 76.4603 37.3296C79.2203 37.36 80.6417 37.4207 83.2555 37.6276V63.9679C83.2555 64.2163 83.4404 64.4232 83.6888 64.4453C84.8425 64.5363 85.4027 64.5915 86.5647 64.7156C86.5785 64.7212 86.6006 64.7239 86.6144 64.7239C86.7331 64.7239 86.8435 64.6798 86.9318 64.5998C87.0312 64.5087 87.0919 64.3818 87.0919 64.2438V37.9973C89.7139 38.2925 91.1519 38.5077 93.9174 39.0154C94.0581 39.043 94.2044 39.0016 94.3093 38.9105C94.4142 38.8222 94.4777 38.687 94.4777 38.5463V36.7281C94.4777 36.4964 94.3176 36.3005 94.0913 36.2591ZM73.5623 34.6037C68.6274 34.6837 63.6483 35.1224 58.7658 35.906C58.534 35.9418 58.3656 36.1432 58.3656 36.375V64.9336C58.3656 65.0743 58.4291 65.2067 58.534 65.2978C58.6223 65.3695 58.7327 65.4082 58.8431 65.4082C58.8652 65.4082 58.8928 65.4082 58.9149 65.4054C63.7311 64.6329 68.6439 64.1969 73.5209 64.1142C73.7776 64.1114 73.9873 63.899 73.9873 63.6396V61.8601C73.9873 61.7331 73.9376 61.6062 73.8438 61.5207C73.7555 61.4324 73.6202 61.3827 73.5016 61.3855C68.9365 61.4628 66.4966 61.6338 62.1331 62.2022V50.9012C65.7542 50.4322 67.6697 50.2749 71.4592 50.137C71.7131 50.1259 71.9201 49.9135 71.9201 49.6597V47.9187C71.9201 47.7891 71.8676 47.6649 71.771 47.5766C71.68 47.4883 71.5558 47.4359 71.4233 47.4442C67.7166 47.5821 65.7183 47.7421 62.1938 48.1974V38.1546C66.6346 37.5724 68.9558 37.4096 73.5788 37.3351C73.8383 37.3324 74.0453 37.1199 74.0453 36.8606V35.081C74.0453 34.9513 73.9928 34.8272 73.9045 34.7416C73.8134 34.6506 73.6865 34.6009 73.5623 34.6037ZM54.6507 36.6509C53.5108 36.8799 52.9615 36.9985 51.8465 37.2551C51.6284 37.3048 51.4766 37.5007 51.4794 37.7269L51.7085 58.4996C51.7085 59.8791 51.7444 61.1455 51.7996 62.2794C48.9926 55.1032 46.0615 47.6732 43.0862 40.1521C42.9896 39.9176 42.7302 39.7934 42.4873 39.8762C40.8313 40.4252 40.0281 40.7094 38.3969 41.3247C38.2148 41.3909 38.0906 41.573 38.0906 41.7661V70.3275C38.0906 70.4848 38.1651 70.631 38.2948 70.7193C38.3721 70.7744 38.4687 70.8048 38.5681 70.8048C38.6205 70.8048 38.6812 70.7938 38.7337 70.7717C39.7411 70.3909 40.2489 70.2088 41.3226 69.8336C41.513 69.7674 41.6427 69.5881 41.64 69.3867C41.6013 62.6271 41.5627 55.8702 41.5296 49.1189C41.5296 47.3393 41.5075 46.3461 41.4495 45.088C44.3806 52.5428 47.2345 59.8404 49.9421 66.8235C50.0332 67.047 50.2678 67.1739 50.5024 67.1105C52.2412 66.6828 53.094 66.4924 54.8383 66.142C55.0564 66.0951 55.2192 65.902 55.2192 65.6758V37.1172C55.2192 36.9737 55.153 36.8385 55.0453 36.7475C54.9322 36.6592 54.7859 36.6233 54.6507 36.6509Z" fill="#FEFEFE"/>
<path fill-rule="evenodd" clip-rule="evenodd" d="M90.7339 101.297C90.4579 101.487 90.1847 101.688 89.8783 101.898C89.0779 102.455 88.2996 102.927 87.4661 103.424C87.0824 103.661 86.6822 103.896 86.271 104.152C83.4282 105.912 80.0223 107.86 76.3708 108.978C75.3137 109.306 74.3394 109.543 73.3927 109.695C72.5123 109.822 71.6898 109.888 70.8701 109.888H70.7128C69.6336 109.88 68.5876 109.778 67.5829 109.593C71.4028 110.948 75.6449 111.24 79.8705 110.192C82.2883 109.593 84.5101 108.6 86.4725 107.3C88.3576 105.827 89.8811 103.733 90.8581 101.206C90.8167 101.236 90.7781 101.266 90.7339 101.297ZM71.3945 108.82C73.8206 108.534 75.8298 107.921 78.1179 106.773C78.4519 106.611 78.7803 106.439 79.106 106.268C79.3847 106.125 79.6607 105.979 79.9395 105.838C81.8826 104.823 83.9664 103.719 86.4863 102.367C87.3722 101.893 88.2582 101.385 89.1166 100.897L90.124 100.337C90.5131 100.127 90.8774 99.9309 91.2473 99.7075C91.2804 99.6854 91.3246 99.6578 91.3687 99.6302C91.6916 98.4521 91.9014 97.1719 91.998 95.82C89.5223 97.0588 85.8018 98.1458 80.3452 99.2412C73.3569 100.629 66.5203 100.008 60.4152 97.434C56.3138 95.7069 54.3762 93.3148 53.562 91.996C53.6669 92.9341 53.8298 93.8721 54.0671 94.813C55.414 100.132 58.6791 104.478 62.9571 107.292L62.9378 107.256L63.5395 107.609C64.0253 107.899 64.6297 108.15 65.339 108.354C66.6721 108.752 67.9831 108.947 69.3576 108.947C70.0035 108.947 70.6769 108.903 71.3945 108.82ZM93.1738 99.8675C93.1572 99.7819 93.1379 99.7792 93.0937 99.7792C93.0275 99.7792 92.8812 99.8095 92.5831 99.9999C92.5307 100.041 92.4727 100.077 92.412 100.119C92.3623 100.152 92.3099 100.185 92.2657 100.218C91.7358 101.622 91.032 102.949 90.2261 104.133C91.3963 102.891 92.4065 101.512 93.2373 100.036H93.2097L93.1738 99.8675ZM93.988 94.595C93.9135 94.6474 93.8445 94.6998 93.7699 94.755C93.654 94.8405 93.5353 94.9288 93.4084 95.0144C93.309 96.3635 93.0579 97.6989 92.677 98.9901C93.3449 98.7556 93.574 99.026 93.643 99.1805C93.6485 99.2025 93.654 99.2274 93.6595 99.2495C94.7608 97.0891 95.4867 94.7412 95.7875 92.2967C95.448 93.1134 94.896 93.9632 93.988 94.595ZM93.4746 93.439C93.5271 93.4003 93.5795 93.3617 93.6264 93.3286C95.4149 92.087 95.8758 90.0702 95.9393 89.7391C95.9393 88.0478 95.7323 86.3317 95.2935 84.6184C95.2769 84.5494 95.2603 84.4832 95.2383 84.4142C95.0754 85.9868 94.2999 87.4436 92.9309 88.7459C93.2952 90.3158 93.4746 91.8912 93.4746 93.439ZM61.6268 96.0104C66.6666 97.6713 69.4653 98.2038 73.1444 98.2038C74.483 98.2038 76.0065 98.1238 77.9468 97.9637C83.3205 97.5002 88.9868 95.7262 92.0311 94.2501C92.0256 92.7713 91.8904 91.2731 91.6282 89.7833C90.7256 90.3295 89.7044 90.5861 88.4459 90.5861C87.1818 90.5861 85.6527 90.3461 83.1715 89.7501C80.2403 89.0549 76.0451 86.558 72.3467 84.359C70.3181 83.1478 68.4026 82.0056 66.8156 81.2248C60.7767 78.2395 57.3488 78.6589 56.4352 78.8548C54.2797 82.4387 53.195 86.6545 53.4737 90.9972C53.8794 91.5766 55.9467 94.1397 61.6268 96.0104ZM64.707 78.7361C66.7604 79.5942 69.4542 81.0372 72.2998 82.5684C76.7903 84.9798 81.4354 87.4767 84.5791 88.2575C87.3805 88.95 89.6796 88.8893 91.2942 88.0782C91.2887 88.0478 91.2832 88.0147 91.2749 87.9871C91.2556 87.8685 91.2335 87.7581 91.1976 87.6423C89.8342 81.9201 82.6692 69.3913 70.2601 69.3913C69.7385 69.3913 69.2031 69.4189 68.6731 69.4658C63.8762 70.8564 59.9266 73.8003 57.2522 77.6105C57.7048 77.467 58.2982 77.3373 59.1042 77.3373C60.6194 77.3373 62.5045 77.8064 64.707 78.7361ZM92.5196 87.1787C92.8453 86.8421 93.0993 86.4724 93.2952 86.0862C94.7939 83.2058 93.4498 79.9777 92.8867 78.8548C88.7136 71.9738 80.8365 67.9208 72.6227 68.7099C81.1263 69.1679 89.365 76.7745 92.5196 87.1787Z" fill="#FEFEFE"/>
<path fill-rule="evenodd" clip-rule="evenodd" d="M83.0979 94.0318C83.0979 92.484 83.0979 90.183 81.2653 88.3979C81.464 88.0503 81.6323 87.675 81.7621 87.2695C82.0684 86.348 82.0933 85.3382 82.0767 84.6815L82.0684 80.4216V80.3554C82.0188 78.7717 81.7786 77.097 80.4842 75.643C79.3222 74.3352 77.5751 73.6482 75.4278 73.6482L69.6428 73.662C69.0136 73.662 68.387 73.9075 67.9261 74.3683C67.4818 74.818 67.2168 75.4305 67.2168 76.0789L67.272 104.055C67.272 104.886 67.697 105.658 68.4091 106.086C68.801 106.323 69.2482 106.456 69.7201 106.456L75.6017 106.445C77.7269 106.439 79.5044 105.835 80.8927 104.64L80.912 104.629C82.8523 102.888 83.0593 100.838 83.109 98.8767V98.8546L83.0979 94.0318Z" fill="#FEFEFE"/>
<path fill-rule="evenodd" clip-rule="evenodd" d="M75.3045 87.1198C74.8077 87.2605 74.5676 87.3019 73.4884 87.3405L72.4147 87.3433C72.2298 87.3488 72.1802 87.2605 72.1802 87.1198C72.1802 87.0343 72.1691 78.1282 72.1691 78.1282C72.1691 77.9847 72.2188 77.8992 72.3706 77.8826H74.0321H74.1674C74.9622 77.9075 75.8455 77.9323 76.414 78.2827C76.679 78.4427 76.8363 78.6358 76.9329 78.8924C77.0102 79.1601 77.0875 79.6236 77.1316 80.4154L77.1427 83.8973C77.1316 83.9552 77.1316 84.0463 77.1316 84.1622C77.104 85.0616 77.0875 86.5873 75.3045 87.1198ZM77.3359 101.646C76.9025 101.952 76.3781 102.132 75.0312 102.181C75.0312 102.181 72.7211 102.187 72.5417 102.187C72.3347 102.187 72.2519 102.06 72.2519 101.861C72.2519 100.159 72.2298 90.7783 72.2298 90.6983C72.2298 90.61 72.2519 90.4913 72.4313 90.4913C72.6052 90.4913 73.5933 90.4803 73.5933 90.4803C74.8187 90.541 76.0994 90.6348 76.9329 91.1618C77.4131 91.4542 77.7388 91.8626 77.9458 92.4116C78.1307 92.9745 78.1666 93.5952 78.1666 94.1746L78.1749 98.3132C78.1749 100.2 78.0562 101.089 77.3359 101.646ZM81.5973 94.2243C81.5973 92.6572 81.5973 90.7452 79.9689 89.396C79.6294 89.1118 79.2209 88.8663 78.7379 88.6704C79.4914 88.1627 80.0076 87.4647 80.2918 86.5873C80.554 85.801 80.5402 84.8298 80.532 84.4491L80.5209 80.0071C80.4768 78.7765 80.3443 77.375 79.3479 76.2382C78.4675 75.2616 77.1316 74.7594 75.437 74.7649L69.4063 74.7815C69.2269 74.7815 69.0586 74.8505 68.9206 74.9857C68.7853 75.1126 68.7246 75.2836 68.7246 75.4602L68.7771 104.653C68.7771 104.885 68.8957 105.117 69.1 105.236C69.2131 105.305 69.3456 105.343 69.4836 105.343L75.6219 105.327C76.2705 105.327 78.2715 105.321 79.9386 103.9C81.4152 102.565 81.5642 100.989 81.6084 99.2181L81.5973 94.2243Z" fill="#2D2925"/>
</g>
<defs>
<clipPath id="clip0_429_2152">
<rect width="150" height="150" fill="white"/>
</clipPath>
</defs>
</svg>
