<svg width="150" height="150" viewBox="0 0 150 150" fill="none" xmlns="http://www.w3.org/2000/svg">
<g clip-path="url(#clip0_429_2558)">
<mask id="mask0_429_2558" style="mask-type:alpha" maskUnits="userSpaceOnUse" x="0" y="45" width="150" height="60">
<path d="M0.000915527 104.472H149.774V45.1885H0.000915527V104.472Z" fill="white"/>
</mask>
<g mask="url(#mask0_429_2558)">
<path fill-rule="evenodd" clip-rule="evenodd" d="M147.673 62.5017C128.028 51.0676 99.4783 45.4122 86.1785 45.1885C82.9525 45.1885 81.4618 46.7068 80.7759 47.9853C80.5015 48.5013 80.3163 49.0402 80.2203 49.5973C79.4863 49.1383 78.8827 48.8347 78.8462 48.8141L76.8662 47.8164L77.0399 48.9603C76.2443 48.5287 75.4944 48.0812 75.4875 48.0767L74.9045 47.7251L74.3192 48.0721C74.3192 48.0721 73.5441 48.5287 72.7393 48.9625L72.9176 47.8095L70.9331 48.8141C70.8942 48.8347 70.2906 49.1383 69.5567 49.5973C69.4606 49.0402 69.2732 48.4991 68.9988 47.9831C68.3175 46.7068 66.8268 45.1885 63.4086 45.1885C50.2963 45.4122 21.7488 51.0676 2.08151 62.5154L0.000915527 63.7985L0.348443 64.6866C0.426179 64.883 2.10666 69.0475 6.17867 71.0156L6.43017 71.4265C6.53534 71.5932 8.67995 75.0134 12.2078 76.5796L12.4525 76.9746C12.5691 77.1618 15.0292 81.0523 19.8077 82.6962L20.3427 83.2738C20.4936 83.4359 23.6076 86.7419 28.6056 87.968L28.5599 88.0022L29.8928 88.8904C30.046 88.9931 33.2332 91.0845 38.142 92.1051L37.5361 92.6439L39.3332 93.2992C39.7722 93.4613 49.8025 97.055 58.8451 94.2946C61.7419 100.423 68.0591 104.473 74.8908 104.473C81.7201 104.473 88.0351 100.423 90.9319 94.2946C99.9676 97.055 110.005 93.4613 110.444 93.2992L112.239 92.6439L111.635 92.1074C116.541 91.0845 119.729 88.9931 119.882 88.8904L121.215 88.0022L121.171 87.968C126.167 86.7419 129.281 83.4359 129.432 83.2738L129.962 82.6985C134.745 81.0546 137.206 77.1618 137.32 76.9746L137.565 76.5819C141.095 75.0156 143.242 71.5932 143.344 71.4265L143.598 71.0156C147.67 69.0475 149.348 64.883 149.426 64.6866L149.774 63.7985L147.673 62.5017Z" fill="#FEFEFE"/>
</g>
<path fill-rule="evenodd" clip-rule="evenodd" d="M148.362 64.2696L147.096 63.4865C127.616 52.1483 99.3336 46.55 86.3493 46.3308H86.1779C84.0424 46.3308 82.5631 47.0683 81.7858 48.5204C81.1296 49.7555 81.205 50.993 81.5251 52.041C81.301 51.7853 80.9764 51.5136 80.622 51.2533C79.568 50.4588 78.3288 49.8332 78.3288 49.8332C78.3288 49.8332 78.4911 50.856 78.1139 50.7305C77.9378 50.6757 77.7206 50.582 77.4805 50.4725C76.4265 49.9679 74.8992 49.0546 74.8992 49.0546C74.8992 49.0546 73.3491 49.9679 72.2973 50.4725C72.0573 50.582 71.8378 50.6757 71.6617 50.7305C71.2845 50.856 71.4491 49.8332 71.4491 49.8332C71.4491 49.8332 70.2099 50.4588 69.1536 51.2533C68.7992 51.5136 68.4745 51.7853 68.2505 52.041C68.5706 50.993 68.6483 49.7555 67.9898 48.5204C67.2125 47.0683 65.7332 46.3308 63.5977 46.3308H63.4263C50.442 46.55 22.1597 52.1483 2.68214 63.4865L1.41321 64.2696C1.41321 64.2696 3.32461 69.1327 8.04595 70.5163L7.40348 70.8268C7.40348 70.8268 10.0717 75.1488 14.2191 76.0461L13.4258 76.3749C13.4258 76.3749 16.35 81.0942 22.0179 82.0919L21.1811 82.496C21.1811 82.496 25.2257 86.8614 31.4286 87.2518L30.5278 87.9391C30.5278 87.9391 34.6386 90.6743 40.6998 91.3615L39.7258 92.2268C39.7258 92.2268 50.474 96.1516 59.4754 92.8798C61.9584 99.1151 68.0607 103.33 74.8855 103.33H74.8878H74.8901C81.7149 103.33 87.8172 99.1151 90.3002 92.8798C99.3016 96.1516 110.05 92.2268 110.05 92.2268L109.076 91.3615C115.137 90.6743 119.248 87.9391 119.248 87.9391L118.347 87.2518C124.55 86.8614 128.592 82.496 128.592 82.496L127.758 82.0919C133.426 81.0942 136.348 76.3749 136.348 76.3749L135.556 76.0461C139.704 75.1488 142.372 70.8268 142.372 70.8268L141.73 70.5163C146.451 69.1327 148.362 64.2696 148.362 64.2696Z" fill="#B49759"/>
<path fill-rule="evenodd" clip-rule="evenodd" d="M146.313 64.8292C127.258 53.7445 99.2638 48.1051 86.3276 47.8859C84.7683 47.8608 83.7074 48.2398 83.1633 49.2535C82.2624 50.9431 83.5337 52.829 84.0755 53.6418C85.2484 55.3861 86.8009 58.1168 86.8009 61.3999C86.8009 67.7677 81.6451 72.4778 75.2959 72.4778C75.1587 72.4778 75.0238 72.4801 74.8889 72.4801C74.7517 72.4801 74.6168 72.4778 74.4797 72.4778C68.1327 72.4778 62.9747 67.7677 62.977 61.3999C62.977 58.1168 64.5294 55.3861 65.7 53.6418C66.2419 52.829 67.5154 50.9431 66.6123 49.2535C66.0704 48.2398 65.0095 47.8608 63.448 47.8859C50.5117 48.1051 22.5198 53.7445 3.46292 64.8292C3.47893 64.8772 6.5175 70.0691 12.5832 69.6262C11.6481 70.0805 10.7153 70.5463 9.787 71.0257C9.80301 71.0828 12.5695 75.6286 19.2503 74.971C18.1368 75.4961 17.0302 76.0304 15.9259 76.5852C15.9396 76.6469 19.1314 81.115 26.1688 80.9986C24.5478 81.8182 23.5669 82.3388 23.5738 82.3365C23.5783 82.3707 28.2242 86.8594 35.7349 85.6242C34.9233 86.2156 34.1048 86.8434 33.1353 87.5192C33.1376 87.5307 38.6523 90.5399 45.141 89.6038C44.3042 90.2362 43.4674 90.8755 42.6329 91.5216C42.6169 91.4372 52.5694 94.2432 59.648 91.1312C65.7389 88.4508 69.1227 81.8844 69.8955 80.2314C71.0981 80.4963 72.1476 80.6492 72.9478 80.7428C72.9455 80.8296 74.2373 80.9415 74.8889 80.9141C75.5382 80.9415 76.8323 80.8296 76.83 80.7428C77.628 80.6492 78.6797 80.4963 79.8801 80.2314C80.6506 81.8844 84.0367 88.4508 90.1275 91.1312C97.2061 94.2432 107.156 91.4372 107.143 91.5216C106.31 90.8755 105.474 90.2362 104.635 89.6038C111.123 90.5399 116.638 87.5307 116.638 87.5192C115.673 86.8434 114.852 86.2156 114.041 85.6242C121.551 86.8594 126.197 82.3707 126.202 82.3365C126.209 82.3388 125.228 81.8182 123.607 80.9986C130.644 81.115 133.836 76.6469 133.85 76.5852C132.748 76.0304 131.639 75.4961 130.528 74.971C137.206 75.6286 139.973 71.0828 139.986 71.0257C139.058 70.5463 138.127 70.0805 137.192 69.6262C143.258 70.0691 146.297 64.8772 146.313 64.8292Z" fill="#002A5B"/>
<path fill-rule="evenodd" clip-rule="evenodd" d="M69.4046 76.8784C69.4046 76.8784 52.3758 71.1865 59.7745 53.0765C59.7745 53.0765 41.7716 53.8231 17.0926 63.7662C17.0926 63.7662 15.3618 64.4854 14.3536 64.8462C13.343 65.2069 11.7197 65.8508 9.39215 64.7366C9.39215 64.7366 31.9631 52.9532 60.9634 50.2203C64.7862 49.8595 65.2915 50.4372 64.2809 51.8778C63.4532 53.0582 53.0983 66.2161 69.4046 76.8784Z" fill="#FEFEFE"/>
<path fill-rule="evenodd" clip-rule="evenodd" d="M54.2764 58.2051C39.6849 60.1001 25.4157 65.1756 25.4157 65.1756C27.8461 69.4907 34.4354 67.6802 34.4354 67.6802C46.7978 64.1847 52.3147 62.9997 54.0844 62.6572C54.0158 61.2828 54.073 59.7987 54.2764 58.2051Z" fill="#B49759"/>
<path fill-rule="evenodd" clip-rule="evenodd" d="M54.3848 65.2998C51.9475 65.7701 41.7321 67.8638 31.4274 71.72C31.4274 71.72 34.6763 75.4142 41.1216 73.5877C46.5426 72.0534 53.4931 69.8387 55.5669 69.1743C55.0479 68.0076 54.6432 66.7176 54.3848 65.2998Z" fill="#B49759"/>
<path fill-rule="evenodd" clip-rule="evenodd" d="M56.6488 71.2173C54.447 71.9273 43.4382 75.4891 38.79 77.2699C38.79 77.2699 41.4559 80.8408 49.1541 77.8156C54.5156 75.7083 57.4696 74.4776 58.7728 73.9205C57.9977 73.1192 57.2798 72.2196 56.6488 71.2173Z" fill="#B49759"/>
<path fill-rule="evenodd" clip-rule="evenodd" d="M60.4725 75.4736C58.5497 76.307 51.4048 79.4235 47.2733 81.4121C47.2733 81.4121 52.4725 83.9647 59.0138 79.9281L63.0812 77.2636C62.1964 76.7476 61.3162 76.154 60.4725 75.4736Z" fill="#B49759"/>
<path fill-rule="evenodd" clip-rule="evenodd" d="M65.0596 78.3008C63.7518 79.1159 58.3331 82.5201 55.6878 84.4722C55.6878 84.4722 60.1782 86.3261 64.7852 81.9927C66.2851 80.5839 67.1036 79.7848 67.554 79.3282C66.7607 79.0428 65.9216 78.7049 65.0596 78.3008Z" fill="#B49759"/>
<path fill-rule="evenodd" clip-rule="evenodd" d="M80.3721 76.8784C80.3721 76.8784 97.4009 71.1865 90.0022 53.0765C90.0022 53.0765 108.005 53.8231 132.682 63.7662C132.682 63.7662 134.413 64.4854 135.423 64.8462C136.434 65.2069 138.057 65.8508 140.382 64.7366C140.382 64.7366 117.811 52.9532 88.8133 50.2203C84.9882 49.8595 84.4852 50.4372 85.4935 51.8778C86.3235 53.0582 96.6784 66.2161 80.3721 76.8784Z" fill="#FEFEFE"/>
<path fill-rule="evenodd" clip-rule="evenodd" d="M95.4991 58.2051C110.091 60.1001 124.36 65.1756 124.36 65.1756C121.932 69.4907 115.34 67.6802 115.34 67.6802C102.978 64.1847 97.4631 62.9997 95.6935 62.6572C95.762 61.2828 95.7026 59.7987 95.4991 58.2051Z" fill="#B49759"/>
<path fill-rule="evenodd" clip-rule="evenodd" d="M95.3919 65.2998C97.8269 65.7701 108.042 67.8638 118.349 71.72C118.349 71.72 115.098 75.4142 108.655 73.5877C103.234 72.0534 96.2836 69.8387 94.2098 69.1743C94.7266 68.0076 95.1312 66.7176 95.3919 65.2998Z" fill="#B49759"/>
<path fill-rule="evenodd" clip-rule="evenodd" d="M93.1279 71.2173C95.3274 71.9273 106.339 75.4891 110.984 77.2699C110.984 77.2699 108.321 80.8408 100.623 77.8156C95.2611 75.7083 92.3071 74.4776 91.0039 73.9205C91.779 73.1192 92.4969 72.2196 93.1279 71.2173Z" fill="#B49759"/>
<path fill-rule="evenodd" clip-rule="evenodd" d="M89.3042 75.4736C91.2271 76.307 98.3719 79.4235 102.503 81.4121C102.503 81.4121 97.3042 83.9647 90.7606 79.9281L86.6955 77.2636C87.5803 76.7476 88.4583 76.154 89.3042 75.4736Z" fill="#B49759"/>
<path fill-rule="evenodd" clip-rule="evenodd" d="M84.7171 78.3008C86.0249 79.1159 91.4436 82.5201 94.0889 84.4722C94.0889 84.4722 89.5962 86.3261 84.9869 81.9927C83.4916 80.5839 82.6731 79.7848 82.2227 79.3282C83.016 79.0428 83.8551 78.7049 84.7171 78.3008Z" fill="#B49759"/>
<path fill-rule="evenodd" clip-rule="evenodd" d="M88.8321 86.7644C88.8321 94.4587 82.5903 100.694 74.8876 100.694C67.1848 100.694 60.943 94.4587 60.943 86.7644C60.943 79.0747 67.1848 72.8372 74.8876 72.8372C82.5903 72.8372 88.8321 79.0747 88.8321 86.7644Z" fill="#FEFEFE"/>
<path fill-rule="evenodd" clip-rule="evenodd" d="M85.9474 89.6454C85.9474 95.7506 80.9951 100.694 74.8882 100.694C68.7791 100.694 63.8291 95.7506 63.8291 89.6454C63.8291 83.5471 68.7791 78.6018 74.8882 78.6018C80.9951 78.6018 85.9474 83.5471 85.9474 89.6454Z" fill="#B49759"/>
<path fill-rule="evenodd" clip-rule="evenodd" d="M82.2275 97.3042C81.6673 96.8659 80.8717 96.0896 80.7299 95.1307C80.7162 95.0462 80.7093 94.9617 80.6979 94.875C83.533 93.6877 85.9268 91.642 87.5456 89.0209C86.9351 92.4388 84.9711 95.3909 82.2275 97.3042ZM62.2287 89.0095C63.8474 91.6374 66.2412 93.6854 69.0809 94.875C69.0695 94.9617 69.0626 95.0462 69.0489 95.1329C68.9048 96.0942 68.1115 96.8681 67.5513 97.3042C64.8031 95.3909 62.8368 92.4343 62.2287 89.0095ZM65.1918 78.3426C64.6179 81.5139 65.9349 84.5026 67.1421 87.2355C67.9812 89.1397 68.7859 90.9662 69.0443 92.8155C65.7245 91.1603 63.2026 88.1305 62.263 84.3336C62.6996 82.0687 63.7331 80.0139 65.1918 78.3426ZM78.7979 93.569C77.8422 93.8749 76.8431 94.0758 75.8165 94.1512V73.959C77.8788 74.1074 79.8062 74.7398 81.4867 75.7467C84.0383 79.4271 82.6002 82.7126 80.9334 86.4866C79.9343 88.7515 78.91 91.0803 78.7979 93.569ZM75.8165 96.0074C76.882 95.9435 77.9154 95.7722 78.91 95.5005C79.118 96.6946 79.8565 97.6444 80.5424 98.2951C79.0974 99.0075 77.5016 99.4527 75.8165 99.5737V96.0074ZM70.8688 95.5005C71.8634 95.7722 72.8968 95.9435 73.9577 96.0074V99.5737C72.2749 99.4527 70.6791 99.0075 69.2341 98.2951C69.9223 97.6444 70.6608 96.6946 70.8688 95.5005ZM68.2921 75.7467C69.9703 74.7398 71.9 74.1074 73.9577 73.959V94.1512C72.9311 94.0804 71.9343 93.8863 70.9809 93.5918C70.8757 91.094 69.8468 88.7607 68.8431 86.4866C67.1741 82.7126 65.7382 79.4271 68.2921 75.7467ZM87.5158 84.345C86.5876 88.062 84.0383 91.0963 80.7391 92.7722C81.0043 90.9365 81.8022 89.1237 82.6344 87.2355C83.8416 84.5003 85.1586 81.5116 84.5824 78.3426C86.0457 80.0185 87.0791 82.0756 87.5158 84.345ZM74.8882 71.7534C66.6025 71.7534 59.86 78.4887 59.86 86.7652C59.86 95.0416 66.6025 101.775 74.8882 101.775C83.1763 101.775 89.9188 95.0416 89.9188 86.7652C89.9188 78.4887 83.1763 71.7534 74.8882 71.7534Z" fill="#002A5B"/>
<path fill-rule="evenodd" clip-rule="evenodd" d="M79.3528 52.2696C79.3528 52.2696 79.2408 52.7422 78.9527 52.7422C78.6646 52.7422 76.8607 51.8769 75.9942 51.4065C75.6238 51.2079 75.1048 50.9065 74.9241 50.8015C74.9241 50.8015 74.1513 51.2079 73.781 51.4065C72.9144 51.8769 71.1128 52.7422 70.8224 52.7422C70.5343 52.7422 70.4223 52.2696 70.4223 52.2696C70.4223 52.2696 65.6872 55.1235 65.6872 63.0096C65.6872 68.8795 68.7464 71.544 68.7464 71.544L69.1625 73.2038H74.3708H75.4043H80.6103L81.0264 71.544C81.0264 71.544 84.0879 68.8795 84.0879 63.0096C84.0879 55.1235 79.3528 52.2696 79.3528 52.2696Z" fill="#002A5B"/>
<path fill-rule="evenodd" clip-rule="evenodd" d="M81.609 61.0166C81.609 58.5804 80.6167 56.5941 79.5467 55.4114C79.5467 55.4114 79.5101 56.1101 78.3441 55.3315C77.3381 54.6397 76.1537 54.2356 74.8825 54.2356C73.6045 54.2356 72.4178 54.642 71.4095 55.3361C70.2847 56.1009 70.2298 55.4114 70.2298 55.4114C69.1621 56.5941 68.1675 58.5804 68.1675 61.0166C68.1675 63.0417 68.6636 64.0372 68.8374 64.3226C69.8411 66.9003 72.1686 68.7085 74.8825 68.7085C77.5621 68.7085 79.8668 66.9391 80.8911 64.4025C80.9505 64.3203 81.609 63.35 81.609 61.0166Z" fill="#FEFEFE"/>
<path fill-rule="evenodd" clip-rule="evenodd" d="M77.417 66.5215C77.4101 66.5078 77.3987 66.4941 77.3918 66.4804C77.3918 66.4804 76.7265 65.2338 77.8217 64.3707C77.8217 64.3707 80.3001 64.8867 80.3595 61.6058C80.3595 61.6058 80.3001 61.2565 80.6476 60.5693C80.6476 60.5693 80.012 59.9916 78.6287 61.0305C77.2432 62.0625 76.4956 65.0009 75.7456 64.3114C75.0049 63.6264 75.2769 59.8021 74.8905 59.656H74.8768C74.495 59.8044 74.7671 63.6264 74.024 64.3114C73.2764 65.0009 72.5242 62.0625 71.1409 61.0305C69.7554 59.9916 69.1243 60.5693 69.1243 60.5693C69.4696 61.2565 69.4101 61.6058 69.4101 61.6058C69.4696 64.8867 71.948 64.3707 71.948 64.3707C73.0454 65.2338 72.3824 66.4849 72.3824 66.4849C72.3755 66.4986 72.3664 66.5123 72.3595 66.5237C69.401 63.3502 67.6816 63.7817 68.5299 67.3365C69.3644 70.8298 72.5653 85.821 73.0729 89.2982C73.0043 92.4262 72.6408 93.5426 72.547 93.7824L72.2224 94.4285L72.579 95.1385C73.1438 95.9582 73.5324 96.8738 73.6719 97.2231L74.8928 100.319L76.1023 97.2299C76.2464 96.8737 76.6373 95.9582 77.1975 95.1385L77.5702 94.4627L77.2341 93.7846C77.138 93.5495 76.7859 92.4741 76.7059 89.4581C77.1266 86.3415 80.3984 70.8891 81.2466 67.3365C82.0926 63.7817 80.3755 63.3502 77.417 66.5215Z" fill="#002A5B"/>
<path fill-rule="evenodd" clip-rule="evenodd" d="M72.8822 82.1514C71.819 76.5736 70.9822 72.4457 70.3055 69.4525C69.791 67.167 71.1674 68.0803 71.9082 69.5096L72.8822 82.1514Z" fill="#E21836"/>
<path fill-rule="evenodd" clip-rule="evenodd" d="M76.8945 82.1514C77.9577 76.5736 78.7945 72.4457 79.4713 69.4525C79.9857 67.167 78.6093 68.0803 77.8685 69.5096L76.8945 82.1514Z" fill="#E21836"/>
<path fill-rule="evenodd" clip-rule="evenodd" d="M71.2022 63.2573C70.9941 63.2002 70.8684 62.9833 70.9301 62.771C70.953 62.6911 71.0033 62.6271 71.065 62.5746C70.9255 62.4194 70.7632 62.2618 70.5666 62.1226C70.5666 62.1226 70.2213 63.7367 71.664 63.5632C71.664 63.5632 71.6137 63.4194 71.5063 63.2139C71.4171 63.2664 71.3096 63.2847 71.2022 63.2573Z" fill="#E21836"/>
<path fill-rule="evenodd" clip-rule="evenodd" d="M79.2077 62.1226C79.011 62.2618 78.8487 62.4194 78.7092 62.5746C78.7732 62.6271 78.8235 62.6911 78.8487 62.7733C78.9059 62.9833 78.7801 63.2002 78.572 63.2573C78.4646 63.2847 78.3571 63.2687 78.2702 63.2162C78.1628 63.4171 78.1125 63.5632 78.1125 63.5632C79.5552 63.7367 79.2077 62.1226 79.2077 62.1226Z" fill="#E21836"/>
<path fill-rule="evenodd" clip-rule="evenodd" d="M75.5639 84.2206C76.0211 75.6039 76.7093 69.4988 76.7093 68.7362C76.7093 68.4668 76.6796 68.1152 76.5653 67.7316L76.0646 69.3709L75.9091 66.4736C75.6576 66.1494 75.3147 65.8252 74.8803 65.5146H74.8528C74.4207 65.8252 74.1166 66.1494 73.8628 66.4736L73.7142 69.3709L73.2089 67.7293C73.0969 68.1152 73.0649 68.4668 73.0649 68.7362C73.0649 69.4988 73.7508 75.6039 74.2081 84.2206C74.6676 92.8395 73.5976 94.4422 73.5976 94.4422C74.2172 95.3372 74.8871 96.9309 74.8871 96.9309C74.8871 96.9309 75.557 95.3372 76.1766 94.4422C76.1766 94.4422 75.1066 92.8395 75.5639 84.2206Z" fill="#E21836"/>
<path fill-rule="evenodd" clip-rule="evenodd" d="M146.313 64.8292C127.258 53.7445 99.2638 48.1051 86.3276 47.8859C84.7683 47.8608 83.7074 48.2398 83.1633 49.2535C82.2624 50.9431 83.5337 52.829 84.0755 53.6418C85.2484 55.3861 86.8009 58.1168 86.8009 61.3999C86.8009 67.7677 81.6451 72.4778 75.2959 72.4778C75.1587 72.4778 75.0238 72.4801 74.8889 72.4801C74.7517 72.4801 74.6168 72.4778 74.4797 72.4778C68.1327 72.4778 62.9747 67.7677 62.977 61.3999C62.977 58.1168 64.5294 55.3861 65.7 53.6418C66.2419 52.829 67.5154 50.9431 66.6123 49.2535C66.0704 48.2398 65.0095 47.8608 63.448 47.8859C50.5117 48.1051 22.5198 53.7445 3.46292 64.8292C3.47893 64.8772 6.5175 70.0691 12.5832 69.6262C11.6481 70.0805 10.7153 70.5463 9.787 71.0257C9.80301 71.0828 12.5695 75.6286 19.2503 74.971C18.1368 75.4961 17.0302 76.0304 15.9259 76.5852C15.9396 76.6469 19.1314 81.115 26.1688 80.9986C24.5478 81.8182 23.5669 82.3388 23.5738 82.3365C23.5783 82.3707 28.2242 86.8594 35.7349 85.6242C34.9233 86.2156 34.1048 86.8434 33.1353 87.5192C33.1376 87.5307 38.6523 90.5399 45.141 89.6038C44.3042 90.2362 43.4674 90.8755 42.6329 91.5216C42.6169 91.4372 52.5694 94.2432 59.648 91.1312C65.7389 88.4508 69.1227 81.8844 69.8955 80.2314C71.0981 80.4963 72.1476 80.6492 72.9478 80.7428C72.9455 80.8296 74.2373 80.9415 74.8889 80.9141C75.5382 80.9415 76.8323 80.8296 76.83 80.7428C77.628 80.6492 78.6797 80.4963 79.8801 80.2314C80.6506 81.8844 84.0367 88.4508 90.1275 91.1312C97.2061 94.2432 107.156 91.4372 107.143 91.5216C106.31 90.8755 105.474 90.2362 104.635 89.6038C111.123 90.5399 116.638 87.5307 116.638 87.5192C115.673 86.8434 114.852 86.2156 114.041 85.6242C121.551 86.8594 126.197 82.3707 126.202 82.3365C126.209 82.3388 125.228 81.8182 123.607 80.9986C130.644 81.115 133.836 76.6469 133.85 76.5852C132.748 76.0304 131.639 75.4961 130.528 74.971C137.206 75.6286 139.973 71.0828 139.986 71.0257C139.058 70.5463 138.127 70.0805 137.192 69.6262C143.258 70.0691 146.297 64.8772 146.313 64.8292Z" fill="#002A5B"/>
<path fill-rule="evenodd" clip-rule="evenodd" d="M69.4046 76.8784C69.4046 76.8784 52.3758 71.1865 59.7745 53.0765C59.7745 53.0765 41.7716 53.8231 17.0926 63.7662C17.0926 63.7662 15.3618 64.4854 14.3536 64.8462C13.343 65.2069 11.7197 65.8508 9.39215 64.7366C9.39215 64.7366 31.9631 52.9532 60.9634 50.2203C64.7862 49.8595 65.2915 50.4372 64.2809 51.8778C63.4532 53.0582 53.0983 66.2161 69.4046 76.8784Z" fill="#FEFEFE"/>
<path fill-rule="evenodd" clip-rule="evenodd" d="M54.2764 58.2051C39.6849 60.1001 25.4157 65.1756 25.4157 65.1756C27.8461 69.4907 34.4354 67.6802 34.4354 67.6802C46.7978 64.1847 52.3147 62.9997 54.0844 62.6572C54.0158 61.2828 54.073 59.7987 54.2764 58.2051Z" fill="#B49759"/>
<path fill-rule="evenodd" clip-rule="evenodd" d="M54.3848 65.2998C51.9475 65.7701 41.7321 67.8638 31.4274 71.72C31.4274 71.72 34.6763 75.4142 41.1216 73.5877C46.5426 72.0534 53.4931 69.8387 55.5669 69.1743C55.0479 68.0076 54.6432 66.7176 54.3848 65.2998Z" fill="#B49759"/>
<path fill-rule="evenodd" clip-rule="evenodd" d="M56.6488 71.2173C54.447 71.9273 43.4382 75.4891 38.79 77.2699C38.79 77.2699 41.4559 80.8408 49.1541 77.8156C54.5156 75.7083 57.4696 74.4776 58.7728 73.9205C57.9977 73.1192 57.2798 72.2196 56.6488 71.2173Z" fill="#B49759"/>
<path fill-rule="evenodd" clip-rule="evenodd" d="M60.4725 75.4736C58.5497 76.307 51.4048 79.4235 47.2733 81.4121C47.2733 81.4121 52.4725 83.9647 59.0138 79.9281L63.0812 77.2636C62.1964 76.7476 61.3162 76.154 60.4725 75.4736Z" fill="#B49759"/>
<path fill-rule="evenodd" clip-rule="evenodd" d="M65.0596 78.3008C63.7518 79.1159 58.3331 82.5201 55.6878 84.4722C55.6878 84.4722 60.1782 86.3261 64.7852 81.9927C66.2851 80.5839 67.1036 79.7848 67.554 79.3282C66.7607 79.0428 65.9216 78.7049 65.0596 78.3008Z" fill="#B49759"/>
<path fill-rule="evenodd" clip-rule="evenodd" d="M80.3721 76.8784C80.3721 76.8784 97.4009 71.1865 90.0022 53.0765C90.0022 53.0765 108.005 53.8231 132.682 63.7662C132.682 63.7662 134.413 64.4854 135.423 64.8462C136.434 65.2069 138.057 65.8508 140.382 64.7366C140.382 64.7366 117.811 52.9532 88.8133 50.2203C84.9882 49.8595 84.4852 50.4372 85.4935 51.8778C86.3235 53.0582 96.6784 66.2161 80.3721 76.8784Z" fill="#FEFEFE"/>
<path fill-rule="evenodd" clip-rule="evenodd" d="M95.4991 58.2051C110.091 60.1001 124.36 65.1756 124.36 65.1756C121.932 69.4907 115.34 67.6802 115.34 67.6802C102.978 64.1847 97.4631 62.9997 95.6935 62.6572C95.762 61.2828 95.7026 59.7987 95.4991 58.2051Z" fill="#B49759"/>
<path fill-rule="evenodd" clip-rule="evenodd" d="M95.3919 65.2998C97.8269 65.7701 108.042 67.8638 118.349 71.72C118.349 71.72 115.098 75.4142 108.655 73.5877C103.234 72.0534 96.2836 69.8387 94.2098 69.1743C94.7266 68.0076 95.1312 66.7176 95.3919 65.2998Z" fill="#B49759"/>
<path fill-rule="evenodd" clip-rule="evenodd" d="M93.1279 71.2173C95.3274 71.9273 106.339 75.4891 110.984 77.2699C110.984 77.2699 108.321 80.8408 100.623 77.8156C95.2611 75.7083 92.3071 74.4776 91.0039 73.9205C91.779 73.1192 92.4969 72.2196 93.1279 71.2173Z" fill="#B49759"/>
<path fill-rule="evenodd" clip-rule="evenodd" d="M89.3042 75.4736C91.2271 76.307 98.3719 79.4235 102.503 81.4121C102.503 81.4121 97.3042 83.9647 90.7606 79.9281L86.6955 77.2636C87.5803 76.7476 88.4583 76.154 89.3042 75.4736Z" fill="#B49759"/>
<path fill-rule="evenodd" clip-rule="evenodd" d="M84.7171 78.3008C86.0249 79.1159 91.4436 82.5201 94.0889 84.4722C94.0889 84.4722 89.5962 86.3261 84.9869 81.9927C83.4916 80.5839 82.6731 79.7848 82.2227 79.3282C83.016 79.0428 83.8551 78.7049 84.7171 78.3008Z" fill="#B49759"/>
<path fill-rule="evenodd" clip-rule="evenodd" d="M88.8321 86.7644C88.8321 94.4587 82.5903 100.694 74.8876 100.694C67.1848 100.694 60.943 94.4587 60.943 86.7644C60.943 79.0747 67.1848 72.8372 74.8876 72.8372C82.5903 72.8372 88.8321 79.0747 88.8321 86.7644Z" fill="#FEFEFE"/>
<path fill-rule="evenodd" clip-rule="evenodd" d="M85.9474 89.6454C85.9474 95.7506 80.9951 100.694 74.8882 100.694C68.7791 100.694 63.8291 95.7506 63.8291 89.6454C63.8291 83.5471 68.7791 78.6018 74.8882 78.6018C80.9951 78.6018 85.9474 83.5471 85.9474 89.6454Z" fill="#B49759"/>
<path fill-rule="evenodd" clip-rule="evenodd" d="M82.2275 97.3042C81.6673 96.8659 80.8717 96.0896 80.7299 95.1307C80.7162 95.0462 80.7093 94.9617 80.6979 94.875C83.533 93.6877 85.9268 91.642 87.5456 89.0209C86.9351 92.4388 84.9711 95.3909 82.2275 97.3042ZM62.2287 89.0095C63.8474 91.6374 66.2412 93.6854 69.0809 94.875C69.0695 94.9617 69.0626 95.0462 69.0489 95.1329C68.9048 96.0942 68.1115 96.8681 67.5513 97.3042C64.8031 95.3909 62.8368 92.4343 62.2287 89.0095ZM65.1918 78.3426C64.6179 81.5139 65.9349 84.5026 67.1421 87.2355C67.9812 89.1397 68.7859 90.9662 69.0443 92.8155C65.7245 91.1603 63.2026 88.1305 62.263 84.3336C62.6996 82.0687 63.7331 80.0139 65.1918 78.3426ZM78.7979 93.569C77.8422 93.8749 76.8431 94.0758 75.8165 94.1512V73.959C77.8788 74.1074 79.8062 74.7398 81.4867 75.7467C84.0383 79.4271 82.6002 82.7126 80.9334 86.4866C79.9343 88.7515 78.91 91.0803 78.7979 93.569ZM75.8165 96.0074C76.882 95.9435 77.9154 95.7722 78.91 95.5005C79.118 96.6946 79.8565 97.6444 80.5424 98.2951C79.0974 99.0075 77.5016 99.4527 75.8165 99.5737V96.0074ZM70.8688 95.5005C71.8634 95.7722 72.8968 95.9435 73.9577 96.0074V99.5737C72.2749 99.4527 70.6791 99.0075 69.2341 98.2951C69.9223 97.6444 70.6608 96.6946 70.8688 95.5005ZM68.2921 75.7467C69.9703 74.7398 71.9 74.1074 73.9577 73.959V94.1512C72.9311 94.0804 71.9343 93.8863 70.9809 93.5918C70.8757 91.094 69.8468 88.7607 68.8431 86.4866C67.1741 82.7126 65.7382 79.4271 68.2921 75.7467ZM87.5158 84.345C86.5876 88.062 84.0383 91.0963 80.7391 92.7722C81.0043 90.9365 81.8022 89.1237 82.6344 87.2355C83.8416 84.5003 85.1586 81.5116 84.5824 78.3426C86.0457 80.0185 87.0791 82.0756 87.5158 84.345ZM74.8882 71.7534C66.6025 71.7534 59.86 78.4887 59.86 86.7652C59.86 95.0416 66.6025 101.775 74.8882 101.775C83.1763 101.775 89.9188 95.0416 89.9188 86.7652C89.9188 78.4887 83.1763 71.7534 74.8882 71.7534Z" fill="#002A5B"/>
<path fill-rule="evenodd" clip-rule="evenodd" d="M79.3528 52.2696C79.3528 52.2696 79.2408 52.7422 78.9527 52.7422C78.6646 52.7422 76.8607 51.8769 75.9942 51.4065C75.6238 51.2079 75.1048 50.9065 74.9241 50.8015C74.9241 50.8015 74.1513 51.2079 73.781 51.4065C72.9144 51.8769 71.1128 52.7422 70.8224 52.7422C70.5343 52.7422 70.4223 52.2696 70.4223 52.2696C70.4223 52.2696 65.6872 55.1235 65.6872 63.0096C65.6872 68.8795 68.7464 71.544 68.7464 71.544L69.1625 73.2038H74.3708H75.4043H80.6103L81.0264 71.544C81.0264 71.544 84.0879 68.8795 84.0879 63.0096C84.0879 55.1235 79.3528 52.2696 79.3528 52.2696Z" fill="#002A5B"/>
<path fill-rule="evenodd" clip-rule="evenodd" d="M81.609 61.0166C81.609 58.5804 80.6167 56.5941 79.5467 55.4114C79.5467 55.4114 79.5101 56.1101 78.3441 55.3315C77.3381 54.6397 76.1537 54.2356 74.8825 54.2356C73.6045 54.2356 72.4178 54.642 71.4095 55.3361C70.2847 56.1009 70.2298 55.4114 70.2298 55.4114C69.1621 56.5941 68.1675 58.5804 68.1675 61.0166C68.1675 63.0417 68.6636 64.0372 68.8374 64.3226C69.8411 66.9003 72.1686 68.7085 74.8825 68.7085C77.5621 68.7085 79.8668 66.9391 80.8911 64.4025C80.9505 64.3203 81.609 63.35 81.609 61.0166Z" fill="#FEFEFE"/>
<path fill-rule="evenodd" clip-rule="evenodd" d="M77.417 66.5215C77.4101 66.5078 77.3987 66.4941 77.3918 66.4804C77.3918 66.4804 76.7265 65.2338 77.8217 64.3707C77.8217 64.3707 80.3001 64.8867 80.3595 61.6058C80.3595 61.6058 80.3001 61.2565 80.6476 60.5693C80.6476 60.5693 80.012 59.9916 78.6287 61.0305C77.2432 62.0625 76.4956 65.0009 75.7456 64.3114C75.0049 63.6264 75.2769 59.8021 74.8905 59.656H74.8768C74.495 59.8044 74.7671 63.6264 74.024 64.3114C73.2764 65.0009 72.5242 62.0625 71.1409 61.0305C69.7554 59.9916 69.1243 60.5693 69.1243 60.5693C69.4696 61.2565 69.4101 61.6058 69.4101 61.6058C69.4696 64.8867 71.948 64.3707 71.948 64.3707C73.0454 65.2338 72.3824 66.4849 72.3824 66.4849C72.3755 66.4986 72.3664 66.5123 72.3595 66.5237C69.401 63.3502 67.6816 63.7817 68.5299 67.3365C69.3644 70.8298 72.5653 85.821 73.0729 89.2982C73.0043 92.4262 72.6408 93.5426 72.547 93.7824L72.2224 94.4285L72.579 95.1385C73.1438 95.9582 73.5324 96.8738 73.6719 97.2231L74.8928 100.319L76.1023 97.2299C76.2464 96.8737 76.6373 95.9582 77.1975 95.1385L77.5702 94.4627L77.2341 93.7846C77.138 93.5495 76.7859 92.4741 76.7059 89.4581C77.1266 86.3415 80.3984 70.8891 81.2466 67.3365C82.0926 63.7817 80.3755 63.3502 77.417 66.5215Z" fill="#002A5B"/>
<path fill-rule="evenodd" clip-rule="evenodd" d="M72.8822 82.1514C71.819 76.5736 70.9822 72.4457 70.3055 69.4525C69.791 67.167 71.1674 68.0803 71.9082 69.5096L72.8822 82.1514Z" fill="#E21836"/>
<path fill-rule="evenodd" clip-rule="evenodd" d="M76.8945 82.1514C77.9577 76.5736 78.7945 72.4457 79.4713 69.4525C79.9857 67.167 78.6093 68.0803 77.8685 69.5096L76.8945 82.1514Z" fill="#E21836"/>
<path fill-rule="evenodd" clip-rule="evenodd" d="M71.2022 63.2573C70.9941 63.2002 70.8684 62.9833 70.9301 62.771C70.953 62.6911 71.0033 62.6271 71.065 62.5746C70.9255 62.4194 70.7632 62.2618 70.5666 62.1226C70.5666 62.1226 70.2213 63.7367 71.664 63.5632C71.664 63.5632 71.6137 63.4194 71.5063 63.2139C71.4171 63.2664 71.3096 63.2847 71.2022 63.2573Z" fill="#E21836"/>
<path fill-rule="evenodd" clip-rule="evenodd" d="M79.2077 62.1226C79.011 62.2618 78.8487 62.4194 78.7092 62.5746C78.7732 62.6271 78.8235 62.6911 78.8487 62.7733C78.9059 62.9833 78.7801 63.2002 78.572 63.2573C78.4646 63.2847 78.3571 63.2687 78.2702 63.2162C78.1628 63.4171 78.1125 63.5632 78.1125 63.5632C79.5552 63.7367 79.2077 62.1226 79.2077 62.1226Z" fill="#E21836"/>
<path fill-rule="evenodd" clip-rule="evenodd" d="M75.5639 84.2206C76.0211 75.6039 76.7093 69.4988 76.7093 68.7362C76.7093 68.4668 76.6796 68.1152 76.5653 67.7316L76.0646 69.3709L75.9091 66.4736C75.6576 66.1494 75.3147 65.8252 74.8803 65.5146H74.8528C74.4207 65.8252 74.1166 66.1494 73.8628 66.4736L73.7142 69.3709L73.2089 67.7293C73.0969 68.1152 73.0649 68.4668 73.0649 68.7362C73.0649 69.4988 73.7508 75.6039 74.2081 84.2206C74.6676 92.8395 73.5976 94.4422 73.5976 94.4422C74.2172 95.3372 74.8871 96.9309 74.8871 96.9309C74.8871 96.9309 75.557 95.3372 76.1766 94.4422C76.1766 94.4422 75.1066 92.8395 75.5639 84.2206Z" fill="#E21836"/>
</g>
<defs>
<clipPath id="clip0_429_2558">
<rect width="150" height="150" fill="white"/>
</clipPath>
</defs>
</svg>
