<svg width="150" height="150" viewBox="0 0 150 150" fill="none" xmlns="http://www.w3.org/2000/svg">
<g clip-path="url(#clip0_429_2642)">
<path fill-rule="evenodd" clip-rule="evenodd" d="M74.2805 124.799L66.1314 114.217C55.7618 110.799 48.545 101.432 47.8776 90.5339L42.8213 83.9711C38.0144 86.0428 33.1997 89.3242 33.1997 89.3242L18.0362 74.1114L24.4273 60.1058L13.0008 45.2695H31.1819L34.7007 37.606L43.7043 33.9742L44.7015 31.2613L51.9989 34.592L53.7336 28.5303L54.923 28.1357C60.696 26.212 67.3441 25.1788 74.1533 25.1399C74.3481 25.1269 76.5113 25.1658 76.5633 25.1658C76.8178 25.1658 77.8799 25.2229 77.8799 25.2229C83.6373 25.5007 89.0493 26.4586 93.9627 28.0734L95.1703 28.4706L96.7648 34.2493L99.3929 32.266L114.138 37.5074L117.699 45.2721H135.971L124.419 60.1681L130.714 73.9712L115.315 89.8226C115.315 89.8226 109.669 85.7053 105.797 84.171L101.156 90.1549C100.626 101.313 93.033 111.1 82.357 114.384L74.2805 124.799Z" fill="#FEFEFE"/>
<path fill-rule="evenodd" clip-rule="evenodd" d="M74.2943 117.467L126.828 49.757L22.109 49.7544L74.2943 117.467Z" fill="#B3B1B1"/>
<path fill-rule="evenodd" clip-rule="evenodd" d="M126.828 49.7558L74.2943 117.465L22.109 49.7532L126.828 49.7558ZM17.7929 47.6296L74.2891 120.936L131.162 47.6322L17.7929 47.6296Z" fill="#0F4B90"/>
<path fill-rule="evenodd" clip-rule="evenodd" d="M119.243 54.466L119.225 54.4218L119.184 54.3959L115.823 52.1373L117.075 49.7464L117.111 49.6737L117.077 49.5984L112.452 39.4609L112.421 39.3986L112.356 39.3752L99.8858 34.936L99.7975 34.9049L99.7247 34.9594L96.4189 37.4827L96.3825 37.5113L96.3643 37.5528L95.7982 38.9391C95.7982 38.9391 90.6277 37.6411 83.0343 36.883C82.2604 36.8052 80.1932 36.6364 76.8951 36.3768L76.5757 36.3508L76.2433 36.3275L76.1654 36.3197L76.1109 36.3742L73.6464 38.8301L73.649 36.3093C73.649 36.3093 66.658 36.7039 62.0796 37.327C57.5013 37.9474 53.0008 39.0819 53.0008 39.0819L52.1724 37.3088L52.1464 37.2543L52.0893 37.2257L46.2046 34.5336L46.0384 34.4609L45.9761 34.6297L45.2931 36.4936L45.1373 36.1198L45.0723 35.9666L44.9191 36.0289L36.4973 39.4038L36.435 39.4297L36.4064 39.492L20.8716 73.6091L33.6251 86.379L34.2198 86.0389C34.6041 85.8208 35.1495 85.5015 35.7624 85.1381C37.3049 84.2295 39.4188 82.986 40.429 82.4979L40.6342 82.3993C41.9404 81.7684 42.5975 81.4491 48.7963 78.7986L49.3131 78.6039C49.3209 78.6039 50.0117 78.3339 51.2868 77.9107C54.6914 76.7814 63.5365 74.1491 72.109 74.1491H72.2051C72.5479 74.1491 72.8881 74.1543 73.2309 74.1646C79.0532 74.3256 85.8571 75.5613 90.5394 76.5686C95.0477 77.5395 98.4367 78.4741 99.4001 78.744L100.049 78.9439C104.314 80.5924 109.526 83.3105 114.356 86.4023L114.969 86.7969L127.878 73.5053L119.243 54.466Z" fill="#0F4B90"/>
<path fill-rule="evenodd" clip-rule="evenodd" d="M117.856 55.6484L105.448 47.3697L103.29 41.3131L107.133 42.6786L108.686 46.4637L114.526 48.3354L111.119 40.8069L100.095 36.8921L98.0723 38.4575L101.737 50.3629L113.534 58.6988L116.56 66.2324L111.654 64.0206L109.969 59.3322L103.949 57.5591L107.167 68.1561C108.159 68.5221 109.146 68.8986 110.122 69.2932C112.8 70.3783 115.425 71.5777 117.988 72.8913C119.764 73.7973 121.512 74.763 123.229 75.7781L125.795 73.1457L117.856 55.6484Z" fill="#F26729"/>
<path fill-rule="evenodd" clip-rule="evenodd" d="M34.1759 61.2617L38.3102 57.5701L39.297 58.7202L35.2147 70.4568C37.4454 69.4729 39.7177 68.5721 42.0264 67.757L44.9843 58.079L42.4315 53.863L47.7189 48.8397L50.8092 38.5464L47.0125 36.8408L43.6001 46.5448L38.131 51.2514L43.1171 38.6736L37.7571 40.8102L22.9883 73.1982L25.2996 75.5139C26.6708 74.7169 28.0601 73.9485 29.4677 73.2164L34.1759 61.2617Z" fill="#F26729"/>
<path fill-rule="evenodd" clip-rule="evenodd" d="M71.6 38.166L67.071 38.4049L64.9415 62.6985C66.8658 62.5168 68.8057 62.3922 70.7586 62.3247L71.6 38.166Z" fill="#F26729"/>
<path fill-rule="evenodd" clip-rule="evenodd" d="M85.0378 57.6562L79.779 57.3421L78.935 42.4642L83.3913 42.6797L82.8694 38.5805L76.8783 38.1548L74.1956 40.8287L74.1904 59.4371L77.0029 62.3161C79.9063 62.4043 82.7811 62.6224 85.6195 62.9651L85.0378 57.6562Z" fill="#F26729"/>
<path fill-rule="evenodd" clip-rule="evenodd" d="M55.2396 47.7552L57.138 56.9919L55.9096 63.9908C57.7482 63.6377 59.5998 63.334 61.4696 63.0874L61.4826 63.0848L64.4094 38.7236L60.2049 39.3363L58.8234 47.3113L57.26 39.8036L52.3155 41.0419L45.4362 66.6206C47.4202 66.0001 49.4277 65.4446 51.4585 64.9539L55.2396 47.7552Z" fill="#F26729"/>
<path fill-rule="evenodd" clip-rule="evenodd" d="M91.7888 56.312L93.2691 54.3131L95.4297 56.094L97.4189 65.1515C99.5069 65.6759 101.571 66.2678 103.607 66.9272L99.8964 53.6407L96.0685 50.5125L98.2474 47.6075L96.4373 40.863L91.8174 39.835L93.6352 46.6262L90.7578 50.471L88.6335 39.3028L84.3564 38.7603C84.3564 38.7603 86.5014 55.1412 87.5143 63.2097C89.4516 63.4849 91.3707 63.8197 93.2717 64.2066L91.7888 56.312Z" fill="#F26729"/>
<path fill-rule="evenodd" clip-rule="evenodd" d="M65.606 67.3124C65.606 67.3124 67.3875 66.2688 70.9531 65.8742L70.8388 63.0679C68.8833 63.1328 66.9408 63.2548 65.0139 63.4365C65.1827 64.5346 65.4346 66.1701 65.606 67.3124Z" fill="#B3B1B1"/>
<path fill-rule="evenodd" clip-rule="evenodd" d="M76.9359 65.704C78.385 65.8728 79.9354 66.3479 81.2988 66.7321C82.5297 67.028 83.8567 67.5576 84.9422 68.0405L85.5421 63.7181C82.6751 63.365 79.9665 63.1521 77.0346 63.0613C76.993 63.8998 76.9904 65.0836 76.9359 65.704Z" fill="#B3B1B1"/>
<path fill-rule="evenodd" clip-rule="evenodd" d="M58.1772 72.5531C59.8367 71.32 60.8339 70.0505 62.5816 68.9861C62.2492 67.4181 61.8077 65.3854 61.4857 63.833C59.5848 64.0848 57.702 64.3989 55.8374 64.7598C56.5516 67.0858 57.4631 70.2037 58.1772 72.5531Z" fill="#B3B1B1"/>
<path fill-rule="evenodd" clip-rule="evenodd" d="M86.3895 68.9105C88.0074 69.8477 89.2695 70.9069 90.716 72.3113L91.0017 72.5294L93.2818 64.9879C91.3185 64.5804 89.4098 64.2273 87.4049 63.9443L86.3895 68.9105Z" fill="#B3B1B1"/>
<path fill-rule="evenodd" clip-rule="evenodd" d="M93.584 75.4632L99.0194 76.7431L103.593 67.7037C101.484 67.0157 99.4505 66.4498 97.2873 65.9072L93.584 75.4632Z" fill="#B3B1B1"/>
<path fill-rule="evenodd" clip-rule="evenodd" d="M49.8577 76.742C51.2756 76.2202 53.2571 75.5037 55.1061 75.0104L51.5769 65.6829C49.4448 66.1995 47.5854 66.742 45.5079 67.3988C46.8219 70.5245 48.2944 73.7435 49.8577 76.742Z" fill="#B3B1B1"/>
<path fill-rule="evenodd" clip-rule="evenodd" d="M41.6595 80.0994C41.9737 79.8294 45.0588 78.4976 47.1701 77.6046C45.5652 74.7022 43.6357 71.4987 42.0256 68.5444C39.7247 69.3648 37.629 70.2163 35.4035 71.2054L41.6595 80.0994Z" fill="#B3B1B1"/>
<path fill-rule="evenodd" clip-rule="evenodd" d="M33.9624 84.1806C34.9441 83.5913 35.9854 82.9864 37.1307 82.3244L29.919 73.8198C28.5478 74.5311 27.1948 75.2762 25.86 76.0498L33.9624 84.1806Z" fill="#B3B1B1"/>
<path fill-rule="evenodd" clip-rule="evenodd" d="M101.897 77.8605C106.226 79.5402 112.28 82.9332 114.687 84.5479C115.799 83.4861 121.821 77.1648 122.649 76.2977C117.643 73.3616 112.381 70.8642 106.907 68.8523L101.897 77.8605Z" fill="#B3B1B1"/>
<path fill-rule="evenodd" clip-rule="evenodd" d="M76.1033 65.5627L74.0362 65.49L73.9998 60.4692L76.1501 62.6992L76.1033 65.5627Z" fill="#B3B1B1"/>
<path fill-rule="evenodd" clip-rule="evenodd" d="M74.5078 64.5686C61.0713 64.5686 50.1823 75.4564 50.1797 88.8882C50.1823 102.318 61.0713 113.205 74.5078 113.205C87.9417 113.205 98.8358 102.318 98.8358 88.8882C98.8358 75.4564 87.9417 64.5686 74.5078 64.5686Z" fill="#0F4B90"/>
<path fill-rule="evenodd" clip-rule="evenodd" d="M76.0036 66.3889C74.1364 67.0405 72.3393 67.9881 70.5578 68.8136C69.3425 68.0867 68.6465 67.9024 67.8259 67.3728C70.3838 66.4434 73.1366 66.3032 76.0036 66.3889Z" fill="#F26729"/>
<path fill-rule="evenodd" clip-rule="evenodd" d="M93.4308 76.7135C87.6994 70.9399 79.101 71.3579 71.8062 69.3148C71.8062 69.3148 76.0989 67.2717 78.3141 66.7058C84.2741 67.7209 90.0444 71.2878 93.4308 76.7135Z" fill="#F26729"/>
<path fill-rule="evenodd" clip-rule="evenodd" d="M61.2092 77.5811C55.7037 86.026 54.9583 96.4309 59.342 105.548C53.6755 100.79 50.2994 91.5764 52.8418 82.6304C54.9246 79.7203 57.6046 77.1476 61.2092 77.5811Z" fill="#F26729"/>
<path fill-rule="evenodd" clip-rule="evenodd" d="M67.1039 83.5947C70.0722 92.416 70.7293 102.18 78.4136 111.063C72.4225 112.278 66.4859 110.484 61.7543 107.486C55.8904 98.9346 56.4435 86.1777 62.3048 77.886C65.1614 78.7089 66.717 82.442 67.1039 83.5947Z" fill="#F26729"/>
<path fill-rule="evenodd" clip-rule="evenodd" d="M62.9852 76.9545C63.8759 75.6981 64.881 74.5117 66.0106 73.4058C78.4733 76.9234 90.3568 89.8412 92.3928 102.536C91.7981 103.494 90.375 104.831 89.4194 105.786C86.3212 108.569 82.9088 110.01 79.6341 110.791C73.8144 104.755 71.8979 96.9206 69.8411 89.1974C68.2648 83.2707 67.1689 78.8003 62.9904 76.9857L62.9852 76.9545Z" fill="#F26729"/>
<path fill-rule="evenodd" clip-rule="evenodd" d="M92.1035 76.8986C86.0839 71.5898 77.6984 72.2699 70.6633 69.7959C69.3051 70.6292 67.9755 71.6131 66.8406 72.6308C79.3033 76.5378 90.6129 88.7184 93.3059 101.307C95.2588 98.4846 96.4404 95.2085 96.9157 91.7324C97.2195 86.3949 97.1676 81.5378 92.1035 76.8986Z" fill="#F26729"/>
<path fill-rule="evenodd" clip-rule="evenodd" d="M64.9835 73.0165C63.7812 74.1718 62.88 75.3088 61.9425 76.6354L61.914 76.6276C58.6159 75.8903 56.0137 77.5959 53.9232 79.7221C54.9204 77.2039 57.011 74.2159 59.2236 72.2637C61.2647 72.3519 62.7502 72.3208 64.9835 73.0165Z" fill="#F26729"/>
<path fill-rule="evenodd" clip-rule="evenodd" d="M65.8673 72.244C67.0463 71.1952 68.1889 70.2788 69.6069 69.4273L66.41 67.8438C64.2832 68.7134 62.0056 69.8453 60.4423 71.2757C62.86 71.5587 63.8936 71.7066 65.8673 72.244Z" fill="#F26729"/>
<path fill-rule="evenodd" clip-rule="evenodd" d="M71.0619 34.757L70.0777 35.7357L68.3923 35.8369L67.7638 35.2918L66.9717 35.9642L65.1357 36.1355L64.3281 35.3671L65.3876 28.1813L66.777 27.9917L66.0265 34.3364L67.0237 34.2274L67.7976 27.8697L69.1713 27.7347L68.5974 34.0483L69.5739 33.9574L70.0751 27.675C70.6594 27.6127 70.9606 27.6179 71.4722 27.5894L71.0619 34.757Z" fill="#0F4B90"/>
<path fill-rule="evenodd" clip-rule="evenodd" d="M75.5697 27.4919L75.5826 32.0142L76.4682 32.009L76.4137 27.5126C76.4137 27.5126 77.346 27.5412 77.7641 27.5775L77.9433 32.6476L77.0889 33.5017L76.8084 33.5147L76.85 35.6849L75.3411 35.6408L75.323 33.4679L75.0217 33.4446L74.1076 32.5126L74.1647 27.4685C74.6529 27.4685 75.5697 27.4919 75.5697 27.4919Z" fill="#0F4B90"/>
<path fill-rule="evenodd" clip-rule="evenodd" d="M64.3764 28.3298L64.1401 29.8148L62.4598 30.1315L62.156 31.8682C62.7715 31.7566 63.148 31.6969 63.8804 31.5982C63.7791 32.2446 63.7479 32.4679 63.6363 33.078L61.9482 33.3194L61.6314 34.9809L63.361 34.7316C63.361 34.7316 63.1896 35.8505 63.1013 36.349C61.8911 36.4995 60.6732 36.6735 59.5123 36.876C59.5123 36.876 60.8134 30.848 61.1354 28.9892L64.3764 28.3298Z" fill="#0F4B90"/>
<path fill-rule="evenodd" clip-rule="evenodd" d="M58.0419 37.1418L56.289 37.4871L57.0941 34.2005L56.5487 33.0219L55.1723 37.7519L53.461 38.1413C54.1725 35.5816 54.9022 33.0193 55.6138 30.4596C56.2033 30.2623 56.6422 30.1273 57.1616 29.9742C57.3512 30.4051 57.8134 31.2748 57.8134 31.2748L58.2289 29.6704C58.2289 29.6704 59.3144 29.3849 59.8598 29.2603L58.0419 37.1418Z" fill="#0F4B90"/>
<path fill-rule="evenodd" clip-rule="evenodd" d="M80.3735 29.2325L80.8123 34.139L81.6823 34.209L81.2201 29.3259L80.3735 29.2325ZM82.6821 28.8846C82.8561 30.9432 83.1963 32.9136 83.4041 34.8347L82.638 36.0029L80.1605 35.8394L79.2672 34.8658C79.1088 32.7657 78.9997 30.6473 78.8698 28.5393C79.0984 28.2382 79.4464 28.0045 79.719 27.7112L81.7836 27.9111L82.6821 28.8846Z" fill="#0F4B90"/>
<path fill-rule="evenodd" clip-rule="evenodd" d="M90.6867 29.6204C90.9957 30.799 91.5982 33.2289 91.5982 33.2289L92.1851 33.3483L92.4707 32.9563L91.7358 29.9371C91.7358 29.9371 92.463 30.1396 93.242 30.3758L94.0211 33.299L93.6549 33.826L94.3353 34.5736L95.3637 38.1354L93.6705 37.7564L93.0057 35.259L91.9514 35.0227L92.5279 37.5097L90.8113 37.1723C90.2114 34.4932 89.1259 29.218 89.1259 29.218C89.1259 29.218 89.9985 29.3997 90.6867 29.6204Z" fill="#0F4B90"/>
<path fill-rule="evenodd" clip-rule="evenodd" d="M85.6242 30.0105L85.9177 32.0562L86.85 32.16L86.4552 30.1611L85.6242 30.0105ZM88.0056 29.9067L88.5717 32.8454L88.2445 33.2971L88.821 33.9851L89.3196 36.903L87.6706 36.6148L87.2213 34.185L86.2293 34.0759L86.5799 36.4461L84.9334 36.2384L83.8401 28.1777L86.9876 28.7333L88.0056 29.9067Z" fill="#0F4B90"/>
</g>
<defs>
<clipPath id="clip0_429_2642">
<rect width="150" height="150" fill="white"/>
</clipPath>
</defs>
</svg>
