<svg width="150" height="150" viewBox="0 0 150 150" fill="none" xmlns="http://www.w3.org/2000/svg">
<g clip-path="url(#clip0_429_2709)">
<mask id="mask0_429_2709" style="mask-type:alpha" maskUnits="userSpaceOnUse" x="0" y="31" width="150" height="89">
<path d="M149.989 119.283H0V31.312H149.989V119.283Z" fill="white"/>
</mask>
<g mask="url(#mask0_429_2709)">
<path fill-rule="evenodd" clip-rule="evenodd" d="M80.5667 52.204V52.2071L80.5636 52.2102L80.5667 52.204ZM85.2363 74.4582V74.4551H85.2394C85.2363 74.4551 85.2363 74.4582 85.2363 74.4582ZM149.954 58.1642C149.948 58.1361 149.958 58.1081 149.951 58.08C149.933 58.0083 149.889 57.9522 149.864 57.8836C149.827 57.787 149.796 57.6904 149.743 57.6031C149.693 57.5252 149.631 57.4628 149.569 57.3942C149.501 57.3225 149.441 57.2477 149.361 57.1854C149.277 57.1261 149.187 57.0856 149.093 57.042C149.016 57.0046 148.941 56.9609 148.857 56.936C148.751 56.9079 148.642 56.9048 148.531 56.8986C148.456 56.8924 148.388 56.8643 148.31 56.8705C139.278 57.5969 129.992 58.9872 120.665 60.9479C121.206 59.4922 121.726 58.0146 122.22 56.5152C131.052 54.916 139.941 53.4758 148.655 52.2383C148.723 52.2289 148.776 52.1915 148.841 52.1728C148.935 52.1479 149.025 52.1229 149.109 52.0824C149.199 52.0356 149.277 51.9795 149.358 51.9203C149.432 51.8642 149.501 51.8112 149.563 51.7457C149.631 51.6709 149.684 51.5899 149.737 51.5026C149.783 51.4247 149.833 51.3498 149.867 51.2626C149.905 51.169 149.92 51.0693 149.939 50.9664C149.951 50.8978 149.986 50.8386 149.989 50.7669C149.989 50.7389 149.976 50.7108 149.976 50.6827C149.976 50.6547 149.989 50.6266 149.986 50.5955C149.982 50.5175 149.945 50.449 149.93 50.3741C149.911 50.2806 149.895 50.1871 149.861 50.0998C149.821 50.0063 149.762 49.9252 149.706 49.8411C149.656 49.7631 149.612 49.6883 149.547 49.6229C149.479 49.5481 149.392 49.4951 149.308 49.4358C149.233 49.3828 149.168 49.3267 149.084 49.2893C148.984 49.2426 148.879 49.2239 148.773 49.202C148.698 49.1833 148.633 49.1459 148.555 49.1397C140.808 48.5349 132.744 48.3884 124.561 48.6596C124.782 47.8304 124.999 46.9919 125.211 46.1409C125.385 45.4395 125.055 44.7101 124.415 44.3796C106.439 35.0964 92.1225 31.312 75.0049 31.312C57.8841 31.312 43.5676 35.0964 25.5826 44.3796C24.9422 44.7101 24.6126 45.4395 24.7836 46.1409L25.8717 50.5362C27.507 57.1293 29.7858 63.4293 32.5994 69.3708C21.2519 74.24 10.5199 79.8511 0.720666 86.0981C0.0522515 86.5251 -0.190243 87.3886 0.157954 88.1025C0.428429 88.648 0.978706 88.9722 1.55385 88.9722C1.73106 88.9722 1.91138 88.941 2.08548 88.8787C11.4371 85.4715 21.1773 82.2046 31.0356 79.1029C29.2293 82.9309 27.451 86.7777 25.7411 90.64L25.4645 91.2572C24.5193 93.3395 23.2229 96.1949 24.1432 98.5921C24.5784 99.7268 25.4303 100.575 26.9039 101.195C27.0842 101.242 27.2614 101.282 27.4417 101.313C20.5524 106.139 14.0641 111.242 8.06701 116.557C7.47321 117.084 7.37062 117.975 7.82763 118.624C8.12919 119.051 8.60796 119.285 9.09917 119.285C9.3541 119.285 9.61214 119.222 9.85153 119.088C23.4654 111.532 37.8535 104.188 52.6239 97.2517C58.8634 103.312 66.0948 108.823 74.2059 113.695C74.6971 113.988 75.3096 113.988 75.8039 113.695C94.9237 102.202 107.903 88.5202 116.506 70.758C127.365 66.8302 138.259 63.1861 148.891 59.9161C148.96 59.8943 149.009 59.8475 149.075 59.8195C149.159 59.7821 149.236 59.7447 149.311 59.6948C149.398 59.6324 149.469 59.5607 149.544 59.4859C149.603 59.4205 149.662 59.3612 149.712 59.2864C149.771 59.1991 149.808 59.1087 149.849 59.0121C149.883 58.9311 149.92 58.85 149.939 58.7596C149.961 58.6567 149.961 58.5539 149.964 58.4479C149.964 58.3793 149.989 58.3138 149.979 58.2453C149.976 58.2172 149.958 58.1923 149.954 58.1642Z" fill="#FEFEFE"/>
</g>
<path fill-rule="evenodd" clip-rule="evenodd" d="M148.435 58.4263C137.613 61.7524 126.592 65.4433 115.425 69.4926C116.42 67.4071 117.352 65.2562 118.235 63.0398" fill="#0070B9"/>
<path fill-rule="evenodd" clip-rule="evenodd" d="M118.236 63.0398C128.557 60.7393 138.674 59.2087 148.436 58.4263Z" fill="#0070B9"/>
<path fill-rule="evenodd" clip-rule="evenodd" d="M9.0976 117.725C17.731 110.072 27.465 102.79 38.1317 96.0877C40.1369 95.0684 42.1453 94.0584 44.163 93.0577C44.993 92.6462 46.619 91.8544 48.6647 90.8694C50.0388 92.4187 51.4627 93.9212 52.9363 95.3863C37.6187 102.55 22.9633 110.028 9.0976 117.725Z" fill="#0070B9"/>
<path fill-rule="evenodd" clip-rule="evenodd" d="M148.435 50.6943C139.466 51.9693 130.329 53.45 121.055 55.1427C121.568 53.5529 122.05 51.9288 122.516 50.2766" fill="#EF5133"/>
<path fill-rule="evenodd" clip-rule="evenodd" d="M122.516 50.2756C131.439 49.8984 140.11 50.0449 148.435 50.6933Z" fill="#ED2A37"/>
<path fill-rule="evenodd" clip-rule="evenodd" d="M1.55444 87.4137C11.5745 81.0264 22.6732 75.2096 34.6581 70.1565C35.056 70.9608 35.4695 71.7619 35.8861 72.5506C35.2457 73.8723 34.6021 75.1909 33.9679 76.5188C22.8256 79.9665 12.0097 83.6044 1.55444 87.4137Z" fill="#EF5133"/>
<path fill-rule="evenodd" clip-rule="evenodd" d="M75.0024 35.9739C91.8931 35.9739 105.14 39.9359 120.094 47.4111C112.779 75.0614 99.3887 93.6341 75.0055 108.725C65.8436 103.042 58.0557 96.7077 51.5488 89.4881C54.4432 88.1103 57.7075 86.5579 60.574 85.1987C61.7336 85.3047 62.8466 85.3608 63.8818 85.3889C63.8165 86.9818 63.316 88.1508 62.5139 88.9893C62.9803 89.5224 63.4559 90.0586 63.9316 90.5823C65.1969 89.4476 66.0083 87.7767 66.0736 85.3951C69.0395 85.3484 71.9028 85.0429 74.5609 84.4786C74.4117 88.8335 73.8055 92.0411 72.5681 93.313C72.5246 93.3535 72.5028 93.3847 72.4811 93.4283C72.1733 93.7525 71.8966 94.0269 71.6572 94.2357C72.8541 94.0175 74.0262 93.7401 75.1858 93.4128C76.6781 90.3173 76.6967 84.8964 76.7185 83.9549C79.4885 83.2567 81.9508 82.5553 84.1674 81.7947C84.2545 84.3415 85.268 86.773 87.208 87.6707C88.0816 87.0535 88.9272 86.3958 89.7448 85.7162C89.2536 85.791 86.1882 86.003 86.2318 81.0559C92.7201 78.6026 96.9451 75.6474 100.663 71.2302C101.646 69.0076 102.438 66.6759 102.998 64.26C98.5524 71.2957 94.4548 75.4011 86.4556 78.6213C86.6826 77.2029 87.0929 75.5071 87.7551 73.4747C90.0868 72.4958 92.5211 71.3269 93.9885 70.7221L97.486 67.0375C98.3658 63.6334 99.2394 60.2263 100.113 56.8222L97.3772 57.6763L100.592 54.2879C101.27 51.6226 101.932 48.9511 102.594 46.2858C100.984 46.5227 99.37 46.7628 97.7565 47.0153C98.027 45.6811 98.2197 44.3625 98.3223 43.0439C97.5451 42.8475 96.7679 42.6573 95.9844 42.4827C95.8196 43.9634 95.5305 45.6063 95.0921 47.4361L94.8714 47.4704C93.3605 47.726 91.8123 48.2248 90.4661 49.3626L90.8982 48.0502C88.3054 48.5209 85.7219 48.9978 83.1384 49.4997L80.5642 52.2118L80.6482 51.9935L81.4814 49.8208C78.9258 50.3476 76.3765 50.8869 73.8241 51.4449C73.2925 47.9878 72.7578 44.8643 72.2945 42.3362C71.5702 42.4204 70.8458 42.5233 70.1276 42.6261C70.594 45.1823 71.138 48.3837 71.6821 51.9187L69.8727 52.3271L67.5752 54.7554C65.9648 53.0472 62.6973 54.1258 60.6361 54.6463C58.4039 55.2106 56.1749 55.7966 53.9458 56.3982C53.2805 56.5822 52.6183 56.7848 51.9685 57.0092C50.299 54.5965 48.729 52.1058 47.4326 49.4249L47.1994 48.9293C46.5248 49.2036 45.8564 49.4873 45.188 49.7834L45.474 50.3757C46.7362 52.9973 48.2565 55.4475 49.8949 57.826C47.4917 58.8983 45.2719 60.3852 43.3475 62.5112C43.3475 62.5112 40.2231 65.7906 39.8562 66.1927C39.0448 67.1279 38.3453 68.1223 37.7266 69.1354C34.4467 62.5143 31.8445 55.3103 29.8922 47.4143C44.8491 39.939 58.1024 35.9708 75.0024 35.9739ZM76.6532 77.8295C78.2077 77.1437 79.7621 76.4641 81.3104 75.7814L82.0378 75.024C82.3425 75.0738 82.6938 75.0832 83.0887 75.0458C83.6949 74.9429 84.4348 74.734 85.2369 74.4535C84.7146 76.3644 84.3975 78.0165 84.2545 79.4536C82.0441 80.236 79.5632 80.9748 76.7434 81.6887C76.7403 80.4542 76.7092 79.1637 76.6532 77.8295ZM65.8964 82.6893L67.3545 82.0098L71.0976 78.9922L71.9308 76.6855C72.4717 77.7827 72.764 78.2129 73.3018 79.3196L74.5329 78.7772C74.5765 79.9648 74.5951 81.1213 74.5951 82.2249C71.8935 82.8452 68.9742 83.1787 65.9617 83.2255L65.8964 82.6893Z" fill="#FEFEFE"/>
<path fill-rule="evenodd" clip-rule="evenodd" d="M84.1016 41.6331C87.6706 41.6331 91.193 41.8201 94.6656 42.1942C97.3082 42.749 99.9259 43.4224 102.522 44.2079C103.51 47.6837 104.045 51.3558 104.045 55.1464C104.045 58.2855 103.685 61.3311 102.997 64.2582C98.5518 71.2939 94.4542 75.4025 86.455 78.6226C86.682 77.2043 87.0954 75.5053 87.7545 73.476C90.0862 72.4941 92.5205 71.3282 93.9848 70.7203L97.4854 67.0357C98.3652 63.6317 99.2388 60.2245 100.112 56.8204L97.3766 57.6745L100.594 54.2861C101.269 51.6208 101.934 48.9524 102.593 46.2871C100.983 46.5209 99.3694 46.761 97.7559 47.0135C98.0263 45.6824 98.2191 44.3607 98.3217 43.0421C97.5476 42.8457 96.7641 42.6586 95.9838 42.4841C95.8221 43.9617 95.5299 45.6076 95.0915 47.4374L94.8708 47.4717C93.3568 47.7273 91.8116 48.2261 90.4655 49.3608L90.8976 48.0484C88.3048 48.5191 85.7213 48.9992 83.1378 49.4979L80.5636 52.21L80.6507 51.9918L81.4808 49.8221C78.9283 50.3458 76.3759 50.8882 73.8235 51.4462C73.2919 47.9892 72.7603 44.8657 72.2939 42.3376C76.1645 41.8669 80.1004 41.6331 84.1016 41.6331ZM100.663 71.2284C98.1725 76.8707 94.4107 81.8178 89.7473 85.7144C89.253 85.7892 86.1845 86.0012 86.2312 81.0541C92.7226 78.6008 96.9445 75.6456 100.663 71.2284ZM87.2074 87.6689C83.5917 90.222 79.5439 92.1828 75.1883 93.411C76.6775 90.3155 76.6961 84.8946 76.721 83.9563C79.4879 83.258 81.9502 82.5535 84.1668 81.796C84.2539 84.3397 85.2674 86.7712 87.2074 87.6689ZM71.6597 94.237C70.4379 94.4646 69.2006 94.6329 67.9477 94.7452C66.5642 93.3954 65.2243 92.0051 63.931 90.5805C65.1932 89.4458 66.0077 87.7749 66.073 85.3965C69.0389 85.3466 71.9022 85.0442 74.5603 84.4769C74.4111 88.8317 73.8049 92.0394 72.5706 93.3112C72.524 93.3517 72.5022 93.386 72.4836 93.4266C72.1696 93.7539 71.896 94.0251 71.6597 94.237ZM62.5164 88.9875C61.5558 87.884 60.62 86.7556 59.7091 85.6084L60.5733 85.1969C61.733 85.306 62.846 85.3622 63.8812 85.3871C63.819 86.98 63.3154 88.1521 62.5164 88.9875ZM45.3428 60.6079C44.1334 57.5312 43.064 54.3796 42.15 51.1594C43.1541 50.6825 44.1708 50.2243 45.1905 49.7816L45.4734 50.377C46.7356 52.9986 48.2559 55.4457 49.8943 57.8242C48.2838 58.5411 46.7543 59.4483 45.3428 60.6079ZM47.1988 48.9275C54.6478 45.8694 62.2646 43.7622 70.1301 42.6275C70.5934 45.1836 71.1374 48.382 71.6815 51.9201L69.8721 52.3253L67.5746 54.7568C65.9611 53.0485 62.6936 54.1271 60.6355 54.6446C58.4033 55.215 56.1711 55.7948 53.9452 56.3965C53.2798 56.5804 52.6177 56.783 51.9679 57.0074C50.2984 54.5947 48.7284 52.104 47.432 49.4231L47.1988 48.9275ZM76.6557 77.8277C78.2071 77.1419 79.7615 76.4623 81.3098 75.7828L82.0372 75.0253C82.3419 75.072 82.6932 75.0876 83.0881 75.044C83.6912 74.9411 84.4311 74.7323 85.2394 74.4548C84.714 76.3626 84.4 78.0147 84.2539 79.4518C82.0435 80.2374 79.5626 80.973 76.7428 81.69C76.7397 80.4525 76.7086 79.165 76.6557 77.8277ZM65.8958 82.6875L67.3539 82.0111L71.097 78.9905L71.9302 76.6837C72.4711 77.7841 72.7665 78.2111 73.3012 79.3209L74.5323 78.7754C74.5759 79.9662 74.5945 81.1227 74.5945 82.2293C71.8929 82.8434 68.9736 83.177 65.9611 83.2237L65.8958 82.6875Z" fill="#EF5133"/>
<path fill-rule="evenodd" clip-rule="evenodd" d="M75.7323 104.125C68.5539 99.2493 62.1557 93.5104 56.625 87.0701L59.709 85.6081C60.6199 86.7553 61.5557 87.8806 62.5164 88.9872C62.9796 89.5203 63.4552 90.0565 63.9309 90.5833C68.0285 95.094 72.5643 99.2244 77.5075 102.934C76.9199 103.336 76.3292 103.732 75.7323 104.125ZM41.9105 64.0241C39.812 59.4199 38.0462 54.6318 36.6378 49.6784C49.1543 43.7556 62.1153 40.5604 75.8722 40.1895C82.3046 40.2456 88.5566 40.9189 94.6687 42.1939C91.1929 41.8229 87.6705 41.6328 84.1015 41.6328C80.0972 41.6328 76.1645 41.8697 72.2939 42.3373C71.5695 42.4214 70.8482 42.5212 70.1301 42.6272C62.2614 43.7619 54.6477 45.8691 47.1988 48.9272C46.5241 49.2046 45.8557 49.4883 45.1873 49.7844C44.1707 50.224 43.1541 50.6822 42.1499 51.1591C43.0639 54.3793 44.1303 57.5308 45.3428 60.6076C44.6495 61.1749 43.9811 61.8109 43.3499 62.5091L41.9105 64.0241Z" fill="#FCB424"/>
<path fill-rule="evenodd" clip-rule="evenodd" d="M26.2936 45.7655C42.4723 37.4144 56.6645 32.8694 75.0039 32.8694C93.334 32.8694 107.529 37.4144 123.702 45.7655C116.188 76.1215 101.84 96.2248 75.0039 112.357C64.8751 106.272 56.024 99.1426 48.6653 90.8694C46.6196 91.8544 44.9936 92.6431 44.1605 93.0546C41.6267 94.3202 39.0929 95.592 36.5716 96.8795C33.727 98.3352 30.5683 100.536 27.2915 99.685C23.7101 98.1264 26.0697 93.7528 27.1641 91.2684C29.9496 84.9746 32.8565 78.7338 35.8877 72.5492C32.2471 65.6974 29.3838 58.2471 27.3786 50.1609L26.2936 45.7655ZM75.0039 35.9742C58.1008 35.9711 44.8506 39.9394 29.8906 47.4146C31.8461 55.3044 34.4451 62.5209 37.7281 69.1357C38.3437 68.1226 39.0432 67.1282 39.8577 66.1899C40.2215 65.7909 43.349 62.5115 43.349 62.5115C45.2703 60.3824 47.4932 58.8955 49.8933 57.8263C48.2549 55.4478 46.7377 52.9976 45.4724 50.376L45.1895 49.7837C45.8579 49.4876 46.5263 49.2039 47.201 48.9265L47.4341 49.4252C48.7305 52.103 50.2974 54.5937 51.97 57.0095C52.6198 56.7851 53.2789 56.5825 53.9473 56.3986C56.1733 55.7938 58.4024 55.2109 60.6377 54.6435C62.6958 54.1261 65.9632 53.0475 67.5736 54.7558L69.8742 52.3274L71.6805 51.919C71.1396 48.3841 70.5924 45.1826 70.1292 42.6264C70.8473 42.5236 71.5717 42.4207 72.293 42.3365C72.7593 44.8647 73.2909 47.9882 73.8225 51.4452C76.375 50.8872 78.9274 50.3479 81.4829 49.8211L80.6497 51.9907L80.5627 52.209L83.1368 49.4969C85.7203 48.9982 88.3069 48.5181 90.8967 48.0474L90.4645 49.3629C91.8107 48.2251 93.3589 47.7263 94.8698 47.4707L95.0937 47.4364C95.5289 45.6066 95.8212 43.9638 95.9828 42.4831C96.7663 42.6576 97.5466 42.8478 98.3238 43.041C98.2181 44.3597 98.0254 45.6814 97.7549 47.0125C99.3684 46.7631 100.985 46.523 102.592 46.2861C101.933 48.9514 101.268 51.6198 100.593 54.2882L97.3756 57.6735L100.111 56.8194C99.241 60.2266 98.3643 63.6306 97.4875 67.0378L93.9869 70.7193C92.5226 71.3272 90.0852 72.4962 87.7535 73.475C87.0945 75.5043 86.681 77.2032 86.454 78.6216C94.4532 75.4015 98.5508 71.2929 102.997 64.2572C102.437 66.6762 101.644 69.0079 100.662 71.2305C96.9435 75.6477 92.7216 78.6029 86.2333 81.0562C86.1867 86.0033 89.2552 85.7882 89.7464 85.7134C88.9287 86.3961 88.08 87.0538 87.2064 87.6679C85.2664 86.7733 84.2529 84.3418 84.1659 81.795C81.9492 82.5556 79.4901 83.257 76.72 83.9553C76.6952 84.8936 76.6765 90.3176 75.1873 93.4131C74.0277 93.7404 72.8526 94.0147 71.6587 94.236C71.895 94.0272 72.1717 93.7528 72.4826 93.4255C72.5013 93.385 72.523 93.3538 72.5696 93.3133C73.8039 92.0415 74.4101 88.8338 74.5593 84.479C71.9012 85.0432 69.0379 85.3456 66.0751 85.3954C66.0099 87.7739 65.1953 89.4479 63.9331 90.5795C63.4543 90.062 62.9818 89.5227 62.5154 88.9865C63.3175 88.1511 63.8181 86.9821 63.8803 85.3861C62.845 85.3612 61.7351 85.305 60.5724 85.1959C57.706 86.5551 54.4447 88.1137 51.5472 89.4884C58.0542 96.708 65.8451 103.042 75.0039 108.722C99.3871 93.6344 112.777 75.0586 120.096 47.4115C105.139 39.9362 91.8946 35.9742 75.0039 35.9742ZM76.6548 77.8267C76.7107 79.164 76.7387 80.4546 76.7418 81.689C79.5647 80.972 82.0425 80.2363 84.2529 79.4508C84.399 78.0137 84.713 76.3616 85.2384 74.4538C84.4332 74.7375 83.6933 74.9432 83.0902 75.043C82.6954 75.0835 82.3441 75.071 82.0363 75.0212L81.3119 75.7818C79.7606 76.4613 78.2061 77.1409 76.6548 77.8267ZM65.8948 82.6896L65.9601 83.2258C68.9726 83.1822 71.8919 82.8455 74.5967 82.2252C74.5967 81.1217 74.578 79.9651 74.5314 78.7743L73.3002 79.3199C72.7655 78.2132 72.4702 77.7831 71.9323 76.6858L71.096 78.9926L67.3529 82.0132L65.8948 82.6896Z" fill="#081E3F"/>
<path fill-rule="evenodd" clip-rule="evenodd" d="M54.2283 57.6713C50.423 58.7094 47.0281 60.3397 44.3109 63.3541C42.7503 65.1466 41.6373 67.2008 40.5989 69.3019C37.5584 75.5021 34.6422 81.7554 31.8504 88.0647C31.1229 89.7107 28.8845 93.7132 31.266 94.7482C33.9023 95.434 37.1977 93.2145 39.5232 92.0268C42.0508 90.7394 44.5814 89.4613 47.1214 88.1988C51.4459 86.0479 55.3227 83.4387 57.9528 79.246C59.0005 77.4754 59.7809 75.5769 60.5488 73.6816C62.1996 69.6074 63.8815 65.5331 65.5945 61.4744C66.2381 59.9532 67.3604 58.0361 67.0028 56.3745C66.2816 54.1457 62.526 55.5079 60.8907 55.9163C58.671 56.4836 56.4481 57.0666 54.2283 57.6713ZM49.4189 80.9511C47.4074 81.852 45.4053 82.756 43.4 83.6819C46.3068 76.9236 49.3225 70.2121 52.4718 63.5536C54.2315 62.9925 55.9973 62.447 57.7725 61.9015C54.8905 68.2108 52.1112 74.5638 49.4189 80.9511ZM83.8345 50.6886C81.0489 54.339 78.2975 58.0173 75.5803 61.7207C76.8488 58.3322 78.1358 54.9468 79.4323 51.5739C76.5441 52.1662 73.6652 52.799 70.7895 53.4537C70.0465 55.1993 69.3003 56.9419 68.5666 58.6907C69.1884 58.5161 69.8133 58.3447 70.432 58.1732C68.1656 63.6658 65.9614 69.1772 63.7976 74.6979C62.9115 76.9454 62.0286 79.193 61.1488 81.4374C64.0369 80.0721 66.9251 78.716 69.8226 77.3818C71.1346 73.7502 72.4559 70.1217 73.7958 66.5026C75.0238 68.9714 76.2456 71.4466 77.4581 73.9279C79.3203 73.0894 81.1919 72.2664 83.0666 71.4497C81.9256 68.8436 80.7691 66.2438 79.6032 63.644C81.6769 60.4893 83.7661 57.3471 85.877 54.2174C86.4708 54.074 87.0646 53.9337 87.6584 53.7966C88.103 52.4374 88.5476 51.0783 88.9921 49.7192C87.2729 50.034 85.5506 50.352 83.8345 50.6886ZM95.0141 48.7715C93.4627 49.0302 92.0606 49.529 90.9041 50.6949C89.9559 51.7236 89.4523 52.9424 89.0295 54.2454C87.7952 58.1358 86.5517 62.0293 85.3112 65.9228C84.8262 67.4627 84.0334 70.2651 86.4926 70.0563C87.332 69.9191 88.1217 69.5731 88.9082 69.2333C91.3953 68.1703 93.8887 67.1198 96.3882 66.0849C97.0256 63.644 97.6598 61.197 98.2847 58.7468C96.9696 59.1583 95.6607 59.5791 94.3488 59.9999C94.0379 61.1034 93.7332 62.2101 93.4254 63.3105C92.5145 63.6471 91.6036 63.9776 90.6927 64.3174C91.8461 60.3678 92.9995 56.4213 94.1436 52.4686C94.9519 52.294 95.7571 52.1226 96.5686 51.9543C96.3758 52.6463 96.1893 53.3383 95.9965 54.0335C97.1748 53.7498 98.3562 53.4692 99.5344 53.2012C99.9821 51.4212 100.43 49.6381 100.874 47.8582C98.922 48.1481 96.9665 48.4504 95.0141 48.7715Z" fill="#FEFEFE"/>
<path fill-rule="evenodd" clip-rule="evenodd" d="M105.513 45.1614C106.697 45.551 107.804 45.9469 108.911 46.3615C111.684 47.3964 114.137 48.4501 116.164 49.4258C109.903 70.9755 97.0784 89.0463 78.9815 101.908L77.5047 102.934C72.2072 98.9561 69.0796 95.8326 69.0796 95.8326L71.5729 95.4211C79.14 94.1555 86.4335 90.7172 92.4648 85.078C102.743 75.4613 106.915 61.7359 104.798 48.8023C104.745 48.5093 104.686 48.2163 104.639 47.9233L104.614 47.7955L104.59 47.6583L104.558 47.5149L104.53 47.3809L104.506 47.2312L104.474 47.091L104.44 46.9351L104.406 46.7886L104.375 46.6483L104.353 46.5298L104.31 46.3646L104.279 46.2088L104.248 46.0934L104.226 45.9781L104.198 45.8659C104.083 45.4014 103.98 45.0055 103.868 44.6221C104.425 44.8029 104.975 44.9837 105.513 45.1614ZM105.712 45.4139C106.819 45.7942 107.96 46.1963 109.048 46.6047C107.941 46.1807 106.828 45.7879 105.712 45.4139Z" fill="#0070B9"/>
</g>
<defs>
<clipPath id="clip0_429_2709">
<rect width="150" height="150" fill="white"/>
</clipPath>
</defs>
</svg>
