<svg width="150" height="150" viewBox="0 0 150 150" fill="none" xmlns="http://www.w3.org/2000/svg">
<g clip-path="url(#clip0_429_2110)">
<mask id="mask0_429_2110" style="mask-type:alpha" maskUnits="userSpaceOnUse" x="10" y="37" width="130" height="76">
<path d="M139.784 112.708V37.0383H10.0005V112.708H139.784Z" fill="white"/>
</mask>
<g mask="url(#mask0_429_2110)">
<path fill-rule="evenodd" clip-rule="evenodd" d="M122.497 55.5948C123.453 55.1741 124.572 54.6918 125.603 54.2604L128.937 52.8645L118.009 49.3197L115.382 37.0374L108.773 46.9216L97.5692 44.0681L101.334 48.9606C87.225 47.1681 71.5546 48.4917 57.4802 52.6823L58.4094 49.7618L56.0047 50.453C36.8399 55.9485 20.0663 70.8726 12.2257 89.4006L10.0005 94.6629L14.3305 90.9385C23.6973 82.8924 33.3641 74.5863 47.3957 70.1385L43.4861 79.2323L46.8949 77.3648C49.9744 75.6768 53.4501 74.3799 57.1589 73.485L62.1663 75.2052C70.0068 77.8926 76.8111 80.221 83.4948 84.4973C83.4439 91.7906 86.4029 99.0249 91.6808 104.456C96.8623 109.785 103.624 112.709 110.741 112.709H110.953C127.293 112.585 136.927 100.552 139.227 88.6879C141.295 78.0212 138.014 63.3194 122.497 55.5948Z" fill="#FEFEFE"/>
</g>
<path fill-rule="evenodd" clip-rule="evenodd" d="M60.5119 73.2234C69.7985 71.7979 79.0663 72.2159 87.1799 75.6429L88.168 73.4672C75.0416 69.2391 58.5411 69.4562 46.2501 76.1895L49.75 68.0495C34.3018 72.2266 23.9067 80.9454 13.458 89.924C21.0763 71.9158 37.641 57.1122 56.3748 51.7401L55.4215 54.7276C71.8256 49.3715 89.8309 48.356 104.409 50.7648L100.995 46.3197L109.357 48.4525L114.737 40.4143L116.863 50.3548L125.087 53.0235C125.087 53.0235 119.096 55.5341 119.383 55.652C150.528 68.4889 140.559 111.142 110.943 111.37C95.9631 111.493 84.3415 97.9487 84.8476 83.7802C77.232 78.7643 69.5896 76.3502 60.5119 73.2234Z" fill="#C4CDD3"/>
<path fill-rule="evenodd" clip-rule="evenodd" d="M116.302 55.6637C118.016 54.9161 121.216 53.5202 121.216 53.5202L121.455 53.4157L121.205 53.3326C121.205 53.3326 116.059 51.6392 114.953 51.2802C114.787 50.1147 113.973 44.5148 113.973 44.5148L113.935 44.2441L112.064 47.2906C112.064 47.2906 110.99 49.0188 110.411 49.9619C109.193 49.6511 103.875 48.2954 103.875 48.2954L103.594 48.2257L103.77 48.4535C103.776 48.4588 105.937 51.2427 107.246 52.9361C101.893 51.7732 95.7184 51.1221 88.6383 51.1221C86.314 51.1221 83.8933 51.1918 81.3762 51.3365C71.7228 51.8884 62.2301 53.689 53.1203 56.9819L54.1619 53.8819L53.9772 53.9382C39.7207 58.394 24.1306 71.7668 17.238 84.9896L17.3933 85.1074C27.1378 75.9627 40.3258 68.6587 52.1482 66.0008L49.042 73.2431L49.283 73.1279C54.7832 70.47 62.0052 69.2937 69.2941 69.2937C76.749 69.2937 84.2736 70.5262 90.0897 72.6456L87.8591 77.5087C82.5571 75.0758 74.8879 73.436 68.5255 73.436C67.3928 73.436 66.3003 73.487 65.2694 73.5968L65.2533 73.7924C72.7671 75.9145 80.5488 78.3125 86.7157 83.2587C86.6782 83.7838 86.6595 84.309 86.6595 84.8315C86.6621 97.8479 97.8927 109.629 111.07 109.632C111.158 109.632 111.25 109.629 111.338 109.629C125.862 109.458 136.624 96.1331 136.627 82.2405C136.629 72.0079 130.776 61.4619 116.302 55.6637Z" fill="#120C0D"/>
<path fill-rule="evenodd" clip-rule="evenodd" d="M108.38 79.5065C103.016 79.5065 97.6498 77.5399 92.2594 75.5571C90.8402 78.5634 90.1172 81.7144 90.1172 84.9189C90.1172 86.623 90.3207 88.3458 90.7358 90.066C91.1803 90.0767 91.6275 90.0821 92.0746 90.0821C102.48 90.0821 113.524 87.1883 122.443 81.8966C121.415 79.9835 120.14 78.1963 118.818 76.4762C115.345 78.6733 111.863 79.5065 108.38 79.5065Z" fill="#C4CDD3"/>
<path fill-rule="evenodd" clip-rule="evenodd" d="M91.6999 92.1041H91.3491C94.6026 100.525 102.066 106.107 111.167 106.232C114.081 99.0517 117.313 91.2065 124.701 87.5384C124.315 86.2442 123.841 84.9849 123.319 83.7444C113.805 89.3068 102.698 92.1041 91.6999 92.1041Z" fill="#C4CDD3"/>
<path fill-rule="evenodd" clip-rule="evenodd" d="M114.192 65.676C110.957 64.4408 108.895 64.0576 108.702 64.0228C107.797 64.146 106.568 64.2666 105.575 64.4649C111.075 66.6566 115.134 69.3146 119.215 73.8668C121.312 72.2083 123.154 70.3301 124.432 68.0231C120.691 64.3818 113.646 59.9206 96.074 58.5381C103.494 60.3038 110.317 62.6858 114.283 65.5018L114.192 65.676Z" fill="#C4CDD3"/>
<path fill-rule="evenodd" clip-rule="evenodd" d="M64.9258 63.2369C66.0156 63.2128 67.1912 63.1994 68.4363 63.1994C80.9202 63.2048 100.187 64.6731 107.658 73.5499L107.532 73.6999C104.948 72.2584 99.7771 69.8711 96.553 69.8737C96.4486 69.8737 96.3468 69.8764 96.2478 69.8818C95.1392 71.1063 94.1591 72.462 93.2808 73.866C98.2748 75.7068 103.33 77.5368 108.341 77.5341C111.487 77.5341 114.615 76.816 117.713 74.9271C109.053 65.4849 94.3974 61.3667 80.572 61.3667C75.0826 61.3667 69.7217 62.0151 64.9258 63.2369Z" fill="#C4CDD3"/>
<path fill-rule="evenodd" clip-rule="evenodd" d="M124 80.9091C126.415 79.264 128.501 77.5465 130.395 75.3387C129.203 73.0719 127.144 70.5265 125.666 69.2163C124.289 71.6438 122.527 73.648 120.385 75.411C121.646 77.0937 122.98 79.0577 124 80.9091Z" fill="#C4CDD3"/>
<path fill-rule="evenodd" clip-rule="evenodd" d="M113.285 106.145C117.671 105.609 121.704 104.111 125.094 101.231C125.616 99.2883 125.838 97.2788 125.838 95.2639C125.838 93.3401 125.635 91.4083 125.289 89.53C118.672 92.7105 115.925 99.6956 113.285 106.145Z" fill="#C4CDD3"/>
<path fill-rule="evenodd" clip-rule="evenodd" d="M127.791 96.5578C127.791 97.2222 127.775 97.8867 127.743 98.5512C130.316 95.068 131.695 92.043 132.459 87.5925C130.582 87.7587 128.72 88.0748 126.95 88.6616C127.529 91.2847 127.791 93.9105 127.791 96.5578Z" fill="#C4CDD3"/>
<path fill-rule="evenodd" clip-rule="evenodd" d="M124.911 82.751C125.49 84.0799 126.007 85.4277 126.456 86.8076C128.518 86.135 130.511 85.7894 132.661 85.6581C132.664 85.5054 132.664 85.3553 132.664 85.2026C132.664 82.3544 132.243 80.1627 131.317 77.4377C129.343 79.458 127.26 81.1782 124.911 82.751Z" fill="#C4CDD3"/>
<path fill-rule="evenodd" clip-rule="evenodd" d="M132.66 85.6591C130.51 85.7904 128.52 86.136 126.456 86.8085C126.006 85.426 125.492 84.0809 124.911 82.7519C127.259 81.1765 129.345 79.4563 131.316 77.436C132.242 80.1636 132.663 82.3554 132.663 85.2036C132.663 85.3536 132.663 85.5063 132.66 85.6591Z" fill="#C4CDD3"/>
<path fill-rule="evenodd" clip-rule="evenodd" d="M132.66 85.6591C130.51 85.7904 128.52 86.136 126.456 86.8085C126.006 85.426 125.492 84.0809 124.911 82.7519C127.259 81.1765 129.345 79.4563 131.316 77.436C132.242 80.1636 132.663 82.3554 132.663 85.2036C132.663 85.3536 132.663 85.5063 132.66 85.6591Z" fill="#C4CDD3"/>
<path fill-rule="evenodd" clip-rule="evenodd" d="M125.665 69.2158C127.143 70.526 129.205 73.0741 130.396 75.3382C128.501 77.546 126.415 79.2662 123.999 80.9087C122.979 79.0572 121.646 77.0932 120.384 75.4106C122.527 73.6475 124.288 71.6433 125.665 69.2158Z" fill="#C4CDD3"/>
<path fill-rule="evenodd" clip-rule="evenodd" d="M125.665 69.2158C127.143 70.526 129.205 73.0741 130.396 75.3382C128.501 77.546 126.415 79.2662 123.999 80.9087C122.979 79.0572 121.646 77.0932 120.384 75.4106C122.527 73.6475 124.288 71.6433 125.665 69.2158Z" fill="#C4CDD3"/>
<path fill-rule="evenodd" clip-rule="evenodd" d="M96.073 58.5374C113.645 59.9226 120.69 64.3838 124.433 68.0224C123.153 70.3293 121.311 72.2076 119.217 73.8661C115.136 69.3165 111.074 66.6559 105.576 64.4642C106.567 64.2686 107.796 64.1453 108.701 64.0221C108.894 64.0569 110.956 64.44 114.191 65.6752L114.285 65.5011C110.316 62.685 103.493 60.3057 96.073 58.5374Z" fill="#C4CDD3"/>
<path fill-rule="evenodd" clip-rule="evenodd" d="M96.073 58.5374C113.645 59.9226 120.69 64.3838 124.433 68.0224C123.153 70.3293 121.311 72.2076 119.217 73.8661C115.136 69.3165 111.074 66.6559 105.576 64.4642C106.567 64.2686 107.796 64.1453 108.701 64.0221C108.894 64.0569 110.956 64.44 114.191 65.6752L114.285 65.5011C110.316 62.685 103.493 60.3057 96.073 58.5374Z" fill="#C4CDD3"/>
<path fill-rule="evenodd" clip-rule="evenodd" d="M92.0744 90.0828C91.6272 90.0828 91.18 90.0774 90.7355 90.0667C90.3205 88.3439 90.1169 86.6237 90.1169 84.9196C90.1169 81.7124 90.8399 78.5615 92.2618 75.5579C97.6495 77.5379 103.016 79.5073 108.379 79.5073C111.863 79.5073 115.344 78.674 118.817 76.4742C120.14 78.197 121.415 79.9842 122.443 81.8973C113.523 87.1891 102.48 90.0828 92.0744 90.0828Z" fill="#C4CDD3"/>
<path fill-rule="evenodd" clip-rule="evenodd" d="M92.0744 90.0828C91.6272 90.0828 91.18 90.0774 90.7355 90.0667C90.3205 88.3439 90.1169 86.6237 90.1169 84.9196C90.1169 81.7124 90.8399 78.5615 92.2618 75.5579C97.6495 77.5379 103.016 79.5073 108.379 79.5073C111.863 79.5073 115.344 78.674 118.817 76.4742C120.14 78.197 121.415 79.9842 122.443 81.8973C113.523 87.1891 102.48 90.0828 92.0744 90.0828Z" fill="#C4CDD3"/>
<path fill-rule="evenodd" clip-rule="evenodd" d="M111.168 106.232C102.066 106.106 94.6029 100.525 91.3494 92.1033H91.7001C102.698 92.1033 113.805 89.3061 123.319 83.7437C123.842 84.9869 124.316 86.2435 124.701 87.5377C117.313 91.2057 114.081 99.051 111.168 106.232Z" fill="#C4CDD3"/>
<path fill-rule="evenodd" clip-rule="evenodd" d="M111.168 106.232C102.066 106.106 94.6029 100.525 91.3494 92.1033H91.7001C102.698 92.1033 113.805 89.3061 123.319 83.7437C123.842 84.9869 124.316 86.2435 124.701 87.5377C117.313 91.2057 114.081 99.051 111.168 106.232Z" fill="#C4CDD3"/>
<path fill-rule="evenodd" clip-rule="evenodd" d="M127.743 98.5522C127.775 97.885 127.791 97.2205 127.791 96.5587C127.791 93.9115 127.529 91.283 126.95 88.6599C128.72 88.0731 130.582 87.7596 132.459 87.5908C131.695 92.044 130.316 95.069 127.743 98.5522Z" fill="#C4CDD3"/>
<path fill-rule="evenodd" clip-rule="evenodd" d="M127.743 98.5522C127.775 97.885 127.791 97.2205 127.791 96.5587C127.791 93.9115 127.529 91.283 126.95 88.6599C128.72 88.0731 130.582 87.7596 132.459 87.5908C131.695 92.044 130.316 95.069 127.743 98.5522Z" fill="#C4CDD3"/>
<path fill-rule="evenodd" clip-rule="evenodd" d="M117.712 74.9259C114.614 76.8148 111.489 77.5356 108.34 77.5356C103.33 77.5356 98.2739 75.7082 93.2798 73.8648C94.1581 72.4608 95.1382 71.1077 96.2468 69.8806C96.3459 69.8779 96.4476 69.8725 96.5521 69.8725C99.7761 69.8699 104.947 72.2599 107.531 73.7014L107.657 73.5486C100.188 64.6718 80.9192 63.2035 68.4354 63.1982C67.1929 63.1982 66.0147 63.2143 64.9248 63.2357C69.7234 62.0166 75.0816 61.3682 80.5738 61.3682C94.3991 61.3655 109.055 65.4837 117.712 74.9259Z" fill="#C4CDD3"/>
<path fill-rule="evenodd" clip-rule="evenodd" d="M117.712 74.9259C114.614 76.8148 111.489 77.5356 108.34 77.5356C103.33 77.5356 98.2739 75.7082 93.2798 73.8648C94.1581 72.4608 95.1382 71.1077 96.2468 69.8806C96.3459 69.8779 96.4476 69.8725 96.5521 69.8725C99.7761 69.8699 104.947 72.2599 107.531 73.7014L107.657 73.5486C100.188 64.6718 80.9192 63.2035 68.4354 63.1982C67.1929 63.1982 66.0147 63.2143 64.9248 63.2357C69.7234 62.0166 75.0816 61.3682 80.5738 61.3682C94.3991 61.3655 109.055 65.4837 117.712 74.9259Z" fill="#C4CDD3"/>
<path fill-rule="evenodd" clip-rule="evenodd" d="M125.093 101.23C121.703 104.11 117.671 105.611 113.284 106.144C115.925 99.6946 118.672 92.7122 125.289 89.5291C125.634 91.4073 125.838 93.3391 125.838 95.2629C125.838 97.2778 125.616 99.2874 125.093 101.23Z" fill="#C4CDD3"/>
<path fill-rule="evenodd" clip-rule="evenodd" d="M125.093 101.23C121.703 104.11 117.671 105.611 113.284 106.144C115.925 99.6946 118.672 92.7122 125.289 89.5291C125.634 91.4073 125.838 93.3391 125.838 95.2629C125.838 97.2778 125.616 99.2874 125.093 101.23Z" fill="#C4CDD3"/>
<path fill-rule="evenodd" clip-rule="evenodd" d="M107.733 57.5437L111.554 56.2067L114.454 59.4996L114.117 55.2019L117.818 53.5862L113.79 52.2653L113.166 47.9729L111.016 51.4588L106.938 50.4165L109.642 53.8943L107.733 57.5437Z" fill="#C4CDD3"/>
<path fill-rule="evenodd" clip-rule="evenodd" d="M87.3761 60.6396L90.0298 59.3294L92.2417 61.296L91.8105 58.3701L94.3651 56.8831L91.449 56.3847L90.8198 53.499L89.4514 56.1221L86.5032 55.8221L88.5731 57.9361L87.3761 60.6396Z" fill="#FEFEFE"/>
<path fill-rule="evenodd" clip-rule="evenodd" d="M57.5359 66.5129L59.2845 65.6501L60.7359 66.9443L60.452 65.0205L62.131 64.0398L60.2137 63.7102L59.7987 61.8132L58.8962 63.5307L56.9602 63.3405L58.3205 64.7311L57.5359 66.5129Z" fill="#FEFEFE"/>
<path fill-rule="evenodd" clip-rule="evenodd" d="M123.602 92.9201L123.6 92.5637L121.136 96.6926L121.843 93.0567L121.669 92.9737C118.059 97.3545 116.68 100.503 115.558 104.382L115.505 104.567L115.687 104.506C119.738 103.099 121.83 101.473 122.687 100.792L122.705 100.776L122.716 100.755C123.319 99.4471 123.602 96.7971 123.605 93.5497C123.605 93.3407 123.602 93.1317 123.602 92.9201Z" fill="#0077C0"/>
<path fill-rule="evenodd" clip-rule="evenodd" d="M115.366 83.3591C111.424 84.1602 106.824 84.6318 102.609 84.6318C101.974 84.6318 101.35 84.6211 100.74 84.5996L109.783 81.9229L109.759 81.7273C103.787 81.446 99.1787 81.3335 93.3438 78.5978L93.2608 78.5576L93.2153 78.638C92.3477 80.1974 91.8523 82.3811 91.8523 84.5943C91.8523 85.8509 92.013 87.1183 92.3557 88.2811L92.3771 88.3508L92.4468 88.3534C92.4521 88.3534 92.6583 88.3588 93.0412 88.3588C95.6494 88.3588 106.363 88.0721 115.43 83.5466L115.366 83.3591Z" fill="#0077C0"/>
<path fill-rule="evenodd" clip-rule="evenodd" d="M117.36 90.6985C112.8 94.088 109.367 96.829 102.643 98.0963C108.869 94.8596 113.046 92.6331 116.972 88.6542L116.851 88.4988C109.889 92.5554 100.822 94.2916 94.425 94.5328L94.251 94.5381L94.3447 94.6855C99.6119 103.024 106.274 103.771 108.441 103.771H108.454C108.904 103.771 109.155 103.742 109.161 103.742L109.206 103.734L109.23 103.696C112.058 99.2244 113.855 94.9186 117.494 90.8459L117.36 90.6985Z" fill="#0077C0"/>
<path fill-rule="evenodd" clip-rule="evenodd" d="M112.691 62.9119C112.362 62.7378 112.024 62.5743 111.674 62.4163C117.059 64.0159 120.69 66.0951 122.719 67.6759C122.406 68.1394 122.058 68.5869 121.702 69.0209C119.209 66.4353 116.164 64.3293 112.691 62.9119ZM129.28 93.0845L129.261 92.7335C129.553 91.284 129.716 89.829 129.767 88.3929C130.148 88.2911 130.539 88.2134 130.929 88.141C130.512 89.9228 129.992 91.5439 129.28 93.0845ZM131.529 83.6316C130.828 83.7254 130.177 83.8272 129.534 83.9666C129.39 82.9243 129.181 81.8927 128.916 80.8772C129.615 80.2904 130.284 79.6929 130.962 79.0552C131.35 80.553 131.513 81.9597 131.529 83.6316ZM129.127 74.7843C128.53 75.4274 127.952 75.9981 127.365 76.5313C126.712 75.1273 125.949 73.7795 125.065 72.5068C125.526 71.9522 125.97 71.3788 126.388 70.7786C127.513 72.0245 128.49 73.4821 129.127 74.7843Z" fill="#FEFEFE"/>
</g>
<defs>
<clipPath id="clip0_429_2110">
<rect width="150" height="150" fill="white"/>
</clipPath>
</defs>
</svg>
