<svg width="150" height="150" viewBox="0 0 150 150" fill="none" xmlns="http://www.w3.org/2000/svg">
<mask id="mask0_429_2175" style="mask-type:alpha" maskUnits="userSpaceOnUse" x="71" y="61" width="46" height="65">
<path d="M71.7349 61.2307H116.061V125.874H71.7349V61.2307Z" fill="white"/>
</mask>
<g mask="url(#mask0_429_2175)">
<path fill-rule="evenodd" clip-rule="evenodd" d="M94.1109 119.514C89.2561 119.514 89.4625 113.299 89.4625 106.132C89.4625 98.9587 90.1428 92.7623 94.1109 92.7623C98.9838 92.7623 99.2446 98.9587 99.2446 106.132C99.2446 113.299 98.2441 119.514 94.1109 119.514ZM100.138 84.3442C95.7956 84.3442 91.3478 86.0782 89.0067 89.7137H88.9245H88.8317H88.9245L89.3603 83.4221C89.613 79.1707 90.5796 67.61 96.4816 67.61C99.3177 67.61 98.6809 71.3717 99.0008 73.0797C99.7818 77.0811 101.527 81.6698 107.011 81.6698C110.747 81.6698 114.664 79.1963 114.664 74.1417C114.664 66.3475 108.141 61.2307 100.225 61.2307C79.8953 61.2307 71.7349 76.7333 71.7349 95.5055C71.7349 111.804 78.0724 125.874 95.5326 125.874C106.87 125.874 116.061 117.818 116.061 104.278C116.061 92.8389 110.005 84.3442 100.138 84.3442Z" fill="#006AB6"/>
</g>
<mask id="mask1_429_2175" style="mask-type:alpha" maskUnits="userSpaceOnUse" x="33" y="60" width="47" height="66">
<path d="M33 60.2041H79.163V126H33V60.2041Z" fill="white"/>
</mask>
<g mask="url(#mask1_429_2175)">
<path fill-rule="evenodd" clip-rule="evenodd" d="M33 60.898V85.0911C46.562 87.0904 62.7486 85.7633 74.1907 69.0395C74.6704 68.3287 74.9541 68.8283 74.6447 69.4493C71.4477 75.9525 63.8879 81.9633 57.3519 87.0904C51.0688 92.014 34.2249 109.681 34.4464 125.215C34.462 126.407 34.5004 126.08 35.55 125.3C40.6652 121.507 50.6768 121.386 56.8261 124.331C57.6897 124.733 57.7517 124.612 57.6512 123.504C56.4703 111.461 59.1802 98.3059 64.3495 90.674C67.9052 85.3796 77.4836 71.7656 79.1338 61.0809C79.3039 59.9731 78.7341 60.1454 77.3496 61.6042C66.4973 73.0565 46.8815 72.7783 34.2249 60.643C33.4253 59.8727 33.0696 60.218 33 60.898Z" fill="#EC174B"/>
</g>
<path fill-rule="evenodd" clip-rule="evenodd" d="M56.5109 24L57.2858 26.471H59.908L57.7753 28.0157L58.5561 30.4425L56.5109 28.9557L54.4324 30.4425L55.2066 28.0056L53.0874 26.471H55.7096L56.5109 24Z" fill="#006AB6"/>
<path fill-rule="evenodd" clip-rule="evenodd" d="M72.0425 33.0312L72.8374 35.4821H75.4676L73.3336 37.0367L74.1153 39.4597L72.0501 37.963L69.9783 39.4597L70.7797 37.0367L68.6191 35.4821H71.2551L72.0425 33.0312Z" fill="#006AB6"/>
<path fill-rule="evenodd" clip-rule="evenodd" d="M65.2952 26.125L66.0835 28.5858H68.7186L66.586 30.1404L67.3597 32.5742L65.3018 31.0635L63.2433 32.5742L64.0174 30.1304L61.885 28.5858H64.5068L65.2952 26.125Z" fill="#006AB6"/>
<path fill-rule="evenodd" clip-rule="evenodd" d="M74.5107 41.5312L75.2985 43.992H77.9207L75.8015 45.5362L76.5695 47.967L74.5245 46.463L72.4595 47.967L73.2473 45.5362L71.1001 43.992H73.709L74.5107 41.5312Z" fill="#006AB6"/>
<path fill-rule="evenodd" clip-rule="evenodd" d="M73.4401 50.5625L74.2283 53.0171H76.8569L74.7247 54.5814L75.5053 57.0082L73.4467 55.5083L71.3956 57.0082L72.1626 54.5681L70.0366 53.0171H72.6584L73.4401 50.5625Z" fill="#006AB6"/>
<path fill-rule="evenodd" clip-rule="evenodd" d="M68.499 57.6458L69.2734 60.1072H71.9096L69.7763 61.6615L70.5512 64.0817L68.513 62.5883L66.4405 64.0817L67.2222 61.6615L65.075 60.1072H67.7111L68.499 57.6458Z" fill="#006AB6"/>
<path fill-rule="evenodd" clip-rule="evenodd" d="M60.5178 61.7188L61.3121 64.1802H63.9206L61.7941 65.7382L62.5823 68.1717L60.5247 66.6743L58.459 68.1717L59.2336 65.7341L57.1003 64.1802H59.7232L60.5178 61.7188Z" fill="#006AB6"/>
<path fill-rule="evenodd" clip-rule="evenodd" d="M40.8402 32.1458L40.0456 34.5966H37.4302L39.5494 36.1579L38.7745 38.5817L40.8269 37.0775L42.9047 38.5817L42.1175 36.1579L44.2637 34.5966H41.6286L40.8402 32.1458Z" fill="#006AB6"/>
<path fill-rule="evenodd" clip-rule="evenodd" d="M47.2199 26.125L46.4316 28.5858H43.8098L45.9431 30.1404L45.1554 32.5742L47.2199 31.0635L49.2858 32.5742L48.5108 30.1304L50.6434 28.5858H48.0148L47.2199 26.125Z" fill="#006AB6"/>
<path fill-rule="evenodd" clip-rule="evenodd" d="M37.8216 40.4688L37.0472 42.9191H34.4177L36.5582 44.4638L35.7767 46.904L37.8216 45.4106L39.8873 46.904L39.1124 44.4638L41.2596 42.9191H38.6369L37.8216 40.4688Z" fill="#006AB6"/>
<path fill-rule="evenodd" clip-rule="evenodd" d="M38.5505 49.323L37.7493 51.7912H35.1265L37.2604 53.349L36.4857 55.7791L38.5367 54.275L40.6024 55.7791L39.8145 53.3424L41.9467 51.7912H39.3249L38.5505 49.323Z" fill="#006AB6"/>
<path fill-rule="evenodd" clip-rule="evenodd" d="M43.4988 56.7605L42.7173 59.2248H40.0884L42.2209 60.7762L41.4338 63.1998L43.4988 61.6965L45.578 63.1998L44.783 60.7695L46.9155 59.2248H44.2934L43.4988 56.7605Z" fill="#006AB6"/>
<path fill-rule="evenodd" clip-rule="evenodd" d="M51.2957 61.3645L50.514 63.8323H47.8855L50.018 65.3834L49.2438 67.8038L51.2817 66.3235L53.3669 67.8038L52.5718 65.3662L54.719 63.8323H52.0907L51.2957 61.3645Z" fill="#006AB6"/>
</svg>
