<svg width="150" height="150" viewBox="0 0 150 150" fill="none" xmlns="http://www.w3.org/2000/svg">
<g clip-path="url(#clip0_429_2304)">
<path fill-rule="evenodd" clip-rule="evenodd" d="M111.802 18.0007L99.4653 30.2731L79.6185 19.8841L76.0329 39.5919L55.8953 43.9509L67.1584 50.7326L54.522 57.0671L64.8034 57.9557L18.224 94.1496L54.1724 75.0733L15.262 104.667L56.8127 83.0229L11.0639 117.389L58.53 92.1182L5.00024 130.855L68.3946 96.1726L27.711 128.997L88.0008 94.3815L87.2289 99.8191L96.6992 94.566L115.413 112.245L125.342 82.4417L138.197 80.6031L132.662 63.4296L144.867 52.8227L129.028 46.1416L133.498 27.1966L118.504 34.0565L111.802 18.0007Z" fill="#FEFEFE"/>
<path fill-rule="evenodd" clip-rule="evenodd" d="M23.7998 118.978L81.4438 87.439L42.3544 118.978L89.7841 91.7449L89.0066 97.2356L96.9162 92.8458L114.78 109.723L124.289 81.1826L136.358 79.453L131.049 62.9781L142.259 53.2401L127.397 46.9698L131.48 29.6567L117.767 35.927L111.315 20.458L99.7242 31.9871L80.655 22.006L77.2428 40.7582L59.6336 44.5696L70.052 50.8455L59.5665 56.1014L68.4774 56.8727L31.8353 85.3433L68.6927 65.7835L29.1586 95.8524L71.2407 73.9343L26.2862 107.703L75.8276 81.3279L23.7998 118.978Z" fill="#F9A01B"/>
<path fill-rule="evenodd" clip-rule="evenodd" d="M129.283 63.2319C128.631 79.0586 115.259 91.3588 99.4147 90.6994C83.5759 90.0511 71.2668 76.689 71.9241 60.8652C72.5757 45.0358 85.9477 32.7411 101.786 33.3921C117.628 34.0516 129.94 47.4053 129.283 63.2319Z" fill="#E55F1F"/>
<path fill-rule="evenodd" clip-rule="evenodd" d="M104.118 86.7895C88.2816 86.1356 75.9697 72.7735 76.6214 56.9497C76.9234 49.6231 79.9497 43.0678 84.682 38.1863C77.315 43.1014 72.3114 51.336 71.9226 60.8672C71.2653 76.6882 83.5773 90.0475 99.4133 90.7014C107.927 91.0535 115.722 87.6585 121.218 81.9917C116.34 85.247 110.43 87.0493 104.118 86.7895Z" fill="#B85914"/>
<path fill-rule="evenodd" clip-rule="evenodd" d="M129.298 62.3832C129.312 61.355 129.27 60.3434 129.175 59.3375C127.519 58.1863 125.55 57.3089 123.22 57.0071C122.778 56.954 122.353 56.9261 121.925 56.8925C121.645 54.998 121.217 53.1427 120.65 51.3376C120.943 51.3627 121.245 51.3739 121.545 51.3907C123.564 51.5416 125.553 51.7679 127.516 52.0557C127.245 51.3236 126.934 50.6111 126.607 49.9097C124.403 49.5716 122.16 49.3117 119.889 49.1413H119.867C119.139 47.2971 118.253 45.5199 117.212 43.8294C118.678 43.5276 119.987 42.9269 121.047 41.9265C120.507 41.3789 119.942 40.848 119.355 40.3422C118.435 41.1889 117.24 41.6415 115.87 41.8259C115.657 41.527 115.45 41.2364 115.229 40.9486C113.28 38.417 111.031 36.2514 108.556 34.4938C106.394 33.8679 104.134 33.4879 101.785 33.3929C101.656 33.3873 101.527 33.3929 101.396 33.3845C105.759 35.1002 109.655 37.9811 112.788 41.8343C109.801 41.5465 106.358 40.5462 102.951 39.5486C101.944 39.2497 100.957 38.959 100.003 38.6964C94.2023 37.0953 89.744 36.8382 86.3961 37.1316C83.9097 38.5455 81.6582 40.3254 79.7032 42.396C83.3196 40.8927 90.6083 38.3164 99.4548 40.7641C100.395 41.024 101.371 41.309 102.364 41.5996C106.274 42.7508 110.656 44.0306 114.452 44.0697C115.498 45.6261 116.401 47.2691 117.148 48.982C116.407 48.9485 115.663 48.9289 114.927 48.9122C96.4929 48.5964 80.6905 54.1067 71.9194 62.8974C71.9698 64.6438 72.1684 66.3511 72.518 68.0137C74.9904 64.465 78.6544 61.2627 83.3811 58.6026C92.3032 53.5925 104.142 50.9548 116.72 51.1755C117.151 51.1811 117.587 51.1979 118.021 51.2146C118.656 53.0337 119.131 54.9142 119.433 56.8478C111.33 57.1887 106.078 62.2379 100.048 67.6113C94.6358 72.4537 88.0295 77.2738 78.3663 80.1742C79.2753 81.2947 80.2654 82.3398 81.3366 83.3066C90.4433 79.6433 96.4929 73.9375 101.606 69.3717C107.406 64.1855 112.39 59.2174 119.707 58.9715C119.895 60.9917 119.903 63.0511 119.718 65.13C118.734 76.3657 112.223 85.8913 103.343 90.5884C105.616 90.3788 107.815 89.8954 109.907 89.1745C110.617 88.5877 111.314 87.9674 111.982 87.3107C117.805 81.5825 121.422 73.7782 122.16 65.3451C122.345 63.2327 122.345 61.137 122.174 59.0721C122.538 59.1112 122.901 59.1447 123.276 59.2062C125.771 59.6141 127.748 60.8688 129.298 62.3832Z" fill="#051821"/>
</g>
<defs>
<clipPath id="clip0_429_2304">
<rect width="150" height="150" fill="white"/>
</clipPath>
</defs>
</svg>
