<svg width="150" height="150" viewBox="0 0 150 150" fill="none" xmlns="http://www.w3.org/2000/svg">
<path fill-rule="evenodd" clip-rule="evenodd" d="M110.935 51.489C109.393 49.207 107.622 47.062 105.672 45.111C104.826 44.265 103.943 43.453 103.029 42.678L122.207 23.5H66.3348L44.7698 45.066H44.7728C44.7578 45.081 44.7428 45.096 44.7268 45.111C42.7768 47.062 41.0068 49.207 39.4648 51.489C37.9088 53.793 36.5718 56.256 35.4918 58.809C33.2438 64.122 32.1048 69.766 32.1048 75.584C32.1048 81.402 33.2438 87.045 35.4918 92.358C36.5718 94.911 37.9088 97.374 39.4648 99.678C41.0068 101.96 42.7768 104.107 44.7268 106.056C45.5758 106.905 46.4608 107.719 47.3788 108.495L28.2068 127.667H84.0628L105.715 106.014H105.713C107.647 104.075 109.404 101.945 110.935 99.678C112.491 97.374 113.828 94.911 114.908 92.358C117.155 87.045 118.293 81.402 118.293 75.584C118.293 69.766 117.155 64.122 114.908 58.809C113.828 56.256 112.491 53.793 110.935 51.489Z" fill="#061922"/>
<path fill-rule="evenodd" clip-rule="evenodd" d="M110.935 51.489C109.393 49.207 107.622 47.062 105.672 45.111C104.826 44.265 103.943 43.453 103.029 42.678L122.207 23.5H66.3348L44.7698 45.066H44.7728C44.7578 45.081 44.7428 45.096 44.7268 45.111C42.7768 47.062 41.0068 49.207 39.4648 51.489C37.9088 53.793 36.5718 56.256 35.4918 58.809C33.2438 64.122 32.1048 69.766 32.1048 75.584C32.1048 81.402 33.2438 87.045 35.4918 92.358C36.5718 94.911 37.9088 97.374 39.4648 99.678C41.0068 101.96 42.7768 104.107 44.7268 106.056C45.5758 106.905 46.4608 107.719 47.3788 108.495L28.2068 127.667H84.0628L105.715 106.014H105.713C107.647 104.075 109.404 101.945 110.935 99.678C112.491 97.374 113.828 94.911 114.908 92.358C117.155 87.045 118.293 81.402 118.293 75.584C118.293 69.766 117.155 64.122 114.908 58.809C113.828 56.256 112.491 53.793 110.935 51.489Z" stroke="white"/>
<path fill-rule="evenodd" clip-rule="evenodd" d="M103.147 47.5896C102.302 46.7446 101.429 45.9456 100.53 45.1936L77.0797 68.6426C78.2347 68.9676 79.3247 69.5836 80.2337 70.4896L80.2397 70.4966C83.0717 73.3286 83.0717 77.9196 80.2397 80.7516L36.8047 124.187H41.8937L82.7847 83.2956C87.0097 79.0716 87.0217 72.2306 82.8227 67.9896L85.3667 65.4456C90.9707 71.0906 90.9587 80.2106 85.3287 85.8396L46.9807 124.187H52.0707L87.8737 88.3836C94.9087 81.3496 94.9207 69.9516 87.9117 62.9016L90.4567 60.3566C98.8717 68.8126 98.8577 82.4886 90.4177 90.9286L57.1597 124.187H62.2497L92.9617 93.4736C102.808 83.6286 102.821 67.6726 93.0007 57.8116L95.5457 55.2676C106.772 66.5336 106.759 84.7676 95.5067 96.0186L67.3387 124.187H72.4277L98.0517 98.5626C110.709 85.9076 110.721 65.3946 98.0897 52.7226L100.651 50.1606C114.697 64.2476 114.684 87.0526 100.614 101.125L77.5497 124.187H82.6397L103.159 103.67L103.147 103.658C118.63 88.1746 118.63 63.0716 103.147 47.5896Z" fill="white"/>
<path fill-rule="evenodd" clip-rule="evenodd" d="M47.2751 103.614C48.1201 104.459 48.9931 105.258 49.8921 106.01L73.3421 82.5595C72.1881 82.2345 71.0981 81.6195 70.1891 80.7135L70.1821 80.7065C67.3501 77.8745 67.3501 73.2825 70.1821 70.4515L113.677 26.9565H108.588L67.6371 67.9065C63.4131 72.1315 63.4001 78.9725 67.6001 83.2135L65.0561 85.7575C59.4521 80.1115 59.4631 70.9915 65.0931 65.3635L103.5 26.9565H98.4101L62.5481 62.8185C55.5141 69.8525 55.5021 81.2515 62.5111 88.3005L59.9671 90.8455C51.5511 82.3895 51.5641 68.7135 60.0041 60.2735L93.3211 26.9565H88.2321L57.4601 57.7285C47.6141 67.5745 47.6011 83.5295 57.4221 93.3905L54.8771 95.9355C43.6511 84.6695 43.6631 66.4345 54.9151 55.1835L83.1421 26.9565H78.0531L52.3701 52.6395C39.7131 65.2965 39.7011 85.8075 52.3321 98.4805L49.7711 101.042C35.7251 86.9555 35.7381 64.1495 49.8091 50.0785L72.9311 26.9565H67.8411L47.2641 47.5335L47.2751 47.5445C31.7921 63.0275 31.7921 88.1305 47.2751 103.614Z" fill="#E03A3E"/>
</svg>
