<svg width="150" height="150" viewBox="0 0 150 150" fill="none" xmlns="http://www.w3.org/2000/svg">
<g clip-path="url(#clip0_429_2459)">
<path fill-rule="evenodd" clip-rule="evenodd" d="M106.219 20.0005L99.3568 32.1695L98.0904 41.5505L87.1966 60.9643H75.6486L85.7795 43.0381V20.0005H71.7319L65.1468 32.0911L63.9648 41.5566L47.4086 71.0846L50.7976 79.5754H59.7828L56.843 87.0223L46.8598 76.2232L48.087 92.7583L30.1799 93.5097L44.5592 103.633L34.4283 118.747L51.0087 113.325L57.7777 129.603L62.8854 112.054L81.4739 116.849L69.4283 102.909L84.0036 90.8695L70.4353 91.7113L81.1723 79.5754H99.2754L119.537 43.6416L119.73 43.2946V20.0005H106.219Z" fill="#FEFEFE"/>
<path fill-rule="evenodd" clip-rule="evenodd" d="M107.101 21.5078L100.667 32.9135L99.5483 42.0289L88.0786 62.4716H73.0601L84.2705 42.6385V21.5078H72.6259L66.469 32.8139L65.4288 42.0289L49.0745 71.1918L51.8213 78.0654H62.0005L57.3662 89.806L48.6856 80.4159L49.7077 94.1993L34.6771 94.8299L46.6322 103.248L38.1174 115.951L51.8635 111.456L57.529 125.07L61.8467 110.231L77.1788 114.18L67.2771 102.729L79.4613 92.6665L66.8911 93.4449L80.4955 78.0654H98.3965L118.224 42.901V21.5078H107.101Z" fill="#FEFEFE"/>
<path fill-rule="evenodd" clip-rule="evenodd" d="M107.101 21.5078L100.667 32.9135L99.5483 42.0289L88.0786 62.4716H73.0601L84.2705 42.6385V21.5078H72.6259L66.469 32.8139L65.4288 42.0289L49.0745 71.1918L51.8213 78.0654H62.0005L57.3662 89.806L48.6856 80.4159L49.7077 94.1993L34.6771 94.8299L46.6322 103.248L38.1174 115.951L51.8635 111.456L57.529 125.07L61.8467 110.231L77.1788 114.18L67.2771 102.729L79.4613 92.6665L66.8911 93.4449L80.4955 78.0654H98.3965L118.224 42.901V21.5078H107.101Z" fill="#2D2925"/>
<path fill-rule="evenodd" clip-rule="evenodd" d="M104.692 31.6805H110.122L113.903 24.5776H108.669L104.692 31.6805Z" fill="#C4CDD3"/>
<path fill-rule="evenodd" clip-rule="evenodd" d="M70.5433 31.6922L76.3928 31.6771L80.1195 24.5742L74.4811 24.5772L70.5433 31.6922Z" fill="#C4CDD3"/>
<path fill-rule="evenodd" clip-rule="evenodd" d="M69.1521 40.6381L74.4226 40.6532L74.9141 34.5491H69.8154L69.1521 40.6381Z" fill="#C4CDD3"/>
<path fill-rule="evenodd" clip-rule="evenodd" d="M103.187 40.6381L108.461 40.6532L108.958 34.5491H103.848L103.187 40.6381Z" fill="#C4CDD3"/>
<path fill-rule="evenodd" clip-rule="evenodd" d="M55.3761 104.242C54.0404 104.242 52.958 103.161 52.958 101.828C52.958 100.491 54.0404 99.4109 55.3761 99.4109C56.7118 99.4109 57.7913 100.491 57.7913 101.828C57.7913 103.161 56.7118 104.242 55.3761 104.242ZM102.057 44.2896L90.1681 65.2361H61.6326L73.5274 44.2896H67.9312L53.5851 69.6415H69.4991L57.4294 96.653L52.4333 91.101L52.7107 97.6457L44.6663 98.0893L51.1458 102.655L46.5296 109.534L53.9771 107.099L57.0435 114.483L59.3863 106.438L67.693 108.578L62.3291 102.371L68.9323 96.9155L58.744 97.3651L77.5074 69.6415H93.4546L107.56 44.2896H102.057Z" fill="#C4CDD3"/>
</g>
<defs>
<clipPath id="clip0_429_2459">
<rect width="150" height="150" fill="white"/>
</clipPath>
</defs>
</svg>
