<svg width="150" height="150" viewBox="0 0 150 150" fill="none" xmlns="http://www.w3.org/2000/svg">
<path fill-rule="evenodd" clip-rule="evenodd" d="M118.192 25.1831L105.694 37.7127L95.3143 27.3073L95.2647 27.3537L95.2085 27.304L84.8251 37.7127L74.4285 27.2973L64.0418 37.7127L53.6485 27.2973L53.6451 27.304L43.2518 37.716L31.0028 25.4316C31.0028 25.4316 31.1087 76.6071 31.1087 80.9085C31.1087 105.037 50.4299 124.668 74.4979 124.668C98.5726 124.668 118.152 105.037 118.152 80.9085C118.152 76.6071 118.192 25.1831 118.192 25.1831Z" fill="#FEFEFE"/>
<path fill-rule="evenodd" clip-rule="evenodd" d="M62.8446 93.3302C75.2094 93.3302 84.4053 98.4997 91.1203 102.271C95.6917 104.842 99.3072 106.874 102.47 106.874C103.862 106.874 105.139 106.486 106.379 105.684C110.316 100.667 113.038 94.7352 114.255 88.5085H56.4604C56.8442 90.2748 57.2874 91.9914 57.7836 93.6085C59.4805 93.423 61.1808 93.3302 62.8446 93.3302Z" fill="#5C666F"/>
<path fill-rule="evenodd" clip-rule="evenodd" d="M34.9928 88.5051C36.0215 93.731 38.0559 98.6421 41.0528 103.109C42.8622 99.9312 46.4843 95.9844 53.5962 94.301C53.0504 92.4718 52.5642 90.5266 52.1507 88.5051H34.9928Z" fill="#5C666F"/>
<path fill-rule="evenodd" clip-rule="evenodd" d="M43.8906 106.87C51.5781 115.894 62.6462 121.097 74.3131 121.173C73.2115 120.609 72.1365 119.99 71.1011 119.324C66.1559 116.123 59.3549 109.889 54.9654 98.3306C48.0519 99.8417 45.1278 103.765 43.8906 106.87Z" fill="#5C666F"/>
<path fill-rule="evenodd" clip-rule="evenodd" d="M59.2219 97.7248C62.3379 105.572 67.0483 111.603 73.2274 115.653C77.3126 118.337 81.2292 119.553 83.8093 120.103C90.2729 118.592 96.3064 115.474 101.301 111.066C97.3616 110.632 93.3194 108.362 89.0523 105.963C82.3935 102.222 74.1007 97.5591 62.9036 97.5591C61.6929 97.5591 60.4591 97.622 59.2219 97.7248Z" fill="#5C666F"/>
<path fill-rule="evenodd" clip-rule="evenodd" d="M76.0582 68.1204C75.9887 68.1204 75.9226 68.127 75.8531 68.1369L75.8465 68.1204H66.8491H62.3173H61.6591V85.2661H67.6397V71.4905H72.1351V85.2661H77.8345V70.4964C77.8345 69.1874 77.0373 68.1204 76.0582 68.1204Z" fill="#5A2C81"/>
<path fill-rule="evenodd" clip-rule="evenodd" d="M80.7148 68.1204H80.3575V82.8238C80.3575 84.1361 81.1481 85.1965 82.1239 85.1965C82.1273 85.1965 82.1372 85.1932 82.1471 85.1932V85.1965H91.5547H96.5099V74.8375L90.7641 74.8309V81.8661H86.272V71.4077H96.5099V68.1204H85.4847H80.7148Z" fill="#5A2C81"/>
<path fill-rule="evenodd" clip-rule="evenodd" d="M45.7401 68.1238L42.4851 75.0298H40.6063V68.1238H34.6521V85.2596H40.6063V78.3569H42.4851L45.7401 85.2596H51.6876L47.4932 76.6933L51.6876 68.1238H45.7401Z" fill="#5A2C81"/>
<mask id="mask0_429_2393" style="mask-type:alpha" maskUnits="userSpaceOnUse" x="31" y="25" width="88" height="100">
<path d="M31.0032 124.666H118.192V25.1848H31.0032V124.666Z" fill="white"/>
</mask>
<g mask="url(#mask0_429_2393)">
<path fill-rule="evenodd" clip-rule="evenodd" d="M53.2717 85.2578H59.4343V68.1187H53.2717V85.2578Z" fill="#5A2C81"/>
<path fill-rule="evenodd" clip-rule="evenodd" d="M114.62 72.7352L114.627 68.119H114.62V68.0925L98.8154 68.119V75.9397C98.8154 77.2453 99.6093 78.3124 100.582 78.3124H108.636V82.0504H98.8154V85.1985H114.627V77.3812C114.627 76.1617 113.939 75.1543 113.049 75.0284V75.0151H104.746V71.4229H108.901V72.7352H114.62Z" fill="#5A2C81"/>
<path fill-rule="evenodd" clip-rule="evenodd" d="M97.8065 50.6743H92.7587L103.169 40.2424L95.2991 32.3555L84.8198 42.7675L74.4298 32.3555L56.1571 50.6743H51.1093L61.4993 40.2258L53.6465 32.3555L43.2565 42.7675L34.6527 34.2178V51.304V64.9404H114.62V51.7149V33.8202L97.8065 50.6743Z" fill="#5A2C81"/>
<path fill-rule="evenodd" clip-rule="evenodd" d="M52.1232 61.6385C52.1232 62.0825 52.487 62.4437 52.927 62.4437H53.0295H57.4224V61.2375H53.7606V57.3139H57.4224V56.1077H52.1232V61.6385Z" fill="#FEFEFE"/>
<path fill-rule="evenodd" clip-rule="evenodd" d="M46.4311 59.5857H48.4588V57.3157H46.4311V59.5857ZM49.1965 56.1161L44.797 56.1062V62.4489H46.4311V60.7886H48.4588V62.4489H50.0962V56.9181C50.0962 56.4442 49.6794 56.0499 49.1965 56.1161Z" fill="#FEFEFE"/>
<path fill-rule="evenodd" clip-rule="evenodd" d="M107.987 61.2261H110.008V57.3124H107.987V61.2261ZM110.848 56.1062H107.14C106.7 56.1062 106.336 56.4674 106.336 56.9115V61.637C106.336 62.081 106.7 62.4422 107.14 62.4422H110.848C111.288 62.4422 111.649 62.081 111.649 61.6337V56.9115C111.649 56.4674 111.288 56.1062 110.848 56.1062Z" fill="#FEFEFE"/>
<path fill-rule="evenodd" clip-rule="evenodd" d="M37.4637 59.0754C37.4637 59.5194 37.8276 59.8807 38.2709 59.8807H41.1256V61.2393H37.4637V62.4456H42.7629V59.4797C42.7629 59.0688 42.4553 58.7241 42.0418 58.6777L41.9988 58.6744H39.0978V57.3157H42.7629V56.1062H37.4637V59.0754Z" fill="#FEFEFE"/>
<path fill-rule="evenodd" clip-rule="evenodd" d="M68.2795 59.5857H70.3072V57.3157H68.2795V59.5857ZM71.1342 56.1062H66.6421V62.4489H68.2795V60.7886H70.3072V62.4489H71.9446V56.9181C71.9446 56.474 71.5807 56.1062 71.1342 56.1062Z" fill="#FEFEFE"/>
<path fill-rule="evenodd" clip-rule="evenodd" d="M99.21 57.3151H101.046V62.4482H102.677V57.3151H104.509V56.1089H99.21V57.3151Z" fill="#FEFEFE"/>
<path fill-rule="evenodd" clip-rule="evenodd" d="M82.2493 56.1077H74.1152V62.4437H75.7493V57.3139H77.7572V62.4437H79.4144V57.3139H81.419V62.4437H83.0531V56.9129C83.0531 56.4722 82.6925 56.1077 82.2493 56.1077Z" fill="#FEFEFE"/>
<path fill-rule="evenodd" clip-rule="evenodd" d="M96.7453 56.1077H96.5865H92.2532V62.4437H93.8873V57.3139H95.915V62.4437H97.5524V56.9129C97.5524 56.4722 97.1885 56.1077 96.7453 56.1077Z" fill="#FEFEFE"/>
<path fill-rule="evenodd" clip-rule="evenodd" d="M85.2809 61.6385C85.2809 62.0825 85.6414 62.4437 86.0847 62.4437H86.1872H90.5768V61.2375H86.9183V59.8788H90.5768V58.6759H86.9183V57.3139H90.5768V56.1077H85.2809V61.6385Z" fill="#FEFEFE"/>
<path fill-rule="evenodd" clip-rule="evenodd" d="M60.9393 58.9362H62.967V57.3157H60.9393V58.9362ZM63.7278 60.1424H64.6011V56.9148C64.6011 56.4442 64.1942 56.0532 63.7046 56.1161L59.3052 56.1062V62.4489H60.9393V60.1424H62.1235L63.1026 62.4422H64.697L63.7278 60.1424Z" fill="#FEFEFE"/>
</g>
</svg>
