<svg width="150" height="150" viewBox="0 0 150 150" fill="none" xmlns="http://www.w3.org/2000/svg">
<path fill-rule="evenodd" clip-rule="evenodd" d="M91.2742 122.539C90.9572 122.539 90.6542 122.389 90.4642 122.126L90.2722 121.86C89.9072 121.327 89.9882 120.863 90.0682 120.632C90.3242 119.892 91.0942 119.648 91.8392 119.414C92.0952 119.333 92.5242 119.198 92.6392 119.109C92.8932 118.893 93.1732 118.702 93.4562 118.514C94.0672 118.105 94.5712 117.628 95.0322 117.168C95.2152 116.983 95.4232 116.812 95.6312 116.643C95.6312 116.643 95.9032 116.42 95.9612 116.376L96.6712 115.641L97.2302 115.049L97.6442 114.619C97.9412 114.313 98.2392 114.009 98.5132 113.682C99.1452 112.949 99.7962 112.158 100.458 111.32C100.689 111.034 100.882 110.736 101.078 110.437L101.424 109.918C101.492 109.814 101.56 109.712 101.638 109.609C102.027 109.068 102.33 108.585 102.58 108.105C102.946 107.427 103.357 106.8 103.755 106.193L104.104 105.66C104.381 105.227 104.671 104.761 104.873 104.284C104.982 104.021 105.123 103.767 105.266 103.513C105.36 103.348 105.455 103.183 105.533 103.01C105.729 102.58 105.91 102.145 106.091 101.711L106.378 101.027C106.404 100.952 106.462 100.786 106.587 100.617C107.055 99.863 107.392 98.934 107.749 97.949L107.978 97.316C108.393 96.173 108.786 95.094 109.005 93.959C109.14 93.237 109.357 92.529 109.647 91.858C109.722 91.679 109.771 91.429 109.823 91.163L110.078 89.94C110.315 88.814 110.552 87.688 110.767 86.556C110.895 85.875 111.003 85.153 111.107 84.283C111.153 83.911 111.179 83.539 111.207 83.167L111.277 82.255C111.32 81.687 111.362 81.123 111.415 80.556C111.432 80.339 111.447 80.1 111.461 79.857C111.488 79.426 111.515 78.987 111.56 78.578C111.596 78.204 111.651 77.629 112.177 77.266C112.474 77.08 112.76 77 113.069 77C113.196 77 113.331 77.014 113.476 77.04C113.859 77.105 114.481 77.25 114.912 77.395C115.45 77.586 115.977 77.773 116.48 77.989C117.69 78.514 118.814 79.185 119.921 80.04C120.027 80.122 120.125 80.203 120.238 80.267C120.273 80.286 120.306 80.308 120.339 80.331C120.626 80.538 120.888 80.793 121.168 81.061L121.499 81.377C121.618 81.464 121.838 81.644 122.035 81.877C122.171 82.036 122.533 82.495 122.667 82.698C122.697 82.742 122.742 82.802 122.79 82.864C122.903 83.016 123.023 83.18 123.119 83.34C123.23 83.525 123.331 83.719 123.429 83.912C123.538 84.124 123.642 84.335 123.77 84.515C124.051 84.914 124.112 85.376 123.955 85.893C123.505 87.461 122.664 90.492 122.664 90.492L121.941 92.817C121.929 92.853 121.917 92.889 121.901 92.923L121.243 94.42L120.014 96.924L119.28 98.305L118.037 100.769L117.465 101.721L115.558 104.469L114.55 105.716L114.266 106.107L113.364 107.316L111.68 109.258L110.201 110.684L109.028 111.946L108.239 112.727L107.498 113.423C107.468 113.45 107.437 113.476 107.404 113.501L105.789 114.693L104.573 115.573L103.769 116.211L102.006 117.455L100.987 118.122L100.156 118.582L99.5532 118.954L99.2002 119.196C99.1492 119.23 99.0952 119.261 99.0402 119.285L98.7102 119.431C98.7092 119.434 98.2482 119.677 98.1662 119.723L98.1602 119.712C97.8572 119.878 97.0342 120.27 94.4452 121.505L92.9202 122.102L92.4372 122.31C92.3712 122.34 92.3002 122.361 92.2292 122.375L91.4612 122.521C91.3992 122.533 91.3362 122.539 91.2742 122.539Z" fill="#CE1141"/>
<path fill-rule="evenodd" clip-rule="evenodd" d="M113.07 76C112.574 76 112.112 76.129 111.698 76.384C111.669 76.402 111.639 76.421 111.611 76.44C110.699 77.069 110.606 78.052 110.572 78.422L110.566 78.481C110.521 78.894 110.492 79.348 110.465 79.796C110.45 80.031 110.435 80.266 110.418 80.491C110.367 81.035 110.325 81.604 110.282 82.176L110.259 82.469C110.242 82.666 110.225 82.889 110.21 83.11C110.183 83.461 110.159 83.812 110.116 84.159C110.014 85.012 109.909 85.713 109.785 86.37C109.573 87.491 109.332 88.636 109.098 89.743L108.905 90.663C108.884 90.758 108.864 90.862 108.843 90.968C108.802 91.174 108.76 91.388 108.718 91.491C108.411 92.2 108.172 92.98 108.022 93.779C107.82 94.828 107.439 95.873 107.037 96.979L106.873 97.432L106.81 97.604C106.476 98.526 106.161 99.397 105.716 100.12C105.56 100.356 105.479 100.572 105.439 100.683C105.349 100.894 105.261 101.105 105.173 101.317C104.995 101.744 104.817 102.171 104.626 102.591C104.556 102.744 104.475 102.883 104.396 103.021C104.253 103.275 104.091 103.562 103.949 103.901C103.78 104.3 103.516 104.725 103.26 105.124L102.931 105.627C102.517 106.257 102.09 106.908 101.707 107.62C101.467 108.077 101.188 108.521 100.815 109.04C100.749 109.128 100.672 109.243 100.595 109.358L100.515 109.477C100.415 109.626 100.329 109.757 100.244 109.887C100.052 110.179 99.8723 110.454 99.6903 110.679C99.0233 111.524 98.3823 112.304 97.7653 113.018C97.5073 113.324 97.2303 113.61 96.9363 113.913C96.7913 114.063 96.6453 114.213 96.5033 114.364L95.8983 115.003L95.3473 115.586C95.2753 115.642 95.2183 115.688 95.1673 115.732L95.0043 115.866C94.7963 116.034 94.5593 116.226 94.3243 116.462C93.9033 116.882 93.4443 117.317 92.9483 117.649L92.8833 117.693C92.6333 117.86 92.3553 118.047 92.0753 118.276C91.9543 118.328 91.7093 118.406 91.5393 118.459C90.6973 118.725 89.5443 119.089 89.1243 120.305C88.8833 121 88.9963 121.765 89.4323 122.402C89.4423 122.417 89.4523 122.431 89.4633 122.445L89.6553 122.711C90.0363 123.236 90.6413 123.538 91.2753 123.538C91.4003 123.538 91.5263 123.526 91.6523 123.503L92.4203 123.355C92.5623 123.328 92.7013 123.285 92.8343 123.229L93.3163 123.021L94.7413 122.465C94.7873 122.447 94.8323 122.428 94.8763 122.407C97.2523 121.273 98.2043 120.819 98.6403 120.581L98.6503 120.597C98.7293 120.553 99.0413 120.389 99.1743 120.318L99.4463 120.198C99.5573 120.149 99.6653 120.089 99.7663 120.021L100.119 119.779L100.679 119.435L101.403 119.038C101.449 119.013 101.493 118.986 101.536 118.958L102.526 118.311C102.546 118.298 102.565 118.285 102.585 118.271L104.302 117.06C104.332 117.039 104.361 117.017 104.39 116.994L105.195 116.358L106.367 115.51L107.485 114.679L107.994 114.308C108.06 114.26 108.123 114.208 108.182 114.151L108.905 113.476C108.918 113.463 108.93 113.45 108.944 113.438L109.705 112.686C109.724 112.666 109.743 112.646 109.761 112.626L110.935 111.365L112.312 110.043C112.355 110.001 112.396 109.958 112.435 109.913L114.073 108.029C114.105 107.992 114.136 107.953 114.166 107.914L115.062 106.715L115.361 106.305L116.292 105.158C116.323 105.119 116.352 105.08 116.381 105.039L118.254 102.343C118.278 102.308 118.3 102.272 118.323 102.236L118.857 101.353C118.883 101.309 118.908 101.265 118.93 101.219L120.184 98.734L120.882 97.422C120.893 97.403 120.903 97.384 120.913 97.364L122.124 94.898C122.136 94.873 122.148 94.848 122.16 94.821L122.818 93.325C122.848 93.256 122.875 93.186 122.897 93.113L123.611 90.817L123.629 90.759C123.629 90.758 124.469 87.731 124.922 86.15C125.223 85.153 124.912 84.399 124.595 83.947C124.515 83.835 124.416 83.641 124.32 83.453C124.211 83.242 124.101 83.03 123.981 82.829C123.844 82.603 123.703 82.414 123.59 82.263C123.552 82.212 123.515 82.165 123.485 82.121C123.312 81.861 122.932 81.385 122.789 81.218C122.573 80.961 122.333 80.755 122.118 80.586C122.032 80.505 121.948 80.424 121.867 80.345C121.574 80.062 121.271 79.77 120.925 79.52C120.86 79.472 120.792 79.429 120.721 79.39C120.661 79.353 120.604 79.303 120.546 79.257C119.36 78.34 118.166 77.628 116.883 77.072C116.312 76.827 115.726 76.621 115.257 76.455C114.733 76.278 114.055 76.124 113.637 76.052C113.446 76.018 113.255 76 113.07 76ZM113.07 78C113.141 78 113.217 78.009 113.299 78.023C113.671 78.087 114.24 78.223 114.591 78.342C115.097 78.521 115.604 78.7 116.088 78.907C117.256 79.414 118.293 80.043 119.311 80.83C119.452 80.94 119.593 81.051 119.754 81.14C120.083 81.378 120.425 81.744 120.819 82.109C120.979 82.232 121.139 82.364 121.272 82.521C121.397 82.667 121.716 83.07 121.834 83.249C121.953 83.424 122.135 83.641 122.262 83.853C122.507 84.262 122.697 84.729 122.958 85.095C123.071 85.256 123.054 85.418 122.999 85.601C122.545 87.188 121.701 90.224 121.701 90.224L120.987 92.52L120.329 94.017L119.118 96.482L118.398 97.834L117.145 100.318L116.611 101.202L114.738 103.897L113.775 105.085L113.46 105.518L112.564 106.717L110.926 108.601L109.509 109.962L108.298 111.264L107.537 112.016L106.815 112.692L106.293 113.074L105.194 113.89L103.988 114.763L103.15 115.426L101.431 116.637L100.441 117.284L99.6753 117.705L99.0313 118.101L98.6373 118.369L98.3023 118.517C98.3023 118.517 97.6803 118.845 97.6643 118.857C97.6563 118.865 94.0153 120.602 94.0153 120.602L92.5573 121.17L92.0433 121.392L91.2753 121.538L91.0833 121.272C90.5613 120.511 92.6343 120.43 93.2883 119.87C93.5283 119.665 93.7943 119.491 94.0593 119.313C94.6763 118.9 95.2163 118.397 95.7393 117.875C95.9603 117.653 96.2193 117.459 96.4613 117.258C96.5543 117.174 96.6653 117.104 96.7513 117.012C97.1553 116.587 97.5533 116.161 97.9573 115.736C98.4003 115.268 98.8653 114.818 99.2803 114.324C99.9523 113.546 100.61 112.742 101.244 111.938C101.582 111.522 101.858 111.063 102.16 110.616C102.254 110.48 102.337 110.345 102.439 110.208C102.818 109.681 103.166 109.146 103.467 108.567C103.908 107.75 104.439 106.985 104.945 106.202C105.258 105.714 105.565 105.216 105.795 104.672C105.974 104.242 106.251 103.851 106.445 103.422C106.746 102.762 107.014 102.087 107.299 101.419C107.324 101.355 107.346 101.273 107.393 101.21C107.994 100.249 108.37 99.17 108.755 98.11C109.221 96.814 109.722 95.521 109.988 94.147C110.11 93.497 110.3 92.868 110.566 92.255C110.721 91.881 110.776 91.473 110.862 91.072C111.164 89.631 111.476 88.19 111.751 86.74C111.897 85.962 112.008 85.185 112.101 84.401C112.174 83.811 112.202 83.215 112.254 82.62C112.303 81.96 112.35 81.306 112.412 80.647C112.462 80.013 112.486 79.315 112.555 78.687C112.581 78.444 112.586 78.198 112.747 78.087C112.849 78.023 112.954 78 113.07 78Z" fill="white"/>
<path fill-rule="evenodd" clip-rule="evenodd" d="M124.439 83.474C124.105 83.474 123.782 83.316 123.55 83.039C123.4 82.863 123.211 82.578 123.033 82.298C122.913 82.111 122.801 81.924 122.71 81.824C122.526 81.663 122.346 81.471 122.203 81.28C121.746 80.679 121.1 80.207 120.417 79.707L119.204 78.809L118.655 78.5C118.256 78.28 117.88 78.072 117.503 77.917C116.671 77.579 115.744 77.273 114.939 77.012C114.82 76.975 114.657 76.939 114.514 76.906C114.398 76.878 114.292 76.854 114.21 76.831L114.084 76.809C113.933 76.782 113.783 76.751 113.625 76.703C113.366 76.624 112.969 76.505 112.698 76.078C112.482 75.746 112.426 75.36 112.418 75.096C112.418 75.096 112.414 74.574 112.408 74.363L112.344 73.059C112.317 72.519 112.29 71.979 112.267 71.439C112.196 69.453 111.871 67.536 111.526 65.505L111.458 65.104C111.405 64.785 111.35 64.541 111.297 64.301C111.228 63.99 111.162 63.685 111.099 63.271L111.07 63.102C110.998 62.695 110.898 62.138 111.251 61.633C111.736 61 112.479 61 112.878 61C113.357 61 113.684 61.005 114.097 61.011L114.45 61.016C115.384 61.032 116.1 61.066 116.775 61.126C117.627 61.206 118.612 61.304 119.574 61.469C120.137 61.563 120.665 61.713 121.175 61.858C121.409 61.924 121.643 61.991 121.881 62.052C122.103 62.106 122.351 62.195 122.594 62.285C122.715 62.33 122.835 62.375 122.95 62.411C123.149 62.472 123.355 62.566 123.545 62.658C123.857 62.809 124.758 63.249 124.998 64.401C125.312 65.97 125.712 68.897 125.73 69.021L126.081 72.394L126.095 72.93L126.082 75.905L125.868 78.931C125.868 78.931 125.487 82.373 125.469 82.505C125.443 83.112 124.929 83.474 124.439 83.474Z" fill="#CE1141"/>
<path fill-rule="evenodd" clip-rule="evenodd" d="M112.784 60.1655C112.337 60.1655 111.146 60.1655 110.388 61.1575C110.372 61.1785 110.356 61.2005 110.341 61.2225C109.746 62.0665 109.905 62.9605 109.99 63.4405L110.016 63.5895C110.085 64.0425 110.16 64.3835 110.226 64.6845C110.276 64.9095 110.328 65.1375 110.378 65.4355L110.446 65.8385C110.785 67.8345 111.104 69.7215 111.173 71.6335C111.197 72.1975 111.224 72.7465 111.252 73.2965C111.273 73.7265 111.295 74.1555 111.314 74.5865C111.319 74.7585 111.321 74.9035 111.322 75.0845L111.324 75.2525C111.337 75.6875 111.425 76.2665 111.772 76.8005C112.231 77.5255 112.946 77.7375 113.18 77.8065C113.188 77.8095 113.224 77.8205 113.232 77.8225C113.467 77.8955 113.665 77.9315 113.809 77.9575C113.84 77.9625 113.87 77.9675 113.901 77.9745C113.983 77.9965 114.084 78.0195 114.192 78.0445C114.308 78.0715 114.441 78.0995 114.544 78.1315C115.322 78.3835 116.226 78.6815 117.031 79.0095C117.356 79.1415 117.709 79.3375 118.082 79.5445C118.23 79.6265 118.379 79.7085 118.528 79.7895L119.278 80.3445L119.515 80.5205L119.733 80.6805C120.356 81.1355 120.944 81.5665 121.319 82.0575C121.469 82.2585 121.661 82.4705 121.882 82.6755C121.948 82.7665 122.02 82.8855 122.097 83.0045C122.285 83.2975 122.479 83.6005 122.702 83.8615C123.112 84.3515 123.716 84.6395 124.345 84.6395C125.26 84.6395 126.263 83.9745 126.374 82.7395C126.392 82.5875 126.413 82.3825 126.413 82.3825L126.764 79.2475C126.767 79.2205 126.769 79.1945 126.771 79.1665L126.982 76.2075C126.985 76.1635 126.987 76.1185 126.987 76.0745L127.001 73.1235L126.992 72.6275C126.991 72.5705 126.987 72.5135 126.981 72.4565L126.633 69.1145C126.631 69.0935 126.629 69.0725 126.626 69.0515C126.608 68.9265 126.204 65.9695 125.886 64.3785C125.656 63.2795 124.991 62.4615 123.905 61.9315C123.707 61.8365 123.448 61.7115 123.139 61.6175C123.058 61.5915 122.955 61.5525 122.849 61.5135C122.603 61.4225 122.325 61.3195 122.017 61.2435C121.805 61.1895 121.58 61.1255 121.355 61.0615C120.818 60.9095 120.263 60.7515 119.638 60.6475C118.652 60.4785 117.643 60.3775 116.776 60.2965C116.07 60.2325 115.331 60.1975 114.375 60.1825L113.985 60.1765C113.583 60.1705 113.256 60.1655 112.784 60.1655ZM112.784 62.1655C113.385 62.1655 113.744 62.1735 114.342 62.1815C115.095 62.1945 115.841 62.2205 116.591 62.2885C117.495 62.3725 118.414 62.4665 119.31 62.6205C120.074 62.7475 120.787 62.9935 121.54 63.1865C121.866 63.2665 122.231 63.4285 122.555 63.5305C122.719 63.5805 122.879 63.6575 123.028 63.7295C123.473 63.9465 123.811 64.2275 123.925 64.7715C124.234 66.3185 124.643 69.3215 124.643 69.3215L124.992 72.6635L125.001 73.1145L124.987 76.0655L124.776 79.0255L124.423 82.1885C124.423 82.1885 124.4 82.4145 124.384 82.5375C124.381 82.5965 124.373 82.6395 124.345 82.6395C124.32 82.6395 124.273 82.6235 124.223 82.5635C123.932 82.2225 123.537 81.4745 123.305 81.2655C123.161 81.1385 123.022 80.9975 122.909 80.8455C122.306 80.0535 121.493 79.4935 120.707 78.9155C120.375 78.6675 120.038 78.4165 119.703 78.1705C119.642 78.1235 119.579 78.0765 119.512 78.0465C118.936 77.7405 118.381 77.3995 117.786 77.1575C116.942 76.8135 116.02 76.5075 115.152 76.2265C114.914 76.1515 114.565 76.0825 114.378 76.0325C114.195 75.9895 114.018 75.9725 113.827 75.9135C113.67 75.8615 113.534 75.8435 113.448 75.7075C113.368 75.5845 113.329 75.4025 113.324 75.2325C113.321 74.9515 113.321 74.7725 113.312 74.4965C113.268 73.5145 113.213 72.5405 113.172 71.5625C113.094 69.3815 112.712 67.2455 112.349 65.1025C112.228 64.3795 112.103 64.0145 111.993 63.2865C111.937 62.9255 111.836 62.5735 111.976 62.3725C112.126 62.1775 112.466 62.1655 112.784 62.1655Z" fill="white"/>
<path fill-rule="evenodd" clip-rule="evenodd" d="M99.6458 47.742C99.0058 47.742 98.4288 47.709 97.9328 47.644C96.6598 47.485 94.2628 46.872 94.1628 46.846L91.8158 46.002C91.6108 45.928 91.4358 45.788 91.3168 45.605L90.6418 44.561L88.7008 44.122C88.3168 44.122 87.9748 43.904 87.8078 43.573L87.2638 42.954C87.1448 42.896 87.0368 42.815 86.9478 42.714L86.1288 41.788L85.4048 41.74C85.0828 41.718 84.7898 41.541 84.6198 41.265L84.2868 40.723L81.8868 39.913L80.1168 40.602C79.9998 40.648 79.8768 40.67 79.7538 40.67C79.5788 40.67 79.4028 40.624 79.2478 40.532C79.0978 40.445 78.9768 40.321 78.8918 40.176L75.7498 38.647C75.6288 38.628 75.5128 38.594 75.4218 38.541L73.3238 37.328L69.2838 37.092C69.1838 37.125 69.0798 37.141 68.9738 37.141C68.9638 37.141 67.2938 37.096 67.2938 37.096C67.1888 37.132 67.0798 37.15 66.9708 37.15C66.7158 37.15 66.4648 37.053 66.2738 36.867L65.1308 35.759C65.0308 35.719 64.9378 35.662 64.8538 35.591L63.6588 34.566L60.4948 34.402C60.4368 34.413 60.3788 34.419 60.3218 34.419C60.2998 34.419 57.5228 34.195 57.5228 34.195C57.4618 34.19 57.4018 34.179 57.3438 34.163C57.3438 34.163 56.1308 34.068 56.1288 34.068C56.0578 34.068 54.0548 34.019 54.0548 34.019C53.9978 34.018 53.9418 34.012 53.8858 34L53.2028 34.281L51.7638 34.784C51.6748 34.815 51.5828 34.833 51.4888 34.838L51.3968 34.843L48.8348 35.825L47.6928 36.233C47.0378 36.489 46.8378 36.559 46.6948 36.578C46.4958 36.638 46.0868 36.778 46.0868 36.778L44.6238 37.352C44.5068 37.397 44.3838 37.421 44.2588 37.421L43.0598 37.908C42.9388 37.957 42.8108 37.982 42.6818 37.982C42.6648 37.982 42.6178 37.98 42.6108 37.98C42.3438 38.074 41.8718 38.248 41.8718 38.248L41.2878 38.426C41.1928 38.454 41.0958 38.468 40.9998 38.468C40.7508 38.468 40.5068 38.375 40.3188 38.2C40.0598 37.959 39.9468 37.598 40.0238 37.252C40.0968 36.923 40.2328 36.739 41.1178 35.981L41.6258 35.554L43.0418 34.437L44.5688 33.406L45.9888 32.285C46.0148 32.264 46.0428 32.244 46.0708 32.226L46.2838 32.091L47.6518 31.363L48.0488 31.133L49.2798 30.491L50.4708 29.708L52.0048 28.874L52.7388 28.52L54.8998 27.674L56.5258 26.998L57.1438 26.759L57.6088 26.487C57.6848 26.443 57.7668 26.409 57.8518 26.386L58.8258 26.122L59.1618 25.916C59.2428 25.867 59.3308 25.829 59.4218 25.804L60.1738 25.599L61.3658 25.164C61.4748 25.125 61.5898 25.105 61.7058 25.105C61.7158 25.105 61.9358 25.112 61.9358 25.112L63.1298 24.879L63.9188 24.635C63.9528 24.624 63.9868 24.616 64.0208 24.609L65.1298 24.389L66.2908 24.257L67.5958 24.221L69.0908 24.049L70.7668 24L71.7698 24.018L72.3928 24.082L73.8758 24.18C73.9158 24.183 73.9548 24.188 73.9938 24.195L75.1858 24.419L75.7928 24.439C75.8418 24.44 75.8908 24.446 75.9388 24.454L77.3628 24.713L78.1078 24.904L78.2468 24.928L79.2458 25.165C79.2888 25.175 79.3318 25.188 79.3738 25.203L81.7688 26.105L83.3738 26.688L83.8048 26.869L85.8708 27.982L88.7528 29.733L89.5748 30.169C89.6248 30.195 89.6718 30.226 89.7158 30.26L92.1248 32.121L95.1358 34.901L95.9768 35.725L98.6878 38.7C98.7108 38.725 98.7338 38.752 98.7538 38.78L99.2058 39.393L99.6518 39.919L102.057 43.378L102.633 44.277C102.999 44.921 103.22 45.325 103.311 45.511C103.579 45.977 103.622 46.413 103.446 46.82C103.145 47.534 102.462 47.598 102.238 47.62C102.079 47.638 101.901 47.648 101.71 47.657L101.394 47.675C100.913 47.709 100.294 47.742 99.6468 47.742H99.6458Z" fill="#CE1141"/>
<path fill-rule="evenodd" clip-rule="evenodd" d="M70.7943 23C70.7763 23 70.7583 23 70.7403 23L69.1493 23.043C69.0923 23.045 69.0363 23.049 68.9793 23.056L67.4843 23.224L66.3523 23.252C66.2943 23.253 66.2383 23.257 66.1813 23.264L65.1053 23.383C65.0483 23.389 64.9923 23.397 64.9363 23.409L63.8273 23.628C63.7593 23.642 63.6913 23.659 63.6253 23.68L62.8873 23.908L61.8543 24.109L61.7693 24.106C61.7483 24.105 61.7273 24.105 61.7073 24.105C61.4753 24.105 61.2443 24.146 61.0263 24.225L59.8333 24.656L59.1593 24.839C58.9773 24.889 58.8023 24.964 58.6413 25.063L58.4263 25.194L57.5903 25.421C57.4203 25.467 57.2573 25.535 57.1063 25.624L56.7103 25.854L56.1893 26.056C56.1733 26.062 56.1573 26.068 56.1423 26.075L54.4953 26.759L52.4453 27.559C52.3983 27.577 52.3523 27.597 52.3063 27.619L51.6153 27.951C51.5863 27.965 51.5573 27.979 51.5293 27.995L50.0663 28.786C50.0173 28.812 49.9703 28.84 49.9243 28.871L48.7313 29.649L47.6263 30.225C47.6003 30.238 47.5753 30.252 47.5493 30.267L47.1523 30.496L45.8843 31.168C45.8373 31.193 45.7913 31.22 45.7463 31.249L45.5333 31.384C45.4773 31.42 45.4233 31.458 45.3713 31.499L43.9493 32.618L42.7843 33.403L42.5463 33.563C42.5043 33.591 42.4633 33.621 42.4233 33.652L41.0313 34.749L40.9833 34.789L40.4823 35.209C39.6213 35.947 39.2063 36.327 39.0483 37.03C38.8933 37.724 39.1173 38.447 39.6373 38.932C40.0123 39.281 40.5013 39.468 41.0003 39.468C41.1923 39.468 41.3863 39.44 41.5753 39.384L42.1013 39.226C42.1403 39.214 42.1783 39.201 42.2173 39.187C42.2193 39.186 42.5303 39.071 42.7843 38.98C43.0083 38.968 43.2293 38.919 43.4383 38.834L44.4793 38.409C44.6533 38.39 44.8253 38.348 44.9883 38.283L46.4543 37.709C46.5503 37.676 46.7823 37.598 46.9363 37.551C47.2003 37.499 47.4983 37.384 48.0583 37.165L49.1503 36.775L51.6123 35.832C51.7763 35.817 51.9383 35.783 52.0933 35.729L53.4823 35.245C53.5163 35.233 53.5493 35.22 53.5833 35.206L54.0383 35.02C54.1563 35.022 55.6763 35.059 56.1003 35.069L57.2103 35.156C57.2893 35.173 57.3683 35.186 57.4423 35.192L60.1753 35.413C60.2303 35.417 60.2833 35.419 60.3373 35.419C60.4123 35.419 60.4853 35.416 60.5593 35.407L63.2663 35.547L64.2033 36.35C64.3113 36.443 64.4283 36.523 64.5513 36.59L65.5793 37.586C65.9603 37.956 66.4623 38.15 66.9713 38.15C67.1203 38.15 67.2693 38.133 67.4163 38.1L68.9193 38.141C68.9383 38.141 68.9563 38.142 68.9743 38.142C69.1113 38.142 69.2483 38.127 69.3803 38.1L73.0283 38.313L74.9213 39.407C75.0953 39.507 75.2823 39.581 75.4743 39.625L78.2323 40.968C78.3763 41.135 78.5463 41.28 78.7413 41.395C79.0523 41.578 79.4033 41.67 79.7543 41.67C80.0003 41.67 80.2463 41.625 80.4803 41.534L81.9113 40.977L83.6253 41.555L83.7693 41.79C84.1083 42.341 84.6933 42.695 85.3393 42.738L85.6533 42.759L86.1983 43.376C86.3233 43.519 86.4673 43.641 86.6253 43.741L86.9873 44.153C87.3213 44.709 87.9153 45.08 88.5843 45.119L90.0233 45.446L90.4773 46.148C90.7143 46.515 91.0653 46.794 91.4753 46.942L93.7303 47.759C93.7913 47.781 93.8523 47.799 93.9143 47.815C94.1743 47.882 96.4963 48.473 97.8153 48.637C98.3423 48.706 98.9613 48.742 99.6453 48.742C100.2 48.742 100.794 48.719 101.463 48.673C101.565 48.666 101.663 48.661 101.757 48.656C101.972 48.646 102.172 48.634 102.351 48.613C103.641 48.492 104.172 47.673 104.373 47.196C104.575 46.73 104.714 45.959 104.196 45.043C104.117 44.886 103.947 44.567 103.534 43.833C103.515 43.801 103.496 43.768 103.475 43.736L102.919 42.869C102.906 42.849 102.892 42.828 102.878 42.808L100.53 39.424C100.495 39.373 100.457 39.323 100.417 39.276L99.9723 38.748L99.5603 38.188C99.5193 38.131 99.4753 38.078 99.4283 38.026L98.6533 37.175L96.7553 35.092C96.7303 35.064 96.7053 35.038 96.6773 35.012L95.8593 34.208C95.8453 34.194 95.8313 34.18 95.8163 34.167L92.8733 31.445C92.8293 31.405 92.7843 31.367 92.7373 31.331L90.3283 29.469C90.2393 29.4 90.1443 29.339 90.0443 29.286L89.2233 28.85L86.4343 27.153C86.4063 27.136 86.3773 27.119 86.3473 27.103L84.3663 26.031C84.3103 26 84.2533 25.973 84.1953 25.948L83.8133 25.787C83.7813 25.773 83.7493 25.76 83.7153 25.748L82.0993 25.162L79.7263 24.268C79.6433 24.237 79.5583 24.211 79.4713 24.191L79.2863 24.148L78.5313 23.966C78.4983 23.958 78.4643 23.951 78.4313 23.944L78.2943 23.918L77.6873 23.761C77.6393 23.749 77.5903 23.738 77.5423 23.729L76.1173 23.471C76.0203 23.453 75.9223 23.442 75.8253 23.439L75.2943 23.422L74.1793 23.212C74.1013 23.198 74.0223 23.188 73.9433 23.183L72.4613 23.083L71.9673 23.03C71.9083 23.023 71.8493 23.02 71.7893 23.018L70.8323 23H70.7943ZM70.7943 25L71.7513 25.018L72.2853 25.076L73.8103 25.178L75.0773 25.416L75.7603 25.438L77.1843 25.697L77.8573 25.872L78.0613 25.91L78.8363 26.097L79.0213 26.14L81.4173 27.042L83.0333 27.628L83.4153 27.79L85.3953 28.862L88.2343 30.588L89.1053 31.052L91.5143 32.913L94.4583 35.635L95.2773 36.439L97.1743 38.522L97.9493 39.373L98.4003 39.986L98.8873 40.564L101.236 43.948L101.792 44.816C101.792 44.816 102.362 45.827 102.425 45.976C102.469 46.058 102.605 46.245 102.528 46.423C102.453 46.602 102.295 46.61 102.124 46.626C101.894 46.653 101.623 46.657 101.324 46.678C100.862 46.71 100.268 46.742 99.6453 46.742C99.1173 46.742 98.5683 46.719 98.0623 46.653C96.8323 46.499 94.4113 45.878 94.4113 45.878L92.1573 45.062L91.2603 43.676L88.8233 43.123H88.7013L88.6873 43.059L87.8073 42.056L87.6973 42.052L86.6073 40.818L85.4723 40.742L84.9503 39.892L81.8633 38.85L79.7543 39.67L79.7273 39.471L76.0143 37.663L75.9233 37.676L73.8203 36.46L73.7933 36.354L69.0683 36.078L68.9743 36.142L67.0953 36.09L66.9713 36.15L65.6073 34.828L65.5053 34.832L64.1663 33.684L64.1443 33.59L60.3683 33.395L60.3373 33.419L57.6043 33.198L57.5603 33.178L56.2103 33.071C56.1823 33.071 54.0803 33.02 54.0803 33.02L53.9223 32.905L52.8233 33.356L51.4353 33.84L51.1863 33.854L48.4783 34.891L47.3573 35.291C47.3573 35.291 46.6053 35.585 46.5573 35.585C46.5563 35.585 46.5553 35.585 46.5553 35.584C46.5553 35.583 46.5543 35.583 46.5513 35.583C46.4973 35.583 45.7663 35.831 45.7663 35.831L44.2593 36.421H44.0573L42.6823 36.982C42.6823 36.982 42.5163 36.974 42.4973 36.966C42.4963 36.966 42.4963 36.966 42.4963 36.966C42.4603 36.966 41.5253 37.311 41.5253 37.311L41.0003 37.468C41.0193 37.382 41.7693 36.741 41.7693 36.741L42.2703 36.32L43.6613 35.223L43.9023 35.062L45.1273 34.236L46.6073 33.071L46.8203 32.936L48.1213 32.247L48.5493 31.999L49.7423 31.378L51.0173 30.545L52.4813 29.754L53.1723 29.422L55.2633 28.606L56.9103 27.921L57.5793 27.663L58.1133 27.351L59.2253 27.05L59.6843 26.769L60.4373 26.564L61.7063 26.105L62.0163 26.115L63.3753 25.851L64.2153 25.59L65.3253 25.371L66.4013 25.251L67.6213 25.221L69.2033 25.043L70.7943 25Z" fill="white"/>
<path fill-rule="evenodd" clip-rule="evenodd" d="M123.011 62.785C122.835 62.785 122.636 62.744 122.507 62.706L122.346 62.66C122.068 62.579 121.796 62.497 121.541 62.381C121.069 62.161 120.555 61.992 120.054 61.889L119.533 61.778C119.03 61.67 118.524 61.562 118.02 61.468C117.747 61.424 117.141 61.361 117.136 61.36C116.337 61.286 115.358 61.205 115.19 61.204C114.293 61.22 113.396 61.246 112.498 61.276C112.244 61.288 111.973 61.298 111.702 61.298C110.962 61.298 110.405 60.862 110.233 60.16L110.106 59.673C110.05 59.455 109.994 59.24 109.934 59.025L109.577 57.872L109.236 56.797C109.075 56.29 108.914 55.782 108.749 55.277C108.651 54.98 108.522 54.68 108.391 54.385C108.236 54.026 108.098 53.675 107.961 53.325C107.71 52.684 107.474 52.079 107.163 51.513C106.916 51.054 106.699 50.584 106.484 50.116L106.202 49.511C106.127 49.36 106.066 49.174 106.027 48.973C105.955 48.57 106.03 48.236 106.247 47.934C106.505 47.619 106.772 47.511 106.915 47.453C107.065 47.391 107.581 47.152 107.581 47.152L108.271 46.751C108.268 46.751 108.737 46.441 108.851 46.356C108.995 46.249 109.647 45.711 109.675 45.689H109.674C109.672 45.689 110.482 44.942 110.87 44.513C111.125 44.23 111.82 43.157 112.231 42.486C112.356 42.281 112.549 42.131 112.771 42.058C112.879 42.021 112.996 42 113.108 42C113.513 42 113.846 42.185 114.099 42.55C114.243 42.718 114.575 43.116 114.575 43.116L118.195 48.009L118.734 48.882L119.49 50.394L120.239 51.612C120.26 51.648 120.28 51.685 120.297 51.723L120.955 53.186L121.495 54.484L122.64 57.035L123.04 58.145L123.446 59.355L123.589 59.903L123.703 60.204C123.751 60.335 124 61.027 124.074 61.454C124.153 61.921 123.936 62.52 123.384 62.721L123.383 62.719C123.263 62.762 123.13 62.785 123.011 62.785Z" fill="#CE1141"/>
<path fill-rule="evenodd" clip-rule="evenodd" d="M113.109 41C112.894 41 112.674 41.037 112.466 41.106C112.02 41.251 111.631 41.551 111.38 41.963C110.884 42.771 110.297 43.653 110.124 43.85C109.845 44.157 109.24 44.728 108.998 44.953C108.852 45.072 108.394 45.448 108.263 45.547C108.152 45.629 107.848 45.831 107.723 45.914L107.084 46.281C106.943 46.346 106.66 46.476 106.566 46.516C106.354 46.602 105.902 46.784 105.525 47.236C105.493 47.275 105.462 47.314 105.432 47.355C105.059 47.877 104.926 48.471 105.038 49.121C105.102 49.454 105.193 49.727 105.317 49.975C105.395 50.14 105.488 50.34 105.58 50.541C105.796 51.009 106.018 51.493 106.279 51.979C106.568 52.504 106.793 53.08 107.031 53.689C107.172 54.05 107.314 54.413 107.469 54.771C107.589 55.042 107.715 55.335 107.803 55.598C107.961 56.079 108.117 56.573 108.273 57.066C108.392 57.444 108.512 57.822 108.633 58.198C108.678 58.349 108.738 58.54 108.797 58.73C108.859 58.926 108.921 59.122 108.978 59.319C109.032 59.505 109.084 59.71 109.136 59.916C109.18 60.086 109.224 60.258 109.271 60.43C109.558 61.549 110.526 62.298 111.69 62.298C111.991 62.298 112.278 62.288 112.565 62.274C113.424 62.246 114.317 62.22 115.218 62.204C115.365 62.209 116.301 62.288 117.058 62.357C117.057 62.357 117.612 62.415 117.885 62.459C118.327 62.542 118.817 62.647 119.305 62.751L119.845 62.867C120.273 62.955 120.724 63.104 121.121 63.287C121.47 63.447 121.8 63.542 122.066 63.62L122.219 63.664C122.354 63.704 122.672 63.785 123.013 63.785C123.254 63.785 123.506 63.74 123.739 63.655L123.74 63.656C124.798 63.263 125.211 62.139 125.061 61.281C124.976 60.797 124.74 60.125 124.642 59.857L124.536 59.561L124.434 59.17C124.422 59.126 124.41 59.082 124.395 59.039L123.997 57.848L123.613 56.771C123.595 56.722 123.576 56.674 123.554 56.626L122.409 54.075L121.891 52.829C121.884 52.812 121.877 52.793 121.869 52.776L121.211 51.313C121.175 51.236 121.137 51.163 121.093 51.091L120.348 49.872L120.203 49.576L119.671 48.51C119.645 48.459 119.617 48.409 119.587 48.36L119.097 47.56C119.067 47.511 119.035 47.463 119.001 47.416L118.793 47.135L115.418 42.568C115.394 42.536 115.37 42.504 115.344 42.474C115.344 42.474 115.073 42.15 114.89 41.937C114.313 41.125 113.528 41 113.109 41ZM113.109 43C113.217 43 113.242 43.076 113.32 43.178C113.486 43.369 113.809 43.756 113.809 43.756L117.184 48.324L117.392 48.604L117.881 49.404L118.41 50.462L118.595 50.837L119.386 52.133L120.045 53.597L120.573 54.868L121.729 57.445L122.1 58.482L122.499 59.673L122.623 60.153L122.764 60.544C122.764 60.544 123.028 61.265 123.09 61.625C123.098 61.672 123.066 61.773 123.044 61.781C123.038 61.784 123.027 61.785 123.013 61.785C122.961 61.785 122.859 61.768 122.792 61.748C122.505 61.662 122.219 61.59 121.959 61.471C121.425 61.225 120.833 61.028 120.257 60.91C119.575 60.766 118.888 60.612 118.205 60.485C117.889 60.434 117.243 60.366 117.243 60.366C117.243 60.366 115.487 60.204 115.192 60.204H115.181C114.271 60.221 113.37 60.247 112.467 60.276C112.213 60.289 111.959 60.298 111.704 60.298H111.69C111.438 60.298 111.268 60.183 111.206 59.923C111.098 59.528 111.006 59.136 110.896 58.75C110.78 58.359 110.653 57.972 110.537 57.584C110.257 56.717 109.986 55.837 109.701 54.966C109.59 54.634 109.45 54.302 109.305 53.978C108.88 52.992 108.561 51.979 108.042 51.032C107.701 50.399 107.416 49.73 107.106 49.081C107.059 48.986 107.029 48.884 107.009 48.783C106.987 48.654 107.004 48.596 107.059 48.519C107.123 48.443 107.234 48.404 107.328 48.365C107.422 48.328 108.003 48.06 108.003 48.06L108.774 47.617C108.774 47.617 109.331 47.248 109.455 47.154C109.583 47.061 110.312 46.46 110.312 46.46C110.312 46.46 111.181 45.661 111.613 45.185C112.047 44.701 113.085 43.008 113.085 43.008C113.092 43.008 113.101 43 113.109 43Z" fill="white"/>
<path fill-rule="evenodd" clip-rule="evenodd" d="M105.392 47.228C104.907 47.228 104.407 46.946 104.12 46.509L104.003 46.344C103.816 46.077 103.603 45.774 103.437 45.424C103.238 44.993 102.956 44.57 102.545 44.082C102.069 43.505 101.697 42.898 101.337 42.311C101.223 42.125 101.109 41.939 100.993 41.755C100.955 41.699 100.917 41.631 100.88 41.562C100.563 41.173 100.289 40.82 100.016 40.467C99.5948 39.924 99.1978 39.411 98.7438 38.962C98.2558 38.473 97.8358 37.943 97.4888 37.49C97.1478 37.046 96.7408 36.645 96.3078 36.221L96.0948 36.01C95.4238 35.371 94.9128 34.858 94.4498 34.359C94.1738 34.061 93.8338 33.8 93.4738 33.523C93.2868 33.379 93.0988 33.235 92.9158 33.084C92.9158 33.084 92.4978 32.728 92.4348 32.671C92.3808 32.622 92.3298 32.567 92.2698 32.53C91.6978 32.211 91.2548 31.827 90.8828 31.491C90.4568 31.088 89.9938 30.737 89.4898 30.432C88.5688 29.886 87.6438 29.345 86.7058 28.807C86.5408 28.708 86.3648 28.635 86.1178 28.561C85.7928 28.467 85.4928 28.329 85.2268 28.207C85.0998 28.149 84.9728 28.091 84.8428 28.039C84.5448 27.918 84.2468 27.805 83.9498 27.692C83.6308 27.571 83.3128 27.45 82.9978 27.323C82.9018 27.289 82.6248 27.151 82.6248 27.151C82.5118 27.096 82.4188 27.023 82.3348 26.93L82.2578 26.844C81.9018 26.45 81.9158 25.845 82.2918 25.468L82.4658 25.294C82.6548 25.105 82.9098 25 83.1738 25C83.2058 25 83.2388 25.001 83.2718 25.005L83.5808 25.035C83.6198 25.039 83.6568 25.044 83.6938 25.053L85.6658 25.477L87.7348 26C87.8178 26.025 90.4148 26.927 90.6508 27V27.003C90.7988 27.047 91.0518 27.136 91.5628 27.314L91.5598 27.323C91.8478 27.419 92.4508 27.655 93.9408 28.241L98.4158 30.356L104.094 33.761C104.146 33.792 104.195 33.828 104.24 33.867L105.355 34.847C105.607 35.043 105.793 35.187 105.929 35.309L105.935 35.303C106.002 35.359 109.156 37.912 109.156 37.912L109.375 38.1L110.042 38.756C110.086 38.799 110.126 38.847 110.162 38.898L110.459 39.328L110.912 39.847C110.955 39.897 110.994 39.951 111.027 40.009L111.202 40.316C111.512 40.787 111.558 41.008 111.578 41.102C111.643 41.432 111.569 41.796 111.358 42.191L110.593 43.474C110.576 43.505 110.556 43.534 110.535 43.562L110.1 44.141C109.995 44.267 109.414 44.941 109.095 45.242C108.875 45.438 108.589 45.655 108.362 45.826C108.257 45.905 108.167 45.971 108.121 46.011C107.916 46.205 107.493 46.432 107.26 46.548L106.516 46.877L106.094 47.051C105.955 47.111 105.726 47.196 105.517 47.221C105.478 47.226 105.432 47.228 105.392 47.228Z" fill="#CE1141"/>
<path fill-rule="evenodd" clip-rule="evenodd" d="M83.1741 24C82.6471 24 82.1371 24.209 81.7601 24.585L81.5861 24.76C80.8331 25.512 80.8021 26.723 81.5141 27.513L81.5921 27.599C81.7561 27.782 81.9541 27.933 82.1741 28.044C82.3021 28.109 82.4821 28.196 82.6471 28.259C82.9601 28.385 83.2761 28.505 83.5931 28.626C83.8851 28.737 84.1771 28.848 84.4681 28.965C84.5831 29.012 84.6951 29.064 84.8081 29.116C85.0911 29.246 85.4441 29.407 85.8511 29.524C85.9941 29.568 86.1031 29.611 86.1831 29.658C87.1411 30.209 88.0621 30.748 88.9861 31.297C89.4151 31.557 89.8211 31.864 90.1781 32.202C90.6161 32.598 91.0981 33.015 91.7101 33.363C91.7281 33.379 91.7441 33.395 91.7621 33.41C91.8371 33.479 91.9121 33.546 91.9891 33.61L92.0861 33.692L92.2371 33.82C92.2511 33.832 92.2651 33.844 92.2781 33.855C92.4701 34.014 92.6671 34.166 92.8641 34.317C93.2041 34.577 93.4971 34.802 93.7141 35.037C94.1941 35.553 94.7191 36.08 95.4191 36.748L95.6131 36.939C96.0171 37.337 96.3991 37.712 96.6941 38.098C97.0621 38.577 97.5071 39.136 98.0271 39.66C98.4471 40.076 98.8251 40.564 99.2271 41.082C99.4791 41.408 99.7391 41.744 100.023 42.08C100.073 42.17 100.116 42.243 100.162 42.314C100.263 42.472 100.374 42.654 100.486 42.836C100.863 43.452 101.254 44.089 101.77 44.713C102.132 45.144 102.368 45.496 102.524 45.833C102.736 46.281 102.986 46.637 103.188 46.923L103.306 47.092C103.761 47.781 104.568 48.228 105.392 48.228C105.417 48.228 105.451 48.228 105.477 48.226C105.528 48.224 105.578 48.22 105.629 48.214C105.896 48.184 106.192 48.099 106.509 47.961L106.868 47.814C106.886 47.807 106.903 47.799 106.921 47.792C106.922 47.792 107.427 47.568 107.608 47.489C107.641 47.475 107.675 47.459 107.707 47.443C108.168 47.212 108.526 46.986 108.772 46.771C108.819 46.733 108.887 46.682 108.966 46.623C109.202 46.445 109.497 46.223 109.738 46.008C109.752 45.996 109.765 45.984 109.778 45.972C110.121 45.65 110.661 45.025 110.82 44.841C110.847 44.809 110.873 44.776 110.899 44.742L111.333 44.164C111.376 44.107 111.415 44.048 111.452 43.987L112.194 42.745C112.209 42.718 112.225 42.69 112.239 42.663C112.462 42.246 112.698 41.603 112.558 40.907C112.509 40.665 112.408 40.341 112.041 39.771L111.898 39.517C111.831 39.4 111.753 39.291 111.665 39.189L111.249 38.712L110.984 38.329C110.913 38.227 110.833 38.132 110.745 38.045L110.131 37.438C110.097 37.404 110.063 37.372 110.027 37.341L109.835 37.177C109.82 37.163 109.803 37.149 109.785 37.135L107.992 35.683C107.278 35.105 106.659 34.604 106.574 34.534L106.566 34.544C106.394 34.388 106.194 34.231 105.97 34.057L104.899 33.116C104.809 33.037 104.712 32.966 104.609 32.904L99.0181 29.546C98.9621 29.512 98.9031 29.48 98.8441 29.453L94.4311 27.364C94.3901 27.344 94.3491 27.326 94.3061 27.31C92.9361 26.772 92.2671 26.509 91.8871 26.381L91.8911 26.37C91.4221 26.206 91.1411 26.107 90.9491 26.048L90.9501 26.046C90.7761 25.99 89.3741 25.507 88.1461 25.08C88.0911 25.061 88.0361 25.045 87.9811 25.031L85.9471 24.516C85.9241 24.51 85.9011 24.505 85.8771 24.5L83.9041 24.075C83.8301 24.059 83.7541 24.047 83.6791 24.04L83.3691 24.009C83.3041 24.003 83.2381 24 83.1741 24ZM83.1741 26L83.4841 26.03L85.4561 26.455L87.4891 26.97C87.4891 26.97 90.3431 27.96 90.3721 27.96C90.3801 27.96 91.2331 28.258 91.2331 28.258C91.2491 28.258 93.5751 29.171 93.5751 29.171L97.9881 31.26L103.579 34.619L104.695 35.598C104.695 35.598 105.288 36.061 105.288 36.065C105.294 36.074 107.446 37.813 108.526 38.688C108.589 38.743 108.725 38.859 108.725 38.859L109.339 39.467L109.668 39.943L110.157 40.504L110.332 40.811C110.332 40.811 110.571 41.176 110.597 41.304C110.625 41.441 110.476 41.72 110.476 41.72L109.735 42.962L109.3 43.541C109.3 43.541 108.699 44.241 108.409 44.514C108.108 44.783 107.585 45.147 107.457 45.262C107.336 45.377 106.982 45.569 106.813 45.654C106.628 45.734 106.111 45.963 106.111 45.963L105.715 46.125C105.715 46.125 105.507 46.215 105.4 46.228H105.392C105.277 46.228 105.072 46.139 104.954 45.959C104.741 45.649 104.503 45.34 104.34 44.996C104.077 44.425 103.712 43.915 103.311 43.438C102.741 42.749 102.312 41.968 101.836 41.219C101.759 41.101 101.706 40.963 101.612 40.861C100.876 40.002 100.254 39.05 99.4461 38.251C99.0231 37.825 98.6471 37.357 98.2811 36.881C97.8391 36.303 97.3141 35.81 96.7981 35.299C96.2451 34.772 95.7001 34.237 95.1831 33.679C94.6961 33.152 94.0991 32.765 93.5541 32.314C93.4571 32.23 93.3581 32.148 93.2631 32.068C93.0891 31.924 92.9281 31.744 92.7321 31.644C92.2951 31.4 91.9211 31.082 91.5541 30.75C91.0771 30.299 90.5611 29.912 90.0071 29.577C89.0741 29.023 88.1461 28.48 87.2041 27.939C86.9531 27.79 86.6911 27.689 86.4051 27.603C85.9931 27.484 85.6141 27.271 85.2161 27.111C84.6021 26.863 83.9821 26.642 83.3731 26.396C83.2771 26.361 83.0771 26.26 83.0771 26.26L83.0001 26.174L83.1741 26Z" fill="white"/>
<path fill-rule="evenodd" clip-rule="evenodd" d="M25.4094 81.781C25.2834 81.781 25.1564 81.758 25.0344 81.708C25.0184 81.702 25.0034 81.695 24.9884 81.687C24.6774 81.555 24.3714 81.243 24.3034 80.537L24.1934 78.857L24.0874 78.623C24.0264 78.486 23.9964 78.337 24.0004 78.186L24.1744 71.528C24.1754 71.492 24.1784 71.457 24.1824 71.422L24.5874 68.386L24.6804 66.988C24.6834 66.938 24.6904 66.888 24.7014 66.839L24.9724 65.622L25.4304 62.861L25.7374 61.42C25.7514 61.356 25.7704 61.294 25.7974 61.234L26.4364 59.751L26.5054 59.185C26.5384 58.909 26.6844 58.66 26.9094 58.496L28.5714 57.284L32.2484 54.551L35.5364 52.182L37.6134 50.595C37.7134 50.439 37.8554 50.311 38.0264 50.229L39.0204 49.752L39.4454 49.318C39.6394 49.119 39.8994 49.017 40.1604 49.017C40.3774 49.017 40.5954 49.088 40.7774 49.231L40.7804 49.233C41.3494 49.326 42.7204 49.552 43.2054 49.627C43.7394 49.454 44.6134 49.233 46.0724 48.864C46.1534 48.843 46.2354 48.833 46.3174 48.833C46.4134 48.833 46.5094 48.847 46.6024 48.875L46.9394 48.975C46.9714 48.971 47.0044 48.97 47.0374 48.97C47.1844 48.97 47.3304 49.002 47.4674 49.067L48.5864 49.599L49.4204 48.94C49.4784 48.846 49.5484 48.763 49.6264 48.703L53.9204 45.386C54.0994 45.248 54.3154 45.177 54.5314 45.177C54.7054 45.177 54.8804 45.223 55.0374 45.315L55.1724 45.394L56.0914 45.424C56.1774 45.427 56.2624 45.441 56.3444 45.465L60.0304 45.442C60.1374 45.404 60.2494 45.385 60.3634 45.385C60.3944 45.385 60.4254 45.386 60.4564 45.389L62.3594 45.568C62.4164 45.514 62.4794 45.466 62.5494 45.426L67.1554 42.767C67.3104 42.677 67.4834 42.634 67.6554 42.634C67.7674 42.634 67.8794 42.653 67.9864 42.69L70.6374 42.49C70.7564 42.427 70.8884 42.389 71.0234 42.378C71.0234 42.378 72.3154 42.277 72.3414 42.277C72.4524 42.277 72.5634 42.296 72.6684 42.332C72.6684 42.332 78.9904 42 79.0084 42C79.1374 42 79.2644 42.025 79.3854 42.074L81.0604 42.756C81.0604 42.756 82.9684 42.617 82.9924 42.617C83.2164 42.617 83.4334 42.693 83.6104 42.831L84.0434 42.98C84.0634 42.979 84.0854 42.978 84.1064 42.978C84.1564 42.978 84.2054 42.982 84.2554 42.989L85.3644 43.156C85.7264 43.21 86.0264 43.457 86.1524 43.793L86.6824 44.272C86.8124 44.305 86.9344 44.364 87.0424 44.446L88.3214 45.419L90.7804 45.611C90.8864 45.574 90.9974 45.555 91.1084 45.555C91.2174 45.555 91.3264 45.573 91.4304 45.609L94.7344 46.741H94.7334C94.7494 46.741 96.6534 47.214 97.4574 47.33L99.7904 47.634H100.638C100.733 47.634 100.827 47.647 100.918 47.674C101.863 47.598 102.501 47.55 102.73 47.55C102.871 47.55 103.333 47.512 103.943 47.442L104.058 47.424C104.193 47.402 104.305 47.389 104.406 47.389C104.642 47.389 104.865 47.448 105.067 47.565C105.441 47.77 105.602 48.073 105.68 48.219L104.853 48.796L105.731 48.317C105.778 48.403 105.81 48.467 105.842 48.544L106.174 49.172C106.62 50.023 107.042 50.827 107.387 51.808C107.424 51.919 107.467 52.011 107.509 52.106C107.559 52.222 107.611 52.339 107.656 52.46C107.722 52.644 107.777 52.817 107.832 52.99C107.913 53.247 107.991 53.504 108.104 53.745C108.371 54.283 108.558 54.844 108.739 55.385C108.816 55.615 108.893 55.846 108.977 56.075C109.196 56.679 109.372 57.261 109.551 57.852C109.649 58.179 109.749 58.508 109.857 58.844C110.036 59.403 109.892 59.799 109.74 60.033C109.588 60.269 109.28 60.565 108.682 60.633C108.197 60.686 107.714 60.732 107.233 60.778L106.61 60.84C105.781 60.925 104.955 61.009 104.128 61.071C102.912 61.172 100.629 61.449 99.9404 61.534L99.8984 61.559C99.7434 61.649 99.5694 61.694 99.3964 61.694C99.2034 61.694 99.0104 61.638 98.8434 61.527C98.8434 61.527 98.2604 61.567 98.2374 61.567C98.1144 61.567 97.9934 61.545 97.8784 61.5L96.4784 60.962L95.0524 60.748C94.9064 60.726 94.7664 60.672 94.6434 60.59L94.6224 60.575L94.6014 60.58C94.5274 60.597 94.4524 60.606 94.3764 60.606C94.2914 60.606 94.2064 60.595 94.1244 60.573L92.2744 60.091L91.9064 60.178C91.8924 60.185 91.2964 60.462 91.2964 60.462C91.2374 60.489 91.1764 60.51 91.1144 60.526C90.9244 60.714 90.6694 60.814 90.4104 60.814C90.2444 60.814 90.0754 60.773 89.9214 60.686L89.0094 60.173L88.9444 60.171C88.8014 60.168 88.6594 60.133 88.5304 60.07L87.6844 59.656L87.5454 59.7C87.4854 59.741 87.4234 59.776 87.3594 59.8L84.1424 61.028C84.0394 61.139 83.9104 61.226 83.7654 61.281L82.7284 61.673C82.6504 61.744 82.5604 61.802 82.4644 61.845L81.2834 62.372C81.1804 62.418 81.0724 62.446 80.9614 62.456L80.3954 62.71C80.2644 62.849 80.0964 62.949 79.9084 62.996L79.5134 63.094C79.4334 63.114 79.3524 63.123 79.2714 63.123C79.1564 63.123 79.0414 63.103 78.9314 63.064L76.8724 62.965C76.7084 63.081 76.5134 63.145 76.3124 63.148L73.4744 63.197C73.3334 63.269 73.1774 63.305 73.0214 63.305C72.7914 63.305 72.5614 63.227 72.3734 63.067L71.2284 62.092L70.3444 62.242C70.2254 62.313 70.0934 62.359 69.9544 62.376L68.7174 62.528C68.5564 62.629 68.3724 62.68 68.1864 62.68C68.0414 62.68 67.8954 62.649 67.7594 62.585L66.1544 61.826L63.3324 62.188L61.3674 64.059C61.3054 64.118 61.2364 64.169 61.1614 64.21L58.5624 66.862C58.4224 67.006 58.2414 67.104 58.0444 67.143L56.5314 67.446C56.4664 67.459 56.4014 67.465 56.3354 67.465C56.3044 67.465 56.2724 67.464 56.2404 67.461L54.3014 67.277C54.1754 67.264 54.0554 67.229 53.9464 67.174L49.7164 67.115L48.2164 68.143L46.6914 69.088L46.3614 69.523C46.1674 69.777 45.8704 69.917 45.5644 69.917C45.4494 69.917 45.3314 69.897 45.2184 69.855L45.1814 69.842H44.2964C44.1864 69.899 44.0664 69.936 43.9424 69.95L40.5294 70.333L39.2514 71.799C39.0734 72.004 38.8194 72.127 38.5484 72.14L36.4694 72.247L34.1444 73.184L26.1284 81.476C25.9364 81.675 25.6754 81.781 25.4094 81.781Z" fill="#CE1141"/>
<path fill-rule="evenodd" clip-rule="evenodd" d="M79.0087 41C78.9737 41 78.9387 41.001 78.9037 41.003L72.7757 41.325C72.6337 41.293 72.4877 41.277 72.3417 41.277C72.2887 41.277 72.2367 41.279 72.1837 41.283L70.9447 41.381C70.7537 41.396 70.5677 41.438 70.3907 41.506L68.0827 41.68C67.9427 41.649 67.7987 41.633 67.6547 41.633C67.3117 41.633 66.9667 41.722 66.6547 41.901L62.0877 44.538L60.5497 44.394C60.4877 44.388 60.4247 44.385 60.3627 44.385C60.2017 44.385 60.0417 44.404 59.8857 44.442L56.4597 44.464C56.3497 44.442 56.2377 44.428 56.1237 44.425L55.4527 44.402C55.1627 44.252 54.8467 44.177 54.5307 44.177C54.0977 44.177 53.6667 44.318 53.3087 44.595L49.0147 47.912C48.8807 48.016 48.7607 48.135 48.6577 48.267L48.4537 48.429L47.8957 48.164C47.6337 48.04 47.3527 47.975 47.0707 47.97L46.8857 47.916C46.7007 47.861 46.5087 47.833 46.3177 47.833C46.1527 47.833 45.9877 47.854 45.8267 47.894C45.8267 47.894 45.0577 48.089 44.2877 48.288C43.8367 48.404 43.4517 48.503 43.1247 48.601C42.6827 48.531 41.9207 48.407 41.1517 48.28C40.8437 48.104 40.5017 48.017 40.1597 48.017C39.6377 48.017 39.1187 48.22 38.7287 48.619L38.4287 48.927L37.5927 49.327C37.3167 49.46 37.0767 49.653 36.8907 49.889L34.9287 51.387L31.6757 53.73L27.9667 56.487L26.3197 57.688C25.8707 58.015 25.5787 58.513 25.5117 59.064L25.4607 59.486L24.8787 60.837C24.8257 60.957 24.7867 61.083 24.7587 61.211L24.4607 62.606C24.4537 62.636 24.4477 62.667 24.4437 62.697L23.9847 65.458L23.7247 66.62C23.7027 66.719 23.6887 66.819 23.6817 66.92L23.5867 68.317L23.1917 71.29C23.1817 71.36 23.1757 71.431 23.1747 71.501L23.0007 78.16C22.9927 78.46 23.0517 78.758 23.1757 79.032L23.2067 79.102L23.3027 80.571C23.3037 80.591 23.3057 80.611 23.3077 80.631C23.4017 81.616 23.8467 82.146 24.2787 82.43C24.3957 82.511 24.5237 82.58 24.6587 82.635C24.9027 82.733 25.1567 82.781 25.4087 82.781C25.9407 82.781 26.4627 82.569 26.8467 82.171L34.7157 74.032L36.6877 73.236L38.5987 73.139C39.1407 73.111 39.6477 72.865 40.0037 72.456L41.0277 71.283L44.0537 70.943C44.2057 70.926 44.3547 70.892 44.4977 70.841H45.0187C45.1987 70.893 45.3827 70.917 45.5647 70.917C46.1767 70.917 46.7707 70.636 47.1567 70.128L47.3757 69.841L48.7027 69.019C48.7297 69.003 48.7557 68.986 48.7807 68.968L50.0197 68.119L53.7417 68.171C53.8907 68.223 54.0457 68.257 54.2067 68.272L56.1457 68.456C56.2087 68.462 56.2717 68.465 56.3347 68.465C56.4667 68.465 56.5977 68.452 56.7277 68.426L58.2407 68.123C58.6337 68.044 58.9957 67.849 59.2767 67.562L61.7897 64.997C61.8837 64.934 61.9737 64.862 62.0567 64.783L63.7847 63.138L65.9907 62.855L67.3317 63.488C67.6047 63.617 67.8957 63.68 68.1857 63.68C68.4727 63.68 68.7587 63.618 69.0217 63.498L70.0757 63.368C70.2797 63.343 70.4787 63.287 70.6637 63.202L70.9357 63.156L71.7247 63.828C72.1017 64.148 72.5617 64.305 73.0207 64.305C73.2447 64.305 73.4687 64.268 73.6817 64.193L76.3287 64.147C76.5977 64.143 76.8617 64.084 77.1047 63.977L78.7587 64.056C78.9257 64.101 79.0987 64.123 79.2717 64.123C79.4327 64.123 79.5947 64.104 79.7537 64.064L80.1497 63.966C80.4477 63.891 80.7237 63.75 80.9547 63.555L81.2427 63.425C81.3967 63.396 81.5467 63.35 81.6907 63.286L82.8717 62.759C82.9977 62.702 83.1167 62.633 83.2287 62.553L84.1187 62.216C84.3227 62.139 84.5117 62.03 84.6787 61.894L87.6577 60.756L88.0917 60.968C88.2877 61.064 88.4987 61.127 88.7147 61.155L89.4307 61.558C89.7387 61.731 90.0757 61.814 90.4097 61.814C90.8397 61.814 91.2647 61.676 91.6137 61.413C91.6487 61.399 91.6827 61.385 91.7167 61.369L92.2407 61.126L92.2627 61.121L93.8707 61.541C94.0357 61.584 94.2057 61.605 94.3757 61.605C94.3937 61.605 94.4117 61.605 94.4297 61.604C94.5807 61.668 94.7397 61.712 94.9047 61.737L96.2217 61.934L97.5197 62.434C97.7487 62.522 97.9917 62.567 98.2377 62.567C98.2827 62.567 98.3287 62.565 98.3747 62.562C98.3747 62.562 98.4897 62.554 98.6367 62.544C98.8797 62.644 99.1387 62.694 99.3977 62.694C99.6877 62.694 99.9787 62.631 100.248 62.504C101.089 62.401 103.108 62.159 104.218 62.066C105.055 62.004 105.908 61.917 106.734 61.832L107.143 61.791L107.362 61.77C107.836 61.725 108.315 61.68 108.792 61.626C109.834 61.508 110.36 60.917 110.581 60.576C110.801 60.235 111.123 59.517 110.809 58.539C110.704 58.211 110.607 57.89 110.511 57.571C110.333 56.982 110.15 56.375 109.92 55.74C109.835 55.509 109.761 55.287 109.687 55.064C109.504 54.519 109.298 53.901 108.994 53.286C108.934 53.157 108.862 52.928 108.784 52.686C108.727 52.501 108.667 52.317 108.602 52.135C108.541 51.97 108.482 51.834 108.422 51.699C108.393 51.633 108.362 51.569 108.338 51.5C107.961 50.426 107.501 49.55 107.057 48.703C106.947 48.494 106.835 48.281 106.724 48.063C106.692 47.992 106.656 47.922 106.611 47.838L106.583 47.787C106.578 47.778 106.564 47.751 106.559 47.742C106.455 47.548 106.181 47.034 105.529 46.677C105.213 46.494 104.822 46.389 104.406 46.389C104.188 46.389 104.012 46.418 103.896 46.437L103.817 46.45C103.244 46.516 102.833 46.548 102.727 46.549C102.485 46.549 101.978 46.586 100.988 46.665C100.873 46.645 100.756 46.634 100.639 46.634H100.166H99.8557L97.5717 46.336C97.0517 46.261 95.7387 45.956 94.9777 45.767L93.5807 45.285L91.7537 44.662C91.5437 44.59 91.3257 44.555 91.1087 44.555C90.9667 44.555 90.8247 44.57 90.6857 44.6L88.6927 44.445L87.6477 43.649C87.5097 43.545 87.3607 43.459 87.2017 43.393L86.9717 43.186C86.6767 42.646 86.1427 42.26 85.5117 42.166L84.4027 42C84.3387 41.991 84.2757 41.984 84.2107 41.981L84.0677 41.931C83.7477 41.727 83.3737 41.617 82.9917 41.617C82.9437 41.617 82.8947 41.619 82.8457 41.623L81.2217 41.742L79.7627 41.148C79.5227 41.05 79.2667 41 79.0087 41ZM79.0077 43L80.9007 43.771L82.9917 43.617L83.0947 43.711L84.0047 44.025L84.1067 43.978L85.2157 44.144L85.2547 44.331L86.2507 45.229L86.4367 45.241L88.0347 46.458L88.1237 46.407L90.9697 46.628L91.1087 46.555L92.9287 47.176L94.4087 47.687C94.4087 47.687 96.4337 48.192 97.3137 48.32L99.7257 48.634H100.166H100.639L100.814 48.685C101.563 48.625 102.506 48.549 102.731 48.549C102.977 48.549 103.582 48.49 104.059 48.435C104.213 48.416 104.317 48.389 104.406 48.389C104.463 48.389 104.514 48.399 104.568 48.431C104.705 48.506 104.75 48.601 104.805 48.703C104.858 48.805 104.888 48.851 104.913 48.915C105.475 50.017 106.03 50.964 106.444 52.139C106.521 52.369 106.634 52.58 106.72 52.81C106.883 53.265 106.996 53.738 107.2 54.171C107.558 54.894 107.763 55.667 108.039 56.42C108.371 57.338 108.606 58.219 108.905 59.15C109.013 59.486 108.863 59.605 108.571 59.639C108.026 59.7 107.481 59.75 106.941 59.801C105.976 59.898 105.016 60.001 104.053 60.073C102.572 60.196 99.6147 60.567 99.6147 60.567L99.3967 60.694C99.3967 60.694 99.1247 60.507 99.1127 60.507C99.1037 60.507 98.2377 60.567 98.2377 60.567L96.7357 59.989L95.1997 59.759L94.8187 59.503L94.3757 59.605L92.2867 59.061L91.4707 59.253L91.4467 59.29L90.8757 59.554L90.8427 59.542L90.4937 59.708L90.4107 59.814L89.2817 59.179L88.9697 59.171L87.9547 58.674L87.7797 58.482L87.6447 58.619L87.0287 58.814L87.0027 58.866L83.5067 60.2L83.4117 60.345L82.1537 60.821L82.0567 60.932L80.8757 61.459L80.7567 61.451L79.7357 61.91L79.6667 62.025L79.2717 62.123L79.1297 62.072L76.5687 61.949L76.2947 62.148L73.1107 62.203L73.0217 62.305L71.4647 60.979L71.3367 61.059L69.9097 61.301L69.8317 61.383L68.3107 61.57L68.1857 61.68L66.4677 60.868L66.3187 60.723L66.1917 60.813L62.8797 61.238L60.6777 63.334L60.6227 63.331L57.8477 66.162L56.3347 66.465L54.3957 66.281L54.3627 66.18L49.4127 66.111L47.6507 67.318L46.0077 68.335L45.5647 68.917L45.3607 68.841H43.9857L43.8307 68.956L40.1567 69.368L39.9907 69.292L39.8577 69.581L38.4967 71.142L36.2507 71.256L33.5727 72.336L25.4087 80.781C25.4087 80.773 25.4087 80.781 25.4007 80.773C25.3287 80.76 25.2987 80.441 25.2987 80.441L25.1787 78.612L24.9997 78.212L25.1737 71.554L25.5777 68.518L25.6767 67.055L25.9477 65.839L26.4157 63.024L26.7147 61.629L27.4117 60.014L27.4977 59.304L29.1597 58.092L32.8447 55.354L36.1207 52.994L38.4307 51.229L38.4577 51.13L39.6117 50.577L40.1597 50.017L40.3637 50.178C40.3637 50.178 43.1887 50.643 43.2517 50.643C43.2527 50.643 43.2527 50.643 43.2527 50.643C43.2217 50.616 46.3177 49.833 46.3177 49.833L46.9377 50.017L47.0367 49.97L48.7187 50.77L50.2237 49.579L50.2377 49.494L54.5307 46.177L54.8847 46.385L56.0577 46.423L56.1407 46.466L60.2357 46.44L60.3627 46.385L62.6757 46.602L62.7857 46.678L62.9937 46.487L63.0487 46.292L67.6547 43.633L67.7427 43.711L70.9717 43.467L71.1017 43.375L72.3417 43.277L72.4467 43.345L79.0077 43Z" fill="white"/>
<path fill-rule="evenodd" clip-rule="evenodd" d="M50.8258 112.602C50.7438 112.602 50.6618 112.592 50.5808 112.572L47.2388 111.728L47.1378 111.792C47.0518 111.848 46.9578 111.889 46.8598 111.915L45.9928 112.392C45.8428 112.475 45.6768 112.516 45.5118 112.516C45.3168 112.516 45.1218 112.459 44.9538 112.346C44.9538 112.346 44.7748 112.226 44.6178 112.121C44.4378 112.105 44.2668 112.041 44.1218 111.938C44.0868 111.929 44.0528 111.917 44.0188 111.905L41.7638 111.031C41.7578 111.032 41.7528 111.032 41.7518 111.032C41.5548 111.032 41.3638 110.961 41.2008 110.847C40.5038 110.631 40.1098 110.507 39.8698 110.414L39.8658 110.425C39.7958 110.4 38.8708 110.089 38.7698 110.054C38.5948 110.036 38.4588 110.016 38.3068 109.946H38.3078C38.1388 109.867 37.8978 109.701 37.7648 109.366L35.9078 107.351L34.6128 105.692L33.1218 103.417L31.1898 100.745C31.0078 100.493 30.9528 100.17 31.0418 99.873L31.1798 99.41C31.2348 99.227 31.3408 99.063 31.4858 98.938L32.9268 97.696C33.0848 97.56 33.2818 97.477 33.4888 97.457L37.0478 97.133L39.4848 91.225C39.4598 90.893 39.6018 90.567 39.8678 90.36L44.1698 87.012C44.2948 86.915 44.4408 86.849 44.5958 86.819L44.6208 86.814L46.8858 85.064C46.9198 84.998 46.9608 84.937 47.0088 84.879C47.1998 84.652 47.4808 84.523 47.7738 84.523C47.8098 84.523 47.8458 84.525 47.8818 84.529L48.0918 84.551L48.6378 84.321C48.7618 84.268 48.8938 84.242 49.0278 84.242C49.0418 84.242 49.6998 84.27 49.6998 84.27L50.5848 84.092L52.5778 81.935C52.7678 81.73 53.0348 81.614 53.3128 81.614C53.3328 81.614 55.4068 81.739 55.4068 81.739L55.6958 81.639C55.8018 81.602 55.9118 81.583 56.0238 81.583C56.0628 81.583 56.1018 81.585 56.1408 81.59L58.0608 81.817C60.9958 80.187 62.1168 79.564 62.5638 79.319C62.7628 79.088 63.0548 78.926 63.3468 78.926C63.3608 78.926 63.5108 78.934 63.5108 78.934L66.1258 78.479C66.2838 78.373 66.4718 78.313 66.6668 78.31L67.2388 78.301C67.2388 78.301 70.6438 74.419 70.6458 74.416C70.6868 74.338 70.7378 74.265 70.7978 74.199L73.4738 71.283C73.5158 71.158 73.5838 71.041 73.6728 70.941L74.2538 70.287C74.4438 70.073 74.7168 69.951 75.0008 69.951C75.0238 69.951 78.3388 70.177 78.3388 70.177L78.5688 69.981C78.7198 69.853 78.9038 69.772 79.0998 69.749L79.5858 69.692L81.1558 68.769C81.3098 68.679 81.4848 68.631 81.6628 68.631H81.6748L84.6798 66.313C84.8178 66.206 84.9838 66.137 85.1588 66.114L88.2998 65.699L89.6878 64.409C89.8428 64.266 90.0368 64.175 90.2448 64.149L91.5248 63.206C91.5968 63.081 91.6948 62.972 91.8148 62.888C91.9848 62.767 92.1868 62.705 92.3908 62.705C92.4948 62.705 92.5988 62.721 92.6998 62.753L93.2188 62.922L98.9018 63.075L102.892 61.684C102.961 61.661 103.031 61.644 103.102 61.636C103.79 61.553 104.46 61.492 105.129 61.431C105.866 61.364 106.602 61.297 107.362 61.199L107.501 61.182C107.734 61.154 108.018 61.121 108.228 61.078C108.306 61.063 108.376 61.053 108.439 61.044C108.685 61.012 108.85 61 108.992 61C110.321 61 110.562 62.131 110.653 62.557C110.768 63.085 110.86 63.586 110.956 64.101L111.163 65.229C111.257 65.744 111.351 66.264 111.429 66.78C111.566 67.686 111.695 68.585 111.791 69.503C111.837 69.997 111.861 70.477 111.885 70.957L111.924 71.674L111.941 71.864C111.954 71.998 111.967 72.131 111.972 72.265L112.063 73.967C112.066 74.027 112.073 74.076 112.08 74.124C112.098 74.259 112.114 74.39 112.114 74.555C112.114 74.775 112.107 74.855 112.095 75.003C112.066 75.255 112.015 75.685 111.619 76.052C111.255 76.364 110.89 76.416 110.715 76.442C110.511 76.473 110.17 76.517 110.17 76.517L109.487 76.559L108.442 76.733L107.575 76.893C107.472 76.924 106.935 77.082 106.935 77.082C106.492 77.233 106.032 77.39 105.572 77.557C105.408 77.617 105.244 77.668 105.077 77.72C104.904 77.774 104.726 77.83 104.548 77.897C103.743 78.207 101.763 79.135 101.743 79.144C101.609 79.206 101.465 79.239 101.318 79.239C101.279 79.239 101.24 79.237 101.201 79.232L100.736 79.177L99.9638 79.068C99.8688 79.054 99.7778 79.028 99.6918 78.989C99.5098 78.963 99.2348 78.926 98.9998 78.894L98.8738 79.017C98.8138 79.075 98.7478 79.124 98.6758 79.165L98.0758 79.875C97.9308 80.044 97.7358 80.162 97.5178 80.207L95.8048 80.568C95.7118 80.631 95.6068 80.68 95.4968 80.709L94.4588 80.988L94.0708 81.726L94.0758 81.839C94.0938 82.248 93.8598 82.627 93.4848 82.795L90.7238 84.031C90.5558 84.211 90.3268 84.325 90.0798 84.346C90.0508 84.349 90.0208 84.35 89.9918 84.35C89.7788 84.35 89.5708 84.282 89.3988 84.156L87.9428 84.091L86.7288 84.936C86.5958 85.028 86.4418 85.087 86.2818 85.107L84.7768 85.294L83.9198 85.665L83.5878 86.785C83.5418 86.94 83.4588 87.081 83.3468 87.196C83.2228 87.567 82.8918 87.834 82.4968 87.873L82.3948 87.883L78.2898 89.77C78.1898 89.89 78.0638 89.986 77.9208 90.048L76.5678 90.643C76.5008 90.673 76.4298 90.695 76.3588 90.709C76.1568 90.823 75.8448 91.01 75.8428 91.012C75.7318 91.078 75.6108 91.122 75.4848 91.141C75.4608 91.158 75.4358 91.173 75.4098 91.188L74.4178 91.752L73.7958 92.958C73.7128 93.118 73.5898 93.251 73.4388 93.346L71.8848 95.864C71.8528 96.3 71.5398 96.668 71.1098 96.766L70.8878 96.817C70.8288 96.851 70.7688 96.878 70.7138 96.894L69.8738 97.144L69.3828 98.936L69.4828 99.294C69.5578 99.565 69.5168 99.855 69.3678 100.093C69.2468 100.288 69.0628 100.433 68.8488 100.508L68.3748 100.998C67.6868 101.733 67.4258 102.012 67.2108 102.119L66.6088 102.745L65.2178 104.017C65.2098 104.034 65.2008 104.05 65.1928 104.067C65.1438 104.16 65.0798 104.244 65.0048 104.317C64.9888 104.332 64.1088 105.148 64.1088 105.148C64.0298 105.221 63.9408 105.281 63.8448 105.325C63.6248 105.547 63.2708 105.907 63.0048 106.17L60.5578 110.113C60.3938 110.377 60.1168 110.55 59.8068 110.581L53.8728 111.166L51.2818 112.493C51.1388 112.565 50.9828 112.602 50.8258 112.602Z" fill="#CE1141"/>
<path fill-rule="evenodd" clip-rule="evenodd" d="M108.992 60C108.808 60 108.609 60.014 108.364 60.045C108.355 60.046 108.318 60.051 108.309 60.052C108.224 60.064 108.135 60.078 108.044 60.095C107.846 60.135 107.598 60.163 107.392 60.188L107.242 60.207C106.5 60.302 105.791 60.366 105.04 60.435C104.361 60.497 103.681 60.559 102.983 60.643C102.84 60.66 102.699 60.692 102.563 60.74L98.7458 62.07L93.3888 61.926L93.0088 61.802C92.8058 61.737 92.5978 61.705 92.3908 61.704C91.9818 61.704 91.5788 61.83 91.2368 62.071C91.0648 62.192 90.9158 62.338 90.7918 62.503L89.8228 63.217C89.5198 63.303 89.2398 63.46 89.0068 63.677L87.8528 64.75L85.0278 65.123C84.6788 65.169 84.3468 65.307 84.0678 65.522L81.2878 67.667C81.0638 67.709 80.8478 67.791 80.6498 67.907L79.2608 68.723L78.9828 68.756C78.6268 68.798 78.2888 68.935 78.0048 69.152L75.1378 68.956C75.0918 68.953 75.0468 68.951 75.0008 68.951C74.4308 68.951 73.8868 69.194 73.5058 69.623L72.9248 70.277C72.8008 70.417 72.6988 70.571 72.6188 70.735L70.0608 73.522C69.9728 73.619 69.8948 73.723 69.8268 73.833L66.7788 77.308L66.6498 77.31C66.3438 77.315 66.0468 77.39 65.7798 77.525L63.4508 77.93L63.4418 77.929C63.4058 77.927 63.3698 77.926 63.3348 77.926C62.7758 77.926 62.2508 78.161 61.8778 78.556C61.2968 78.875 60.1598 79.506 57.8568 80.786L56.2578 80.597C56.1798 80.588 56.1018 80.583 56.0238 80.583C55.8008 80.583 55.5788 80.621 55.3678 80.694L55.2668 80.729L53.4338 80.618C53.3928 80.616 53.3528 80.614 53.3118 80.614C52.7568 80.614 52.2238 80.846 51.8438 81.256L50.0698 83.176L49.6208 83.266L49.1158 83.244C49.0858 83.243 49.0568 83.242 49.0278 83.242C48.7598 83.242 48.4948 83.295 48.2488 83.4L47.9408 83.53C47.8858 83.525 47.8298 83.523 47.7738 83.523C47.1878 83.523 46.6278 83.781 46.2448 84.234C46.2038 84.282 46.1658 84.333 46.1298 84.384L44.1728 85.897C43.9498 85.968 43.7408 86.079 43.5548 86.222L39.2538 89.57C38.7948 89.927 38.5208 90.46 38.4858 91.025L36.3548 96.192L33.3978 96.461C32.9828 96.5 32.5898 96.667 32.2738 96.938L30.8328 98.18C30.5428 98.43 30.3308 98.757 30.2218 99.124L30.0838 99.586C29.9058 100.182 30.0148 100.826 30.3788 101.33L32.3098 104.004L33.7288 106.173C33.7588 106.219 33.7898 106.263 33.8238 106.306L35.0628 107.901C35.0968 107.945 35.1338 107.988 35.1718 108.03L36.9188 109.923C37.1498 110.375 37.5118 110.678 37.8828 110.851C38.1358 110.969 38.3678 111.013 38.5498 111.036C38.6528 111.071 38.7758 111.113 38.9248 111.163C39.1798 111.249 39.4478 111.338 39.5258 111.367L39.5308 111.355C39.8038 111.458 40.1788 111.577 40.7088 111.742C40.9758 111.901 41.2688 111.993 41.5538 112.022L43.6568 112.837C43.6688 112.842 43.6818 112.847 43.6938 112.851C43.8628 112.95 44.0458 113.024 44.2368 113.07C44.3268 113.129 44.3958 113.176 44.3958 113.176C44.7318 113.402 45.1208 113.516 45.5118 113.516C45.8418 113.516 46.1738 113.434 46.4738 113.269L47.2578 112.838C47.2968 112.825 47.3358 112.81 47.3738 112.794L50.3368 113.542C50.4978 113.582 50.6618 113.602 50.8248 113.602C51.1398 113.602 51.4518 113.528 51.7368 113.382L54.1598 112.143L59.9048 111.576C60.5238 111.514 61.0798 111.168 61.4078 110.64L63.7928 106.796C64.0058 106.584 64.2558 106.332 64.4488 106.136C64.5698 106.064 64.6838 105.979 64.7888 105.882C64.7888 105.882 65.7058 105.031 65.7228 105.013C65.8348 104.902 65.9318 104.778 66.0138 104.644L67.2368 103.529C67.2688 103.5 67.2998 103.469 67.3298 103.438L67.8598 102.886C68.1908 102.659 68.5478 102.277 69.1168 101.669L69.4318 101.343C69.7508 101.18 70.0228 100.933 70.2158 100.624C70.5128 100.147 70.5968 99.568 70.4458 99.027L70.4198 98.934L70.6918 97.944L70.9988 97.853C71.0828 97.828 71.1648 97.797 71.2438 97.762L71.3318 97.742C72.0978 97.567 72.6788 96.964 72.8418 96.217L74.1888 94.035C74.3918 93.865 74.5618 93.655 74.6848 93.417L75.1708 92.474L75.8638 92.081C76.0338 92.033 76.1988 91.963 76.3528 91.872C76.3558 91.87 76.5598 91.748 76.7388 91.644C76.8178 91.621 76.8948 91.592 76.9708 91.559L78.3238 90.963C78.5288 90.874 78.7158 90.75 78.8788 90.6L82.6628 88.861C83.3478 88.77 83.9288 88.333 84.2128 87.721C84.3618 87.527 84.4748 87.306 84.5458 87.069L84.7448 86.397L85.0418 86.269L86.4048 86.1C86.7258 86.06 87.0338 85.942 87.3008 85.756L88.2368 85.105L89.1068 85.143C89.3818 85.279 89.6838 85.35 89.9918 85.35C90.0518 85.35 90.1118 85.347 90.1718 85.341C90.5858 85.304 90.9738 85.139 91.2868 84.875L93.8938 83.708C94.5908 83.396 95.0448 82.717 95.0748 81.964L95.1398 81.84L95.7558 81.676C95.8998 81.637 96.0398 81.582 96.1718 81.512L97.7228 81.187C98.1588 81.095 98.5528 80.861 98.8398 80.52L99.3238 79.948C99.3628 79.953 99.4018 79.958 99.4378 79.963C99.5618 80.007 99.6908 80.039 99.8218 80.057L100.572 80.164L101.082 80.225C101.161 80.234 101.24 80.239 101.318 80.239C101.611 80.239 101.901 80.174 102.168 80.049C102.713 79.794 104.267 79.077 104.911 78.829C105.063 78.771 105.221 78.723 105.376 78.674C105.555 78.619 105.732 78.562 105.905 78.5C106.367 78.333 106.819 78.177 107.272 78.025C107.349 78 107.456 77.97 107.562 77.939C107.644 77.916 107.727 77.892 107.81 77.867L108.641 77.713L109.596 77.554L110.159 77.522C110.206 77.519 110.251 77.515 110.298 77.509C110.298 77.509 110.65 77.463 110.783 77.444C110.808 77.44 110.833 77.436 110.857 77.431C111.108 77.394 111.696 77.302 112.239 76.838C112.259 76.822 112.279 76.804 112.298 76.786C112.967 76.167 113.051 75.445 113.078 75.207C113.081 75.188 113.089 75.123 113.09 75.103C113.106 74.916 113.114 74.822 113.114 74.555C113.114 74.306 113.088 74.115 113.071 73.988C113.068 73.964 113.063 73.94 113.061 73.912L113.014 73.038L112.971 72.205C112.965 72.076 112.951 71.926 112.937 71.777L112.921 71.592C112.907 71.375 112.895 71.138 112.884 70.901C112.859 70.409 112.834 69.917 112.787 69.421C112.684 68.434 112.549 67.497 112.417 66.627C112.339 66.101 112.24 65.562 112.143 65.031L112.049 64.509L111.938 63.917C111.842 63.394 111.748 62.884 111.631 62.343C111.196 60.305 109.791 60 108.992 60ZM108.992 62C109.425 62 109.552 62.181 109.676 62.765C109.831 63.483 109.944 64.143 110.08 64.861C110.201 65.541 110.337 66.238 110.439 66.927C110.575 67.821 110.702 68.705 110.796 69.606C110.862 70.32 110.882 71.027 110.926 71.736C110.94 71.929 110.965 72.12 110.973 72.311C111.004 72.88 111.034 73.45 111.064 74.021C111.075 74.225 111.114 74.352 111.114 74.555C111.114 74.74 111.108 74.803 111.097 74.931C111.081 75.049 111.084 75.185 110.94 75.318C110.796 75.441 110.608 75.441 110.489 75.465C110.367 75.484 110.044 75.525 110.044 75.525L109.374 75.564L108.278 75.747L107.335 75.92C107.1 75.995 106.876 76.052 106.633 76.129C106.165 76.288 105.697 76.448 105.23 76.618C104.898 76.737 104.55 76.827 104.192 76.962C103.341 77.291 101.318 78.239 101.318 78.239L100.853 78.184L100.103 78.078L100.032 78.026C100.032 78.026 98.6708 77.839 98.6538 77.839C98.6428 77.848 98.1788 78.298 98.1788 78.298L98.0818 78.32L97.3118 79.229L95.3088 79.65L95.2378 79.744L93.7768 80.135L93.0598 81.5L93.0768 81.882L90.1028 83.213L89.9918 83.35L89.7848 83.171L87.6488 83.078L86.1578 84.115L84.5128 84.32L83.0938 84.931L82.6288 86.5L82.4538 86.632L82.3988 86.878L82.1308 86.905L77.6328 88.971L77.5178 89.133L76.1658 89.728H76.0798C76.0448 89.728 75.3308 90.153 75.3308 90.153L75.0818 90.115L74.9158 90.319L73.6648 91.03L72.9068 92.5L72.7388 92.578L70.8958 95.562L70.8878 95.792L70.4808 95.884L70.4288 95.936L69.0558 96.344L68.3448 98.939L68.5198 99.564L68.3398 99.597L67.6568 100.302C67.6568 100.302 66.8318 101.183 66.8098 101.183C66.7878 101.188 66.6248 101.286 66.6248 101.286L65.8878 102.051L64.3088 103.493C64.3088 103.493 64.3178 103.582 64.3088 103.599C64.2928 103.615 63.4288 104.415 63.4288 104.415L63.3328 104.418C63.3328 104.418 62.6188 105.147 62.2178 105.542L59.7088 109.585L53.5868 110.19L50.8258 111.602L47.0628 110.653L46.5978 110.951L46.5488 110.946L45.5118 111.516C45.5118 111.516 44.9408 111.133 44.9248 111.125H44.7028L44.5678 110.964L44.3798 110.972L41.9008 110.011C41.9008 110.011 41.7598 110.032 41.7518 110.032C41.7348 110.032 41.7188 109.96 41.7188 109.96C41.7188 109.96 40.2298 109.5 40.2248 109.493C40.2158 109.484 39.0128 109.084 39.0018 109.077C38.9938 109.067 38.7618 109.054 38.7248 109.038C38.6808 109.025 38.6698 108.872 38.6698 108.872L36.6418 106.673L35.4028 105.079L33.9588 102.871L31.9998 100.159L32.1378 99.696L33.5798 98.454L37.9678 98.053L37.8618 97.783L40.5178 91.343L40.4818 91.149L44.7838 87.801L45.0438 87.751L47.8018 85.62L47.7738 85.523L48.2418 85.574L49.0278 85.242L49.7768 85.275L51.0988 85.008L53.3128 82.614L55.5448 82.75L56.0238 82.583L58.2638 82.848C58.2638 82.848 63.2388 80.084 63.2608 80.076C63.2718 80.066 63.3348 79.926 63.3348 79.926L63.5708 79.939L66.6018 79.412L66.6818 79.31L67.6978 79.293L71.3908 75.084L71.5048 75.058L71.5348 74.875L74.4338 71.716L74.4208 71.605L75.0008 70.951L78.3538 71.18L78.5338 71.324L79.2178 70.742L79.9118 70.66L81.6628 69.631L82.0028 69.641L85.2898 67.106L88.8908 66.63L88.9688 66.443L90.3688 65.142L90.6178 65.117L92.3878 63.811L92.3908 63.705L93.0468 63.917L99.0578 64.079L103.221 62.628C104.671 62.454 106.038 62.378 107.49 62.191C107.766 62.157 108.154 62.114 108.428 62.058C108.491 62.046 108.555 62.038 108.613 62.029C108.762 62.011 108.886 62 108.992 62Z" fill="white"/>
<path fill-rule="evenodd" clip-rule="evenodd" d="M73.708 125.774L73.083 125.749L71.79 125.728L70.619 125.672L68.921 125.533C67.753 125.404 67 125.322 67 124.388C67 124.199 67.053 124.013 67.154 123.853L67.459 123.372C67.544 123.239 67.659 123.127 67.795 123.046L70.365 121.525C70.515 121.436 70.684 121.389 70.855 121.385L71.96 120.732C71.975 120.624 72.008 120.377 72.036 120.169C71.941 119.966 71.915 119.737 71.966 119.516C72.027 119.252 72.193 119.022 72.427 118.882C73.636 118.16 74.289 117.768 74.672 117.556C75.047 117.032 76.255 115.326 76.685 114.718C76.707 114.582 76.755 114.451 76.831 114.334L77.49 113.3C77.584 113.152 77.717 113.031 77.872 112.951L80.127 109.379C80.12 109.18 80.171 108.98 80.281 108.806L80.493 107.374C80.462 107.213 80.471 107.046 80.521 106.89L81.212 104.677C81.241 104.587 81.282 104.502 81.333 104.422L81.812 102.249C81.913 101.79 82.319 101.463 82.789 101.463H83.013L84.821 100.598C84.773 100.426 84.773 100.244 84.82 100.072L86.709 93.089C86.756 92.913 86.851 92.753 86.983 92.628L87.246 92.377L87.687 90.617C87.739 90.412 87.854 90.227 88.016 90.092L88.751 89.479C88.875 89.376 89.021 89.304 89.176 89.27L93.6 86.425L93.826 86.054C93.868 85.749 94.046 85.488 94.297 85.336L95.055 84.006C95.081 83.823 95.157 83.65 95.275 83.507C95.331 83.14 95.586 82.827 95.951 82.707L98.069 82.006C98.212 81.913 98.374 81.851 98.533 81.841L98.85 81.822L99.89 80.716C99.971 80.63 100.067 80.559 100.172 80.506C101.057 80.066 103 79.119 103.205 79.02C103.546 78.859 103.905 78.72 104.262 78.584C104.522 78.485 104.781 78.386 105.026 78.277C105.547 78.046 106.078 77.894 106.59 77.748L106.847 77.673C107.228 77.567 107.602 77.482 107.977 77.397L108.458 77.287C108.53 77.259 108.684 77.234 108.842 77.214L109.696 77.081C109.717 77.078 110.343 77 110.475 77C110.918 77 111.335 77.179 111.617 77.493C112.009 77.908 111.985 78.471 111.974 78.712L111.95 79.445C111.916 80.293 111.877 81.135 111.806 81.97C111.767 82.439 111.7 82.905 111.63 83.37L111.497 84.299C111.395 85.007 111.293 85.717 111.18 86.425C111.057 87.247 110.916 88.072 110.774 88.903L110.725 89.183C110.699 89.352 110.665 89.577 110.575 89.811C110.331 90.455 110.177 91.136 110.015 91.858C109.924 92.263 109.833 92.668 109.726 93.069C109.254 94.859 108.803 96.302 108.306 97.609C107.877 98.723 107.415 99.823 106.951 100.924L106.625 101.698C106.283 102.518 105.846 103.286 105.424 104.027L105.344 104.169C104.942 104.866 104.566 105.568 104.19 106.269L103.853 106.896C103.496 107.568 103.07 108.191 102.659 108.794C102.51 109.01 102.362 109.228 102.216 109.447L101.949 109.858C101.631 110.346 101.313 110.835 100.977 111.313C100.717 111.684 100.409 112.051 100.083 112.377C99.979 112.482 99.867 112.586 99.754 112.692C99.528 112.904 99.313 113.104 99.187 113.305C99.021 113.562 98.842 113.75 98.684 113.915L98.47 114.133C98.326 114.274 98.19 114.407 98.15 114.506C98.051 114.756 97.88 114.92 97.789 115.008L96.517 116.279C96.081 116.708 95.651 117.127 95.213 117.544C94.035 118.661 92.747 119.637 91.501 120.582L91.069 120.91C90.191 121.567 88.386 122.522 88.31 122.562L87.556 122.995C87.513 123.019 87.469 123.042 87.423 123.059L85.188 123.944L83.348 124.485L81.716 124.931L79.487 125.327L75.84 125.767C75.84 125.767 74.739 125.8 74.73 125.8C74.722 125.8 73.708 125.774 73.708 125.774Z" fill="#CE1141"/>
<path fill-rule="evenodd" clip-rule="evenodd" d="M110.518 76.1992C110.428 76.1992 110.277 76.1992 109.627 76.2862L108.743 76.4242C108.619 76.4392 108.436 76.4652 108.224 76.5232L107.82 76.6162C107.421 76.7062 107.025 76.7972 106.633 76.9062L106.364 76.9832C105.842 77.1342 105.251 77.3032 104.667 77.5602C104.433 77.6652 104.192 77.7562 103.95 77.8482C103.584 77.9882 103.208 78.1322 102.824 78.3142C102.608 78.4182 100.657 79.3702 99.7689 79.8122C99.5579 79.9172 99.3669 80.0592 99.2049 80.2312L98.4349 81.0492C98.1459 81.0782 97.8709 81.1702 97.6249 81.3132L95.6799 81.9562C95.0409 82.1672 94.5679 82.6762 94.3869 83.2932C94.2809 83.4652 94.2019 83.6522 94.1509 83.8472L93.5779 84.8542C93.2649 85.1162 93.0339 85.4712 92.9259 85.8792L92.9089 85.9082L88.8039 88.5492C88.5689 88.6272 88.3489 88.7482 88.1549 88.9092L87.4189 89.5222C87.0939 89.7942 86.8629 90.1612 86.7589 90.5722L86.3879 92.0532L86.3329 92.1062C86.0709 92.3582 85.8809 92.6772 85.7869 93.0272L83.8969 100.01C83.8829 100.062 83.8719 100.115 83.8619 100.169L82.8289 100.663C81.8909 100.664 81.0809 101.316 80.8779 102.232L80.4319 104.259C80.3789 104.36 80.3349 104.468 80.3009 104.579L79.6089 106.791C79.5299 107.043 79.5019 107.306 79.5259 107.566L79.3599 108.687C79.2739 108.87 79.2159 109.063 79.1889 109.261L77.1879 112.428C76.9919 112.573 76.8219 112.754 76.6889 112.963L76.0309 113.996C75.9309 114.152 75.8539 114.32 75.8009 114.496C75.3539 115.128 74.4549 116.398 74.0279 116.998C73.5799 117.253 72.9349 117.638 71.9559 118.224C71.4899 118.504 71.1569 118.961 71.0349 119.491C70.9689 119.775 70.9669 120.068 71.0249 120.348L70.5759 120.614C70.3379 120.655 70.1089 120.739 69.8979 120.864L67.3279 122.386C67.0559 122.547 66.8259 122.77 66.6559 123.038L66.3519 123.519C66.1499 123.839 66.0419 124.21 66.0419 124.588C66.0419 126.417 67.7869 126.609 68.8279 126.723C68.8459 126.725 68.8639 126.727 68.8829 126.729L70.5449 126.866C70.5679 126.868 70.5899 126.869 70.6129 126.87L71.7519 126.926C71.7739 126.927 71.7959 126.928 71.8179 126.928L73.1099 126.948L73.6959 126.971L74.7209 126.999C74.7379 127 74.7559 127 74.7729 127C74.7909 127 74.8089 127 74.8269 126.999L75.8169 126.972C75.8789 126.971 75.9409 126.967 76.0029 126.959L79.5959 126.526C79.6319 126.522 79.6669 126.516 79.7029 126.511L81.8409 126.136C81.9019 126.125 81.9619 126.111 82.0229 126.095L83.6379 125.654L85.4219 125.135C85.4819 125.117 85.5399 125.096 85.5989 125.074L87.8339 124.188C87.9249 124.152 88.0139 124.109 88.0989 124.06L88.2589 123.968L88.8499 123.631C89.1519 123.47 90.8209 122.576 91.7049 121.915L92.1509 121.576C93.4169 120.616 94.7259 119.623 95.9429 118.47C96.3879 118.047 96.8209 117.624 97.2559 117.196L97.8009 116.651C98.0259 116.426 98.2499 116.2 98.4779 115.976C98.4929 115.962 98.5069 115.947 98.5209 115.932C98.6499 115.808 98.8969 115.566 99.0749 115.182C99.1179 115.137 99.1649 115.094 99.2109 115.05L99.3159 114.946C99.3339 114.928 99.3529 114.909 99.3709 114.89L99.4549 114.802C99.6219 114.625 99.8519 114.383 100.06 114.062C100.134 113.945 100.318 113.773 100.48 113.622C100.602 113.509 100.723 113.395 100.838 113.278C101.198 112.919 101.544 112.506 101.838 112.088C102.183 111.596 102.508 111.096 102.834 110.596L103.098 110.191C103.235 109.985 103.379 109.773 103.525 109.561C103.953 108.934 104.395 108.287 104.782 107.56L105.1 106.967C105.489 106.241 105.857 105.555 106.25 104.874L106.332 104.728C106.771 103.958 107.224 103.162 107.592 102.28L107.899 101.551C108.363 100.451 108.842 99.3142 109.282 98.1712C109.791 96.8282 110.253 95.3522 110.737 93.5202C110.846 93.1122 110.94 92.6952 111.034 92.2782C111.188 91.5912 111.333 90.9422 111.553 90.3632C111.68 90.0312 111.727 89.7292 111.757 89.5292L111.789 89.3412C111.937 88.4802 112.083 87.6262 112.213 86.7642C112.329 86.0432 112.435 85.3032 112.54 84.5632L112.6 84.1472L112.663 83.7202C112.732 83.2512 112.803 82.7652 112.846 82.2532C112.919 81.3842 112.959 80.5082 112.993 79.6912L113.003 79.4282L113.015 78.9912C113.03 78.6582 113.072 77.7342 112.373 76.9912C111.932 76.5002 111.246 76.1992 110.518 76.1992ZM110.518 78.1992C110.623 78.1992 110.794 78.2252 110.916 78.3612C111.049 78.5022 111.022 78.7642 111.016 78.9232C111.01 79.0802 111.005 79.3392 111.005 79.3392C111.005 79.3392 110.997 79.5232 110.994 79.6112C110.96 80.4372 110.922 81.2652 110.853 82.0862C110.803 82.6822 110.704 83.2722 110.621 83.8632C110.496 84.7302 110.374 85.5992 110.236 86.4672C110.098 87.3852 109.94 88.2952 109.783 89.2142C109.76 89.3572 109.738 89.5122 109.683 89.6552C109.27 90.7432 109.102 91.8912 108.803 93.0112C108.408 94.5112 107.967 96.0002 107.414 97.4532C106.891 98.8142 106.313 100.159 105.747 101.511C105.406 102.326 104.955 103.105 104.518 103.874C103.995 104.78 103.511 105.703 103.016 106.621C102.556 107.484 101.967 108.275 101.425 109.095C101.021 109.713 100.625 110.334 100.202 110.938C99.9729 111.264 99.7049 111.585 99.4189 111.869C99.0649 112.226 98.6529 112.542 98.3819 112.974C98.2489 113.179 98.0719 113.349 97.9059 113.527C97.6629 113.769 97.4029 113.995 97.2669 114.327C97.2339 114.411 97.1399 114.479 97.0739 114.553C96.6639 114.957 96.2629 115.364 95.8559 115.768C95.4269 116.189 95.0009 116.605 94.5669 117.018C93.2969 118.222 91.8919 119.26 90.5059 120.313C89.6869 120.927 87.8859 121.878 87.8859 121.878L87.2579 122.236L87.0979 122.329L84.8629 123.214L83.1109 123.724L81.4959 124.166L79.3569 124.541L75.7639 124.973L74.7729 125L73.7769 124.973L73.1659 124.949L71.8489 124.928L70.7089 124.873L69.0469 124.735C69.0469 124.735 68.0419 124.625 68.0419 124.588L68.3469 124.106L70.9169 122.585L71.1019 122.626L72.8559 121.589L73.1989 121.482L72.9859 121.122C72.9859 121.122 73.1159 120.17 73.1159 120.143L72.9829 119.94C72.9829 119.94 75.3779 118.507 75.4069 118.507C75.4129 118.507 77.6979 115.279 77.6979 115.279L77.7159 115.071L78.3749 114.038L78.5749 113.978L81.2659 109.717L81.1689 109.538L81.2749 109.407L81.5559 107.507L81.5179 107.387L82.2089 105.176L82.2949 105.099L82.8309 102.663H83.2829L86.0799 101.324L85.8279 100.532L87.7169 93.5502L88.1879 93.0992L88.6999 91.0592L89.4349 90.4462L89.5379 90.4542L94.3759 87.3422C94.6199 86.9422 94.8379 86.5862 94.8379 86.5862L94.8599 86.3892L95.0089 86.3812L96.0849 84.4932L96.0879 84.3452L96.3269 84.1112L96.3069 83.8552L98.5969 83.0982L98.6359 83.0392L99.3419 82.9962L99.4919 83.0642L99.5329 82.8012L100.662 81.6022C101.541 81.1632 103.475 80.2202 103.68 80.1222C104.255 79.8492 104.9 79.6462 105.475 79.3902C106.014 79.1522 106.601 78.9992 107.17 78.8332C107.685 78.6892 108.208 78.5832 108.731 78.4592C108.825 78.4282 108.922 78.4172 109.022 78.4042L109.893 78.2682C109.893 78.2682 110.411 78.1992 110.518 78.1992Z" fill="white"/>
</svg>
