<svg width="150" height="150" viewBox="0 0 150 150" fill="none" xmlns="http://www.w3.org/2000/svg">
<g clip-path="url(#clip0_429_2616)">
<mask id="mask0_429_2616" style="mask-type:alpha" maskUnits="userSpaceOnUse" x="15" y="34" width="121" height="81">
<path d="M135.346 114.247V34.2815H15.0003V114.247H135.346Z" fill="white"/>
</mask>
<g mask="url(#mask0_429_2616)">
<path fill-rule="evenodd" clip-rule="evenodd" d="M58.6037 77.8429L77.6066 34.2803H135.346L124.884 58.273H76.1155C73.9981 63.1169 63.5125 87.1694 62.2987 89.9587V91.0786C62.2987 101.173 53.7784 114.247 38.6435 114.247C25.6082 114.247 15.0003 103.619 15.0003 90.5679C15.0003 77.5084 25.6082 66.8918 38.6435 66.8918C46.8745 66.8918 54.5836 71.3355 58.6037 77.8429Z" fill="#FEFEFE"/>
</g>
<path fill-rule="evenodd" clip-rule="evenodd" d="M16.4154 91.623C16.6897 97.4943 19.2306 102.753 23.1642 106.585C27.3513 102.882 30.092 97.572 30.3842 91.623H16.4154Z" fill="#0B223E"/>
<path fill-rule="evenodd" clip-rule="evenodd" d="M32.3459 91.623C32.0537 98.0737 29.1341 103.846 24.6398 107.893C28.2215 110.808 32.7336 112.641 37.6752 112.856V91.623H32.3459Z" fill="#F9A11A"/>
<path fill-rule="evenodd" clip-rule="evenodd" d="M16.4067 89.6717H30.3905C30.14 83.6541 27.3963 78.2756 23.1645 74.5515C19.1951 78.4159 16.6453 83.7437 16.4067 89.6717Z" fill="#0B223E"/>
<path fill-rule="evenodd" clip-rule="evenodd" d="M24.6401 73.2438C29.1761 77.3203 32.0987 83.1527 32.3462 89.672H37.6755V68.2715C32.7339 68.4865 28.2277 70.3202 24.6401 73.2438Z" fill="#F9A11A"/>
<path fill-rule="evenodd" clip-rule="evenodd" d="M60.8827 91.623H46.9169C47.2091 97.572 49.9468 102.882 54.1339 106.585C58.0735 102.753 60.6084 97.4943 60.8827 91.623Z" fill="#0B223E"/>
<path fill-rule="evenodd" clip-rule="evenodd" d="M44.9593 91.623H39.6271V112.856C44.5657 112.641 49.0748 110.808 52.6655 107.893C48.1712 103.846 45.2486 98.0737 44.9593 91.623Z" fill="#2B5134"/>
<path fill-rule="evenodd" clip-rule="evenodd" d="M52.6655 73.2438C49.0748 70.3202 44.5657 68.4865 39.6271 68.2715V89.672H44.9534C45.2009 83.1527 48.1324 77.3203 52.6655 73.2438Z" fill="#2B5134"/>
<path fill-rule="evenodd" clip-rule="evenodd" d="M78.5272 35.6892L58.7549 81.0377C57.6008 78.6008 56.0381 76.4058 54.1354 74.5542C49.9066 78.2783 47.1599 83.6568 46.9124 89.6744H60.8902L75.1871 56.8658H116.956L126.186 35.6892H78.5272Z" fill="#0B223E"/>
<path fill-rule="evenodd" clip-rule="evenodd" d="M123.964 56.8636L133.197 35.687H129.261L120.031 56.8636H123.964Z" fill="#2B5134"/>
</g>
<defs>
<clipPath id="clip0_429_2616">
<rect width="150" height="150" fill="white"/>
</clipPath>
</defs>
</svg>
