<svg width="150" height="150" viewBox="0 0 150 150" fill="none" xmlns="http://www.w3.org/2000/svg">
<g clip-path="url(#clip0_429_2684)">
<path fill-rule="evenodd" clip-rule="evenodd" d="M74.8397 26.282H74.7548C47.9211 26.2851 26.1554 48.0306 26.1082 74.8852V74.9702C26.1114 101.831 47.8519 123.617 74.7014 123.649H74.7328H74.758H74.7674C101.607 123.639 123.37 101.888 123.405 75.0236V74.9953V74.9607C123.398 48.1124 101.673 26.3323 74.8397 26.282Z" fill="#FEFEFE"/>
<path fill-rule="evenodd" clip-rule="evenodd" d="M123.404 74.9967V75.0251C123.372 101.889 101.61 123.641 74.7696 123.647H74.757H74.7319H74.7036C47.8541 123.619 26.1105 101.829 26.1073 74.9716V74.8866C26.1545 48.032 47.9233 26.2834 74.7539 26.2834H74.8388C101.676 26.3337 123.397 48.1107 123.404 74.9621V74.9967ZM124.507 74.8552C124.444 47.4028 102.188 25.176 74.757 25.1729H74.735H74.6502C47.2128 25.2358 25.0101 47.5098 25.0038 74.9401L25.0006 74.9936V75.0251C25.0352 102.496 47.2914 124.742 74.7413 124.755H74.7508H74.7791H74.8105C102.26 124.72 124.488 102.459 124.507 74.9967C124.507 74.9779 124.51 74.959 124.51 74.9307C124.507 74.9307 124.51 74.9118 124.507 74.8552Z" fill="#C4CDD3"/>
<path fill-rule="evenodd" clip-rule="evenodd" d="M58.4924 63.9085C63.5479 58.8528 65.6732 52.9414 65.6732 52.9414L66.8019 48.8358L67.0691 47.8794L61.891 44.9787C61.891 44.9787 58.8728 42.8803 52.1196 46.8003C44.2093 51.4659 37.7768 57.5 34.4505 63.9022C32.605 67.4478 31.143 71.5313 30.3853 76.1718C30.6211 84.9587 33.3941 93.1101 38.0126 99.9087C36.6953 87.249 48.9221 73.3812 58.4924 63.9085Z" fill="#002A5B"/>
<path fill-rule="evenodd" clip-rule="evenodd" d="M97.4634 46.7991C90.7101 42.8791 87.6888 44.9775 87.6888 44.9775L82.5138 47.8782L82.7779 48.8377L83.9066 52.9433C83.9066 52.9433 86.0319 58.8516 91.0906 63.9073C100.633 73.3517 112.815 87.1628 111.586 99.7942C116.223 92.9138 118.978 84.6648 119.138 75.7773C118.361 71.2973 116.925 67.3459 115.132 63.901C111.803 57.5019 105.367 51.4646 97.4634 46.7991Z" fill="#002A5B"/>
<path fill-rule="evenodd" clip-rule="evenodd" d="M81.2198 39.2104C98.9643 41.2176 110.625 51.2944 116.649 60.2323C112.119 47.3335 101.806 37.1624 88.825 32.824C85.9609 33.6703 82.7855 35.4509 81.2198 39.2104Z" fill="#E21836"/>
<path fill-rule="evenodd" clip-rule="evenodd" d="M68.3622 39.2103C66.7871 35.4319 63.5865 33.6513 60.7129 32.8113C47.6498 37.1686 37.2904 47.4341 32.7945 60.443C38.7743 51.4547 50.4793 41.2301 68.3622 39.2103Z" fill="#E21836"/>
<path fill-rule="evenodd" clip-rule="evenodd" d="M71.2669 38.7096L74.7882 33.5217L78.3157 38.7096C79.7305 34.8431 81.9595 32.7101 84.1949 31.5492C81.1673 30.8948 78.0264 30.5393 74.8039 30.5362C71.5656 30.533 68.4091 30.8885 65.3657 31.5429C67.6073 32.7038 69.8458 34.8274 71.2669 38.7096Z" fill="#E21836"/>
<path fill-rule="evenodd" clip-rule="evenodd" d="M98.9055 77.6292C91.6901 65.9448 75.3038 54.1471 74.7913 53.7791C74.2788 54.1471 57.8925 65.9448 50.6771 77.6292C40.9371 93.3972 42.2009 102.492 44.7224 107.683C50.9978 113.46 58.9426 117.446 67.7488 118.842L71.5467 64.9853L74.7127 61.8078L74.7536 61.7637V61.7669L74.7567 61.7637L74.7976 61.8078L77.9604 64.9853L81.7866 118.801L81.7332 118.83C90.6086 117.427 98.6131 113.406 104.92 107.561C107.401 102.351 108.576 93.2776 98.9055 77.6292Z" fill="#002A5B"/>
<path fill-rule="evenodd" clip-rule="evenodd" d="M77.961 64.9841L74.7982 61.8066L74.8328 122.764L81.7338 118.829L81.7841 118.8L77.961 64.9841Z" fill="#C4CDD3"/>
<path fill-rule="evenodd" clip-rule="evenodd" d="M74.7715 49.6895L73.3913 50.7088L67.6032 54.9811L69.1186 49.4724L69.3796 48.5191L69.8889 46.6724L68.2069 45.7632L62.7615 42.8279C65.5094 42.2207 68.3169 41.8275 71.1528 41.645L72.5393 41.5601L72.5959 41.4437L73.1492 40.3079L73.2372 40.1318L74.7904 36.9731L76.3938 40.2387L76.4284 40.3079L76.988 41.4437L77.0414 41.5601L78.4311 41.645C81.2638 41.8275 84.0745 42.2207 86.8192 42.8279L81.377 45.7632L79.6918 46.6724L80.2011 48.5191L80.4652 49.4724L81.9806 54.9811L76.1926 50.7088L74.8124 49.6895V49.6611L74.7904 49.6769L74.7715 49.6611V49.6895Z" fill="#C4CDD3"/>
<path fill-rule="evenodd" clip-rule="evenodd" d="M74.8117 49.6617V49.69L76.192 50.7093L81.98 54.9816L80.4646 49.4729L80.2036 48.5165L79.6943 46.6729L81.3763 45.7669L86.8217 42.8284C84.0707 42.2244 81.2663 41.828 78.4305 41.6455L77.044 41.5574L76.9874 41.4442L76.4277 40.3116L76.3932 40.2393L74.7897 36.9768L73.2398 40.1323H73.2366L73.1486 40.3116L72.5952 41.4442L72.5387 41.5574L71.1522 41.6455C68.3163 41.828 65.5088 42.2244 62.7609 42.8284L68.2063 45.7669L69.8914 46.6729L69.379 48.5165L69.118 49.4729L67.6026 54.9816L73.3907 50.7093L74.7709 49.69V49.6617L74.7897 49.6774L74.8117 49.6617Z" fill="#C4CDD3"/>
</g>
<defs>
<clipPath id="clip0_429_2684">
<rect width="150" height="150" fill="white"/>
</clipPath>
</defs>
</svg>
