<svg width="100" height="63" viewBox="0 0 100 63" fill="none" xmlns="http://www.w3.org/2000/svg">
<path d="M30.8875 31.7214H37.2352V33.7849H34.216V48.3639H30.8875V31.7214Z" fill="#0073BB"/>
<path d="M37.312 48.3649H40.5753L40.8798 43.9406H42.448L42.7601 48.3649H46.0126L44.2817 31.722H39.0521L37.312 48.3649V48.3649ZM40.9959 42.1086L41.5697 33.7841H41.7587L42.3305 42.1086H40.9959Z" fill="#0073BB"/>
<path d="M50.7779 42.5383V45.669C50.7779 46.0969 51.1107 46.2169 51.3029 46.2169C51.6155 46.2169 51.8266 45.9567 51.8266 45.669V41.8038C51.8266 41.2767 51.7295 40.7106 50.4882 40.7106H49.141V38.879H50.5443C51.492 38.879 51.8266 38.6654 51.8266 37.6451V34.3274C51.8266 34.0468 51.6155 33.7837 51.3029 33.7837C51.1107 33.7837 50.7779 33.9033 50.7779 34.3274V37.0467H47.449V34.6953C47.449 33.5294 47.597 31.722 49.9217 31.722H52.6849C55.0135 31.722 55.1573 33.5294 55.1573 34.6953V37.355C55.1573 39.1666 53.8939 39.6636 52.8957 39.6131V39.7871C55.1331 39.733 55.1573 41.4433 55.1573 42.0378V45.3941C55.1573 46.5533 55.0135 48.3642 52.6849 48.3642H49.9217C47.597 48.3642 47.449 46.5533 47.449 45.3941V42.5383H50.7779V42.5383Z" fill="#0073BB"/>
<path d="M57.3425 31.7214H65.0508V48.3639H61.7184V33.7849H60.6697V48.3639H57.3425V31.7214Z" fill="#0073BB"/>
<path d="M67.2332 48.3649H70.5656V42.7053H72.4663C74.7934 42.7053 74.9373 40.8996 74.9373 39.7334V34.696C74.9373 33.5298 74.7934 31.722 72.4663 31.722H67.2332V48.3649V48.3649ZM70.5656 40.8751V33.7841H70.9938C71.3523 33.7841 71.6083 34.0941 71.6083 34.6195V40.0435C71.6083 40.5668 71.3523 40.8751 70.9938 40.8751H70.5656Z" fill="#0073BB"/>
<path d="M77.127 45.3949C77.127 46.5534 77.2704 48.3646 79.5997 48.3646H82.3601C84.689 48.3646 84.8311 46.5534 84.8311 45.3949V34.694C84.8311 33.5282 84.689 31.7225 82.3601 31.7225H79.5997C77.2704 31.7225 77.127 33.5282 77.127 34.694V45.3949ZM81.5042 45.6678C81.5042 45.9571 81.2871 46.2149 80.9823 46.2149C80.7863 46.2149 80.4559 46.0974 80.4559 45.6678V34.3282C80.4559 33.9038 80.7863 33.7839 80.9823 33.7839C81.2871 33.7839 81.5042 34.0473 81.5042 34.3282V45.6678Z" fill="#0073BB"/>
<path d="M95.6694 31.7214H100V48.3639H96.6711V37.925H96.5515L94.8374 48.3639H92.1763L90.464 37.925H90.35V48.3639H87.0176V31.7214H91.3465L93.5148 43.4167L95.6694 31.7214Z" fill="#0073BB"/>
<path d="M26.2779 16.5388C26.2372 18.2438 26.0334 20.0364 25.7714 21.1108C25.8633 19.2606 25.6487 16.6454 25.2204 14.6143C24.7939 12.5747 23.5888 9.17494 22.626 7.59343C21.7403 9.09672 20.6467 12.0381 20.075 14.5876C19.4991 17.1505 19.4822 20.236 19.4822 21.169C19.3276 20.3837 18.946 17.5991 19.0561 14.7991C19.1455 12.4853 19.6839 10.1111 19.9849 9.02201C21.1104 5.36936 22.391 3.04463 22.626 2.67249C22.8708 3.04463 24.4821 5.90986 25.3137 8.93187C26.1457 11.9448 26.3172 14.8307 26.2779 16.5388V16.5388ZM22.6505 29.5665C22.1514 28.6209 21.3721 26.83 21.2973 24.0528C21.2788 21.371 22.3531 19.0736 22.6653 18.5952C22.9494 19.0736 23.8729 21.0715 23.9812 23.8132C24.0538 26.4996 23.1682 28.6023 22.6505 29.5665V29.5665ZM26.5736 8.96589C25.555 4.50408 23.0016 0.872118 22.6505 0.283569C22.09 1.11378 20.0561 4.31713 19.0189 7.86841C17.8916 11.8346 17.7201 15.3543 18.1105 18.8176C18.4995 22.2791 19.9649 25.8283 19.9649 25.8283C20.7404 27.696 21.9066 29.6938 22.6653 30.6766C23.7775 29.2319 26.3326 24.9255 27.1288 19.2999C27.5718 16.167 27.5922 13.4288 26.5736 8.96589Z" fill="#0073BB"/>
<path d="M24.3725 31.7161H16.6291V36.9142C16.639 36.9065 16.6404 36.9008 16.6498 36.8991C18.4741 35.0714 21.4347 35.0714 23.2568 36.8991C25.0866 38.7212 25.0866 41.684 23.2568 43.5043C23.2515 43.5155 23.2456 43.525 23.2382 43.5289V43.5324C23.227 43.5415 23.2196 43.5415 23.2084 43.551C21.3898 45.3678 19.0103 46.2685 16.6291 46.2685C14.2367 46.2685 11.8481 45.3605 10.0278 43.5324C6.809 40.3196 6.43125 35.3478 8.88014 31.7161C9.20704 31.2265 9.58654 30.7569 10.0278 30.3272C11.8481 28.5012 14.2367 27.5928 16.6291 27.5928V15.0947C7.44069 15.0947 0 22.5407 0 31.7161C0 40.9007 7.44069 48.3432 16.6291 48.3432C21.42 48.3432 25.7299 46.3194 28.7691 43.0799V31.7161H24.3725V31.7161Z" fill="#0073BB"/>
<path d="M4.85357 55.4631V56.1737H2.31138V62.5562H1.52466V55.4631H4.85357Z" fill="#0073BB"/>
<path d="M9.30641 55.4631V56.1737H6.53798V58.4778H9.12858V59.1859H6.53798V61.8477H9.31588V62.5562H5.74951V55.4631H9.30641Z" fill="#0073BB"/>
<path d="M11.3257 58.478H14.0341V55.4634H14.823V62.5568H14.0341V59.1865H11.3257V62.5568H10.5369V55.4634H11.3257V58.478Z" fill="#0073BB"/>
<path d="M19.8762 55.4631V56.1737H17.1082V58.4778H19.6988V59.1859H17.1082V61.8477H19.8854V62.5562H16.3193V55.4631H19.8762Z" fill="#0073BB"/>
<path d="M21.8954 58.8418H22.6635C23.7484 58.8418 24.3966 58.6731 24.3966 57.4641C24.3966 56.4585 23.8357 56.1723 22.8898 56.1723H21.8954V58.8418V58.8418ZM21.8954 62.5552H21.1069V55.4624H23.0792C24.3685 55.4624 25.2152 56.066 25.2152 57.4641C25.2152 59.1182 24.2096 59.5517 22.929 59.5517H21.8954V62.5552Z" fill="#0073BB"/>
<path d="M27.7177 56.0341H27.6991L26.7623 59.8081H28.6332L27.7177 56.0341ZM27.2053 55.4624H28.2502L30.2389 62.5552H29.3718L28.811 60.5163H26.5754L26.0524 62.5552H25.1868L27.2053 55.4624Z" fill="#0073BB"/>
<path d="M35.6081 55.4631V62.5562H34.8192V56.1737H32.4363V58.9804C32.4363 60.5658 32.4065 62.6457 31.0267 62.6457C30.8797 62.6457 30.711 62.625 30.5542 62.5861V61.887C30.6629 61.9242 30.7731 61.9358 30.8604 61.9358C31.5896 61.9358 31.6478 60.8327 31.6478 58.556V55.4631H35.6081V55.4631Z" fill="#0073BB"/>
<path d="M37.8943 61.8477H38.7897C39.7353 61.8477 40.2983 61.5619 40.2983 60.5563C40.2983 59.4234 39.6571 59.1859 38.5635 59.1859H37.8943V61.8477V61.8477ZM37.8943 58.4778H38.8304C40.111 58.4778 41.1145 58.9117 41.1145 60.5563C41.1145 61.9638 40.2678 62.5562 38.9879 62.5562H37.1055V55.4631H37.8943V58.4778V58.4778Z" fill="#0073BB"/>
<path d="M42.8192 58.478H45.529V55.4634H46.3158V62.5568H45.529V59.1865H42.8192V62.5568H42.0325V55.4634H42.8192V58.478Z" fill="#0073BB"/>
<path d="M53.6946 62.555H52.9058V55.4619H53.6946V62.555ZM48.6028 61.8465H49.4983C50.4442 61.8465 51.0047 61.5607 51.0047 60.5551C51.0047 59.4243 50.3657 59.1872 49.2706 59.1872H48.6028V61.8465ZM48.6028 58.4787H49.5376C50.8181 58.4787 51.8237 58.9104 51.8237 60.5551C51.8237 61.9644 50.977 62.555 49.6943 62.555H47.8147V55.4619H48.6028V58.4787V58.4787Z" fill="#0073BB"/>
<path d="M56.4439 53.8185C56.5614 54.3116 56.8869 54.4968 57.3505 54.4968C57.8325 54.4968 58.1278 54.3302 58.2362 53.8185H58.6399C58.6399 54.6652 58.0699 55.0296 57.3106 55.0296C56.6213 55.0296 56.0402 54.6557 56.0402 53.8185H56.4439V53.8185ZM55.9802 55.4631V61.2557C55.9802 61.5114 55.9707 61.7881 55.9612 62.0424H55.9802C56.0794 61.719 56.1089 61.4626 56.2657 61.0684L58.4715 55.4631H59.6153V62.5562H58.8265V56.9026C58.8265 56.5361 58.8381 56.1737 58.8472 55.8184H58.8265C58.7591 56.2425 58.6792 56.6462 58.5522 56.9713L56.3351 62.5562H55.1931V55.4631H55.9802V55.4631Z" fill="#0073BB"/>
<path d="M66.6094 57.5914C66.6094 56.7352 66.3253 56.0341 65.3383 56.0341C63.9704 56.0341 63.961 57.9649 63.961 58.9014C63.961 60.3405 64.0392 62.0132 65.3383 62.0132C66.3646 62.0132 66.5309 61.1665 66.6094 59.9947H67.3983C67.3102 61.6302 66.9051 62.7235 65.3983 62.7235C63.3107 62.7235 63.1423 60.5948 63.1423 58.92C63.1423 57.3238 63.438 55.3259 65.3776 55.3259C66.7182 55.3259 67.3983 56.3203 67.3983 57.5914H66.6094V57.5914Z" fill="#0073BB"/>
<path d="M72.6876 55.4631V62.5562H71.9008V56.1737H69.1906V62.5562H68.4036V55.4631H72.6876Z" fill="#0073BB"/>
<path d="M75.9483 56.0341C74.7372 56.0341 74.4513 57.2866 74.4513 58.8734C74.4513 60.9312 74.6684 62.0132 75.9669 62.0132C77.2699 62.0132 77.4961 60.9312 77.4961 58.8807C77.4961 57.2957 77.1987 56.0341 75.9483 56.0341ZM73.6348 58.9986C73.6348 57.3739 73.9003 55.3259 75.9669 55.3259C78.0475 55.3259 78.313 57.3739 78.313 58.9986C78.313 60.9592 78.0363 62.7235 75.9669 62.7235C73.9003 62.7235 73.6348 60.9592 73.6348 58.9986Z" fill="#0073BB"/>
<path d="M80.0962 58.478H82.8046V55.4634H83.5931V62.5568H82.8046V59.1865H80.0962V62.5568H79.3074V55.4634H80.0962V58.478Z" fill="#0073BB"/>
<path d="M88.1055 57.5914C88.1055 56.7352 87.8197 56.0341 86.833 56.0341C85.4644 56.0341 85.4557 57.9649 85.4557 58.9014C85.4557 60.3405 85.5339 62.0132 86.833 62.0132C87.859 62.0132 88.0252 61.1665 88.1055 59.9947H88.8926C88.8049 61.6302 88.3991 62.7235 86.8944 62.7235C84.805 62.7235 84.6384 60.5948 84.6384 58.92C84.6384 57.3238 84.9338 55.3259 86.8737 55.3259C88.2143 55.3259 88.8926 56.3203 88.8926 57.5914H88.1055V57.5914Z" fill="#0073BB"/>
<path d="M92.0156 56.0341C90.8063 56.0341 90.5183 57.2866 90.5183 58.8734C90.5183 60.9312 90.7351 62.0132 92.036 62.0132C93.3372 62.0132 93.5614 60.9312 93.5614 58.8807C93.5614 57.2957 93.2678 56.0341 92.0156 56.0341V56.0341ZM89.7014 58.9986C89.7014 57.3739 89.9669 55.3259 92.036 55.3259C94.1145 55.3259 94.3817 57.3739 94.3817 58.9986C94.3817 60.9592 94.1033 62.7235 92.036 62.7235C89.9669 62.7235 89.7014 60.9592 89.7014 58.9986Z" fill="#0073BB"/>
<path d="M96.2612 58.8418H97.0311C98.1135 58.8418 98.7638 58.6731 98.7638 57.4641C98.7638 56.4585 98.2029 56.1723 97.2552 56.1723H96.2612V58.8418V58.8418ZM96.2612 62.5552H95.4741V55.4624H97.4442C98.7339 55.4624 99.5806 56.066 99.5806 57.4641C99.5806 59.1182 98.5765 59.5517 97.2966 59.5517H96.2612V62.5552Z" fill="#0073BB"/>
</svg>
