<?xml version="1.0" encoding="UTF-8"?>
<!DOCTYPE svg PUBLIC "-//W3C//DTD SVG 1.1//EN" "http://www.w3.org/Graphics/SVG/1.1/DTD/svg11.dtd">
<!-- Creator: CorelDRAW 2021 (64-Bit) -->
<svg xmlns="http://www.w3.org/2000/svg" xml:space="preserve" width="17.8567mm" height="4.9128mm" version="1.1" style="shape-rendering:geometricPrecision; text-rendering:geometricPrecision; image-rendering:optimizeQuality; fill-rule:evenodd; clip-rule:evenodd"
viewBox="0 0 89.96 24.75"
 xmlns:xlink="http://www.w3.org/1999/xlink"
 xmlns:xodm="http://www.corel.com/coreldraw/odm/2003">
 <defs>
  <style type="text/css">
   <![CDATA[
    .fil0 {fill:#4A5161;fill-rule:nonzero}
   ]]>
  </style>
 </defs>
 <g id="Слой_x0020_1">
  <metadata id="CorelCorpID_0Corel-Layer"/>
  <g id="_2283865386032">
   <path class="fil0" d="M22.47 9.58l-1.46 9.18c-0.07,0.42 -0.34,0.66 -0.74,0.66 -0.19,0 -0.34,-0.06 -0.43,-0.17 -0.1,-0.12 -0.13,-0.3 -0.1,-0.52l1.46 -9.17c0.07,-0.43 0.34,-0.67 0.74,-0.67 0.19,0 0.34,0.06 0.43,0.17 0.1,0.12 0.13,0.3 0.1,0.52zm-0.26 -2.65c-2.3,0 -3.72,0.88 -4.07,2.96l-1.36 8.58c-0.23,1.93 1.01,2.92 3.23,2.92 2.3,0 3.7,-0.83 4.05,-2.91l0.01 0 0 0 1.34 -8.48c0.35,-2.08 -0.9,-3.08 -3.2,-3.08z"/>
   <polygon class="fil0" points="58.92,21.25 61.71,3.61 58.65,3.61 55.86,21.25 "/>
   <path class="fil0" d="M32.57 7.02l0.01 -0.1c-1.09,-0.15 -2.29,0.08 -3.06,1.04l-0.55 -0.89 -1.83 0 -2.25 14.18 3.06 0 1.67 -10.53c0.23,-1.45 1.61,-1.26 2.52,-1.04l0.43 -2.66zm1.35 -3.41l-2.79 17.63 3.06 0 2.79 -17.64 -3.06 0z"/>
   <path class="fil0" d="M41.58 9.58l-1.46 9.18c-0.07,0.42 -0.34,0.66 -0.74,0.66 -0.19,0 -0.34,-0.06 -0.43,-0.17 -0.1,-0.12 -0.13,-0.29 -0.1,-0.52l1.46 -9.17c0.07,-0.43 0.34,-0.67 0.74,-0.67 0.19,0 0.34,0.06 0.43,0.17 0.1,0.12 0.13,0.3 0.1,0.52zm0.89 -5.97l-0.62 3.92c-0.4,-0.41 -1.03,-0.62 -1.84,-0.62 -1.64,0 -2.43,0.85 -2.69,2.49l-1.51 9.51c-0.26,1.63 0.59,2.47 2.23,2.47 1.04,0 1.78,-0.34 2.33,-1.01l0.53 0.87 1.84 0 2.79 -17.64 -3.06 0z"/>
   <path class="fil0" d="M74.64 6.91c-2.33,0 -3.71,0.78 -4.09,2.96l-0.17 0.94c-0.23,1.3 0.05,2.43 1.1,3.27l1.77 1.57c0.35,0.29 0.45,0.64 0.41,1.05l-0.32 2.04c-0.07,0.42 -0.34,0.66 -0.74,0.66 -0.19,0 -0.34,-0.06 -0.43,-0.17 -0.1,-0.12 -0.13,-0.3 -0.1,-0.52l0.39 -2.47 -2.93 0 -0.37 2.19c-0.27,1.95 1.04,2.95 3.15,2.95 2.5,0 3.76,-0.82 4.13,-2.9l0.21 -1.26c0.23,-1.3 0.05,-2.57 -0.98,-3.37l-1.88 -1.66c-0.37,-0.29 -0.5,-0.61 -0.41,-1.08l0 -0.02 0.23 -1.54c0.07,-0.43 0.34,-0.67 0.74,-0.67 0.19,0 0.34,0.06 0.43,0.17 0.1,0.12 0.13,0.3 0.1,0.52l-0.33 2.08 2.98 -0 0.27 -1.64c0.34,-1.82 -0.52,-3.1 -3.16,-3.1z"/>
   <path class="fil0" d="M83.17 6.91c-2.33,0 -3.71,0.78 -4.09,2.96l-0.17 0.94c-0.23,1.3 0.05,2.43 1.1,3.27l1.77 1.57c0.35,0.29 0.45,0.64 0.41,1.05l-0.32 2.04c-0.07,0.42 -0.34,0.66 -0.74,0.66 -0.19,0 -0.34,-0.06 -0.43,-0.17 -0.1,-0.12 -0.13,-0.3 -0.1,-0.52l0.39 -2.47 -2.93 0 -0.37 2.19c-0.27,1.95 1.04,2.95 3.15,2.95 2.5,0 3.76,-0.82 4.13,-2.9l0.21 -1.26c0.23,-1.3 0.05,-2.57 -0.98,-3.37l-1.88 -1.66c-0.37,-0.29 -0.5,-0.61 -0.41,-1.08l0 -0.02 0.23 -1.54c0.07,-0.43 0.34,-0.67 0.74,-0.67 0.19,0 0.34,0.06 0.43,0.17 0.1,0.12 0.13,0.3 0.1,0.52l-0.33 2.08 2.98 -0 0.27 -1.64c0.34,-1.82 -0.52,-3.1 -3.16,-3.1z"/>
   <path class="fil0" d="M64.85 18.76l0 0c-0.07,0.42 -0.34,0.66 -0.74,0.66 -0.19,0 -0.34,-0.06 -0.43,-0.17 -0.08,-0.09 -0.11,-0.21 -0.11,-0.36 0,-0.05 0.01,-0.1 0.02,-0.16l0.4 -2.49c0.09,-0.52 0.33,-0.86 0.81,-1.12l0.71 -0.36 -0.65 4zm1.23 -11.84c-2.29,0 -3.77,0.89 -4.11,2.97l-0.28 1.78 3.02 0 0.33 -2.1c0.07,-0.43 0.34,-0.67 0.74,-0.67 0.19,0 0.34,0.06 0.43,0.17 0.1,0.12 0.13,0.3 0.1,0.52l-0.42 2.7 -2.81 1.49c-1.32,0.69 -1.97,1.61 -2.21,3.07l-0.33 2.08c-0.26,1.64 0.6,2.47 2.23,2.47 1.04,0 1.77,-0.35 2.33,-1.01l0.53 0.87 1.84 0 1.8 -11.31c0.35,-2.08 -1.07,-3.02 -3.19,-3.02z"/>
   <path class="fil0" d="M53.58 3.47c-2.3,0 -3.9,0.94 -4.23,3.02l-1.89 11.75c-0.31,2.01 0.86,3.15 3.5,3.16 2.22,-0 3.73,-0.93 4.06,-3.01l0.69 -4.13 -3.1 0 -0 0.03 -0.7 4.4c-0.07,0.45 -0.35,0.7 -0.77,0.7 -0.2,0 -0.36,-0.06 -0.46,-0.18 -0.11,-0.13 -0.15,-0.31 -0.11,-0.55l2.02 -12.53c0.07,-0.45 0.35,-0.7 0.77,-0.7 0.2,0 0.36,0.06 0.46,0.18 0.11,0.13 0.15,0.31 0.11,0.55l-0.6 3.64 3.09 0 0.53 -3.25c0.33,-2.08 -1.05,-3.09 -3.35,-3.09z"/>
   <path class="fil0" d="M88.48 10.39l-1.37 8.55c-0.35,1.98 -0.78,4.44 -5.45,4.44l-30.69 0c-2.26,-0 -3.78,-0.49 -4.69,-1.62 -0.85,-1.05 -1.06,-2.07 -1.06,-2.07l-0.59 3.69 0 0 -24.62 0c-2.35,0 -3.64,-0.67 -4.32,-1.42 -0.01,-0.01 -0.02,-0.02 -0.03,-0.04l0 -0 -0 0 -0.44 1.46 -0.01 0 -13.83 0 0 -22.01 20.53 0 -1.06 3.49 10.66 0 0.55 -3.49 16.06 0 -0.48 3.32 0.79 -0.91c1.32,-1.53 3.21,-2.4 5.16,-2.4l10.69 0 -0.58 3.66 0.51 -0.11c0.58,-0.13 1.21,-0.19 1.88,-0.19 1.61,0 2.91,0.41 3.88,1.21l0.22 0.18 0.22 -0.17c1.05,-0.81 2.48,-1.22 4.23,-1.22 1.64,0 2.95,0.4 3.89,1.18l0.21 0.18 0.22 -0.17c1.05,-0.79 2.46,-1.19 4.2,-1.19 2,0 3.49,0.58 4.44,1.73 0.59,0.72 1.23,1.98 0.87,3.94zm-88.48 14.35l16.22 0 0.17 -0.57c0.9,0.45 2.08,0.57 3.61,0.57l0 -0 25.78 0 0.22 -1.35c1.18,0.92 2.78,1.35 4.95,1.35l30.69 0c5.82,0 6.45,-3.62 6.8,-5.59l1.37 -8.53c0.45,-2.47 -0.39,-4.1 -1.16,-5.04 -1.23,-1.48 -3.08,-2.23 -5.5,-2.23 -1.72,0 -3.19,0.35 -4.39,1.05 -1.11,-0.69 -2.5,-1.05 -4.14,-1.05 -1.74,0 -3.23,0.36 -4.43,1.07 -1.12,-0.71 -2.51,-1.07 -4.13,-1.07 -0.25,0 -0.49,0.01 -0.74,0.02l0.54 -3.38 -9.4 0 -2.9 -0c-1.43,0 -2.82,0.39 -4.05,1.1l0.16 -1.1 -18.82 -0 -0.55 3.49 -7.65 0 1.06 -3.49 -23.74 0 0 24.75 0 0z"/>
   <path class="fil0" d="M88.48 10.39l-1.37 8.55c-0.35,1.98 -0.78,4.44 -5.45,4.44l-30.69 0c-2.26,-0 -3.78,-0.49 -4.69,-1.62 -0.85,-1.05 -1.06,-2.07 -1.06,-2.07l-0.59 3.69 0 0 -24.62 0c-2.35,0 -3.64,-0.67 -4.32,-1.42 -0.01,-0.01 -0.02,-0.02 -0.03,-0.04l0 -0 -0 0 -0.44 1.46 -0.01 0 -13.83 0 0 -22.01 20.53 0 -1.06 3.49 10.66 0 0.55 -3.49 16.06 0 -0.48 3.32 0.79 -0.91c1.32,-1.53 3.21,-2.4 5.16,-2.4l10.69 0 -0.58 3.66 0.51 -0.11c0.58,-0.13 1.21,-0.19 1.88,-0.19 1.61,0 2.91,0.41 3.88,1.21l0.22 0.18 0.22 -0.17c1.05,-0.81 2.48,-1.22 4.23,-1.22 1.64,0 2.95,0.4 3.89,1.18l0.21 0.18 0.22 -0.17c1.05,-0.79 2.46,-1.19 4.2,-1.19 2,0 3.49,0.58 4.44,1.73 0.59,0.72 1.23,1.98 0.87,3.94zm-88.48 14.35l16.22 0 0.17 -0.57c0.9,0.45 2.08,0.57 3.61,0.57l0 -0 25.78 0 0.22 -1.35c1.18,0.92 2.78,1.35 4.95,1.35l30.69 0c5.82,0 6.45,-3.62 6.8,-5.59l1.37 -8.53c0.45,-2.47 -0.39,-4.1 -1.16,-5.04 -1.23,-1.48 -3.08,-2.23 -5.5,-2.23 -1.72,0 -3.19,0.35 -4.39,1.05 -1.11,-0.69 -2.5,-1.05 -4.14,-1.05 -1.74,0 -3.23,0.36 -4.43,1.07 -1.12,-0.71 -2.51,-1.07 -4.13,-1.07 -0.25,0 -0.49,0.01 -0.74,0.02l0.54 -3.38 -9.4 0 -2.9 -0c-1.43,0 -2.82,0.39 -4.05,1.1l0.16 -1.1 -18.82 -0 -0.55 3.49 -7.65 0 1.06 -3.49 -23.74 0 0 24.75 0 0z"/>
   <polygon class="fil0" points="13.39,21.17 18.8,3.56 15.74,3.56 12.96,12.49 12.76,12.49 12.79,3.56 9.42,3.56 6.77,12.5 6.57,12.5 6.57,3.56 3.56,3.56 3.56,21.17 6.78,21.17 9.8,11.09 9.99,11.09 10.17,21.17 "/>
  </g>
 </g>
</svg>
