<svg width="100" height="63" viewBox="0 0 100 63" fill="none" xmlns="http://www.w3.org/2000/svg">
<path d="M30.8875 31.4379H37.2352V33.5013H34.216V48.0803H30.8875V31.4379Z" fill="#4A5161"/>
<path d="M37.312 48.0813H40.5753L40.8798 43.657H42.448L42.7601 48.0813H46.0126L44.2817 31.4385H39.0521L37.312 48.0813V48.0813ZM40.9959 41.8251L41.5697 33.5005H41.7587L42.3305 41.8251H40.9959Z" fill="#4A5161"/>
<path d="M50.7779 42.2547V45.3855C50.7779 45.8134 51.1107 45.9333 51.3029 45.9333C51.6155 45.9333 51.8266 45.6731 51.8266 45.3855V41.5203C51.8266 40.9931 51.7295 40.427 50.4882 40.427H49.141V38.5954H50.5443C51.492 38.5954 51.8266 38.3818 51.8266 37.3615V34.0438C51.8266 33.7632 51.6155 33.5002 51.3029 33.5002C51.1107 33.5002 50.7779 33.6198 50.7779 34.0438V36.7631H47.449V34.4117C47.449 33.2459 47.597 31.4385 49.9217 31.4385H52.6849C55.0135 31.4385 55.1573 33.2459 55.1573 34.4117V37.0714C55.1573 38.883 53.8939 39.38 52.8957 39.3295V39.5035C55.1331 39.4495 55.1573 41.1597 55.1573 41.7542V45.1105C55.1573 46.2697 55.0135 48.0806 52.6849 48.0806H49.9217C47.597 48.0806 47.449 46.2697 47.449 45.1105V42.2547H50.7779V42.2547Z" fill="#4A5161"/>
<path d="M57.3425 31.4379H65.0508V48.0803H61.7184V33.5013H60.6697V48.0803H57.3425V31.4379Z" fill="#4A5161"/>
<path d="M67.2332 48.0813H70.5656V42.4217H72.4663C74.7934 42.4217 74.9373 40.6161 74.9373 39.4498V34.4124C74.9373 33.2462 74.7934 31.4385 72.4663 31.4385H67.2332V48.0813V48.0813ZM70.5656 40.5915V33.5005H70.9938C71.3523 33.5005 71.6083 33.8106 71.6083 34.336V39.7599C71.6083 40.2832 71.3523 40.5915 70.9938 40.5915H70.5656Z" fill="#4A5161"/>
<path d="M77.127 45.1113C77.127 46.2698 77.2704 48.0811 79.5997 48.0811H82.3601C84.689 48.0811 84.8311 46.2698 84.8311 45.1113V34.4105C84.8311 33.2446 84.689 31.439 82.3601 31.439H79.5997C77.2704 31.439 77.127 33.2446 77.127 34.4105V45.1113ZM81.5042 45.3842C81.5042 45.6736 81.2871 45.9314 80.9823 45.9314C80.7863 45.9314 80.4559 45.8139 80.4559 45.3842V34.0446C80.4559 33.6202 80.7863 33.5003 80.9823 33.5003C81.2871 33.5003 81.5042 33.7637 81.5042 34.0446V45.3842Z" fill="#4A5161"/>
<path d="M95.6694 31.4379H100V48.0803H96.6711V37.6415H96.5515L94.8374 48.0803H92.1763L90.464 37.6415H90.35V48.0803H87.0176V31.4379H91.3465L93.5148 43.1331L95.6694 31.4379Z" fill="#4A5161"/>
<path d="M26.2779 16.2552C26.2372 17.9602 26.0334 19.7529 25.7714 20.8272C25.8633 18.977 25.6487 16.3619 25.2204 14.3307C24.7939 12.2911 23.5888 8.89137 22.626 7.30986C21.7403 8.81315 20.6467 11.7545 20.075 14.3041C19.4991 16.8669 19.4822 19.9524 19.4822 20.8854C19.3276 20.1001 18.946 17.3155 19.0561 14.5156C19.1455 12.2017 19.6839 9.8275 19.9849 8.73844C21.1104 5.08579 22.391 2.76106 22.626 2.38892C22.8708 2.76106 24.4821 5.62629 25.3137 8.6483C26.1457 11.6612 26.3172 14.5471 26.2779 16.2552V16.2552ZM22.6505 29.2829C22.1514 28.3373 21.3721 26.5464 21.2973 23.7692C21.2788 21.0874 22.3531 18.7901 22.6653 18.3117C22.9494 18.7901 23.8729 20.7879 23.9812 23.5297C24.0538 26.216 23.1682 28.3187 22.6505 29.2829V29.2829ZM26.5736 8.68232C25.555 4.22051 23.0016 0.588549 22.6505 0C22.09 0.830212 20.0561 4.03356 19.0189 7.58484C17.8916 11.5511 17.7201 15.0708 18.1105 18.534C18.4995 21.9955 19.9649 25.5447 19.9649 25.5447C20.7404 27.4124 21.9066 29.4103 22.6653 30.393C23.7775 28.9483 26.3326 24.6419 27.1288 19.0163C27.5718 15.8835 27.5922 13.1452 26.5736 8.68232Z" fill="#4A5161"/>
<path d="M24.3725 31.4326H16.6291V36.6306C16.639 36.6229 16.6404 36.6173 16.6498 36.6155C18.4741 34.7878 21.4347 34.7878 23.2568 36.6155C25.0866 38.4376 25.0866 41.4004 23.2568 43.2207C23.2515 43.232 23.2456 43.2414 23.2382 43.2453V43.2488C23.227 43.2579 23.2196 43.2579 23.2084 43.2674C21.3898 45.0842 19.0103 45.985 16.6291 45.985C14.2367 45.985 11.8481 45.0769 10.0278 43.2488C6.809 40.036 6.43125 35.0642 8.88014 31.4326C9.20704 30.9429 9.58654 30.4733 10.0278 30.0436C11.8481 28.2177 14.2367 27.3092 16.6291 27.3092V14.8112C7.44069 14.8112 0 22.2571 0 31.4326C0 40.6172 7.44069 48.0596 16.6291 48.0596C21.42 48.0596 25.7299 46.0358 28.7691 42.7963V31.4326H24.3725V31.4326Z" fill="#4A5161"/>
<path d="M4.85357 55.1796V55.8902H2.31138V62.2727H1.52466V55.1796H4.85357Z" fill="#4A5161"/>
<path d="M9.30641 55.1796V55.8902H6.53798V58.1942H9.12858V58.9024H6.53798V61.5642H9.31588V62.2727H5.74951V55.1796H9.30641Z" fill="#4A5161"/>
<path d="M11.3257 58.1945H14.0341V55.1798H14.823V62.2733H14.0341V58.903H11.3257V62.2733H10.5369V55.1798H11.3257V58.1945Z" fill="#4A5161"/>
<path d="M19.8762 55.1796V55.8902H17.1082V58.1942H19.6988V58.9024H17.1082V61.5642H19.8854V62.2727H16.3193V55.1796H19.8762Z" fill="#4A5161"/>
<path d="M21.8954 58.5583H22.6635C23.7484 58.5583 24.3966 58.3895 24.3966 57.1805C24.3966 56.1749 23.8357 55.8887 22.8898 55.8887H21.8954V58.5583V58.5583ZM21.8954 62.2716H21.1069V55.1788H23.0792C24.3685 55.1788 25.2152 55.7825 25.2152 57.1805C25.2152 58.8346 24.2096 59.2682 22.929 59.2682H21.8954V62.2716Z" fill="#4A5161"/>
<path d="M27.7177 55.7505H27.6991L26.7623 59.5246H28.6332L27.7177 55.7505ZM27.2053 55.1788H28.2502L30.2389 62.2716H29.3718L28.811 60.2327H26.5754L26.0524 62.2716H25.1868L27.2053 55.1788Z" fill="#4A5161"/>
<path d="M35.6081 55.1796V62.2727H34.8192V55.8902H32.4363V58.6968C32.4363 60.2822 32.4065 62.3621 31.0267 62.3621C30.8797 62.3621 30.711 62.3414 30.5542 62.3025V61.6034C30.6629 61.6406 30.7731 61.6522 30.8604 61.6522C31.5896 61.6522 31.6478 60.5491 31.6478 58.2724V55.1796H35.6081V55.1796Z" fill="#4A5161"/>
<path d="M37.8943 61.5642H38.7897C39.7353 61.5642 40.2983 61.2783 40.2983 60.2727C40.2983 59.1398 39.6571 58.9024 38.5635 58.9024H37.8943V61.5642V61.5642ZM37.8943 58.1942H38.8304C40.111 58.1942 41.1145 58.6281 41.1145 60.2727C41.1145 61.6803 40.2678 62.2727 38.9879 62.2727H37.1055V55.1796H37.8943V58.1942V58.1942Z" fill="#4A5161"/>
<path d="M42.8192 58.1945H45.529V55.1798H46.3158V62.2733H45.529V58.903H42.8192V62.2733H42.0325V55.1798H42.8192V58.1945Z" fill="#4A5161"/>
<path d="M53.6946 62.2714H52.9058V55.1783H53.6946V62.2714ZM48.6028 61.5629H49.4983C50.4442 61.5629 51.0047 61.2771 51.0047 60.2715C51.0047 59.1407 50.3657 58.9036 49.2706 58.9036H48.6028V61.5629ZM48.6028 58.1951H49.5376C50.8181 58.1951 51.8237 58.6269 51.8237 60.2715C51.8237 61.6808 50.977 62.2714 49.6943 62.2714H47.8147V55.1783H48.6028V58.1951V58.1951Z" fill="#4A5161"/>
<path d="M56.4439 53.5349C56.5614 54.0281 56.8869 54.2133 57.3505 54.2133C57.8325 54.2133 58.1278 54.0466 58.2362 53.5349H58.6399C58.6399 54.3816 58.0699 54.746 57.3106 54.746C56.6213 54.746 56.0402 54.3721 56.0402 53.5349H56.4439V53.5349ZM55.9802 55.1796V60.9721C55.9802 61.2278 55.9707 61.5045 55.9612 61.7588H55.9802C56.0794 61.4354 56.1089 61.179 56.2657 60.7848L58.4715 55.1796H59.6153V62.2727H58.8265V56.619C58.8265 56.2525 58.8381 55.8902 58.8472 55.5349H58.8265C58.7591 55.9589 58.6792 56.3626 58.5522 56.6878L56.3351 62.2727H55.1931V55.1796H55.9802V55.1796Z" fill="#4A5161"/>
<path d="M66.6094 57.3078C66.6094 56.4516 66.3253 55.7505 65.3383 55.7505C63.9704 55.7505 63.961 57.6814 63.961 58.6178C63.961 60.0569 64.0392 61.7296 65.3383 61.7296C66.3646 61.7296 66.5309 60.883 66.6094 59.7111H67.3983C67.3102 61.3466 66.9051 62.4399 65.3983 62.4399C63.3107 62.4399 63.1423 60.3112 63.1423 58.6364C63.1423 57.0402 63.438 55.0424 65.3776 55.0424C66.7182 55.0424 67.3983 56.0367 67.3983 57.3078H66.6094V57.3078Z" fill="#4A5161"/>
<path d="M72.6876 55.1796V62.2727H71.9008V55.8902H69.1906V62.2727H68.4036V55.1796H72.6876Z" fill="#4A5161"/>
<path d="M75.9483 55.7505C74.7372 55.7505 74.4513 57.003 74.4513 58.5898C74.4513 60.6476 74.6684 61.7296 75.9669 61.7296C77.2699 61.7296 77.4961 60.6476 77.4961 58.5972C77.4961 57.0121 77.1987 55.7505 75.9483 55.7505ZM73.6348 58.715C73.6348 57.0904 73.9003 55.0424 75.9669 55.0424C78.0475 55.0424 78.313 57.0904 78.313 58.715C78.313 60.6757 78.0363 62.4399 75.9669 62.4399C73.9003 62.4399 73.6348 60.6757 73.6348 58.715Z" fill="#4A5161"/>
<path d="M80.0962 58.1945H82.8046V55.1798H83.5931V62.2733H82.8046V58.903H80.0962V62.2733H79.3074V55.1798H80.0962V58.1945Z" fill="#4A5161"/>
<path d="M88.1055 57.3078C88.1055 56.4516 87.8197 55.7505 86.833 55.7505C85.4644 55.7505 85.4557 57.6814 85.4557 58.6178C85.4557 60.0569 85.5339 61.7296 86.833 61.7296C87.859 61.7296 88.0252 60.883 88.1055 59.7111H88.8926C88.8049 61.3466 88.3991 62.4399 86.8944 62.4399C84.805 62.4399 84.6384 60.3112 84.6384 58.6364C84.6384 57.0402 84.9338 55.0424 86.8737 55.0424C88.2143 55.0424 88.8926 56.0367 88.8926 57.3078H88.1055V57.3078Z" fill="#4A5161"/>
<path d="M92.0156 55.7505C90.8063 55.7505 90.5183 57.003 90.5183 58.5898C90.5183 60.6476 90.7351 61.7296 92.036 61.7296C93.3372 61.7296 93.5614 60.6476 93.5614 58.5972C93.5614 57.0121 93.2678 55.7505 92.0156 55.7505V55.7505ZM89.7014 58.715C89.7014 57.0904 89.9669 55.0424 92.036 55.0424C94.1145 55.0424 94.3817 57.0904 94.3817 58.715C94.3817 60.6757 94.1033 62.4399 92.036 62.4399C89.9669 62.4399 89.7014 60.6757 89.7014 58.715Z" fill="#4A5161"/>
<path d="M96.2612 58.5583H97.0311C98.1135 58.5583 98.7638 58.3895 98.7638 57.1805C98.7638 56.1749 98.2029 55.8887 97.2552 55.8887H96.2612V58.5583V58.5583ZM96.2612 62.2716H95.4741V55.1788H97.4442C98.7339 55.1788 99.5806 55.7825 99.5806 57.1805C99.5806 58.8346 98.5765 59.2682 97.2966 59.2682H96.2612V62.2716Z" fill="#4A5161"/>
</svg>
