<?xml version="1.0" encoding="utf-8"?>
<!-- Generator: Adobe Illustrator 26.4.1, SVG Export Plug-In . SVG Version: 6.00 Build 0)  -->
<svg version="1.1" id="Слой_1" xmlns="http://www.w3.org/2000/svg" xmlns:xlink="http://www.w3.org/1999/xlink" x="0px" y="0px"
	 viewBox="0 0 100 100" style="enable-background:new 0 0 100 100;" xml:space="preserve">
<style type="text/css">
	.st0{fill:none;}
	
		.st1{clip-path:url(#SVGID_00000031195917117688457950000008955131255047957691_);fill-rule:evenodd;clip-rule:evenodd;fill:url(#SVGID_00000016039751835859027120000007002272404018594960_);}
	.st2{fill:#151213;}
	.st3{fill-rule:evenodd;clip-rule:evenodd;fill:#151213;}
	.st4{fill:#FFFFFF;}
	.st5{fill:#009226;}
	.st6{fill-rule:evenodd;clip-rule:evenodd;fill:#FFFFFF;}
	.st7{fill:#00ADEE;}
	.st8{fill-rule:evenodd;clip-rule:evenodd;fill:#FCB810;}
	.st9{fill-rule:evenodd;clip-rule:evenodd;fill:#008A8D;}
	.st10{fill:none;stroke:#181314;stroke-width:0.5854;stroke-miterlimit:22.9256;}
	.st11{fill-rule:evenodd;clip-rule:evenodd;fill:#ABABAD;}
	.st12{fill-rule:evenodd;clip-rule:evenodd;fill:#EE7607;}
	.st13{fill:none;stroke:#FFFFFF;stroke-width:1.4635;stroke-miterlimit:22.9256;}
	.st14{fill-rule:evenodd;clip-rule:evenodd;fill:#181314;}
	.st15{fill-rule:evenodd;clip-rule:evenodd;fill:#BF0808;}
	.st16{fill-rule:evenodd;clip-rule:evenodd;fill:#DA020E;}
	.st17{fill-rule:evenodd;clip-rule:evenodd;fill:#E2000F;}
	.st18{fill-rule:evenodd;clip-rule:evenodd;fill:#0C2F6E;}
	.st19{fill-rule:evenodd;clip-rule:evenodd;fill:#D1050C;}
	.st20{fill-rule:evenodd;clip-rule:evenodd;fill:#0F377F;}
	.st21{fill-rule:evenodd;clip-rule:evenodd;fill:#A40B02;}
	.st22{fill:#C8002D;}
	.st23{fill:#2B4135;}
	.st24{fill:url(#SVGID_00000079470916055258578200000001144455546180682144_);}
	.st25{fill:url(#SVGID_00000128482352983343653440000016185708084789410457_);}
	.st26{fill:#00519F;}
	.st27{fill:#0F1B41;}
	.st28{fill:#EB6608;}
	.st29{fill:#008AD1;}
	.st30{fill:#1D1D1B;}
	.st31{fill-rule:evenodd;clip-rule:evenodd;fill:#1D1D1B;}
	.st32{fill-rule:evenodd;clip-rule:evenodd;fill:#E8501E;}
	.st33{fill:none;stroke:#1D1D1B;stroke-width:0.1477;stroke-linecap:round;stroke-miterlimit:22.9256;}
	.st34{fill-rule:evenodd;clip-rule:evenodd;fill:#EF7F1A;}
	.st35{fill-rule:evenodd;clip-rule:evenodd;}
	.st36{fill-rule:evenodd;clip-rule:evenodd;fill:#FEFEFE;}
	.st37{fill-rule:evenodd;clip-rule:evenodd;fill:#009846;}
	.st38{fill:#FF5000;}
	.st39{fill:#1F355E;}
	.st40{fill:#DDDB05;}
	.st41{fill:#168DCD;}
	.st42{fill:#E53524;}
	.st43{fill:#4ABED8;}
	.st44{fill:#163960;}
	.st45{fill:#00A7E1;}
	.st46{fill:#002D74;}
	.st47{fill:#E1251B;}
	.st48{fill:#4A5161;}
	.st49{fill-rule:evenodd;clip-rule:evenodd;fill:#4A5161;}
	.st50{fill:#F8AD00;}
	.st51{fill:#EA6109;}
	.st52{fill:#283481;}
	.st53{fill:#2C2E7E;}
	.st54{fill:#3F4B9A;}
	.st55{fill-rule:evenodd;clip-rule:evenodd;fill:#2C2E7E;}
</style>
<g>
	<path class="st48" d="M57.66,35.37c-4.17,2.64-7.81,6.04-10.73,10c-0.85,1.16-1.64,2.36-2.37,3.61L45.66,53l2.38-1.81l2.5-1.9h4.71
		l3.19-12.26L57.66,35.37z"/>
	<path class="st48" d="M54.27,28.08c-0.09-0.18-0.23-0.3-0.36-0.33c-0.17-0.04-0.36,0.05-0.49,0.14l-8.62,6.22l-3.57,2.58L44,46.9
		c0.78-1.24,1.63-2.44,2.54-3.59c2.92-3.68,6.46-6.86,10.45-9.37L54.27,28.08z"/>
	<polygon class="st48" points="51.06,50.85 48.37,52.9 46.69,54.18 47.37,57.3 49.26,57.62 52.36,58.14 54.14,50.85 	"/>
	<path class="st48" d="M52.81,59.8l-3.63-0.61l-1.89-0.32l-1.32,4.67c0.89,0.42,1.79,0.8,2.7,1.15c2.04,0.77,4.14,1.35,6.29,1.74
		L52.81,59.8z"/>
	<path class="st48" d="M56.16,70.13c-0.12,0.04-0.24,0.07-0.36,0.11C55.92,70.2,56.04,70.17,56.16,70.13z"/>
	<path class="st48" d="M55.5,68.1c-2.39-0.38-4.73-0.98-6.99-1.8c-1.01-0.37-2-0.78-2.98-1.24l-0.9,3.17l-0.56,1.97
		c0.2,0.06,0.39,0.11,0.59,0.16c0.04,0.01,0.08,0.02,0.12,0.03c0.17,0.04,0.34,0.08,0.52,0.12c0.02,0,0.04,0.01,0.05,0.01
		c0.03,0.01,0.06,0.01,0.09,0.02c0.05,0.01,0.1,0.02,0.14,0.03c0.06,0.01,0.12,0.03,0.19,0.04c0.04,0.01,0.08,0.01,0.12,0.02
		c0.07,0.01,0.15,0.03,0.22,0.04c0.01,0,0.03,0.01,0.04,0.01c0.02,0,0.04,0.01,0.06,0.01c0.05,0.01,0.1,0.02,0.14,0.02
		c0.1,0.02,0.2,0.03,0.3,0.05c0.02,0,0.04,0.01,0.05,0.01c0.02,0,0.04,0.01,0.06,0.01c0.03,0,0.06,0.01,0.09,0.01
		c0.1,0.01,0.2,0.03,0.3,0.04c0.01,0,0.03,0,0.04,0.01c0.29,0.04,0.58,0.07,0.87,0.1l0,0c0.63,0.06,1.27,0.09,1.92,0.09
		c0.84,0,1.66-0.05,2.47-0.14c0.01,0,0.02,0,0.04,0c0.18-0.02,0.35-0.04,0.53-0.07c0.02,0,0.03,0,0.05-0.01c0.01,0,0.03,0,0.04-0.01
		c0.16-0.02,0.32-0.05,0.48-0.08c0.07-0.01,0.15-0.03,0.22-0.04c0.09-0.02,0.17-0.03,0.26-0.05c0,0,0,0,0,0
		c0.18-0.03,0.36-0.07,0.54-0.11c0.02,0,0.05-0.01,0.07-0.01c0,0,0,0,0,0c0.37-0.08,0.74-0.18,1.1-0.28
		c0.12-0.03,0.24-0.07,0.36-0.11L55.5,68.1z"/>
	<path class="st48" d="M56.53,29.23L56.53,29.23c0.02,0.01,0.03,0.01,0.05,0.02C56.56,29.24,56.54,29.24,56.53,29.23z"/>
	<path class="st48" d="M46.24,28.55c0.16-0.03,0.32-0.05,0.47-0.08C46.55,28.5,46.4,28.52,46.24,28.55z"/>
	<path class="st48" d="M45.24,28.75c0.08-0.02,0.15-0.03,0.23-0.05C45.4,28.72,45.32,28.73,45.24,28.75z"/>
	<path class="st48" d="M50.28,28.22L50.28,28.22c-0.09,0-0.18-0.01-0.28-0.01c-1.11,0-2.19,0.09-3.25,0.25
		c1.06-0.16,2.15-0.25,3.26-0.25C50.09,28.22,50.18,28.22,50.28,28.22z"/>
	<path class="st48" d="M44.28,28.99c0.01,0,0.03-0.01,0.04-0.01C44.3,28.99,44.29,28.99,44.28,28.99z"/>
	<path class="st48" d="M44.76,28.87c0.04-0.01,0.09-0.02,0.13-0.03C44.84,28.85,44.8,28.86,44.76,28.87z"/>
	<path class="st48" d="M45.74,28.65c0.11-0.02,0.23-0.04,0.34-0.07C45.97,28.6,45.85,28.62,45.74,28.65z"/>
	<path class="st48" d="M71.36,51.12c-0.01,0.1-0.01,0.19-0.02,0.29C71.34,51.31,71.35,51.22,71.36,51.12z"/>
	<path class="st48" d="M64.35,33.75c0.04,0.03,0.07,0.07,0.11,0.1C64.42,33.81,64.39,33.78,64.35,33.75z"/>
	<path class="st48" d="M71.38,50.64c-0.01,0.11-0.01,0.23-0.02,0.34C71.37,50.87,71.38,50.75,71.38,50.64z"/>
	<path class="st48" d="M64.84,34.2c-0.02-0.02-0.05-0.04-0.07-0.07C64.79,34.15,64.81,34.18,64.84,34.2
		C64.84,34.2,64.84,34.2,64.84,34.2z"/>
	<path class="st48" d="M71.27,52.04c0,0.04-0.01,0.08-0.01,0.12C71.26,52.11,71.27,52.08,71.27,52.04z"/>
	<path class="st48" d="M56.97,29.38c0.05,0.02,0.1,0.03,0.16,0.05C57.07,29.42,57.02,29.4,56.97,29.38z"/>
	<path class="st48" d="M71.4,50.11c0,0.15-0.01,0.29-0.01,0.44C71.39,50.4,71.4,50.25,71.4,50.11z"/>
	<path class="st48" d="M71.32,51.59c-0.01,0.08-0.02,0.16-0.02,0.23C71.3,51.74,71.31,51.66,71.32,51.59z"/>
	<path class="st48" d="M63.92,33.37c0.01,0.01,0.01,0.01,0.02,0.02C63.94,33.38,63.93,33.38,63.92,33.37z"/>
	<path class="st48" d="M29.51,55.83c0-0.01-0.01-0.03-0.01-0.04C29.5,55.8,29.5,55.82,29.51,55.83z"/>
	<path class="st48" d="M46.72,70.78c-0.16-0.03-0.33-0.05-0.49-0.08C46.39,70.73,46.55,70.76,46.72,70.78z"/>
	<path class="st48" d="M45.58,70.58c-0.07-0.02-0.15-0.03-0.22-0.05C45.43,70.54,45.51,70.56,45.58,70.58z"/>
	<path class="st48" d="M53.04,70.82c-0.17,0.02-0.35,0.05-0.53,0.07C52.69,70.87,52.86,70.84,53.04,70.82z"/>
	<path class="st48" d="M54.69,70.52c-0.02,0.01-0.05,0.01-0.07,0.01C54.64,70.53,54.67,70.52,54.69,70.52z"/>
	<path class="st48" d="M53.61,70.73c-0.16,0.03-0.32,0.05-0.48,0.08C53.28,70.78,53.44,70.76,53.61,70.73z"/>
	<path class="st48" d="M54.08,70.64c-0.09,0.02-0.17,0.03-0.26,0.05C53.91,70.68,54,70.66,54.08,70.64z"/>
	<path class="st48" d="M46.16,70.69c-0.13-0.02-0.25-0.05-0.38-0.07C45.91,70.64,46.03,70.67,46.16,70.69z"/>
	<path class="st48" d="M29.32,55.17c-0.01-0.03-0.02-0.06-0.03-0.09C29.3,55.11,29.31,55.14,29.32,55.17z"/>
	<path class="st48" d="M29.13,54.41c0,0.01,0,0.02,0.01,0.03C29.13,54.42,29.13,54.41,29.13,54.41
		C29.13,54.41,29.13,54.41,29.13,54.41z"/>
	<path class="st48" d="M64.29,65.55c-0.03-0.07-0.06-0.14-0.08-0.21c-2,1.57-4.31,2.77-6.83,3.49l0.26,0.8
		C60.11,68.68,62.36,67.29,64.29,65.55z"/>
	<path class="st48" d="M50.28,28.22c-0.09,0-0.18,0-0.27,0c-1.11,0-2.19,0.08-3.26,0.25c-0.01,0-0.02,0-0.03,0.01
		c-0.16,0.02-0.32,0.05-0.47,0.08c-0.05,0.01-0.1,0.02-0.16,0.03c-0.11,0.02-0.23,0.04-0.34,0.07c-0.09,0.02-0.18,0.04-0.26,0.06
		c-0.08,0.02-0.15,0.03-0.23,0.05c-0.12,0.03-0.24,0.06-0.36,0.08c-0.04,0.01-0.09,0.02-0.13,0.03c-0.15,0.04-0.29,0.08-0.44,0.12
		c-0.01,0-0.03,0.01-0.04,0.01c-3.47,0.96-6.59,2.78-9.11,5.21c0.45,0.86,0.97,1.68,1.55,2.45c1.08,1.42,2.39,2.67,3.87,3.69
		l-1.17-4.28l8.24-5.95L50.28,28.22z"/>
	<path class="st48" d="M64.77,34.13c-0.1-0.1-0.2-0.19-0.31-0.29c-0.04-0.03-0.07-0.07-0.11-0.1c-0.13-0.12-0.27-0.24-0.41-0.36
		c-0.01-0.01-0.01-0.01-0.02-0.02c-2.01-1.72-4.32-3.06-6.8-3.94c-0.05-0.02-0.1-0.04-0.16-0.05c-0.13-0.05-0.26-0.09-0.39-0.13
		c-0.02-0.01-0.03-0.01-0.05-0.01l0.51,1.09l3.05,6.54l-0.95,3.65c2.35-1.55,4.3-3.68,5.62-6.17c0.03-0.05,0.06-0.1,0.08-0.15
		C64.81,34.18,64.79,34.15,64.77,34.13z"/>
	<path class="st48" d="M45.58,56.42c-3.59,1.08-6.61,3.41-8.56,6.52c-0.51,0.82-0.96,1.69-1.31,2.61c1.99,1.79,4.32,3.21,6.88,4.16
		l0.6-2.11l2.73-9.64L45.58,56.42z"/>
	<path class="st48" d="M43.45,50.84c-3.81,0.44-7.56,1.26-11.19,2.44c-1.05,0.34-2.1,0.72-3.13,1.13c0,0.01,0,0.02,0.01,0.03
		c0.05,0.22,0.1,0.44,0.16,0.65c0.01,0.03,0.02,0.06,0.03,0.09c0.06,0.21,0.11,0.41,0.18,0.62c0,0.01,0.01,0.03,0.01,0.04
		c0.98,3.24,2.71,6.15,4.99,8.54c0.41-0.95,0.91-1.86,1.48-2.7c2.05-3.06,5.07-5.39,8.64-6.59L43.45,50.84z"/>
	<path class="st48" d="M41.19,42.55c-2.11-1.17-3.98-2.75-5.47-4.63c-0.63-0.79-1.2-1.64-1.7-2.53c-2.18,2.45-3.81,5.4-4.69,8.65
		c-0.02,0.06-0.03,0.12-0.05,0.18c-0.02,0.07-0.04,0.14-0.05,0.21c-0.03,0.1-0.05,0.21-0.08,0.31c-0.01,0.05-0.02,0.09-0.03,0.14
		c-0.03,0.13-0.06,0.26-0.09,0.4c-0.01,0.03-0.01,0.05-0.02,0.08c-0.03,0.15-0.06,0.31-0.09,0.47c0,0.01,0,0.02,0,0.02
		c-0.22,1.23-0.33,2.49-0.33,3.78c0,1.09,0.08,2.17,0.24,3.21c1.06-0.41,2.13-0.79,3.2-1.13c3.57-1.15,7.25-1.95,11-2.4L41.19,42.55
		z"/>
	<path class="st48" d="M54.4,56.41l-0.45,1.84l3.43,10.58c2.51-0.72,4.82-1.91,6.83-3.49C62.47,61.06,58.82,57.74,54.4,56.41z"/>
	<path class="st48" d="M55.77,50.75l-1.01,4.13c2.48,0.73,4.79,2.03,6.7,3.8c1.7,1.57,3.06,3.48,3.99,5.59
		c0.01,0.03,0.03,0.06,0.04,0.1c0.36-0.38,0.71-0.78,1.05-1.19c2.06-2.52,3.57-5.51,4.32-8.78C66.04,52.5,60.96,51.28,55.77,50.75z"
		/>
	<path class="st48" d="M29.5,55.79c-0.06-0.2-0.12-0.41-0.17-0.62C29.38,55.38,29.44,55.59,29.5,55.79z"/>
	<path class="st48" d="M29.3,55.08c-0.06-0.22-0.11-0.43-0.16-0.65C29.19,54.65,29.24,54.87,29.3,55.08z"/>
	<path class="st48" d="M46.77,70.79c-0.02,0-0.04-0.01-0.06-0.01C46.73,70.79,46.75,70.79,46.77,70.79z"/>
	<path class="st48" d="M53.12,70.81c-0.03,0-0.06,0.01-0.08,0.01C53.06,70.82,53.09,70.81,53.12,70.81z"/>
	<path class="st48" d="M53.83,70.69c-0.07,0.01-0.15,0.03-0.22,0.04C53.68,70.72,53.75,70.7,53.83,70.69z"/>
	<path class="st48" d="M52.51,70.89c-0.01,0-0.02,0-0.04,0C52.49,70.89,52.5,70.89,52.51,70.89z"/>
	<path class="st48" d="M54.62,70.53c-0.18,0.04-0.36,0.08-0.54,0.11C54.26,70.61,54.44,70.57,54.62,70.53z"/>
	<path class="st48" d="M46.22,70.7c-0.02,0-0.04-0.01-0.06-0.01C46.18,70.69,46.2,70.7,46.22,70.7z"/>
	<path class="st48" d="M45.78,70.62c-0.07-0.01-0.14-0.03-0.2-0.04C45.65,70.59,45.71,70.6,45.78,70.62z"/>
	<path class="st48" d="M46.71,28.47c0.01,0,0.02,0,0.03-0.01C46.73,28.47,46.72,28.47,46.71,28.47z"/>
	<path class="st48" d="M46.08,28.58c0.05-0.01,0.1-0.02,0.16-0.03C46.19,28.56,46.13,28.57,46.08,28.58z"/>
	<path class="st48" d="M56.58,29.25c0.13,0.04,0.26,0.09,0.39,0.13C56.84,29.34,56.71,29.29,56.58,29.25z"/>
	<path class="st48" d="M64.46,33.85c0.1,0.09,0.2,0.19,0.31,0.29C64.67,34.04,64.56,33.94,64.46,33.85z"/>
	<path class="st48" d="M63.95,33.39c0.14,0.12,0.27,0.24,0.41,0.36C64.22,33.63,64.08,33.51,63.95,33.39z"/>
	<path class="st48" d="M45.47,28.7c0.09-0.02,0.18-0.04,0.26-0.06C45.65,28.66,45.56,28.68,45.47,28.7z"/>
	<path class="st48" d="M44.89,28.84c0.12-0.03,0.24-0.06,0.36-0.08C45.12,28.78,45.01,28.81,44.89,28.84z"/>
	<path class="st48" d="M44.32,28.98c0.15-0.04,0.29-0.08,0.44-0.12C44.61,28.91,44.46,28.94,44.32,28.98z"/>
	<path class="st48" d="M71.39,50.55c0,0.03,0,0.06,0,0.1C71.39,50.61,71.39,50.58,71.39,50.55z"/>
	<path class="st48" d="M71.4,50.1C71.4,50.1,71.4,50.11,71.4,50.1C71.4,50.11,71.4,50.1,71.4,50.1z"/>
	<path class="st48" d="M71.3,51.82c-0.01,0.07-0.01,0.14-0.02,0.22C71.28,51.96,71.29,51.89,71.3,51.82z"/>
	<path class="st48" d="M71.33,51.41c0,0.06-0.01,0.12-0.02,0.18C71.32,51.53,71.33,51.47,71.33,51.41z"/>
	<path class="st48" d="M71.37,50.98c0,0.05-0.01,0.09-0.01,0.14C71.36,51.08,71.36,51.03,71.37,50.98z"/>
	<g>
		<path class="st49" d="M34.35,70.85l-0.18-0.14l-0.36,0.47l0.18,0.14c0.2,0.15,0.36,0.13,0.47-0.01
			C34.56,71.16,34.54,71,34.35,70.85z"/>
		<path class="st49" d="M31.29,31.05l0.87-0.82l-1.3-1.37l-0.73,0.7l1.05,1.32C31.19,30.92,31.22,30.95,31.29,31.05z"/>
		<polygon class="st49" points="42.08,22.71 42.02,23.83 42.72,23.64 		"/>
		<path class="st49" d="M33.72,71.9l-0.29-0.22l-0.41,0.54l0.29,0.22c0.18,0.14,0.36,0.16,0.51-0.04
			C33.97,72.2,33.89,72.04,33.72,71.9z"/>
		<path class="st49" d="M67.64,28.05c0.11-0.14,0.1-0.3-0.09-0.45l-0.18-0.14L67,27.91l0.18,0.14
			C67.37,28.2,67.52,28.19,67.64,28.05z"/>
		<path class="st49" d="M52.63,75.83l-0.45,0.04l0.15,1.89l0.45-0.04c0.58-0.05,0.96-0.46,0.91-1.02
			C53.65,76.13,53.21,75.78,52.63,75.83z"/>
		<path class="st49" d="M66.97,29.13c0.16-0.19,0.09-0.36-0.08-0.5L66.6,28.4l-0.43,0.53l0.28,0.23
			C66.63,29.29,66.81,29.32,66.97,29.13z"/>
		<polygon class="st49" points="63.33,25 62.51,25.76 63.14,26.1 		"/>
		<path class="st49" d="M46.44,22.27l0.22-0.03l-0.08-0.63l-0.22,0.03c-0.25,0.03-0.37,0.14-0.34,0.36
			C46.05,22.23,46.19,22.3,46.44,22.27z"/>
		<polygon class="st49" points="63.2,73.79 62.3,73.08 62.54,74.14 		"/>
		<path class="st49" d="M71.5,33.33l-0.56,0.41l0.23,0.31c0.16,0.22,0.33,0.29,0.54,0.13c0.2-0.15,0.18-0.33,0.02-0.55L71.5,33.33z"
			/>
		<path class="st49" d="M50,17.87c-17.54,0-31.76,14.22-31.76,31.76S32.46,81.38,50,81.38c17.54,0,31.76-14.22,31.76-31.76
			S67.54,17.87,50,17.87z M69.35,29.07l0.42-0.41l0.03,0l1.72,1.79v0.03l-0.42,0.41l-0.03,0l-0.64-0.67l-1.8,1.73l-0.03,0
			l-0.41-0.42V31.5l1.8-1.73l-0.64-0.67L69.35,29.07z M67.26,26.58l0.03,0l0.65,0.52c0.46,0.37,0.62,0.91,0.28,1.33
			c-0.17,0.21-0.4,0.28-0.6,0.24c0.14,0.26,0.1,0.63-0.11,0.89c-0.4,0.49-0.96,0.47-1.42,0.1l-0.79-0.64l0-0.03L67.26,26.58z
			 M63.44,24.14l0.55,0.3l0.01,0.03l-0.44,3.3l-0.03,0.01l-0.61-0.33l-0.01-0.03l0.1-0.66l-0.99-0.54l-0.5,0.45l-0.03,0.01
			l-0.61-0.33l-0.01-0.03l2.54-2.16L63.44,24.14z M59.82,22.53l0.03-0.01l1.92,0.79l0.01,0.03l-0.22,0.54l-0.03,0.01l-1.36-0.56
			l-0.95,2.31l-0.03,0.01l-0.54-0.22l-0.01-0.03L59.82,22.53z M55.21,21.27l0.03-0.02l0.57,0.13l0.02,0.03l-0.46,2l2-1.64l0.05-0.01
			l0.59,0.14l0.02,0.03l-0.7,3.03l-0.03,0.02l-0.57-0.13l-0.02-0.03l0.46-2l-2,1.64l-0.05,0.01l-0.59-0.14l-0.02-0.03L55.21,21.27z
			 M50.22,23.34l0.02-0.02c0.27,0.02,0.48-0.09,0.58-0.38l0.53-2.12l0.05-0.02l2.09,0.19l0.02,0.02l-0.28,3.1l-0.03,0.02l-0.58-0.05
			l-0.02-0.02l0.23-2.49l-0.99-0.09l-0.45,1.68c-0.19,0.64-0.62,0.83-1.2,0.77l-0.02-0.03L50.22,23.34z M45.35,22.1
			c-0.07-0.51,0.26-0.99,0.89-1.07l0.87-0.11l0.03,0.02l0.4,3.09l-0.02,0.03l-0.58,0.07L46.9,24.1l-0.16-1.23l-0.22,0.03l-0.78,1.35
			l-0.02,0.02l-0.71,0.09l-0.03-0.02l0.89-1.57C45.56,22.68,45.39,22.45,45.35,22.1z M41.54,22.05l0.01-0.03l0.61-0.17l0.03,0.02
			l1.99,2.67l-0.01,0.03l-0.67,0.19l-0.03-0.02l-0.39-0.55L42,24.49l-0.05,0.67l-0.02,0.03l-0.67,0.19l-0.03-0.02L41.54,22.05z
			 M36.43,24.12l0.53-0.25l0.03,0.01l0.5,1.06l1.31-0.62l-0.5-1.06l0.01-0.03l0.53-0.25L38.86,23l1.33,2.81l-0.01,0.03l-0.53,0.25
			l-0.03-0.01l-0.56-1.18l-1.3,0.62l0.56,1.18l-0.01,0.03l-0.53,0.25l-0.03-0.01l-1.33-2.81L36.43,24.12z M32.49,26.63l0.48-0.33
			L33,26.3l1.16,1.69l0.14-2.58l0.02-0.04l0.5-0.35l0.03,0.01l1.76,2.56l-0.01,0.03l-0.48,0.33l-0.03-0.01l-1.16-1.69l-0.14,2.58
			l-0.02,0.04l-0.5,0.34l-0.03-0.01l-1.77-2.56L32.49,26.63z M29.28,29.46l1.57-1.49l0.03,0l1.72,1.81l0.25-0.23l0.03,0l0.96,1.01
			l0,0.03L33.42,31l-0.03,0l-0.54-0.57l-1.47,1.4l0.54,0.57l0,0.03l-0.42,0.4l-0.03,0l-0.96-1.01v-0.03l0.28-0.27
			c-0.03-0.1-0.08-0.17-0.15-0.29l-1.35-1.73L29.28,29.46z M26.39,32.94l1.29-1.68l0.03-0.01l0.47,0.36l0,0.03l-0.92,1.2l0.45,0.34
			l0.67-0.88l0.03,0l0.47,0.36l0.01,0.03l-0.67,0.88l0.56,0.42l0.94-1.24l0.03,0l0.47,0.36l0,0.03l-1.31,1.72l-0.03,0l-2.47-1.89
			L26.39,32.94z M27.93,68.28l-0.4-0.49l0-0.03l1.64-2.9l0.03,0l0.43,0.52l0,0.03l-1.17,2.02l2.2-0.77l0.03,0l0.43,0.52l0,0.03
			l-3.16,1.06L27.93,68.28z M30.53,70.98l-0.43-0.4l0-0.03l1.72-1.82l-0.67-0.63l0-0.03l0.4-0.43l0.03,0l1.8,1.7l0,0.03l-0.4,0.43
			l-0.03,0l-0.67-0.63l-1.72,1.82L30.53,70.98z M35.05,71.67c-0.16,0.22-0.39,0.29-0.59,0.26c0.15,0.25,0.12,0.63-0.09,0.9
			c-0.38,0.5-0.95,0.5-1.41,0.14l-0.81-0.62l-0.01-0.03l1.89-2.47l0.03-0.01l0.66,0.51C35.19,70.7,35.38,71.24,35.05,71.67z
			 M36.98,75.48c-0.68-0.34-1-1.11-0.59-1.94l0.78-1.55l0.03-0.01l0.52,0.26l0.01,0.03l-0.74,1.47c-0.27,0.54-0.1,0.96,0.28,1.15
			c0.38,0.19,0.82,0.08,1.09-0.46l0.74-1.47l0.03-0.01l0.52,0.26l0.01,0.03l-0.78,1.55C38.47,75.63,37.66,75.82,36.98,75.48z
			 M42.1,77.39l-0.03,0.01l-0.58-0.19l-0.03-0.04l-0.84-2.45l-0.65,1.94l-0.03,0.01l-0.56-0.19l-0.01-0.03l0.99-2.95l0.03-0.01
			l0.58,0.19l0.04,0.04l0.84,2.45l0.65-1.94l0.03-0.02l0.56,0.19l0.01,0.03L42.1,77.39z M43.84,77.82l-0.03,0.02l-0.57-0.13
			l-0.02-0.03l0.7-3.03l0.03-0.02l0.57,0.13l0.02,0.03L43.84,77.82z M47.72,75.86l-0.03,0.02l-0.92-0.12l-0.32,2.48l-0.02,0.02
			l-0.58-0.07l-0.02-0.03l0.32-2.48l-0.92-0.12l-0.02-0.03l0.08-0.58l0.02-0.02l2.46,0.32l0.02,0.02L47.72,75.86z M50.64,78.47
			l-0.02,0.02l-2.16-0.04l-0.02-0.02l0.05-3.11l0.02-0.02l2.12,0.04l0.02,0.02l-0.01,0.59l-0.02,0.02l-1.51-0.03L49.1,76.5l1.1,0.02
			l0.02,0.02l-0.01,0.59l-0.02,0.02l-1.1-0.02l-0.01,0.7l1.56,0.03l0.02,0.02L50.64,78.47z M52.83,78.35l-1.06,0.08l-0.03-0.02
			l-0.25-3.1l0.02-0.02l1.06-0.08c0.97-0.08,1.72,0.57,1.79,1.44C54.43,77.51,53.79,78.27,52.83,78.35z M58.34,77.26l-1.75,0.45
			l-0.03-0.02l-0.78-3.01l0.02-0.03l0.57-0.15l0.03,0.02l0.63,2.42l1.16-0.3l0.03,0.02l0.15,0.57L58.34,77.26z M61.37,76.14
			l-2.02,0.78l-0.03-0.01l-1.13-2.9l0.01-0.03l1.98-0.77l0.03,0.01l0.21,0.55l-0.01,0.03l-1.41,0.55l0.2,0.53l1.03-0.4l0.03,0.01
			l0.21,0.55l-0.01,0.03l-1.03,0.4l0.25,0.65l1.45-0.56l0.03,0.01l0.21,0.55L61.37,76.14z M64.96,74.3l-0.64,0.34l-0.03-0.01
			l-0.55-0.42l-1.04,0.55l0.13,0.64l-0.01,0.03l-0.64,0.34l-0.03-0.01l-0.59-3.19l0.01-0.03l0.58-0.31l0.03,0.01l2.79,2.01
			L64.96,74.3z M66.89,73.05c-0.73,0.64-1.78,0.61-2.39-0.08c-0.6-0.68-0.53-1.73,0.19-2.37c0.32-0.28,0.62-0.49,0.98-0.59
			l0.46,0.52l0,0.03c-0.39,0.07-0.72,0.28-1.01,0.53c-0.46,0.4-0.46,1.01-0.1,1.41c0.36,0.41,0.96,0.48,1.43,0.06
			c0.12-0.11,0.26-0.26,0.31-0.36l-0.39-0.44l-0.36,0.31l-0.03,0l-0.39-0.44l0-0.03l0.81-0.72l0.03,0l1.09,1.23
			C67.4,72.48,67.19,72.78,66.89,73.05z M69.65,70.76c-0.56,0.52-1.39,0.55-2.02-0.13l-1.18-1.27l0-0.03l0.43-0.4l0.03,0l1.12,1.21
			c0.41,0.45,0.86,0.43,1.18,0.14c0.31-0.29,0.36-0.73-0.05-1.18l-1.12-1.21l0-0.03l0.43-0.4l0.03,0l1.18,1.28
			C70.31,69.41,70.22,70.24,69.65,70.76z M71.67,68.65l-0.03,0l-2.43-1.95l0-0.03l1.33-1.65l0.03,0l0.46,0.37l0,0.03l-0.95,1.18
			l0.44,0.35l0.69-0.86l0.03,0l0.46,0.37l0,0.03l-0.69,0.86l0.54,0.44l0.97-1.21l0.03,0l0.46,0.37l0,0.03L71.67,68.65z M50,72.72
			c-12.75,0-23.09-10.34-23.09-23.09S37.25,26.53,50,26.53s23.09,10.34,23.09,23.09S62.75,72.72,50,72.72z M73.25,33.66l-0.03,0
			l-0.76-1.03L72,32.95l0.25,0.34c0.36,0.49,0.36,1.05-0.15,1.43c-0.51,0.37-1.07,0.22-1.43-0.26l-0.62-0.83l0-0.03l2.5-1.85l0.03,0
			l1.12,1.52l0,0.03L73.25,33.66z"/>
	</g>
	<g>
		<path class="st48" d="M67.91,46.05h-0.33v0.61h0.33c0.13,0,0.2-0.03,0.25-0.1c0.03-0.03,0.06-0.09,0.06-0.21
			c0-0.11-0.04-0.19-0.11-0.25C68.07,46.07,68.01,46.05,67.91,46.05z"/>
		<path class="st48" d="M64.42,46.09h-0.29v0.58h0.3c0.09,0,0.17-0.01,0.23-0.06c0.06-0.06,0.09-0.13,0.09-0.22
			c0-0.07-0.02-0.14-0.06-0.19C64.64,46.11,64.56,46.09,64.42,46.09z"/>
		<path class="st48" d="M69.53,40.83c-0.73-1.62-1.68-3.16-2.82-4.59c-0.24-0.29-0.48-0.58-0.73-0.86c0,0,0,0,0,0
			c-0.01,0.02-0.02,0.04-0.03,0.06c-1.71,3.05-4.27,5.59-7.37,7.24l-0.79,3.04l-0.93,3.58c4.91,0.57,9.71,1.76,14.31,3.54
			c0.03-0.23,0.06-0.46,0.09-0.69c0-0.04,0.01-0.08,0.01-0.12c0.01-0.07,0.02-0.14,0.02-0.22c0.01-0.08,0.02-0.16,0.02-0.23
			c0.01-0.06,0.01-0.12,0.01-0.18c0.01-0.1,0.02-0.19,0.02-0.29c0-0.05,0.01-0.09,0.01-0.14c0.01-0.11,0.01-0.23,0.02-0.34
			c0-0.03,0-0.06,0-0.1c0.01-0.15,0.01-0.29,0.01-0.44c0,0,0,0,0-0.01c0-0.16,0.01-0.32,0.01-0.48
			C71.41,46.54,70.77,43.56,69.53,40.83z M62.8,45.75h-1.84l0.13-0.36h1.84L62.8,45.75z M63,45.2h-1.84l0.13-0.36h1.84L63,45.2z
			 M63.2,44.66h-1.84l0.13-0.36h1.84L63.2,44.66z M64.81,47c-0.08,0.02-0.16,0.03-0.32,0.03H63.7v-2.19h0.7
			c0.14,0,0.24,0.01,0.33,0.03c0.25,0.07,0.42,0.24,0.42,0.52c0,0.15-0.05,0.27-0.14,0.36c-0.04,0.04-0.09,0.08-0.17,0.12v0.01
			c0.08,0.03,0.16,0.08,0.2,0.12c0.13,0.11,0.19,0.25,0.19,0.43C65.23,46.71,65.07,46.93,64.81,47z M66.88,45.21h-0.56v1.82h-0.44
			v-1.82h-0.63v-0.37h1.76L66.88,45.21z M68.42,46.91c-0.14,0.1-0.28,0.12-0.57,0.12h-0.71v-2.19h1.42l-0.13,0.37h-0.86v0.48h0.35
			c0.28,0,0.43,0.07,0.53,0.16c0.08,0.07,0.22,0.22,0.22,0.52C68.68,46.66,68.54,46.82,68.42,46.91z"/>
		<path class="st48" d="M64.53,45.7c0.1-0.03,0.17-0.12,0.17-0.25c0-0.15-0.07-0.21-0.17-0.24c-0.04-0.01-0.08-0.01-0.17-0.01h-0.23
			v0.51h0.25C64.45,45.71,64.49,45.71,64.53,45.7z"/>
	</g>
</g>
</svg>
