<?xml version="1.0" encoding="UTF-8"?>
<!DOCTYPE svg PUBLIC "-//W3C//DTD SVG 1.1//EN" "http://www.w3.org/Graphics/SVG/1.1/DTD/svg11.dtd">
<!-- Creator: CorelDRAW 2021 (64-Bit) -->
<svg xmlns="http://www.w3.org/2000/svg" xml:space="preserve" width="26.6863mm" height="2.9895mm" version="1.1" style="shape-rendering:geometricPrecision; text-rendering:geometricPrecision; image-rendering:optimizeQuality; fill-rule:evenodd; clip-rule:evenodd"
viewBox="0 0 839.82 94.08"
 xmlns:xlink="http://www.w3.org/1999/xlink"
 xmlns:xodm="http://www.corel.com/coreldraw/odm/2003">
 <defs>
  <style type="text/css">
   <![CDATA[
    .fil0 {fill:#4A5161;fill-rule:nonzero}
   ]]>
  </style>
 </defs>
 <g id="Слой_x0020_1">
  <metadata id="CorelCorpID_0Corel-Layer"/>
  <g id="_2322388653936">
   <path class="fil0" d="M-0 94.08c4.33,-4.33 17.2,-8.74 32.42,-8.74 12.53,0 52.25,1.66 63.26,1.66 30.28,0 39.2,-6.6 52.08,-25.29 -5.3,5.31 -19.19,8.75 -33.36,8.75 -7.06,0 -49.79,-1.68 -62.97,-1.68 -29.46,0 -39.51,7.37 -51.43,25.3zm23.43 -30.86c4.33,-4.33 17.2,-8.74 32.42,-8.74 12.53,0 52.25,1.66 63.26,1.66 30.28,0 39.2,-6.6 52.08,-25.28 -5.31,5.3 -19.19,8.75 -33.36,8.75 -7.06,0 -49.79,-1.69 -62.97,-1.69 -29.46,0 -39.51,7.37 -51.43,25.3zm74.86 -56.16c13.18,0 55.91,1.68 62.97,1.68 14.17,0 28.06,-3.44 33.36,-8.75 -12.88,18.68 -21.8,25.29 -52.08,25.29 -11.01,0 -50.73,-1.66 -63.26,-1.66 -15.23,0 -28.09,4.41 -32.42,8.74 11.91,-17.93 21.97,-25.3 51.43,-25.3z"/>
   <path class="fil0" d="M555.36 29.53l-8.84 -15c-2.18,-4.3 -4.04,-4.84 -12.55,-4.84l-4.49 0 -15.42 63.69c-1.01,4.23 -1.34,8.38 3.21,12.89l-37.03 0c6.61,-4.2 8.1,-7.37 9.49,-12.89l15.43 -63.69 -4.33 0c-8.52,0 -10.42,0.48 -14.87,4.65l-16.5 15.19 7.28 -25.97 84.7 0 -6.09 25.97zm86.83 43.85c-2.3,9.42 2.94,12.89 2.94,12.89l-36.6 0c0,0 6.91,-3.66 9.18,-12.89l11.6 -47.73 -48.75 60.63 -28.5 0c0,0 6.91,-3.66 9.18,-12.89l14.06 -57.84c2.12,-8.72 -3.17,-11.98 -3.17,-11.98l36.6 0c0,0 -6.94,3.76 -8.98,12.16l-12.1 49.72 49.75 -61.88 27.8 0c0,0 -6.94,3.76 -8.98,12.16l-14.04 57.66zm52.02 0c-2.29,9.42 2.94,12.89 2.94,12.89l-36.6 0c0,0 6.91,-3.66 9.18,-12.89l14.06 -57.84c2.12,-8.72 -3.17,-11.98 -3.17,-11.98l36.6 0c0,0 -6.94,3.76 -8.98,12.16l-14.04 57.66zm-466.72 -0.63l6.52 -26.76 7.61 0c12.7,0 16.86,4.43 13.85,18.1 -2.89,13.15 -6.94,16.41 -18.54,16.41 -9.09,0 -10.75,-2.39 -9.43,-7.76zm-9.86 -57.55l-14.17 58.18c-3.1,10.48 -9.8,12.89 -9.8,12.89l46.05 0c27.73,0 35.18,-3.58 39.06,-21.3 2.85,-13.01 -4.22,-25.8 -29.16,-25.8l-13.95 0 7.18 -29.49 16.41 0c8.79,0 10.1,0.67 12.28,4.34 1.72,2.89 9.1,15.51 9.1,15.51l6.09 -25.97 -72.43 0c0,0 5.21,3.36 3.33,11.64zm187.77 -11.64l60.94 0c0,0 -6.94,3.76 -8.98,12.16l-14.04 57.66c-2.29,9.42 2.94,12.89 2.94,12.89l-36.59 0c0,0 6.91,-3.66 9.18,-12.89l15.5 -63.69 -16.66 0c-0.18,1.58 -1.1,6.82 -3.96,15.01 -19.25,55.07 -22.8,62.32 -34.54,62.32 -8.82,0 -11.45,-6.75 -11.45,-13.73 1.52,0.74 3.9,1.67 6.99,1.67 8.38,0 15.12,-1.5 31.51,-50.23 1.63,-4.84 2.11,-7.16 2.09,-10.83 -0.03,-3.65 -0.72,-6.99 -2.93,-10.33zm376.39 51.32l20.52 -34.54 0.69 0 3.47 34.54 -24.68 0zm-6.49 31.39c-6.39,-3.78 -7.58,-6.54 -4.42,-13.01l7.18 -12.09 29.06 0 1.28 12.69c0.74,7.59 0.14,9.39 -5.11,12.41l36.54 0c-4.29,-3.25 -5.24,-7.02 -6.1,-13.11l-9.69 -71.81c-5.8,2.13 -13.45,3.35 -20.75,3.35l-41.24 69.47c-1.62,2.68 -3.57,5.72 -9.15,9.48 -4.49,-5.55 -11.99,-19.31 -22.98,-49.13l21.28 -16.71c13.4,-10.52 24.16,-14.27 24.16,-14.27l-35.34 0c3.61,6.34 3.9,7.24 3.9,8.89 0,1.52 -0.76,3.89 -4.66,6.87l-30.99 23.87c3.52,12.32 10.5,31.16 16.93,43.09l50.09 0zm-467.09 -31.39l20.52 -34.54 0.69 0 3.47 34.54 -24.68 0zm21.49 31.39l36.54 0c-4.29,-3.25 -5.24,-7.02 -6.1,-13.11l-9.69 -71.81c-5.79,2.13 -13.45,3.35 -20.75,3.35l-41.24 69.47c-1.99,3.28 -4.44,7.08 -13.42,12.09l26.66 0c-6.39,-3.78 -7.58,-6.54 -4.42,-13.01l7.18 -12.09 29.06 0 1.28 12.69c0.74,7.59 0.14,9.39 -5.11,12.41z"/>
  </g>
 </g>
</svg>
