<svg width="100" height="54" viewBox="0 0 100 54" fill="none" xmlns="http://www.w3.org/2000/svg">
<path d="M34.3052 16.5254H40.5434V18.5566H37.576V32.8875H34.3052V16.5254Z" fill="#266EB5"/>
<path d="M40.4548 32.8875H43.6573L43.9607 28.5386H45.5052L45.8086 32.8875H49.009L47.3024 16.5256H42.1608L40.4546 32.8875H40.4548ZM44.0771 26.741L44.6394 18.5568H44.8263L45.3861 26.741H44.0771Z" fill="#266EB5"/>
<path d="M53.3101 27.1594V30.2405C53.3101 30.6609 53.6389 30.7776 53.8268 30.7776C54.1277 30.7776 54.3384 30.5219 54.3384 30.2405V26.4355C54.3384 25.9214 54.2441 25.3611 53.0289 25.3611H51.6978V23.5617H53.075C54.0112 23.5617 54.3384 23.3516 54.3384 22.3465V19.0938C54.3384 18.8126 54.1277 18.5548 53.8268 18.5548C53.6389 18.5548 53.3101 18.6718 53.3101 19.0938V21.762H50.0371V19.4481C50.0371 18.3011 50.179 16.5261 52.4697 16.5261H55.1813C57.4741 16.5261 57.6139 18.3011 57.6139 19.4481V22.0675C57.6139 23.8431 56.3759 24.3338 55.3936 24.2856V24.4476C57.5884 24.4021 57.6139 26.0859 57.6139 26.6679V29.9663C57.6139 31.1084 57.4741 32.8882 55.1813 32.8882H52.4697C50.179 32.8882 50.0371 31.1085 50.0371 29.9663V27.1594H53.3101V27.1594Z" fill="#266EB5"/>
<path d="M59.3328 16.5254H66.9052V32.8875H63.636V18.5566H62.6061V32.8875H59.3328V16.5254Z" fill="#266EB5"/>
<path d="M68.8198 32.8875H72.0906V27.3228H73.9615C76.25 27.3228 76.3894 25.5462 76.3894 24.4014V19.4468C76.3894 18.3004 76.2502 16.5254 73.9615 16.5254H68.8198V32.8873V32.8875ZM72.0906 25.523V18.5568H72.511C72.8625 18.5568 73.1209 18.8581 73.1209 19.3722V24.7054C73.1209 25.2217 72.8625 25.523 72.511 25.523H72.0906V25.523Z" fill="#266EB5"/>
<path d="M77.9807 29.9655C77.9807 31.1092 78.1226 32.8869 80.4111 32.8869H83.1222C85.4134 32.8869 85.5526 31.1094 85.5526 29.9655V19.4489C85.5526 18.3025 85.4134 16.525 83.1222 16.525H80.4111C78.1226 16.525 77.9807 18.3025 77.9807 19.4489V29.9655V29.9655ZM82.282 30.2393C82.282 30.5204 82.0713 30.7763 81.7679 30.7763C81.5783 30.7763 81.2539 30.662 81.2539 30.2393V19.092C81.2539 18.6721 81.5785 18.5555 81.7679 18.5555C82.0713 18.5555 82.282 18.8117 82.282 19.092V30.2393Z" fill="#266EB5"/>
<path d="M95.7454 16.5254H99.9984V32.8875H96.7277V22.6271H96.611L94.9299 32.8875H92.3099L90.6292 22.6271H90.51V32.8875H87.2371V16.5254H91.4923L93.6167 28.0244L95.7454 16.5254Z" fill="#266EB5"/>
<path d="M29.3282 18.1407C29.2852 20.0417 29.0607 22.049 28.7689 23.2415C28.8739 21.1785 28.6243 18.2662 28.15 15.9914C27.6745 13.7166 26.3311 9.91999 25.2578 8.1573C24.2665 9.83368 23.0466 13.1198 22.4049 15.9708C21.761 18.8238 21.7451 22.2756 21.7451 23.3103C21.5735 22.4356 21.1461 19.329 21.2702 16.1969C21.3702 13.6182 21.9713 10.9684 22.3048 9.75116C23.565 5.67594 24.9931 3.07451 25.258 2.66571C25.5254 3.07451 27.3226 6.2812 28.255 9.64842C29.1823 13.0176 29.3697 16.2404 29.3283 18.1407H29.3282ZM25.2811 32.6815C24.7188 31.6288 23.8508 29.6258 23.7683 26.5334C23.7477 23.5358 24.9449 20.9662 25.2965 20.434C25.6072 20.9662 26.6419 23.2072 26.7659 26.2635C26.8481 29.2537 25.8568 31.6084 25.2811 32.6817V32.6815ZM29.6575 9.68959C28.5223 4.71009 25.6713 0.6625 25.2811 0C24.6574 0.92974 22.3821 4.49973 21.2267 8.47166C19.9654 12.8941 19.7827 16.8157 20.2169 20.6832C20.6485 24.5456 22.2821 28.5132 22.2821 28.5132C23.1493 30.5962 24.45 32.8282 25.2966 33.9195C26.5373 32.3072 29.3903 27.5013 30.2783 21.2197C30.7745 17.7275 30.7973 14.6685 29.6577 9.68959H29.6575Z" fill="#266EB5"/>
<path d="M27.2091 35.0823H18.5616V40.8846C18.5684 40.8745 18.5747 40.8682 18.5843 40.8591C20.6193 38.8236 23.9244 38.8236 25.9594 40.8591C27.9996 42.8988 27.9996 46.2041 25.9594 48.2389C25.9531 48.2479 25.9441 48.2575 25.935 48.2644V48.2665C25.926 48.2734 25.9144 48.2851 25.9054 48.294C23.8748 50.3109 21.2155 51.3207 18.5616 51.3207C15.8939 51.3207 13.2256 50.3041 11.1881 48.2707C7.6044 44.6848 7.17754 39.1324 9.91349 35.0821C10.2831 34.5341 10.7035 34.0129 11.1881 33.5317C13.2256 31.4958 15.8939 30.4774 18.5616 30.4774V16.5254C8.3124 16.5254 0 24.8398 0 35.0821C0 45.3312 8.31222 53.6409 18.5616 53.6409C23.9085 53.6409 28.7219 51.3799 32.1064 47.7666V35.0821H27.2089L27.2091 35.0823Z" fill="#266EB5"/>
<path d="M100 35.084H34.3054V45.3079H100V35.084V35.084ZM38.8646 43.2639H37.5052V38.2923H36.3424V37.1294H39.9494V38.2923H38.8644V43.2639H38.8646ZM45.8996 39.769H46.1649C46.5323 39.769 46.8814 39.5911 46.8814 38.9826C46.8814 38.3779 46.5668 38.2318 46.1369 38.2318H45.8996V39.769ZM45.8996 43.2633H44.4217V37.1305H46.5668C47.4209 37.1305 48.3597 37.4366 48.3597 38.9992C48.3597 40.5136 47.4368 40.8701 46.5668 40.8701H45.8996V43.2635V43.2633ZM54.8606 40.9313L54.4645 38.2313H54.4581L54.0721 40.9313H54.8604H54.8606ZM55.3722 37.1305L56.7282 43.2633H55.2779L55.0565 42.0317H53.9282L53.7408 43.2633H52.2699L53.6037 37.1305H55.3724H55.3722ZM62.5714 39.4969H63.5378V37.1305H65.0136V43.2633H63.5378V40.657H62.5714V43.2633H61.0934V37.1305H62.5714V39.4969ZM73.6912 40.837V41.4111C73.6912 42.8016 73.0605 43.4099 71.6924 43.4099C70.3336 43.4099 69.6935 42.8104 69.6935 41.402V38.7269C69.6935 37.7605 70.2924 36.9906 71.6924 36.9906C73.075 36.9906 73.6912 37.7789 73.6912 38.736V39.1538H72.2133V38.6014C72.2133 38.2748 71.9072 38.1217 71.6743 38.1217C71.4275 38.1217 71.1691 38.2584 71.1691 38.5738V41.6322C71.1691 42.094 71.3661 42.2808 71.6743 42.2808C71.9916 42.2808 72.2133 42.112 72.2133 41.6487V40.8369H73.6912V40.837ZM81.8039 37.1304V38.2927H79.8489V43.2653H78.3685V37.1304H81.8039ZM88.0989 40.9311L87.7038 38.2311H87.6942L87.3109 40.9311H88.0989V40.9311ZM88.6104 37.1304L89.9675 43.2631H88.5167L88.2932 42.0315H87.1664L86.9795 43.2631H85.5086L86.843 37.1304H88.6106H88.6104ZM94.1618 38.999C94.1618 37.7266 94.9566 36.9917 96.0167 36.9917C97.1837 36.9917 97.8419 37.7548 97.8419 38.6157C97.8419 39.3766 97.5951 39.7627 96.9714 40.0342H96.9867C97.6131 40.2646 98.0559 40.5203 98.0559 41.6212C98.0559 42.8364 97.2706 43.4105 96.1014 43.4105C95.1849 43.4105 94.1618 43.008 94.1618 41.4253H95.5184C95.5184 42.11 95.7148 42.307 96.0389 42.307C96.4228 42.307 96.5785 42.11 96.5785 41.4253C96.5785 40.854 96.3979 40.6236 95.9277 40.6236H95.7148V39.5221H96.0642C96.2793 39.5221 96.5095 39.2823 96.5095 38.8486C96.5095 38.3842 96.3634 38.0946 96.0165 38.0946C95.6374 38.0946 95.5184 38.3689 95.5184 38.999H94.1618V38.999Z" fill="#266EB5"/>
<path d="M37.3027 49.3468C37.3027 48.607 37.0558 48.0018 36.2045 48.0018C35.021 48.0018 35.012 49.6713 35.012 50.4799C35.012 51.7252 35.0783 53.173 36.2045 53.173C37.0903 53.173 37.2369 52.4401 37.3027 51.4262H37.9857C37.9085 52.8395 37.5583 53.7857 36.2548 53.7857C34.4502 53.7857 34.3062 51.9466 34.3062 50.4985C34.3062 49.1164 34.5604 47.3896 36.2384 47.3896C37.3969 47.3896 37.9857 48.2481 37.9857 49.3468H37.3027Z" fill="#266EB5"/>
<path d="M40.8727 48.0024H40.8536L40.045 51.2664H41.6649L40.8727 48.0024V48.0024ZM40.4291 47.5062H41.3313L43.0538 53.6417H42.3041L41.818 51.8763H39.8832L39.4316 53.6417H38.6819L40.4292 47.5062H40.4291Z" fill="#266EB5"/>
<path d="M44.635 50.1142H46.9791V47.5062H47.6596V53.6412H46.9791V50.7288H44.635V53.6412H43.9546V47.5062H44.635V50.1142Z" fill="#266EB5"/>
<path d="M49.7547 50.6589L51.9883 47.5067H52.8402L50.8778 50.0717L52.8996 53.6417H52.1048L50.4696 50.6081L49.7547 51.5019V53.6417H49.0732V47.5067H49.7547V50.6589Z" fill="#266EB5"/>
<path d="M55.5566 53.6412H54.8735V48.1211H53.2812V47.5062H57.1392V48.1211H55.5566V53.6412Z" fill="#266EB5"/>
<path d="M59.8814 51.852H57.7505V51.2716H59.8814V51.852Z" fill="#266EB5"/>
<path d="M64.7199 47.5067V53.6422H64.0396V48.1215H61.6953V53.6422H61.0149V47.5067H64.7199Z" fill="#266EB5"/>
<path d="M69.2074 47.5067V48.1215H66.8134V50.1155H69.0548V50.7273H66.8134V53.0279H69.2164V53.6422H66.1331V47.5067H69.2074Z" fill="#266EB5"/>
<path d="M72.1457 53.6412H71.4647V48.1211H69.873V47.5062H73.7305V48.1211H72.1457V53.6412Z" fill="#266EB5"/>
<path d="M77.6996 47.5067V48.1215H75.3062V50.1155H77.5472V50.7273H75.3062V53.0279H77.7086V53.6422H74.6226V47.5067H77.6996Z" fill="#266EB5"/>
<path d="M79.5644 50.4293H80.2295C81.1657 50.4293 81.7274 50.2852 81.7274 49.2373C81.7274 48.369 81.2408 48.1195 80.4254 48.1195H79.5644V50.4293ZM79.5644 53.6408H78.8813V47.5081H80.5854C81.7047 47.5081 82.4354 48.0265 82.4354 49.2375C82.4354 50.6673 81.5649 51.0437 80.4599 51.0437H79.5644V53.641V53.6408Z" fill="#266EB5"/>
<path d="M84.1736 53.0279H84.9477C85.7648 53.0279 86.2492 52.7811 86.2492 51.9127C86.2492 50.9332 85.6969 50.7271 84.7507 50.7271H84.1736V53.0279ZM86.5394 47.5067V48.1215H84.1736V50.1157H84.9817C86.0894 50.1157 86.96 50.49 86.96 51.9129C86.96 53.1303 86.2245 53.6424 85.1189 53.6424H83.4907V47.5069H86.5396L86.5394 47.5067Z" fill="#266EB5"/>
<path d="M88.3802 47.5068L89.8099 51.7667L91.1237 47.5068H91.8386L90.1505 52.6277C89.8562 53.5395 89.5044 53.7862 89.0084 53.7862C88.7368 53.7862 88.5864 53.7517 88.49 53.7105V53.0957C88.6018 53.1555 88.7897 53.1713 88.9421 53.1713C89.1819 53.1713 89.326 53.0623 89.4627 52.5937L87.6565 47.5066H88.3804L88.3802 47.5068Z" fill="#266EB5"/>
<path d="M93.2852 50.4293H93.9492C94.8865 50.4293 95.4477 50.2852 95.4477 49.2373C95.4477 48.369 94.9643 48.1195 94.1462 48.1195H93.2852V50.4293ZM93.2852 53.6408H92.6038V47.5081H94.3061C95.4249 47.5081 96.1562 48.0265 96.1562 49.2375C96.1562 50.6673 95.2879 51.0437 94.1807 51.0437H93.2852V53.641V53.6408Z" fill="#266EB5"/>
<path d="M99.9995 47.5067V48.1215H97.8022V53.6422H97.1191V47.5067H99.9995Z" fill="#266EB5"/>
<path d="M38.8649 43.2639H37.5056V38.2924H36.3428V37.1295H39.9498V38.2924H38.8649V43.2639Z" fill="#FEFEFE"/>
<path d="M45.9001 39.7691H46.1653C46.5328 39.7691 46.8818 39.5912 46.8818 38.9827C46.8818 38.378 46.5673 38.2319 46.1373 38.2319H45.9001V39.7691ZM45.9001 43.2634H44.4221V37.1306H46.5673C47.4213 37.1306 48.3601 37.4367 48.3601 38.9993C48.3601 40.5137 47.4372 40.8702 46.5673 40.8702H45.9001V43.2636V43.2634Z" fill="#FEFEFE"/>
<path d="M54.861 40.9314L54.4649 38.2314H54.4586L54.0725 40.9314H54.8609H54.861ZM55.3726 37.1306L56.7286 43.2634H55.2783L55.057 42.0317H53.9286L53.7412 43.2634H52.2703L53.6041 37.1306H55.3728H55.3726Z" fill="#FEFEFE"/>
<path d="M62.5717 39.4969H63.5379V37.1306H65.0137V43.2634H63.5379V40.6571H62.5717V43.2634H61.0938V37.1306H62.5717V39.4969Z" fill="#FEFEFE"/>
<path d="M73.6911 40.8372V41.4112C73.6911 42.8017 73.0604 43.4101 71.6922 43.4101C70.3335 43.4101 69.6934 42.8106 69.6934 41.4022V38.7271C69.6934 37.7607 70.2923 36.9907 71.6922 36.9907C73.0748 36.9907 73.6911 37.7791 73.6911 38.7361V39.1539H72.2132V38.6016C72.2132 38.2749 71.9071 38.1218 71.6742 38.1218C71.4273 38.1218 71.169 38.2585 71.169 38.5739V41.6324C71.169 42.0941 71.366 42.281 71.6742 42.281C71.9914 42.281 72.2132 42.1121 72.2132 41.6488V40.837H73.6911V40.8372Z" fill="#FEFEFE"/>
<path d="M81.8041 37.1306V38.2929H79.8491V43.2656H78.3687V37.1306H81.8041Z" fill="#FEFEFE"/>
<path d="M88.099 40.9314L87.7039 38.2314H87.6944L87.311 40.9314H88.099V40.9314ZM88.6106 37.1306L89.9677 43.2634H88.5169L88.2933 42.0317H87.1666L86.9797 43.2634H85.5088L86.8432 37.1306H88.6108H88.6106Z" fill="#FEFEFE"/>
<path d="M94.1619 38.9992C94.1619 37.7267 94.9567 36.9918 96.0168 36.9918C97.1838 36.9918 97.842 37.7549 97.842 38.6158C97.842 39.3768 97.5952 39.7628 96.9715 40.0344H96.9868C97.6132 40.2648 98.056 40.5205 98.056 41.6214C98.056 42.8366 97.2707 43.4106 96.1015 43.4106C95.185 43.4106 94.1619 43.0081 94.1619 41.4255H95.5185C95.5185 42.1102 95.7149 42.3072 96.039 42.3072C96.4229 42.3072 96.5786 42.1102 96.5786 41.4255C96.5786 40.8542 96.398 40.6237 95.9278 40.6237H95.7149V39.5223H96.0643C96.2794 39.5223 96.5096 39.2825 96.5096 38.8488C96.5096 38.3844 96.3635 38.0947 96.0167 38.0947C95.6375 38.0947 95.5185 38.369 95.5185 38.9992H94.1619V38.9992Z" fill="#FEFEFE"/>
</svg>
