<?xml version="1.0" encoding="utf-8"?>
<!-- Generator: Adobe Illustrator 26.0.2, SVG Export Plug-In . SVG Version: 6.00 Build 0)  -->
<svg version="1.1" id="Слой_1" xmlns:xodm="http://www.corel.com/coreldraw/odm/2003"
	 xmlns="http://www.w3.org/2000/svg" xmlns:xlink="http://www.w3.org/1999/xlink" x="0px" y="0px" viewBox="0 0 88.8 72.9"
	 style="enable-background:new 0 0 88.8 72.9;" xml:space="preserve">
<style type="text/css">
	.st0{fill:#4A5161;}
</style>
<g>
	<g>
		<path class="st0" d="M26.3,34.1c-1.8-1.8-4.9-2.8-5.7-3c0,0-0.5-0.2-6.1-2c-0.9-0.3-5.4-1.4-5.4-5.4c0-3.9,3.8-5.2,5.7-5.2
			c0.4,0,2.7-0.2,5.4,1.8s5,8.2,5,8.2h2V17h-2l-1.6,1.6c-2.1-1.3-5.3-2.5-9.2-2.5c-6.6,0-13.1,3.4-13.1,10.4s6.5,9.7,8.6,10.4
			c2.2,0.7,3.9,1.2,6.6,2.2c2.5,0.8,4.7,2.2,4.7,5.4s-2.5,4.5-4.1,4.8c-0.9,0.2-1.1,0.2-0.5,0.2c0.2,0,7.9,0,7.9,0s1.1-0.5,2.2-1.8
			s2.5-3.6,2.5-6.5C29.2,38.2,28.1,35.8,26.3,34.1z"/>
		<path class="st0" d="M13.1,49.4L13.1,49.4c-1.1-0.2-1.9-0.4-2.8-0.8C9.1,48,7.7,47,6.7,45.9c-0.9-1-1.7-2.2-2.4-3.5
			c-0.6-1.1-0.9-2.1-1.4-3.1H0.5v10.2L13.1,49.4C13.2,49.5,13.2,49.5,13.1,49.4C13.2,49.4,13.2,49.4,13.1,49.4z"/>
	</g>
	<g>
		<g>
			<path class="st0" d="M76,62c-0.3,0-0.6-0.1-0.9-0.2c-0.9-0.5-1.3-1.6-0.8-2.6l7.1-13.9l-7.1-13.9c-0.5-0.9-0.1-2.1,0.8-2.6
				s2.1-0.1,2.6,0.8l7.5,14.8c0.3,0.5,0.3,1.2,0,1.7l-7.5,14.8C77.3,61.6,76.7,62,76,62z"/>
		</g>
	</g>
	<g>
		<path class="st0" d="M37.5,55.7c-1,0-1.6,0.6-1.6,1.6s0.6,1.6,1.6,1.6s1.6-0.6,1.6-1.6S38.5,55.7,37.5,55.7z"/>
		<path class="st0" d="M23.3,55.7c-0.8,0-1.3,0.3-1.5,1h3C24.6,56,24.1,55.7,23.3,55.7z"/>
		<path class="st0" d="M13.4,55.7c-0.8,0-1.3,0.3-1.5,1h3C14.7,56,14.2,55.7,13.4,55.7z"/>
		<path class="st0" d="M58.8,52H0.5v10h56.4c-0.8-1.1-1.2-2.5-1.2-4C55.7,55.5,56.9,53.3,58.8,52z M9.2,55.8H8v2.7
			c0,0.3,0,0.4,0.4,0.4c0.2,0,0.4-0.1,0.6-0.1l0.2-0.1v1.2H9C8.8,60,8.5,60,8.2,60c-1,0-1.5-0.4-1.5-1.3v-3H5.8v-1.1h0.9v-1.2H8v1.3
			h1.2V55.8z M16.4,57.7H12c0,0.7,0.6,1.2,1.5,1.2c0.7,0,1.2-0.2,1.4-0.7v-0.1h1.4l-0.1,0.2c-0.4,1.1-1.4,1.8-2.8,1.8
			c-1.8,0-2.9-1.1-2.9-2.8c0-1.7,1.2-2.8,2.9-2.8c1.8,0,2.9,1.1,3,2.8V57.7z M19,59.9h-1.3v-7H19V59.9z M26.3,57.7h-4.4
			c0,0.7,0.6,1.2,1.5,1.2c0.7,0,1.2-0.2,1.4-0.7v-0.1h1.4l-0.1,0.2c-0.4,1.1-1.4,1.8-2.8,1.8c-1.8,0-2.9-1.1-2.9-2.8
			c0-1.7,1.2-2.8,2.9-2.8s2.8,1.1,3,2.8V57.7z M33,56.6h-1.3v-0.1c-0.1-0.5-0.6-0.8-1.2-0.8c-1,0-1.6,0.6-1.6,1.6s0.6,1.6,1.6,1.6
			c0.7,0,1.2-0.4,1.3-1l-0.1-0.1H33V58c-0.3,1.3-1.3,2.1-2.7,2.1c-1.7,0-2.8-1.1-2.8-2.8c0-1.6,1.2-2.8,2.9-2.8
			c1.4,0,2.4,0.7,2.6,1.9V56.6z M37.5,60.1c-1.7,0-2.9-1.1-2.9-2.8c0-1.7,1.1-2.8,2.9-2.8c1.7,0,2.9,1.1,2.9,2.8
			C40.4,59,39.3,60.1,37.5,60.1z M50.9,59.9h-1.3v-3c0-1-0.3-1.3-1-1.3c-0.9,0-1.6,0.6-1.6,1.6v2.7h-1.2v-3c0-1-0.3-1.3-1-1.3
			c-0.9,0-1.6,0.6-1.6,1.6v2.7h-1.3v-5.3h1.3v0.6c0.5-0.5,1.1-0.7,1.8-0.7c0.8,0,1.5,0.3,1.8,0.9c0.6-0.6,1.2-0.9,2-0.9
			c1.8,0,2.1,1.3,2.1,2.4V59.9z"/>
	</g>
	<g>
		<path class="st0" d="M76.3,42.1c0,0-4.7-9.2-5.4-10.6c-1.6-3.2,0.8-3,2.7-3v-2H46.5v2c3.8,0,5.1,0.8,1.8,4.1c-2.6,2.6-7,7-7,7v-26
			l-11.7,0.5v2c0,0,1.7,0,2.9,0.9c0.9,0.7,0.9,2.7,0.9,2.7v29.8h7.9v-6.3l2.9-2.9l6.6,9.1h9.9L50,34.8c0,0,0.2-0.4,2.7-2.9
			c5.4-5.4,7.7-3.7,9.9,0.5c1.5,2.9,7.3,14.4,9.3,18.5c0.1,0.1-1.3,2.9-2.9,4.7c-1.3,1.5-2.2,1.6-2.3,1.4c-0.1-0.2-0.3-0.4-0.4-0.6
			c-0.2-0.3-0.4-0.6-0.7-0.9c-1.6-1.6-4.1-1.8-5.5-0.3c-1.4,1.4-1.3,3.9,0.3,5.5c0.9,0.9,2,1.3,3.1,1.3l0,0c2.5,0,5.7,0,12-12.6
			l3.3-6.5l-1.4-2.8L76.3,42.1z"/>
		<path class="st0" d="M78.8,26.5v2c2.5,0,4.5,0,2.9,3l-0.8,1.6l1.4,2.8l1.5-3c1.6-3.1,2.4-4.5,4.5-4.5v-2h-9.5V26.5z"/>
	</g>
	<g>
		<path class="st0" d="M52.3,22.9V22h-1.4v-5.4c0.1-0.3,0.4-0.5,0.6-0.7c0.2-0.2,0.5-0.4,0.7-0.6c0.5-0.3,1.2-0.5,1.8-0.6
			s1.2,0,1.8,0.2c0.4,0.2,0.8,0.4,1,0.9c0.3,0.6,0.4,1.2,0.4,1.9V22H56h-0.2v0.9H56h5.4h0.2V22h-0.2H60v-4.6c0-0.8-0.1-1.6-0.5-2.2
			c-0.4-0.7-1-1.1-1.7-1.3c-0.8-0.2-1.6-0.3-2.4-0.3c-0.8,0-1.5,0.1-2.3,0.3c-0.4,0.2-0.8,0.4-1.2,0.6c-0.4,0.2-0.7,0.5-1,0.9v-1.7
			h-4.3v0.9h1.6v7.5h-1.6V23h5.7V22.9z"/>
		<path class="st0" d="M74.5,21.8c-0.7,0.7-1.7,1.1-2.6,1.3c-1.1,0.2-2.2,0.2-3.3,0.1c-2-0.2-4.2-1.2-4.9-3.3c-0.3-1-0.3-2.1,0-3.1
			c0.3-0.8,0.8-1.6,1.5-2.1s1.6-0.8,2.5-1c1.1-0.2,2.2-0.2,3.2-0.1c1,0.1,2.1,0.4,3,1.2c0.4,0.3,0.7,0.7,0.8,1.2
			c0.2,0.5,0.2,1.1,0.1,1.6c0,0.3-0.1,0.6-0.2,0.8h-8.5c0,0.6,0.2,1.3,0.5,1.8s0.9,0.9,1.4,1.1c0.6,0.3,1.2,0.4,1.8,0.5
			c0.6,0.1,1.3,0.1,1.9,0c0.7-0.1,1.4-0.3,2-0.7L74.5,21.8z M69.6,14.4c-0.9,0-1.8,0.1-2.4,0.8c-0.6,0.6-0.8,1.5-0.9,2.4h5.9
			c0.1-0.8,0-1.7-0.5-2.4C71.1,14.5,70.3,14.4,69.6,14.4z"/>
		<path class="st0" d="M78.8,11.8v1.8h-2.2v1.1h2.2v5.8c0,0.5,0.1,1.1,0.4,1.6c0.3,0.4,0.7,0.6,1.1,0.8c0.6,0.2,1.2,0.3,1.8,0.3
			c0.7,0,1.4-0.1,2.1-0.2c0.7-0.2,1.4-0.4,2-0.8l-0.7-0.8c-0.1,0.1-0.2,0.1-0.4,0.2c-0.3,0.1-0.6,0.3-1,0.4c-0.3,0.1-0.7,0.1-1,0.1
			c-0.5,0-1-0.1-1.3-0.6c-0.3-0.4-0.4-1-0.4-1.5v-5.3h3.9v-1.1h-3.9v-1.8C81.4,11.8,78.8,11.8,78.8,11.8z"/>
	</g>
</g>
</svg>
