<svg width="120" height="35" viewBox="0 0 120 35" fill="none" xmlns="http://www.w3.org/2000/svg">
<path d="M16.615 9.65217C16.6479 9.58463 16.6771 9.51548 16.71 9.45169C17.232 8.4927 17.8051 7.31017 17.9522 7.00141C17.2179 5.33001 16.6182 4.35547 16.6182 4.35547C16.6182 4.35547 15.972 5.26622 15.196 6.74357C15.3848 7.15901 16.0669 8.63957 16.5801 9.58463C16.5921 9.60661 16.6004 9.62805 16.615 9.65217V9.65217Z" fill="#008496"/>
<path d="M16.6155 9.65211C16.993 10.4347 17.3179 11.205 17.5985 11.9636C18.3427 10.401 18.8819 9.4066 18.8819 9.4066C18.8819 9.4066 19.0561 9.84884 19.2986 10.6229C18.8678 9.21147 18.3865 7.98446 17.9526 7.00134C17.8055 7.31011 17.2324 8.49263 16.7104 9.45162C16.6775 9.51541 16.6483 9.58456 16.6155 9.65211V9.65211Z" fill="#0099AA"/>
<path d="M15.6409 11.9655C15.9189 11.207 16.2406 10.4367 16.6151 9.65035C16.6 9.62623 16.5911 9.60747 16.5791 9.58334C16.0691 8.63722 15.3838 7.15665 15.1956 6.74121C14.8655 7.36946 14.5108 8.09956 14.1682 8.90363C14.3544 9.27994 14.9562 10.4936 15.6404 11.965L15.6409 11.9655Z" fill="#0099AA"/>
<path d="M16.6184 14.1132C16.6507 14.0408 16.6799 13.962 16.7159 13.8859C17.0288 13.1821 17.3266 12.5329 17.5983 11.9626C17.3177 11.2078 16.9928 10.4338 16.6152 9.65112C16.2372 10.4375 15.919 11.2073 15.6416 11.9663C15.9425 12.6182 16.2674 13.3156 16.5735 14.0194C16.5892 14.0494 16.6038 14.0832 16.6184 14.1132Z" fill="#2CA4B4"/>
<path d="M19.4257 11.0892C19.4257 11.0892 19.4549 11.1648 19.4992 11.3074C19.434 11.0769 19.3662 10.8491 19.299 10.625C19.057 9.85097 18.8797 9.40552 18.8797 9.40552C18.8797 9.40552 18.3425 10.4004 17.5989 11.9625C17.7908 12.4808 17.9618 12.9938 18.1089 13.4999C18.85 12.0263 19.4257 11.0892 19.4257 11.0892V11.0892Z" fill="#2CA4B4"/>
<path d="M16.6187 14.1133C16.8226 14.5834 17.0087 15.054 17.1704 15.5086C17.4922 14.7721 17.8134 14.0924 18.1086 13.5011C17.9615 12.994 17.7905 12.481 17.5985 11.9626C17.3268 12.533 17.0291 13.1822 16.7162 13.886C16.6797 13.9621 16.6505 14.0409 16.6187 14.1133Z" fill="#5CB0BF"/>
<path d="M15.128 13.5413C15.2766 13.0262 15.4472 12.4982 15.6417 11.9664C14.9544 10.4928 14.3552 9.2819 14.1695 8.90613C13.9484 9.43414 13.7294 9.99484 13.5322 10.5775C13.7533 10.9592 14.4021 12.0876 15.128 13.5408V13.5413Z" fill="#2CA4B4"/>
<path d="M16.0678 15.5289C16.2306 15.0646 16.41 14.5913 16.6196 14.1126C16.6045 14.0815 16.5904 14.0515 16.5753 14.0177C16.2645 13.3171 15.9437 12.6165 15.6402 11.9652C15.4483 12.4991 15.2741 13.0271 15.1292 13.5455C15.4363 14.1577 15.7581 14.8315 16.0673 15.5289H16.0678Z" fill="#5CB0BF"/>
<path d="M17.1722 15.5081C17.0063 15.0536 16.8238 14.5829 16.6194 14.1128C16.4108 14.5926 16.2309 15.0654 16.0676 15.5296C16.2543 15.9606 16.4431 16.4033 16.6194 16.8461C16.7993 16.3846 16.986 15.9386 17.1722 15.5081Z" fill="#7DBECB"/>
<path d="M19.9639 13.151C19.8226 12.5099 19.6666 11.8945 19.5008 11.3092C19.4544 11.1666 19.4247 11.0878 19.4247 11.0878C19.4247 11.0878 18.8494 12.0253 18.1084 13.4989C18.3066 14.1663 18.4693 14.8187 18.5986 15.4587C19.2891 14.1995 19.8288 13.3563 19.9644 13.151H19.9639Z" fill="#5CB0BF"/>
<path d="M18.5979 15.4576C18.4685 14.8181 18.3027 14.1668 18.1087 13.4978C17.8135 14.0928 17.4918 14.7698 17.1726 15.5096C17.3734 16.0832 17.5507 16.6444 17.6952 17.1901C18.0107 16.5527 18.3152 15.9706 18.5979 15.4571V15.4576Z" fill="#7DBECB"/>
<path d="M16.7973 17.3037C16.9303 17.6495 17.0445 17.9984 17.1546 18.3318C17.3345 17.9346 17.5175 17.5556 17.6975 17.1911C17.5488 16.6428 17.3726 16.0847 17.1723 15.5079C16.9825 15.9389 16.8 16.3849 16.6174 16.8491C16.6816 16.9965 16.7379 17.152 16.7973 17.3037V17.3037Z" fill="#9ACBD4"/>
<path d="M14.6439 15.5551C14.7707 14.8974 14.9339 14.23 15.1279 13.5417C14.402 12.089 13.7532 10.9595 13.5316 10.5779C13.3126 11.2211 13.1123 11.8939 12.9559 12.5859C12.9475 12.6251 12.9418 12.6626 12.936 12.698C13.1686 13.0593 13.8497 14.1265 14.6439 15.5551V15.5551Z" fill="#5CB0BF"/>
<path d="M15.5465 17.2561C15.6915 16.6916 15.8621 16.118 16.0686 15.53C15.7557 14.8294 15.4365 14.1588 15.1273 13.5402C14.9322 14.229 14.77 14.8985 14.6433 15.5541C14.9359 16.0794 15.2394 16.6514 15.5465 17.2555V17.2561Z" fill="#7DBECB"/>
<path d="M16.0855 18.3663C16.2065 17.9755 16.3426 17.5783 16.4948 17.1714C16.5334 17.0626 16.5778 16.95 16.619 16.8471C16.4427 16.4043 16.2565 15.9615 16.0646 15.5273C15.8638 16.1186 15.6897 16.6922 15.5447 17.2566C15.7282 17.6174 15.9076 17.9878 16.0855 18.3663V18.3663Z" fill="#9ACBD4"/>
<path d="M17.1545 18.3314C17.046 17.998 16.9302 17.649 16.7973 17.3065C16.7389 17.1521 16.6831 16.9993 16.6173 16.8481C16.5793 16.9516 16.5344 17.0631 16.4937 17.1725C16.343 17.5766 16.2074 17.9765 16.0859 18.3678C16.269 18.7586 16.4489 19.1569 16.6168 19.5627C16.7947 19.1419 16.9709 18.7286 17.154 18.3319L17.1545 18.3314Z" fill="#B4D7DF"/>
<path d="M16.7993 29.5068C18.1573 27.9142 19.0809 26.2524 19.6947 24.626C20.4613 22.3998 20.6855 20.083 20.6099 17.8836C20.527 16.2036 20.2881 14.6142 19.9632 13.1487C19.8282 13.3583 19.2874 14.1983 18.5974 15.4569C20.0848 22.7702 17.4757 28.2513 16.7993 29.5068Z" fill="#7DBECB"/>
<path d="M16.7937 29.5106C16.7974 29.5106 16.7974 29.5069 16.7974 29.5069C17.4732 28.2515 20.0849 22.7704 18.5976 15.457C18.3175 15.97 18.0104 16.5549 17.6975 17.1885C19.3736 23.5278 17.3726 28.3185 16.7937 29.5101V29.5106Z" fill="#9ACBD4"/>
<path d="M16.7451 29.5696C16.7623 29.5482 16.7801 29.5305 16.7952 29.509C17.3735 28.3195 19.374 23.5305 17.6916 17.1912C17.5154 17.5551 17.3323 17.9347 17.1545 18.3313C19.0668 24.3683 17.2082 28.6417 16.7451 29.5696V29.5696Z" fill="#B4D7DF"/>
<path d="M16.7099 19.7828C18.6165 24.4148 17.0144 28.8244 16.6807 29.644C16.7015 29.6199 16.725 29.5925 16.7459 29.5711C17.2095 28.6432 19.0681 24.3687 17.1537 18.3296C16.9732 18.7268 16.7928 19.1396 16.6191 19.5641C16.6483 19.637 16.6812 19.7094 16.7104 19.7828H16.7099Z" fill="#CFE5EB"/>
<path d="M14.644 15.555C13.8498 14.1259 13.1687 13.0592 12.9361 12.6979C12.6853 13.9962 12.4991 15.5647 12.5309 17.3181C12.5366 17.5245 12.5491 17.7298 12.5637 17.934C12.8062 21.079 13.783 24.7702 16.111 28.8678C15.202 26.878 13.4112 21.8986 14.644 15.555V15.555Z" fill="#7DBECB"/>
<path d="M16.0447 28.3876C15.2979 26.3763 14.2622 22.3034 15.5488 17.256C15.2453 16.6519 14.935 16.0794 14.6434 15.5573C13.4096 21.8966 15.2035 26.8802 16.1094 28.8674C16.2371 29.0914 16.3701 29.3251 16.5078 29.5524C16.3993 29.3251 16.2278 28.9311 16.0452 28.3876H16.0447Z" fill="#9ACBD4"/>
<path d="M16.0853 18.3663C15.9075 17.9879 15.7281 17.6175 15.5445 17.2567C14.2643 22.3042 15.2973 26.3776 16.0441 28.3921C15.4183 26.5288 14.683 22.9324 16.0853 18.3663Z" fill="#B4D7DF"/>
<path d="M16.5811 19.6528C16.5931 19.6217 16.6066 19.5917 16.6186 19.5638C16.4481 19.158 16.2703 18.7576 16.0851 18.3657C14.6828 22.9307 15.4181 26.5319 16.0439 28.3909C16.2238 28.8707 16.3886 29.2341 16.4982 29.4646C16.094 28.3668 14.76 24.0779 16.5811 19.6528V19.6528Z" fill="#CFE5EB"/>
<path d="M16.7102 19.7829C16.681 19.7095 16.6481 19.6371 16.6189 19.5642C16.6069 19.5942 16.5923 19.6216 16.5803 19.6516C14.7603 24.0772 16.0938 28.3667 16.4979 29.4645C16.5511 29.5819 16.598 29.6671 16.6226 29.7095C16.6424 29.6918 16.6606 29.6671 16.681 29.6435C17.0147 28.8245 18.6168 24.4144 16.7102 19.7824V19.7829Z" fill="#FEFEFE"/>
<path d="M24.5868 2.17855C22.2051 0.811085 19.461 0.0338135 16.5401 0.0338135C7.40657 0.0338135 0.000244141 7.64411 0.000244141 17.0319C0.000244141 26.423 7.40657 34.0338 16.5401 34.0338C25.6726 34.0338 33.0768 26.423 33.0768 17.0319C33.0768 14.0113 32.3092 11.1745 30.9663 8.7146L29.1698 9.79259C30.3963 12.0242 31.0993 14.609 31.0993 17.3568C31.0993 25.8709 24.386 32.772 16.1052 32.772C7.82272 32.772 1.11208 25.8714 1.11208 17.3568C1.11208 8.84593 7.82272 1.94429 16.1052 1.94429C18.8441 1.94429 21.4052 2.70066 23.6158 4.01344L22.4914 6.14585L28.3526 5.98825L25.2893 0.849681L24.5868 2.17801V2.17855Z" fill="#008496"/>
<path d="M81.428 20.1791V9.69824H78.8966V24.3538H81.2381L88.0708 13.873V24.3538H90.6016V9.69824H88.2606L81.428 20.1791Z" fill="#008496"/>
<path d="M48.4435 15.6558H42.6533V9.69763H40.3994V24.3538H42.6533V17.9056H48.4435V24.3538H50.6975V9.69763H48.4435V15.6558Z" fill="#008496"/>
<path d="M66.7042 9.69824V24.3538H69.271V11.948H74.3713V24.3538H76.9397V9.69824H66.7042Z" fill="#008496"/>
<path d="M100.171 11.948L100.53 9.69824H92.6704V24.3538H95.2294V11.948H100.171Z" fill="#008496"/>
<path d="M119.91 19.1836C119.849 18.8529 119.746 18.5254 119.602 18.2091C119.457 17.8918 119.264 17.5873 119.031 17.3064C118.811 17.0426 118.54 16.8105 118.244 16.6315C118.757 16.2198 119.119 15.754 119.32 15.2469C119.53 14.7162 119.636 14.1555 119.636 13.5792C119.636 13.0989 119.557 12.6074 119.402 12.1185C119.246 11.6253 118.99 11.1729 118.647 10.7752C118.303 10.3763 117.856 10.0483 117.321 9.79955C116.787 9.55082 116.134 9.42432 115.384 9.42432C114.625 9.42432 113.963 9.54278 113.418 9.77811C112.871 10.0124 112.413 10.327 112.056 10.7119C111.698 11.0973 111.432 11.5396 111.263 12.0263C111.095 12.5087 111.009 13.011 111.009 13.5213V14.2327H113.335V13.7985C113.345 13.4651 113.382 13.1552 113.443 12.8765C113.5 12.6165 113.601 12.3919 113.744 12.2091C113.884 12.0317 114.085 11.8912 114.34 11.7942C114.606 11.6939 114.958 11.6414 115.384 11.6414C115.7 11.6414 115.973 11.6972 116.195 11.806C116.422 11.9175 116.611 12.0622 116.762 12.2354C116.909 12.4064 117.019 12.6106 117.086 12.8406C117.156 13.0796 117.191 13.3284 117.191 13.5782C117.191 13.8666 117.153 14.1448 117.078 14.4042C117.004 14.6551 116.889 14.8754 116.733 15.0603C116.58 15.2437 116.372 15.3927 116.118 15.5026C115.859 15.6146 115.537 15.6714 115.159 15.6714H113.641V17.888H115.159C115.583 17.888 115.951 17.9486 116.252 18.0686C116.548 18.1871 116.797 18.3544 116.99 18.564C117.183 18.7746 117.327 19.0212 117.416 19.2962C117.507 19.5787 117.554 19.8875 117.554 20.2134C117.554 20.84 117.366 21.3514 116.979 21.776C116.603 22.1925 116.007 22.4026 115.21 22.4026C115.041 22.4026 114.86 22.3785 114.674 22.3313C114.485 22.2831 114.299 22.2155 114.119 22.1303C113.937 22.0435 113.768 21.947 113.615 21.843C113.467 21.7443 113.339 21.6339 113.236 21.5187C112.983 21.2244 112.828 20.929 112.777 20.6422C112.722 20.334 112.694 19.9748 112.694 19.5744V19.1917L110.369 18.9392V19.4393C110.369 20.0327 110.435 20.6197 110.564 21.1852C110.697 21.7685 110.996 22.3361 111.453 22.8722C111.657 23.1134 111.903 23.3423 112.185 23.5498C112.465 23.7556 112.772 23.94 113.097 24.0987C113.423 24.2573 113.78 24.386 114.155 24.4787C114.531 24.572 114.915 24.6197 115.297 24.6197C116.104 24.6197 116.81 24.4841 117.397 24.2166C117.983 23.9496 118.475 23.6001 118.86 23.1767C119.244 22.7532 119.534 22.2659 119.721 21.7277C119.906 21.1949 120.001 20.6583 120.001 20.1357C120.001 19.8301 119.97 19.5095 119.91 19.182L119.91 19.1836Z" fill="#008496"/>
<path d="M102.717 17.5996L104.245 13.4699L105.773 17.5996H102.718H102.717ZM103.258 9.69824L97.8364 24.3544H100.219L101.882 19.8569H106.607L108.272 24.3544H110.654L105.232 9.69824H103.258H103.258Z" fill="#008496"/>
<path d="M55.2883 20.1791V9.69824H52.7565V24.3538H55.098L61.9307 13.873V24.3538H64.462V9.69824H62.121L55.2883 20.1791Z" fill="#008496"/>
</svg>
