<?xml version="1.0" encoding="UTF-8"?>
<!DOCTYPE svg PUBLIC "-//W3C//DTD SVG 1.1//EN" "http://www.w3.org/Graphics/SVG/1.1/DTD/svg11.dtd">
<!-- Creator: CorelDRAW 2021 (64-Bit) -->
<svg xmlns="http://www.w3.org/2000/svg" xml:space="preserve" width="19.2138mm" height="4.6967mm" version="1.1" style="shape-rendering:geometricPrecision; text-rendering:geometricPrecision; image-rendering:optimizeQuality; fill-rule:evenodd; clip-rule:evenodd"
viewBox="0 0 1184.9 289.64"
 xmlns:xlink="http://www.w3.org/1999/xlink"
 xmlns:xodm="http://www.corel.com/coreldraw/odm/2003">
 <defs>
  <style type="text/css">
   <![CDATA[
    .fil1 {fill:#4A5161}
    .fil0 {fill:#4A5161;fill-rule:nonzero}
   ]]>
  </style>
 </defs>
 <g id="Слой_x0020_1">
  <metadata id="CorelCorpID_0Corel-Layer"/>
  <path class="fil0" d="M591.32 90.75c0,4.34 -3.53,7.84 -7.87,7.84l-12.11 0c-4.34,0 -7.85,-3.51 -7.85,-7.84l0 -9.36c0,-4.34 3.52,-7.85 7.85,-7.85l12.11 0c4.34,0 7.87,3.52 7.87,7.85l0 9.36z"/>
  <path class="fil0" d="M531.06 81.71c0,-4.34 -3.06,-7.85 -7.4,-7.85l-12.56 0c-4.37,0 -7.87,3.52 -7.87,7.85l0 125.72c0,4.34 3.5,7.85 7.87,7.85l12.11 0c4.34,0 7.85,-3.51 7.85,-7.85l0 -125.72z"/>
  <path class="fil0" d="M766.92 149.57c0.67,-6.73 3.11,-11.84 7.28,-15.32 4.23,-3.52 9.21,-5.24 14.92,-5.24 3.62,0 6.68,0.59 9.24,1.81 2.5,1.2 4.6,2.82 6.27,4.84 1.65,2.02 2.9,4.23 3.73,6.68 0.8,2.39 1.2,4.81 1.2,7.23l-42.64 0zm70.39 7.36c-0.47,-15.29 -4.76,-27.18 -12.85,-35.61 -8.59,-9 -20.18,-13.49 -34.71,-13.49 -9.07,0 -16.9,1.57 -23.51,4.77 -6.6,3.19 -12.05,7.42 -16.34,12.61 -4.26,5.19 -7.37,11.14 -9.39,17.87 -1.97,6.73 -2.98,13.63 -2.98,20.67 0,9.18 1.24,17.16 3.77,23.87 2.55,6.73 6.14,12.29 10.8,16.68 4.69,4.41 10.4,7.66 17.14,9.79 6.72,2.13 14.23,3.19 22.53,3.19 5.69,0 11.54,-0.68 17.47,-2.1 1.95,-0.45 3.76,-0.99 5.54,-1.6 0.78,-0.21 1.89,-0.59 3.46,-1.28 8.33,-3.43 14.07,-8.17 14.07,-8.17 3.19,-1.95 4.14,-6.15 2.21,-9.31l-5.32 -8.49c-1.97,-3.16 -6.17,-3.76 -9.34,-1.81 0,0 -10.05,6.48 -15.74,8.22 -3.11,0.96 -7.3,1.94 -11.58,1.94 -16.39,0 -25.27,-8.17 -26.6,-24.56l63.8 0.03c4.23,0 7.47,-3.35 7.63,-7.61l0 -4.68c0,-0.3 -0.02,-0.59 -0.05,-0.94z"/>
  <path class="fil0" d="M716.03 135.7c-0.64,-5.53 -2.75,-10.56 -6.18,-15.09 -3.35,-4.14 -7.31,-7.31 -11.95,-9.49 -4.6,-2.21 -10.34,-3.3 -17.29,-3.3 -7.21,0 -13.43,1.57 -18.7,4.71 -5.27,3.11 -9.31,6.75 -12.11,10.88l0 -2.42 0 -4.01c0,-4.2 -3.43,-7.61 -7.63,-7.61l-11.77 0c-4.23,0 -7.63,3.41 -7.63,7.61l0 90.79c0,4.32 3.48,7.79 7.79,7.79l12.02 0c4.29,0 7.8,-3.48 7.8,-7.79 0,0 0.02,-48.26 0.1,-51.34 0.05,-3.08 0.42,-5.8 1.09,-8.2 0.43,-1.62 1.07,-3.35 2,-5.24 0.93,-1.86 2.26,-3.61 4.02,-5.29 1.73,-1.65 3.85,-3.05 6.41,-4.2 2.53,-1.15 5.59,-1.68 9.21,-1.68 3.45,0 6.43,0.51 8.91,1.57 2.45,1.06 4.29,2.92 5.51,5.61 1.19,2.69 1.78,6.95 1.78,12.8l0 55.96c0,4.32 3.48,7.79 7.79,7.79l12.02 0c4.29,0 7.79,-3.48 7.79,-7.79l0 -3.45 0 -52.94c0,-4.95 -0.35,-10.16 -1.01,-15.67z"/>
  <path class="fil0" d="M112.87 92.44c-0.93,-2.92 -1.41,-5.41 -1.41,-7.39 0,-3.47 0.96,-5.8 3.78,-7.71 2.23,-1.55 6.78,-1.28 11.47,-1.39 8.03,-0.19 11.27,-0.46 13.99,6.7 0,0 21.12,85.42 21.71,88.48 0.62,3.05 1.1,5.61 1.49,7.58 0.43,-2.26 0.88,-4.74 1.41,-7.37 0.54,-2.68 20.89,-59.62 20.89,-59.62 1.07,-4.29 3.75,-6.38 6.83,-7.68 0.85,-0.38 1.86,-0.83 3.09,-0.83l10.99 0c1.92,0 3.78,-0.1 5.12,0.64 3.2,1.44 5.67,3.99 6.73,8.25 0,0 21.71,57.01 22.29,59.71 0.61,2.74 1.01,4.98 1.3,6.7 0.27,-1.59 0.64,-3.64 1.2,-6.2 0.51,-2.79 22.42,-89.67 22.42,-89.67 3,-7.07 5.7,-6.28 13.99,-6.28 4.68,0 7.26,-0.45 9.92,1.12 3.15,1.86 3.89,4.55 3.89,7.75 0,1.09 -0.1,2.26 -0.3,3.61 -0.21,1.33 -0.58,2.74 -1.12,4.18l-33.01 112.88c-1.09,3.48 -3.14,5.56 -6.01,6.76 -1.06,0.42 -2.21,0.66 -3.24,0.66 -3.15,0 -14.74,0.02 -14.74,0.02 -2.39,0 -3.48,-0.21 -5,-0.85 -3.24,-1.73 -4.9,-4.09 -5.83,-7.42 0,0 -21.65,-65.28 -21.81,-66.48 -0.14,1.06 -22.4,67.09 -22.4,67.09 -1.07,3.72 -3.03,5.53 -6.12,6.89 -0.99,0.4 -2.13,0.54 -2.82,0.54 -3.14,0 -15.81,0.02 -15.81,0.02 -1.47,0 -3.14,-0.59 -3.99,-1.01 -2.9,-1.43 -4.63,-3.89 -5.69,-7.21l-33.23 -112.47z"/>
  <path class="fil0" d="M345.23 90.75c0,4.34 -3.51,7.84 -7.88,7.84l-12.1 0c-4.34,0 -7.85,-3.51 -7.85,-7.84l0 -9.36c0,-4.34 3.51,-7.85 7.85,-7.85l12.1 0c4.37,0 7.88,3.52 7.88,7.85l0 9.36z"/>
  <path class="fil0" d="M470.44 135.7c-0.67,-5.53 -2.74,-10.56 -6.2,-15.09 -3.32,-4.14 -7.31,-7.31 -11.91,-9.49 -4.6,-2.21 -10.38,-3.3 -17.32,-3.3 -7.21,0 -13.43,1.57 -18.7,4.71 -5.27,3.11 -9.31,6.75 -12.11,10.88l0 -2.42 0 -4.01c0,-4.2 -3.4,-7.61 -7.63,-7.61l-11.76 0c-4.21,0 -7.63,3.41 -7.63,7.61l0 90.79c0,4.32 3.51,7.79 7.79,7.79l12.02 0c4.32,0 7.79,-3.48 7.79,-7.79l0 -43.54c0,-2.13 0.02,-4.72 0.11,-7.8 0.08,-3.08 0.45,-5.8 1.09,-8.2 0.42,-1.62 1.06,-3.35 1.99,-5.24 0.93,-1.86 2.29,-3.61 4.01,-5.29 1.73,-1.65 3.85,-3.05 6.41,-4.2 2.55,-1.15 5.61,-1.68 9.21,-1.68 3.48,0 6.43,0.51 8.91,1.57 2.44,1.06 4.3,2.92 5.51,5.61 1.2,2.69 1.78,6.95 1.78,12.8l0 55.96c0,4.32 3.52,7.79 7.82,7.79l12 0c4.31,0 7.79,-3.48 7.79,-7.79l0 -56.39c0,-4.95 -0.35,-10.16 -0.99,-15.67z"/>
  <path class="fil0" d="M337.36 109.8l-12.1 0c-4.34,0 -7.85,3.53 -7.85,7.87l-0.27 89.68c0,4.38 3.56,7.92 7.92,7.92l12.24 0c4.37,0 7.93,-3.54 7.93,-7.92l0 -89.68c0,-4.34 -3.52,-7.87 -7.88,-7.87z"/>
  <path class="fil0" d="M583.59 109.8l-12.11 0c-4.34,0 -7.88,3.53 -7.88,7.87l-0.23 89.68c0,4.38 3.56,7.92 7.93,7.92l12.24 0c4.36,0 7.92,-3.54 7.92,-7.92l0 -89.68c0,-4.34 -3.53,-7.87 -7.87,-7.87z"/>
  <path class="fil1" d="M1040.61 289.64l-896.32 0c-79.35,0 -144.29,-65.14 -144.29,-144.79 0,-79.68 64.94,-144.85 144.29,-144.85l896.32 0c79.35,0 144.29,65.18 144.29,144.85 0,79.65 -64.94,144.79 -144.29,144.79zm-150.13 -144.81c0,-45.36 19.45,-85.44 51.06,-113.08 1.81,-1.6 0.52,-3.8 -0.75,-3.8l-796.5 0c-64.3,0 -116.44,52.33 -116.44,116.89 0,64.57 52.14,116.89 116.44,116.89l795.97 0c1.3,0 3.22,-2.05 0.75,-4.18 -30.99,-27.58 -50.52,-67.86 -50.52,-112.71zm266.6 0c0,64.57 -52.14,116.89 -116.46,116.89 -64.33,0 -116.47,-52.33 -116.47,-116.89 0,-64.56 52.14,-116.89 116.47,-116.89 64.32,0 116.46,52.33 116.46,116.89z"/>
 </g>
</svg>
