<svg width="120" height="34" viewBox="0 0 120 34" fill="none" xmlns="http://www.w3.org/2000/svg">
<path d="M20.6504 17.8011C20.5657 16.1283 20.3241 14.5423 19.9973 13.084C19.8553 12.4468 19.6979 11.8352 19.5279 11.2506C19.4622 11.0196 19.3954 10.7917 19.3251 10.5688C19.2714 10.3995 19.2213 10.2486 19.1748 10.1118C18.7763 8.90028 18.351 7.82991 17.9627 6.95871C17.2184 5.29268 16.6135 4.32129 16.6135 4.32129C16.6135 4.32129 15.9616 5.22976 15.1749 6.70151C14.8391 7.32772 14.4806 8.05474 14.1364 8.85629C13.9104 9.38231 13.6921 9.9401 13.4911 10.5242C13.2692 11.1638 13.0688 11.8352 12.9077 12.5256C12.8994 12.5616 12.8928 12.5983 12.8856 12.6343C12.6327 13.9277 12.4484 15.4893 12.4783 17.239C12.486 17.4449 12.4968 17.6489 12.5105 17.8524C12.7556 20.9847 13.7452 24.6619 16.0988 28.7436C16.2276 28.9696 16.363 29.1969 16.502 29.4254C16.533 29.4682 16.5527 29.4999 16.57 29.517C16.5533 29.481 16.5294 29.4327 16.4901 29.3411C16.0827 28.2457 14.7311 23.9734 16.5754 19.5624C16.5873 19.5331 16.6004 19.5037 16.6135 19.4744C16.6446 19.5471 16.6768 19.6204 16.7048 19.6944C18.6356 24.3106 17.012 28.7033 16.6768 29.517C16.6976 29.4926 16.7197 29.4688 16.7412 29.4431C16.7573 29.4236 16.7746 29.4052 16.7901 29.3851C16.7931 29.3839 16.7943 29.3826 16.7961 29.3814C18.1709 27.793 19.1062 26.1398 19.7253 24.5196C20.5013 22.3031 20.7303 19.9901 20.6504 17.8011V17.8011Z" fill="#4A5161"/>
<path d="M24.5784 2.14562C22.198 0.778948 19.4542 0 16.534 0C7.40211 0 0 7.61169 0 17.0006C0 26.3889 7.40211 34 16.534 34C25.6658 34 33.0673 26.3889 33.0673 17.0006C33.0673 13.9789 32.3009 11.1417 30.9564 8.68206L29.1599 9.75792C30.3868 11.9934 31.0888 14.5746 31.0888 17.3244C31.0888 25.836 24.378 32.7366 16.0991 32.7366C7.81963 32.7366 1.10942 25.836 1.10942 17.3244C1.10942 8.81219 7.81963 1.91163 16.0991 1.91163C18.8363 1.91163 21.3993 2.66797 23.608 3.98332L22.4843 6.11184L28.3451 5.95544L25.2829 0.814993L24.5784 2.14562V2.14562Z" fill="#4A5161"/>
<path d="M81.4048 20.147V9.6969H78.8722V24.3093H81.2151L88.0518 13.8592V24.3093H90.5837V9.6969H88.2414L81.4048 20.147Z" fill="#4A5161"/>
<path d="M48.4007 15.6371H42.6073V9.69629H40.3521V24.3093H42.6073V17.8804H48.4007V24.3093H50.6559V9.69629H48.4007V15.6371Z" fill="#4A5161"/>
<path d="M66.6726 9.6969V24.3093H69.241V11.9403H74.3443V24.3093H76.9139V9.6969H66.6726Z" fill="#4A5161"/>
<path d="M100.158 11.9403L100.518 9.6969H92.6541V24.3093H95.2141V11.9403H100.158Z" fill="#4A5161"/>
<path d="M119.909 19.1543C119.849 18.8244 119.745 18.4981 119.601 18.1829C119.456 17.8664 119.262 17.5628 119.029 17.283C118.81 17.0202 118.539 16.7887 118.242 16.6103C118.755 16.1998 119.118 15.7354 119.319 15.2296C119.529 14.7005 119.635 14.1415 119.635 13.5666C119.635 13.0876 119.556 12.5977 119.401 12.1101C119.244 11.6183 118.989 11.1674 118.645 10.7709C118.301 10.3732 117.853 10.0464 117.318 9.79833C116.783 9.55029 116.131 9.42444 115.38 9.42444C114.621 9.42444 113.959 9.54235 113.413 9.77695C112.865 10.0103 112.408 10.3244 112.05 10.708C111.693 11.0923 111.427 11.5334 111.257 12.0185C111.088 12.4993 111.003 13.0003 111.003 13.5092V14.2185H113.33V13.7853C113.341 13.453 113.378 13.1438 113.438 12.8659C113.495 12.6068 113.596 12.3826 113.74 12.2005C113.88 12.0234 114.08 11.8835 114.336 11.7869C114.602 11.6867 114.954 11.6348 115.38 11.6348C115.697 11.6348 115.97 11.6904 116.192 11.7992C116.418 11.9104 116.608 12.0545 116.758 12.2274C116.906 12.3979 117.016 12.6013 117.083 12.831C117.153 13.0693 117.188 13.3173 117.188 13.5666C117.188 13.8544 117.15 14.1317 117.074 14.3902C117.001 14.64 116.885 14.86 116.73 15.0445C116.577 15.2271 116.369 15.3756 116.114 15.4856C115.855 15.5974 115.533 15.6542 115.155 15.6542H113.636V17.864H115.155C115.58 17.864 115.947 17.9244 116.248 18.0442C116.545 18.1621 116.794 18.3289 116.987 18.5378C117.181 18.748 117.324 18.9936 117.413 19.2679C117.505 19.5495 117.552 19.8575 117.552 20.1825C117.552 20.8075 117.364 21.317 116.977 21.7404C116.6 22.1558 116.004 22.3654 115.207 22.3654C115.038 22.3654 114.857 22.3415 114.671 22.2945C114.482 22.2462 114.295 22.179 114.115 22.0941C113.933 22.0073 113.763 21.9114 113.611 21.8076C113.463 21.7092 113.335 21.5992 113.232 21.4844C112.979 21.1911 112.823 20.8967 112.773 20.6107C112.717 20.3034 112.689 19.9454 112.689 19.5459V19.164L110.363 18.9123V19.4109C110.363 20.0022 110.429 20.5875 110.557 21.1514C110.691 21.733 110.991 22.2988 111.447 22.8333C111.651 23.074 111.898 23.3019 112.18 23.509C112.46 23.7143 112.767 23.8982 113.092 24.0564C113.419 24.2147 113.775 24.343 114.151 24.4352C114.528 24.5281 114.912 24.5757 115.293 24.5757C116.101 24.5757 116.808 24.4407 117.395 24.1737C117.981 23.9074 118.473 23.5591 118.858 23.137C119.244 22.7148 119.534 22.2291 119.72 21.6921C119.905 21.1606 120 20.626 120 20.1049C120 19.8 119.969 19.4805 119.909 19.1543V19.1543Z" fill="#4A5161"/>
<path d="M102.706 17.575L104.234 13.4572L105.764 17.575H102.706ZM103.247 9.6969L97.8223 24.31H100.206L101.87 19.8257H106.598L108.264 24.31H110.647L105.222 9.6969H103.247V9.6969Z" fill="#4A5161"/>
<path d="M55.2491 20.147V9.6969H52.7159V24.3093H55.0589L61.8961 13.8592V24.3093H64.4287V9.6969H62.0864L55.2491 20.147Z" fill="#4A5161"/>
</svg>
