<svg width="70" height="40" viewBox="0 0 70 40" fill="none" xmlns="http://www.w3.org/2000/svg">
<g clip-path="url(#clip0_361_1796)">
<path d="M20.5575 17.7664C19.1219 16.3309 16.6523 15.5344 16.0164 15.377C16.0164 15.377 15.6181 15.2164 11.1573 13.7841C10.4411 13.5464 6.85378 12.6697 6.85378 9.48059C6.85378 6.37501 9.88228 5.33768 11.3949 5.33768C11.7129 5.33768 13.5467 5.1771 15.6984 6.77003C17.8502 8.36297 19.6808 13.3023 19.6808 13.3023H21.2737V4.13976H19.6808L18.4058 5.41475C16.7325 4.38063 14.1826 3.42358 11.077 3.42358C5.81965 3.42358 0.639404 6.13414 0.639404 11.7094C0.639404 17.2879 5.81965 19.4396 7.48967 19.9952C9.24318 20.5541 10.5985 20.9523 12.7502 21.7488C14.7414 22.3846 16.4949 23.5023 16.4949 26.0523C16.4949 28.6022 14.5037 29.6363 13.2287 29.8772C12.5125 30.0378 12.352 30.0378 12.8305 30.0378C12.9911 30.0378 19.1252 30.0378 19.1252 30.0378C19.1252 30.0378 20.0019 29.6396 20.8787 28.6022C21.7554 27.5681 22.8698 25.7343 22.8698 23.4252C22.8698 21.0358 21.9931 19.1217 20.5607 17.7696L20.5575 17.7664Z" fill="#5BBB24"/>
<path d="M10.0395 29.9574C9.16279 29.7969 8.5269 29.6395 7.80751 29.3215C6.85047 28.843 5.73606 28.0466 4.93959 27.1698C4.22341 26.3733 3.58431 25.4163 3.02871 24.3822C2.55019 23.5054 2.31253 22.7089 1.9143 21.9125H0.00341797V30.0377L10.0428 29.9574C10.123 30.0377 10.123 30.0377 10.0428 29.9574C10.123 29.9574 10.123 29.9574 10.0428 29.9574H10.0395Z" fill="#5BBB24"/>
<path d="M43.9794 36.8111C43.9794 34.8199 44.9364 33.0664 46.4491 32.0291H0.000244141V39.9969H44.9364C44.3005 39.1202 43.9794 38.0058 43.9794 36.8111ZM5.97375 33.1467H4.93641V34.1037H4.22024V34.9805H4.93641V37.3699C4.93641 38.0861 5.33465 38.4072 6.13112 38.4072C6.36877 38.4072 6.60964 38.4072 6.76701 38.3269H6.92758V37.3699L6.76701 37.4502C6.60643 37.4502 6.44906 37.5305 6.28848 37.5305C5.97054 37.5305 5.97054 37.4502 5.97054 37.2125V35.0608H6.92758V34.184H5.97054V33.1499L5.97375 33.1467ZM10.2772 34.0234C8.92196 34.0234 7.96492 34.9002 7.96492 36.2555C7.96492 37.6107 8.84167 38.4875 10.2772 38.4875C11.3917 38.4875 12.1881 37.9287 12.5093 37.0551L12.5896 36.8946H11.4719V36.9749C11.3114 37.3731 10.9131 37.5337 10.3575 37.5337C9.64135 37.5337 9.16283 37.1354 9.16283 36.5766H12.6699V36.2587C12.5896 34.9034 11.7128 34.0266 10.2805 34.0266L10.2772 34.0234ZM10.2772 34.9805C10.9131 34.9805 11.3114 35.2181 11.4719 35.7769H9.08254C9.24312 35.2181 9.64135 34.9805 10.2772 34.9805V34.9805ZM13.704 38.3269H14.7413V32.7484H13.704V38.3269ZM18.1648 34.0234C16.8096 34.0234 15.8557 34.9002 15.8557 36.2555C15.8557 37.6107 16.7325 38.4875 18.1648 38.4875C19.2793 38.4875 20.0757 37.9287 20.3969 37.0551L20.4772 36.8946H19.3628V36.9749C19.2022 37.3731 18.8039 37.5337 18.2451 37.5337C17.529 37.5337 17.0504 37.1354 17.0504 36.5766H20.5542V36.2587C20.3937 34.9034 19.5169 34.0266 18.1648 34.0266V34.0234ZM18.1648 34.9805C18.8039 34.9805 19.2022 35.2181 19.3595 35.7769H16.9701C17.1307 35.2181 17.529 34.9805 18.1648 34.9805ZM24.938 36.734C24.8577 37.2125 24.4595 37.5305 23.9039 37.5305C23.1074 37.5305 22.6289 37.0519 22.6289 36.2555C22.6289 35.459 23.1074 34.9805 23.9039 34.9805C24.3824 34.9805 24.7807 35.2181 24.8609 35.6164V35.6967H25.8951V35.5361C25.7345 34.579 24.938 34.0234 23.8236 34.0234C22.4683 34.0234 21.5113 34.9805 21.5113 36.2555C21.5113 37.6107 22.388 38.4875 23.7433 38.4875C24.8577 38.4875 25.6542 37.8516 25.8951 36.8143V36.6537H24.8609L24.9412 36.734H24.938ZM29.4792 34.0234C28.0436 34.0234 27.1668 34.9002 27.1668 36.2555C27.1668 37.6107 28.1239 38.4875 29.4792 38.4875C30.9115 38.4875 31.7883 37.6107 31.7883 36.2555C31.7883 34.9002 30.8312 34.0234 29.4792 34.0234ZM29.4792 37.5305C28.6827 37.5305 28.2042 37.0519 28.2042 36.2555C28.2042 35.459 28.6827 34.9805 29.4792 34.9805C30.2756 34.9805 30.7542 35.459 30.7542 36.2555C30.7542 37.0519 30.2756 37.5305 29.4792 37.5305ZM38.4812 34.0234C37.8453 34.0234 37.3668 34.2611 36.8882 34.7396C36.6506 34.2611 36.0918 34.0234 35.4527 34.0234C34.8939 34.0234 34.4153 34.184 34.0203 34.5822V34.1037H32.9862V38.3269H34.0203V36.1752C34.0203 35.3787 34.5791 34.9002 35.2953 34.9002C35.8541 34.9002 36.0918 35.1378 36.0918 35.9343V38.3237H37.0488V36.172C37.0488 35.3755 37.6076 34.897 38.3238 34.897C38.8826 34.897 39.1203 35.1346 39.1203 35.9311V38.3205H40.1576V35.9311C40.1576 35.0543 39.9167 34.0202 38.4844 34.0202L38.4812 34.0234Z" fill="#5BBB24"/>
<path d="M60.156 39.9967C59.9152 39.9967 59.6775 39.9165 59.4399 39.8362C58.7237 39.4379 58.4025 38.5612 58.8007 37.7647L64.4563 26.6912L58.8007 15.6178C58.4025 14.9016 58.7205 13.9446 59.4399 13.5463C60.156 13.1481 61.1131 13.466 61.5113 14.1822L67.488 25.9751C67.7289 26.3733 67.7289 26.9321 67.488 27.3303L61.5113 39.1232C61.1934 39.682 60.7148 40 60.156 40V39.9967Z" fill="#5BBB24"/>
<path d="M60.3938 24.1413C60.3938 24.1413 56.6491 16.8125 56.0903 15.6949C54.8153 13.1449 56.7262 13.3055 58.242 13.3055V11.7125H36.6507V13.3055C39.6792 13.3055 40.7133 13.9414 38.083 16.5716C36.0116 18.6431 32.5046 22.1501 32.5046 22.1501V1.43555L23.1814 1.83378V3.42672C23.1814 3.42672 24.5367 3.42672 25.4937 4.14289C26.2099 4.70171 26.2099 6.29464 26.2099 6.29464V30.0377H32.5046V25.018L34.8137 22.7057L40.071 29.9574H47.9586L39.4351 18.3252C39.4351 18.3252 39.5957 18.0072 41.5869 16.016C45.8904 11.7125 47.7209 13.0678 49.4745 16.4143C50.6692 18.7234 55.2906 27.886 56.8835 31.1521C56.9638 31.2324 55.8494 33.4645 54.5744 34.8968C53.5403 36.0915 52.8209 36.1718 52.7406 36.0112C52.6603 35.8539 52.503 35.6933 52.4227 35.5327C52.2621 35.295 52.1047 35.0542 51.8639 34.8165C50.5889 33.5415 48.5977 33.381 47.4801 34.5757C46.3657 35.6901 46.4459 37.6844 47.7209 38.9594C48.4371 39.6756 49.3139 39.9936 50.1906 39.9936C52.1818 39.9936 54.7318 39.9936 59.7515 29.9542L62.3817 24.7772L61.2673 22.5451L60.3905 24.1381L60.3938 24.1413Z" fill="white"/>
<path d="M62.3848 11.7126V13.3055C64.3759 13.3055 65.9689 13.3055 64.6971 15.6949L64.0612 16.9699L65.1756 19.2019L66.3703 16.8125C67.6453 14.3428 68.2812 13.2284 69.9544 13.2284V11.6355H62.3848V11.7158V11.7126Z" fill="white"/>
<path d="M41.2723 8.84466V8.12848H40.1579V3.82499C40.2382 3.58412 40.4758 3.42675 40.6364 3.26617C40.797 3.1056 41.0347 2.94823 41.1952 2.78765C41.5935 2.55 42.1523 2.38942 42.6308 2.30913C43.1093 2.22884 43.5879 2.30913 44.0664 2.46971C44.3843 2.63029 44.7023 2.78765 44.8628 3.18589C45.1005 3.66441 45.1808 4.14293 45.1808 4.69853V8.12527H44.2237H44.0632V8.84145H44.2237H48.5272H48.6878V8.12527H48.5272H47.4128V4.46088C47.4128 3.82499 47.3325 3.18589 47.0146 2.70736C46.6966 2.14855 46.2181 1.83061 45.6593 1.67324C45.0234 1.51266 44.3843 1.43237 43.7484 1.43237C43.1093 1.43237 42.5537 1.51266 41.9146 1.67324C41.5967 1.83382 41.2755 1.99118 40.9576 2.15176C40.6396 2.31234 40.3988 2.55 40.1611 2.86794V1.51266H36.7344V2.22884H38.0094V8.20556H36.7344V8.92174H41.2755V8.84145L41.2723 8.84466Z" fill="white"/>
<path d="M58.9583 7.96791C58.3995 8.52672 57.603 8.84466 56.8868 9.00203C56.0101 9.16261 55.1333 9.16261 54.2566 9.08232C52.6636 8.92174 50.9101 8.12527 50.3513 6.45205C50.1104 5.65558 50.1104 4.77882 50.3513 3.98236C50.589 3.34326 50.9872 2.70737 51.546 2.30913C52.1048 1.9109 52.821 1.67324 53.5372 1.51267C54.4139 1.35209 55.2907 1.35209 56.0872 1.43238C56.8836 1.51267 57.7604 1.75032 58.4766 2.38942C58.7945 2.63029 59.0354 2.94823 59.1124 3.34647C59.273 3.7447 59.273 4.22322 59.1927 4.62146C59.1927 4.85911 59.1124 5.09998 59.0322 5.25735H52.259C52.259 5.73587 52.4196 6.29147 52.6572 6.69292C52.8949 7.09115 53.3734 7.40909 53.7716 7.56967C54.2501 7.81054 54.7287 7.88762 55.2072 7.96791C55.6857 8.04819 56.2413 8.04819 56.7198 7.96791C57.2786 7.88762 57.8375 7.72704 58.3128 7.40909L58.9487 7.96791H58.9583ZM55.053 2.07148C54.3369 2.07148 53.6175 2.15177 53.1422 2.70737C52.6636 3.18589 52.5031 3.90207 52.426 4.61825H57.1277C57.208 3.98236 57.1277 3.26297 56.7295 2.70737C56.2509 2.14856 55.6151 2.07148 55.0562 2.07148H55.053Z" fill="white"/>
<path d="M62.3849 0V1.43236H60.6313V2.30911H62.3849V6.93055C62.3849 7.32878 62.4652 7.80731 62.7028 8.20554C62.9405 8.52349 63.2616 8.68406 63.5796 8.84464C64.0581 9.00522 64.5366 9.0823 65.0151 9.0823C65.5739 9.0823 66.1295 9.00201 66.6884 8.92172C67.2472 8.76114 67.8028 8.60377 68.2813 8.28583L67.7225 7.64673C67.6422 7.72702 67.5619 7.72702 67.4045 7.80731C67.1669 7.8876 66.926 8.04496 66.6081 8.12525C66.3704 8.20554 66.0493 8.20554 65.8116 8.20554C65.4134 8.20554 65.0151 8.12525 64.7775 7.72702C64.5398 7.40907 64.4595 6.93055 64.4595 6.53232V2.30911H67.5651V1.43236H64.4595V0H62.3881L62.3849 0Z" fill="white"/>
<path d="M5.97715 33.1434H4.93981V34.1005H4.22363V34.9772H4.93981V37.3666C4.93981 38.0828 5.33804 38.4008 6.13451 38.4008C6.37538 38.4008 6.61303 38.4008 6.77361 38.3205H6.93419V37.3634L6.77361 37.4437C6.61303 37.4437 6.45567 37.524 6.29509 37.524C5.97715 37.524 5.97715 37.4437 5.97715 37.2061V35.0543H6.93419V34.1776H5.97715V33.1434Z" fill="white"/>
<path d="M10.2774 34.0201C8.9221 34.0201 7.96826 34.8969 7.96826 36.2522C7.96826 37.6075 8.84502 38.4842 10.2774 38.4842C11.3918 38.4842 12.1883 37.9254 12.5094 37.0486L12.5897 36.8881H11.4753V36.9684C11.3147 37.3666 10.9165 37.5272 10.3609 37.5272C9.6447 37.5272 9.16617 37.1289 9.16617 36.5701H12.6732V36.2522C12.5929 34.8969 11.7162 34.0201 10.2838 34.0201H10.2774ZM10.2774 34.9772C10.9165 34.9772 11.3147 35.2181 11.4721 35.7737H9.08267C9.24325 35.2148 9.64149 34.9772 10.2774 34.9772V34.9772Z" fill="white"/>
<path d="M14.7414 32.7451H13.7041V38.3236H14.7414V32.7451Z" fill="white"/>
<path d="M18.1651 34.0201C16.8098 34.0201 15.8528 34.8969 15.8528 36.2522C15.8528 37.6075 16.7295 38.4842 18.1651 38.4842C19.2795 38.4842 20.076 37.9254 20.3971 37.0486L20.4774 36.8881H19.363V36.9684C19.2024 37.3666 18.8042 37.5272 18.2486 37.5272C17.5324 37.5272 17.0539 37.1289 17.0539 36.5701H20.5609V36.2522C20.4004 34.8969 19.5236 34.0201 18.1715 34.0201H18.1651ZM18.1651 34.9772C18.801 34.9772 19.1992 35.2181 19.3598 35.7737H16.9704C17.131 35.2148 17.5292 34.9772 18.1651 34.9772Z" fill="white"/>
<path d="M24.9382 36.7307C24.8579 37.2092 24.4597 37.5271 23.9009 37.5271C23.1044 37.5271 22.6259 37.0486 22.6259 36.2521C22.6259 35.4557 23.1044 34.9771 23.9009 34.9771C24.3794 34.9771 24.7776 35.218 24.8579 35.6162V35.6965H25.892V35.536C25.7315 34.5789 24.935 34.0233 23.8206 34.0233C22.4653 34.0233 21.5115 34.9804 21.5115 36.2553C21.5115 37.6106 22.3882 38.4874 23.7435 38.4874C24.8579 38.4874 25.6544 37.8483 25.8953 36.8142V36.6536H24.8611L24.9414 36.7339L24.9382 36.7307Z" fill="white"/>
<path d="M29.4793 34.0201C28.0438 34.0201 27.167 34.8969 27.167 36.2522C27.167 37.6075 28.124 38.4842 29.4793 38.4842C30.9117 38.4842 31.7884 37.6075 31.7884 36.2522C31.7884 34.8969 30.8314 34.0201 29.4793 34.0201ZM29.4793 37.524C28.6829 37.524 28.2043 37.0454 28.2043 36.249C28.2043 35.4525 28.6829 34.974 29.4793 34.974C30.2758 34.974 30.7543 35.4525 30.7543 36.249C30.7543 37.0454 30.2758 37.524 29.4793 37.524Z" fill="white"/>
<path d="M38.4845 34.0201C37.8486 34.0201 37.3701 34.2578 36.8916 34.7363C36.6539 34.2578 36.0951 34.0201 35.456 34.0201C34.8972 34.0201 34.4219 34.1807 34.0237 34.579V34.1004H32.9863V38.3236H34.0237V36.1719C34.0237 35.3754 34.5825 34.8969 35.2987 34.8969C35.8575 34.8969 36.0951 35.1378 36.0951 35.9342V38.3236H37.0522V36.1719C37.0522 35.3754 37.611 34.8969 38.3272 34.8969C38.886 34.8969 39.1236 35.1378 39.1236 35.9342V38.3236H40.1577V35.9342C40.1577 35.0575 39.9201 34.0234 38.4845 34.0234V34.0201Z" fill="white"/>
</g>
<defs>
<clipPath id="clip0_361_1796">
<rect width="70" height="40" fill="white"/>
</clipPath>
</defs>
</svg>
