<?xml version="1.0" encoding="UTF-8"?>
<!DOCTYPE svg PUBLIC "-//W3C//DTD SVG 1.1//EN" "http://www.w3.org/Graphics/SVG/1.1/DTD/svg11.dtd">
<!-- Creator: CorelDRAW 2021 (64-Bit) -->
<svg xmlns="http://www.w3.org/2000/svg" xml:space="preserve" width="142px" height="89px" version="1.1" shape-rendering="geometricPrecision" text-rendering="geometricPrecision" image-rendering="optimizeQuality" fill-rule="evenodd" clip-rule="evenodd"
viewBox="0 0 479000 298000"
 xmlns:xlink="http://www.w3.org/1999/xlink"
 xmlns:xodm="http://www.corel.com/coreldraw/odm/2003">
 <g id="Слой_x0020_1">
  <metadata id="CorelCorpID_0Corel-Layer"/>
  <path fill="#4A5161" d="M169000 72000c-18000,4000 -30000,-2000 -30000,-12000 -1000,-11000 11000,-22000 29000,-26000 17000,-4000 29000,1000 30000,12000 0,11000 -11000,22000 -29000,26000zm75000 109000l0 0c1000,-2000 0,-4000 -2000,-5000 0,-2000 -1000,-3000 -1000,-5000 0,0 0,0 0,0 0,-1000 0,-2000 -1000,-2000 -1000,-3000 -3000,-6000 -6000,-8000 0,0 0,0 0,0 -1000,-1000 -2000,-2000 -3000,-3000 -1000,-1000 -1000,-1000 -2000,-2000 0,0 -1000,0 -2000,0 -1000,-1000 -2000,-2000 -3000,-3000 -1000,0 -1000,0 -1000,0 -2000,-2000 -5000,-3000 -8000,-3000 0,-1000 -1000,-1000 -1000,-1000 -2000,0 -4000,-1000 -6000,-1000 0,0 0,0 -1000,-1000 -2000,0 -4000,0 -5000,0 -2000,0 -3000,0 -4000,0 0,-1000 0,-1000 0,-1000 1000,-1000 2000,-1000 2000,-1000 4000,-1000 7000,-3000 10000,-5000 0,0 1000,0 1000,0 0,-1000 1000,-1000 1000,-1000 2000,-1000 3000,-1000 4000,-2000 2000,-1000 3000,-2000 4000,-4000 5000,-4000 9000,-8000 11000,-13000 0,-1000 1000,-1000 1000,-1000 1000,-2000 2000,-5000 2000,-8000 0,-1000 0,-2000 -1000,-3000 0,0 0,-1000 0,-1000 -1000,-2000 -2000,-4000 -4000,-6000 -4000,-5000 -11000,-9000 -20000,-11000l0 0c-3000,-1000 -6000,-2000 -8000,-2000 -3000,-1000 -7000,0 -10000,0 0,0 -1000,0 -1000,0 -9000,0 -17000,1000 -24000,2000 0,0 0,0 -1000,0 -3000,1000 -7000,1000 -10000,3000 -1000,1000 -1000,1000 -2000,1000 -1000,1000 -1000,1000 -2000,2000 0,0 -1000,0 -1000,0 0,0 0,0 0,0 -6000,3000 -11000,7000 -14000,10000 0,1000 0,1000 0,1000 -2000,2000 -4000,3000 -6000,5000 0,0 0,0 0,1000 0,0 0,0 0,0 1000,2000 1000,3000 2000,4000 0,1000 0,2000 0,3000 0,1000 1000,1000 1000,2000 1000,2000 3000,4000 5000,6000 1000,1000 3000,1000 4000,0 1000,0 1000,0 1000,0 1000,0 1000,0 1000,0 2000,-1000 2000,-3000 3000,-5000 0,0 1000,-1000 1000,-1000 1000,-1000 2000,-2000 2000,-3000 2000,-2000 4000,-4000 7000,-7000 2000,0 3000,-1000 4000,-2000 1000,0 2000,0 3000,-1000 0,0 0,-1000 1000,-1000 6000,-4000 14000,-6000 23000,-6000 1000,0 1000,0 1000,0 1000,0 2000,0 3000,0 1000,0 2000,0 4000,0 1000,1000 2000,1000 3000,1000 3000,1000 5000,2000 7000,3000 1000,0 1000,1000 2000,1000 0,1000 0,1000 1000,1000 0,1000 1000,2000 1000,3000 0,0 1000,0 1000,1000 0,0 0,0 0,0 0,1000 1000,2000 1000,2000 0,1000 0,1000 0,1000 0,4000 -2000,8000 -6000,11000 -2000,2000 -4000,3000 -6000,5000 -1000,1000 -2000,1000 -2000,2000 -1000,0 -1000,0 -2000,0 -2000,-1000 -3000,2000 -5000,3000 -2000,1000 -4000,2000 -6000,2000 -1000,1000 -2000,1000 -4000,1000 0,0 0,1000 -1000,1000 -4000,1000 -9000,2000 -13000,3000 0,0 0,0 0,0 -1000,0 -1000,0 -2000,0 -1000,0 -3000,1000 -4000,1000 -1000,0 -1000,0 -2000,1000 0,0 -1000,-1000 -1000,0 -1000,0 -1000,0 -1000,0 -2000,1000 -2000,2000 -3000,4000 -1000,1000 -2000,2000 -2000,3000 -1000,1000 -1000,3000 -1000,5000 0,0 0,1000 0,2000 1000,1000 1000,1000 2000,1000 0,0 0,0 1000,0 0,0 1000,0 1000,0 0,0 0,0 0,0l0 0c0,0 0,0 1000,0 1000,-1000 3000,-1000 5000,-1000 1000,0 2000,0 3000,0 1000,0 1000,0 2000,-1000 1000,0 2000,0 3000,0 2000,0 4000,0 6000,-1000 0,0 0,0 0,0 2000,0 4000,0 5000,0 1000,0 1000,0 1000,0 1000,0 2000,0 3000,0 0,0 0,0 1000,0 0,1000 1000,1000 2000,1000 1000,0 1000,0 2000,0 1000,1000 2000,1000 3000,1000 1000,-1000 1000,-1000 1000,-1000 3000,1000 6000,1000 8000,2000l0 0c0,0 0,0 0,0 1000,0 2000,1000 2000,1000 1000,0 1000,0 1000,0 0,0 0,1000 1000,1000 0,0 0,0 0,0 2000,1000 4000,2000 5000,3000 1000,1000 3000,1000 4000,3000 0,0 0,0 0,0 5000,4000 8000,11000 8000,20000 0,1000 0,1000 0,2000 -2000,0 -4000,2000 -6000,2000 -7000,2000 -14000,3000 -21000,2000 -1000,0 -2000,-1000 -2000,-1000 -1000,-1000 -2000,-2000 -3000,-2000 -1000,-1000 -2000,-1000 -4000,-1000 -1000,0 -1000,1000 -2000,1000 -1000,0 -1000,0 -2000,1000 0,0 0,1000 0,1000 0,4000 2000,8000 6000,10000 0,0 0,0 0,0 3000,1000 5000,3000 9000,3000 0,1000 1000,1000 1000,1000 1000,0 1000,0 2000,0 0,0 1000,0 1000,0 2000,0 4000,1000 6000,1000 1000,0 1000,-1000 2000,-1000 0,0 0,0 0,0 0,1000 1000,1000 1000,0 3000,0 6000,0 9000,-1000 -1000,3000 -2000,5000 -3000,8000l0 0c-2000,2000 -3000,4000 -4000,6000 -1000,0 -1000,1000 -2000,1000 0,1000 -1000,1000 -1000,1000 -1000,1000 -1000,1000 -1000,2000 -2000,2000 -3000,5000 -6000,7000 0,0 0,0 0,0 -1000,1000 -2000,2000 -2000,2000 -1000,0 -2000,1000 -2000,1000 -1000,1000 -1000,1000 -2000,2000 -1000,1000 -3000,2000 -4000,3000 -2000,1000 -3000,2000 -5000,3000 -2000,1000 -4000,2000 -6000,3000 -2000,0 -4000,1000 -6000,1000 -1000,1000 -2000,2000 -3000,2000 -1000,0 -1000,1000 -2000,1000 -3000,1000 -6000,1000 -9000,2000 -3000,0 -7000,0 -10000,0 -1000,0 -2000,0 -2000,0 -1000,0 -1000,1000 -2000,1000 0,0 0,0 0,0 -5000,0 -9000,-1000 -13000,-2000 0,0 0,0 0,0 -4000,-1000 -6000,0 -7000,-1000 -1000,0 0,-1000 -1000,-2000 -1000,-1000 -2000,0 -3000,-2000 -1000,-1000 -1000,-2000 -2000,-2000 -2000,0 -4000,1000 -5000,-1000 0,-1000 1000,-2000 0,-3000 0,-1000 -1000,-3000 -2000,-3000 0,-1000 1000,-1000 1000,-2000 0,0 0,0 -1000,0 -1000,-1000 0,-2000 -1000,-3000 0,0 -1000,-1000 -2000,-2000 0,-2000 2000,-3000 3000,-4000 0,-1000 0,-2000 0,-2000 -1000,-2000 -4000,-2000 -2000,-5000 1000,-2000 3000,-4000 4000,-5000 5000,-13000 18000,-20000 29000,-23000 0,-1000 1000,-1000 1000,-1000 -3000,-3000 -5000,-8000 -6000,-8000 0,-1000 -5000,-5000 -6000,-5000 -3000,0 -4000,-1000 -8000,0 0,-1000 -1000,-1000 -1000,-2000 -1000,0 -2000,0 -2000,0 -3000,0 -5000,0 -7000,1000 -1000,0 -2000,0 -2000,0 -2000,0 -3000,1000 -5000,1000 0,0 0,0 -1000,0 0,0 -1000,1000 -2000,1000 -2000,0 -4000,1000 -5000,2000 -2000,0 -3000,2000 -5000,3000 -2000,1000 -5000,3000 -8000,4000 0,0 0,1000 -1000,1000 0,0 0,0 0,1000 0,0 0,0 0,0 -1000,1000 -2000,1000 -2000,2000 -3000,4000 -7000,9000 -9000,17000 0,1000 -1000,2000 -1000,3000 0,1000 0,1000 0,1000 0,0 0,1000 0,2000 0,0 0,0 0,0l0 0c0,2000 -1000,4000 -1000,6000 0,2000 1000,4000 1000,6000 0,1000 0,2000 0,3000 0,0 0,0 0,0 1000,2000 1000,4000 2000,5000 0,3000 1000,6000 3000,8000 0,1000 1000,1000 1000,1000 1000,3000 3000,5000 5000,7000 0,0 0,0 0,0 0,0 0,0 0,0 11000,11000 27000,17000 49000,18000 1000,1000 2000,1000 4000,2000 0,0 1000,0 1000,0l3000 0c1000,0 2000,0 3000,0 1000,-1000 1000,-1000 2000,-1000 1000,0 1000,-1000 1000,-1000 1000,0 2000,0 2000,0 3000,0 6000,1000 8000,0 0,0 1000,-1000 1000,-1000 3000,0 5000,-1000 8000,-1000 3000,0 6000,-1000 9000,-1000 1000,0 2000,-1000 3000,-1000 0,0 1000,0 2000,-1000 2000,-1000 5000,-2000 7000,-3000 1000,-1000 1000,-1000 2000,-2000 0,0 0,0 0,0 1000,0 1000,0 2000,0 1000,0 2000,-1000 3000,-1000 2000,-2000 5000,-3000 7000,-4000 1000,-1000 2000,-1000 3000,-2000 2000,-1000 4000,-3000 6000,-5000 1000,0 2000,-1000 3000,-2000 2000,-2000 4000,-4000 6000,-6000 2000,-2000 4000,-3000 6000,-5000 1000,-1000 2000,-2000 3000,-3000 0,-1000 0,-1000 1000,-2000 0,-1000 1000,-1000 1000,-2000 2000,-2000 3000,-4000 4000,-6000 1000,-2000 2000,-4000 3000,-6000 1000,-2000 1000,-4000 2000,-6000 0,-1000 0,-1000 1000,-1000 1000,-3000 2000,-5000 2000,-8000 2000,0 3000,-1000 5000,-2000 5000,-2000 9000,-5000 13000,-8000 2000,-1000 3000,-2000 5000,-4000 4000,-2000 8000,-5000 11000,-8000 1000,1000 2000,2000 2000,3000 0,0 0,0 0,0 1000,2000 2000,3000 3000,4000 0,1000 1000,2000 2000,2000 0,0 0,1000 0,1000 2000,1000 3000,3000 5000,4000 0,1000 1000,2000 2000,3000 1000,1000 3000,2000 4000,2000 1000,0 2000,0 2000,0 3000,1000 5000,2000 8000,2000 1000,0 1000,0 2000,-1000 -1000,1000 -1000,2000 -1000,3000 0,0 -1000,1000 -1000,1000 -2000,4000 -3000,7000 -5000,10000 0,0 0,0 0,0 -2000,3000 -4000,6000 -5000,9000 0,0 0,1000 0,2000 -2000,2000 -3000,4000 -4000,7000 -1000,1000 -1000,2000 -2000,3000 0,0 -1000,1000 -1000,2000 0,0 0,1000 -1000,2000 0,2000 -1000,3000 -2000,5000 0,0 -1000,1000 -1000,2000 -1000,2000 -2000,4000 -2000,6000 -1000,3000 -2000,5000 -3000,8000 0,1000 -1000,2000 -1000,3000 0,2000 0,3000 1000,5000 0,1000 0,1000 0,1000 0,1000 1000,1000 1000,1000 1000,2000 2000,3000 4000,4000 0,0 0,0 0,1000 1000,0 2000,0 4000,0 0,0 0,-1000 0,-1000 0,-1000 0,-1000 0,-1000 2000,-4000 3000,-7000 5000,-11000 1000,-2000 2000,-4000 3000,-6000 0,-1000 0,-2000 1000,-4000 1000,-3000 3000,-7000 5000,-11000 1000,-1000 2000,-2000 2000,-3000 1000,-2000 2000,-3000 2000,-5000 2000,-4000 4000,-7000 6000,-11000 1000,-2000 3000,-3000 4000,-5000 1000,-2000 1000,-4000 2000,-6000 2000,-2000 3000,-5000 5000,-7000 3000,-5000 6000,-10000 9000,-15000 0,-1000 1000,-2000 1000,-3000 1000,1000 2000,2000 3000,2000 2000,4000 5000,6000 9000,7000l0 0c2000,1000 3000,2000 4000,3000 1000,0 2000,1000 2000,1000 1000,1000 2000,2000 3000,2000 0,1000 1000,1000 2000,1000 1000,1000 1000,2000 2000,3000 0,0 1000,0 1000,0 1000,0 2000,0 3000,0 1000,0 2000,1000 3000,1000 0,1000 1000,1000 1000,1000 2000,0 3000,0 5000,1000 2000,0 4000,1000 6000,1000 1000,1000 3000,1000 5000,1000 0,1000 1000,1000 2000,1000 1000,1000 3000,1000 5000,1000 0,0 1000,-1000 2000,-1000 6000,-1000 16000,-2000 23000,-2000 1000,0 1000,-1000 2000,-1000 3000,-1000 6000,-2000 7000,-3000 21000,-10000 28000,-29000 28000,-36000 0,-2000 0,-4000 -1000,-5000 0,-1000 -3000,-1000 -3000,0 0,0 0,0 0,0 -3000,6000 -9000,16000 -21000,23000 0,0 0,0 -1000,0 0,0 0,0 0,0 -1000,1000 -2000,2000 -4000,2000 0,0 -1000,0 -2000,0 0,1000 -1000,1000 -1000,1000 -1000,0 -1000,0 -2000,0 -1000,0 -3000,1000 -4000,1000 -2000,0 -3000,-1000 -5000,0 -1000,0 -2000,1000 -3000,1000 0,0 -1000,0 -1000,0 -2000,0 -4000,-1000 -7000,-1000 0,0 -1000,0 -1000,0 -17000,-3000 -29000,-13000 -35000,-20000 8000,-1000 17000,-3000 25000,-6000 1000,0 3000,0 4000,-1000 2000,-1000 5000,-2000 7000,-3000 2000,0 3000,0 3000,-1000 1000,0 1000,0 1000,-1000 1000,0 2000,0 2000,-1000 0,1000 1000,1000 1000,1000 1000,-1000 2000,-1000 3000,-1000 0,-1000 1000,-1000 1000,-1000 1000,0 1000,0 2000,-1000 1000,-1000 3000,-2000 4000,-3000 0,0 0,-1000 0,-1000 2000,-1000 3000,-2000 5000,-3000 0,0 1000,0 2000,-1000 0,-1000 2000,-1000 2000,-2000 0,0 0,-1000 0,-1000 6000,-5000 9000,-11000 9000,-17000 0,-7000 -4000,-11000 -7000,-13000 -2000,-2000 -4000,-1000 -5000,0l0 0c-1000,1000 -3000,2000 -4000,3000 -1000,1000 -1000,2000 -2000,2000 -2000,2000 -3000,4000 -5000,6000 -1000,1000 -1000,2000 -2000,3000 -1000,0 -1000,1000 -2000,2000 -3000,2000 -5000,5000 -8000,7000 -1000,0 -2000,1000 -3000,1000 0,0 -1000,1000 -1000,2000 -1000,0 -1000,0 -1000,0 0,1000 -1000,1000 -1000,1000 -1000,0 -1000,1000 -2000,1000 -1000,1000 -2000,2000 -4000,3000 0,0 -1000,0 -1000,0 0,1000 -1000,1000 -2000,2000l0 0c-10000,7000 -22000,12000 -33000,14000 3000,-4000 5000,-7000 7000,-10000 0,-1000 0,-1000 1000,-1000 0,-1000 1000,-1000 1000,-2000 1000,-1000 1000,-1000 1000,-2000 0,0 0,0 0,-1000 2000,-2000 4000,-5000 5000,-8000 1000,-1000 1000,-1000 2000,-2000 1000,-2000 3000,-5000 5000,-7000 2000,-4000 4000,-9000 7000,-13000 1000,-2000 2000,-4000 3000,-6000 1000,-2000 2000,-3000 2000,-5000 2000,-2000 4000,-5000 4000,-7000 2000,-3000 2000,-5000 3000,-7000 1000,0 1000,0 1000,0 0,0 0,0 0,-1000 0,-1000 1000,-2000 1000,-3000 0,-1000 1000,-1000 1000,-2000 1000,-1000 1000,-2000 1000,-3000 0,-3000 1000,-5000 1000,-7000 0,-2000 0,-4000 -1000,-5000 0,0 0,0 0,-1000 0,-2000 -2000,-4000 -3000,-5000 -2000,-3000 -5000,-4000 -7000,-5000l0 0c0,0 0,0 0,0 -1000,0 -1000,0 -1000,0 -1000,0 -1000,0 -2000,0 0,0 -1000,-1000 -1000,-1000 -1000,0 -1000,0 -2000,0 -1000,0 -1000,1000 -1000,1000 -1000,1000 -2000,2000 -2000,3000 0,1000 0,2000 0,2000 1000,2000 0,4000 0,5000 -1000,3000 -3000,6000 -4000,9000 -1000,1000 -1000,1000 -1000,2000 0,1000 0,1000 -1000,2000 0,0 0,1000 0,1000 -1000,1000 0,2000 0,3000 -1000,2000 -3000,5000 -4000,7000 0,1000 -1000,1000 -1000,2000 -1000,1000 -1000,1000 -1000,1000 -1000,1000 -1000,2000 -1000,3000 -2000,4000 -4000,8000 -6000,11000 -1000,2000 -2000,4000 -3000,6000 0,2000 -1000,3000 -2000,5000 -1000,1000 -1000,2000 -2000,2000 0,2000 -1000,3000 -1000,5000 0,0 0,1000 -1000,1000 0,1000 0,1000 -1000,2000 -2000,3000 -4000,6000 -5000,9000 0,1000 -1000,1000 -1000,2000 -2000,4000 -4000,8000 -6000,11000 -2000,3000 -4000,6000 -6000,10000 -1000,2000 -2000,4000 -2000,6000 -2000,3000 -3000,5000 -4000,7000 -2000,2000 -4000,4000 -5000,7000 0,2000 -1000,3000 -1000,4000l-3000 6000c-8000,-4000 -13000,-12000 -17000,-23000 0,-1000 -1000,-3000 -1000,-5000 2000,-1000 3000,-3000 5000,-5000 2000,-2000 3000,-2000 5000,-4000 1000,-1000 1000,-2000 2000,-3000 6000,-7000 12000,-14000 16000,-20000 2000,-2000 4000,-4000 5000,-6000 2000,-3000 4000,-6000 5000,-9000 2000,-4000 4000,-7000 4000,-9000 0,-4000 -3000,-7000 -5000,-8000 0,-1000 0,-1000 -1000,-1000 0,-1000 -1000,-2000 -2000,-2000 -1000,-1000 -1000,-1000 -1000,-1000 -1000,0 -2000,1000 -2000,2000 0,0 0,1000 0,2000 0,1000 0,3000 -1000,4000 -2000,3000 -3000,6000 -5000,9000 0,1000 -1000,2000 -2000,4000 -1000,2000 -3000,5000 -5000,7000 -1000,1000 -1000,1000 -2000,1000 -3000,5000 -7000,10000 -10000,14000 -1000,1000 -2000,2000 -3000,3000 -3000,3000 -6000,5000 -8000,8000 0,0 -1000,-1000 -1000,-2000 -1000,-3000 -2000,-6000 -3000,-9000 0,-1000 0,-1000 0,-1000 0,-2000 0,-3000 -1000,-4000 0,-1000 0,-2000 -1000,-2000 0,-2000 -1000,-3000 -1000,-5000 0,0 0,0 0,0 -1000,-5000 -4000,-9000 -6000,-14000 -1000,-1000 -2000,-3000 -4000,-4000 -2000,-3000 -6000,-5000 -10000,-5000 -4000,0 -8000,1000 -11000,2000 -1000,1000 -1000,1000 -1000,2000 -1000,2000 -1000,3000 -1000,4000 0,0 0,1000 1000,1000 0,1000 2000,1000 3000,1000 0,0 0,0 0,0 0,0 0,0 0,0 0,1000 0,2000 1000,2000 0,0 0,1000 0,1000 0,0 0,0 0,1000 1000,0 1000,0 1000,1000 0,0 1000,1000 1000,1000 1000,1000 1000,3000 1000,4000 1000,1000 1000,2000 1000,3000 0,0 0,1000 0,1000 0,1000 1000,2000 1000,3000 0,0 0,1000 0,1000 1000,1000 1000,1000 1000,1000 1000,2000 1000,3000 2000,5000 1000,1000 1000,2000 1000,3000 0,0 0,0 0,1000 0,0 0,0 0,1000 1000,1000 0,2000 1000,3000 0,1000 0,1000 1000,1000 0,0 0,1000 0,1000 0,1000 1000,1000 1000,2000 1000,2000 1000,4000 2000,6000 0,1000 0,2000 0,3000 1000,1000 2000,2000 2000,4000 1000,1000 1000,2000 1000,3000 0,0 0,0 0,0 0,0 0,0 -1000,0 0,0 -1000,1000 -1000,1000 -3000,2000 -6000,4000 -9000,7000 0,0 -1000,1000 -2000,2000 -5000,3000 -10000,6000 -15000,8000zm5000 -181000c-69000,0 -128000,15000 -145000,56000 -14000,32000 -34000,32000 -62000,45000 -25000,12000 -42000,34000 -42000,68000 0,73000 81000,129000 213000,129000 142000,0 266000,-63000 266000,-168000 0,-56000 -54000,-130000 -230000,-130000z"/>
 </g>
</svg>
