<svg width="70" height="40" viewBox="0 0 70 40" fill="none" xmlns="http://www.w3.org/2000/svg">
<path d="M20.5578 17.769C19.1235 16.3348 16.6534 15.5379 16.0159 15.3786C16.0159 15.3786 15.6175 15.2192 11.1554 13.785C10.4382 13.5459 6.85259 12.6694 6.85259 9.48217C6.85259 6.3746 9.88048 5.33874 11.3944 5.33874C11.7131 5.33874 13.5458 5.17938 15.6972 6.773C17.8486 8.36663 19.6813 13.3069 19.6813 13.3069H21.2749V4.14352H19.6813L18.4064 5.41842C16.7331 4.38257 14.1833 3.42639 11.0757 3.42639C5.81673 3.42639 0.637451 6.13555 0.637451 11.7132C0.637451 17.2909 5.81673 19.4423 7.49004 20.0001C9.24303 20.5579 10.5976 20.9563 12.749 21.7531C14.741 22.3905 16.494 23.5061 16.494 26.0559C16.494 28.6057 14.502 29.6415 13.2271 29.8806C12.51 30.0399 12.3506 30.0399 12.8287 30.0399C12.988 30.0399 19.1235 30.0399 19.1235 30.0399C19.1235 30.0399 20 29.6415 20.8765 28.6057C21.753 27.5698 22.8685 25.7371 22.8685 23.4264C22.8685 21.036 21.992 19.1236 20.5578 17.769Z" fill="#4A5161"/>
<path d="M10.0398 29.9602C9.16335 29.8008 8.5259 29.6414 7.80877 29.3227C6.85259 28.8446 5.73705 28.0478 4.94024 27.1713C4.22311 26.3745 3.58566 25.4183 3.02789 24.3825C2.5498 23.506 2.31076 22.7092 1.91235 21.9124H0V30.0398L10.0398 29.9602C10.1195 30.0398 10.1195 30.0398 10.0398 29.9602C10.1195 29.9602 10.1195 29.9602 10.0398 29.9602Z" fill="#4A5161"/>
<path d="M60.1595 40.0001C59.9204 40.0001 59.6814 39.9204 59.4424 39.8407C58.7252 39.4423 58.4065 38.5658 58.8049 37.769L64.4623 26.6933L58.8049 15.6176C58.4065 14.9005 58.7252 13.9443 59.4424 13.5459C60.1595 13.1475 61.1157 13.4662 61.5141 14.1833L67.4902 25.9762C67.7292 26.3746 67.7292 26.9323 67.4902 27.3307L61.5141 39.1236C61.1953 39.6813 60.7173 40.0001 60.1595 40.0001Z" fill="#4A5161"/>
<path d="M29.4819 34.98C28.6851 34.98 28.207 35.4581 28.207 36.2549C28.207 37.0517 28.6851 37.5298 29.4819 37.5298C30.2787 37.5298 30.7568 37.0517 30.7568 36.2549C30.7568 35.4581 30.2787 34.98 29.4819 34.98Z" fill="#4A5161"/>
<path d="M18.1674 34.98C17.5299 34.98 17.1315 35.219 16.9722 35.7768H19.3626C19.2032 35.219 18.8048 34.98 18.1674 34.98Z" fill="#4A5161"/>
<path d="M10.2787 34.98C9.64127 34.98 9.24286 35.219 9.0835 35.7768H11.4739C11.3146 35.219 10.9162 34.98 10.2787 34.98Z" fill="#4A5161"/>
<path d="M46.4542 32.0319H0V40H44.9402C44.3028 39.1235 43.9841 38.008 43.9841 36.8127C43.9841 34.8207 44.9402 33.0677 46.4542 32.0319ZM6.93227 35.0597H5.9761V37.2111C5.9761 37.4502 5.9761 37.5299 6.29482 37.5299C6.45418 37.5299 6.61355 37.4502 6.77291 37.4502L6.93227 37.3705V38.3267H6.77291C6.61355 38.4064 6.3745 38.4064 6.13546 38.4064C5.33865 38.4064 4.94024 38.0876 4.94024 37.3705V34.9801H4.22311V34.1036H4.94024V33.1474H5.9761V34.1833H6.93227V35.0597ZM12.6693 36.5737H9.16335C9.16335 37.1315 9.64143 37.5299 10.3586 37.5299C10.9163 37.5299 11.3147 37.3705 11.4741 36.9721V36.8924H12.5896L12.51 37.0518C12.1912 37.9283 11.3944 38.486 10.2789 38.486C8.84462 38.486 7.96813 37.6095 7.96813 36.255C7.96813 34.9004 8.9243 34.0239 10.2789 34.0239C11.7131 34.0239 12.5896 34.9004 12.6693 36.255V36.5737ZM14.741 38.3267H13.7052V32.749H14.741V38.3267ZM20.5578 36.5737H17.0518C17.0518 37.1315 17.5299 37.5299 18.247 37.5299C18.8048 37.5299 19.2032 37.3705 19.3625 36.9721V36.8924H20.4781L20.3984 37.0518C20.0797 37.9283 19.2829 38.486 18.1673 38.486C16.7331 38.486 15.8566 37.6095 15.8566 36.255C15.8566 34.9004 16.8127 34.0239 18.1673 34.0239C19.5219 34.0239 20.3984 34.9004 20.5578 36.255V36.5737V36.5737ZM25.8964 35.6972H24.8606V35.6175C24.7809 35.2191 24.3825 34.9801 23.9044 34.9801C23.1076 34.9801 22.6295 35.4582 22.6295 36.255C22.6295 37.0518 23.1076 37.5299 23.9044 37.5299C24.4622 37.5299 24.8606 37.2111 24.9402 36.7331L24.8606 36.6534H25.8964V36.8127C25.6574 37.8486 24.8606 38.486 23.745 38.486C22.3904 38.486 21.5139 37.6095 21.5139 36.255C21.5139 34.9801 22.4701 34.0239 23.8247 34.0239C24.9402 34.0239 25.7371 34.5817 25.8964 35.5378V35.6972ZM29.4821 38.486C28.1275 38.486 27.1713 37.6095 27.1713 36.255C27.1713 34.9004 28.0478 34.0239 29.4821 34.0239C30.8367 34.0239 31.7928 34.9004 31.7928 36.255C31.7928 37.6095 30.9163 38.486 29.4821 38.486ZM40.1594 38.3267H39.1235V35.9362C39.1235 35.1394 38.8845 34.9004 38.3267 34.9004C37.6096 34.9004 37.0518 35.3785 37.0518 36.1753V38.3267H36.0956V35.9362C36.0956 35.1394 35.8566 34.9004 35.2988 34.9004C34.5817 34.9004 34.0239 35.3785 34.0239 36.1753V38.3267H32.988V34.1036H34.0239V34.5817C34.4223 34.1833 34.9004 34.0239 35.4582 34.0239C36.0956 34.0239 36.6534 34.2629 36.8924 34.741C37.3705 34.2629 37.8486 34.0239 38.4861 34.0239C39.9203 34.0239 40.1594 35.0598 40.1594 35.9362V38.3267V38.3267Z" fill="#4A5161"/>
<path d="M60.3984 24.1435C60.3984 24.1435 56.6534 16.8128 56.0956 15.6973C54.8207 13.1475 56.7331 13.3068 58.247 13.3068V11.7132H36.6534V13.3068C39.6813 13.3068 40.7171 13.9443 38.0877 16.5738C36.0159 18.6455 32.51 22.1515 32.51 22.1515V1.43433L23.1873 1.83273V3.42636C23.1873 3.42636 24.5418 3.42636 25.498 4.14349C26.2151 4.70126 26.2151 6.29488 26.2151 6.29488V30.0399H32.51V25.02L34.8207 22.7092L40.0797 29.9602H47.9681L39.4422 18.3268C39.4422 18.3268 39.6016 18.008 41.5936 16.016C45.8964 11.7132 47.7291 13.0678 49.4821 16.4144C50.6773 18.7252 55.2988 27.8885 56.8924 31.1554C56.9721 31.2351 55.8566 33.4662 54.5817 34.9005C53.5458 36.0957 52.8287 36.1754 52.749 36.016C52.6693 35.8566 52.51 35.6973 52.4303 35.5379C52.2709 35.2989 52.1116 35.0598 51.8725 34.8208C50.5976 33.5459 48.6056 33.3865 47.49 34.5817C46.3745 35.6973 46.4542 37.6893 47.7291 38.9642C48.4462 39.6813 49.3227 40.0001 50.1992 40.0001C52.1912 40.0001 54.741 40.0001 59.761 29.9602L62.3905 24.7809L61.2749 22.5499L60.3984 24.1435Z" fill="#4A5161"/>
<path d="M62.3904 11.7132V13.3069C64.3824 13.3069 65.976 13.3069 64.7011 15.6973L64.0637 16.9722L65.1792 19.2033L66.3744 16.8128C67.6493 14.3427 68.2868 13.2272 69.9601 13.2272V11.6335H62.3904V11.7132V11.7132Z" fill="#4A5161"/>
<path d="M41.275 8.84468V8.12755H40.1595V3.82476C40.2391 3.58572 40.4782 3.42636 40.6375 3.26699C40.7969 3.10763 41.0359 2.94827 41.1953 2.78891C41.5937 2.54986 42.1515 2.3905 42.6296 2.31082C43.1077 2.23114 43.5857 2.31082 44.0638 2.47018C44.3826 2.62954 44.7013 2.78891 44.8606 3.18731C45.0997 3.6654 45.1794 4.14349 45.1794 4.70126V8.12755H44.2232H44.0638V8.84468H44.2232H48.526H48.6853V8.12755H48.526H47.4104V4.46221C47.4104 3.82476 47.3308 3.18731 47.012 2.70923C46.6933 2.15146 46.2152 1.83273 45.6575 1.67337C45.02 1.51401 44.3826 1.43433 43.7451 1.43433C43.1077 1.43433 42.5499 1.51401 41.9124 1.67337C41.5937 1.83273 41.275 1.99209 40.9563 2.15146C40.6375 2.31082 40.3985 2.54986 40.1595 2.86859V1.51401H36.7332V2.23114H38.0081V8.20723H36.7332V8.92437H41.275V8.84468V8.84468Z" fill="#4A5161"/>
<path d="M58.9643 7.96828C58.4065 8.52605 57.6097 8.84478 56.8926 9.00414C56.0161 9.1635 55.1396 9.1635 54.2631 9.08382C52.6695 8.92446 50.9165 8.12765 50.3587 6.45434C50.1197 5.65753 50.1197 4.78103 50.3587 3.98422C50.5978 3.34677 50.9962 2.70932 51.5539 2.31091C52.1117 1.91251 52.8288 1.67346 53.546 1.5141C54.4225 1.35474 55.299 1.35474 56.0958 1.43442C56.8926 1.5141 57.7691 1.75314 58.4862 2.39059C58.8049 2.62964 59.044 2.94836 59.1237 3.34677C59.283 3.74518 59.283 4.22326 59.2033 4.62167C59.2033 4.86071 59.1237 5.09976 59.044 5.25912H52.2711C52.2711 5.73721 52.4304 6.29498 52.6695 6.69338C52.9085 7.09179 53.3866 7.41051 53.785 7.56988C54.2631 7.80892 54.7412 7.8886 55.2193 7.96828C55.6974 8.04796 56.2551 8.04796 56.7332 7.96828C57.291 7.8886 57.8488 7.72924 58.3269 7.41051L58.9643 7.96828ZM55.0599 2.07187C54.3428 2.07187 53.6257 2.15155 53.1476 2.70932C52.6695 3.18741 52.5101 3.90454 52.4304 4.62167H57.1316C57.2113 3.98422 57.1316 3.26709 56.7332 2.70932C56.2551 2.15155 55.6177 2.07187 55.0599 2.07187Z" fill="#4A5161"/>
<path d="M62.3904 0V1.43426H60.6375V2.31076H62.3904V6.93227C62.3904 7.33068 62.4701 7.80877 62.7092 8.20717C62.9482 8.5259 63.2669 8.68526 63.5857 8.84462C64.0637 9.00398 64.5418 9.08367 65.0199 9.08367C65.5777 9.08367 66.1355 9.00398 66.6932 8.9243C67.251 8.76494 67.8088 8.60558 68.2869 8.28685L67.7291 7.6494C67.6494 7.72908 67.5697 7.72908 67.4104 7.80877C67.1713 7.88845 66.9323 8.04781 66.6135 8.12749C66.3745 8.20717 66.0558 8.20717 65.8167 8.20717C65.4183 8.20717 65.0199 8.12749 64.7809 7.72908C64.5418 7.41036 64.4622 6.93227 64.4622 6.53386V2.31076H67.5697V1.43426H64.4622V0C64.4622 0 62.3904 0 62.3904 0Z" fill="#4A5161"/>
</svg>
