<svg width="120" height="30" viewBox="0 0 120 30" fill="none" xmlns="http://www.w3.org/2000/svg">
<path d="M105.387 29.3331H14.6129C6.57676 29.3331 0 22.7361 0 14.6696C0 6.60005 6.57676 0 14.6129 0H105.387C113.423 0 120 6.60106 120 14.6696C120 22.7361 113.423 29.3331 105.387 29.3331Z" fill="#FEFEFE"/>
<path d="M90.1816 14.6686C90.1816 10.0748 92.1514 6.01573 95.3527 3.21651C95.536 3.05447 95.4054 2.83167 95.2768 2.83167H14.6117C8.09978 2.83167 2.81934 8.13135 2.81934 14.6696C2.81934 21.2089 8.09978 26.5076 14.6117 26.5076H95.2231C95.3547 26.5076 95.5492 26.3 95.299 26.0843C92.1605 23.2911 90.1827 19.2118 90.1827 14.6696L90.1816 14.6686Z" fill="#2B2A29"/>
<path d="M59.8856 9.19069C59.8856 9.63022 59.5281 9.98468 59.0886 9.98468H57.8621C57.4226 9.98468 57.0671 9.6292 57.0671 9.19069V8.24276C57.0671 7.80323 57.4236 7.44775 57.8621 7.44775H59.0886C59.5281 7.44775 59.8856 7.80424 59.8856 8.24276V9.19069Z" fill="#FEFEFE"/>
<path d="M53.7828 8.27523C53.7828 7.8357 53.4729 7.48022 53.0334 7.48022H51.7614C51.3188 7.48022 50.9644 7.83671 50.9644 8.27523V21.0074C50.9644 21.447 51.3188 21.8024 51.7614 21.8024H52.9878C53.4273 21.8024 53.7828 21.447 53.7828 21.0074V8.27523V8.27523Z" fill="#FEFEFE"/>
<path d="M77.6693 15.1477C77.7372 14.4661 77.9843 13.9486 78.4066 13.5962C78.835 13.2397 79.3393 13.0655 79.9176 13.0655C80.2842 13.0655 80.5941 13.1253 80.8534 13.2488C81.1066 13.3704 81.3193 13.5344 81.4884 13.739C81.6555 13.9436 81.7821 14.1674 81.8661 14.4155C81.9471 14.6576 81.9877 14.9026 81.9877 15.1477H77.6693ZM84.798 15.8931C84.7504 14.3446 84.316 13.1405 83.4967 12.2867C82.6267 11.3753 81.4529 10.9205 79.9814 10.9205C79.0629 10.9205 78.2699 11.0795 77.6005 11.4036C76.932 11.7267 76.3801 12.1551 75.9456 12.6807C75.5142 13.2063 75.1992 13.8089 74.9947 14.4905C74.7952 15.172 74.6929 15.8708 74.6929 16.5838C74.6929 17.5135 74.8184 18.3217 75.0747 19.0012C75.3329 19.6828 75.6965 20.2459 76.1684 20.6905C76.6434 21.1371 77.2217 21.4662 77.9043 21.6819C78.5848 21.8977 79.3454 22.005 80.186 22.005C80.7622 22.005 81.3547 21.9361 81.9553 21.7923C82.1527 21.7468 82.336 21.6921 82.5163 21.6303C82.5953 21.609 82.7077 21.5705 82.8667 21.5007C83.7103 21.1533 84.2917 20.6733 84.2917 20.6733C84.6147 20.4758 84.7109 20.0504 84.5155 19.7304L83.9767 18.8706C83.7772 18.5505 83.3518 18.4898 83.0308 18.6873C83.0308 18.6873 82.013 19.3435 81.4367 19.5197C81.1218 19.617 80.6974 19.7162 80.264 19.7162C78.6041 19.7162 77.7048 18.8888 77.5701 17.2289L84.0314 17.232C84.4598 17.232 84.7879 16.8927 84.8041 16.4613V15.9873C84.8041 15.9569 84.8021 15.9275 84.799 15.8921L84.798 15.8931Z" fill="#FEFEFE"/>
<path d="M72.5154 13.7431C72.4506 13.183 72.2369 12.6736 71.8895 12.2149C71.5503 11.7956 71.1492 11.4745 70.6793 11.2538C70.2134 11.0299 69.6321 10.9196 68.9283 10.9196C68.1981 10.9196 67.5681 11.0786 67.0344 11.3966C66.5007 11.7115 66.0916 12.0802 65.808 12.4984V12.2533V11.8472C65.808 11.4219 65.4606 11.0765 65.0353 11.0765H63.8433C63.4149 11.0765 63.0706 11.4219 63.0706 11.8472V21.0419C63.0706 21.4794 63.423 21.8309 63.8595 21.8309H65.0768C65.5113 21.8309 65.8667 21.4784 65.8667 21.0419C65.8667 21.0419 65.8688 16.1544 65.8769 15.8425C65.8819 15.5306 65.9194 15.2551 65.9873 15.0121C66.0308 14.848 66.0956 14.6728 66.1898 14.4814C66.284 14.293 66.4187 14.1158 66.5969 13.9456C66.7721 13.7785 66.9868 13.6367 67.2461 13.5203C67.5023 13.4038 67.8122 13.3501 68.1788 13.3501C68.5282 13.3501 68.83 13.4018 69.0812 13.5091C69.3293 13.6165 69.5157 13.8049 69.6392 14.0773C69.7597 14.3497 69.8195 14.7811 69.8195 15.3736V21.0409C69.8195 21.4784 70.1719 21.8298 70.6084 21.8298H71.8257C72.2602 21.8298 72.6147 21.4774 72.6147 21.0409V20.6915V15.3301C72.6147 14.8287 72.5792 14.3011 72.5124 13.7431H72.5154Z" fill="#FEFEFE"/>
<path d="M11.4309 9.36197C11.3367 9.06625 11.2881 8.81408 11.2881 8.61356C11.2881 8.26214 11.3853 8.02617 11.6709 7.83273C11.8967 7.67576 12.3575 7.7031 12.8325 7.69196C13.6458 7.67272 13.9739 7.64537 14.2493 8.3705C14.2493 8.3705 16.3883 17.0214 16.448 17.3313C16.5108 17.6401 16.5594 17.8994 16.5989 18.0989C16.6425 17.87 16.688 17.6189 16.7417 17.3525C16.7964 17.0811 18.8573 11.3145 18.8573 11.3145C18.9657 10.8801 19.2371 10.6684 19.549 10.5368C19.6351 10.4983 19.7374 10.4527 19.862 10.4527H20.975C21.1694 10.4527 21.3578 10.4426 21.4935 10.5175C21.8176 10.6634 22.0677 10.9216 22.1751 11.353C22.1751 11.353 24.3737 17.1267 24.4325 17.4001C24.4943 17.6776 24.5348 17.9045 24.5641 18.0787C24.5915 17.9176 24.629 17.71 24.6857 17.4508C24.7373 17.1682 26.9562 8.36949 26.9562 8.36949C27.2601 7.65348 27.5335 7.73348 28.3731 7.73348C28.847 7.73348 29.1083 7.68791 29.3777 7.84691C29.6967 8.03528 29.7717 8.30771 29.7717 8.63179C29.7717 8.74218 29.7615 8.86067 29.7413 8.99739C29.72 9.13208 29.6825 9.27488 29.6279 9.42071L26.2848 20.8526C26.1744 21.205 25.9668 21.4157 25.6761 21.5372C25.5688 21.5797 25.4523 21.604 25.348 21.604C25.029 21.604 23.8552 21.606 23.8552 21.606C23.6132 21.606 23.5028 21.5848 23.3489 21.52C23.0207 21.3448 22.8526 21.1058 22.7584 20.7685C22.7584 20.7685 20.5658 14.1573 20.5496 14.0358C20.5354 14.1431 18.2811 20.8303 18.2811 20.8303C18.1727 21.207 17.9742 21.3903 17.6613 21.5281C17.561 21.5686 17.4456 21.5828 17.3757 21.5828C17.0577 21.5828 15.7745 21.5848 15.7745 21.5848C15.6257 21.5848 15.4565 21.525 15.3705 21.4825C15.0768 21.3377 14.9016 21.0885 14.7942 20.7523L11.4289 9.36197H11.4309Z" fill="#FEFEFE"/>
<path d="M34.9629 9.19069C34.9629 9.63022 34.6074 9.98468 34.1648 9.98468H32.9394C32.4999 9.98468 32.1444 9.6292 32.1444 9.19069V8.24276C32.1444 7.80323 32.4999 7.44775 32.9394 7.44775H34.1648C34.6074 7.44775 34.9629 7.80424 34.9629 8.24276V9.19069Z" fill="#FEFEFE"/>
<path d="M47.6435 13.7431C47.5756 13.183 47.366 12.6736 47.0156 12.2149C46.6793 11.7956 46.2752 11.4745 45.8094 11.2538C45.3435 11.0299 44.7582 10.9196 44.0553 10.9196C43.3251 10.9196 42.6952 11.0786 42.1615 11.3966C41.6278 11.7115 41.2186 12.0802 40.935 12.4984V12.2533V11.8472C40.935 11.4219 40.5907 11.0765 40.1623 11.0765H38.9713C38.545 11.0765 38.1986 11.4219 38.1986 11.8472V21.0419C38.1986 21.4794 38.5541 21.8309 38.9875 21.8309H40.2049C40.6424 21.8309 40.9938 21.4784 40.9938 21.0419V16.6324C40.9938 16.4167 40.9958 16.1544 41.0049 15.8425C41.013 15.5306 41.0505 15.2551 41.1153 15.0121C41.1578 14.848 41.2227 14.6728 41.3168 14.4814C41.411 14.293 41.5488 14.1158 41.723 13.9456C41.8982 13.7785 42.1129 13.6367 42.3721 13.5203C42.6304 13.4038 42.9403 13.3501 43.3049 13.3501C43.6573 13.3501 43.9561 13.4018 44.2072 13.5091C44.4543 13.6165 44.6427 13.8049 44.7652 14.0773C44.8868 14.3497 44.9455 14.7811 44.9455 15.3736V21.0409C44.9455 21.4784 45.302 21.8298 45.7375 21.8298H46.9528C47.3893 21.8298 47.7417 21.4774 47.7417 21.0409V15.3301C47.7417 14.8287 47.7062 14.3011 47.6414 13.7431H47.6435Z" fill="#FEFEFE"/>
<path d="M34.1661 11.12H32.9406C32.5011 11.12 32.1456 11.4775 32.1456 11.917L32.1183 20.9993C32.1183 21.4429 32.4788 21.8014 32.9204 21.8014H34.16C34.6025 21.8014 34.9631 21.4429 34.9631 20.9993V11.917C34.9631 11.4775 34.6066 11.12 34.165 11.12H34.1661Z" fill="#FEFEFE"/>
<path d="M59.1027 11.12H57.8763C57.4367 11.12 57.0782 11.4775 57.0782 11.917L57.0549 20.9993C57.0549 21.4429 57.4155 21.8014 57.858 21.8014H59.0976C59.5392 21.8014 59.8997 21.4429 59.8997 20.9993V11.917C59.8997 11.4775 59.5422 11.12 59.1027 11.12V11.12Z" fill="#FEFEFE"/>
<path d="M117.182 14.6686C117.182 21.2079 111.901 26.5066 105.387 26.5066C98.8721 26.5066 93.5917 21.2069 93.5917 14.6686C93.5917 8.13038 98.8721 2.83069 105.387 2.83069C111.901 2.83069 117.182 8.13038 117.182 14.6686V14.6686Z" fill="#EF7C22"/>
</svg>
