<?xml version="1.0" encoding="UTF-8"?>
<!DOCTYPE svg PUBLIC "-//W3C//DTD SVG 1.1//EN" "http://www.w3.org/Graphics/SVG/1.1/DTD/svg11.dtd">
<!-- Creator: CorelDRAW 2021 (64-Bit) -->
<svg xmlns="http://www.w3.org/2000/svg" xml:space="preserve" width="31.3266mm" height="25.7118mm" version="1.1" style="shape-rendering:geometricPrecision; text-rendering:geometricPrecision; image-rendering:optimizeQuality; fill-rule:evenodd; clip-rule:evenodd"
viewBox="0 0 3132.66 2571.18"
 xmlns:xlink="http://www.w3.org/1999/xlink"
 xmlns:xodm="http://www.corel.com/coreldraw/odm/2003">
 <defs>
  <style type="text/css">
   <![CDATA[
    .fil1 {fill:#4A5161}
    .fil0 {fill:#4A5161;fill-rule:nonzero}
   ]]>
  </style>
 </defs>
 <g id="Слой_x0020_1">
  <metadata id="CorelCorpID_0Corel-Layer"/>
  <path class="fil0" d="M25.03 1539.7c74.38,2.29 139.19,6.37 194.41,12.22 55.32,5.86 101.25,13.53 137.77,22.99 25.68,4.14 56.31,11.73 91.89,22.73 35.67,11.03 76.32,25.49 121.92,43.37 59.11,22.02 118.2,39.19 177.25,51.51 59.05,12.31 118.01,19.77 176.87,22.36l0.24 0c157.22,11.56 281.47,0.68 394.7,-20.05 12.36,3.79 24.83,7.34 37.42,10.58 -123.69,25.14 -258.18,39.8 -433.36,26.92 -59.76,-2.66 -119.57,-10.22 -179.42,-22.71 -59.88,-12.49 -119.86,-29.92 -179.93,-52.29l-0.14 -0.03c-45.33,-17.78 -85.56,-32.11 -120.68,-42.97 -35.03,-10.83 -65.01,-18.25 -89.9,-22.24l-0.83 -0.18c-35.69,-9.28 -80.89,-16.82 -135.58,-22.61 -54.98,-5.82 -119.36,-9.88 -193.11,-12.15l0.48 -17.45zm2084.76 2.73c133.75,-1.72 278.48,17.32 442.51,72.17l0.55 0.21c85.97,35.29 175.02,61.65 267.15,79.06 92.19,17.42 187.43,25.88 285.68,25.39l0.07 17.45c-99.45,0.5 -195.77,-8.06 -288.97,-25.67 -93.16,-17.6 -183.25,-44.26 -270.26,-79.96 -171.36,-57.27 -321.37,-74.95 -459.75,-70.65 7.78,-5.86 15.44,-11.88 23.02,-18zm-2084.76 -76.02c74.38,2.29 139.19,6.37 194.41,12.22 55.32,5.86 101.25,13.53 137.77,22.99 25.68,4.15 56.31,11.73 91.89,22.73 35.67,11.03 76.32,25.49 121.92,43.37 59.11,22.02 118.2,39.19 177.25,51.51 59.05,12.31 118.01,19.77 176.87,22.36l0.24 0c97.8,7.2 180.93,5.02 255.95,-3.04 9.6,4.92 19.34,9.62 29.16,14.18 -82.95,10.71 -175.26,14.48 -286.35,6.31 -59.76,-2.66 -119.57,-10.22 -179.42,-22.71 -59.88,-12.49 -119.86,-29.92 -179.93,-52.29l-0.14 -0.03c-45.33,-17.78 -85.56,-32.11 -120.68,-42.97 -35.03,-10.83 -65.01,-18.25 -89.9,-22.24l-0.83 -0.18c-35.69,-9.28 -80.89,-16.82 -135.58,-22.61 -54.98,-5.82 -119.36,-9.88 -193.11,-12.15l0.48 -17.45zm2164.63 2.82c112.61,6.9 232.57,28.59 362.64,72.08l0.55 0.21c85.97,35.29 175.02,61.65 267.15,79.06 92.19,17.42 187.43,25.88 285.68,25.39l0.07 17.45c-99.45,0.5 -195.77,-8.06 -288.97,-25.67 -93.16,-17.6 -183.25,-44.26 -270.26,-79.96 -134.32,-44.89 -257.69,-66.23 -373.27,-71.97 5.54,-5.46 11.02,-10.98 16.41,-16.59zm-2164.63 -76.14c74.38,2.29 139.19,6.37 194.41,12.22 55.32,5.86 101.25,13.53 137.77,22.99 25.68,4.14 56.31,11.72 91.89,22.73 35.67,11.03 76.32,25.49 121.92,43.37 59.11,22.02 118.2,39.19 177.25,51.51 59.05,12.31 118.01,19.77 176.87,22.36l0.24 0c53.09,3.91 101.85,5.04 147.35,3.98 7.98,5.72 16.07,11.29 24.25,16.75 -52.71,2.14 -109.74,1.36 -172.84,-3.28 -59.76,-2.66 -119.57,-10.22 -179.42,-22.71 -59.88,-12.49 -119.86,-29.92 -179.93,-52.29l-0.14 -0.03c-45.33,-17.78 -85.56,-32.11 -120.68,-42.97 -35.03,-10.83 -65.01,-18.25 -89.9,-22.24l-0.83 -0.18c-35.69,-9.28 -80.89,-16.82 -135.58,-22.61 -54.98,-5.83 -119.36,-9.88 -193.11,-12.15l0.48 -17.45zm2223.8 7.77c95.28,10.11 195.92,31.17 303.47,67.13l0.55 0.2c85.97,35.3 175.02,61.66 267.15,79.07 92.19,17.42 187.43,25.88 285.68,25.39l0.07 17.45c-99.45,0.5 -195.77,-8.06 -288.97,-25.67 -93.16,-17.61 -183.25,-44.26 -270.26,-79.96 -110.35,-36.88 -213.32,-57.87 -310.64,-67.37 4.38,-5.36 8.69,-10.78 12.95,-16.24zm-2223.8 -81.09c74.38,2.29 139.19,6.37 194.41,12.22 55.32,5.86 101.25,13.53 137.77,22.98 25.68,4.15 56.31,11.73 91.89,22.74 35.67,11.03 76.32,25.49 121.92,43.37 59.11,22.02 118.2,39.19 177.25,51.51 59.05,12.31 118.01,19.77 176.87,22.36l0.24 0c19.76,1.46 38.93,2.52 57.56,3.24 6.51,6.16 13.14,12.19 19.84,18.14 -25.17,-0.64 -51.34,-1.92 -78.64,-3.93 -59.76,-2.66 -119.57,-10.22 -179.42,-22.71 -59.88,-12.49 -119.86,-29.92 -179.93,-52.29l-0.14 -0.03c-45.33,-17.78 -85.56,-32.11 -120.68,-42.97 -35.03,-10.83 -65.01,-18.25 -89.9,-22.24l-0.83 -0.18c-35.69,-9.28 -80.89,-16.82 -135.58,-22.61 -54.98,-5.83 -119.36,-9.88 -193.11,-12.15l0.48 -17.45zm2271.22 13.66c81.13,11.54 166.18,31.18 256.05,61.24l0.55 0.2c85.97,35.3 175.02,61.65 267.15,79.07 92.19,17.42 187.43,25.88 285.68,25.39l0.07 17.45c-99.45,0.5 -195.77,-8.06 -288.97,-25.67 -93.16,-17.61 -183.25,-44.27 -270.26,-79.96 -91.7,-30.65 -178.29,-50.32 -260.79,-61.54 3.56,-5.36 7.07,-10.75 10.52,-16.18zm-2271.22 -86.98c74.38,2.29 139.19,6.37 194.41,12.22 55.32,5.86 101.25,13.53 137.77,22.98 25.68,4.15 56.31,11.73 91.89,22.73 35.67,11.03 76.32,25.5 121.92,43.38 59.11,22.02 118.2,39.19 177.25,51.5 54.18,11.31 108.29,18.52 162.31,21.63 5.12,6.19 10.34,12.29 15.63,18.33l-2.07 -0.14c-59.76,-2.66 -119.57,-10.23 -179.42,-22.71 -59.88,-12.49 -119.86,-29.92 -179.93,-52.29l-0.14 -0.04c-45.33,-17.77 -85.56,-32.1 -120.68,-42.96 -35.03,-10.83 -65.01,-18.25 -89.9,-22.25l-0.83 -0.17c-35.69,-9.28 -80.89,-16.82 -135.58,-22.61 -54.98,-5.83 -119.36,-9.88 -193.11,-12.15l0.48 -17.45zm2309.75 19.71c69.44,11.92 141.76,29.86 217.52,55.19l0.55 0.2c85.97,35.3 175.02,61.65 267.15,79.06 92.19,17.43 187.43,25.89 285.68,25.4l0.07 17.45c-99.45,0.49 -195.78,-8.06 -288.97,-25.67 -93.16,-17.61 -183.25,-44.26 -270.26,-79.96 -76.83,-25.68 -150.07,-43.65 -220.33,-55.41 2.92,-5.39 5.78,-10.81 8.59,-16.26zm-2309.75 -93.03c74.38,2.29 139.19,6.37 194.41,12.22 55.32,5.86 101.25,13.52 137.77,22.98 25.68,4.15 56.31,11.73 91.89,22.73 35.67,11.03 76.32,25.5 121.92,43.38 59.11,22.02 118.2,39.19 177.25,51.5 34.98,7.3 69.94,12.89 104.86,16.78 4.14,6.35 8.37,12.65 12.68,18.89 -40.35,-3.95 -80.71,-10.14 -121.09,-18.56 -59.88,-12.49 -119.86,-29.92 -179.93,-52.29l-0.14 -0.04c-45.33,-17.77 -85.56,-32.1 -120.68,-42.96 -35.03,-10.83 -65.01,-18.25 -89.9,-22.25l-0.83 -0.17c-35.69,-9.28 -80.89,-16.82 -135.58,-22.61 -54.98,-5.83 -119.36,-9.88 -193.11,-12.15l0.48 -17.45zm2340.77 25.4c59.9,11.7 121.95,27.91 186.5,49.5l0.55 0.2c85.97,35.3 175.02,61.65 267.15,79.06 92.19,17.42 187.43,25.89 285.68,25.4l0.07 17.45c-99.45,0.49 -195.78,-8.06 -288.97,-25.68 -93.16,-17.6 -183.25,-44.25 -270.26,-79.96 -64.99,-21.71 -127.41,-37.92 -187.63,-49.52 2.36,-5.45 4.66,-10.94 6.91,-16.45zm-2340.77 -98.72c74.38,2.29 139.19,6.37 194.41,12.22 55.32,5.86 101.25,13.52 137.77,22.98 25.68,4.15 56.31,11.73 91.89,22.73 35.67,11.03 76.32,25.5 121.92,43.38 59.11,22.02 118.2,39.19 177.25,51.5 19.65,4.1 39.28,7.66 58.9,10.68 3.27,6.43 6.61,12.81 10.04,19.15 -24.16,-3.44 -48.32,-7.68 -72.49,-12.72 -59.88,-12.49 -119.86,-29.92 -179.93,-52.29l-0.14 -0.04c-45.33,-17.78 -85.56,-32.1 -120.68,-42.96 -35.03,-10.83 -65.01,-18.25 -89.9,-22.25l-0.83 -0.17c-35.69,-9.28 -80.89,-16.82 -135.58,-22.61 -54.98,-5.83 -119.36,-9.88 -193.11,-12.15l0.48 -17.45zm2365.33 30.43c52.27,11.19 106.17,25.82 161.94,44.47l0.55 0.2c85.97,35.3 175.02,61.65 267.15,79.06 92.19,17.42 187.43,25.89 285.68,25.4l0.07 17.44c-99.45,0.5 -195.78,-8.05 -288.97,-25.67 -93.16,-17.6 -183.25,-44.26 -270.26,-79.96 -55.67,-18.6 -109.45,-33.15 -161.58,-44.24 1.86,-5.54 3.68,-11.1 5.42,-16.7zm-2365.33 -103.75c74.38,2.29 139.19,6.37 194.41,12.22 55.32,5.85 101.25,13.52 137.77,22.98 25.68,4.15 56.31,11.73 91.89,22.73 35.67,11.03 76.32,25.49 121.92,43.38 59.11,22.02 118.2,39.19 177.25,51.5 7.85,1.64 15.69,3.19 23.52,4.65 2.48,6.42 5.05,12.81 7.67,19.15 -11.58,-2.05 -23.16,-4.28 -34.74,-6.69 -59.88,-12.49 -119.86,-29.93 -179.93,-52.29l-0.14 -0.04c-45.33,-17.78 -85.56,-32.1 -120.68,-42.96 -35.03,-10.83 -65.01,-18.25 -89.9,-22.25l-0.83 -0.17c-35.69,-9.28 -80.89,-16.82 -135.58,-22.61 -54.98,-5.83 -119.36,-9.88 -193.11,-12.15l0.48 -17.45zm2383.67 34.48c46.52,10.6 94.33,23.94 143.6,40.41l0.55 0.21c85.97,35.29 175.02,61.65 267.15,79.06 92.19,17.42 187.43,25.89 285.68,25.4l0.07 17.44c-99.45,0.5 -195.78,-8.06 -288.97,-25.67 -93.16,-17.6 -183.25,-44.26 -270.26,-79.96 -48.64,-16.25 -95.85,-29.41 -141.77,-39.87 1.37,-5.65 2.69,-11.33 3.95,-17.02zm-2383.67 -107.8c74.38,2.29 139.19,6.37 194.41,12.22 55.32,5.85 101.25,13.52 137.77,22.98 25.68,4.15 56.31,11.73 91.89,22.73 35.67,11.03 76.32,25.49 121.92,43.38 58.27,21.7 116.53,38.7 174.75,50.97 1.77,6.36 3.61,12.69 5.53,18.99l-6.58 -1.35c-59.88,-12.49 -119.86,-29.93 -179.93,-52.29l-0.14 -0.04c-45.33,-17.78 -85.56,-32.1 -120.68,-42.96 -35.03,-10.83 -65.01,-18.25 -89.9,-22.25l-0.83 -0.17c-35.69,-9.28 -80.89,-16.82 -135.58,-22.61 -54.98,-5.83 -119.36,-9.88 -193.11,-12.16l0.48 -17.44zm2396.18 37.38c42.57,10.1 86.23,22.51 131.09,37.51l0.55 0.21c85.97,35.29 175.02,61.65 267.15,79.06 92.19,17.42 187.43,25.88 285.68,25.4l0.07 17.44c-99.45,0.5 -195.78,-8.06 -288.97,-25.67 -93.16,-17.6 -183.25,-44.26 -270.26,-79.96 -43.73,-14.61 -86.29,-26.72 -127.8,-36.62 0.9,-5.77 1.7,-11.56 2.49,-17.37zm-2396.18 -110.7c74.38,2.29 139.19,6.36 194.41,12.21 55.32,5.86 101.25,13.53 137.77,22.99 25.68,4.15 56.31,11.73 91.89,22.73 35.67,11.03 76.32,25.49 121.92,43.38 52.37,19.5 104.73,35.21 157.06,47.1 1.13,6.26 2.31,12.49 3.58,18.7 -55.54,-12.25 -111.17,-28.74 -166.87,-49.48l-0.14 -0.04c-45.33,-17.78 -85.56,-32.1 -120.68,-42.96 -35.03,-10.83 -65.01,-18.25 -89.9,-22.25l-0.83 -0.17c-35.69,-9.28 -80.89,-16.82 -135.58,-22.62 -54.98,-5.82 -119.36,-9.88 -193.11,-12.15l0.48 -17.44zm2402.84 38.98c40.46,9.8 81.9,21.69 124.43,35.91l0.55 0.21c85.97,35.29 175.02,61.65 267.15,79.06 92.19,17.42 187.43,25.88 285.68,25.39l0.07 17.45c-99.45,0.5 -195.78,-8.06 -288.97,-25.67 -93.16,-17.6 -183.25,-44.26 -270.26,-79.96 -40.91,-13.67 -80.8,-25.15 -119.77,-34.68 0.43,-5.89 0.82,-11.79 1.12,-17.71zm-2402.84 -112.3c74.38,2.28 139.19,6.36 194.41,12.21 55.32,5.86 101.25,13.53 137.77,22.99 25.68,4.15 56.31,11.73 91.89,22.73 35.67,11.03 76.32,25.49 121.92,43.38 48.99,18.24 97.97,33.16 146.92,44.75 0.55,6.14 1.17,12.26 1.84,18.37 -51.59,-11.94 -103.26,-27.54 -154.99,-46.8l-0.14 -0.04c-45.33,-17.78 -85.56,-32.1 -120.68,-42.96 -35.03,-10.84 -65.01,-18.26 -89.9,-22.25l-0.83 -0.17c-35.69,-9.28 -80.89,-16.83 -135.58,-22.62 -54.98,-5.82 -119.36,-9.88 -193.11,-12.15l0.48 -17.44zm2403.38 39.11c40.29,9.78 81.55,21.62 123.89,35.78l0.55 0.21c85.97,35.29 175.02,61.65 267.15,79.06 92.19,17.42 187.43,25.88 285.68,25.39l0.07 17.45c-99.45,0.5 -195.78,-8.06 -288.97,-25.67 -93.16,-17.6 -183.25,-44.26 -270.26,-79.96 -40.19,-13.43 -79.39,-24.74 -117.7,-34.17 -0.09,-6.04 -0.21,-12.08 -0.41,-18.09zm-2403.38 -112.43c74.38,2.28 139.19,6.36 194.41,12.21 55.32,5.86 101.25,13.53 137.77,22.99 25.68,4.15 56.31,11.73 91.89,22.73 35.67,11.03 76.32,25.49 121.92,43.37 47.83,17.82 95.65,32.46 143.44,43.93 0.03,6.01 0.08,12.02 0.23,18.01 -49.9,-11.78 -99.87,-26.99 -149.9,-45.62l-0.14 -0.03c-45.33,-17.78 -85.56,-32.11 -120.68,-42.97 -35.03,-10.83 -65.01,-18.25 -89.9,-22.24l-0.83 -0.18c-35.69,-9.28 -80.89,-16.82 -135.58,-22.61 -54.98,-5.82 -119.36,-9.88 -193.11,-12.15l0.48 -17.44zm2397.62 37.73c42.12,10.04 85.29,22.33 129.65,37.16l0.55 0.21c85.97,35.29 175.02,61.65 267.15,79.06 92.19,17.42 187.43,25.88 285.68,25.39l0.07 17.45c-99.45,0.5 -195.78,-8.06 -288.97,-25.67 -93.16,-17.6 -183.25,-44.26 -270.26,-79.96 -41.62,-13.91 -82.19,-25.56 -121.81,-35.19 -0.61,-6.17 -1.31,-12.32 -2.06,-18.45zm-2397.62 -111.06c74.38,2.29 139.19,6.37 194.41,12.22 55.32,5.86 101.25,13.53 137.77,22.99 25.68,4.14 56.31,11.72 91.89,22.73 35.67,11.03 76.32,25.49 121.92,43.37 48.75,18.16 97.49,33.03 146.2,44.58 -0.47,5.87 -0.85,11.77 -1.21,17.67 -50.33,-11.82 -100.75,-27.13 -151.22,-45.93l-0.14 -0.03c-45.33,-17.78 -85.56,-32.11 -120.68,-42.97 -35.03,-10.83 -65.01,-18.25 -89.9,-22.24l-0.83 -0.18c-35.69,-9.28 -80.89,-16.82 -135.58,-22.61 -54.98,-5.83 -119.36,-9.88 -193.11,-12.15l0.48 -17.45zm2384.84 34.75c46.15,10.56 93.57,23.81 142.43,40.15l0.55 0.2c85.97,35.3 175.02,61.66 267.15,79.06 92.19,17.43 187.43,25.89 285.68,25.4l0.07 17.45c-99.45,0.5 -195.78,-8.06 -288.97,-25.67 -93.16,-17.61 -183.25,-44.26 -270.26,-79.96 -45.5,-15.21 -89.73,-27.71 -132.84,-37.82 -1.2,-6.29 -2.47,-12.56 -3.81,-18.81zm-2384.84 -108.07c74.38,2.29 139.19,6.37 194.41,12.22 55.32,5.86 101.25,13.53 137.77,22.98 25.68,4.15 56.31,11.73 91.89,22.74 35.67,11.03 76.32,25.49 121.92,43.37 51.67,19.25 103.32,34.79 154.95,46.62 -0.95,5.75 -1.85,11.52 -2.69,17.31 -52.75,-12.04 -105.59,-27.91 -158.49,-47.61l-0.14 -0.03c-45.33,-17.78 -85.56,-32.11 -120.68,-42.97 -35.03,-10.83 -65.01,-18.25 -89.9,-22.24l-0.83 -0.18c-35.69,-9.28 -80.89,-16.82 -135.58,-22.61 -54.98,-5.83 -119.36,-9.88 -193.11,-12.15l0.48 -17.45zm2364.29 30.21c52.59,11.21 106.84,25.92 162.98,44.69l0.55 0.2c85.97,35.3 175.02,61.66 267.15,79.06 92.19,17.43 187.43,25.89 285.68,25.4l0.07 17.45c-99.45,0.49 -195.78,-8.06 -288.97,-25.67 -93.16,-17.61 -183.25,-44.26 -270.26,-79.96 -52.06,-17.4 -102.47,-31.26 -151.42,-42.04 -1.86,-6.41 -3.78,-12.79 -5.78,-19.13zm-2364.29 -103.53c74.38,2.29 139.19,6.37 194.41,12.22 55.32,5.86 101.25,13.53 137.77,22.98 25.68,4.15 56.31,11.73 91.89,22.73 35.67,11.04 76.32,25.5 121.92,43.38 56.53,21.06 113.05,37.68 169.52,49.87 -1.42,5.64 -2.83,11.29 -4.14,16.97 -57.11,-12.34 -114.32,-29.19 -171.61,-50.52l-0.14 -0.04c-45.33,-17.77 -85.56,-32.1 -120.68,-42.96 -35.03,-10.83 -65.01,-18.25 -89.9,-22.25l-0.83 -0.17c-35.69,-9.28 -80.89,-16.82 -135.58,-22.61 -54.98,-5.83 -119.36,-9.88 -193.11,-12.15l0.48 -17.45zm2334.85 24.26c61.73,11.78 125.75,28.34 192.42,50.64l0.55 0.2c85.97,35.3 175.02,61.65 267.15,79.06 92.19,17.43 187.43,25.89 285.68,25.4l0.07 17.45c-99.45,0.49 -195.78,-8.06 -288.97,-25.67 -93.16,-17.61 -183.25,-44.26 -270.26,-79.96 -61.75,-20.64 -121.18,-36.3 -178.61,-47.76 -2.6,-6.49 -5.28,-12.94 -8.03,-19.36zm-2334.85 -97.58c74.38,2.29 139.19,6.37 194.41,12.22 55.32,5.86 101.25,13.52 137.77,22.98 25.68,4.15 56.31,11.73 91.89,22.73 35.67,11.03 76.32,25.5 121.92,43.38 59.11,22.02 118.2,39.19 177.25,51.5 4.3,0.9 8.59,1.77 12.89,2.61 -1.91,5.55 -3.76,11.12 -5.56,16.72 -3.62,-0.73 -7.26,-1.46 -10.88,-2.22 -59.88,-12.49 -119.86,-29.92 -179.93,-52.29l-0.14 -0.04c-45.33,-17.77 -85.56,-32.1 -120.68,-42.96 -35.03,-10.83 -65.01,-18.25 -89.9,-22.25l-0.83 -0.17c-35.69,-9.28 -80.89,-16.82 -135.58,-22.61 -54.98,-5.83 -119.36,-9.88 -193.11,-12.15l0.48 -17.45zm2295.29 17.3c73.85,11.87 150.95,30.5 231.98,57.6l0.55 0.2c85.97,35.3 175.02,61.65 267.15,79.06 92.19,17.43 187.43,25.89 285.68,25.4l0.07 17.45c-99.45,0.49 -195.78,-8.06 -288.97,-25.68 -93.16,-17.6 -183.25,-44.25 -270.26,-79.96 -75.12,-25.1 -146.81,-42.83 -215.64,-54.6 -3.44,-6.54 -6.96,-13.03 -10.56,-19.47zm-2295.29 -90.62c74.38,2.29 139.19,6.37 194.41,12.22 55.32,5.86 101.25,13.52 137.77,22.98 25.68,4.15 56.31,11.73 91.89,22.73 35.67,11.03 76.32,25.5 121.92,43.38 59.11,22.02 118.2,39.19 177.25,51.5 13.29,2.77 26.56,5.3 39.84,7.58 -2.44,5.47 -4.84,10.96 -7.16,16.49 -12.08,-2.12 -24.15,-4.44 -36.23,-6.96 -59.88,-12.49 -119.86,-29.92 -179.93,-52.29l-0.14 -0.04c-45.33,-17.78 -85.56,-32.1 -120.68,-42.96 -35.03,-10.83 -65.01,-18.25 -89.9,-22.25l-0.83 -0.17c-35.69,-9.28 -80.89,-16.82 -135.58,-22.61 -54.98,-5.83 -119.36,-9.88 -193.11,-12.15l0.48 -17.45zm2244.2 10.09c89.23,10.86 183.16,31.4 283.07,64.81l0.55 0.2c85.97,35.3 175.02,61.65 267.15,79.06 92.19,17.42 187.43,25.89 285.68,25.4l0.07 17.44c-99.45,0.5 -195.78,-8.05 -288.97,-25.67 -93.16,-17.6 -183.25,-44.26 -270.26,-79.96 -92.82,-31.02 -180.41,-50.79 -263.81,-61.94 -4.4,-6.52 -8.91,-12.96 -13.48,-19.34zm-2244.2 -83.41c74.38,2.29 139.19,6.37 194.41,12.22 55.32,5.85 101.25,13.52 137.77,22.98 25.68,4.15 56.31,11.73 91.89,22.73 35.67,11.03 76.32,25.49 121.92,43.38 59.11,22.02 118.2,39.19 177.25,51.5 24.63,5.14 49.23,9.43 73.82,12.87 -3.01,5.43 -5.97,10.89 -8.87,16.38 -22.83,-3.33 -45.66,-7.38 -68.5,-12.14 -59.88,-12.49 -119.86,-29.93 -179.93,-52.29l-0.14 -0.04c-45.33,-17.78 -85.56,-32.1 -120.68,-42.96 -35.03,-10.83 -65.01,-18.25 -89.9,-22.25l-0.83 -0.17c-35.69,-9.28 -80.89,-16.82 -135.58,-22.61 -54.98,-5.83 -119.36,-9.88 -193.11,-12.15l0.48 -17.45zm2179.75 3.82c108.22,7.87 223.25,29.52 347.52,71.08l0.55 0.2c85.97,35.29 175.02,61.65 267.15,79.06 92.19,17.42 187.43,25.89 285.68,25.4l0.07 17.44c-99.45,0.5 -195.78,-8.06 -288.97,-25.67 -93.16,-17.6 -183.25,-44.26 -270.26,-79.96 -115.8,-38.7 -223.47,-59.9 -325.02,-68.69 -5.48,-6.37 -11.05,-12.65 -16.72,-18.86zm-2179.75 -77.14c74.38,2.29 139.19,6.37 194.41,12.22 55.32,5.85 101.25,13.52 137.77,22.98 25.68,4.15 56.31,11.73 91.89,22.73 35.67,11.03 76.32,25.49 121.92,43.38 59.11,22.02 118.2,39.19 177.25,51.5 38.73,8.08 77.42,14.07 116.07,17.97 -3.72,5.42 -7.38,10.89 -10.98,16.4 -36.2,-3.95 -72.41,-9.71 -108.64,-17.26 -59.88,-12.49 -119.86,-29.93 -179.93,-52.29l-0.14 -0.04c-45.33,-17.78 -85.56,-32.1 -120.68,-42.96 -35.03,-10.83 -65.01,-18.25 -89.9,-22.25l-0.83 -0.17c-35.69,-9.28 -80.89,-16.82 -135.58,-22.61 -54.98,-5.83 -119.36,-9.88 -193.11,-12.15l0.48 -17.45zm2099.98 0.41c131.16,1.71 272.01,22.56 427.29,74.48l0.55 0.21c85.97,35.29 175.02,61.65 267.15,79.06 92.19,17.42 187.43,25.88 285.68,25.4l0.07 17.44c-99.45,0.5 -195.78,-8.06 -288.97,-25.67 -93.16,-17.6 -183.25,-44.26 -270.26,-79.96 -145.1,-48.49 -277.44,-69.51 -400.97,-73.06 -6.75,-6.07 -13.6,-12.03 -20.54,-17.9zm-2099.98 -73.73c74.38,2.29 139.19,6.36 194.41,12.21 55.32,5.86 101.25,13.53 137.77,22.99 25.68,4.15 56.31,11.73 91.89,22.73 35.67,11.03 76.32,25.49 121.92,43.38 59.11,22.02 118.2,39.18 177.25,51.5 56.41,11.77 112.75,19.1 168.98,21.99 -4.66,5.51 -9.26,11.08 -13.79,16.71 -52.88,-3.35 -105.8,-10.55 -158.74,-21.59 -59.88,-12.49 -119.86,-29.93 -179.93,-52.29l-0.14 -0.04c-45.33,-17.78 -85.56,-32.1 -120.68,-42.96 -35.03,-10.83 -65.01,-18.25 -89.9,-22.25l-0.83 -0.17c-35.69,-9.28 -80.89,-16.82 -135.58,-22.62 -54.98,-5.82 -119.36,-9.87 -193.11,-12.15l0.48 -17.44zm2002.8 2.56l4.68 -0.27c157.11,-8.37 327.38,8.26 519.79,72.6l0.55 0.21c85.97,35.29 175.02,61.65 267.15,79.06 92.19,17.42 187.43,25.88 285.68,25.39l0.07 17.45c-99.45,0.5 -195.78,-8.06 -288.97,-25.67 -93.16,-17.6 -183.25,-44.26 -270.26,-79.96 -182.07,-60.85 -344.04,-78.44 -493.73,-72.52 -8.21,-5.58 -16.55,-11 -24.96,-16.29zm-2002.8 -75.88c74.38,2.29 139.19,6.36 194.41,12.21 55.32,5.86 101.25,13.53 137.77,22.99 25.68,4.15 56.31,11.73 91.89,22.73 35.67,11.03 76.32,25.49 121.92,43.38 59.11,22.02 118.2,39.18 177.25,51.5 59.05,12.31 118.01,19.77 176.87,22.37l0.24 0c19.88,1.46 39.15,2.53 57.87,3.24 -5.84,5.51 -11.62,11.08 -17.3,16.75 -13.64,-0.66 -27.56,-1.5 -41.81,-2.55 -59.76,-2.65 -119.57,-10.22 -179.42,-22.71 -59.88,-12.48 -119.86,-29.92 -179.93,-52.28l-0.14 -0.04c-45.33,-17.78 -85.56,-32.1 -120.68,-42.96 -35.03,-10.84 -65.01,-18.26 -89.9,-22.25l-0.83 -0.17c-35.69,-9.28 -80.89,-16.83 -135.58,-22.62 -54.98,-5.82 -119.36,-9.88 -193.11,-12.15l0.48 -17.44zm1884.8 13.83c40.06,-5.32 80.89,-9.31 122.68,-11.54 157.11,-8.37 327.38,8.26 519.79,72.6l0.55 0.21c85.97,35.29 175.02,61.65 267.15,79.06 92.19,17.42 187.43,25.88 285.68,25.39l0.07 17.45c-99.45,0.5 -195.78,-8.06 -288.97,-25.67 -93.16,-17.6 -183.25,-44.26 -270.26,-79.96 -189.96,-63.48 -358.04,-79.89 -513.12,-71.63 -31.51,1.68 -62.5,4.38 -93.05,7.91 -10.06,-4.8 -20.24,-9.4 -30.52,-13.82zm-1884.8 -87.15c74.38,2.28 139.19,6.36 194.41,12.21 55.32,5.86 101.25,13.53 137.77,22.99 25.68,4.15 56.31,11.73 91.89,22.73 35.67,11.03 76.32,25.49 121.92,43.37 59.11,22.02 118.2,39.19 177.25,51.51 59.05,12.31 118.01,19.77 176.87,22.36l0.24 0c52.44,3.86 100.65,5.02 145.67,4.02 -8.06,5.81 -16,11.76 -23.85,17.83 -38.49,0.18 -79.31,-1.18 -123.06,-4.4 -59.76,-2.65 -119.57,-10.22 -179.42,-22.71 -59.88,-12.49 -119.86,-29.92 -179.93,-52.29l-0.14 -0.03c-45.33,-17.78 -85.56,-32.11 -120.68,-42.97 -35.03,-10.83 -65.01,-18.25 -89.9,-22.24l-0.83 -0.18c-35.69,-9.28 -80.89,-16.82 -135.58,-22.61 -54.98,-5.82 -119.36,-9.88 -193.11,-12.15l0.48 -17.44zm1737.83 39.26c86.37,-18.01 175.58,-31.96 269.65,-36.97 157.11,-8.37 327.38,8.26 519.79,72.6l0.55 0.21c85.97,35.29 175.02,61.65 267.15,79.06 92.19,17.42 187.43,25.88 285.68,25.39l0.07 17.45c-99.45,0.5 -195.78,-8.06 -288.97,-25.67 -93.16,-17.6 -183.25,-44.26 -270.26,-79.96 -189.96,-63.48 -358.04,-79.89 -513.12,-71.63 -80.05,4.26 -156.74,15.12 -231.25,29.47 -12.98,-3.61 -26.07,-6.94 -39.29,-9.95z"/>
  <g id="_2012600412544">
   <path class="fil1" d="M2338.61 2076.95c5.99,7.36 70.35,189.62 70.19,197.58l-144.71 -0.1 74.52 -197.48zm-317.94 476.39l175.72 0.07c-4.04,-3.76 -7.96,-6.49 -13.32,-10.26l-13.09 -10.26c-0.4,-23.96 20.78,-70.8 29.43,-92.85 11.23,-28.61 21.91,-62.02 34.03,-88.06l204.88 -0.4c5.78,18.42 13.14,36.54 18.88,53.28l37.61 107.15c3.11,8.82 7.26,17.43 -1.01,25.21 -6.04,5.69 -17.27,10.16 -20.27,15.76l227.37 0.49c-6.96,-13.65 -33.11,-11.24 -55.26,-56.85 -8.32,-17.13 -131.83,-376.05 -147.06,-419.98 -9.74,-28.08 -19.35,-56.32 -29.33,-84.29 -5.06,-14.19 -9.87,-27.88 -14.72,-42.53 -3.31,-10 -9.81,-31.72 -14.61,-41.4l-189.68 -0.85c16.13,31.54 44.43,13.46 20.17,77.72l-159.78 423.1c-10.16,26.77 -20.52,53.01 -32.39,83.15 -19.03,48.31 -45.99,43.27 -57.57,61.8z"/>
   <path class="fil1" d="M717.38 2274.32c0.26,-9.31 53.66,-143.39 65.08,-173.73 3.18,-8.46 5.12,-16.91 10.98,-22.7l69.23 196.6 -145.29 -0.17zm-14.21 -366.63c23.14,34.43 42.88,18.77 19.16,80.19l-95.83 254.14c-24.19,67.11 -69.05,187.28 -97,253.86 -15.34,36.54 -33.88,36.74 -57.91,57.52l175.7 -0.09c-19.21,-33.45 -46.11,17.53 5.43,-114.3 5.59,-14.3 11.62,-29.48 17.09,-44.33 3.54,-9.6 12.19,-35.79 18.33,-43.07l202.51 0.1c10.86,22.8 23.58,65.26 32.01,90 37.08,108.77 34.58,84.24 8.7,105.31 -6.19,5.04 -2.04,-0.23 -5.52,6.47l228.71 -0.47c-4.07,-5.57 -25.68,-17.58 -32.68,-23.69 -9.59,-8.38 -17.99,-21.46 -23.62,-33.42 -13.33,-28.3 -152.61,-435.07 -176.95,-506.29 -2.11,-6.17 -24.63,-80.14 -31.7,-82.03l-186.43 0.1z"/>
   <path class="fil1" d="M1143.87 2508.14c90.35,73.1 226.56,81.03 327.83,32.06 45.66,-22.08 81.45,-60.95 96.27,-114.34 7.93,-28.57 7.66,-66.36 0.26,-95.29 -13.6,-53.18 -53.11,-82.29 -93.65,-114.59 -29.4,-23.44 -156.2,-118.98 -171.21,-141.85 -19.66,-29.97 -20.99,-109.22 95.93,-89 75.96,13.13 107.09,75.44 125.15,82.6l-0.45 -140.46c-25.84,-16.6 -140.81,-27.91 -181.21,-26.39 -86.8,3.28 -166.66,40.77 -186.17,126.98 -6.88,30.39 -5.36,61.95 4.48,90 16.6,47.3 59.96,82.62 95.51,112.47 36.23,30.43 74.02,61.76 113.55,94.41 18.47,15.26 39.2,32.08 46.83,58.11 8.44,28.85 -2.43,62.77 -19.01,79.07 -35.52,34.93 -122.49,19.32 -160.94,-8.43 -20.92,-15.1 -36.36,-32.22 -50.86,-53.98 -4.79,-7.18 -35.71,-56.69 -42.61,-60.75l0.3 169.38z"/>
   <path class="fil1" d="M1617.6 2509.73c7.19,3.97 7.11,5.38 14.48,10.69 4.98,3.59 9.43,6.36 16.05,10.32 86.69,51.88 212.21,51.5 298.14,8.67 77.98,-38.87 117.08,-124.07 94.84,-208.99 -13.34,-50.95 -53.83,-84.89 -93.59,-114.48 -25.37,-18.88 -158.55,-122.58 -171.13,-141.59 -18.21,-27.54 -22.59,-110.48 95.86,-89.17 32.25,5.79 48.84,14.86 71.55,33.05 18.02,14.43 46.87,46.89 53.63,49.5l-0.33 -140.46c-11.1,-7.6 -65.62,-17.24 -84.3,-20.14 -85.12,-13.17 -185.69,-10.78 -247.3,51.59 -35.35,35.78 -51.28,100.77 -31.24,159.05 16.92,49.16 62.03,83.71 95.39,112.48 36.45,31.44 75.27,62.43 113.53,94.46 18.43,15.43 39.2,31.83 46.87,58.19 8.5,29.22 -3.62,63.7 -19.01,79.11 -36.62,36.7 -124.39,18.27 -160.97,-8.56 -49.46,-36.27 -66,-83.59 -86.83,-107.99 -5.6,-6.56 0.68,-1.83 -6.79,-5.43l1.15 169.7z"/>
   <path class="fil1" d="M72.31 1914.18c-10.58,15.83 -68.6,104.36 -72.31,115.6 59.45,-23.04 29.85,-21.35 107.79,-22.16 42.94,-0.45 89.4,-1.58 132.04,-0.03 3.46,13.38 1.08,384.17 1.08,432.07 0,13.61 1.61,61.11 -1.53,70.71 -2.38,7.31 -9.27,15.04 -14.27,20.22 -8.35,8.66 -14.31,11.78 -17.64,20.59l208 0.12c-2.37,-13.43 -25.58,-29 -30.05,-40.9 -4.03,-10.71 -1.56,-474.59 -1.56,-497.53 119.26,-2.83 151.31,19.8 214.48,-52.86 9.42,-10.84 33.42,-41.3 37.77,-52.34 -24,1.56 -37.13,6.53 -64.02,6.5l-499.78 0.01z"/>
   <path class="fil1" d="M2516.22 1927.15c14.85,12.65 42.57,14.3 69.89,42.23 19.07,19.49 130.61,198.7 156.48,239.9 7.66,12.19 18.52,23.6 19.17,37.57 1.73,36.92 -0.24,76.13 0.84,113.48 1.05,36.28 0.73,74.97 1.05,112.18 0.28,32.86 3.96,45.02 -20.88,64.24 -9.63,7.45 -11.43,5.95 -14.88,14.68l223.24 -0.11c-5.16,-8.73 -20.55,-13.49 -32.82,-22.95 -13.94,-10.77 -10.49,-27.99 -10.47,-47.1l0.01 -227.74c-0.13,-26.59 2.16,-25.88 13.23,-44.43l104.44 -180.13c23.56,-41.74 37.46,-73.41 73.04,-97.63 6.97,-4.75 31.71,-16.92 34.1,-20.11l-180.74 -1.65c14.45,35.7 43.88,4.5 -2.58,80.45l-89 148.19c-22.36,-23.86 -114.96,-193.33 -142.12,-213.37 -20.2,-14.91 -28.54,-14.13 -57.14,-14.16l-140.82 0.58 -4.04 15.88z"/>
  </g>
  <g>
   <path class="fil1" d="M1571.69 59.44c-450.48,0 -815.67,365.19 -815.67,815.67l0 0.22 0 0.21 0 0.22c0,4.09 0.09,8.19 0.16,12.29l0 0.21 0.01 0.43 0 0.22 0.01 0.01c7.38,444.11 369.61,801.86 815.49,801.86 421.62,0 768.52,-319.91 811.22,-730.23l0.14 -1.32 0.25 -2.56c0.59,-5.9 1.12,-11.83 1.58,-17.77l0.16 -2.18c0.46,-6.18 0.86,-12.38 1.19,-18.6l0.06 -1.04 0.01 -0.29 0.06 -1.34c0.32,-6.41 0.55,-12.85 0.72,-19.29l0.02 -0.82c0.17,-6.72 0.25,-13.46 0.25,-20.23 0,-450.48 -365.18,-815.67 -815.66,-815.67zm814.67 856.01c0.31,-6.41 0.55,-12.85 0.72,-19.29l-0.72 19.29zm-1572.54 64.89c91.04,126.79 196.58,195.73 316.64,206.81 144.64,14.38 264.34,-31.6 359.11,-137.96 37.25,-31.8 67.9,-90.19 91.97,-175.17 27.01,-90.67 77.38,-161.47 151.09,-212.41 146.72,-98.63 300.01,-105.2 459.84,-19.7 59.68,39.71 105.39,82.48 137.13,128.32 4.7,34.29 7.19,69.3 7.19,104.88 0,422.56 -342.54,765.11 -765.1,765.11 -386.85,0 -706.59,-287.13 -757.87,-659.88z"/>
  </g>
 </g>
</svg>
