<svg width="100" height="63" viewBox="0 0 100 63" fill="none" xmlns="http://www.w3.org/2000/svg">
<g clip-path="url(#clip0_361_1737)">
<path fill-rule="evenodd" clip-rule="evenodd" d="M35.2941 15.4842C31.448 16.1629 28.9593 15.0317 28.9593 12.7692C28.733 10.5068 31.2217 8.24436 34.8416 7.33938C38.6878 6.4344 41.1765 7.79187 41.1765 10.0543C41.4027 12.3168 38.914 14.5792 35.2941 15.4842ZM50.905 38.1086C50.905 37.6561 50.905 37.2036 50.4525 36.9774C50.4525 36.7511 50.2262 36.2987 50.2262 36.0724C50.2262 35.8462 50.2262 35.6199 50.2262 35.3937C49.7738 34.9412 49.3213 34.2625 48.8688 33.81C48.8688 33.81 48.8688 33.81 48.6425 33.81C48.6425 33.5837 48.4163 33.3575 48.19 33.3575C47.9638 33.1312 47.9638 32.905 47.7376 32.905L47.5113 32.6787C47.2851 32.6787 46.8326 32.4525 46.6063 32.2263C46.1538 31.7738 45.4751 31.5475 44.7964 31.5475C44.7964 31.5475 44.7964 31.5475 44.5701 31.5475C44.3439 31.3213 43.8914 31.3213 43.4389 31.095H43.2127C42.7602 30.8688 42.5339 30.8688 42.0814 30.8688C41.8552 30.8688 41.629 30.8688 41.4027 30.8688C41.4027 30.8688 41.1765 30.8688 41.1765 30.6425C41.4027 30.6425 41.629 30.6425 41.8552 30.4163C42.5339 30.4163 43.2127 29.9638 43.6652 29.5113C43.8914 29.5113 43.8914 29.5113 43.8914 29.5113C44.1176 29.2851 44.1176 29.2851 44.3439 29.2851C44.5701 29.0588 44.7964 29.0588 45.0226 29.0588C45.4751 28.8326 45.7014 28.3801 45.9276 28.1539C47.0588 27.2489 47.7376 26.3439 48.19 25.2127C48.6425 24.7602 48.8688 24.0815 48.8688 23.629C48.8688 23.1765 48.6425 22.9502 48.6425 22.724C48.4163 22.2715 48.19 21.819 47.7376 21.3665C46.8326 20.4616 45.4751 19.5566 43.4389 19.1041C42.9864 18.8778 42.5339 18.6516 41.8552 18.6516C41.1765 18.6516 40.4977 18.6516 39.819 18.6516H39.5928C37.7828 18.6516 36.1991 18.8778 34.6154 19.1041C33.7104 19.3303 32.8054 19.3303 32.1267 19.7828C32.1267 19.7828 32.1267 20.0091 31.9005 20.0091C31.6742 20.0091 31.6742 20.2353 31.448 20.2353C31.448 20.2353 31.448 20.2353 31.2217 20.2353C29.8643 20.914 28.9593 21.819 28.2805 22.4978C27.8281 22.9502 27.6018 23.4027 27.1493 23.629V23.8552C27.1493 24.3077 27.3756 24.534 27.3756 24.7602C27.3756 24.9864 27.3756 25.2127 27.6018 25.2127C27.6018 25.4389 27.6018 25.6652 27.8281 25.6652C28.0543 26.3439 28.5068 26.5702 28.733 27.0226C28.9593 27.2489 29.4118 27.2489 29.638 27.0226C29.8643 27.0226 29.8643 27.0226 29.8643 27.0226H30.0905C30.3167 26.7964 30.543 26.3439 30.543 26.1177C30.7692 25.8914 30.7692 25.8914 30.9955 25.6652C30.9955 25.4389 31.2217 25.4389 31.2217 25.2127C31.6742 24.7602 32.1267 24.3077 32.8054 23.8552C33.0317 23.629 33.2579 23.4027 33.7104 23.4027C33.9367 23.1765 33.9367 23.1765 34.1629 22.9502C34.1629 22.9502 34.3891 22.9502 34.3891 22.724C35.7466 22.0453 37.3303 21.5928 39.1403 21.5928C39.3665 21.5928 39.3665 21.5928 39.5928 21.5928C39.5928 21.5928 39.819 21.5928 40.0452 21.5928C40.2715 21.5928 40.4977 21.5928 40.724 21.5928C40.9502 21.819 41.4027 21.819 41.629 21.819C42.0814 22.0453 42.5339 22.0453 42.9864 22.4978C43.2127 22.4978 43.2127 22.724 43.2127 22.724C43.4389 22.724 43.4389 22.9502 43.6652 22.9502C43.6652 23.1765 43.6652 23.4027 43.8914 23.4027C43.8914 23.629 43.8914 23.629 43.8914 23.629C43.8914 23.629 43.8914 23.629 44.1176 23.8552V24.0815C44.1176 24.3077 44.1176 24.3077 44.1176 24.3077C44.1176 25.2127 43.6652 25.8914 42.9864 26.5702C42.5339 27.0226 42.0814 27.2489 41.629 27.7014C41.629 27.7014 41.4027 27.9276 41.1765 27.9276H40.9502C40.4977 27.9276 40.2715 28.3801 39.819 28.6064C39.3665 28.8326 39.1403 29.0588 38.6878 29.0588C38.4615 29.2851 38.009 29.2851 37.7828 29.2851C37.7828 29.5113 37.5566 29.5113 37.5566 29.5113C36.6516 29.7376 35.7466 29.9638 34.8416 30.1901C34.6154 30.1901 34.6154 30.1901 34.3891 30.1901C34.1629 29.9638 33.9367 30.1901 33.4842 30.4163H33.2579C33.0317 30.4163 33.0317 30.4163 33.0317 30.4163C32.8054 30.4163 32.8054 30.6425 32.5792 30.6425C32.3529 30.8688 32.1267 31.095 32.1267 31.3213C31.9005 31.5475 31.9005 31.7738 31.6742 32C31.448 32.2263 31.448 32.6787 31.448 32.905C31.448 33.1312 31.448 33.3575 31.448 33.3575C31.6742 33.5837 31.6742 33.81 31.9005 33.5837C32.1267 33.5837 32.1267 33.5837 32.3529 33.5837C32.8054 33.5837 33.2579 33.5837 33.7104 33.3575C33.7104 33.3575 33.9367 33.5837 34.1629 33.5837C34.3891 33.3575 34.3891 33.3575 34.6154 33.3575C34.8416 33.3575 35.0679 33.1312 35.2941 33.1312C35.7466 33.1312 35.9729 33.1312 36.4253 33.1312C36.4253 33.1312 36.4253 33.1312 36.6516 33.1312C36.8778 33.1312 37.3303 33.1312 37.5566 33.1312H37.7828C38.009 33.1312 38.2353 33.1312 38.4615 33.1312C38.6878 33.1312 38.914 33.1312 38.914 33.1312C39.1403 33.1312 39.1403 33.3575 39.3665 33.3575C39.5928 33.3575 39.819 33.3575 40.0452 33.3575C40.2715 33.3575 40.2715 33.3575 40.2715 33.3575C40.9502 33.3575 41.4027 33.5837 41.8552 33.81C42.0814 33.81 42.3077 33.81 42.5339 33.81C42.5339 34.0362 42.5339 34.0362 42.7602 34.0362V34.2625C43.2127 34.2625 43.6652 34.4887 43.8914 34.7149C44.1176 34.9412 44.3439 34.9412 44.5701 35.1674C45.7014 36.2987 46.3801 37.6561 46.3801 39.4661C46.3801 39.6923 46.3801 39.9186 46.3801 39.9186C45.9276 40.1448 45.4751 40.3711 45.0226 40.3711C43.6652 40.8235 42.0814 40.8235 40.4977 40.8235L40.2715 40.5973C40.0452 40.3711 39.819 40.1448 39.5928 40.1448C39.3665 40.1448 39.1403 39.9186 38.914 40.1448C38.6878 39.9186 38.4615 40.1448 38.4615 40.1448C38.2353 40.1448 38.009 40.1448 38.009 40.3711V40.5973C37.7828 41.5023 38.4615 42.181 39.1403 42.6335C39.1403 42.6335 39.1403 42.6335 39.3665 42.6335C39.819 42.8597 40.2715 43.086 40.9502 43.3122C41.1765 43.5385 41.1765 43.5385 41.4027 43.5385H41.629C41.8552 43.5385 41.8552 43.5385 41.8552 43.5385C42.3077 43.5385 42.7602 43.5385 43.2127 43.5385H43.4389C43.6652 43.5385 43.6652 43.5385 43.6652 43.5385C43.6652 43.5385 43.6652 43.5385 43.8914 43.5385C44.3439 43.5385 45.0226 43.5385 45.7014 43.3122C45.4751 43.991 45.2489 44.4435 45.0226 44.8959C44.5701 45.3484 44.3439 45.5747 44.1176 46.0272C44.1176 46.2534 43.8914 46.4797 43.8914 46.4797C43.6652 46.4797 43.6652 46.4797 43.4389 46.7059C43.4389 46.7059 43.4389 46.9321 43.2127 46.9321C42.9864 47.3846 42.7602 48.0634 42.3077 48.5159C42.0814 48.5159 42.0814 48.5159 42.0814 48.5159C41.8552 48.7421 41.8552 48.7421 41.629 48.9683C41.4027 48.9683 41.4027 48.9683 41.1765 49.1946L40.9502 49.4208C40.4977 49.6471 40.2715 49.8733 40.0452 50.0996C39.5928 50.3258 39.3665 50.5521 38.914 50.7783C38.4615 51.0045 38.2353 51.2308 37.7828 51.457C37.3303 51.457 36.8778 51.457 36.4253 51.6833C36.1991 51.6833 35.9729 51.9095 35.7466 52.1358H35.5204C34.8416 52.362 34.1629 52.5883 33.4842 52.5883C32.8054 52.8145 32.1267 52.5883 31.448 52.5883C31.2217 52.5883 31.2217 52.5883 30.9955 52.8145C30.7692 52.8145 30.7692 52.8145 30.7692 52.8145C30.543 52.8145 30.543 52.8145 30.543 52.8145C29.638 52.8145 28.733 52.8145 28.0543 52.5883C27.1493 52.362 26.6968 52.362 26.4706 52.362C26.2443 52.1358 26.4706 51.9095 26.2443 51.9095C26.0181 51.6833 25.7919 51.9095 25.5656 51.457C25.5656 51.2308 25.5656 51.0045 25.1131 51.0045C24.8869 51.0045 24.4344 51.2308 24.2081 50.7783C24.2081 50.5521 24.2081 50.3258 24.2081 50.0996C24.2081 49.8733 23.9819 49.4208 23.7557 49.4208L23.9819 49.1946C23.9819 49.1946 23.9819 49.1946 23.7557 48.9683C23.5294 48.7421 23.7557 48.7421 23.5294 48.5159C23.5294 48.2896 23.3032 48.2896 23.3032 48.0634C23.0769 47.6109 23.5294 47.3846 23.7557 47.1584C23.7557 46.9321 23.7557 46.9321 23.7557 46.7059C23.5294 46.4797 23.0769 46.4797 23.5294 45.8009C23.7557 45.3484 23.9819 45.1222 24.2081 44.6697C25.3394 41.9548 28.0543 40.5973 30.3167 39.9186C30.3167 39.9186 30.3167 39.9186 30.3167 39.6923C29.8643 39.2398 29.4118 38.1086 29.1855 37.8824L28.0543 36.9774C27.3756 36.9774 27.1493 36.7511 26.2443 36.9774C26.2443 36.7511 26.0181 36.7511 26.0181 36.7511C25.7919 36.7511 25.7919 36.7511 25.5656 36.7511C25.1131 36.7511 24.6606 36.7511 24.2081 36.7511C23.9819 36.7511 23.7557 36.7511 23.7557 36.7511C23.5294 36.7511 23.0769 36.9774 22.8507 36.9774H22.6244C22.3982 37.2036 22.1719 37.2036 22.1719 37.2036C21.7195 37.2036 21.267 37.4299 21.0407 37.6561C20.5882 37.6561 20.362 37.8824 20.1357 38.1086C19.457 38.5611 19.0045 39.0136 18.3258 39.2398C18.3258 39.2398 18.3258 39.2398 18.0995 39.2398C18.0995 39.4661 18.0995 39.4661 18.0995 39.4661C17.8733 39.6923 17.6471 39.6923 17.6471 39.9186C16.9683 40.8235 16.2896 41.7285 15.8371 43.5385C15.8371 43.7647 15.6109 43.991 15.6109 44.2172C15.6109 44.4435 15.6109 44.4435 15.6109 44.6697C15.6109 44.6697 15.6109 44.6697 15.6109 44.8959C15.6109 45.1222 15.6109 45.5747 15.6109 46.0272C15.6109 46.4797 15.6109 46.9321 15.6109 47.3846C15.6109 47.3846 15.6109 47.6109 15.6109 47.8371C15.8371 48.2896 15.8371 48.5159 16.0633 48.9683C16.0633 49.6471 16.2896 50.0996 16.7421 50.7783C16.7421 50.7783 16.7421 50.7783 16.9683 50.7783C17.1946 51.2308 17.6471 51.6833 17.8733 52.1358C20.1357 54.3982 23.5294 55.9819 28.0543 56.2082C28.5068 56.2082 28.733 56.2082 28.9593 56.4344H29.1855H29.8643C30.0905 56.4344 30.3167 56.4344 30.543 56.2082C30.543 56.2082 30.7692 56.2082 30.9955 56.2082C30.9955 56.2082 30.9955 55.9819 31.2217 55.9819H31.448C32.1267 55.9819 32.5792 56.2082 33.2579 55.9819C33.2579 55.9819 33.2579 55.9819 33.4842 55.7557C33.9367 55.7557 34.3891 55.7557 34.8416 55.5294C35.5204 55.5294 36.1991 55.3032 36.8778 55.3032C37.1041 55.3032 37.3303 55.3032 37.5566 55.3032C37.5566 55.0769 37.7828 55.0769 38.009 55.0769C38.4615 54.8507 38.914 54.6245 39.3665 54.172C39.5928 54.172 39.5928 53.9457 39.819 53.9457C40.0452 53.9457 40.0452 53.9457 40.0452 53.9457C40.2715 53.9457 40.4977 53.7195 40.724 53.7195C41.4027 53.267 41.8552 53.0407 42.3077 52.8145C42.5339 52.5883 42.7602 52.5883 42.9864 52.362C43.4389 52.1358 43.8914 51.9095 44.3439 51.457C44.5701 51.2308 44.5701 51.2308 44.7964 51.0045C45.2489 50.5521 45.7014 50.0996 46.1538 49.8733C46.6063 49.4208 47.0588 49.1946 47.2851 48.7421C47.5113 48.5159 47.7376 48.2896 47.9638 48.0634C47.9638 47.8371 47.9638 47.8371 48.19 47.6109C48.19 47.6109 48.4163 47.3846 48.4163 47.1584C48.6425 46.7059 48.8688 46.4797 49.095 46.0272C49.3213 45.5747 49.5475 45.1222 49.7738 44.6697C50 44.2172 50.2262 43.7647 50.2262 43.3122C50.2262 43.3122 50.4525 43.3122 50.4525 43.086C50.6787 42.6335 50.905 42.181 50.905 41.7285C51.3575 41.7285 51.5837 41.5023 51.81 41.276C52.9412 40.8235 53.8462 40.1448 54.7511 39.4661C54.9774 39.2398 55.2036 39.0136 55.6561 38.7873C56.3348 38.1086 57.2398 37.6561 58.1448 36.9774C58.1448 37.2036 58.371 37.4299 58.371 37.6561C58.5973 38.1086 58.8235 38.3349 58.8235 38.5611C59.0498 38.5611 59.276 38.7873 59.276 39.0136H59.5023C59.7285 39.4661 60.181 39.6923 60.4072 39.9186C60.6335 40.1448 60.6335 40.3711 60.8597 40.5973C61.086 40.8235 61.5385 41.0498 61.7647 41.0498C61.991 41.0498 61.991 41.0498 62.2172 41.0498C62.6697 41.276 63.1222 41.276 63.8009 41.276C64.0271 41.276 64.0271 41.276 64.2534 41.276C64.0271 41.5023 64.0271 41.5023 64.0271 41.7285C64.0271 41.9548 63.8009 41.9548 63.8009 42.181C63.5747 42.8597 63.1222 43.5385 62.6697 44.2172C62.4434 44.6697 61.991 45.3484 61.7647 46.0272C61.7647 46.0272 61.7647 46.2534 61.5385 46.2534C61.3122 46.9321 61.086 47.3846 60.8597 47.8371C60.8597 48.0634 60.6335 48.2896 60.6335 48.5159C60.4072 48.5159 60.4072 48.7421 60.181 48.7421C60.181 48.9683 60.181 49.1946 60.181 49.4208C59.9548 49.6471 59.9548 49.8733 59.7285 50.3258C59.5023 50.5521 59.5023 50.5521 59.276 50.7783C59.0498 51.2308 59.0498 51.457 59.0498 51.9095C58.8235 52.5883 58.5973 53.0407 58.371 53.7195C58.371 53.9457 58.1448 54.172 58.1448 54.3982C58.1448 54.6245 58.1448 55.0769 58.371 55.3032C58.371 55.5294 58.371 55.5294 58.371 55.7557H58.5973C58.8235 56.2082 59.0498 56.4344 59.276 56.6607C59.5023 56.6607 59.5023 56.6607 59.5023 56.6607C59.7285 56.8869 59.9548 56.8869 60.181 56.8869V56.6607C60.181 56.4344 60.4072 56.4344 60.4072 56.4344C60.6335 55.5294 60.8597 54.8507 61.3122 54.172C61.5385 53.7195 61.7647 53.4932 61.7647 53.0407C61.991 52.5883 61.991 52.362 61.991 52.1358C62.4434 51.2308 62.8959 50.5521 63.1222 49.8733C63.3484 49.6471 63.5747 49.4208 63.5747 49.1946C63.8009 48.7421 64.0271 48.5159 64.0271 48.0634C64.4796 47.3846 64.9321 46.4797 65.3846 45.8009C65.6109 45.3484 65.8371 45.1222 66.0633 44.6697C66.2896 44.2172 66.5158 43.991 66.5158 43.5385C66.9683 43.086 67.1946 42.4073 67.4208 41.9548C68.0995 41.0498 68.7783 39.9186 69.457 39.0136C69.457 38.7873 69.6833 38.5611 69.6833 38.3349C69.9095 38.3349 70.1357 38.5611 70.362 38.7873C70.8145 39.4661 71.4932 39.9186 72.1719 40.1448C72.3982 40.3711 72.8507 40.5973 73.0769 40.8235C73.0769 40.8235 73.3032 41.0498 73.5294 41.0498C73.5294 41.276 73.7557 41.276 73.9819 41.5023C73.9819 41.5023 74.2081 41.5023 74.4344 41.7285C74.6606 41.9548 74.6606 42.181 74.8869 42.181H75.1131C75.3394 42.181 75.5656 42.181 75.7919 42.181C76.0181 42.4073 76.2443 42.4073 76.4706 42.4073C76.2443 42.6335 76.4706 42.6335 76.4706 42.6335C76.9231 42.6335 77.1493 42.8597 77.6018 42.8597C77.8281 42.8597 78.2805 43.086 78.733 43.086C78.9593 43.3122 79.4118 43.3122 79.8643 43.3122C79.8643 43.5385 80.0905 43.5385 80.0905 43.5385C80.543 43.7647 80.9955 43.7647 81.2217 43.5385C81.448 43.5385 81.448 43.5385 81.6742 43.5385C83.0317 43.3122 85.0679 43.086 86.6516 43.086C86.6516 42.8597 86.8778 42.8597 87.1041 42.8597C87.5566 42.6335 88.2353 42.4073 88.4615 42.4073C92.7602 40.1448 94.3439 36.2987 94.3439 34.7149C94.3439 34.2625 94.1176 34.0362 94.1176 33.81C93.8914 33.3575 93.4389 33.3575 93.2127 33.81C92.7602 34.9412 91.4027 36.9774 89.1403 38.3349L88.914 38.5611C88.6878 38.7873 88.4615 38.7873 88.0091 39.0136C88.0091 39.0136 87.7828 39.0136 87.5566 39.0136L87.3303 39.2398C87.1041 39.2398 87.1041 39.2398 86.8778 39.0136C86.6516 39.0136 86.4253 39.2398 86.1991 39.2398C85.7466 39.4661 85.5204 39.2398 85.0679 39.2398C84.8416 39.2398 84.8416 39.4661 84.3891 39.4661C84.3891 39.6923 84.3891 39.4661 84.1629 39.4661C83.7104 39.4661 83.2579 39.4661 82.8054 39.4661H82.5792C78.9593 38.7873 76.4706 36.5249 75.3394 35.1674C76.9231 34.9412 78.733 34.4887 80.543 34.0362C80.7692 34.0362 80.9955 33.81 81.2217 33.81C81.6742 33.5837 82.3529 33.3575 82.8054 33.1312C83.0317 33.1312 83.2579 33.1312 83.4842 32.905C83.4842 32.905 83.4842 32.905 83.7104 32.6787C83.7104 32.6787 83.9367 32.6787 84.1629 32.4525V32.6787C84.3891 32.4525 84.6154 32.4525 84.8416 32.4525C84.8416 32.2263 85.0679 32.2263 85.0679 32.2263C85.2941 32.2263 85.2941 32.2263 85.5204 32C85.7466 31.7738 85.9729 31.5475 86.4253 31.3213C86.6516 31.095 87.1041 30.8688 87.3303 30.6425C87.5566 30.6425 87.5566 30.4163 87.7828 30.4163C87.7828 30.1901 88.2353 30.1901 88.2353 29.9638V29.7376C89.3665 28.6064 90.0452 27.4751 90.0452 26.1177C90.0452 24.7602 89.3665 23.8552 88.6878 23.4027C88.2353 23.1765 87.7828 23.1765 87.5566 23.4027C87.3303 23.629 87.1041 23.8552 86.8778 24.0815C86.6516 24.3077 86.4253 24.534 86.1991 24.534C85.9729 24.9864 85.7466 25.2127 85.2941 25.6652C85.0679 25.8914 85.0679 26.1177 84.8416 26.3439C84.6154 26.5702 84.6154 26.5702 84.3891 26.7964C83.9367 27.2489 83.2579 27.7014 82.8054 28.3801C82.5792 28.3801 82.3529 28.3801 82.1267 28.6064C82.1267 28.6064 81.9005 28.6064 81.9005 28.8326C81.9005 28.8326 81.9005 28.8326 81.9005 29.0588C81.6742 29.0588 81.6742 29.0588 81.448 29.0588C81.448 29.0588 81.2217 29.2851 81.2217 29.5113C80.9955 29.5113 80.543 29.7376 80.3167 29.9638H80.0905C79.8643 30.1901 79.8643 30.1901 79.638 30.4163C77.6018 31.7738 75.1131 32.905 72.8507 33.1312C73.3032 32.4525 73.7557 31.7738 74.2081 31.095C74.2081 31.095 74.2081 31.095 74.4344 30.8688L74.6606 30.6425C74.6606 30.4163 74.8869 30.4163 74.8869 30.1901C74.8869 30.1901 74.8869 30.1901 74.8869 29.9638C75.3394 29.5113 75.5656 28.8326 76.0181 28.3801C76.0181 28.1539 76.2443 27.9276 76.2443 27.9276C76.6968 27.4751 76.9231 26.7964 77.1493 26.3439C77.8281 25.4389 78.2805 24.534 78.733 23.8552C78.9593 23.4027 79.1855 22.9502 79.4118 22.2715C79.638 22.0453 79.8643 21.819 79.8643 21.3665C80.3167 20.914 80.543 20.4616 80.7692 19.7828C80.9955 19.3303 81.2217 18.8778 81.448 18.4254C81.6742 18.1991 81.6742 17.9729 81.6742 17.7466C81.9005 17.5204 81.9005 17.2941 81.9005 17.2941C82.1267 17.0679 82.1267 16.8416 82.1267 16.6154C82.3529 15.9367 82.3529 15.4842 82.3529 15.0317C82.3529 14.8054 82.3529 14.353 82.1267 14.1267V13.9005C82.1267 13.448 81.9005 12.9955 81.448 12.7692C80.9955 12.3168 80.543 12.0905 80.0905 11.8643C79.8643 11.8643 79.8643 11.8643 79.8643 11.8643C79.638 11.638 79.638 11.638 79.638 11.638C79.4118 11.638 79.1855 11.638 79.1855 11.638C78.9593 11.638 78.9593 11.638 78.733 11.638L78.5068 11.8643C78.2805 12.0905 78.0543 12.3168 78.0543 12.543L78.2805 12.7692C78.2805 13.2217 78.2805 13.6742 78.0543 13.9005C77.8281 14.5792 77.6018 15.2579 77.3756 15.7104C77.1493 15.9367 77.1493 16.1629 77.1493 16.1629C77.1493 16.3892 77.1493 16.3892 77.1493 16.3892C76.9231 16.6154 76.9231 16.8416 76.9231 16.8416C76.6968 17.0679 76.9231 17.2941 76.9231 17.5204C76.6968 17.9729 76.4706 18.4254 76.2443 18.8778C76.0181 19.1041 76.0181 19.1041 75.7919 19.3303L75.5656 19.5566C75.5656 19.7828 75.5656 19.7828 75.3394 20.0091C75.1131 20.914 74.6606 21.819 74.2081 22.4978C73.9819 22.9502 73.7557 23.4027 73.7557 23.629C73.5294 24.0815 73.5294 24.3077 73.0769 24.7602C73.0769 24.9864 72.8507 24.9864 72.8507 25.2127C72.6244 25.4389 72.6244 25.8914 72.6244 26.1177L72.3982 26.3439C72.3982 26.5702 72.3982 26.7964 72.1719 26.7964C71.7195 27.4751 71.267 27.9276 71.0407 28.6064C71.0407 28.8326 71.0407 29.0588 71.0407 29.2851C70.5882 29.9638 70.1357 30.6425 69.6833 31.3213C69.2308 32 68.7783 32.6787 68.3258 33.5837C68.0995 33.81 68.0995 34.2625 67.8733 34.7149C67.6471 35.1674 67.4208 35.8462 66.9683 36.2987C66.7421 36.7511 66.2896 37.2036 66.0633 37.6561C66.0633 37.8824 65.8371 38.3349 65.8371 38.5611L65.1584 39.6923C63.5747 39.0136 62.4434 37.2036 61.7647 34.9412C61.7647 34.7149 61.5385 34.2625 61.5385 34.0362C61.7647 33.5837 62.2172 33.1312 62.4434 32.905C63.1222 32.4525 63.1222 32.4525 63.5747 32C63.8009 31.7738 63.8009 31.5475 64.0271 31.3213C65.3846 29.9638 66.5158 28.6064 67.4208 27.2489C67.8733 26.7964 68.0995 26.5702 68.552 26.1177C68.7783 25.4389 69.2308 24.7602 69.457 24.0815C69.9095 23.4027 70.1357 22.724 70.1357 22.2715C70.1357 21.3665 69.6833 20.914 69.2308 20.4616C69.2308 20.4616 69.2308 20.4616 69.0045 20.4616C69.0045 20.2353 68.7783 20.0091 68.552 19.7828H68.3258C68.0995 19.7828 68.0995 20.0091 68.0995 20.0091C68.0995 20.2353 68.0995 20.4616 68.0995 20.4616C68.0995 20.914 67.8733 21.1403 67.6471 21.3665C67.4208 22.0453 67.1946 22.724 66.7421 23.1765C66.5158 23.4027 66.5158 23.629 66.2896 24.0815C66.0633 24.534 65.6109 24.9864 65.1584 25.6652C65.1584 25.6652 64.9321 25.6652 64.9321 25.8914C64.2534 26.7964 63.5747 27.7014 62.6697 28.6064C62.4434 28.8326 62.2172 29.0588 61.991 29.2851C61.5385 29.9638 61.086 30.4163 60.4072 31.095C60.4072 30.8688 60.4072 30.8688 60.4072 30.6425C60.181 29.9638 59.9548 29.2851 59.7285 28.6064C59.7285 28.6064 59.7285 28.6064 59.7285 28.3801C59.7285 28.1539 59.7285 27.9276 59.5023 27.4751L59.276 27.2489C59.276 26.7964 59.0498 26.5702 59.0498 26.3439V26.1177C58.8235 25.2127 58.371 24.3077 57.6923 23.1765C57.4661 22.9502 57.2398 22.724 57.0136 22.4978C56.3348 21.819 55.6561 21.3665 54.9774 21.3665C53.8462 21.3665 53.1674 21.5928 52.7149 21.819C52.4887 21.819 52.2624 22.0453 52.2624 22.2715C52.2624 22.4978 52.2624 22.724 52.2624 22.9502C52.2624 23.1765 52.2624 23.1765 52.2624 23.4027C52.4887 23.4027 52.7149 23.4027 52.9412 23.4027V23.629C53.1674 23.629 52.9412 23.8552 53.1674 23.8552C53.1674 24.0815 53.1674 24.0815 53.1674 24.0815C53.1674 24.0815 53.1674 24.0815 53.1674 24.3077C53.3937 24.3077 53.3937 24.3077 53.3937 24.534L53.6199 24.7602C53.6199 24.9864 53.8462 25.2127 53.8462 25.4389C53.8462 25.6652 53.8462 25.8914 53.8462 26.1177C53.8462 26.1177 53.8462 26.3439 54.0724 26.3439C54.0724 26.5702 54.2986 26.7964 54.2986 27.0226V27.2489V27.4751C54.5249 27.7014 54.7511 28.1539 54.9774 28.3801C54.9774 28.6064 54.9774 28.8326 54.9774 29.0588V29.2851C54.9774 29.2851 54.9774 29.2851 55.2036 29.5113C55.2036 29.7376 54.9774 29.9638 55.2036 30.1901L55.4299 30.4163C55.4299 30.4163 55.4299 30.4163 55.4299 30.6425C55.6561 30.6425 55.6561 30.8688 55.6561 31.095C55.8824 31.3213 55.8824 31.7738 56.1086 32.2263C56.1086 32.4525 56.1086 32.6787 56.1086 32.905C56.3348 33.1312 56.3348 33.3575 56.5611 33.5837C56.5611 33.81 56.7873 34.0362 56.7873 34.2625H56.5611C56.5611 34.4887 56.3348 34.4887 56.3348 34.4887C55.6561 34.9412 54.9774 35.3937 54.5249 35.8462C54.2986 36.0724 54.2986 36.0724 54.0724 36.2987C52.9412 36.9774 52.0362 37.6561 50.905 38.1086ZM51.81 0.325806C37.5566 0.325806 25.1131 3.49323 21.7195 11.8643C18.7783 18.6516 14.4796 18.6516 8.82353 21.3665C3.39367 23.8552 0 28.3801 0 35.3937C0 50.7783 16.9683 62.543 44.3439 62.543C73.9819 62.543 100 49.4208 100 27.4751C100 15.7104 88.6878 0.325806 51.81 0.325806Z" fill="#EB2629"/>
</g>
<defs>
<clipPath id="clip0_361_1737">
<rect width="100" height="63" fill="white"/>
</clipPath>
</defs>
</svg>
