<?xml version="1.0" encoding="UTF-8"?>
<!DOCTYPE svg PUBLIC "-//W3C//DTD SVG 1.1//EN" "http://www.w3.org/Graphics/SVG/1.1/DTD/svg11.dtd">
<!-- Creator: CorelDRAW 2021 (64-Bit) -->
<svg xmlns="http://www.w3.org/2000/svg" xml:space="preserve" width="20.1185mm" height="5.5652mm" version="1.1" style="shape-rendering:geometricPrecision; text-rendering:geometricPrecision; image-rendering:optimizeQuality; fill-rule:evenodd; clip-rule:evenodd"
viewBox="0 0 2011.86 556.52"
 xmlns:xlink="http://www.w3.org/1999/xlink"
 xmlns:xodm="http://www.corel.com/coreldraw/odm/2003">
 <defs>
  <style type="text/css">
   <![CDATA[
    .fil0 {fill:#4A5161;fill-rule:nonzero}
   ]]>
  </style>
 </defs>
 <g id="Слой_x0020_1">
  <metadata id="CorelCorpID_0Corel-Layer"/>
  <g id="_2014429534432">
   <path class="fil0" d="M346.22 291.37c-1.42,-27.38 -5.47,-53.34 -10.95,-77.21 -2.38,-10.43 -5.02,-20.44 -7.87,-30.01 -1.1,-3.78 -2.22,-7.51 -3.4,-11.16 -0.9,-2.77 -1.74,-5.24 -2.52,-7.48 -6.68,-19.83 -13.81,-37.35 -20.32,-51.61 -12.48,-27.27 -22.62,-43.17 -22.62,-43.17 0,0 -10.93,14.87 -24.12,38.96 -5.63,10.25 -11.64,22.15 -17.41,35.27 -3.79,8.61 -7.45,17.74 -10.82,27.3 -3.72,10.47 -7.08,21.46 -9.78,32.76 -0.14,0.59 -0.25,1.19 -0.37,1.78 -4.24,21.17 -7.33,46.73 -6.83,75.37 0.13,3.37 0.31,6.71 0.54,10.04 4.11,51.27 20.7,111.46 60.16,178.27 2.16,3.7 4.43,7.42 6.76,11.16 0.52,0.7 0.85,1.22 1.14,1.5 -0.28,-0.59 -0.68,-1.38 -1.34,-2.88 -6.83,-17.93 -29.49,-87.86 1.43,-160.06 0.2,-0.48 0.42,-0.96 0.64,-1.44 0.52,1.19 1.06,2.39 1.53,3.6 32.37,75.56 5.15,147.46 -0.47,160.78 0.35,-0.4 0.72,-0.79 1.08,-1.21 0.27,-0.32 0.56,-0.62 0.82,-0.95 0.05,-0.02 0.07,-0.04 0.1,-0.06 23.05,-26 38.73,-53.06 49.11,-79.58 13.01,-36.28 16.85,-74.14 15.51,-109.97z"/>
   <path class="fil0" d="M412.07 35.12c-39.91,-22.37 -85.91,-35.12 -134.87,-35.12 -153.1,0 -277.2,124.59 -277.2,278.27 0,153.67 124.1,278.25 277.2,278.25 153.1,0 277.19,-124.58 277.19,-278.25 0,-49.46 -12.85,-95.9 -35.39,-136.16l-30.12 17.61c20.57,36.59 32.34,78.84 32.34,123.85 0,139.32 -112.51,252.27 -251.31,252.27 -138.81,0 -251.31,-112.95 -251.31,-252.27 0,-139.33 112.5,-252.28 251.31,-252.28 45.89,0 88.86,12.38 125.89,33.91l-18.84 34.84 98.26 -2.56 -51.34 -84.14 -11.81 21.78z"/>
   <g>
    <polygon class="fil0" points="1364.79,329.77 1364.79,158.72 1322.33,158.72 1322.33,397.9 1361.61,397.9 1476.23,226.85 1476.23,397.9 1518.68,397.9 1518.68,158.72 1479.41,158.72 "/>
    <polygon class="fil0" points="811.46,255.95 714.33,255.95 714.33,158.71 676.52,158.71 676.52,397.9 714.33,397.9 714.33,292.67 811.46,292.67 811.46,397.9 849.27,397.9 849.27,158.71 811.46,158.71 "/>
    <polygon class="fil0" points="1117.8,158.72 1117.8,397.9 1160.86,397.9 1160.86,195.44 1246.42,195.44 1246.42,397.9 1289.5,397.9 1289.5,158.72 "/>
    <polygon class="fil0" points="1679.2,195.44 1685.24,158.72 1553.39,158.72 1553.39,397.9 1596.31,397.9 1596.31,195.44 "/>
    <path class="fil0" d="M2010.34 313.52c-1.02,-5.4 -2.76,-10.74 -5.17,-15.9 -2.44,-5.18 -5.68,-10.15 -9.59,-14.73 -3.68,-4.3 -8.22,-8.09 -13.19,-11.01 8.6,-6.72 14.68,-14.32 18.05,-22.6 3.52,-8.66 5.3,-17.81 5.3,-27.22 0,-7.84 -1.32,-15.86 -3.93,-23.84 -2.62,-8.05 -6.9,-15.43 -12.67,-21.92 -5.77,-6.51 -13.27,-11.86 -22.24,-15.92 -8.97,-4.06 -19.91,-6.12 -32.49,-6.12 -12.74,0 -23.84,1.93 -32.99,5.77 -9.18,3.82 -16.85,8.96 -22.85,15.24 -5.99,6.29 -10.45,13.51 -13.3,21.45 -2.82,7.87 -4.25,16.07 -4.25,24.4l0 11.61 39.02 0 0 -7.09c0.17,-5.44 0.79,-10.5 1.81,-15.05 0.95,-4.24 2.65,-7.91 5.05,-10.89 2.35,-2.9 5.71,-5.19 10,-6.77 4.46,-1.64 10.36,-2.49 17.51,-2.49 5.3,0 9.88,0.91 13.6,2.69 3.8,1.82 6.98,4.18 9.5,7.01 2.48,2.79 4.32,6.12 5.44,9.88 1.17,3.9 1.76,7.96 1.76,12.04 0,4.71 -0.64,9.25 -1.9,13.48 -1.23,4.09 -3.17,7.69 -5.77,10.71 -2.57,2.99 -6.06,5.42 -10.33,7.22 -4.34,1.83 -9.74,2.76 -16.08,2.76l-25.47 0 0 36.17 25.47 0c7.12,0 13.28,0.99 18.33,2.95 4.97,1.93 9.14,4.66 12.39,8.08 3.24,3.44 5.65,7.46 7.14,11.95 1.54,4.61 2.32,9.65 2.32,14.97 0,10.23 -3.15,18.57 -9.64,25.5 -6.31,6.8 -16.3,10.23 -29.67,10.23 -2.84,0 -5.87,-0.39 -8.99,-1.16 -3.17,-0.79 -6.3,-1.89 -9.32,-3.28 -3.05,-1.42 -5.89,-2.99 -8.45,-4.69 -2.48,-1.61 -4.63,-3.41 -6.35,-5.29 -4.25,-4.8 -6.85,-9.62 -7.7,-14.3 -0.93,-5.03 -1.4,-10.89 -1.4,-17.43l0 -6.25 -39 -4.12 0 8.16c0,9.68 1.1,19.26 3.26,28.49 2.24,9.52 7.26,18.78 14.92,27.53 3.42,3.94 7.56,7.67 12.28,11.06 4.7,3.36 9.84,6.37 15.3,8.96 5.48,2.59 11.45,4.69 17.74,6.2 6.32,1.52 12.76,2.3 19.16,2.3 13.54,0 25.39,-2.21 35.24,-6.58 9.82,-4.36 18.07,-10.06 24.53,-16.97 6.46,-6.91 11.32,-14.86 14.44,-23.65 3.11,-8.7 4.7,-17.45 4.7,-25.98 0,-4.99 -0.52,-10.22 -1.52,-15.56z"/>
    <path class="fil0" d="M1721.92 287.67l25.62 -67.4 25.64 67.4 -51.26 0zm9.07 -128.95l-90.95 239.19 39.96 0 27.9 -73.4 79.27 0 27.93 73.4 39.95 0 -90.95 -239.19 -33.11 0z"/>
    <polygon class="fil0" points="926.28,329.77 926.28,158.72 883.81,158.72 883.81,397.9 923.09,397.9 1037.72,226.85 1037.72,397.9 1080.18,397.9 1080.18,158.72 1040.91,158.72 "/>
   </g>
  </g>
 </g>
</svg>
