<svg width="100" height="63" viewBox="0 0 100 63" fill="none" xmlns="http://www.w3.org/2000/svg">
<g clip-path="url(#clip0_361_1450)">
<path fill-rule="evenodd" clip-rule="evenodd" d="M35.2818 15.3602C31.524 16.1952 29.0188 14.9426 29.0188 12.855C28.81 10.5585 31.3152 8.26205 35.0731 7.42698C38.6221 6.59191 41.1273 7.63575 41.3361 9.9322C41.3361 12.2286 39.0397 14.5251 35.2818 15.3602ZM50.9395 38.1159C51.1482 37.6984 50.9395 37.2808 50.5219 37.0721C50.5219 36.6545 50.3132 36.4458 50.3132 36.0282C50.3132 35.8195 50.3132 35.6107 50.1044 35.6107C49.8956 34.9844 49.4781 34.3581 48.8518 33.9405C48.643 33.7318 48.4342 33.523 48.2255 33.3142C48.0167 33.1055 48.0167 33.1055 47.8079 32.8967C47.8079 32.8967 47.5992 32.8967 47.3904 32.8967C47.1816 32.6879 46.9729 32.4792 46.7641 32.2704C46.5553 32.2704 46.5553 32.2704 46.5553 32.2704C46.1378 31.8529 45.5115 31.6441 44.8852 31.6441C44.8852 31.4353 44.6764 31.4353 44.6764 31.4353C44.2589 31.4353 43.8413 31.2266 43.4238 31.2266C43.4238 31.2266 43.4238 31.2266 43.215 31.0178C42.7975 31.0178 42.38 31.0178 42.1712 31.0178C41.7537 31.0178 41.5449 31.0178 41.3361 31.0178C41.3361 30.809 41.3361 30.809 41.3361 30.809C41.5449 30.6003 41.7537 30.6003 41.7537 30.6003C42.5887 30.3915 43.215 29.974 43.8413 29.5564H44.0501C44.0501 29.3476 44.2589 29.3476 44.2589 29.3476C44.6764 29.1389 44.8852 29.1389 45.0939 28.9301C45.5115 28.7213 45.7203 28.5126 45.929 28.095C46.9729 27.26 47.8079 26.4249 48.2255 25.381C48.2255 25.1723 48.4342 25.1723 48.4342 25.1723C48.643 24.7547 48.8518 24.1284 48.8518 23.5021C48.8518 23.2934 48.8518 23.0846 48.643 22.8758V22.6671C48.4342 22.2495 48.2255 21.832 47.8079 21.4145C46.9729 20.3706 45.5115 19.5355 43.6326 19.118C43.0063 18.9092 42.38 18.7005 41.9624 18.7005C41.3361 18.4917 40.501 18.7005 39.8747 18.7005H39.666C37.7871 18.7005 36.1169 18.9092 34.6555 19.118C34.6555 19.118 34.6555 19.118 34.4468 19.118C33.8205 19.3268 32.9854 19.3268 32.3591 19.7443C32.1503 19.9531 32.1503 19.9531 31.9415 19.9531C31.7328 20.1618 31.7328 20.1618 31.524 20.3706H31.3152C30.0626 20.9969 29.0188 21.832 28.3925 22.4583C28.3925 22.6671 28.3925 22.6671 28.3925 22.6671C27.9749 23.0846 27.5574 23.2934 27.1399 23.7109C27.1399 23.7109 27.1399 23.7109 27.1399 23.9197C27.3486 24.3372 27.3486 24.546 27.5574 24.7547C27.5574 24.9635 27.5574 25.1723 27.5574 25.381C27.5574 25.5898 27.7662 25.5898 27.7662 25.7986C27.9749 26.2161 28.3925 26.6337 28.81 27.0512C29.0188 27.26 29.4363 27.26 29.6451 27.0512C29.8539 27.0512 29.8539 27.0512 29.8539 27.0512C30.0626 27.0512 30.0626 27.0512 30.0626 27.0512C30.4802 26.8424 30.4802 26.4249 30.6889 26.0074L30.8977 25.7986C31.1065 25.5898 31.3152 25.381 31.3152 25.1723C31.7328 24.7547 32.1503 24.3372 32.7766 23.7109C33.1942 23.7109 33.4029 23.5021 33.6117 23.2934C33.8205 23.2934 34.0292 23.2934 34.238 23.0846C34.238 23.0846 34.238 22.8758 34.4468 22.8758C35.6994 22.0408 37.3695 21.6232 39.2484 21.6232C39.4572 21.6232 39.4572 21.6232 39.4572 21.6232C39.666 21.6232 39.8747 21.6232 40.0835 21.6232C40.2923 21.6232 40.501 21.6232 40.9186 21.6232C41.1273 21.832 41.3361 21.832 41.5449 21.832C42.1712 22.0408 42.5887 22.2495 43.0063 22.4583C43.215 22.4583 43.215 22.6671 43.4238 22.6671C43.4238 22.8758 43.4238 22.8758 43.6326 22.8758C43.6326 23.0846 43.8413 23.2934 43.8413 23.5021C43.8413 23.5021 44.0501 23.5021 44.0501 23.7109C44.0501 23.9197 44.2589 24.1284 44.2589 24.1284C44.2589 24.3372 44.2589 24.3372 44.2589 24.3372C44.2589 25.1723 43.8413 26.0074 43.0063 26.6337C42.5887 27.0512 42.1712 27.26 41.7537 27.6775C41.5449 27.8863 41.3361 27.8863 41.3361 28.095C41.1273 28.095 41.1273 28.095 40.9186 28.095C40.501 27.8863 40.2923 28.5126 39.8747 28.7213C39.4572 28.9301 39.0397 29.1389 38.6221 29.1389C38.4134 29.3476 38.2046 29.3476 37.7871 29.3476C37.7871 29.3476 37.7871 29.5564 37.5783 29.5564C36.7432 29.7652 35.6994 29.974 34.8643 30.1827C34.6555 30.1827 34.6555 30.1827 34.4468 30.1827C34.238 30.1827 33.8205 30.3915 33.6117 30.3915C33.4029 30.3915 33.4029 30.3915 33.1942 30.6003C33.1942 30.6003 32.9854 30.3915 32.9854 30.6003C32.7766 30.6003 32.7766 30.6003 32.7766 30.6003C32.3591 30.809 32.3591 31.0178 32.1503 31.4353C31.9415 31.6441 31.7328 31.8529 31.7328 32.0616C31.524 32.2704 31.524 32.6879 31.524 33.1055C31.524 33.1055 31.524 33.3142 31.524 33.523C31.7328 33.7318 31.7328 33.7318 31.9415 33.7318C31.9415 33.7318 31.9415 33.7318 32.1503 33.7318H32.3591C32.3591 33.7318 32.3591 33.7318 32.5678 33.7318C32.7766 33.523 33.1942 33.523 33.6117 33.523C33.8205 33.523 34.0292 33.523 34.238 33.523C34.4468 33.523 34.4468 33.523 34.6555 33.3142C34.8643 33.3142 35.0731 33.3142 35.2818 33.3142C35.6994 33.3142 36.1169 33.3142 36.5344 33.1055C36.952 33.1055 37.3695 33.1055 37.5783 33.1055C37.7871 33.1055 37.7871 33.1055 37.7871 33.1055C37.9958 33.1055 38.2046 33.1055 38.4134 33.1055C38.4134 33.1055 38.4134 33.1055 38.6221 33.1055C38.6221 33.3142 38.8309 33.3142 39.0397 33.3142C39.2484 33.3142 39.2484 33.3142 39.4572 33.3142C39.666 33.523 39.8747 33.523 40.0835 33.523C40.2923 33.3142 40.2923 33.3142 40.2923 33.3142C40.9186 33.523 41.5449 33.523 41.9624 33.7318C42.1712 33.7318 42.38 33.9405 42.38 33.9405C42.5887 33.9405 42.5887 33.9405 42.5887 33.9405C42.5887 33.9405 42.5887 34.1493 42.7975 34.1493C43.215 34.3581 43.6326 34.5669 43.8413 34.7756C44.0501 34.9844 44.4676 34.9844 44.6764 35.4019C45.7203 36.237 46.3466 37.6984 46.3466 39.5773C46.3466 39.7861 46.3466 39.7861 46.3466 39.9948C45.929 39.9948 45.5115 40.4124 45.0939 40.4124C43.6326 40.8299 42.1712 41.0387 40.7098 40.8299C40.501 40.8299 40.2923 40.6211 40.2923 40.6211C40.0835 40.4124 39.8747 40.2036 39.666 40.2036C39.4572 39.9948 39.2484 39.9948 38.8309 39.9948C38.6221 39.9948 38.6221 40.2036 38.4134 40.2036C38.2046 40.2036 38.2046 40.2036 37.9958 40.4124V40.6211C37.9958 41.4562 38.4134 42.2913 39.2484 42.7088C39.8747 42.9176 40.2923 43.3351 41.1273 43.3351C41.1273 43.5439 41.3361 43.5439 41.3361 43.5439C41.5449 43.5439 41.5449 43.5439 41.7537 43.5439H41.9624C42.38 43.5439 42.7975 43.7527 43.215 43.7527C43.4238 43.7527 43.4238 43.5439 43.6326 43.5439C43.6326 43.7527 43.8413 43.7527 43.8413 43.5439C44.4676 43.5439 45.0939 43.5439 45.7203 43.3351C45.5115 43.9614 45.3027 44.379 45.0939 45.0053C44.6764 45.4228 44.4676 45.8403 44.2589 46.2579C44.0501 46.2579 44.0501 46.4666 43.8413 46.4666C43.8413 46.6754 43.6326 46.6754 43.6326 46.6754C43.4238 46.8842 43.4238 46.8842 43.4238 47.0929C43.0063 47.5105 42.7975 48.1368 42.1712 48.5543C41.9624 48.7631 41.7537 48.9719 41.7537 48.9719C41.5449 48.9719 41.3361 49.1806 41.3361 49.1806C41.1273 49.3894 41.1273 49.3894 40.9186 49.5982C40.7098 49.8069 40.2923 50.0157 40.0835 50.2245C39.666 50.4332 39.4572 50.642 39.0397 50.8508C38.6221 51.0595 38.2046 51.2683 37.7871 51.4771C37.3695 51.4771 36.952 51.6859 36.5344 51.6859C36.3257 51.8946 36.1169 52.1034 35.9081 52.1034C35.6994 52.1034 35.6994 52.3122 35.4906 52.3122C34.8643 52.5209 34.238 52.5209 33.6117 52.7297C32.9854 52.7297 32.1503 52.7297 31.524 52.7297C31.3152 52.7297 31.1065 52.7297 31.1065 52.7297C30.8977 52.7297 30.8977 52.9385 30.6889 52.9385C29.6451 52.9385 28.81 52.7297 27.9749 52.5209C27.1399 52.3122 26.7223 52.5209 26.5136 52.3122C26.3048 52.3122 26.5136 52.1034 26.3048 51.8946C26.096 51.6859 25.8873 51.8946 25.6785 51.4771C25.4697 51.2683 25.4697 51.0595 25.261 51.0595C24.8434 51.0595 24.4259 51.2683 24.2171 50.8508C24.2171 50.642 24.4259 50.4332 24.2171 50.2245C24.2171 50.0157 24.0084 49.5982 23.7996 49.5982C23.7996 49.3894 24.0084 49.3894 24.0084 49.1806C24.0084 49.1806 24.0084 49.1806 23.7996 49.1806C23.5908 48.9719 23.7996 48.7631 23.5908 48.5543C23.5908 48.5543 23.382 48.3456 23.1733 48.1368C23.1733 47.7193 23.5908 47.5105 23.7996 47.3017C23.7996 47.0929 23.7996 46.8842 23.7996 46.8842C23.5908 46.4666 22.9645 46.4666 23.382 45.8403C23.5908 45.4228 24.0084 45.0053 24.2171 44.7965C25.261 42.0825 27.9749 40.6211 30.2714 39.9948C30.2714 39.7861 30.4802 39.7861 30.4802 39.7861C29.8539 39.1598 29.4363 38.1159 29.2276 38.1159C29.2276 37.9071 28.1837 37.0721 27.9749 37.0721C27.3486 37.0721 27.1399 36.8633 26.3048 37.0721C26.3048 36.8633 26.096 36.8633 26.096 36.6545C25.8873 36.6545 25.6785 36.6545 25.6785 36.6545C25.0522 36.6545 24.6347 36.6545 24.2171 36.8633C24.0084 36.8633 23.7996 36.8633 23.7996 36.8633C23.382 36.8633 23.1733 37.0721 22.7557 37.0721C22.7557 37.0721 22.7557 37.0721 22.547 37.0721C22.547 37.0721 22.3382 37.2808 22.1294 37.2808C21.7119 37.2808 21.2944 37.4896 21.0856 37.6984C20.6681 37.6984 20.4593 38.1159 20.0418 38.3247C19.6242 38.5335 18.9979 38.951 18.3716 39.1598C18.3716 39.1598 18.3716 39.3685 18.1628 39.3685C18.1628 39.3685 18.1628 39.3685 18.1628 39.5773C17.9541 39.7861 17.7453 39.7861 17.7453 39.9948C17.119 40.8299 16.2839 41.8737 15.8664 43.5439C15.8664 43.7527 15.6576 43.9614 15.6576 44.1702C15.6576 44.379 15.6576 44.379 15.6576 44.379C15.6576 44.379 15.6576 44.5877 15.6576 44.7965C15.6576 45.214 15.4489 45.6316 15.4489 46.0491C15.4489 46.4666 15.6576 46.8842 15.6576 47.3017C15.6576 47.5105 15.6576 47.7193 15.6576 47.928C15.8664 48.3456 15.8664 48.7631 16.0752 48.9719C16.0752 49.5982 16.2839 50.2245 16.7015 50.642C16.7015 50.8508 16.9102 50.8508 16.9102 50.8508C17.119 51.4771 17.5365 51.8946 17.9541 52.3122C20.2505 54.6086 23.5908 55.8612 28.1837 56.07C28.3925 56.2788 28.6013 56.2788 29.0188 56.4875H29.2276H29.8539C30.0626 56.4875 30.2714 56.4875 30.4802 56.4875C30.6889 56.2788 30.6889 56.2788 30.8977 56.2788C31.1065 56.2788 31.1065 56.07 31.1065 56.07C31.3152 56.07 31.524 56.07 31.524 56.07C32.1503 56.07 32.7766 56.2788 33.1942 56.07L33.4029 55.8612C34.0292 55.8612 34.4468 55.6524 35.0731 55.6524C35.6994 55.6524 36.3257 55.4437 36.952 55.4437C37.1608 55.4437 37.3695 55.2349 37.5783 55.2349C37.5783 55.2349 37.7871 55.2349 37.9958 55.0261C38.4134 54.8174 39.0397 54.6086 39.4572 54.3998C39.666 54.1911 39.666 54.1911 39.8747 53.9823C40.0835 53.9823 40.0835 53.9823 40.2923 53.9823C40.501 53.9823 40.7098 53.7735 40.9186 53.7735C41.3361 53.356 41.9624 53.1472 42.38 52.9385C42.5887 52.7297 42.7975 52.7297 43.0063 52.5209C43.4238 52.3122 43.8413 51.8946 44.2589 51.4771C44.4676 51.4771 44.6764 51.2683 44.8852 51.0595C45.3027 50.642 45.7203 50.2245 46.1378 49.8069C46.5553 49.3894 46.9729 49.1806 47.3904 48.7631C47.5992 48.5543 47.8079 48.3456 48.0167 48.1368C48.0167 47.928 48.0167 47.928 48.2255 47.7193C48.2255 47.5105 48.4342 47.5105 48.4342 47.3017C48.8518 46.8842 49.0605 46.4666 49.2693 46.0491C49.4781 45.6316 49.6868 45.214 49.8956 44.7965C50.1044 44.379 50.1044 43.9614 50.3132 43.5439C50.3132 43.3351 50.3132 43.3351 50.5219 43.3351C50.7307 42.7088 50.9395 42.2913 50.9395 41.665C51.357 41.665 51.5658 41.4562 51.9833 41.2474C53.0271 40.8299 53.8622 40.2036 54.6973 39.5773C55.1148 39.3685 55.3236 39.1598 55.7411 38.7422C56.5762 38.3247 57.4113 37.6984 58.0376 37.0721C58.2463 37.2808 58.4551 37.4896 58.4551 37.6984C58.6639 38.1159 58.8727 38.3247 59.0814 38.5335C59.0814 38.7422 59.2902 38.951 59.499 38.951V39.1598C59.9165 39.3685 60.1253 39.7861 60.5428 39.9948C60.5428 40.2036 60.7516 40.4124 60.9603 40.6211C61.1691 40.8299 61.5866 41.0387 61.7954 41.0387C62.0042 41.0387 62.2129 41.0387 62.2129 41.0387C62.8392 41.2474 63.2568 41.4562 63.8831 41.4562C64.0919 41.4562 64.0919 41.4562 64.3006 41.2474C64.0919 41.4562 64.0919 41.665 64.0919 41.8737L63.8831 42.0825C63.4656 42.9176 63.2568 43.5439 62.8392 44.1702C62.4217 44.7965 62.0042 45.4228 61.7954 46.0491C61.7954 46.0491 61.7954 46.2579 61.7954 46.4666C61.3779 46.8842 61.1691 47.3017 60.9603 47.928C60.7516 48.1368 60.7516 48.3456 60.5428 48.5543C60.5428 48.5543 60.334 48.7631 60.334 48.9719C60.334 48.9719 60.334 49.1806 60.1253 49.3894C60.1253 49.8069 59.9165 50.0157 59.7077 50.4332C59.7077 50.4332 59.499 50.642 59.499 50.8508C59.2902 51.2683 59.0814 51.6859 59.0814 52.1034C58.8727 52.7297 58.6639 53.1472 58.4551 53.7735C58.4551 53.9823 58.2463 54.1911 58.2463 54.3998C58.2463 54.8174 58.2463 55.0261 58.4551 55.4437C58.4551 55.6524 58.4551 55.6524 58.4551 55.6524C58.4551 55.8612 58.6639 55.8612 58.6639 55.8612C58.8727 56.2788 59.0814 56.4875 59.499 56.6963C59.499 56.6963 59.499 56.6963 59.499 56.9051C59.7077 56.9051 59.9165 56.9051 60.334 56.9051V56.6963C60.334 56.4875 60.334 56.4875 60.334 56.4875C60.7516 55.6524 60.9603 55.0261 61.3779 54.1911C61.5866 53.7735 61.7954 53.356 62.0042 52.9385C62.0042 52.7297 62.0042 52.5209 62.2129 52.1034C62.4217 51.4771 62.8392 50.642 63.2568 49.8069C63.4656 49.5982 63.6743 49.3894 63.6743 49.1806C63.8831 48.7631 64.0919 48.5543 64.0919 48.1368C64.5094 47.3017 64.9269 46.6754 65.3445 45.8403C65.5532 45.4228 65.9708 45.214 66.1795 44.7965C66.3883 44.379 66.3883 43.9614 66.5971 43.5439C67.0146 43.1264 67.2234 42.5 67.6409 42.0825C68.2672 41.0387 68.8935 39.9948 69.5198 38.951C69.5198 38.7422 69.7286 38.5335 69.7286 38.3247C69.9374 38.5335 70.1461 38.7422 70.3549 38.7422C70.7724 39.5773 71.3987 39.9948 72.2338 40.2036C72.6514 40.4124 72.8601 40.6211 73.0689 40.8299C73.2777 40.8299 73.4864 41.0387 73.4864 41.0387C73.6952 41.2474 73.904 41.4562 74.1127 41.4562C74.1127 41.665 74.3215 41.665 74.5303 41.665C74.739 41.8737 74.739 42.0825 74.9478 42.2913H75.1566C75.3653 42.2913 75.5741 42.2913 75.7829 42.2913C75.9916 42.2913 76.2004 42.5 76.4092 42.5C76.4092 42.7088 76.618 42.7088 76.618 42.7088C77.0355 42.7088 77.2443 42.7088 77.6618 42.9176C78.0793 42.9176 78.4969 43.1264 78.9144 43.1264C79.1232 43.3351 79.5407 43.3351 79.9582 43.3351C79.9582 43.5439 80.167 43.5439 80.3758 43.5439C80.5846 43.7527 81.0021 43.7527 81.4196 43.7527C81.4196 43.7527 81.6284 43.5439 81.8372 43.5439C83.0898 43.3351 85.1775 43.1264 86.6388 43.1264C86.8476 43.1264 86.8476 42.9176 87.0564 42.9176C87.6827 42.7088 88.309 42.5 88.5177 42.2913C92.9019 40.2036 94.3633 36.237 94.3633 34.7756C94.3633 34.3581 94.3633 33.9405 94.1545 33.7318C94.1545 33.523 93.5282 33.523 93.5282 33.7318C92.9019 34.9844 91.6493 37.0721 89.144 38.5335C89.144 38.5335 89.144 38.5335 88.9353 38.5335C88.7265 38.7422 88.5177 38.951 88.1002 38.951C88.1002 38.951 87.8914 38.951 87.6827 38.951C87.6827 39.1598 87.4739 39.1598 87.4739 39.1598C87.2651 39.1598 87.2651 39.1598 87.0564 39.1598C86.8476 39.1598 86.4301 39.3685 86.2213 39.3685C85.8038 39.3685 85.595 39.1598 85.1775 39.3685C84.9687 39.3685 84.7599 39.5773 84.5511 39.5773H84.3424C83.9248 39.5773 83.5073 39.3685 82.881 39.3685H82.6722C79.1232 38.7422 76.618 36.6545 75.3653 35.1932C77.0355 34.9844 78.9144 34.5669 80.5846 33.9405C80.7933 33.9405 81.2109 33.9405 81.4196 33.7318C81.8372 33.523 82.4635 33.3142 82.881 33.1055C83.2985 33.1055 83.5073 33.1055 83.5073 32.8967C83.7161 32.8967 83.7161 32.8967 83.7161 32.6879C83.9248 32.6879 84.1336 32.6879 84.1336 32.4792C84.1336 32.6879 84.3424 32.6879 84.3424 32.6879C84.5511 32.4792 84.7599 32.4792 84.9687 32.4792C84.9687 32.2704 85.1775 32.2704 85.1775 32.2704C85.3862 32.2704 85.3862 32.2704 85.595 32.0616C85.8038 31.8529 86.2213 31.6441 86.4301 31.4353V31.2266C86.8476 31.0178 87.0564 30.809 87.4739 30.6003C87.4739 30.6003 87.6827 30.6003 87.8914 30.3915C87.8914 30.1827 88.309 30.1827 88.309 29.974V29.7652C89.5616 28.7213 90.1879 27.4687 90.1879 26.2161C90.1879 24.7547 89.3528 23.9197 88.7265 23.5021C88.309 23.0846 87.8914 23.2934 87.6827 23.5021C87.4739 23.7109 87.0564 23.9197 86.8476 24.1284C86.6388 24.3372 86.6388 24.546 86.4301 24.546C86.0125 24.9635 85.8038 25.381 85.3862 25.7986C85.1775 26.0074 85.1775 26.2161 84.9687 26.4249C84.7599 26.4249 84.7599 26.6337 84.5511 26.8424C83.9248 27.26 83.5073 27.8863 82.881 28.3038C82.6722 28.3038 82.4635 28.5126 82.2547 28.5126C82.2547 28.5126 82.0459 28.7213 82.0459 28.9301C81.8372 28.9301 81.8372 28.9301 81.8372 28.9301C81.8372 29.1389 81.6284 29.1389 81.6284 29.1389C81.4196 29.1389 81.4196 29.3476 81.2109 29.3476C81.0021 29.5564 80.7933 29.7652 80.3758 29.974H80.167C80.167 30.1827 79.9582 30.1827 79.7495 30.3915C77.6618 31.8529 75.1566 32.8967 72.8601 33.3142C73.4864 32.4792 73.904 31.8529 74.3215 31.2266C74.3215 31.0178 74.3215 31.0178 74.5303 31.0178C74.5303 30.809 74.739 30.809 74.739 30.6003C74.9478 30.3915 74.9478 30.3915 74.9478 30.1827C74.9478 30.1827 74.9478 30.1827 74.9478 29.974C75.3653 29.5564 75.7829 28.9301 75.9916 28.3038C76.2004 28.095 76.2004 28.095 76.4092 27.8863C76.618 27.4687 77.0355 26.8424 77.453 26.4249C77.8706 25.5898 78.2881 24.546 78.9144 23.7109C79.1232 23.2934 79.3319 22.8758 79.5407 22.4583C79.7495 22.0408 79.9582 21.832 79.9582 21.4145C80.3758 20.9969 80.7933 20.3706 80.7933 19.9531C81.2109 19.3268 81.2109 18.9092 81.4196 18.4917C81.6284 18.4917 81.6284 18.4917 81.6284 18.4917C81.6284 18.4917 81.6284 18.4917 81.6284 18.2829C81.6284 18.0742 81.8372 17.8654 81.8372 17.6566C81.8372 17.4479 82.0459 17.4479 82.0459 17.2391C82.2547 17.0303 82.2547 16.8216 82.2547 16.6128C82.2547 15.9865 82.4635 15.5689 82.4635 15.1514C82.4635 14.7339 82.4635 14.3163 82.2547 14.1076C82.2547 14.1076 82.2547 14.1076 82.2547 13.8988C82.2547 13.4813 81.8372 13.0637 81.6284 12.855C81.2109 12.2286 80.5846 12.0199 80.167 11.8111C79.9582 11.8111 79.9582 11.8111 79.9582 11.8111C79.7495 11.8111 79.7495 11.8111 79.5407 11.8111L79.3319 11.6023C79.1232 11.6023 79.1232 11.6023 78.9144 11.6023C78.7056 11.6023 78.7056 11.8111 78.7056 11.8111C78.4969 12.0199 78.2881 12.2286 78.2881 12.4374C78.2881 12.6462 78.2881 12.855 78.2881 12.855C78.4969 13.2725 78.2881 13.69 78.2881 13.8988C78.0793 14.5251 77.6618 15.1514 77.453 15.7777C77.2443 15.9865 77.2443 15.9865 77.2443 16.1952C77.2443 16.404 77.2443 16.404 77.0355 16.6128V16.8216C76.8267 17.0303 77.0355 17.2391 77.0355 17.4479C76.8267 17.8654 76.4092 18.4917 76.2004 18.9092C76.2004 19.118 75.9916 19.118 75.9916 19.3268C75.7829 19.5355 75.7829 19.5355 75.7829 19.5355C75.5741 19.7443 75.5741 19.9531 75.5741 20.1618C75.1566 20.9969 74.739 21.832 74.3215 22.4583C74.1127 22.8758 73.904 23.2934 73.6952 23.7109C73.6952 24.1284 73.4864 24.3372 73.2777 24.7547C73.0689 24.9635 73.0689 25.1723 72.8601 25.1723C72.8601 25.5898 72.6514 25.7986 72.6514 26.2161C72.6514 26.2161 72.6514 26.4249 72.4426 26.4249C72.4426 26.6337 72.4426 26.6337 72.2338 26.8424C71.8163 27.4687 71.3987 28.095 71.19 28.7213C71.19 28.9301 70.9812 28.9301 70.9812 29.1389C70.5637 29.974 70.1461 30.809 69.7286 31.4353C69.3111 32.0616 68.8935 32.6879 68.476 33.523C68.2672 33.9405 68.0585 34.3581 68.0585 34.7756C67.6409 35.4019 67.4321 35.8195 67.2234 36.237C66.8058 36.6545 66.3883 37.0721 66.1795 37.6984C66.1795 38.1159 65.9708 38.3247 65.9708 38.5335L65.3445 39.7861C63.6743 38.951 62.6305 37.2808 61.7954 34.9844C61.7954 34.7756 61.5866 34.3581 61.5866 33.9405C62.0042 33.7318 62.2129 33.3142 62.6305 32.8967C63.048 32.4792 63.2568 32.4792 63.6743 32.0616C63.8831 31.8529 63.8831 31.6441 64.0919 31.4353C65.3445 29.974 66.5971 28.5126 67.4321 27.26C67.8497 26.8424 68.2672 26.4249 68.476 26.0074C68.8935 25.381 69.3111 24.7547 69.5198 24.1284C69.9374 23.2934 70.3549 22.6671 70.3549 22.2495C70.3549 21.4145 69.7286 20.7881 69.3111 20.5794C69.3111 20.3706 69.3111 20.3706 69.1023 20.3706C69.1023 20.1618 68.8935 19.9531 68.6848 19.9531C68.476 19.7443 68.476 19.7443 68.476 19.7443C68.2672 19.7443 68.0585 19.9531 68.0585 20.1618C68.0585 20.1618 68.0585 20.3706 68.0585 20.5794C68.0585 20.7881 68.0585 21.2057 67.8497 21.4145C67.4321 22.0408 67.2234 22.6671 66.8058 23.2934C66.8058 23.5021 66.5971 23.7109 66.3883 24.1284C66.1795 24.546 65.762 25.1723 65.3445 25.5898C65.1357 25.7986 65.1357 25.7986 64.9269 25.7986C64.3006 26.8424 63.4656 27.8863 62.8392 28.7213C62.6305 28.9301 62.4217 29.1389 62.2129 29.3476C61.5866 29.974 60.9603 30.3915 60.5428 31.0178C60.5428 31.0178 60.334 30.809 60.334 30.6003C60.1253 29.974 59.9165 29.3476 59.7077 28.7213C59.7077 28.5126 59.7077 28.5126 59.7077 28.5126C59.7077 28.095 59.7077 27.8863 59.499 27.6775C59.499 27.4687 59.499 27.26 59.2902 27.26C59.2902 26.8424 59.0814 26.6337 59.0814 26.2161C58.8727 25.1723 58.2463 24.3372 57.8288 23.2934C57.62 23.0846 57.4113 22.6671 56.9937 22.4583C56.5762 21.832 55.7411 21.4145 54.9061 21.4145C54.071 21.4145 53.2359 21.6232 52.6096 21.832C52.4008 22.0408 52.4008 22.0408 52.4008 22.2495C52.1921 22.6671 52.1921 22.8758 52.1921 23.0846C52.1921 23.0846 52.1921 23.2934 52.4008 23.2934C52.4008 23.5021 52.8184 23.5021 53.0271 23.5021C53.0271 23.7109 53.0271 23.9197 53.2359 23.9197V24.1284C53.2359 24.1284 53.2359 24.1284 53.2359 24.3372C53.4447 24.3372 53.4447 24.3372 53.4447 24.546L53.6534 24.7547C53.8622 24.9635 53.8622 25.381 53.8622 25.5898C54.071 25.7986 54.071 26.0074 54.071 26.2161V26.4249C54.071 26.6337 54.2797 26.8424 54.2797 27.0512V27.26C54.4885 27.4687 54.4885 27.4687 54.4885 27.4687C54.6973 27.8863 54.6973 28.095 54.9061 28.5126C55.1148 28.7213 55.1148 28.9301 55.1148 29.1389C55.1148 29.1389 55.1148 29.1389 55.1148 29.3476C55.1148 29.3476 55.1148 29.3476 55.1148 29.5564C55.3236 29.7652 55.1148 29.974 55.3236 30.1827C55.3236 30.3915 55.3236 30.3915 55.5324 30.3915V30.6003C55.5324 30.809 55.7411 30.809 55.7411 31.0178C55.9499 31.4353 55.9499 31.8529 56.1587 32.2704C56.1587 32.4792 56.1587 32.6879 56.1587 32.8967C56.3674 33.1055 56.5762 33.3142 56.5762 33.7318C56.785 33.9405 56.785 34.1493 56.785 34.3581C56.785 34.3581 56.785 34.3581 56.5762 34.3581L56.3674 34.5669C55.7411 34.9844 55.1148 35.4019 54.4885 36.0282C54.4885 36.0282 54.2797 36.237 54.071 36.4458C53.0271 37.0721 51.9833 37.6984 50.9395 38.1159ZM51.9833 0.328857C37.5783 0.328857 25.261 3.46038 21.7119 12.0199C18.7891 18.7005 14.6138 18.7005 8.76827 21.4145C3.54906 23.9197 0 28.5126 0 35.6107C0 50.8508 16.9102 62.5418 44.4676 62.5418C74.1127 62.5418 100 49.3894 100 27.4687C100 15.7777 88.7265 0.328857 51.9833 0.328857Z" fill="#4A5161"/>
</g>
<defs>
<clipPath id="clip0_361_1450">
<rect width="100" height="63" fill="white"/>
</clipPath>
</defs>
</svg>
