<svg width="121" height="34" viewBox="0 0 121 34" fill="none" xmlns="http://www.w3.org/2000/svg">
<path d="M30.9896 12.7682L29.0379 25.0039C28.9444 25.5648 28.5822 25.892 28.0563 25.892C27.7992 25.892 27.6005 25.8102 27.4836 25.67C27.3434 25.5064 27.3083 25.2727 27.3551 24.9688L29.3067 12.7448C29.4002 12.1722 29.7625 11.8449 30.2884 11.8449C30.5455 11.8449 30.7441 11.9151 30.861 12.067C31.0012 12.2306 31.0363 12.4643 30.9896 12.7682V12.7682ZM30.639 9.22717C27.5771 9.22717 25.6722 10.3958 25.2048 13.1772L23.3934 24.6299C23.0895 27.2009 24.749 28.5332 27.7057 28.5332C30.7675 28.5332 32.6373 27.423 33.1048 24.6533H33.1165L34.9045 13.3408C35.372 10.5594 33.7008 9.23886 30.639 9.23886V9.22717Z" fill="#ED1C24"/>
<path d="M79.5936 28.3345L83.3216 4.80969H79.243L75.515 28.3345H79.5936Z" fill="#ED1C24"/>
<path d="M44.4524 9.35572L44.4758 9.21548C43.0267 9.01681 41.4256 9.32066 40.3855 10.5945L39.6493 9.41415H37.2068L34.2151 28.3228H38.2937L40.5141 14.2874C40.8179 12.3591 42.6527 12.6046 43.8798 12.8967L44.4524 9.34403V9.35572ZM46.2521 4.80969L42.5242 28.3345H46.6027L50.3307 4.80969H46.2521V4.80969Z" fill="#ED1C24"/>
<path d="M56.4778 12.7799L54.5261 25.0156C54.4326 25.5765 54.0704 25.9038 53.5445 25.9038C53.2874 25.9038 53.0887 25.822 52.9718 25.6817C52.8316 25.5181 52.7965 25.2844 52.8433 24.9805L54.7949 12.7565C54.8884 12.1839 55.2507 11.8567 55.7766 11.8567C56.0337 11.8567 56.2207 11.9385 56.3492 12.0787C56.4895 12.2423 56.5245 12.476 56.4778 12.7799V12.7799ZM57.6698 4.82141L56.84 10.0453C56.3025 9.49599 55.461 9.2272 54.3859 9.2272C52.1888 9.2272 51.1487 10.3491 50.7982 12.5462L48.7881 25.2376C48.4375 27.4113 49.5828 28.5332 51.7681 28.5332C53.1588 28.5332 54.1522 28.0774 54.8767 27.1893L55.5779 28.3579H58.0321L61.76 4.8331H57.6815L57.6698 4.82141Z" fill="#ED1C24"/>
<path d="M100.571 9.21545C97.4621 9.21545 95.6156 10.2555 95.1131 13.1655L94.891 14.4159C94.5755 16.1455 94.9612 17.6648 96.3518 18.775L98.7125 20.8785C99.18 21.2642 99.3202 21.7316 99.2618 22.2809L98.8294 25.0038C98.7359 25.5648 98.3736 25.892 97.8477 25.892C97.5906 25.892 97.3919 25.8102 97.2751 25.67C97.1348 25.5064 97.0998 25.2726 97.1465 24.9688L97.6724 21.6732H93.7691L93.2666 24.5948C92.916 27.1892 94.6573 28.5215 97.462 28.5215C100.793 28.5215 102.487 27.4229 102.966 24.6416L103.247 22.9704C103.551 21.2408 103.317 19.5463 101.95 18.4828L99.4371 16.2741C98.9462 15.8884 98.7709 15.456 98.8878 14.8366V14.8133L99.1916 12.7564C99.2851 12.1838 99.6474 11.8566 100.185 11.8566C100.442 11.8566 100.629 11.9384 100.758 12.0786C100.898 12.2422 100.933 12.476 100.886 12.7798L100.442 15.5612H104.415L104.778 13.3758C105.234 10.9567 104.077 9.23883 100.571 9.23883V9.21545Z" fill="#ED1C24"/>
<path d="M111.953 9.21545C108.845 9.21545 106.998 10.2555 106.496 13.1655L106.274 14.4159C105.97 16.1455 106.344 17.6648 107.734 18.775L110.095 20.8785C110.563 21.2642 110.703 21.7316 110.644 22.2809L110.212 25.0038C110.118 25.5648 109.756 25.892 109.23 25.892C108.973 25.892 108.775 25.8102 108.658 25.67C108.517 25.5064 108.482 25.2726 108.529 24.9688L109.055 21.6732H105.152L104.649 24.5948C104.299 27.1892 106.04 28.5215 108.845 28.5215C112.175 28.5215 113.87 27.4229 114.349 24.6416L114.629 22.9704C114.933 21.2408 114.7 19.5463 113.332 18.4828L110.82 16.2741C110.329 15.8884 110.153 15.456 110.27 14.8366V14.8133L110.574 12.7564C110.668 12.1838 111.03 11.8566 111.556 11.8566C111.813 11.8566 112 11.9384 112.129 12.0786C112.269 12.2422 112.304 12.476 112.257 12.7798L111.813 15.5612H115.786L116.149 13.3758C116.604 10.9567 115.447 9.23883 111.942 9.23883L111.953 9.21545Z" fill="#ED1C24"/>
<path d="M87.5052 25.0156C87.4117 25.5765 87.0495 25.9037 86.5236 25.9037C86.2665 25.9037 86.0678 25.8219 85.9509 25.6817C85.8458 25.5648 85.799 25.4012 85.799 25.2025C85.799 25.1324 85.8107 25.0623 85.8224 24.9922L86.3483 21.6732C86.4651 20.9721 86.7807 20.528 87.4234 20.1774L88.37 19.6982L87.5052 25.0389V25.0156ZM89.153 9.22717C86.1029 9.22717 84.1279 10.4075 83.6721 13.1889L83.2981 15.5612H87.3299L87.774 12.7682C87.8675 12.1955 88.2298 11.8683 88.7557 11.8683C89.0128 11.8683 89.1998 11.9501 89.3283 12.0904C89.4686 12.254 89.5036 12.4877 89.4569 12.7915L88.8959 16.4027L85.1446 18.3777C83.3916 19.3009 82.5151 20.528 82.1996 22.4679L81.7555 25.2376C81.4049 27.423 82.5502 28.5332 84.7355 28.5332C86.1262 28.5332 87.0962 28.0774 87.8441 27.1776L88.5453 28.3462H90.9995L93.4069 13.259C93.8627 10.4776 91.9811 9.22717 89.153 9.22717V9.22717Z" fill="#ED1C24"/>
<path d="M72.4883 4.62268C69.4264 4.62268 67.2878 5.87313 66.8437 8.6545L64.3194 24.326C63.8987 27.0139 65.4764 28.5331 68.994 28.5331C71.9624 28.5331 73.9607 27.2944 74.4048 24.5247L75.3164 19.0204H71.1794L71.1677 19.0671L70.2328 24.9337C70.1393 25.5297 69.7653 25.8686 69.216 25.8686C68.9473 25.8686 68.7369 25.7868 68.6084 25.6349C68.4681 25.4596 68.4097 25.2142 68.4681 24.8987L71.1677 8.18705C71.2612 7.59104 71.6351 7.25213 72.1961 7.25213C72.4649 7.25213 72.6752 7.33394 72.8038 7.48586C72.944 7.66116 73.0025 7.90657 72.944 8.21042L72.1493 13.072H76.263L76.9642 8.748C77.4082 5.96662 75.5618 4.62268 72.4999 4.62268H72.4883Z" fill="#ED1C24"/>
<path d="M119.024 13.855L117.189 25.2493C116.721 27.8905 116.149 31.1627 109.92 31.1627H68.9822C65.9788 31.1627 63.9454 30.5082 62.73 29.0007C61.5964 27.5983 61.3159 26.231 61.3159 26.231L60.5329 31.151H27.7057C24.5737 31.151 22.8441 30.2511 21.9326 29.2578C21.9209 29.2461 21.8975 29.2227 21.8858 29.211L21.2898 31.1627H21.2665H2.82525V1.8063H30.2066L28.7925 6.45751H43.0149L43.7512 1.8063H65.1724L64.5297 6.22378L65.5931 5.00839C67.3578 2.97495 69.8704 1.8063 72.4765 1.8063H86.7456L85.9743 6.69124L86.6521 6.53931C87.4234 6.3757 88.2648 6.28221 89.153 6.28221C91.3033 6.28221 93.0446 6.81979 94.3301 7.89494L94.6223 8.14036L94.9261 7.90663C96.3285 6.81979 98.2334 6.28221 100.571 6.28221C102.756 6.28221 104.509 6.8081 105.759 7.85988L106.04 8.1053L106.344 7.88326C107.746 6.83148 109.628 6.2939 111.942 6.2939C114.606 6.2939 116.593 7.0652 117.867 8.60782C118.661 9.5661 119.503 11.249 119.024 13.855V13.855ZM1.01385 32.9974H22.6571L22.8909 32.2378C24.0829 32.8338 25.6606 33.0091 27.7057 33.0091H62.0872L62.3794 31.1977C63.957 32.4248 66.0957 33.0091 68.9822 33.0091H109.92C117.68 33.0091 118.533 28.1826 118.988 25.5532L120.823 14.1706C121.419 10.8867 120.309 8.70131 119.269 7.45086C117.633 5.47585 115.167 4.4825 111.942 4.4825C109.651 4.4825 107.688 4.94996 106.098 5.87319C104.626 4.94996 102.768 4.4825 100.571 4.4825C98.2451 4.4825 96.2701 4.96164 94.6573 5.90825C93.1615 4.96164 91.315 4.4825 89.153 4.4825C88.8258 4.4825 88.4986 4.49419 88.1714 4.51756L88.8842 0.0065918H76.3447H72.4765C70.5716 0.0065918 68.7134 0.520795 67.0773 1.4674L67.2877 0.0065918H42.1852L41.4489 4.6578H31.2467L32.6607 0.0065918H0.990479V33.0091L1.01385 32.9974Z" fill="#ED1C24"/>
<path d="M119.024 13.855L117.189 25.2493C116.721 27.8905 116.149 31.1627 109.92 31.1627H68.9822C65.9788 31.1627 63.9454 30.5082 62.73 29.0007C61.5964 27.5983 61.3159 26.231 61.3159 26.231L60.5329 31.151H27.7057C24.5737 31.151 22.8441 30.2511 21.9326 29.2578C21.9209 29.2461 21.8975 29.2227 21.8858 29.211L21.2898 31.1627H21.2665H2.82525V1.8063H30.2066L28.7925 6.45751H43.0149L43.7512 1.8063H65.1724L64.5297 6.22378L65.5931 5.00839C67.3578 2.97495 69.8704 1.8063 72.4765 1.8063H86.7456L85.9743 6.69124L86.6521 6.53931C87.4234 6.3757 88.2648 6.28221 89.153 6.28221C91.3033 6.28221 93.0446 6.81979 94.3301 7.89494L94.6223 8.14036L94.9261 7.90663C96.3285 6.81979 98.2334 6.28221 100.571 6.28221C102.756 6.28221 104.509 6.8081 105.759 7.85988L106.04 8.1053L106.344 7.88326C107.746 6.83148 109.628 6.2939 111.942 6.2939C114.606 6.2939 116.593 7.0652 117.867 8.60782C118.661 9.5661 119.503 11.249 119.024 13.855V13.855ZM1.01385 32.9974H22.6571L22.8909 32.2378C24.0829 32.8338 25.6606 33.0091 27.7057 33.0091H62.0872L62.3794 31.1977C63.957 32.4248 66.0957 33.0091 68.9822 33.0091H109.92C117.68 33.0091 118.533 28.1826 118.988 25.5532L120.823 14.1706C121.419 10.8867 120.309 8.70131 119.269 7.45086C117.633 5.47585 115.167 4.4825 111.942 4.4825C109.651 4.4825 107.688 4.94996 106.098 5.87319C104.626 4.94996 102.768 4.4825 100.571 4.4825C98.2451 4.4825 96.2701 4.96164 94.6573 5.90825C93.1615 4.96164 91.315 4.4825 89.153 4.4825C88.8258 4.4825 88.4986 4.49419 88.1714 4.51756L88.8842 0.0065918H76.3447H72.4765C70.5716 0.0065918 68.7134 0.520795 67.0773 1.4674L67.2877 0.0065918H42.1852L41.4489 4.6578H31.2467L32.6607 0.0065918H0.990479V33.0091L1.01385 32.9974Z" fill="#ED1C24"/>
<path d="M18.8706 28.2294L26.0928 4.75134H22.0026L18.298 16.6598H18.0292L18.0759 4.75134H13.5767L10.0473 16.6598H9.77856V4.75134H5.75842V28.2294H10.059L14.0792 14.7783H14.348L14.57 28.2294H18.8706Z" fill="#ED1C24"/>
</svg>
