<svg width="121" height="34" viewBox="0 0 121 34" fill="none" xmlns="http://www.w3.org/2000/svg">
<path d="M30.9889 13.7792L29.0415 26.0192C28.9481 26.5792 28.588 26.8992 28.0544 26.8992C27.801 26.8992 27.6009 26.8192 27.4809 26.6725C27.3475 26.5125 27.3075 26.2725 27.3475 25.9792L29.2949 13.7525C29.3883 13.1792 29.7484 12.8592 30.2819 12.8592C30.5354 12.8592 30.7354 12.9392 30.8555 13.0859C30.9889 13.2459 31.0289 13.4859 30.9889 13.7792V13.7792ZM30.6421 10.2459C27.5743 10.2459 25.6802 11.4192 25.2134 14.1925L23.3994 25.6325C23.0926 28.2059 24.7465 29.5259 27.7076 29.5259C30.7755 29.5259 32.6428 28.4192 33.1097 25.6459H33.123L34.9103 14.3392C35.3772 11.5659 33.7099 10.2325 30.6421 10.2325V10.2459Z" fill="#4A5161"/>
<path d="M79.607 29.3392L83.3284 5.81921H79.2469L75.5255 29.3392H79.607Z" fill="#4A5161"/>
<path d="M44.4606 10.3658L44.474 10.2325C43.0201 10.0325 41.4195 10.3391 40.3925 11.6191L39.6588 10.4325H37.2179L34.2168 29.3391H38.2983L40.5258 15.2991C40.8326 13.3658 42.6733 13.6191 43.8871 13.9125L44.4606 10.3658ZM46.2613 5.81912L42.5399 29.3258H46.6215L50.3429 5.80579H46.2613V5.81912Z" fill="#4A5161"/>
<path d="M56.4784 13.7791L54.531 26.0191C54.4377 26.5791 54.0775 26.8991 53.544 26.8991C53.2906 26.8991 53.0905 26.8191 52.9704 26.6725C52.8371 26.5125 52.797 26.2858 52.8371 25.9791L54.7845 13.7525C54.8778 13.1791 55.238 12.8591 55.7715 12.8591C56.0249 12.8591 56.225 12.9391 56.345 13.0858C56.4784 13.2458 56.5184 13.4858 56.4784 13.7791V13.7791ZM57.6655 5.81912L56.8386 11.0458C56.305 10.4991 55.4647 10.2191 54.3843 10.2191C52.1968 10.2191 51.1431 11.3525 50.7963 13.5391L48.7822 26.2191C48.4354 28.3925 49.5692 29.5124 51.7567 29.5124C53.1438 29.5124 54.1309 29.0591 54.8645 28.1658L55.5714 29.3258H58.0257L61.7471 5.80579H57.6655V5.81912Z" fill="#4A5161"/>
<path d="M100.575 10.2192C97.4672 10.2192 95.6265 11.2592 95.1196 14.1659L94.8928 15.4192C94.5861 17.1526 94.9595 18.6592 96.3601 19.7792L98.721 21.8726C99.1878 22.2592 99.3212 22.7259 99.2678 23.2726L98.841 25.9926C98.7476 26.5526 98.3875 26.8726 97.854 26.8726C97.6005 26.8726 97.4005 26.7926 97.2804 26.6459C97.147 26.4859 97.107 26.2459 97.147 25.9526L97.6672 22.6592H93.7591L93.2656 25.5792C92.9054 28.1792 94.6528 29.5126 97.4671 29.5126C100.802 29.5126 102.482 28.4192 102.976 25.6459L103.256 23.9659C103.563 22.2326 103.323 20.5392 101.949 19.4726L99.4412 17.2592C98.9477 16.8726 98.7743 16.4459 98.8944 15.8192V15.7926L99.2011 13.7392C99.2945 13.1659 99.6546 12.8459 100.188 12.8459C100.442 12.8459 100.642 12.9259 100.762 13.0726C100.895 13.2326 100.935 13.4726 100.895 13.7659L100.455 16.5392H104.43L104.79 14.3526C105.243 11.9259 104.096 10.2192 100.575 10.2192V10.2192Z" fill="#4A5161"/>
<path d="M111.953 10.2192C108.845 10.2192 107.004 11.2592 106.497 14.1659L106.271 15.4192C105.964 17.1526 106.337 18.6592 107.738 19.7792L110.099 21.8726C110.565 22.2592 110.699 22.7259 110.646 23.2726L110.219 25.9926C110.125 26.5526 109.765 26.8726 109.232 26.8726C108.978 26.8726 108.778 26.7926 108.658 26.6459C108.525 26.4859 108.485 26.2459 108.525 25.9526L109.045 22.6592H105.137L104.643 25.5792C104.283 28.1792 106.03 29.5126 108.845 29.5126C112.179 29.5126 113.86 28.4192 114.354 25.6459L114.634 23.9659C114.94 22.2326 114.7 20.5392 113.327 19.4726L110.819 17.2592C110.325 16.8726 110.152 16.4459 110.272 15.8192V15.7926L110.579 13.7392C110.672 13.1659 111.032 12.8459 111.566 12.8459C111.819 12.8459 112.019 12.9259 112.139 13.0726C112.273 13.2326 112.313 13.4726 112.273 13.7659L111.833 16.5392H115.807L116.168 14.3526C116.621 11.9259 115.474 10.2192 111.953 10.2192V10.2192Z" fill="#4A5161"/>
<path d="M87.5167 26.0192C87.4234 26.5792 87.0632 26.8992 86.5297 26.8992C86.2763 26.8992 86.0762 26.8192 85.9562 26.6725C85.8495 26.5525 85.8094 26.3925 85.8094 26.1925C85.8094 26.1259 85.8228 26.0592 85.8361 25.9792L86.3696 22.6592C86.4897 21.9659 86.8098 21.5125 87.4501 21.1659L88.3971 20.6859L87.5301 26.0192H87.5167ZM89.1574 10.2325C86.1029 10.2325 84.1288 11.4192 83.6753 14.1925L83.3018 16.5659H87.33L87.7702 13.7659C87.8635 13.1925 88.2237 12.8725 88.7572 12.8725C89.0106 12.8725 89.2107 12.9525 89.3308 13.0992C89.4641 13.2592 89.5042 13.4992 89.4641 13.7925L88.9039 17.3925L85.1559 19.3792C83.3952 20.2992 82.5282 21.5259 82.2081 23.4725L81.7679 26.2459C81.4211 28.4325 82.5682 29.5392 84.7424 29.5392C86.1296 29.5392 87.1033 29.0725 87.8502 28.1925L88.5571 29.3525H91.0114L93.4123 14.2725C93.8791 11.4992 91.9851 10.2459 89.1574 10.2459V10.2325Z" fill="#4A5161"/>
<path d="M72.4844 5.6326C69.4166 5.6326 67.2824 6.88593 66.8423 9.65926L64.3213 25.3259C63.9078 28.0059 65.4684 29.5259 68.9897 29.5393C71.9509 29.5393 73.9649 28.2993 74.4051 25.5259L75.3255 20.0193H71.1906V20.0593L70.2569 25.9259C70.1635 26.5259 69.79 26.8593 69.2298 26.8593C68.9631 26.8593 68.7497 26.7793 68.6163 26.6193C68.4695 26.4459 68.4162 26.2059 68.4695 25.8859L71.1639 9.17926C71.2573 8.57926 71.6307 8.24593 72.1909 8.24593C72.4577 8.24593 72.6711 8.32593 72.8045 8.48593C72.9512 8.65926 73.0046 8.89926 72.9512 9.21926L72.1509 14.0726H76.2725L76.9794 9.73926C77.4196 6.96593 75.5789 5.61926 72.5111 5.61926L72.4844 5.6326Z" fill="#4A5161"/>
<path d="M119.035 14.8592L117.208 26.2592C116.741 28.8992 116.167 32.1792 109.938 32.1792H69.0031C65.9886 32.1792 63.9612 31.5259 62.7474 30.0192C61.6137 28.6192 61.3336 27.2592 61.3336 27.2592L60.5466 32.1792H27.7076C24.5731 32.1792 22.8524 31.2859 21.9454 30.2859C21.9321 30.2726 21.9187 30.2592 21.9054 30.2326L21.3185 32.1792H21.3052H2.85825V2.83255H30.2419L28.828 7.48589H43.0467L43.7803 2.83255H65.2017L64.5614 7.25922L65.6152 6.04589C67.3758 4.00589 69.8968 2.84589 72.4977 2.84589H86.7564L85.9828 7.72589L86.6631 7.57922C87.4367 7.40589 88.277 7.32589 89.1707 7.32589C91.3181 7.32589 93.0521 7.87255 94.346 8.93922L94.6394 9.17922L94.9328 8.95255C96.3334 7.87255 98.2408 7.32589 100.575 7.32589C102.762 7.32589 104.51 7.85922 105.764 8.89922L106.044 9.13922L106.337 8.91255C107.738 7.85922 109.618 7.32589 111.939 7.32589C114.607 7.32589 116.594 8.09922 117.861 9.63255C118.648 10.5926 119.502 12.2726 119.022 14.8859L119.035 14.8592ZM1.01755 33.9926H22.6524L22.8791 33.2326C24.0796 33.8326 25.6535 33.9926 27.6942 33.9926H62.0805L62.3739 32.1926C63.9479 33.4192 66.082 33.9926 68.9764 33.9926H109.912C117.675 33.9926 118.515 29.1659 118.982 26.5392L120.809 15.1659C121.409 11.8726 120.289 9.69922 119.262 8.44589C117.621 6.47255 115.154 5.47255 111.926 5.47255C109.632 5.47255 107.671 5.93922 106.07 6.87255C104.59 5.95255 102.736 5.47255 100.548 5.47255C98.2274 5.47255 96.24 5.95255 94.6394 6.89922C93.1455 5.95255 91.2915 5.47255 89.1307 5.47255C88.7972 5.47255 88.4771 5.48589 88.1436 5.49922L88.8639 0.992554H76.3258H72.4577C70.5503 0.992554 68.6963 1.51255 67.0557 2.45922L67.2691 0.992554H42.1664L41.4327 5.64589H31.2289L32.6428 0.992554H0.977539V33.9926H1.01755Z" fill="#4A5161"/>
<path d="M119.035 14.8592L117.208 26.2592C116.741 28.8992 116.167 32.1792 109.938 32.1792H69.0031C65.9886 32.1792 63.9612 31.5259 62.7474 30.0192C61.6137 28.6192 61.3336 27.2592 61.3336 27.2592L60.5466 32.1792H27.7076C24.5731 32.1792 22.8524 31.2859 21.9454 30.2859C21.9321 30.2726 21.9187 30.2592 21.9054 30.2326L21.3185 32.1792H21.3052H2.85825V2.83255H30.2419L28.828 7.48589H43.0467L43.7803 2.83255H65.2017L64.5614 7.25922L65.6152 6.04589C67.3758 4.00589 69.8968 2.84589 72.4977 2.84589H86.7564L85.9828 7.72589L86.6631 7.57922C87.4367 7.40589 88.277 7.32589 89.1707 7.32589C91.3181 7.32589 93.0521 7.87255 94.346 8.93922L94.6394 9.17922L94.9328 8.95255C96.3334 7.87255 98.2408 7.32589 100.575 7.32589C102.762 7.32589 104.51 7.85922 105.764 8.89922L106.044 9.13922L106.337 8.91255C107.738 7.85922 109.618 7.32589 111.939 7.32589C114.607 7.32589 116.594 8.09922 117.861 9.63255C118.648 10.5926 119.502 12.2726 119.022 14.8859L119.035 14.8592ZM1.01755 33.9926H22.6524L22.8791 33.2326C24.0796 33.8326 25.6535 33.9926 27.6942 33.9926H62.0805L62.3739 32.1926C63.9479 33.4192 66.082 33.9926 68.9764 33.9926H109.912C117.675 33.9926 118.515 29.1659 118.982 26.5392L120.809 15.1659C121.409 11.8726 120.289 9.69922 119.262 8.44589C117.621 6.47255 115.154 5.47255 111.926 5.47255C109.632 5.47255 107.671 5.93922 106.07 6.87255C104.59 5.95255 102.736 5.47255 100.548 5.47255C98.2274 5.47255 96.24 5.95255 94.6394 6.89922C93.1455 5.95255 91.2915 5.47255 89.1307 5.47255C88.7972 5.47255 88.4771 5.48589 88.1436 5.49922L88.8639 0.992554H76.3258H72.4577C70.5503 0.992554 68.6963 1.51255 67.0557 2.45922L67.2691 0.992554H42.1664L41.4327 5.64589H31.2289L32.6428 0.992554H0.977539V33.9926H1.01755Z" fill="#4A5161"/>
<path d="M18.8775 29.2326L26.0935 5.75256H22.012L18.3039 17.6592H18.0371L18.0772 5.75256H13.5821L10.0475 17.6726H9.78071V5.75256H5.76587V29.2326H10.0608L14.089 15.7926H14.3424L14.5825 29.2326H18.8775Z" fill="#4A5161"/>
</svg>
