<?xml version="1.0" encoding="UTF-8"?>
<!DOCTYPE svg PUBLIC "-//W3C//DTD SVG 1.1//EN" "http://www.w3.org/Graphics/SVG/1.1/DTD/svg11.dtd">
<!-- Creator: CorelDRAW 2021 (64-Bit) -->
<svg xmlns="http://www.w3.org/2000/svg" xml:space="preserve" width="18.8853mm" height="10.1577mm" version="1.1" style="shape-rendering:geometricPrecision; text-rendering:geometricPrecision; image-rendering:optimizeQuality; fill-rule:evenodd; clip-rule:evenodd"
viewBox="0 0 5538.11 2978.75"
 xmlns:xlink="http://www.w3.org/1999/xlink"
 xmlns:xodm="http://www.corel.com/coreldraw/odm/2003">
 <defs>
  <style type="text/css">
   <![CDATA[
    .fil0 {fill:#4A5161;fill-rule:nonzero}
   ]]>
  </style>
 </defs>
 <g id="Слой_x0020_1">
  <metadata id="CorelCorpID_0Corel-Layer"/>
  <g id="_2012591712304">
   <polygon class="fil0" points="1899.85,915.2 2245.33,915.2 2245.33,1027.69 2080.99,1027.69 2080.99,1821.35 1899.85,1821.35 "/>
   <path class="fil0" d="M2240.43 1821.35l177.36 0 16.8 -240.85 85.54 0 16.8 240.85 177.24 0 -94.51 -906.14 -284.75 0 -94.49 906.14zm200.61 -340.4l31.14 -453.25 10.35 0 31 453.25 -72.49 0z"/>
   <path class="fil0" d="M2952.35 1504.11l0 170.64c0,23.28 18.21,29.74 28.62,29.74 16.66,0 28.33,-14.16 28.33,-29.74l0 -210.73c0,-28.47 -5.22,-59.5 -72.52,-59.5l-73.72 0 0 -99.65 76.27 0c51.85,0 69.97,-11.64 69.97,-67.3l0 -180.14c0,-15.57 -11.67,-29.85 -28.33,-29.85 -10.41,0 -28.62,6.48 -28.62,29.85l0 147.77 -181.26 0 0 -128.15c0,-63.52 7.86,-161.82 134.72,-161.82l150.17 0c126.98,0 134.72,98.3 134.72,161.82l0 145.07c0,98.33 -68.56,125.51 -122.96,122.84l0 8.97c121.55,-2.52 122.96,90.73 122.96,122.96l0 182.67c0,63.25 -7.74,161.82 -134.72,161.82l-150.17 0c-126.86,0 -134.72,-98.56 -134.72,-161.82l0 -155.45 181.26 0z"/>
   <polygon class="fil0" points="3285.9,915.2 3705.27,915.2 3705.27,1821.35 3524.22,1821.35 3524.22,1027.69 3467.18,1027.69 3467.18,1821.35 3285.9,1821.35 "/>
   <path class="fil0" d="M3811.31 1821.35l181.14 0 0 -308.18 103.61 0c126.74,0 134.46,-98.39 134.46,-161.79l0 -274.39c0,-63.49 -7.71,-161.79 -134.46,-161.79l-284.75 0 0 906.14zm181.14 -407.85l0 -385.8 23.28 0c19.47,0 33.78,16.69 33.78,45.16l0 295.36c0,28.59 -14.31,45.28 -33.78,45.28l-23.28 0z"/>
   <path class="fil0" d="M4318.66 1659.53c0,63.34 7.86,161.79 134.6,161.79l150.14 0c126.89,0 134.6,-98.44 134.6,-161.79l0 -582.42c0,-63.49 -7.71,-161.93 -134.6,-161.93l-150.14 0c-126.74,0 -134.6,98.44 -134.6,161.93l0 582.42zm238.21 15.16c0,15.57 -11.67,29.74 -28.47,29.74 -10.5,0 -28.47,-6.33 -28.47,-29.74l0 -617.35c0,-23.25 17.98,-29.71 28.47,-29.71 16.8,0 28.47,14.19 28.47,29.71l0 617.35z"/>
   <polygon class="fil0" points="5302.49,915.2 5538.03,915.2 5538.03,1821.35 5356.89,1821.35 5356.89,1253.12 5350.43,1253.12 5257.33,1821.35 5112.23,1821.35 5019.15,1253.12 5012.55,1253.12 5012.55,1821.35 4831.29,1821.35 4831.29,915.2 5066.95,915.2 5184.6,1552.03 "/>
   <path class="fil0" d="M1624.22 1004.65c-2.38,105.28 -14.81,216.45 -30.97,282.49 5.81,-114.25 -8.01,-275.54 -34.28,-401.52 -26.33,-125.98 -100.73,-336.24 -160.17,-433.86 -54.9,92.84 -122.46,274.83 -158,432.72 -35.66,158 -36.54,349.17 -36.54,406.47 -9.5,-48.44 -33.17,-220.49 -26.3,-393.95 5.54,-142.81 38.83,-289.56 57.3,-356.97 69.79,-225.69 148.88,-369.76 163.55,-392.4 14.81,22.64 114.34,200.23 165.98,386.71 51.35,186.59 61.73,365.07 59.44,470.31zm-224.13 805.29c-31.14,-58.3 -79.21,-169.23 -83.78,-340.49 -1.14,-166.01 65.16,-308.32 84.63,-337.79 17.21,29.47 74.51,153.58 81.38,322.84 4.55,165.6 -50.35,296.01 -82.23,355.45zm242.37 -1273.32c-62.87,-275.77 -220.76,-499.93 -242.37,-536.62 -34.54,51.49 -160.55,249.2 -224.54,469.17 -69.85,244.92 -79.97,462.1 -55.92,676.29 23.9,213.9 114.37,433.63 114.37,433.63 48.03,115.36 120.06,238.97 166.95,299.41 68.71,-89.29 226.71,-355.45 275.89,-703.33 27.48,-193.4 28.74,-362.81 -34.37,-638.55z"/>
   <path class="fil0" d="M1506.87 1942.9l-478.91 0 0 321.34c0.38,-0.56 0.73,-0.91 1.26,-1.41 112.7,-112.73 295.74,-112.73 408.44,0 112.99,112.96 112.99,296.01 0,408.7 -0.35,0.5 -0.85,1.03 -1.35,1.41l0 0.12c-0.5,0.38 -1.14,1.03 -1.64,1.52 -112.46,111.7 -259.73,167.62 -406.71,167.62 -147.74,0 -295.51,-56.3 -408.35,-168.91 -198.47,-198.59 -222.11,-506.09 -70.59,-730.4 20.47,-30.35 43.75,-59.21 70.59,-85.86 112.84,-112.75 260.61,-169.15 408.35,-169.15l0 -772.68c-567.61,0 -1027.96,460.46 -1027.96,1027.69 0,567.61 460.34,1027.81 1027.96,1027.81 296.12,0 562.69,-125.22 750.13,-325.33l0 -702.48 -271.23 0z"/>
   <path class="fil0" d="M5538.11 1942.99l-3638.24 0 0 566.21 3638.24 0 0 -566.21zm-3385.75 453.01l-75.28 0 0 -275.33 -64.4 0 0 -64.4 199.76 0 0 64.4 -60.09 0 0 275.33zm389.61 -193.55l14.69 0c20.35,0 39.68,-9.85 39.68,-43.55 0,-33.49 -17.42,-41.58 -41.23,-41.58l-13.14 0 0 85.13zm0 193.52l-81.85 0 0 -339.64 118.8 0c47.3,0 99.29,16.95 99.29,103.49 0,83.87 -51.11,103.61 -99.29,103.61l-36.95 0 0 132.55zm496.27 -129.15l-21.94 -149.53 -0.35 0 -21.38 149.53 43.66 0zm28.33 -210.49l75.1 339.64 -80.32 0 -12.26 -68.21 -62.49 0 -10.38 68.21 -81.46 0 73.87 -339.64 97.95 0zm398.7 131.05l53.52 0 0 -131.05 81.73 0 0 339.64 -81.73 0 0 -144.34 -53.52 0 0 144.34 -81.85 0 0 -339.64 81.85 0 0 131.05zm615.83 74.22l0 31.79c0,77.01 -34.93,110.7 -110.7,110.7 -75.25,0 -110.7,-33.2 -110.7,-111.2l0 -148.15c0,-53.52 33.17,-96.16 110.7,-96.16 76.57,0 110.7,43.66 110.7,96.66l0 23.14 -81.85 0 0 -30.59c0,-18.09 -16.95,-26.57 -29.85,-26.57 -13.67,0 -27.98,7.57 -27.98,25.04l0 169.38c0,25.57 10.91,35.92 27.98,35.92 17.57,0 29.85,-9.35 29.85,-35.01l0 -44.96 81.85 0zm449.29 -205.28l0 64.37 -108.27 0 0 275.39 -81.99 0 0 -339.76 190.26 0zm348.62 210.49l-21.88 -149.53 -0.53 0 -21.23 149.53 43.64 0zm28.33 -210.49l75.16 339.64 -80.35 0 -12.38 -68.21 -62.4 0 -10.35 68.21 -81.46 0 73.9 -339.64 97.89 0zm307.44 103.49c0,-70.47 44.02,-111.17 102.73,-111.17 64.63,0 101.08,42.26 101.08,89.94 0,42.14 -13.67,63.52 -48.21,78.56l0.85 0c34.69,12.76 59.21,26.92 59.21,87.89 0,67.3 -43.49,99.09 -108.24,99.09 -50.76,0 -107.42,-22.29 -107.42,-109.94l75.13 0c0,37.92 10.88,48.83 28.83,48.83 21.26,0 29.88,-10.91 29.88,-48.83 0,-31.64 -10,-44.4 -36.04,-44.4l-11.79 0 0 -61 19.35 0c11.91,0 24.66,-13.28 24.66,-37.3 0,-25.72 -8.09,-41.76 -27.3,-41.76 -21,0 -27.59,15.19 -27.59,50.09l-75.13 0z"/>
   <path class="fil0" d="M2065.86 2732.88c0,-40.97 -13.67,-74.49 -60.82,-74.49 -65.54,0 -66.04,92.46 -66.04,137.24 0,68.97 3.67,149.15 66.04,149.15 49.06,0 57.18,-40.59 60.82,-96.74l37.83 0c-4.28,78.27 -23.67,130.67 -95.86,130.67 -99.94,0 -107.92,-101.85 -107.92,-182.05 0,-76.54 14.08,-172.17 107.01,-172.17 64.16,0 96.77,47.54 96.77,108.39l-37.83 0z"/>
   <path class="fil0" d="M2263.57 2658.43l-1.06 0 -44.78 180.76 89.71 0 -43.87 -180.76zm-24.57 -27.48l49.97 0 95.39 339.79 -41.52 0 -26.92 -97.77 -107.15 0 -25.01 97.77 -41.52 0 96.77 -339.79z"/>
   <polygon class="fil0" points="2471.92,2775.38 2601.74,2775.38 2601.74,2630.95 2639.43,2630.95 2639.43,2970.71 2601.74,2970.71 2601.74,2809.42 2471.92,2809.42 2471.92,2970.71 2434.24,2970.71 2434.24,2630.95 2471.92,2630.95 "/>
   <polygon class="fil0" points="2755.46,2805.55 2879.16,2630.98 2926.34,2630.98 2817.66,2773.03 2929.63,2970.74 2885.61,2970.74 2795.05,2802.74 2755.46,2852.24 2755.46,2970.74 2717.72,2970.74 2717.72,2630.98 2755.46,2630.98 "/>
   <polygon class="fil0" points="3076.78,2970.71 3038.95,2970.71 3038.95,2665 2950.77,2665 2950.77,2630.95 3164.43,2630.95 3164.43,2665 3076.78,2665 "/>
   <polygon class="fil0" points="3316.28,2871.62 3198.27,2871.62 3198.27,2839.48 3316.28,2839.48 "/>
   <polygon class="fil0" points="3584.25,2630.98 3584.25,2970.77 3546.57,2970.77 3546.57,2665.03 3416.74,2665.03 3416.74,2970.77 3379.06,2970.77 3379.06,2630.98 "/>
   <polygon class="fil0" points="3832.78,2630.98 3832.78,2665.03 3700.2,2665.03 3700.2,2775.46 3824.33,2775.46 3824.33,2809.34 3700.2,2809.34 3700.2,2936.75 3833.28,2936.75 3833.28,2970.77 3662.52,2970.77 3662.52,2630.98 "/>
   <polygon class="fil0" points="3995.5,2970.71 3957.79,2970.71 3957.79,2665 3869.64,2665 3869.64,2630.95 4083.27,2630.95 4083.27,2665 3995.5,2665 "/>
   <polygon class="fil0" points="4303.09,2630.98 4303.09,2665.03 4170.54,2665.03 4170.54,2775.46 4294.65,2775.46 4294.65,2809.34 4170.54,2809.34 4170.54,2936.75 4303.59,2936.75 4303.59,2970.77 4132.68,2970.77 4132.68,2630.98 "/>
   <path class="fil0" d="M4406.37 2792.83l36.83 0c51.85,0 82.96,-7.98 82.96,-66.01 0,-48.09 -26.95,-61.91 -72.11,-61.91l-47.68 0 0 127.92zm0 177.86l-37.83 0 0 -339.64 94.37 0c61.99,0 102.46,28.71 102.46,95.78 0,79.18 -48.21,100.03 -109.41,100.03l-49.59 0 0 143.84z"/>
   <path class="fil0" d="M4661.62 2936.75l42.87 0c45.25,0 72.08,-13.67 72.08,-61.76 0,-54.25 -30.59,-65.66 -82.99,-65.66l-31.96 0 0 127.42zm131.02 -305.77l0 34.05 -131.02 0 0 110.44 44.75 0c61.35,0 109.56,20.73 109.56,99.53 0,67.42 -40.73,95.78 -101.96,95.78l-90.17 0 0 -339.79 168.85 0z"/>
   <path class="fil0" d="M4894.58 2630.98l79.18 235.92 72.76 -235.92 39.59 0 -93.49 283.6c-16.3,50.5 -35.78,64.16 -63.25,64.16 -15.04,0 -23.37,-1.91 -28.71,-4.19l0 -34.05c6.19,3.31 16.6,4.19 25.04,4.19 13.28,0 21.26,-6.04 28.83,-31.99l-100.03 -281.73 40.09 0z"/>
   <path class="fil0" d="M5166.24 2792.83l36.77 0c51.91,0 82.99,-7.98 82.99,-66.01 0,-48.09 -26.77,-61.91 -72.08,-61.91l-47.68 0 0 127.92zm0 177.86l-37.74 0 0 -339.64 94.28 0c61.96,0 102.46,28.71 102.46,95.78 0,79.18 -48.09,100.03 -109.41,100.03l-49.59 0 0 143.84z"/>
   <polygon class="fil0" points="5538.08,2630.98 5538.08,2665.03 5416.39,2665.03 5416.39,2970.77 5378.56,2970.77 5378.56,2630.98 "/>
  </g>
 </g>
</svg>
