<svg width="120" height="15" viewBox="0 0 120 15" fill="none" xmlns="http://www.w3.org/2000/svg">
<path fill-rule="evenodd" clip-rule="evenodd" d="M0 14.5358C0.618594 13.8916 2.45711 13.2354 4.63226 13.2354C6.42187 13.2354 12.0971 13.4826 13.6709 13.4826C17.9982 13.4826 19.2714 12.4998 21.1127 9.71929C20.3546 10.5088 18.3708 11.0212 16.3467 11.0212C15.3382 11.0212 9.23287 10.771 7.34976 10.771C3.14044 10.771 1.70329 11.8676 0.00143859 14.5358H0ZM3.3476 9.94401C3.96619 9.29981 5.80471 8.64363 7.97986 8.64363C9.76947 8.64363 15.4447 8.89082 17.0185 8.89082C21.3458 8.89082 22.619 7.90805 24.4603 5.12903C23.7022 5.91854 21.7184 6.4309 19.6929 6.4309C18.6844 6.4309 12.579 6.17921 10.6959 6.17921C6.4866 6.17921 5.04945 7.27584 3.3476 9.94401V9.94401ZM14.0435 1.58745C15.9266 1.58745 22.0334 1.83764 23.0405 1.83764C25.0646 1.83764 27.0498 1.32528 27.8079 0.535767C25.9666 3.31629 24.6934 4.29906 20.3661 4.29906C18.7923 4.29906 13.1171 4.05187 11.3275 4.05187C9.15231 4.05187 7.31379 4.70805 6.6952 5.35225C8.39705 2.68408 9.8342 1.58745 14.0435 1.58745V1.58745Z" fill="url(#paint0_linear_361_1873)"/>
<path d="M79.354 4.9298L78.091 2.69759C77.7802 2.05789 77.5141 1.97699 76.2985 1.97699H75.6569L73.453 11.4541C73.3077 12.0834 73.2616 12.7006 73.9119 13.3732H68.6207C69.5659 12.7485 69.7774 12.2766 69.9759 11.4541L72.1812 1.97699H71.5626C70.3456 1.97699 70.0737 2.0489 69.4378 2.66912L67.08 4.9283L68.1201 1.06463H80.223L79.3526 4.9283L79.354 4.9298ZM91.7604 11.4541C91.4324 12.8549 92.1805 13.3732 92.1805 13.3732H86.9512C86.9512 13.3732 87.9381 12.8294 88.2632 11.4541L89.9205 4.35152L82.9548 13.3732H78.8836C78.8836 13.3732 79.8705 12.8294 80.1956 11.4541L82.2053 2.8474C82.5089 1.55002 81.7522 1.06463 81.7522 1.06463H86.9829C86.9829 1.06463 85.9917 1.62343 85.6997 2.87287L83.9705 10.2706L91.08 1.06313H95.0519C95.0519 1.06313 94.0608 1.62193 93.7687 2.87137L91.7633 11.4511L91.7604 11.4541ZM99.1936 11.4541C98.8656 12.8549 99.6137 13.3732 99.6137 13.3732H94.3844C94.3844 13.3732 95.3713 12.8294 95.6964 11.4541L97.7061 2.8474C98.0097 1.55002 97.2544 1.06463 97.2544 1.06463H102.484C102.484 1.06463 101.493 1.62343 101.2 2.87287L99.1951 11.4526L99.1936 11.4541ZM32.5049 11.3598L33.4357 7.37774H34.5218C36.3359 7.37774 36.93 8.03691 36.4999 10.0714C36.087 12.0294 35.5087 12.5133 33.8514 12.5133C32.5524 12.5133 32.315 12.1583 32.5035 11.3583L32.5049 11.3598ZM31.0951 2.79646L29.071 11.4541C28.6279 13.0137 27.6713 13.3732 27.6713 13.3732H34.2514C38.2133 13.3732 39.2792 12.8399 39.8331 10.2032C40.2402 8.26613 39.2303 6.365 35.6669 6.365H33.6731L34.6988 1.97699H37.0437C38.2996 1.97699 38.4866 2.07736 38.7988 2.62268C39.0448 3.05264 40.0992 4.9313 40.0992 4.9313L40.9696 1.06613H30.6204C30.6204 1.06613 31.3656 1.5665 31.0951 2.79796V2.79646ZM57.9263 1.06463H66.6326C66.6326 1.06463 65.6414 1.62343 65.3494 2.87287L63.3425 11.4526C63.0145 12.8534 63.7626 13.3717 63.7626 13.3717H58.5333C58.5333 13.3717 59.5202 12.8279 59.8453 11.4526L62.0593 1.97549H59.6785C59.6526 2.2107 59.5216 2.99122 59.1131 4.2092C56.3625 12.404 55.8547 13.4826 54.1773 13.4826C52.9171 13.4826 52.5416 12.4789 52.5416 11.4392C52.7588 11.5485 53.0998 11.6879 53.54 11.6879C54.7369 11.6879 55.7008 11.4646 58.0428 4.21369C58.2758 3.49309 58.3449 3.14852 58.342 2.60171C58.3377 2.05789 58.2384 1.56201 57.9234 1.06463H57.9263ZM111.708 8.70208L114.64 3.56201H114.738L115.234 8.70208H111.708ZM110.78 13.3732C109.868 12.8099 109.697 12.401 110.148 11.4377L111.174 9.63841H115.326L115.509 11.5276C115.614 12.6571 115.529 12.9253 114.778 13.3732H120C119.387 12.8893 119.252 12.329 119.13 11.4227L117.746 0.738037C116.917 1.05564 115.824 1.23691 114.781 1.23691L108.887 11.574C108.655 11.974 108.378 12.4249 107.579 12.9852C106.938 12.1598 105.866 10.1118 104.296 5.67437L107.338 3.18748C109.252 1.62193 110.789 1.06463 110.789 1.06463H105.738C106.253 2.00845 106.295 2.14328 106.295 2.38748C106.295 2.61369 106.185 2.96575 105.628 3.4092L101.2 6.96126C101.703 8.79497 102.699 11.598 103.619 13.3732H110.777H110.78ZM44.0381 8.70208L46.9699 3.56201H47.0678L47.5641 8.70208H44.0381ZM47.1095 13.3732H52.3316C51.7187 12.8893 51.5835 12.329 51.4612 11.4227L50.0773 0.738037C49.2501 1.05564 48.1553 1.23691 47.1124 1.23691L41.2199 11.574C40.9351 12.0609 40.5855 12.6272 39.3023 13.3732H43.1116C42.1981 12.8099 42.0284 12.401 42.4801 11.4377L43.5058 9.63841H47.6576L47.8403 11.5276C47.9453 12.6571 47.8604 12.9253 47.1095 13.3732V13.3732Z" fill="#FEFEFE"/>
<defs>
<linearGradient id="paint0_linear_361_1873" x1="7.92951" y1="2.80393" x2="20.5746" y2="12.0385" gradientUnits="userSpaceOnUse">
<stop stop-color="#8F672D"/>
<stop offset="0.25098" stop-color="#D7BA60"/>
<stop offset="0.501961" stop-color="#F7F2D2"/>
<stop offset="0.74902" stop-color="#D7BA60"/>
<stop offset="1" stop-color="#8F672D"/>
</linearGradient>
</defs>
</svg>
