<?xml version="1.0" encoding="UTF-8"?>
<!DOCTYPE svg PUBLIC "-//W3C//DTD SVG 1.1//EN" "http://www.w3.org/Graphics/SVG/1.1/DTD/svg11.dtd">
<!-- Creator: CorelDRAW 2021 (64-Bit) -->
<svg xmlns="http://www.w3.org/2000/svg" xml:space="preserve" width="28.5108mm" height="17.8021mm" version="1.1" style="shape-rendering:geometricPrecision; text-rendering:geometricPrecision; image-rendering:optimizeQuality; fill-rule:evenodd; clip-rule:evenodd"
viewBox="0 0 2851.08 1780.21"
 xmlns:xlink="http://www.w3.org/1999/xlink"
 xmlns:xodm="http://www.corel.com/coreldraw/odm/2003">
 <defs>
  <style type="text/css">
   <![CDATA[
    .fil0 {fill:#4A5161;fill-rule:nonzero}
   ]]>
  </style>
 </defs>
 <g id="Слой_x0020_1">
  <metadata id="CorelCorpID_0Corel-Layer"/>
  <g id="_2012696260736">
   <polygon class="fil0" points="880.62,896.32 1061.6,896.32 1061.6,955.15 975.52,955.15 975.52,1370.81 880.62,1370.81 "/>
   <path class="fil0" d="M1063.8 1370.83l93.04 0 8.68 -126.14 44.71 0 8.9 126.14 92.73 0 -49.35 -474.5 -149.1 0 -49.61 474.5zm105.03 -178.37l16.36 -237.34 5.39 0 16.3 237.34 -38.05 0z"/>
   <path class="fil0" d="M1447.72 1204.71l0 89.26c0,12.2 9.49,15.62 14.97,15.62 8.91,0 14.93,-7.42 14.93,-15.62l0 -110.2c0,-15.03 -2.77,-31.17 -38.16,-31.17l-38.41 0 0 -52.22 40.01 0c27.02,0 36.56,-6.09 36.56,-35.18l0 -94.59c0,-8 -6.02,-15.5 -14.93,-15.5 -5.48,0 -14.97,3.41 -14.97,15.5l0 77.53 -94.91 0 0 -67.04c0,-33.24 4.22,-84.77 70.5,-84.77l78.78 0c66.39,0 70.49,51.53 70.49,84.77l0 75.83c0,51.65 -36.02,65.82 -64.48,64.38l0 4.96c63.79,-1.54 64.48,47.22 64.48,64.17l0 95.69c0,33.05 -4.1,84.68 -70.49,84.68l-78.78 0c-66.28,0 -70.5,-51.63 -70.5,-84.68l0 -81.42 94.91 0z"/>
   <polygon class="fil0" points="1634.88,896.32 1854.65,896.32 1854.65,1370.81 1759.64,1370.81 1759.64,955.15 1729.74,955.15 1729.74,1370.81 1634.88,1370.81 "/>
   <path class="fil0" d="M1916.87 1370.83l95.01 0 0 -161.36 54.19 0c66.35,0 70.45,-51.48 70.45,-84.73l0 -143.62c0,-33.25 -4.1,-84.79 -70.45,-84.79l-149.2 0 0 474.5zm95.01 -213.54l0 -202.17 12.21 0c10.22,0 17.52,8.84 17.52,23.82l0 154.64c0,14.92 -7.3,23.71 -17.52,23.71l-12.21 0z"/>
   <path class="fil0" d="M2198.95 1286.16c0,33.03 4.09,84.67 70.5,84.67l78.7 0c66.4,0 70.45,-51.64 70.45,-84.67l0 -305.09c0,-33.24 -4.05,-84.72 -70.45,-84.72l-78.7 0c-66.41,0 -70.5,51.48 -70.5,84.72l0 305.09zm124.8 7.78c0,8.25 -6.19,15.6 -14.88,15.6 -5.59,0 -15.01,-3.35 -15.01,-15.6l0 -323.3c0,-12.1 9.42,-15.52 15.01,-15.52 8.69,0 14.88,7.51 14.88,15.52l0 323.3z"/>
   <polygon class="fil0" points="2727.61,896.32 2851.08,896.32 2851.08,1370.81 2756.17,1370.81 2756.17,1073.19 2752.76,1073.19 2703.89,1370.81 2628.02,1370.81 2579.2,1073.19 2575.95,1073.19 2575.95,1370.81 2480.94,1370.81 2480.94,896.32 2604.36,896.32 2666.18,1229.76 "/>
   <path class="fil0" d="M749.21 463.45c-1.16,48.61 -6.97,99.72 -14.44,130.35 2.62,-52.75 -3.5,-127.31 -15.71,-185.22 -12.16,-58.15 -46.52,-155.08 -73.97,-200.17 -25.25,42.86 -56.43,126.72 -72.73,199.41 -16.42,73.07 -16.9,161.04 -16.9,187.64 -4.41,-22.39 -15.29,-101.78 -12.15,-181.61 2.55,-65.97 17.9,-133.66 26.48,-164.71 32.09,-104.14 68.6,-170.42 75.3,-181.03 6.98,10.61 52.92,92.3 76.63,178.46 23.72,85.9 28.61,168.18 27.49,216.88zm-103.42 371.43c-14.23,-26.96 -36.45,-78.02 -38.58,-157.2 -0.53,-76.46 30.1,-141.96 39,-155.6 8.1,13.64 34.43,70.6 37.52,148.77 2.07,76.59 -23.18,136.54 -37.94,164.03zm111.85 -587.34c-29.04,-127.21 -101.84,-230.76 -111.85,-247.54 -15.98,23.67 -73.97,115 -103.54,216.25 -32.14,113.08 -37.03,213.43 -25.9,312.17 11.09,98.69 52.87,199.88 52.87,199.88 22.11,53.25 55.36,110.21 76.99,138.23 31.71,-41.19 104.56,-163.97 127.26,-324.36 12.63,-89.32 13.21,-167.39 -15.83,-294.63z"/>
   <path class="fil0" d="M694.88 896.17l-220.77 0 0 148.2c0.28,-0.22 0.32,-0.38 0.59,-0.43 52.01,-52.11 136.42,-52.11 188.37,0 52.17,51.95 52.17,136.42 0,188.32 -0.15,0.32 -0.32,0.59 -0.53,0.7l0 0.1c-0.32,0.26 -0.53,0.26 -0.85,0.53 -51.85,51.8 -119.69,77.48 -187.58,77.48 -68.21,0 -136.31,-25.89 -188.21,-78.01 -91.77,-91.6 -102.54,-233.35 -32.72,-336.89 9.32,-13.96 20.14,-27.35 32.72,-39.6 51.9,-52.06 120,-77.96 188.21,-77.96l0 -356.33c-261.97,0 -474.11,212.29 -474.11,473.89 0,261.86 212.14,474.05 474.11,474.05 136.59,0 259.47,-57.7 346.12,-150.06l0 -323.99 -125.35 0z"/>
   <polygon class="fil0" points="138.38,1573.21 138.38,1593.47 65.9,1593.47 65.9,1775.44 43.47,1775.44 43.47,1573.21 "/>
   <polygon class="fil0" points="265.33,1573.21 265.33,1593.47 186.4,1593.47 186.4,1659.16 260.26,1659.16 260.26,1679.35 186.4,1679.35 186.4,1755.24 265.6,1755.24 265.6,1775.44 163.92,1775.44 163.92,1573.21 "/>
   <polygon class="fil0" points="322.91,1659.17 400.13,1659.17 400.13,1573.22 422.62,1573.22 422.62,1775.46 400.13,1775.46 400.13,1679.37 322.91,1679.37 322.91,1775.46 300.42,1775.46 300.42,1573.22 322.91,1573.22 "/>
   <polygon class="fil0" points="566.69,1573.21 566.69,1593.47 487.77,1593.47 487.77,1659.16 561.63,1659.16 561.63,1679.35 487.77,1679.35 487.77,1755.24 566.95,1755.24 566.95,1775.44 465.28,1775.44 465.28,1573.21 "/>
   <path class="fil0" d="M624.26 1669.54l21.9 0c30.93,0 49.41,-4.81 49.41,-39.28 0,-28.67 -15.99,-36.83 -42.96,-36.83l-28.35 0 0 76.11zm0 105.87l-22.48 0 0 -202.22 56.23 0c36.76,0 60.9,17.21 60.9,57.07 0,47.16 -28.67,59.52 -65.18,59.52l-29.47 0 0 85.63z"/>
   <path class="fil0" d="M790.26 1589.49l-0.53 0 -26.71 107.6 53.34 0 -26.1 -107.6zm-14.61 -16.3l29.79 0 56.7 202.22 -24.72 0 -15.99 -58.13 -63.74 0 -14.91 58.13 -24.68 0 57.55 -202.22z"/>
   <path class="fil0" d="M1015.22 1573.21l0 202.23 -22.49 0 0 -181.97 -67.94 0 0 80.02c0,45.2 -0.85,104.5 -40.19,104.5 -4.19,0 -9,-0.59 -13.47,-1.7l0 -19.93c3.1,1.06 6.24,1.39 8.73,1.39 20.79,0 22.45,-31.45 22.45,-96.36l0 -88.18 112.91 0z"/>
   <path class="fil0" d="M1080.4 1755.24l25.53 0c26.96,0 43.01,-8.15 43.01,-36.82 0,-32.3 -18.28,-39.07 -49.46,-39.07l-19.08 0 0 75.89zm0 -96.08l26.69 0c36.51,0 65.12,12.37 65.12,59.26 0,40.13 -24.14,57.02 -60.63,57.02l-53.67 0 0 -202.23 22.49 0 0 85.95z"/>
   <polygon class="fil0" points="1220.81,1659.17 1298.07,1659.17 1298.07,1573.22 1320.5,1573.22 1320.5,1775.46 1298.07,1775.46 1298.07,1679.37 1220.81,1679.37 1220.81,1775.46 1198.38,1775.46 1198.38,1573.22 1220.81,1573.22 "/>
   <path class="fil0" d="M1530.88 1775.41l-22.49 0 0 -202.23 22.49 0 0 202.23zm-145.17 -20.2l25.53 0c26.97,0 42.95,-8.15 42.95,-36.82 0,-32.24 -18.22,-39 -49.44,-39l-19.04 0 0 75.82zm0 -96.02l26.65 0c36.51,0 65.18,12.31 65.18,59.2 0,40.18 -24.14,57.02 -60.71,57.02l-53.59 0 0 -202.23 22.47 0 0 86.01z"/>
   <path class="fil0" d="M1609.26 1526.32c3.35,14.06 12.63,19.34 25.85,19.34 13.74,0 22.16,-4.75 25.25,-19.34l11.51 0c0,24.14 -16.25,34.53 -37.9,34.53 -19.65,0 -36.22,-10.66 -36.22,-34.53l11.51 0zm-13.22 46.89l0 165.15c0,7.29 -0.27,15.18 -0.54,22.43l0.54 0c2.83,-9.22 3.67,-16.53 8.14,-27.77l62.89 -159.81 32.61 0 0 202.23 -22.49 0 0 -161.19c0,-10.45 0.33,-20.78 0.59,-30.91l-0.59 0c-1.92,12.09 -4.2,23.6 -7.82,32.87l-63.21 159.23 -32.56 0 0 -202.23 22.44 0z"/>
   <path class="fil0" d="M1899.09 1633.89c0,-24.41 -8.1,-44.4 -36.24,-44.4 -39,0 -39.27,55.05 -39.27,81.75 0,41.03 2.23,88.72 39.27,88.72 29.26,0 34,-24.14 36.24,-57.55l22.49 0c-2.51,46.63 -14.06,77.8 -57.02,77.8 -59.52,0 -64.32,-60.69 -64.32,-108.44 0,-45.51 8.43,-102.47 63.73,-102.47 38.22,0 57.61,28.35 57.61,64.59l-22.49 0z"/>
   <polygon class="fil0" points="2072.38,1573.21 2072.38,1775.44 2049.95,1775.44 2049.95,1593.47 1972.68,1593.47 1972.68,1775.44 1950.24,1775.44 1950.24,1573.21 "/>
   <path class="fil0" d="M2165.35 1589.49c-34.53,0 -42.68,35.71 -42.68,80.95 0,58.67 6.19,89.52 43.21,89.52 37.15,0 43.6,-30.85 43.6,-89.31 0,-45.19 -8.48,-81.16 -44.13,-81.16zm-65.96 84.52c0,-46.32 7.57,-104.71 66.49,-104.71 59.32,0 66.89,58.39 66.89,104.71 0,55.9 -7.89,106.2 -66.89,106.2 -58.92,0 -66.49,-50.3 -66.49,-106.2z"/>
   <polygon class="fil0" points="2283.61,1659.17 2360.83,1659.17 2360.83,1573.22 2383.31,1573.22 2383.31,1775.46 2360.83,1775.46 2360.83,1679.37 2283.61,1679.37 2283.61,1775.46 2261.12,1775.46 2261.12,1573.22 2283.61,1573.22 "/>
   <path class="fil0" d="M2511.96 1633.89c0,-24.41 -8.15,-44.4 -36.28,-44.4 -39.02,0 -39.27,55.05 -39.27,81.75 0,41.03 2.23,88.72 39.27,88.72 29.25,0 33.99,-24.14 36.28,-57.55l22.44 0c-2.5,46.63 -14.07,77.8 -56.97,77.8 -59.57,0 -64.32,-60.69 -64.32,-108.44 0,-45.51 8.42,-102.47 63.73,-102.47 38.22,0 57.56,28.35 57.56,64.59l-22.44 0z"/>
   <path class="fil0" d="M2623.44 1589.49c-34.48,0 -42.69,35.71 -42.69,80.95 0,58.67 6.18,89.52 43.27,89.52 37.1,0 43.49,-30.85 43.49,-89.31 0,-45.19 -8.37,-81.16 -44.07,-81.16zm-65.98 84.52c0,-46.32 7.57,-104.71 66.56,-104.71 59.26,0 66.88,58.39 66.88,104.71 0,55.9 -7.94,106.2 -66.88,106.2 -58.99,0 -66.56,-50.3 -66.56,-106.2z"/>
   <path class="fil0" d="M2744.48 1669.54l21.95 0c30.86,0 49.4,-4.81 49.4,-39.28 0,-28.67 -15.99,-36.83 -43.01,-36.83l-28.34 0 0 76.11zm0 105.87l-22.44 0 0 -202.22 56.17 0c36.77,0 60.91,17.21 60.91,57.07 0,47.16 -28.63,59.52 -65.12,59.52l-29.52 0 0 85.63z"/>
  </g>
 </g>
</svg>
