<svg width="120" height="15" viewBox="0 0 120 15" fill="none" xmlns="http://www.w3.org/2000/svg">
<path d="M0.00012207 14.9988C0.618819 14.3545 2.45776 13.6983 4.63249 13.6983C6.42285 13.6983 12.0983 13.9453 13.6715 13.9453C17.9981 13.9453 19.2726 12.9633 21.113 10.1823C20.3557 10.9724 18.371 11.4843 16.3463 11.4843C15.3375 11.4843 9.23199 11.2343 7.34875 11.2343C3.13933 11.2343 1.70332 12.3309 0.00012207 14.9988H0.00012207ZM3.34794 10.407C3.96664 9.76273 5.80558 9.10655 7.98031 9.10655C9.77067 9.10655 15.4461 9.35355 17.0193 9.35355C21.3459 9.35355 22.6204 8.37151 24.4608 5.59204C23.7021 6.38065 21.7188 6.89399 19.6941 6.89399C18.6853 6.89399 12.5798 6.64252 10.6966 6.64252C6.48715 6.64252 5.05114 7.73913 3.34794 10.407V10.407ZM14.0444 2.05075C15.9276 2.05075 22.0332 2.30072 23.0419 2.30072C25.0666 2.30072 27.0513 1.78887 27.8086 0.998779C25.9682 3.77825 24.6937 4.76177 20.3671 4.76177C18.7939 4.76177 13.1185 4.51477 11.3281 4.51477C9.15197 4.51477 7.31446 5.17095 6.69576 5.81523C8.39754 3.14736 9.83497 2.05075 14.0444 2.05075V2.05075Z" fill="#4A5161"/>
<path d="M79.3533 5.39418L78.0902 3.16227C77.7787 2.52246 77.5129 2.44211 76.2969 2.44211H75.6554L73.4521 11.9188C73.3078 12.5482 73.2606 13.1657 73.9107 13.8367H68.6197C69.5641 13.2118 69.7771 12.7401 69.9757 11.9188L72.1804 2.44211H71.5617C70.3443 2.44211 70.0728 2.51353 69.437 3.134L67.0794 5.39418L68.1196 1.53001H80.222L79.3518 5.39418H79.3533ZM91.7601 11.9188C91.4314 13.3204 92.1802 13.8367 92.1802 13.8367H86.9505C86.9505 13.8367 87.9379 13.2921 88.2622 11.9188L89.9197 4.81686L82.954 13.8382H78.8817C78.8817 13.8382 79.8691 13.2936 80.1934 11.9203L82.2024 3.31404C82.5053 2.01656 81.7495 1.53149 81.7495 1.53149H86.9791C86.9791 1.53149 85.9875 2.09096 85.696 3.34083L83.9671 10.7388L91.0756 1.53149H95.0479C95.0479 1.53149 94.0562 2.09096 93.7648 3.34083L91.7586 11.9203L91.7601 11.9188ZM99.193 11.9188C98.8658 13.3204 99.6131 13.8367 99.6131 13.8367H94.3835C94.3835 13.8367 95.3708 13.2921 95.6951 11.9188L97.7041 3.31255C98.007 2.01507 97.2512 1.53001 97.2512 1.53001H102.481C102.481 1.53001 101.489 2.08947 101.198 3.33934L99.1916 11.9188H99.193ZM32.5052 11.825L33.4368 7.84332H34.5242C36.3389 7.84332 36.9333 8.50248 36.5032 10.5365C36.0902 12.4931 35.5115 12.9782 33.8541 12.9782C32.5552 12.9782 32.318 12.6226 32.5067 11.8236L32.5052 11.825ZM31.0964 3.26196L29.0717 11.9188C28.6287 13.4781 27.6714 13.8367 27.6714 13.8367H34.2513C38.2135 13.8367 39.278 13.3041 39.8324 10.6674C40.2396 8.73162 39.2294 6.82855 35.6659 6.82855H33.6726L34.6985 2.44062H37.0433C38.2993 2.44062 38.4864 2.54032 38.7979 3.08639C39.0437 3.5164 40.0982 5.39418 40.0982 5.39418L40.9684 1.53001H30.6191C30.6191 1.53001 31.3636 2.02995 31.0949 3.26196H31.0964ZM57.9261 1.53001H66.6336C66.6336 1.53001 65.6419 2.08947 65.3504 3.33934L63.3443 11.9188C63.0171 13.3204 63.7644 13.8367 63.7644 13.8367H58.5362C58.5362 13.8367 59.5235 13.2921 59.8479 11.9188L62.0626 2.44211H59.6822C59.6564 2.67721 59.525 3.45688 59.1163 4.6755C56.3658 12.8696 55.8585 13.9483 54.181 13.9483C52.9208 13.9483 52.545 12.944 52.545 11.9054C52.7622 12.0155 53.1022 12.1539 53.5438 12.1539C54.7412 12.1539 55.7042 11.9307 58.0461 4.67997C58.279 3.95981 58.3476 3.61461 58.3447 3.06853C58.3404 2.52544 58.2419 2.02846 57.9261 1.53149V1.53001ZM111.707 9.1661L114.639 4.02676H114.738L115.233 9.1661H111.707V9.1661ZM110.78 13.8367C109.867 13.2743 109.697 12.8636 110.148 11.9009L111.174 10.102H115.326L115.509 11.9902C115.615 13.1195 115.529 13.3874 114.779 13.8367H120C119.387 13.3532 119.251 12.7922 119.128 11.886L117.744 1.20117C116.915 1.5181 115.822 1.69963 114.779 1.69963L108.886 12.0363C108.655 12.4351 108.376 12.8874 107.579 13.4469C106.937 12.6211 105.866 10.5737 104.295 6.13666L107.336 3.65032C109.251 2.08501 110.788 1.52703 110.788 1.52703H105.739C106.254 2.47038 106.296 2.6043 106.296 2.84981C106.296 3.07597 106.187 3.42861 105.63 3.87202L101.202 7.42372C101.705 9.25686 102.702 12.0601 103.621 13.8352H110.778L110.78 13.8367ZM44.039 9.1661L46.971 4.02676H47.0696L47.5654 9.1661H44.039ZM47.1096 13.8367H52.3307C51.7177 13.3532 51.5819 12.7922 51.4591 11.886L50.0745 1.20117C49.2472 1.5181 48.1527 1.69963 47.1096 1.69963L41.217 12.0363C40.9326 12.5244 40.5826 13.0898 39.2995 13.8352H43.1088C42.1958 13.2728 42.0257 12.8621 42.4772 11.8994L43.5032 10.1005H47.6554L47.8383 11.9887C47.9441 13.1181 47.8583 13.3859 47.1082 13.8352L47.1096 13.8367Z" fill="#4A5161"/>
</svg>
