<?xml version="1.0" encoding="utf-8"?>
<!-- Generator: Adobe Illustrator 26.4.1, SVG Export Plug-In . SVG Version: 6.00 Build 0)  -->
<svg version="1.1" id="Слой_1" xmlns="http://www.w3.org/2000/svg" xmlns:xlink="http://www.w3.org/1999/xlink" x="0px" y="0px"
	 viewBox="0 0 100 100" style="enable-background:new 0 0 100 100;" xml:space="preserve">
<style type="text/css">
	.st0{fill:none;}
	
		.st1{clip-path:url(#SVGID_00000103951665885355968010000016961848445171848588_);fill-rule:evenodd;clip-rule:evenodd;fill:url(#SVGID_00000059272171310016492960000001258565119414435741_);}
	.st2{fill:#151213;}
	.st3{fill-rule:evenodd;clip-rule:evenodd;fill:#151213;}
	.st4{fill:#FFFFFF;}
	.st5{fill:#009226;}
	.st6{fill-rule:evenodd;clip-rule:evenodd;fill:#FFFFFF;}
	.st7{fill:#00ADEE;}
	.st8{fill-rule:evenodd;clip-rule:evenodd;fill:#FCB810;}
	.st9{fill-rule:evenodd;clip-rule:evenodd;fill:#008A8D;}
	.st10{fill:none;stroke:#181314;stroke-width:0.5854;stroke-miterlimit:22.9256;}
	.st11{fill-rule:evenodd;clip-rule:evenodd;fill:#ABABAD;}
	.st12{fill-rule:evenodd;clip-rule:evenodd;fill:#EE7607;}
	.st13{fill:none;stroke:#FFFFFF;stroke-width:1.4635;stroke-miterlimit:22.9256;}
	.st14{fill-rule:evenodd;clip-rule:evenodd;fill:#181314;}
	.st15{fill-rule:evenodd;clip-rule:evenodd;fill:#BF0808;}
	.st16{fill-rule:evenodd;clip-rule:evenodd;fill:#DA020E;}
	.st17{fill-rule:evenodd;clip-rule:evenodd;fill:#E2000F;}
	.st18{fill-rule:evenodd;clip-rule:evenodd;fill:#0C2F6E;}
	.st19{fill-rule:evenodd;clip-rule:evenodd;fill:#D1050C;}
	.st20{fill-rule:evenodd;clip-rule:evenodd;fill:#0F377F;}
	.st21{fill-rule:evenodd;clip-rule:evenodd;fill:#A40B02;}
	.st22{fill:#C8002D;}
	.st23{fill:#2B4135;}
	.st24{fill:url(#SVGID_00000057133167050016908980000013377709600262791829_);}
	.st25{fill:url(#SVGID_00000101100891560119467100000006344167127118052017_);}
	.st26{fill:#00519F;}
	.st27{fill:#0F1B41;}
	.st28{fill:#EB6608;}
	.st29{fill:#008AD1;}
	.st30{fill:#1D1D1B;}
	.st31{fill-rule:evenodd;clip-rule:evenodd;fill:#1D1D1B;}
	.st32{fill-rule:evenodd;clip-rule:evenodd;fill:#E8501E;}
	.st33{fill:none;stroke:#1D1D1B;stroke-width:0.1477;stroke-linecap:round;stroke-miterlimit:22.9256;}
	.st34{fill-rule:evenodd;clip-rule:evenodd;fill:#EF7F1A;}
	.st35{fill-rule:evenodd;clip-rule:evenodd;}
	.st36{fill-rule:evenodd;clip-rule:evenodd;fill:#FEFEFE;}
	.st37{fill-rule:evenodd;clip-rule:evenodd;fill:#009846;}
	.st38{fill:#FF5000;}
	.st39{fill:#1F355E;}
	.st40{fill:#DDDB05;}
	.st41{fill:#168DCD;}
	.st42{fill:#E53524;}
	.st43{fill:#4ABED8;}
	.st44{fill:#163960;}
	.st45{fill:#00A7E1;}
	.st46{fill:#002D74;}
	.st47{fill:#E1251B;}
	.st48{fill:#4A5161;}
	.st49{fill:#F4AA03;}
	.st50{fill:#E65F07;}
	.st51{fill:#293480;}
	.st52{fill:#2D2D7E;}
	.st53{fill:#3E4996;}
	.st54{fill-rule:evenodd;clip-rule:evenodd;fill:#2D2D7E;}
	.st55{fill-rule:evenodd;clip-rule:evenodd;fill:#4A5161;}
</style>
<g>
	<path class="st48" d="M35.53,45.37c-0.54,0-1.28,0.03-1.85,0.05v3.32c0.6,0.06,1.28,0.11,1.88,0.11c1.48,0,2.56-0.63,2.56-1.8
		C38.12,45.97,37.3,45.37,35.53,45.37z"/>
	<path class="st48" d="M53.38,46.68c0-0.91-0.71-1.34-2.14-1.34c-0.54,0-1.75,0.05-2.34,0.09v2.62h2.42
		C52.44,48.05,53.38,47.65,53.38,46.68z"/>
	<path class="st48" d="M51.5,51.13h-2.6v2.68c0.32,0.06,1.66,0.14,2.45,0.14c1.65,0,2.51-0.49,2.51-1.45
		C53.87,51.58,52.98,51.13,51.5,51.13z"/>
	<path class="st48" d="M81.84,46.68c-0.75-7.99-4.42-15.35-10.36-20.72c-5.9-5.35-13.51-8.29-21.44-8.29c-0.99,0-2,0.05-3,0.14
		c-8.49,0.79-16.17,4.85-21.63,11.43c-5.46,6.58-8.03,14.88-7.24,23.37c0.75,7.98,4.42,15.34,10.36,20.72
		c5.9,5.35,13.52,8.29,21.45,8.29c0.99,0,2-0.05,3-0.14c8.5-0.79,16.19-4.85,21.65-11.42C80.06,63.49,82.63,55.19,81.84,46.68z
		 M72.65,68.44c-5.02,6.05-12.1,9.78-19.93,10.51c-0.92,0.09-1.85,0.13-2.76,0.13c-7.3,0-14.31-2.71-19.74-7.63
		c-5.46-4.95-8.85-11.73-9.53-19.08c-0.73-7.82,1.64-15.46,6.67-21.51c5.03-6.06,12.1-9.79,19.91-10.52
		c0.92-0.09,1.85-0.13,2.76-0.13c7.3,0,14.31,2.71,19.74,7.63c5.46,4.95,8.85,11.72,9.54,19.08C80.04,54.75,77.67,62.39,72.65,68.44
		z"/>
	<path class="st48" d="M68.74,28.98c-5.15-4.67-11.79-7.24-18.71-7.24c-0.87,0-1.75,0.04-2.62,0.12
		c-7.41,0.69-14.11,4.23-18.87,9.97c-4.76,5.74-7.01,12.98-6.32,20.39c0.65,6.97,3.86,13.39,9.04,18.08
		c5.15,4.67,11.79,7.23,18.71,7.23c0.87,0,1.75-0.04,2.62-0.12c7.42-0.69,14.13-4.23,18.88-9.96c4.76-5.73,7-12.98,6.31-20.4
		C77.13,40.09,73.92,33.67,68.74,28.98z M39.15,57.11l-3.57-4.98c-0.45,0-1.29-0.03-1.9-0.08v5.06H30.2V44.94l-0.4-2.46
		c1.24-0.19,3.74-0.4,5.36-0.4c5.04,0,6.67,2.1,6.67,4.98c0,1.94-0.91,3.45-2.58,4.31l4.34,5.74H39.15z M51.08,57.23
		c-1.6,0-3.87-0.11-5.64-0.23V44.98l-0.4-2.42c0.92-0.18,3.89-0.49,6.27-0.49c3.99,0,5.56,1.93,5.56,3.98
		c0,2.12-1.44,3.19-1.44,3.19v0.03c0,0,1.96,0.9,1.96,3.3C57.38,55.72,54.67,57.23,51.08,57.23z M71.35,45.43h-7.36v3.05h6.29v3.28
		h-6.29v5.36h-3.47V44.98l-0.39-2.83h11.7L71.35,45.43z"/>
</g>
</svg>
