<svg width="128" height="80" viewBox="0 0 128 80" fill="none" xmlns="http://www.w3.org/2000/svg">
<path d="M39.5356 40.2793H47.6608V42.923H43.7962V61.6022H39.5356V40.2793Z" fill="white"/>
<path d="M47.7595 61.6029H51.9366L52.3263 55.9343H54.3335L54.7331 61.6029H58.8962L56.6807 40.2795H49.9868L47.7595 61.6029V61.6029ZM52.4749 53.5872L53.2094 42.9215H53.4513L54.1831 53.5872H52.4749Z" fill="white"/>
<path d="M64.9959 54.1377V58.1489C64.9959 58.6971 65.4219 58.8508 65.6679 58.8508C66.068 58.8508 66.3382 58.5174 66.3382 58.1489V53.1967C66.3382 52.5212 66.2139 51.7959 64.625 51.7959H62.9006V49.4492H64.6969C65.9099 49.4492 66.3382 49.1756 66.3382 47.8683V43.6176C66.3382 43.2581 66.068 42.921 65.6679 42.921C65.4219 42.921 64.9959 43.0743 64.9959 43.6176V47.1017H60.7349V44.089C60.7349 42.5952 60.9243 40.2795 63.9 40.2795H67.4368C70.4174 40.2795 70.6015 42.5952 70.6015 44.089V47.4967C70.6015 49.8177 68.9844 50.4545 67.7066 50.3898V50.6127C70.5705 50.5435 70.6015 52.7347 70.6015 53.4964V57.7966C70.6015 59.2818 70.4174 61.602 67.4368 61.602H63.9C60.9243 61.602 60.7349 59.2818 60.7349 57.7966V54.1377H64.9959V54.1377Z" fill="white"/>
<path d="M73.3984 40.2793H83.2651V61.6022H78.9996V42.923H77.6572V61.6022H73.3984V40.2793Z" fill="white"/>
<path d="M86.0583 61.6029H90.3238V54.3516H92.7567C95.7355 54.3516 95.9196 52.0382 95.9196 50.5439V44.0899C95.9196 42.5957 95.7355 40.2795 92.7567 40.2795H86.0583V61.6029V61.6029ZM90.3238 52.0067V42.9215H90.872C91.3308 42.9215 91.6586 43.3187 91.6586 43.9919V50.9412C91.6586 51.6117 91.3308 52.0067 90.872 52.0067H90.3238Z" fill="white"/>
<path d="M98.7222 57.798C98.7222 59.2823 98.9058 61.6029 101.887 61.6029H105.421C108.402 61.6029 108.583 59.2823 108.583 57.798V44.0877C108.583 42.594 108.402 40.2805 105.421 40.2805H101.887C98.9058 40.2805 98.7222 42.594 98.7222 44.0877V57.798ZM104.325 58.1476C104.325 58.5184 104.047 58.8487 103.657 58.8487C103.406 58.8487 102.983 58.6981 102.983 58.1476V43.619C102.983 43.0752 103.406 42.9216 103.657 42.9216C104.047 42.9216 104.325 43.259 104.325 43.619V58.1476Z" fill="white"/>
<path d="M122.457 40.2793H128V61.6022H123.739V48.2276H123.586L121.392 61.6022H117.986L115.794 48.2276H115.648V61.6022H111.382V40.2793H116.923L119.699 55.2636L122.457 40.2793Z" fill="white"/>
<path d="M33.6359 20.8268C33.5838 23.0112 33.323 25.308 32.9876 26.6845C33.1052 24.314 32.8305 20.9634 32.2823 18.361C31.7364 15.7478 30.1938 11.3919 28.9614 9.36564C27.8278 11.2917 26.4279 15.0602 25.6962 18.3268C24.959 21.6105 24.9374 25.5637 24.9374 26.7591C24.7394 25.7529 24.251 22.1853 24.3919 18.5978C24.5064 15.6332 25.1956 12.5913 25.5808 11.196C27.0215 6.51609 28.6606 3.53756 28.9614 3.06076C29.2748 3.53756 31.3372 7.20859 32.4017 11.0805C33.4666 14.9407 33.6862 18.6383 33.6359 20.8268V20.8268ZM28.9928 37.5183C28.354 36.3067 27.3564 34.0122 27.2608 30.4539C27.237 27.0179 28.6121 24.0745 29.0117 23.4615C29.3753 24.0745 30.5574 26.6342 30.6961 30.147C30.7891 33.5888 29.6555 36.2829 28.9928 37.5183V37.5183ZM34.0143 11.1241C32.7106 5.40745 29.4422 0.754068 28.9928 0C28.2754 1.06369 25.6719 5.16793 24.3444 9.71796C22.9014 14.7996 22.6819 19.3092 23.1816 23.7464C23.6795 28.1814 25.5552 32.7287 25.5552 32.7287C26.5478 35.1217 28.0406 37.6814 29.0117 38.9406C30.4353 37.0896 33.7059 31.572 34.725 24.3643C35.2921 20.3504 35.3181 16.8421 34.0143 11.1241Z" fill="white"/>
<path d="M31.1968 40.2725H21.2853V46.9324C21.2979 46.9225 21.2997 46.9153 21.3118 46.913C23.6468 44.5713 27.4364 44.5713 29.7687 46.913C32.1109 49.2476 32.1109 53.0436 29.7687 55.3759C29.762 55.3902 29.7543 55.4024 29.7449 55.4073V55.4118C29.7305 55.4235 29.7211 55.4235 29.7068 55.4356C27.3789 57.7634 24.3332 58.9175 21.2853 58.9175C18.223 58.9175 15.1656 57.754 12.8356 55.4118C8.71552 51.2954 8.232 44.9254 11.3666 40.2725C11.785 39.6451 12.2708 39.0434 12.8356 38.4929C15.1656 36.1534 18.223 34.9895 21.2853 34.9895V18.9766C9.52408 18.9766 0 28.5166 0 40.2725C0 52.0401 9.52408 61.5756 21.2853 61.5756C27.4175 61.5756 32.9343 58.9826 36.8244 54.8321V40.2725H31.1968V40.2725Z" fill="white"/>
<path d="M6.21267 70.6978V71.6082H2.95866V79.7857H1.95166V70.6978H6.21267Z" fill="white"/>
<path d="M11.912 70.6978V71.6082H8.36838V74.5602H11.6843V75.4675H8.36838V78.8779H11.9241V79.7857H7.35913V70.6978H11.912Z" fill="white"/>
<path d="M14.4972 74.5605H17.9641V70.698H18.9737V79.7864H17.9641V75.4682H14.4972V79.7864H13.4875V70.698H14.4972V74.5605Z" fill="white"/>
<path d="M25.442 70.6978V71.6082H21.8989V74.5602H25.2148V75.4675H21.8989V78.8779H25.4537V79.7857H20.8892V70.6978H25.442Z" fill="white"/>
<path d="M28.0261 75.0269H29.0093C30.3979 75.0269 31.2276 74.8107 31.2276 73.2617C31.2276 71.9733 30.5097 71.6066 29.2989 71.6066H28.0261V75.0269V75.0269ZM28.0261 79.7845H27.0168V70.697H29.5413C31.1917 70.697 32.2754 71.4704 32.2754 73.2617C32.2754 75.381 30.9883 75.9364 29.3492 75.9364H28.0261V79.7845Z" fill="white"/>
<path d="M35.4791 71.4295H35.4554L34.2562 76.2649H36.6509L35.4791 71.4295ZM34.8232 70.697H36.1607L38.7062 79.7845H37.5964L36.8785 77.1722H34.0169L33.3475 79.7845H32.2395L34.8232 70.697Z" fill="white"/>
<path d="M45.5786 70.6978V79.7857H44.5689V71.6082H41.5187V75.2042C41.5187 77.2354 41.4805 79.9003 39.7144 79.9003C39.5262 79.9003 39.3103 79.8738 39.1096 79.8239V78.9282C39.2488 78.9759 39.3898 78.9907 39.5016 78.9907C40.4349 78.9907 40.5095 77.5774 40.5095 74.6604V70.6978H45.5786V70.6978Z" fill="white"/>
<path d="M48.5048 78.8779H49.651C50.8614 78.8779 51.5819 78.5117 51.5819 77.2233C51.5819 75.7718 50.7612 75.4675 49.3614 75.4675H48.5048V78.8779V78.8779ZM48.5048 74.5602H49.7031C51.3422 74.5602 52.6266 75.1161 52.6266 77.2233C52.6266 79.0267 51.5429 79.7857 49.9046 79.7857H47.4951V70.6978H48.5048V74.5602V74.5602Z" fill="white"/>
<path d="M54.8088 74.5605H58.2774V70.698H59.2844V79.7864H58.2774V75.4682H54.8088V79.7864H53.8018V70.698H54.8088V74.5605Z" fill="white"/>
<path d="M68.7291 79.7842H67.7194V70.6963H68.7291V79.7842ZM62.2117 78.8764H63.3579C64.5687 78.8764 65.2861 78.5102 65.2861 77.2218C65.2861 75.773 64.4681 75.4692 63.0665 75.4692H62.2117V78.8764ZM62.2117 74.5614H63.4081C65.0473 74.5614 66.3344 75.1146 66.3344 77.2218C66.3344 79.0274 65.2506 79.7842 63.6088 79.7842H61.2029V70.6963H62.2117V74.5614V74.5614Z" fill="white"/>
<path d="M72.2482 68.5906C72.3986 69.2224 72.8152 69.4597 73.4087 69.4597C74.0256 69.4597 74.4036 69.2462 74.5423 68.5906H75.0591C75.0591 69.6754 74.3295 70.1423 73.3575 70.1423C72.4754 70.1423 71.7314 69.6633 71.7314 68.5906H72.2482V68.5906ZM71.6547 70.6977V78.1193C71.6547 78.4469 71.6425 78.8015 71.6304 79.1273H71.6547C71.7817 78.713 71.8194 78.3845 72.0201 77.8794L74.8436 70.6977H76.3076V79.7857H75.2979V72.542C75.2979 72.0724 75.3127 71.6082 75.3244 71.153H75.2979C75.2117 71.6963 75.1094 72.2135 74.9468 72.6301L72.109 79.7857H70.6472V70.6977H71.6547V70.6977Z" fill="white"/>
<path d="M85.2602 73.4246C85.2602 72.3276 84.8965 71.4293 83.6332 71.4293C81.8822 71.4293 81.8701 73.9031 81.8701 75.103C81.8701 76.9468 81.9702 79.0899 83.6332 79.0899C84.9468 79.0899 85.1596 78.0051 85.2602 76.5037H86.2699C86.1572 78.5992 85.6386 80 83.7099 80C81.0378 80 80.8223 77.2726 80.8223 75.1268C80.8223 73.0817 81.2007 70.522 83.6834 70.522C85.3993 70.522 86.2699 71.796 86.2699 73.4246H85.2602V73.4246Z" fill="white"/>
<path d="M93.0401 70.6978V79.7857H92.0331V71.6082H88.5641V79.7857H87.5566V70.6978H93.0401Z" fill="white"/>
<path d="M97.2137 71.4293C95.6635 71.4293 95.2976 73.034 95.2976 75.0671C95.2976 77.7036 95.5755 79.0899 97.2375 79.0899C98.9054 79.0899 99.195 77.7036 99.195 75.0765C99.195 73.0457 98.8143 71.4293 97.2137 71.4293ZM94.2524 75.2275C94.2524 73.1459 94.5923 70.522 97.2375 70.522C99.9007 70.522 100.241 73.1459 100.241 75.2275C100.241 77.7395 99.8863 80 97.2375 80C94.5923 80 94.2524 77.7395 94.2524 75.2275Z" fill="white"/>
<path d="M102.523 74.5605H105.99V70.698H106.999V79.7864H105.99V75.4682H102.523V79.7864H101.514V70.698H102.523V74.5605Z" fill="white"/>
<path d="M112.775 73.4246C112.775 72.3276 112.409 71.4293 111.146 71.4293C109.394 71.4293 109.383 73.9031 109.383 75.103C109.383 76.9468 109.483 79.0899 111.146 79.0899C112.459 79.0899 112.672 78.0051 112.775 76.5037H113.782C113.67 78.5992 113.151 80 111.225 80C108.55 80 108.337 77.2726 108.337 75.1268C108.337 73.0817 108.715 70.522 111.198 70.522C112.914 70.522 113.782 71.796 113.782 73.4246H112.775V73.4246Z" fill="white"/>
<path d="M117.78 71.4293C116.232 71.4293 115.863 73.034 115.863 75.0671C115.863 77.7036 116.141 79.0899 117.806 79.0899C119.472 79.0899 119.759 77.7036 119.759 75.0765C119.759 73.0457 119.383 71.4293 117.78 71.4293V71.4293ZM114.818 75.2275C114.818 73.1459 115.158 70.522 117.806 70.522C120.467 70.522 120.809 73.1459 120.809 75.2275C120.809 77.7395 120.452 80 117.806 80C115.158 80 114.818 77.7395 114.818 75.2275Z" fill="white"/>
<path d="M123.214 75.0269H124.2C125.585 75.0269 126.418 74.8107 126.418 73.2617C126.418 71.9733 125.7 71.6066 124.487 71.6066H123.214V75.0269V75.0269ZM123.214 79.7845H122.207V70.697H124.729C126.38 70.697 127.463 71.4704 127.463 73.2617C127.463 75.381 126.178 75.9364 124.54 75.9364H123.214V79.7845Z" fill="white"/>
</svg>
