<?xml version="1.0" encoding="utf-8"?>
<!-- Generator: Adobe Illustrator 26.4.1, SVG Export Plug-In . SVG Version: 6.00 Build 0)  -->
<svg version="1.1" id="Слой_1" xmlns="http://www.w3.org/2000/svg" xmlns:xlink="http://www.w3.org/1999/xlink" x="0px" y="0px"
	 viewBox="0 0 100 100" style="enable-background:new 0 0 100 100;" xml:space="preserve">
<style type="text/css">
	.st0{fill:none;}
	
		.st1{clip-path:url(#SVGID_00000060006327930395478090000014551675583017400223_);fill-rule:evenodd;clip-rule:evenodd;fill:url(#SVGID_00000080893666995808906210000017415847153118311611_);}
	.st2{fill:#151213;}
	.st3{fill-rule:evenodd;clip-rule:evenodd;fill:#151213;}
	.st4{fill:#FFFFFF;}
	.st5{fill:#009226;}
	.st6{fill-rule:evenodd;clip-rule:evenodd;fill:#FFFFFF;}
	.st7{fill:#00ADEE;}
	.st8{fill-rule:evenodd;clip-rule:evenodd;fill:#FCB810;}
	.st9{fill-rule:evenodd;clip-rule:evenodd;fill:#008A8D;}
	.st10{fill:none;stroke:#181314;stroke-width:0.5854;stroke-miterlimit:22.9256;}
	.st11{fill-rule:evenodd;clip-rule:evenodd;fill:#ABABAD;}
	.st12{fill-rule:evenodd;clip-rule:evenodd;fill:#EE7607;}
	.st13{fill:none;stroke:#FFFFFF;stroke-width:1.4635;stroke-miterlimit:22.9256;}
	.st14{fill-rule:evenodd;clip-rule:evenodd;fill:#181314;}
	.st15{fill-rule:evenodd;clip-rule:evenodd;fill:#BF0808;}
	.st16{fill-rule:evenodd;clip-rule:evenodd;fill:#DA020E;}
	.st17{fill-rule:evenodd;clip-rule:evenodd;fill:#E2000F;}
	.st18{fill-rule:evenodd;clip-rule:evenodd;fill:#0C2F6E;}
	.st19{fill-rule:evenodd;clip-rule:evenodd;fill:#D1050C;}
	.st20{fill-rule:evenodd;clip-rule:evenodd;fill:#0F377F;}
	.st21{fill-rule:evenodd;clip-rule:evenodd;fill:#A40B02;}
	.st22{fill:#C8002D;}
	.st23{fill:#2B4135;}
	.st24{fill:url(#SVGID_00000123414450682385756660000015408549043200754060_);}
	.st25{fill:url(#SVGID_00000108279461355529753310000017025146417497941681_);}
	.st26{fill:#00519F;}
	.st27{fill:#0F1B41;}
	.st28{fill:#EB6608;}
	.st29{fill:#008AD1;}
	.st30{fill:#1D1D1B;}
	.st31{fill-rule:evenodd;clip-rule:evenodd;fill:#1D1D1B;}
	.st32{fill-rule:evenodd;clip-rule:evenodd;fill:#E8501E;}
	.st33{fill:none;stroke:#1D1D1B;stroke-width:0.1477;stroke-linecap:round;stroke-miterlimit:22.9256;}
	.st34{fill-rule:evenodd;clip-rule:evenodd;fill:#EF7F1A;}
	.st35{fill-rule:evenodd;clip-rule:evenodd;}
	.st36{fill-rule:evenodd;clip-rule:evenodd;fill:#FEFEFE;}
	.st37{fill-rule:evenodd;clip-rule:evenodd;fill:#009846;}
	.st38{fill:#FF5000;}
	.st39{fill:#1F355E;}
	.st40{fill:#DDDB05;}
	.st41{fill:#168DCD;}
	.st42{fill:#E53524;}
	.st43{fill:#4ABED8;}
	.st44{fill:#163960;}
	.st45{fill:#00A7E1;}
	.st46{fill:#002D74;}
	.st47{fill:#E1251B;}
	.st48{fill:#4A5161;}
	.st49{fill:#F4AA03;}
	.st50{fill:#E65F07;}
	.st51{fill:#293480;}
	.st52{fill:#2D2D7E;}
	.st53{fill:#3E4996;}
	.st54{fill-rule:evenodd;clip-rule:evenodd;fill:#2D2D7E;}
	.st55{fill-rule:evenodd;clip-rule:evenodd;fill:#4A5161;}
</style>
<g>
	<g>
		<path class="st4" d="M81.84,46.68c-0.75-7.99-4.42-15.35-10.36-20.72c-5.9-5.35-13.51-8.29-21.44-8.29c-0.99,0-2,0.05-3,0.14
			c-8.49,0.79-16.17,4.85-21.63,11.43c-5.46,6.58-8.03,14.88-7.24,23.37c0.75,7.98,4.42,15.34,10.36,20.72
			c5.9,5.35,13.52,8.29,21.45,8.29c0.99,0,2-0.05,3-0.14c8.5-0.79,16.19-4.85,21.65-11.42C80.06,63.49,82.63,55.19,81.84,46.68z"/>
		<g>
			<g>
				<g>
					<g>
						<g>
							<g>
								<path class="st30" d="M50.03,21.75c6.92,0,13.56,2.57,18.71,7.24c5.18,4.69,8.39,11.11,9.04,18.08
									c0.69,7.42-1.55,14.66-6.31,20.4c-4.76,5.74-11.47,9.27-18.88,9.96c-0.87,0.08-1.75,0.12-2.62,0.12
									c-6.92,0-13.56-2.57-18.71-7.24c-5.18-4.69-8.39-11.11-9.04-18.08c-0.69-7.41,1.55-14.65,6.32-20.39
									c4.76-5.74,11.47-9.28,18.87-9.97C48.29,21.79,49.17,21.75,50.03,21.75 M50.03,20.21c-0.91,0-1.84,0.04-2.76,0.13
									c-7.82,0.73-14.89,4.46-19.91,10.52c-5.03,6.06-7.39,13.7-6.67,21.51c0.68,7.35,4.07,14.12,9.53,19.08
									c5.43,4.92,12.44,7.63,19.74,7.63c0.91,0,1.84-0.04,2.76-0.13c7.83-0.73,14.9-4.46,19.93-10.51
									c5.02-6.05,7.38-13.69,6.65-21.52c-0.68-7.35-4.07-14.13-9.54-19.08C64.34,22.92,57.33,20.21,50.03,20.21L50.03,20.21z"/>
							</g>
						</g>
					</g>
				</g>
			</g>
		</g>
	</g>
	<g>
		<g>
			<g>
				<g>
					<g>
						<g>
							<g>
								<g>
									<g>
										<path class="st30" d="M45.03,42.56c0.92-0.18,3.89-0.49,6.27-0.49c3.99,0,5.56,1.93,5.56,3.98c0,2.12-1.44,3.19-1.44,3.19
											v0.03c0,0,1.96,0.9,1.96,3.3c0,3.14-2.71,4.64-6.3,4.64c-1.6,0-3.87-0.11-5.64-0.24V44.98L45.03,42.56z M48.91,45.43v2.62
											h2.42c1.11,0,2.05-0.4,2.05-1.37c0-0.91-0.71-1.34-2.14-1.34C50.7,45.34,49.5,45.39,48.91,45.43z M48.91,51.13v2.68
											c0.32,0.06,1.66,0.14,2.45,0.14c1.65,0,2.51-0.49,2.51-1.45c0-0.91-0.89-1.37-2.37-1.37H48.91z"/>
										<path class="st30" d="M60.12,42.15h11.7l-0.47,3.28h-7.36v3.05h6.29v3.28h-6.29v5.36h-3.47V44.98L60.12,42.15z"/>
									</g>
									<path class="st30" d="M43.59,57.11l-4.34-5.74c1.66-0.86,2.58-2.37,2.58-4.31c0-2.88-1.63-4.98-6.67-4.98
										c-1.62,0-4.12,0.21-5.36,0.4l0.4,2.46v12.17h3.48v-5.06c0.62,0.05,1.45,0.08,1.9,0.08l3.57,4.98H43.59z M33.68,45.42
										c0.57-0.03,1.31-0.05,1.85-0.05c1.77,0,2.59,0.6,2.59,1.7c0,1.17-1.08,1.8-2.56,1.8c-0.6,0-1.28-0.05-1.88-0.11V45.42z"/>
								</g>
							</g>
						</g>
					</g>
				</g>
			</g>
		</g>
	</g>
</g>
</svg>
