<?xml version="1.0" encoding="utf-8"?>
<!-- Generator: Adobe Illustrator 26.4.1, SVG Export Plug-In . SVG Version: 6.00 Build 0)  -->
<svg version="1.1" id="Слой_1" xmlns="http://www.w3.org/2000/svg" xmlns:xlink="http://www.w3.org/1999/xlink" x="0px" y="0px"
	 viewBox="0 0 100 100" style="enable-background:new 0 0 100 100;" xml:space="preserve">
<style type="text/css">
	.st0{fill:none;}
	
		.st1{clip-path:url(#SVGID_00000096774132112774021500000016607339141287030417_);fill-rule:evenodd;clip-rule:evenodd;fill:url(#SVGID_00000049908140781140173920000013168394951311939975_);}
	.st2{fill:#151213;}
	.st3{fill-rule:evenodd;clip-rule:evenodd;fill:#151213;}
	.st4{fill:#FFFFFF;}
	.st5{fill:#009226;}
	.st6{fill-rule:evenodd;clip-rule:evenodd;fill:#FFFFFF;}
	.st7{fill:#00ADEE;}
	.st8{fill-rule:evenodd;clip-rule:evenodd;fill:#FCB810;}
	.st9{fill-rule:evenodd;clip-rule:evenodd;fill:#008A8D;}
	.st10{fill:none;stroke:#181314;stroke-width:0.5854;stroke-miterlimit:22.9256;}
	.st11{fill-rule:evenodd;clip-rule:evenodd;fill:#ABABAD;}
	.st12{fill-rule:evenodd;clip-rule:evenodd;fill:#EE7607;}
	.st13{fill:none;stroke:#FFFFFF;stroke-width:1.4635;stroke-miterlimit:22.9256;}
	.st14{fill-rule:evenodd;clip-rule:evenodd;fill:#181314;}
	.st15{fill-rule:evenodd;clip-rule:evenodd;fill:#BF0808;}
	.st16{fill-rule:evenodd;clip-rule:evenodd;fill:#DA020E;}
	.st17{fill-rule:evenodd;clip-rule:evenodd;fill:#E2000F;}
	.st18{fill-rule:evenodd;clip-rule:evenodd;fill:#0C2F6E;}
	.st19{fill-rule:evenodd;clip-rule:evenodd;fill:#D1050C;}
	.st20{fill-rule:evenodd;clip-rule:evenodd;fill:#0F377F;}
	.st21{fill-rule:evenodd;clip-rule:evenodd;fill:#A40B02;}
	.st22{fill:#C8002D;}
	.st23{fill:#2B4135;}
	.st24{fill:url(#SVGID_00000140016112714721834080000012107921376362100375_);}
	.st25{fill:url(#SVGID_00000010297105994792209600000000391703731252118709_);}
	.st26{fill:#00519F;}
	.st27{fill:#0F1B41;}
	.st28{fill:#EB6608;}
	.st29{fill:#008AD1;}
	.st30{fill:#1D1D1B;}
	.st31{fill-rule:evenodd;clip-rule:evenodd;fill:#1D1D1B;}
	.st32{fill-rule:evenodd;clip-rule:evenodd;fill:#E8501E;}
	.st33{fill:none;stroke:#1D1D1B;stroke-width:0.1477;stroke-linecap:round;stroke-miterlimit:22.9256;}
	.st34{fill-rule:evenodd;clip-rule:evenodd;fill:#EF7F1A;}
	.st35{fill-rule:evenodd;clip-rule:evenodd;}
	.st36{fill-rule:evenodd;clip-rule:evenodd;fill:#FEFEFE;}
	.st37{fill-rule:evenodd;clip-rule:evenodd;fill:#009846;}
	.st38{fill:#FF5000;}
	.st39{fill:#1F355E;}
	.st40{fill:#DDDB05;}
	.st41{fill:#168DCD;}
	.st42{fill:#E53524;}
	.st43{fill:#4ABED8;}
	.st44{fill:#163960;}
	.st45{fill:#00A7E1;}
	.st46{fill:#002D74;}
	.st47{fill:#E1251B;}
	.st48{fill:#4A5161;}
	.st49{fill-rule:evenodd;clip-rule:evenodd;fill:#4A5161;}
	.st50{fill:#F8AD00;}
	.st51{fill:#EA6109;}
	.st52{fill:#283481;}
	.st53{fill:#2C2E7E;}
	.st54{fill:#3F4B9A;}
	.st55{fill-rule:evenodd;clip-rule:evenodd;fill:#2C2E7E;}
</style>
<g>
	<path class="st50" d="M50.54,49.33h4.73L58.48,37l-0.77-1.66c-4.19,2.66-7.85,6.08-10.79,10.06l1.11,5.84L50.54,49.33z"/>
	<path class="st50" d="M57.04,33.9l-2.74-5.89c-0.09-0.18-0.23-0.3-0.37-0.33c-0.18-0.04-0.37,0.05-0.5,0.14l-8.67,6.26l1.76,9.25
		C49.46,39.62,53.02,36.42,57.04,33.9z"/>
	<polygon class="st50" points="52.38,58.24 54.17,50.91 51.07,50.91 48.36,52.97 49.26,57.72 	"/>
	<path class="st50" d="M54.99,66.57l-2.16-6.66l-3.65-0.61l-0.52,5.53C50.71,65.6,52.82,66.19,54.99,66.57z"/>
	<path class="st51" d="M45.64,53.07l2.39-1.82l-1.11-5.84c-0.86,1.16-1.65,2.37-2.38,3.63L45.64,53.07z"/>
	<path class="st51" d="M43.97,46.93c0.79-1.25,1.64-2.45,2.56-3.61l-1.76-9.25l-3.59,2.59L43.97,46.93z"/>
	<polygon class="st51" points="47.36,57.4 49.26,57.72 48.36,52.97 46.67,54.26 	"/>
	<path class="st51" d="M45.94,63.67c0.89,0.42,1.8,0.81,2.72,1.15l0.52-5.53l-1.9-0.32L45.94,63.67z"/>
	<polygon class="st0" points="48.23,69.43 48.51,66.45 48.23,69.43 	"/>
	<path class="st50" d="M51.91,69.77c1.36,0,2.7-0.14,3.98-0.4l0.3,0.94l-0.66-2.04c-2.4-0.38-4.75-0.98-7.03-1.81l-0.28,2.98
		C49.42,69.65,50.65,69.77,51.91,69.77z"/>
	<path class="st52" d="M56.2,70.31c-0.12,0.04-0.24,0.07-0.37,0.11C55.95,70.38,56.08,70.34,56.2,70.31z"/>
	<path class="st51" d="M55.89,69.37c-1.29,0.26-2.62,0.4-3.98,0.4c-1.26,0-2.49-0.12-3.68-0.34l0.28-2.98
		c-1.02-0.37-2.02-0.78-3-1.24l-0.9,3.19l-0.56,1.98c0.2,0.06,0.4,0.11,0.6,0.16c0.04,0.01,0.08,0.02,0.12,0.03
		c0.17,0.04,0.35,0.08,0.52,0.12c0.02,0,0.04,0.01,0.05,0.01c0.03,0.01,0.06,0.01,0.09,0.02c0.05,0.01,0.1,0.02,0.14,0.03
		c0.06,0.01,0.12,0.03,0.19,0.04c0.04,0.01,0.08,0.01,0.12,0.02c0.07,0.01,0.15,0.03,0.22,0.04c0.01,0,0.03,0.01,0.04,0.01
		c0.02,0,0.04,0.01,0.06,0.01c0.05,0.01,0.1,0.02,0.15,0.02c0.1,0.02,0.2,0.03,0.3,0.05c0.02,0,0.04,0.01,0.05,0.01
		c0.02,0,0.04,0.01,0.06,0.01c0.03,0,0.06,0.01,0.09,0.01c0.1,0.01,0.2,0.03,0.3,0.04c0.01,0,0.03,0,0.04,0.01
		c0.29,0.04,0.58,0.07,0.88,0.1l0,0c0.64,0.06,1.28,0.09,1.93,0.09c0.84,0,1.67-0.05,2.49-0.14c0.01,0,0.02,0,0.04,0
		c0.18-0.02,0.35-0.04,0.53-0.07c0.02,0,0.03,0,0.05-0.01c0.01,0,0.03,0,0.04-0.01c0.16-0.02,0.33-0.05,0.49-0.08
		c0.07-0.01,0.15-0.03,0.22-0.04c0.09-0.02,0.17-0.03,0.26-0.05c0,0,0,0,0,0c0.18-0.04,0.36-0.07,0.54-0.11
		c0.02-0.01,0.05-0.01,0.07-0.01c0,0,0,0,0,0c0.37-0.08,0.74-0.18,1.11-0.28c0.12-0.03,0.24-0.07,0.37-0.11L55.89,69.37z"/>
	<path class="st0" d="M56.57,29.17L56.57,29.17c0.02,0.01,0.03,0.01,0.05,0.02C56.6,29.18,56.59,29.17,56.57,29.17z"/>
	<path class="st0" d="M46.22,28.48c0.16-0.03,0.32-0.05,0.48-0.08C46.54,28.42,46.38,28.45,46.22,28.48z"/>
	<path class="st0" d="M45.22,28.68c0.08-0.02,0.15-0.03,0.23-0.05C45.37,28.65,45.3,28.66,45.22,28.68z"/>
	<path class="st0" d="M50.28,28.15L50.28,28.15c-0.09,0-0.18-0.01-0.28-0.01c-1.11,0-2.21,0.09-3.27,0.25
		c1.07-0.16,2.16-0.25,3.27-0.25C50.1,28.15,50.19,28.15,50.28,28.15z"/>
	<path class="st0" d="M44.25,28.93c0.01,0,0.03-0.01,0.04-0.01C44.27,28.92,44.26,28.92,44.25,28.93z"/>
	<path class="st0" d="M44.73,28.8c0.04-0.01,0.09-0.02,0.13-0.03C44.82,28.78,44.77,28.79,44.73,28.8z"/>
	<path class="st0" d="M45.72,28.57c0.11-0.02,0.23-0.04,0.35-0.07C45.95,28.53,45.83,28.55,45.72,28.57z"/>
	<path class="st0" d="M71.49,51.18c-0.01,0.1-0.01,0.19-0.02,0.29C71.47,51.38,71.48,51.28,71.49,51.18z"/>
	<path class="st0" d="M64.44,33.71c0.04,0.03,0.07,0.07,0.11,0.1C64.51,33.77,64.48,33.74,64.44,33.71z"/>
	<path class="st0" d="M71.51,50.7c-0.01,0.11-0.01,0.23-0.02,0.34C71.5,50.93,71.51,50.81,71.51,50.7z"/>
	<path class="st0" d="M64.93,34.16c-0.02-0.02-0.05-0.04-0.07-0.07C64.88,34.11,64.9,34.14,64.93,34.16
		C64.93,34.16,64.93,34.16,64.93,34.16z"/>
	<path class="st0" d="M71.4,52.1c0,0.04-0.01,0.08-0.01,0.12C71.39,52.18,71.4,52.14,71.4,52.1z"/>
	<path class="st0" d="M57.01,29.31c0.05,0.02,0.1,0.04,0.16,0.05C57.12,29.35,57.06,29.33,57.01,29.31z"/>
	<path class="st0" d="M71.53,50.16c0,0.15-0.01,0.29-0.01,0.44C71.52,50.46,71.53,50.31,71.53,50.16z"/>
	<path class="st0" d="M71.45,51.65c-0.01,0.08-0.02,0.16-0.02,0.24C71.43,51.81,71.44,51.73,71.45,51.65z"/>
	<path class="st0" d="M64.01,33.33c0.01,0.01,0.01,0.01,0.02,0.02C64.02,33.34,64.02,33.33,64.01,33.33z"/>
	<path class="st0" d="M29.39,55.92c0-0.01-0.01-0.03-0.01-0.04C29.38,55.89,29.39,55.91,29.39,55.92z"/>
	<path class="st0" d="M46.7,70.96c-0.17-0.03-0.33-0.05-0.5-0.08C46.37,70.91,46.53,70.94,46.7,70.96z"/>
	<path class="st0" d="M45.55,70.75c-0.07-0.02-0.15-0.03-0.22-0.05C45.41,70.72,45.48,70.74,45.55,70.75z"/>
	<path class="st0" d="M53.06,71c-0.18,0.02-0.35,0.05-0.53,0.07C52.7,71.05,52.88,71.02,53.06,71z"/>
	<path class="st0" d="M54.72,70.69c-0.02,0.01-0.05,0.01-0.07,0.01C54.67,70.7,54.7,70.7,54.72,70.69z"/>
	<path class="st0" d="M53.63,70.91c-0.16,0.03-0.32,0.05-0.49,0.08C53.3,70.96,53.47,70.94,53.63,70.91z"/>
	<path class="st0" d="M54.11,70.82c-0.09,0.02-0.17,0.03-0.26,0.05C53.94,70.85,54.02,70.84,54.11,70.82z"/>
	<path class="st0" d="M46.14,70.87c-0.13-0.02-0.25-0.05-0.38-0.07C45.89,70.82,46.01,70.84,46.14,70.87z"/>
	<path class="st0" d="M29.2,55.26c-0.01-0.03-0.02-0.06-0.03-0.09C29.18,55.2,29.19,55.23,29.2,55.26z"/>
	<path class="st0" d="M29.01,54.49c0,0.01,0,0.02,0.01,0.03C29.01,54.5,29.01,54.49,29.01,54.49
		C29.01,54.49,29.01,54.49,29.01,54.49z"/>
	<path class="st53" d="M36.64,36.63c2.8-3.28,6.64-5.64,11.01-6.58l2.63-1.9c-0.09,0-0.18,0-0.28,0c-1.11,0-2.21,0.08-3.27,0.25
		c-0.01,0-0.02,0-0.03,0.01c-0.16,0.02-0.32,0.05-0.48,0.08c-0.05,0.01-0.11,0.02-0.16,0.03c-0.12,0.02-0.23,0.04-0.35,0.07
		c-0.09,0.02-0.18,0.04-0.27,0.06c-0.08,0.02-0.15,0.03-0.23,0.05c-0.12,0.03-0.24,0.06-0.36,0.09c-0.04,0.01-0.09,0.02-0.13,0.03
		c-0.15,0.04-0.3,0.08-0.44,0.12c-0.01,0-0.03,0.01-0.04,0.01c-3.49,0.97-6.63,2.8-9.16,5.24C35.53,35.03,36.05,35.86,36.64,36.63z"
		/>
	<path class="st53" d="M31.83,49.68c0-4.4,1.42-8.47,3.81-11.78c-0.64-0.8-1.21-1.65-1.71-2.54c-2.2,2.46-3.84,5.43-4.72,8.7
		c-0.02,0.06-0.03,0.12-0.05,0.19c-0.02,0.07-0.04,0.14-0.05,0.21c-0.03,0.1-0.05,0.21-0.08,0.31c-0.01,0.05-0.02,0.09-0.03,0.14
		c-0.03,0.13-0.06,0.26-0.09,0.4c-0.01,0.03-0.01,0.05-0.02,0.08c-0.03,0.16-0.06,0.31-0.09,0.47c0,0.01,0,0.02,0,0.02
		c-0.22,1.23-0.33,2.5-0.33,3.8c0,1.1,0.08,2.18,0.24,3.23c1.06-0.41,2.14-0.79,3.22-1.14C31.86,51.08,31.83,50.39,31.83,49.68z"/>
	<path class="st53" d="M35.89,61.79c-1.85-2.44-3.15-5.31-3.73-8.44c-1.06,0.35-2.11,0.72-3.15,1.13c0,0.01,0,0.02,0.01,0.03
		c0.05,0.22,0.1,0.44,0.16,0.65c0.01,0.03,0.02,0.06,0.03,0.09c0.06,0.21,0.11,0.41,0.18,0.62c0,0.01,0.01,0.03,0.01,0.04
		c0.99,3.26,2.73,6.19,5.02,8.6C34.82,63.56,35.32,62.65,35.89,61.79z"/>
	<path class="st53" d="M42.54,69.88l0.6-2.13c-2.37-1.15-4.47-2.75-6.21-4.69c-0.52,0.82-0.96,1.7-1.32,2.63
		C37.63,67.5,39.97,68.93,42.54,69.88z"/>
	<path class="st53" d="M64.84,34.31c0.03-0.05,0.06-0.1,0.08-0.15c-0.02-0.02-0.05-0.05-0.07-0.07c-0.1-0.1-0.2-0.19-0.31-0.29
		c-0.04-0.03-0.07-0.07-0.11-0.1c-0.13-0.12-0.27-0.24-0.41-0.36c-0.01-0.01-0.01-0.01-0.02-0.02c-2.02-1.73-4.34-3.07-6.84-3.96
		c-0.05-0.02-0.1-0.04-0.16-0.05c-0.13-0.05-0.26-0.09-0.39-0.13c-0.02-0.01-0.03-0.01-0.05-0.01l0.51,1.1
		C59.98,31.04,62.62,32.44,64.84,34.31z"/>
	<path class="st53" d="M64.38,65.7c-0.03-0.07-0.06-0.14-0.08-0.21c-2.02,1.58-4.34,2.78-6.87,3.51l0.26,0.8
		C60.17,68.84,62.44,67.44,64.38,65.7z"/>
	<path class="st53" d="M36.64,36.63c1.09,1.43,2.41,2.69,3.9,3.71l-1.17-4.31l8.28-5.98C43.28,30.99,39.45,33.35,36.64,36.63z"/>
	<path class="st53" d="M60.15,36.85l-0.95,3.67c2.37-1.56,4.32-3.7,5.65-6.21c-2.23-1.88-4.87-3.28-7.76-4.05L60.15,36.85z"/>
	<path class="st54" d="M43.15,67.76l2.75-9.7l-0.34-1.55c-3.61,1.09-6.65,3.43-8.61,6.56C38.68,65.01,40.78,66.61,43.15,67.76z"/>
	<path class="st53" d="M44.58,55.17l-1.16-4.27c-3.83,0.44-7.6,1.26-11.25,2.46c0.58,3.13,1.88,6,3.73,8.44
		C37.96,58.72,40.99,56.37,44.58,55.17z"/>
	<path class="st54" d="M31.93,51.77c3.59-1.16,7.3-1.97,11.06-2.41l-1.85-6.8c-2.13-1.17-4-2.77-5.5-4.66
		c-2.4,3.31-3.81,7.38-3.81,11.78C31.83,50.39,31.86,51.08,31.93,51.77z"/>
	<path class="st54" d="M54.43,56.5l-0.45,1.85L57.43,69c2.53-0.72,4.85-1.92,6.87-3.51C62.55,61.19,58.88,57.84,54.43,56.5z"/>
	<path class="st53" d="M55.81,50.81l-1.01,4.16c2.5,0.73,4.82,2.05,6.74,3.83c1.71,1.58,3.08,3.5,4.01,5.62
		c0.01,0.03,0.03,0.06,0.04,0.1c0.37-0.38,0.72-0.78,1.05-1.19c2.08-2.53,3.59-5.54,4.35-8.84C66.13,52.57,61.03,51.34,55.81,50.81z
		"/>
	<path class="st4" d="M29.38,55.88c-0.06-0.21-0.12-0.41-0.18-0.62C29.26,55.47,29.32,55.67,29.38,55.88z"/>
	<path class="st4" d="M29.18,55.17c-0.06-0.22-0.11-0.44-0.16-0.65C29.06,54.73,29.12,54.95,29.18,55.17z"/>
	<path class="st4" d="M46.76,70.97c-0.02,0-0.04-0.01-0.06-0.01C46.72,70.96,46.74,70.97,46.76,70.97z"/>
	<path class="st4" d="M53.14,70.99c-0.03,0-0.06,0.01-0.08,0.01C53.08,70.99,53.11,70.99,53.14,70.99z"/>
	<path class="st4" d="M53.85,70.87c-0.07,0.01-0.15,0.03-0.22,0.04C53.7,70.9,53.78,70.88,53.85,70.87z"/>
	<path class="st4" d="M52.53,71.07c-0.01,0-0.02,0-0.04,0C52.5,71.07,52.51,71.07,52.53,71.07z"/>
	<path class="st4" d="M54.65,70.71c-0.18,0.04-0.36,0.08-0.54,0.11C54.29,70.79,54.47,70.75,54.65,70.71z"/>
	<path class="st4" d="M46.2,70.88c-0.02,0-0.04-0.01-0.06-0.01C46.16,70.87,46.18,70.88,46.2,70.88z"/>
	<path class="st4" d="M45.76,70.79c-0.07-0.01-0.14-0.03-0.21-0.04C45.62,70.77,45.69,70.78,45.76,70.79z"/>
	<path class="st4" d="M46.7,28.4c0.01,0,0.02,0,0.03-0.01C46.72,28.39,46.71,28.4,46.7,28.4z"/>
	<path class="st4" d="M46.06,28.51c0.05-0.01,0.11-0.02,0.16-0.03C46.17,28.49,46.11,28.5,46.06,28.51z"/>
	<path class="st4" d="M56.62,29.18c0.13,0.04,0.26,0.09,0.39,0.13C56.88,29.27,56.75,29.22,56.62,29.18z"/>
	<path class="st4" d="M64.55,33.81c0.1,0.09,0.21,0.19,0.31,0.29C64.76,34,64.65,33.9,64.55,33.81z"/>
	<path class="st4" d="M64.03,33.35c0.14,0.12,0.27,0.24,0.41,0.36C64.31,33.58,64.17,33.46,64.03,33.35z"/>
	<path class="st4" d="M45.45,28.63c0.09-0.02,0.18-0.04,0.27-0.06C45.63,28.59,45.54,28.61,45.45,28.63z"/>
	<path class="st4" d="M44.86,28.77c0.12-0.03,0.24-0.06,0.36-0.09C45.1,28.71,44.98,28.74,44.86,28.77z"/>
	<path class="st4" d="M44.29,28.91c0.15-0.04,0.29-0.08,0.44-0.12C44.58,28.83,44.43,28.87,44.29,28.91z"/>
	<path class="st4" d="M71.52,50.6c0,0.03,0,0.06,0,0.1C71.51,50.67,71.52,50.64,71.52,50.6z"/>
	<path class="st4" d="M71.53,50.16C71.53,50.16,71.53,50.16,71.53,50.16C71.53,50.16,71.53,50.16,71.53,50.16z"/>
	<path class="st4" d="M71.42,51.89c-0.01,0.07-0.01,0.15-0.02,0.22C71.41,52.03,71.42,51.96,71.42,51.89z"/>
	<path class="st4" d="M71.46,51.47c0,0.06-0.01,0.12-0.02,0.18C71.45,51.59,71.46,51.53,71.46,51.47z"/>
	<path class="st4" d="M71.49,51.04c0,0.05-0.01,0.1-0.01,0.14C71.49,51.14,71.49,51.09,71.49,51.04z"/>
	<path class="st53" d="M57.83,45.74l-0.94,3.6c4.94,0.58,9.77,1.77,14.4,3.57c0.03-0.23,0.06-0.46,0.09-0.69
		c0-0.04,0.01-0.08,0.01-0.12c0.01-0.07,0.02-0.15,0.02-0.22c0.01-0.08,0.02-0.16,0.02-0.24c0.01-0.06,0.01-0.12,0.02-0.18
		c0.01-0.1,0.02-0.19,0.02-0.29c0-0.05,0.01-0.09,0.01-0.14c0.01-0.11,0.01-0.23,0.02-0.34c0-0.03,0-0.06,0-0.1
		c0.01-0.15,0.01-0.29,0.01-0.44c0,0,0,0,0-0.01c0-0.16,0.01-0.32,0.01-0.48c0-3.11-0.64-6.1-1.89-8.85
		C66.37,43.52,62.3,45.29,57.83,45.74z"/>
	<path class="st54" d="M66.81,36.22c-0.24-0.3-0.48-0.58-0.74-0.87c0,0,0,0,0,0c-0.01,0.02-0.02,0.04-0.03,0.06
		c-1.72,3.07-4.3,5.62-7.41,7.28l-0.79,3.06c4.46-0.45,8.53-2.22,11.82-4.91C68.91,39.2,67.96,37.65,66.81,36.22z"/>
	<path class="st55" d="M50,17.73c-17.64,0-31.95,14.3-31.95,31.95S32.36,81.63,50,81.63s31.95-14.3,31.95-31.95
		S67.64,17.73,50,17.73z M50,72.91c-12.83,0-23.23-10.4-23.23-23.23S37.17,26.45,50,26.45s23.23,10.4,23.23,23.23
		S62.83,72.91,50,72.91z"/>
	<polyline class="st6" points="29.08,65 29.05,65 27.4,67.92 27.4,67.95 27.8,68.44 27.83,68.44 31.01,67.38 31.01,67.34 
		30.58,66.82 30.55,66.82 28.33,67.59 29.51,65.56 29.51,65.53 29.08,65 	"/>
	<polyline class="st6" points="31.48,67.8 31.45,67.8 31.04,68.23 31.05,68.26 31.72,68.9 29.99,70.73 29.99,70.76 30.42,71.16 
		30.45,71.16 32.18,69.33 32.86,69.97 32.89,69.97 33.3,69.54 33.3,69.51 31.48,67.8 	"/>
	<path class="st6" d="M33.97,70.01l-0.03,0.01l-1.9,2.49l0.01,0.03l0.81,0.62c0.47,0.36,1.04,0.36,1.42-0.14
		c0.21-0.27,0.24-0.65,0.09-0.9c0.2,0.04,0.43-0.04,0.6-0.26c0.33-0.43,0.14-0.97-0.32-1.33L33.97,70.01 M34.08,70.89l0.18,0.14
		c0.2,0.15,0.22,0.31,0.11,0.45c-0.11,0.14-0.27,0.17-0.47,0.01l-0.18-0.14L34.08,70.89z M33.33,71.86l0.29,0.22
		c0.18,0.14,0.25,0.31,0.1,0.5c-0.15,0.2-0.33,0.17-0.51,0.04l-0.29-0.22L33.33,71.86z"/>
	<path class="st6" d="M37.13,72.17l-0.03,0.01l-0.79,1.56c-0.42,0.83-0.1,1.6,0.59,1.95c0.69,0.35,1.5,0.15,1.92-0.68l0.79-1.56
		l-0.01-0.03l-0.53-0.27l-0.03,0.01l-0.75,1.48c-0.28,0.55-0.71,0.66-1.1,0.46c-0.38-0.19-0.56-0.61-0.28-1.16l0.75-1.48l-0.01-0.03
		L37.13,72.17"/>
	<polyline class="st6" points="40.32,73.71 40.3,73.72 39.3,76.69 39.31,76.72 39.87,76.9 39.9,76.89 40.56,74.93 41.41,77.4 
		41.44,77.43 42.02,77.63 42.05,77.61 43.05,74.64 43.03,74.62 42.47,74.43 42.45,74.44 41.79,76.4 40.94,73.94 40.9,73.9 
		40.32,73.71 	"/>
	<polyline class="st6" points="43.92,74.83 43.89,74.84 43.19,77.89 43.21,77.92 43.78,78.05 43.81,78.04 44.51,74.99 44.5,74.96 
		43.92,74.83 	"/>
	<polyline class="st6" points="45.29,75.14 45.27,75.16 45.19,75.74 45.21,75.77 46.13,75.89 45.81,78.38 45.83,78.41 46.41,78.48 
		46.44,78.46 46.76,75.97 47.68,76.09 47.71,76.07 47.79,75.48 47.77,75.46 45.29,75.14 	"/>
	<polyline class="st6" points="48.5,75.5 48.48,75.52 48.42,78.65 48.45,78.67 50.62,78.71 50.65,78.69 50.66,78.1 50.63,78.08 
		49.07,78.05 49.08,77.35 50.19,77.37 50.22,77.35 50.23,76.76 50.21,76.73 49.09,76.71 49.1,76.15 50.62,76.17 50.64,76.15 
		50.66,75.56 50.63,75.54 48.5,75.5 	"/>
	<path class="st6" d="M51.53,75.49l-0.02,0.02l0.25,3.12l0.03,0.02l1.06-0.09c0.97-0.08,1.62-0.84,1.54-1.72
		c-0.07-0.87-0.83-1.53-1.8-1.45L51.53,75.49 M52.19,76.08l0.45-0.04c0.59-0.05,1.03,0.3,1.07,0.87c0.05,0.56-0.33,0.98-0.92,1.03
		l-0.45,0.04L52.19,76.08z"/>
	<polyline class="st6" points="55.84,74.86 55.82,74.89 56.61,77.91 56.64,77.93 58.4,77.47 58.41,77.45 58.26,76.88 58.24,76.86 
		57.07,77.16 56.44,74.73 56.41,74.71 55.84,74.86 	"/>
	<polyline class="st6" points="58.26,74.17 58.25,74.2 59.38,77.12 59.41,77.13 61.44,76.35 61.46,76.32 61.24,75.77 61.21,75.75 
		59.75,76.32 59.5,75.66 60.53,75.26 60.55,75.23 60.33,74.68 60.3,74.67 59.27,75.07 59.06,74.54 60.48,73.99 60.49,73.96 
		60.28,73.42 60.25,73.4 58.26,74.17 	"/>
	<path class="st6" d="M61.64,72.75l-0.01,0.03l0.59,3.21l0.03,0.01l0.65-0.35l0.01-0.03l-0.14-0.64l1.04-0.56l0.55,0.42l0.03,0.01
		l0.65-0.35l0.01-0.03l-2.81-2.02l-0.03-0.01L61.64,72.75 M62.37,73.27l0.91,0.71l-0.67,0.36L62.37,73.27z"/>
	<path class="st6" d="M66.23,70.71l-0.47-0.53c-0.36,0.11-0.66,0.31-0.98,0.6c-0.73,0.65-0.8,1.7-0.19,2.38
		c0.62,0.7,1.67,0.73,2.41,0.08c0.3-0.27,0.52-0.58,0.65-0.94l-1.1-1.24l-0.03,0l-0.82,0.72l0,0.03l0.39,0.44l0.03,0l0.36-0.32
		l0.39,0.44c-0.06,0.11-0.19,0.26-0.31,0.37c-0.48,0.42-1.08,0.35-1.44-0.06c-0.36-0.41-0.35-1.02,0.1-1.42
		c0.29-0.26,0.62-0.46,1.01-0.53L66.23,70.71"/>
	<path class="st6" d="M66.56,69.49l0,0.03l1.19,1.28c0.63,0.68,1.47,0.65,2.03,0.13c0.57-0.52,0.66-1.36,0.03-2.04l-1.19-1.28
		l-0.03,0l-0.43,0.4l0,0.03l1.12,1.21c0.42,0.45,0.37,0.9,0.05,1.19c-0.32,0.29-0.77,0.31-1.18-0.14l-1.12-1.21l-0.03,0L66.56,69.49
		"/>
	<polyline class="st6" points="69.33,66.83 69.33,66.86 71.77,68.82 71.8,68.82 73.17,67.12 73.16,67.09 72.7,66.72 72.67,66.72 
		71.69,67.94 71.14,67.5 71.84,66.64 71.84,66.6 71.38,66.24 71.34,66.24 70.65,67.1 70.21,66.75 71.16,65.57 71.15,65.53 
		70.69,65.16 70.66,65.17 69.33,66.83 	"/>
	<polyline class="st6" points="26.25,32.9 26.26,32.93 28.75,34.83 28.78,34.82 30.1,33.09 30.09,33.06 29.63,32.7 29.59,32.71 
		28.64,33.95 28.09,33.52 28.76,32.64 28.76,32.61 28.29,32.25 28.26,32.25 27.58,33.14 27.13,32.79 28.05,31.59 28.05,31.55 
		27.58,31.2 27.55,31.2 26.25,32.9 	"/>
	<path class="st6" d="M29.16,29.4l0,0.03l1.36,1.74c0.07,0.12,0.12,0.2,0.15,0.3l-0.28,0.27l0,0.03l0.97,1.02l0.03,0l0.43-0.41
		l0-0.03l-0.55-0.57l1.48-1.41l0.55,0.57l0.03,0l0.43-0.41l0-0.03l-0.97-1.02l-0.03,0l-0.25,0.23l-1.73-1.82l-0.03,0L29.16,29.4
		 M30,29.48l0.74-0.7l1.31,1.38l-0.87,0.83c-0.06-0.1-0.09-0.13-0.12-0.18L30,29.48z"/>
	<polyline class="st6" points="32.39,26.55 32.38,26.58 34.16,29.15 34.19,29.16 34.69,28.81 34.72,28.77 34.85,26.17 36.03,27.87 
		36.06,27.87 36.54,27.54 36.55,27.51 34.77,24.93 34.74,24.92 34.24,25.27 34.21,25.32 34.08,27.92 32.91,26.22 32.87,26.21 
		32.39,26.55 	"/>
	<polyline class="st6" points="36.35,24.02 36.34,24.05 37.67,26.88 37.7,26.89 38.24,26.64 38.25,26.61 37.69,25.42 39,24.8 
		39.56,25.99 39.59,26 40.12,25.75 40.13,25.72 38.8,22.89 38.77,22.88 38.23,23.13 38.22,23.16 38.73,24.23 37.42,24.85 
		36.91,23.78 36.88,23.77 36.35,24.02 	"/>
	<path class="st6" d="M41.51,21.91l-0.01,0.03l-0.31,3.34l0.03,0.02l0.68-0.19l0.02-0.03l0.05-0.67l1.09-0.31l0.39,0.55l0.03,0.02
		l0.68-0.19l0.01-0.03l-2.01-2.69l-0.03-0.02L41.51,21.91 M42.04,22.61l0.64,0.93l-0.7,0.2L42.04,22.61z"/>
	<path class="st6" d="M47.09,20.8l-0.88,0.11c-0.63,0.08-0.96,0.56-0.89,1.08c0.05,0.36,0.21,0.59,0.52,0.69l-0.89,1.58l0.03,0.02
		l0.72-0.09l0.02-0.03l0.79-1.36l0.22-0.03L46.89,24l0.03,0.02l0.58-0.08l0.02-0.03l-0.4-3.1L47.09,20.8 M46.56,21.5l0.08,0.63
		l-0.22,0.03c-0.25,0.03-0.39-0.04-0.42-0.27c-0.03-0.22,0.09-0.33,0.34-0.36L46.56,21.5z"/>
	<path class="st6" d="M51.41,20.68l-0.05,0.02l-0.54,2.14c-0.1,0.29-0.31,0.4-0.58,0.38l-0.02,0.02l-0.05,0.56l0.02,0.03
		c0.59,0.05,1.01-0.13,1.21-0.78l0.45-1.69l0.99,0.09l-0.23,2.51l0.02,0.02l0.59,0.05l0.03-0.02l0.28-3.12l-0.02-0.02L51.41,20.68"
		/>
	<polyline class="st6" points="55.27,21.13 55.25,21.15 54.54,24.2 54.55,24.23 55.15,24.36 55.2,24.35 57.21,22.7 56.75,24.71 
		56.76,24.74 57.34,24.87 57.36,24.86 58.07,21.81 58.06,21.78 57.46,21.64 57.41,21.65 55.4,23.3 55.86,21.29 55.85,21.27 
		55.27,21.13 	"/>
	<polyline class="st6" points="59.91,22.41 59.88,22.42 58.69,25.31 58.7,25.34 59.25,25.57 59.28,25.56 60.24,23.23 61.6,23.79 
		61.63,23.78 61.85,23.23 61.84,23.2 59.91,22.41 	"/>
	<path class="st6" d="M63.52,24.04l-0.03,0.01l-2.55,2.17l0.01,0.03l0.62,0.34l0.03-0.01l0.5-0.45l1,0.54l-0.1,0.67L63,27.37
		l0.62,0.34l0.03-0.01l0.44-3.32l-0.01-0.03L63.52,24.04 M63.41,24.91l-0.19,1.11l-0.64-0.35L63.41,24.91z"/>
	<path class="st6" d="M67.4,26.49l-0.03,0l-1.97,2.43l0,0.03l0.79,0.64c0.46,0.37,1.02,0.39,1.42-0.1c0.21-0.26,0.26-0.64,0.12-0.9
		c0.2,0.04,0.43-0.03,0.6-0.24c0.34-0.42,0.17-0.97-0.29-1.34L67.4,26.49 M67.47,27.37l0.18,0.14c0.19,0.16,0.21,0.32,0.1,0.46
		c-0.11,0.14-0.27,0.16-0.47,0l-0.18-0.14L67.47,27.37z M66.7,28.32l0.28,0.23c0.18,0.14,0.24,0.31,0.09,0.51
		c-0.16,0.19-0.34,0.16-0.51,0.02l-0.28-0.23L66.7,28.32z"/>
	<polyline class="st6" points="69.92,28.59 69.89,28.59 69.47,29 69.47,29.03 70.11,29.7 68.3,31.45 68.3,31.48 68.7,31.9 
		68.74,31.91 70.55,30.16 71.19,30.83 71.23,30.83 71.65,30.42 71.65,30.39 69.92,28.59 	"/>
	<path class="st6" d="M72.74,31.7l-0.03,0l-2.52,1.86l0,0.03l0.62,0.84c0.36,0.49,0.92,0.64,1.44,0.27
		c0.51-0.38,0.51-0.94,0.15-1.44l-0.26-0.35l0.46-0.34l0.77,1.04l0.03,0l0.47-0.35l0-0.03L72.74,31.7 M71.63,33.28l0.23,0.31
		c0.16,0.22,0.18,0.4-0.02,0.55c-0.22,0.16-0.39,0.09-0.55-0.13l-0.23-0.31L71.63,33.28z"/>
	<path class="st4" d="M67.69,46.7h0.33c0.13,0,0.2-0.03,0.25-0.1c0.03-0.03,0.07-0.1,0.07-0.21c0-0.11-0.04-0.19-0.11-0.25
		c-0.05-0.03-0.11-0.05-0.21-0.05h-0.33V46.7 M67.25,47.07v-2.2h1.43l-0.13,0.37h-0.87v0.49h0.35c0.29,0,0.43,0.07,0.54,0.16
		c0.08,0.07,0.22,0.22,0.22,0.52c0,0.3-0.14,0.46-0.26,0.54c-0.14,0.1-0.28,0.12-0.57,0.12H67.25z M65.98,47.07v-1.83h-0.64v-0.37
		h1.77l-0.13,0.37h-0.56v1.83H65.98z M64.22,45.74h0.25c0.08,0,0.11,0,0.15-0.01c0.1-0.03,0.17-0.12,0.17-0.25
		c0-0.15-0.07-0.21-0.17-0.24c-0.04-0.01-0.08-0.01-0.17-0.01h-0.23V45.74z M64.22,46.12v0.58h0.3c0.09,0,0.18-0.01,0.24-0.06
		c0.06-0.06,0.09-0.13,0.09-0.22c0-0.07-0.02-0.14-0.06-0.19c-0.06-0.08-0.14-0.1-0.28-0.1H64.22z M64.93,45.89L64.93,45.89
		c0.08,0.04,0.16,0.09,0.21,0.13c0.13,0.11,0.19,0.25,0.19,0.43c0,0.3-0.16,0.52-0.42,0.59c-0.08,0.02-0.16,0.03-0.32,0.03h-0.8
		v-2.2h0.7c0.14,0,0.24,0.01,0.33,0.03c0.25,0.07,0.42,0.24,0.42,0.52c0,0.15-0.05,0.27-0.14,0.36
		C65.06,45.81,65.01,45.86,64.93,45.89"/>
	<polyline class="st4" points="63.41,44.31 61.56,44.31 61.43,44.68 63.28,44.68 63.41,44.31 	"/>
	<polyline class="st4" points="63.21,44.86 61.36,44.86 61.23,45.23 63.08,45.23 63.21,44.86 	"/>
	<polyline class="st4" points="63.01,45.41 61.16,45.41 61.03,45.78 62.88,45.78 63.01,45.41 	"/>
	<path class="st4" d="M68.04,35.23c-3.14-3.92-7.52-6.73-12.36-7.96c-0.31-0.58-0.79-0.98-1.37-1.12c-0.58-0.15-1.22-0.01-1.78,0.37
		l-0.22,0.16c-0.76-0.08-1.54-0.12-2.31-0.12c-12.74,0-23.11,10.37-23.11,23.11S37.26,72.79,50,72.79
		c12.74,0,23.11-10.37,23.11-23.11C73.11,44.44,71.31,39.31,68.04,35.23z M71.54,49.68c0,1.1-0.08,2.18-0.24,3.23
		c-4.62-1.79-9.46-2.99-14.4-3.57l1.73-6.66c3.13-1.67,5.73-4.24,7.45-7.34c0.25,0.28,0.5,0.57,0.74,0.87
		C69.9,40.07,71.54,44.73,71.54,49.68z M45.55,56.51l0.34,1.55l-3.35,11.82c-2.57-0.95-4.92-2.38-6.92-4.19
		C37.34,61.27,40.99,57.88,45.55,56.51z M47.27,58.98l5.55,0.93l2.16,6.66c-3.13-0.56-6.17-1.54-9.05-2.9L47.27,58.98z M53.98,58.35
		l0.45-1.85c4.52,1.36,8.24,4.79,9.96,9.19c-1.95,1.75-4.21,3.15-6.69,4.1L53.98,58.35z M52.38,58.24l-5.02-0.84l-0.69-3.14
		l4.4-3.35h3.09L52.38,58.24z M50.54,49.33l-4.9,3.74l-1.1-4.04c3.22-5.54,7.76-10.26,13.17-13.69L58.48,37l-3.21,12.33H50.54z
		 M56.57,29.17c3.12,1,5.99,2.72,8.36,4.99c-1.33,2.58-3.32,4.78-5.74,6.36l0.95-3.67L56.57,29.17z M53.93,27.68
		c0.14,0.04,0.27,0.16,0.37,0.33l2.74,5.89c-5.27,3.31-9.75,7.78-13.07,13.03l-2.8-10.27l12.26-8.85
		C53.56,27.73,53.75,27.63,53.93,27.68z M50.28,28.15l-10.92,7.88l1.17,4.31c-2.29-1.57-4.18-3.7-5.46-6.17
		c3.87-3.73,9.13-6.02,14.92-6.02C50.1,28.14,50.19,28.15,50.28,28.15z M33.93,35.36c1.67,3.01,4.18,5.53,7.21,7.2l1.85,6.8
		c-4.9,0.58-9.7,1.77-14.29,3.55c-0.16-1.05-0.24-2.13-0.24-3.23C28.47,44.19,30.54,39.17,33.93,35.36z M29.01,54.49
		c4.62-1.82,9.46-3.02,14.41-3.59l1.16,4.27C40,56.71,36.31,60.1,34.4,64.51C31.78,61.76,29.88,58.32,29.01,54.49z M44.04,70.38
		l1.47-5.17c3.19,1.48,6.55,2.51,10.03,3.06l0.66,2.04c-1.96,0.59-4.04,0.91-6.2,0.91C47.94,71.22,45.94,70.92,44.04,70.38z
		 M65.6,64.52c-0.94-2.16-2.32-4.11-4.06-5.72c-1.92-1.78-4.24-3.09-6.74-3.83l1.01-4.16c5.22,0.53,10.32,1.76,15.19,3.67
		C70.12,58.32,68.22,61.76,65.6,64.52z"/>
</g>
</svg>
