<svg width="150" height="150" viewBox="0 0 150 150" fill="none" xmlns="http://www.w3.org/2000/svg">
<path d="M138.724 74.9997C138.724 76.0424 138.698 77.084 138.647 78.1256C138.596 79.1665 138.518 80.2062 138.417 81.2433C138.314 82.2809 138.186 83.3154 138.034 84.3466C137.881 85.3781 137.703 86.4048 137.499 87.427C137.296 88.4496 137.068 89.4663 136.814 90.4778C136.561 91.4888 136.283 92.4933 135.98 93.491C135.678 94.4882 135.351 95.4782 135 96.4598C134.648 97.4413 134.273 98.4135 133.873 99.377C133.475 100.34 133.052 101.292 132.607 102.235C132.16 103.178 131.692 104.108 131.2 105.028C130.708 105.947 130.195 106.854 129.659 107.748C129.123 108.642 128.566 109.522 127.987 110.39C127.407 111.256 126.806 112.108 126.186 112.946C125.565 113.783 124.923 114.605 124.261 115.411C123.601 116.216 122.92 117.005 122.219 117.778C121.52 118.551 120.801 119.305 120.063 120.043C119.325 120.78 118.57 121.498 117.798 122.198C117.025 122.898 116.237 123.579 115.43 124.241C114.624 124.902 113.802 125.543 112.965 126.164C112.128 126.785 111.275 127.385 110.408 127.964C109.541 128.543 108.662 129.102 107.766 129.637C106.871 130.173 105.965 130.686 105.045 131.178C104.125 131.67 103.195 132.138 102.252 132.584C101.309 133.03 100.357 133.451 99.3938 133.851C98.4308 134.249 97.458 134.625 96.4762 134.976C95.4942 135.327 94.5043 135.654 93.5072 135.957C92.5091 136.26 91.5038 136.538 90.4919 136.79C89.4815 137.044 88.4649 137.273 87.442 137.475C86.4181 137.679 85.3913 137.857 84.3614 138.01C83.3291 138.162 82.2942 138.291 81.257 138.392C80.2193 138.495 79.1794 138.572 78.1379 138.623C77.0965 138.675 76.0554 138.7 75.0122 138.7C73.9696 138.7 72.927 138.675 71.8855 138.623C70.844 138.572 69.8052 138.495 68.7679 138.392C67.729 138.291 66.6958 138.162 65.6637 138.01C64.6319 137.857 63.6054 137.679 62.5825 137.475C61.5601 137.273 60.5426 137.044 59.5314 136.79C58.5197 136.538 57.5159 136.26 56.518 135.957C55.5198 135.654 54.5293 135.327 53.5488 134.976C52.5666 134.625 51.5944 134.249 50.6313 133.851C49.6678 133.451 48.7143 133.03 47.7715 132.584C46.8284 132.138 45.898 131.67 44.9784 131.178C44.0595 130.686 43.152 130.173 42.2577 129.637C41.3633 129.102 40.4829 128.544 39.6156 127.964C38.7484 127.385 37.8958 126.785 37.0588 126.164C36.2213 125.543 35.4001 124.902 34.5933 124.241C33.7885 123.579 32.9981 122.898 32.2252 122.198C31.4533 121.498 30.6979 120.78 29.9613 120.043C29.2237 119.305 28.5054 118.551 27.8047 117.778C27.105 117.005 26.4241 116.216 25.7622 115.411C25.1 114.605 24.4602 113.783 23.8386 112.946C23.2175 112.108 22.6173 111.256 22.038 110.39C21.4586 109.522 20.9009 108.642 20.3645 107.748C19.8279 106.854 19.3151 105.947 18.8233 105.028C18.3314 104.108 17.8631 103.178 17.4173 102.235C16.9715 101.293 16.5501 100.34 16.15 99.3768C15.7514 98.4135 15.376 97.4411 15.0249 96.4598C14.6735 95.4782 14.3472 94.4882 14.0443 93.491C13.7421 92.4933 13.4633 91.4888 13.2094 90.4778C12.9571 89.4663 12.7285 88.4496 12.5246 87.427C12.3208 86.4048 12.1438 85.3781 11.9899 84.3466C11.8371 83.3154 11.7101 82.2809 11.6074 81.2433C11.505 80.2062 11.4282 79.1665 11.3781 78.1256C11.3264 77.0841 11.3013 76.0424 11.3013 74.9997C11.3013 73.9571 11.3264 72.9157 11.3781 71.8741C11.4282 70.8329 11.505 69.7938 11.6074 68.7562C11.7101 67.7189 11.8371 66.6841 11.9899 65.653C12.1438 64.6223 12.3208 63.5951 12.5246 62.573C12.7286 61.55 12.9572 60.5335 13.2094 59.5219C13.4633 58.5108 13.7421 57.5064 14.0443 56.5086C14.347 55.5113 14.6735 54.5215 15.0249 53.54C15.376 52.5587 15.7514 51.5861 16.15 50.6232C16.5501 49.6597 16.9715 48.7071 17.4173 47.7651C17.8631 46.822 18.3314 45.8914 18.8233 44.9722C19.3151 44.0524 19.8279 43.1461 20.3645 42.2515C20.9009 41.3573 21.4586 40.4773 22.038 39.6102C22.6173 38.7436 23.2175 37.8914 23.8386 37.054C24.4603 36.2166 25.1001 35.3948 25.7622 34.5891C26.4241 33.7835 27.105 32.9941 27.8047 32.2217C28.5055 31.4491 29.2238 30.6948 29.9613 29.9577C30.6979 29.2203 31.4531 28.5017 32.2252 27.8016C32.998 27.1013 33.7885 26.4209 34.5933 25.7597C35.4001 25.0979 36.2213 24.4569 37.0588 23.8358C37.8958 23.2149 38.7484 22.615 39.6156 22.0355C40.483 21.4562 41.3635 20.8992 42.2577 20.363C43.152 19.8271 44.0595 19.3134 44.9784 18.8218C45.898 18.3307 46.8284 17.8619 47.7715 17.4161C48.7143 16.9701 49.6678 16.5479 50.6313 16.1493C51.5942 15.7505 52.5666 15.3754 53.5488 15.0239C54.5292 14.6729 55.5196 14.3458 56.518 14.0433C57.5159 13.7404 58.5198 13.4626 59.5314 13.2093C60.5427 12.9558 61.5602 12.7275 62.5825 12.5244C63.6053 12.3205 64.6319 12.1426 65.6637 11.9898C66.6958 11.8368 67.7291 11.709 68.7679 11.6073C69.805 11.5047 70.844 11.4283 71.8855 11.3773C72.927 11.326 73.9696 11.3 75.0122 11.3C76.0554 11.3 77.0965 11.326 78.1379 11.3773C79.1794 11.4283 80.2194 11.5049 81.257 11.6073C82.2942 11.709 83.3291 11.8368 84.3614 11.9898C85.3913 12.1426 86.4182 12.3205 87.442 12.5244C88.4649 12.7275 89.4815 12.956 90.4919 13.2093C91.5038 13.4626 92.5091 13.7404 93.5072 14.0433C94.5041 14.3458 95.4941 14.6729 96.4762 15.0239C97.458 15.3754 98.4308 15.7505 99.3938 16.1493C100.357 16.5479 101.309 16.9702 102.252 17.4161C103.195 17.8619 104.125 18.3306 105.045 18.8218C105.965 19.3134 106.871 19.8271 107.766 20.363C108.662 20.8992 109.541 21.4562 110.408 22.0355C111.275 22.615 112.128 23.215 112.965 23.8358C113.802 24.4569 114.624 25.0979 115.43 25.7597C116.237 26.4209 117.025 27.1013 117.798 27.8016C118.57 28.5018 119.325 29.2204 120.063 29.9577C120.801 30.6948 121.52 31.4491 122.219 32.2217C122.92 32.9941 123.601 33.7835 124.261 34.5891C124.923 35.3948 125.565 36.2166 126.186 37.054C126.806 37.8914 127.407 38.7436 127.987 39.6102C128.566 40.4773 129.123 41.3573 129.659 42.2515C130.195 43.1461 130.708 44.0525 131.2 44.9722C131.692 45.8914 132.16 46.822 132.607 47.7651C133.052 48.7071 133.475 49.6596 133.873 50.6232C134.273 51.5861 134.648 52.5587 135 53.54C135.351 54.5214 135.678 55.5113 135.98 56.5086C136.283 57.5065 136.561 58.5109 136.814 59.5219C137.068 60.5335 137.296 61.55 137.499 62.573C137.703 63.5951 137.881 64.6223 138.034 65.653C138.186 66.684 138.315 67.7188 138.417 68.7562C138.518 69.7938 138.596 70.8329 138.647 71.8741C138.698 72.9156 138.724 73.9571 138.724 74.9997Z" fill="#D22B2D"/>
<path d="M75.0122 12.6005C73.9901 12.5999 72.9688 12.6246 71.9476 12.6749C70.9263 12.7245 69.9068 12.7994 68.8894 12.8992C67.8721 12.9995 66.8579 13.124 65.8461 13.2733C64.8359 13.4232 63.8277 13.5978 62.8258 13.7967C61.8222 13.9957 60.8251 14.2194 59.8336 14.4672C58.842 14.7151 57.8577 14.9874 56.8783 15.2839C55.9006 15.5798 54.9303 15.9004 53.9673 16.2441C53.0044 16.5882 52.0508 16.9561 51.1066 17.3464C50.1623 17.7375 49.2275 18.151 48.3035 18.5881C47.3796 19.025 46.4667 19.4843 45.5641 19.9652C44.6631 20.4473 43.7728 20.9504 42.8961 21.4762C42.0195 22.0011 41.1566 22.5471 40.3058 23.1148C39.4561 23.6826 38.6201 24.2705 37.7984 24.8792C36.9773 25.4876 36.1721 26.1161 35.3822 26.7641C34.5919 27.4124 33.8179 28.0794 33.0601 28.7658C32.302 29.4518 31.5622 30.156 30.8395 30.8786C30.1155 31.6014 29.4115 32.3406 28.7238 33.0978C28.038 33.8549 27.3707 34.6285 26.721 35.4185C26.0725 36.2084 25.4443 37.0135 24.8352 37.8345C24.2257 38.655 23.6369 39.4901 23.0698 40.3397C22.501 41.1891 21.9541 42.0526 21.4286 42.929C20.9032 43.8054 20.399 44.6945 19.917 45.5955C19.4345 46.497 18.9757 47.4093 18.5375 48.3333C18.1017 49.2569 17.6867 50.191 17.2948 51.1349C16.9046 52.0787 16.5358 53.0323 16.1916 53.994C15.8469 54.9564 15.5266 55.9263 15.2297 56.9047C14.934 57.8825 14.6608 58.8669 14.4125 59.8578C14.164 60.8494 13.9398 61.8467 13.7397 62.8486C13.5412 63.8511 13.3653 64.8574 13.2158 65.8683C13.0659 66.8795 12.9416 67.893 12.8399 68.9103C12.7398 69.9269 12.6646 70.9459 12.6146 71.9667C12.5645 72.987 12.5403 74.0088 12.5403 75.03C12.5387 76.0524 12.5645 77.0732 12.6146 78.0932C12.663 79.1136 12.7387 80.1324 12.8389 81.1487C12.939 82.1656 13.0631 83.1791 13.2131 84.1902C13.3626 85.2007 13.5369 86.2068 13.7358 87.2087C13.9353 88.211 14.1586 89.2075 14.407 90.1983C14.6555 91.1893 14.927 92.1738 15.2243 93.1517C15.52 94.1294 15.8403 95.0992 16.1844 96.0611C16.529 97.0229 16.8963 97.9759 17.287 98.9199C17.6783 99.8637 18.0918 100.798 18.528 101.721C18.9662 102.645 19.4251 103.557 19.906 104.458C20.3881 105.359 20.8909 106.248 21.4164 107.124C21.9418 108.001 22.4887 108.864 23.0559 109.713C23.6232 110.563 24.2123 111.398 24.8203 112.218C25.4292 113.039 26.0575 113.844 26.7061 114.634C27.3541 115.424 28.0213 116.197 28.7079 116.954C29.3938 117.712 30.099 118.452 30.8217 119.174C31.5445 119.896 32.2843 120.601 33.0412 121.287C33.7986 121.973 34.5713 122.64 35.3618 123.288C36.1521 123.937 36.9584 124.565 37.7779 125.174C38.5995 125.783 39.4346 126.37 40.2837 126.938C41.1351 127.506 41.9979 128.053 42.8746 128.578C43.7513 129.103 44.64 129.607 45.5408 130.088C46.4422 130.57 47.3551 131.029 48.2791 131.466C49.203 131.903 50.1378 132.317 51.0816 132.707C52.0259 133.099 52.9794 133.466 53.9415 133.811C54.9033 134.155 55.8744 134.476 56.8522 134.772C57.8305 135.068 58.8151 135.341 59.8065 135.59C60.7981 135.837 61.7952 136.061 62.7972 136.261C63.7997 136.46 64.807 136.635 65.8173 136.785C66.8293 136.935 67.8421 137.059 68.8597 137.159C69.8764 137.259 70.8965 137.335 71.9178 137.385C72.9374 137.435 73.9602 137.461 74.9813 137.461C76.0037 137.461 77.026 137.435 78.0461 137.385C79.0672 137.335 80.0875 137.259 81.1043 137.159C82.1212 137.058 83.1356 136.934 84.1477 136.783C85.1584 136.632 86.1651 136.458 87.1677 136.259C88.1703 136.058 89.1673 135.834 90.1589 135.586C91.1515 135.337 92.1358 135.066 93.1137 134.768C94.0919 134.471 95.0615 134.151 96.0244 133.807C96.9866 133.462 97.9403 133.093 98.8848 132.702C99.8288 132.311 100.763 131.897 101.687 131.459C102.611 131.023 103.525 130.563 104.425 130.081C105.327 129.599 106.217 129.095 107.093 128.57C107.969 128.044 108.833 127.497 109.683 126.929C110.532 126.361 111.368 125.773 112.19 125.164C113.009 124.555 113.816 123.926 114.605 123.278C115.394 122.629 116.169 121.961 116.927 121.275C117.683 120.589 118.423 119.884 119.146 119.161C119.868 118.438 120.573 117.698 121.26 116.94C121.946 116.183 122.613 115.409 123.262 114.619C123.909 113.829 124.538 113.023 125.146 112.202C125.755 111.381 126.343 110.545 126.911 109.696C127.479 108.846 128.024 107.983 128.55 107.106C129.075 106.229 129.579 105.34 130.06 104.439C130.542 103.537 131.002 102.625 131.438 101.701C131.874 100.777 132.289 99.8423 132.679 98.8982C133.069 97.9536 133.437 97.0005 133.781 96.0386C134.126 95.0759 134.446 94.1054 134.742 93.1275C135.038 92.1496 135.311 91.1653 135.557 90.1737C135.806 89.1822 136.029 88.1849 136.229 87.1829C136.428 86.1804 136.602 85.1738 136.752 84.1628C136.901 83.1518 137.025 82.1376 137.126 81.1209C137.225 80.1042 137.3 79.0848 137.35 78.0645C137.399 77.0433 137.425 76.0221 137.423 75.0002C137.422 73.9793 137.396 72.959 137.344 71.9396C137.295 70.92 137.218 69.9016 137.118 68.8858C137.017 67.8701 136.891 66.8571 136.74 65.8471C136.59 64.8373 136.414 63.8321 136.214 62.8304C136.014 61.8296 135.79 60.834 135.541 59.8436C135.291 58.8541 135.018 57.8701 134.723 56.8938C134.426 55.9164 134.104 54.9478 133.76 53.9863C133.416 53.0255 133.048 52.0736 132.656 51.1301C132.265 50.1873 131.851 49.2545 131.414 48.3317C130.977 47.4088 130.518 46.4976 130.035 45.5972C129.555 44.6972 129.051 43.8092 128.526 42.9337C128 42.058 127.454 41.1957 126.887 40.3472C126.318 39.4983 125.731 38.6642 125.123 37.8441C124.514 37.0241 123.886 36.2194 123.239 35.4308C122.59 34.6414 121.923 33.869 121.238 33.1121C120.552 32.3561 119.849 31.6163 119.126 30.8943C118.404 30.1727 117.665 29.4688 116.908 28.7832C116.152 28.0972 115.379 27.4311 114.589 26.7831C113.8 26.1351 112.995 25.5073 112.175 24.8991C111.355 24.2907 110.52 23.7028 109.672 23.1357C108.822 22.5679 107.961 22.0219 107.085 21.4966C106.21 20.9717 105.321 20.4682 104.421 19.9866C103.521 19.5048 102.609 19.046 101.686 18.609C100.763 18.1721 99.8301 17.7579 98.886 17.367C97.9427 16.9755 96.9909 16.6077 96.0298 16.2637C95.0681 15.919 94.0985 15.5983 93.1227 15.3013C92.1452 15.0042 91.1626 14.7313 90.1709 14.4829C89.1807 14.2339 88.1854 14.0092 87.1843 13.8095C86.1817 13.6096 85.177 13.4345 84.1668 13.2839C83.1561 13.1331 82.1432 13.0074 81.1275 12.9068C80.1118 12.806 79.0926 12.7302 78.073 12.6788C77.0535 12.6275 76.0335 12.6015 75.0122 12.6005ZM75.0122 140C73.9483 140 72.8851 139.974 71.8217 139.922C70.7587 139.869 69.6984 139.791 68.6393 139.686C67.5808 139.583 66.5254 139.453 65.4734 139.296C64.421 139.141 63.3728 138.958 62.3284 138.75C61.2859 138.544 60.2469 138.31 59.2154 138.052C58.1831 137.793 57.1581 137.51 56.1396 137.201C55.1223 136.892 54.1122 136.558 53.1095 136.2C52.1086 135.842 51.1161 135.458 50.1327 135.052C49.1505 134.645 48.1783 134.215 47.2164 133.759C46.2546 133.304 45.3037 132.826 44.366 132.325C43.4273 131.823 42.5021 131.299 41.5887 130.752C40.6769 130.205 39.7777 129.637 38.8928 129.045C38.0078 128.454 37.1394 127.842 36.2843 127.208C35.4295 126.574 34.592 125.92 33.7691 125.245C32.9469 124.57 32.1417 123.876 31.3529 123.161C30.5637 122.447 29.7941 121.714 29.0417 120.962C28.2893 120.209 27.5555 119.439 26.841 118.651C26.1264 117.863 25.4324 117.057 24.7569 116.235C24.0814 115.413 23.4279 114.575 22.7941 113.72C22.1593 112.865 21.5475 111.996 20.9562 111.112C20.3658 110.227 19.797 109.328 19.2503 108.416C18.7028 107.504 18.179 106.579 17.6761 105.641C17.1754 104.702 16.697 103.752 16.242 102.791C15.7865 101.829 15.3556 100.857 14.9493 99.874C14.541 98.8915 14.159 97.8988 13.8011 96.8974C13.4417 95.8961 13.1081 94.886 12.8003 93.8681C12.4908 92.8505 12.2072 91.8251 11.9489 90.7938C11.6895 89.7616 11.4575 88.7235 11.2492 87.6807C11.0415 86.6375 10.8602 85.5896 10.7034 84.5372C10.5484 83.4847 10.4171 82.4295 10.3133 81.371C10.2092 80.3121 10.1307 79.2513 10.078 78.1893C10.0257 77.1266 10 76.0633 10 74.9995C10 73.936 10.0257 72.8728 10.078 71.8105C10.1307 70.7478 10.2092 69.6874 10.3133 68.6288C10.4171 67.5698 10.5484 66.5147 10.7034 65.4623C10.8602 64.4097 11.0415 63.3623 11.2492 62.3187C11.4575 61.2756 11.6895 60.2379 11.9489 59.2062C12.2072 58.1741 12.4908 57.1493 12.8003 56.1311C13.1082 55.1132 13.4417 54.1035 13.8011 53.1019C14.1589 52.1004 14.5409 51.1086 14.9493 50.1252C15.3556 49.1425 15.7864 48.1705 16.242 47.2087C16.697 46.247 17.1754 45.297 17.6761 44.3588C18.179 43.4205 18.7028 42.4956 19.2503 41.5829C19.797 40.6705 20.3658 39.7724 20.9562 38.8874C21.5476 38.0032 22.1593 37.1338 22.7941 36.2795C23.4279 35.4245 24.0814 34.5861 24.7569 33.764C25.4324 32.942 26.1265 32.1369 26.841 31.3487C27.5555 30.5603 28.2893 29.79 29.0417 29.0381C29.7941 28.2857 30.5637 27.5522 31.3529 26.8377C32.1417 26.1239 32.947 25.429 33.7691 24.754C34.5919 24.0793 35.4295 23.425 36.2843 22.7913C37.1394 22.1576 38.0079 21.5456 38.8928 20.9539C39.7777 20.3629 40.6769 19.7941 41.5887 19.2476C42.5021 18.7004 43.4271 18.1766 44.366 17.6753C45.3036 17.1736 46.2546 16.6953 47.2164 16.2404C48.1783 15.7857 49.1505 15.3545 50.1327 14.9477C51.1161 14.5405 52.1086 14.1579 53.1095 13.7996C54.1122 13.4407 55.1225 13.1074 56.1396 12.7987C57.1581 12.4901 58.1831 12.2063 59.2154 11.9477C60.2469 11.689 61.2859 11.4565 62.3284 11.2491C63.3728 11.0414 64.421 10.8596 65.4734 10.7036C66.5254 10.5471 67.5808 10.4169 68.6393 10.3131C69.6984 10.2086 70.7587 10.1302 71.8217 10.0783C72.8852 10.0258 73.9483 10 75.0122 10C76.0754 10 77.1399 10.0258 78.2013 10.0783C79.2648 10.1302 80.3251 10.2086 81.3841 10.3131C82.4432 10.4169 83.4994 10.5471 84.5516 10.7036C85.6035 10.8596 86.6523 11.0414 87.6944 11.2491C88.7387 11.4565 89.7765 11.689 90.8085 11.9477C91.84 12.2063 92.8653 12.4902 93.8841 12.7987C94.9021 13.1074 95.9111 13.4407 96.9137 13.7996C97.9163 14.1579 98.9072 14.5405 99.8905 14.9477C100.874 15.3545 101.847 15.7857 102.808 16.2404C103.77 16.6953 104.72 17.1736 105.658 17.6753C106.597 18.1765 107.523 18.7004 108.434 19.2476C109.348 19.7941 110.245 20.363 111.131 20.9539C112.015 21.5455 112.885 22.1576 113.739 22.7913C114.594 23.4251 115.433 24.0794 116.255 24.754C117.078 25.429 117.883 26.1239 118.672 26.8377C119.459 27.5522 120.23 28.2857 120.982 29.0381C121.734 29.79 122.467 30.5603 123.181 31.3487C123.897 32.1369 124.592 32.9421 125.266 33.764C125.942 34.5861 126.597 35.4245 127.23 36.2795C127.864 37.1338 128.476 38.0032 129.067 38.8874C129.659 39.7724 130.228 40.6705 130.775 41.5829C131.322 42.4955 131.846 43.4205 132.347 44.3588C132.849 45.297 133.328 46.247 133.782 47.2087C134.237 48.1705 134.668 49.1425 135.076 50.1252C135.482 51.1085 135.864 52.1003 136.224 53.1019C136.582 54.1035 136.915 55.1132 137.225 56.1311C137.534 57.1493 137.818 58.1741 138.076 59.2062C138.334 60.2379 138.568 61.2756 138.775 62.3187C138.982 63.3623 139.164 64.4097 139.32 65.4623C139.477 66.5147 139.606 67.5698 139.711 68.6288C139.816 69.6874 139.894 70.7478 139.945 71.8105C139.998 72.8728 140.023 73.936 140.023 74.9995C140.023 76.0633 139.997 77.1261 139.942 78.1882C139.89 79.2503 139.81 80.3102 139.706 81.3686C139.601 82.4271 139.469 83.482 139.313 84.5341C139.155 85.5861 138.973 86.6334 138.765 87.6761C138.556 88.7193 138.323 89.7563 138.063 90.7878C137.804 91.8192 137.52 92.844 137.212 93.8612C136.901 94.879 136.567 95.8879 136.209 96.8892C135.85 97.8904 135.466 98.8823 135.059 99.8647C134.651 100.847 134.22 101.819 133.765 102.78C133.31 103.741 132.832 104.69 132.33 105.628C131.828 106.566 131.303 107.491 130.756 108.403C130.208 109.315 129.64 110.213 129.048 111.097C128.458 111.982 127.845 112.851 127.212 113.705C126.578 114.559 125.923 115.397 125.249 116.219C124.573 117.041 123.879 117.846 123.165 118.634C122.449 119.421 121.716 120.192 120.965 120.944C120.213 121.696 119.442 122.429 118.655 123.143C117.867 123.858 117.06 124.552 116.239 125.227C115.416 125.902 114.579 126.556 113.724 127.19C112.871 127.823 112 128.435 111.117 129.026C110.232 129.617 109.335 130.186 108.422 130.733C107.509 131.28 106.584 131.804 105.646 132.307C104.709 132.808 103.759 133.286 102.798 133.742C101.836 134.197 100.865 134.628 99.8814 135.035C98.8992 135.443 97.9064 135.826 96.9054 136.185C95.9046 136.544 94.8946 136.878 93.8773 137.187C92.8597 137.497 91.8347 137.78 90.8031 138.04C89.7721 138.299 88.733 138.533 87.691 138.741C86.6479 138.949 85.5998 139.131 84.5488 139.288C83.4962 139.444 82.4416 139.575 81.3824 139.681C80.3237 139.786 79.263 139.866 78.2011 139.918C77.1383 139.972 76.0754 139.999 75.0122 140Z" fill="white"/>
<path d="M74.8294 33.0682C74.1424 33.0678 73.4548 33.0839 72.7673 33.1172C72.0808 33.1508 71.3949 33.2008 70.71 33.2677C70.0251 33.3349 69.3429 33.4187 68.6621 33.519C67.9811 33.619 67.3034 33.736 66.629 33.8701C65.954 34.0037 65.2824 34.154 64.6151 34.3208C63.9479 34.4876 63.2845 34.6701 62.6266 34.8696C61.9676 35.069 61.3141 35.2838 60.6672 35.5155C60.0187 35.7466 59.3773 35.9933 58.7408 36.2569C58.106 36.5195 57.4766 36.7977 56.8539 37.0909C56.2322 37.3847 55.6178 37.6933 55.0115 38.0176C54.4037 38.3413 53.8052 38.6796 53.2148 39.033C52.6246 39.3861 52.0435 39.7538 51.4708 40.1353C50.8983 40.5175 50.3365 40.9129 49.784 41.3227C49.2301 41.7319 48.6886 42.1545 48.1559 42.5904C47.6241 43.0267 47.1024 43.4754 46.5934 43.9369C46.0828 44.3986 45.5842 44.8725 45.0978 45.3583C44.6103 45.8444 44.1359 46.3424 43.6741 46.8517C43.212 47.3614 42.7624 47.8817 42.3248 48.4129C41.8884 48.9444 41.4657 49.4863 41.0553 50.0388C40.6448 50.5911 40.2484 51.1531 39.8665 51.7244C39.4829 52.2966 39.1155 52.877 38.7616 53.4668C38.4076 54.0568 38.067 54.6546 37.7432 55.2613C37.419 55.8676 37.1094 56.4818 36.8149 57.1034C36.5203 57.7248 36.241 58.3533 35.9773 58.9887C35.714 59.624 35.4657 60.2654 35.2331 60.9129C35.0012 61.5603 34.7846 62.2135 34.585 62.8716C34.3849 63.5298 34.2014 64.1923 34.0338 64.8592C33.8662 65.5268 33.7151 66.1973 33.5816 66.8722C33.4462 67.5465 33.3286 68.224 33.2276 68.9042C33.1264 69.5846 33.0413 70.2671 32.9735 70.9514C32.906 71.6366 32.8549 72.3218 32.8208 73.0085C32.7873 73.6957 32.7698 74.3832 32.7698 75.071C32.7698 75.759 32.7858 76.4468 32.8197 77.1337C32.8533 77.8214 32.9033 78.5072 32.9708 79.1916C33.0384 79.8763 33.1221 80.5591 33.2237 81.2397C33.3233 81.9199 33.4408 82.5979 33.5743 83.2728C33.7094 83.9478 33.8597 84.6188 34.0273 85.2859C34.1932 85.9539 34.3768 86.6165 34.5769 87.275C34.7771 87.9335 34.9915 88.5861 35.2238 89.2342C35.4547 89.8822 35.702 90.5237 35.9654 91.1596C36.2291 91.7954 36.5072 92.4239 36.8017 93.0458C37.0959 93.668 37.4041 94.2828 37.7285 94.8897C38.0539 95.4963 38.3913 96.0946 38.7452 96.6852C39.0992 97.2748 39.4665 97.8565 39.849 98.4283C40.2315 99.0004 40.6272 99.5627 41.0378 100.115C41.4468 100.668 41.87 101.211 42.3059 101.743C42.7424 102.274 43.1924 102.795 43.6541 103.305C44.1163 103.814 44.59 104.313 45.0766 104.8C45.563 105.286 46.0609 105.76 46.5704 106.222C47.0798 106.684 47.6008 107.134 48.133 107.571C48.664 108.007 49.2069 108.43 49.7593 108.84C50.3123 109.25 50.8741 109.646 51.4452 110.028C52.0178 110.411 52.5988 110.779 53.1891 111.133C53.7795 111.486 54.378 111.825 54.9843 112.15C55.591 112.474 56.2056 112.784 56.8271 113.077C57.4499 113.372 58.0775 113.651 58.714 113.914C59.3488 114.177 59.9902 114.424 60.6389 114.657C61.2857 114.888 61.9397 115.104 62.5972 115.304C63.2566 115.503 63.9185 115.687 64.5857 115.854C65.253 116.022 65.9245 116.172 66.5996 116.307C67.274 116.441 67.9517 116.558 68.6327 116.659C69.3119 116.761 69.9957 116.844 70.6806 116.912C71.3655 116.979 72.0502 117.03 72.7379 117.064C73.4253 117.098 74.1129 117.115 74.8 117.115C75.4882 117.115 76.1753 117.098 76.8628 117.064C77.5493 117.031 78.2353 116.98 78.9201 116.913C79.605 116.846 80.287 116.762 80.9669 116.661C81.6473 116.56 82.3254 116.443 82.9996 116.309C83.675 116.175 84.345 116.024 85.0123 115.857C85.6796 115.69 86.3423 115.507 87.0008 115.307C87.6582 115.108 88.3123 114.892 88.9592 114.66C89.6071 114.429 90.2493 114.181 90.884 113.919C91.5198 113.655 92.1487 113.377 92.7698 113.083C93.3925 112.789 94.0072 112.48 94.6131 112.156C95.22 111.832 95.8179 111.493 96.4072 111.139C96.9976 110.786 97.5784 110.418 98.1511 110.036C98.7223 109.654 99.2846 109.258 99.8379 108.849C100.391 108.439 100.932 108.016 101.465 107.58C101.996 107.143 102.517 106.694 103.026 106.232C103.535 105.77 104.034 105.297 104.52 104.81C105.006 104.323 105.48 103.825 105.942 103.316C106.405 102.806 106.854 102.286 107.29 101.754C107.727 101.223 108.149 100.68 108.56 100.128C108.97 99.5752 109.365 99.0132 109.748 98.4414C110.13 97.8695 110.498 97.2885 110.851 96.6986C111.205 96.1086 111.544 95.5103 111.868 94.9038C112.193 94.2971 112.502 93.6831 112.796 93.0615C113.09 92.4392 113.369 91.8111 113.633 91.1752C113.895 90.5398 114.143 89.8984 114.374 89.251C114.607 88.6034 114.822 87.9502 115.021 87.2923C115.221 86.6337 115.405 85.971 115.572 85.3034C115.74 84.6365 115.89 83.9659 116.023 83.2909C116.158 82.6163 116.276 81.9385 116.377 81.2587C116.477 80.578 116.562 79.8957 116.63 79.2114C116.696 78.5265 116.747 77.8406 116.781 77.1535C116.815 76.4665 116.831 75.7794 116.831 75.0915C116.833 74.404 116.816 73.717 116.782 73.0298C116.749 72.3434 116.698 71.6574 116.632 70.9731C116.565 70.2895 116.481 69.6065 116.381 68.9268C116.28 68.2463 116.164 67.5692 116.03 66.8944C115.896 66.2202 115.747 65.5493 115.579 64.8827C115.412 64.2155 115.229 63.5529 115.03 62.895C114.831 62.237 114.616 61.5838 114.385 60.9364C114.153 60.2889 113.907 59.6473 113.643 59.0122C113.38 58.3766 113.102 57.7483 112.808 57.1267C112.514 56.5047 112.206 55.8906 111.882 55.2844C111.558 54.6781 111.22 54.0795 110.866 53.4898C110.514 52.8998 110.146 52.3188 109.764 51.7469C109.382 51.1751 108.986 50.613 108.576 50.0607C108.167 49.5081 107.745 48.966 107.308 48.4343C106.873 47.9025 106.424 47.3822 105.963 46.8725C105.501 46.3627 105.027 45.8648 104.541 45.379C104.054 44.8923 103.557 44.418 103.048 43.9563C102.539 43.494 102.017 43.0453 101.487 42.6086C100.954 42.1724 100.413 41.7493 99.8603 41.3398C99.309 40.9297 98.7472 40.534 98.1742 40.1521C97.603 39.7694 97.0222 39.4018 96.4333 39.0481C95.8431 38.6947 95.2443 38.3559 94.6377 38.0312C94.0315 37.7075 93.4187 37.3984 92.7971 37.1038C92.1744 36.8096 91.5462 36.5313 90.9113 36.268C90.2748 36.0045 89.6351 35.7571 88.9866 35.5257C88.3396 35.2935 87.6872 35.078 87.0293 34.8781C86.3704 34.6787 85.7086 34.495 85.0412 34.3277C84.3739 34.161 83.7035 34.0101 83.0285 33.8762C82.3547 33.7415 81.6774 33.6242 80.997 33.5231C80.3162 33.4222 79.634 33.3379 78.9502 33.2707C78.2655 33.2032 77.5796 33.1526 76.8929 33.119C76.2048 33.0849 75.5188 33.0682 74.8294 33.0682Z" fill="white"/>
<path d="M74.8301 34.1863C74.1591 34.1863 73.489 34.2028 72.818 34.236C72.1479 34.2688 71.478 34.3182 70.8108 34.3841C70.1419 34.4498 69.4763 34.5319 68.8113 34.6307C68.1484 34.7293 67.4862 34.8438 66.8288 34.9748C66.1692 35.1061 65.5139 35.2533 64.8632 35.4163C64.2118 35.5793 63.565 35.7582 62.9236 35.9533C62.2805 36.1481 61.6428 36.3586 61.0109 36.5852C60.38 36.8114 59.7534 37.0531 59.1334 37.31C58.5135 37.567 57.8985 37.8385 57.2921 38.1262C56.686 38.4132 56.0858 38.7152 55.4943 39.0317C54.903 39.3483 54.3176 39.6789 53.7422 40.0241C53.1666 40.3693 52.5994 40.7285 52.0415 41.1017C51.4837 41.4746 50.9358 41.8615 50.3965 42.2614C49.8563 42.6615 49.328 43.0745 48.8092 43.5002C48.2908 43.9263 47.7826 44.3646 47.2846 44.8157C46.7872 45.2668 46.3012 45.7295 45.8269 46.2044C45.3526 46.6793 44.8893 47.1651 44.4397 47.6628C43.9884 48.1605 43.551 48.6684 43.1256 49.1877C42.6985 49.7068 42.2867 50.2361 41.8867 50.7753C41.4871 51.3146 41.1007 51.8633 40.7276 52.4215C40.3549 52.98 39.9971 53.5471 39.6514 54.1229C39.3068 54.699 38.9759 55.2826 38.6598 55.8751C38.3439 56.4669 38.0426 57.0664 37.7563 57.6732C37.4699 58.2804 37.1967 58.894 36.94 59.5141C36.6851 60.1346 36.4431 60.7609 36.2178 61.393C35.992 62.0251 35.7816 62.6626 35.587 63.3049C35.3924 63.9474 35.2143 64.5937 35.0506 65.2453C34.8884 65.8962 34.7411 66.5512 34.6113 67.2097C34.4807 67.8683 34.3658 68.5294 34.2684 69.1931C34.17 69.8576 34.0889 70.5233 34.0229 71.1911C33.9579 71.8592 33.9091 72.5291 33.8766 73.199C33.8448 73.8698 33.8283 74.5404 33.8283 75.2115C33.8294 75.8831 33.8459 76.554 33.8792 77.224C33.9133 77.8944 33.9634 78.5638 34.0294 79.2318C34.0959 79.8996 34.1782 80.5654 34.2766 81.2295C34.3768 81.8936 34.4915 82.5543 34.6224 83.2127C34.7548 83.8706 34.902 84.5254 35.0654 85.1764C35.2302 85.8272 35.4083 86.4743 35.6047 87.1162C35.8002 87.7583 36.0114 88.3953 36.2379 89.0269C36.4647 89.659 36.7066 90.2848 36.9649 90.9048C37.2216 91.5248 37.4942 92.1379 37.7816 92.7441C38.0697 93.351 38.372 93.9499 38.6881 94.5413C39.0056 95.1334 39.3383 95.7167 39.6823 96.292C40.028 96.8677 40.3891 97.4339 40.7617 97.9915C41.1361 98.5493 41.522 99.0975 41.9232 99.6362C42.3234 100.175 42.7366 100.704 43.1631 101.223C43.5902 101.741 44.0292 102.248 44.4806 102.745C44.9317 103.242 45.3946 103.728 45.8706 104.202C46.346 104.676 46.8318 105.138 47.3303 105.588C47.8277 106.038 48.3368 106.476 48.8555 106.902C49.3755 107.326 49.9049 107.739 50.4451 108.138C50.9843 108.537 51.5341 108.923 52.0918 109.295C52.6513 109.667 53.2186 110.026 53.7951 110.37C54.3705 110.714 54.9554 111.045 55.5485 111.36C56.1404 111.675 56.7401 111.977 57.3479 112.263C57.9542 112.549 58.5688 112.82 59.1887 113.076C59.8104 113.332 60.4369 113.573 61.0689 113.798C61.7015 114.024 62.3392 114.234 62.9816 114.427C63.6248 114.621 64.2716 114.799 64.9229 114.962C65.5743 115.124 66.2289 115.27 66.8884 115.4C67.5464 115.53 68.2081 115.644 68.8727 115.742C69.5362 115.839 70.2032 115.92 70.8706 115.985C71.5389 116.05 72.209 116.098 72.8789 116.13C73.5507 116.162 74.2206 116.177 74.8916 116.177C75.5629 116.176 76.2345 116.158 76.9044 116.124C77.5756 116.09 78.2444 116.04 78.9133 115.973C79.5807 115.906 80.2464 115.823 80.9107 115.724C81.5741 115.624 82.2359 115.508 82.8937 115.377C83.5528 115.244 84.2062 115.096 84.8576 114.932C85.5088 114.768 86.156 114.588 86.7973 114.392C87.4392 114.196 88.0767 113.984 88.7089 113.758C89.3398 113.531 89.9663 113.288 90.5853 113.03C91.2055 112.772 91.818 112.499 92.4246 112.211C93.0312 111.923 93.6314 111.62 94.2229 111.303C94.8131 110.986 95.3969 110.654 95.9716 110.308C96.5476 109.962 97.1133 109.602 97.6712 109.228C98.229 108.854 98.7776 108.466 99.3151 108.066C99.8541 107.665 100.382 107.251 100.901 106.824C101.419 106.397 101.926 105.958 102.423 105.507C102.919 105.055 103.405 104.591 103.877 104.116C104.352 103.64 104.814 103.153 105.264 102.655C105.713 102.157 106.151 101.648 106.577 101.128C107 100.609 107.413 100.079 107.813 99.5391C108.211 98.9993 108.596 98.45 108.969 97.8913C109.34 97.3323 109.698 96.7647 110.043 96.1879C110.386 95.6118 110.715 95.0271 111.031 94.4347C111.346 93.8418 111.648 93.2423 111.933 92.6347C112.219 92.0272 112.489 91.413 112.746 90.7928C113.001 90.1718 113.241 89.5454 113.466 88.9129C113.691 88.2809 113.901 87.6426 114.094 87.0002C114.287 86.3576 114.466 85.7105 114.626 85.0589C114.788 84.4075 114.934 83.7525 115.064 83.094C115.193 82.4355 115.306 81.7737 115.404 81.1094C115.501 80.445 115.581 79.7794 115.646 79.1114C115.711 78.4427 115.758 77.7739 115.789 77.1031C115.821 76.4324 115.836 75.762 115.835 75.0908C115.832 74.4211 115.814 73.7518 115.779 73.0826C115.744 72.4136 115.694 71.7463 115.625 71.0795C115.558 70.4134 115.474 69.7487 115.374 69.0861C115.275 68.4239 115.158 67.7643 115.026 67.1081C114.893 66.4514 114.745 65.7985 114.581 65.1489C114.417 64.4993 114.237 63.8547 114.041 63.214C113.846 62.5734 113.633 61.9384 113.406 61.3077C113.18 60.6777 112.938 60.0534 112.679 59.435C112.421 58.8167 112.148 58.2052 111.861 57.5998C111.574 56.9952 111.272 56.3981 110.955 55.8075C110.637 55.2171 110.306 54.6352 109.962 54.0611C109.616 53.4875 109.257 52.9222 108.884 52.3657C108.511 51.8095 108.124 51.2624 107.724 50.7253C107.324 50.1876 106.912 49.6604 106.486 49.1435C106.06 48.6258 105.622 48.1193 105.172 47.6238C104.721 47.1279 104.259 46.6436 103.785 46.1701C103.309 45.6974 102.825 45.2356 102.327 44.7867C101.83 44.3371 101.324 43.9002 100.805 43.476C100.286 43.0512 99.7581 42.6395 99.2206 42.2413C98.6813 41.8422 98.1329 41.4573 97.5767 41.0856C97.0187 40.7138 96.4531 40.356 95.8788 40.012C95.3033 39.6679 94.7197 39.3381 94.1293 39.0227C93.5381 38.7071 92.9395 38.4065 92.3344 38.1199C91.729 37.8338 91.1164 37.5628 90.4976 37.3061C89.8787 37.0498 89.2533 36.809 88.6222 36.5833C87.9918 36.358 87.3559 36.148 86.7148 35.9532C86.0736 35.7592 85.4278 35.5803 84.7781 35.4174C84.1282 35.2549 83.4742 35.1077 82.818 34.9765C82.1607 34.8458 81.5011 34.7314 80.8383 34.6328C80.1757 34.5341 79.5103 34.4517 78.8441 34.3857C78.1768 34.3197 77.5096 34.2702 76.8396 34.2367C76.1702 34.2039 75.5009 34.1868 74.8301 34.1863ZM74.8301 118.081C74.1267 118.082 73.423 118.064 72.7207 118.03C72.0165 117.996 71.3142 117.944 70.6133 117.876C69.9137 117.806 69.214 117.72 68.5182 117.618C67.8213 117.514 67.1271 117.393 66.4369 117.257C65.7463 117.119 65.0588 116.965 64.3768 116.795C63.6936 116.623 63.0154 116.436 62.3414 116.232C61.6671 116.027 60.9988 115.807 60.3353 115.569C59.6736 115.332 59.0158 115.079 58.3661 114.81C57.7147 114.54 57.0716 114.255 56.4341 113.954C55.7981 113.653 55.1689 113.337 54.5488 113.005C53.9273 112.673 53.3139 112.326 52.7103 111.964C52.1062 111.602 51.5121 111.226 50.9256 110.835C50.3408 110.444 49.7654 110.038 49.1997 109.619C48.6337 109.199 48.0786 108.766 47.5339 108.32C46.9898 107.873 46.4577 107.413 45.9349 106.941C45.4134 106.468 44.9037 105.982 44.4054 105.484C43.9074 104.987 43.4221 104.477 42.9494 103.955C42.4766 103.433 42.016 102.9 41.5701 102.356C41.1234 101.812 40.6897 101.257 40.2708 100.691C39.8504 100.126 39.4452 99.5504 39.0535 98.9647C38.6633 98.3796 38.2868 97.7846 37.9247 97.1805C37.5624 96.5766 37.2156 95.9646 36.8829 95.3433C36.5511 94.7223 36.2344 94.0933 35.9334 93.4571C35.632 92.8201 35.3474 92.1769 35.077 91.5262C34.8083 90.8757 34.5543 90.2187 34.318 89.556C34.0804 88.8929 33.859 88.2243 33.6545 87.5505C33.4507 86.8769 33.2633 86.1981 33.0917 85.5155C32.9204 84.8324 32.7659 84.1452 32.6295 83.4547C32.4917 82.7643 32.3717 82.0704 32.2679 81.3739C32.1651 80.6774 32.0783 79.9788 32.0094 79.2781C31.9409 78.5769 31.888 77.875 31.8541 77.1717C31.8195 76.4684 31.8018 75.7644 31.8018 75.0606C31.8029 74.3563 31.8194 73.6522 31.8541 72.9483C31.8892 72.245 31.9409 71.5433 32.0112 70.8423C32.0801 70.1415 32.1662 69.4424 32.269 68.7456C32.3729 68.0493 32.4933 67.3554 32.6312 66.6647C32.7687 65.9737 32.9226 65.2867 33.0945 64.6041C33.2659 63.9204 33.4535 63.242 33.659 62.5682C33.863 61.8938 34.0845 61.2255 34.3223 60.5627C34.5587 59.8995 34.8126 59.2427 35.0825 58.592C35.3513 57.9414 35.6377 57.2975 35.9388 56.6609C36.2399 56.0243 36.556 55.3956 36.8886 54.7746C37.221 54.1534 37.5679 53.5409 37.9313 52.9367C38.2934 52.3326 38.6705 51.7378 39.0618 51.1528C39.452 50.5672 39.8588 49.9914 40.2776 49.4258C40.6974 48.8599 41.1311 48.3057 41.5785 47.761C42.0254 47.2165 42.485 46.6837 42.9587 46.1624C43.432 45.6405 43.9178 45.1308 44.4152 44.6325C44.9137 44.1351 45.4242 43.6498 45.9455 43.1763C46.4682 42.7037 47.0018 42.2441 47.5459 41.7975C48.0907 41.3506 48.6458 40.918 49.2119 40.4984C49.7773 40.079 50.353 39.6737 50.9393 39.2829C51.5241 38.8918 52.12 38.5151 52.7233 38.1531C53.3286 37.7916 53.9409 37.4447 54.562 37.1124C55.1835 36.7813 55.8129 36.4647 56.4487 36.1638C57.0863 35.8631 57.7295 35.5776 58.3807 35.3085C59.0315 35.0395 59.6882 34.7861 60.351 34.5492C61.0145 34.3123 61.6835 34.0919 62.3574 33.8874C63.0312 33.6835 63.711 33.4955 64.3942 33.3252C65.078 33.1543 65.7638 33.0001 66.4553 32.8629C67.1457 32.7258 67.8398 32.6059 68.5356 32.5027C69.2326 32.3996 69.9322 32.3136 70.6319 32.2448C71.3334 32.1764 72.0357 32.1247 72.7394 32.0908C73.4434 32.0566 74.1468 32.0398 74.8505 32.0398C75.5557 32.0404 76.2591 32.0576 76.9631 32.0926C77.6657 32.1272 78.368 32.1798 79.0688 32.2493C79.7703 32.3183 80.4683 32.4048 81.1651 32.5084C81.8627 32.6123 82.5558 32.7333 83.2472 32.8709C83.9376 33.0086 84.6234 33.163 85.3072 33.3348C85.9902 33.5055 86.6687 33.694 87.3425 33.8987C88.0167 34.1035 88.6852 34.3243 89.3486 34.562C90.0118 34.7998 90.6679 35.053 91.3179 35.3232C91.9684 35.5929 92.6115 35.879 93.2492 36.1801C93.8857 36.4814 94.5135 36.7979 95.1351 37.1304C95.7567 37.4626 96.3685 37.8101 96.9725 38.1724C97.576 38.5349 98.1718 38.9118 98.7566 39.3031C99.3413 39.6946 99.917 40.1005 100.483 40.5205C101.049 40.9399 101.603 41.3736 102.147 41.8206C102.691 42.2675 103.225 42.7275 103.746 43.201C104.268 43.6742 104.777 44.1595 105.275 44.6584C105.772 45.1563 106.257 45.6668 106.73 46.1885C107.203 46.7101 107.662 47.2435 108.109 47.7882C108.555 48.3329 108.988 48.8877 109.407 49.4542C109.827 50.0198 110.231 50.5957 110.623 51.1817C111.013 51.7672 111.39 52.3625 111.752 52.9665C112.112 53.5706 112.46 54.1831 112.792 54.8043C113.123 55.4259 113.439 56.055 113.74 56.6917C114.04 57.3282 114.325 57.9718 114.596 58.6228C114.864 59.2735 115.117 59.9304 115.353 60.5935C115.591 61.2568 115.812 61.9254 116.015 62.5991C116.219 63.2729 116.407 63.952 116.577 64.6349C116.747 65.3181 116.901 66.0053 117.039 66.6958C117.176 67.3865 117.295 68.0803 117.399 68.7769C117.501 69.4735 117.588 70.1726 117.655 70.8732C117.724 71.5739 117.775 72.2761 117.809 72.9796C117.843 73.6828 117.86 74.3861 117.86 75.0907C117.859 75.7945 117.84 76.4973 117.805 77.2003C117.77 77.9031 117.718 78.6042 117.647 79.3045C117.577 80.0047 117.49 80.7028 117.386 81.3985C117.282 82.0939 117.16 82.7872 117.023 83.477C116.885 84.1669 116.73 84.853 116.558 85.536C116.386 86.2183 116.197 86.8957 115.992 87.569C115.788 88.2422 115.567 88.9096 115.329 89.5719C115.091 90.2339 114.837 90.89 114.567 91.5397C114.297 92.1899 114.012 92.8324 113.711 93.4684C113.409 94.1043 113.092 94.7323 112.76 95.3528C112.428 95.9724 112.08 96.5849 111.718 97.1878C111.356 97.7909 110.98 98.3851 110.588 98.9703C110.197 99.5548 109.791 100.129 109.372 100.694C108.952 101.26 108.52 101.814 108.073 102.358C107.625 102.901 107.166 103.433 106.694 103.955C106.22 104.476 105.734 104.985 105.238 105.482C104.738 105.98 104.23 106.465 103.708 106.937C103.187 107.409 102.653 107.869 102.109 108.315C101.566 108.761 101.011 109.194 100.446 109.613C99.8796 110.032 99.3048 110.437 98.7201 110.828C98.1351 111.219 97.5405 111.595 96.9372 111.957C96.333 112.318 95.7213 112.665 95.0997 112.997C94.4798 113.328 93.8514 113.645 93.2155 113.946C92.5797 114.246 91.9366 114.532 91.2851 114.801C90.6358 115.071 89.9789 115.324 89.3158 115.561C88.6542 115.798 87.9853 116.019 87.3124 116.224C86.6386 116.428 85.962 116.616 85.2784 116.787C84.5962 116.958 83.9098 117.113 83.2194 117.25C82.5295 117.388 81.8365 117.508 81.1395 117.612C80.4437 117.715 79.7457 117.802 79.0454 117.871C78.3447 117.941 77.644 117.993 76.9397 118.028C76.2385 118.063 75.5342 118.081 74.8301 118.081Z" fill="#D22B2D"/>
<path d="M76.1922 33.5217L74.74 79.4747L73.4705 33.5217H76.1922Z" fill="#D22B2D"/>
<path d="M73.6207 33.6728L74.7391 74.6073L76.0395 33.6728H73.6207ZM75.0118 79.5356H74.7392L73.3179 33.3704H76.3426L75.0118 79.5356Z" fill="#D22B2D"/>
<path d="M106.399 103.721C106.838 102.947 107.192 102.137 107.462 101.29C107.734 100.442 107.913 99.5764 108.005 98.692C108.096 97.8073 108.096 96.9231 108.003 96.0387C107.911 95.1545 107.73 94.2885 107.458 93.4414C105.522 85.4907 100.232 79.0208 95.3621 72.6419C90.4939 66.2627 85.6258 59.2795 84.8398 51.0861C84.6733 49.8645 84.6829 48.6441 84.868 47.4252C85.0533 46.2065 85.4071 45.0382 85.9283 43.9211C86.4635 43.0876 87.0993 42.3397 87.8354 41.6786C88.573 41.0171 89.3848 40.4656 90.2714 40.0239C91.1575 39.5817 92.0863 39.2657 93.0592 39.0759C94.0305 38.8854 95.0093 38.828 95.9984 38.9022L101.259 42.8026C100.309 42.6218 99.3497 42.5657 98.385 42.6353C97.4193 42.7051 96.4788 42.8978 95.5642 43.2133C94.6487 43.5287 93.7903 43.9565 92.9878 44.4968C92.1842 45.0373 91.464 45.6715 90.8275 46.3999C90.2088 47.3672 89.7547 48.4055 89.4655 49.5163C89.1765 50.6265 89.066 51.7546 89.1338 52.9001C89.1338 60.488 93.4889 67.442 97.8419 73.7906C102.197 80.1398 106.914 86.6089 108.213 94.137C108.412 94.9364 108.521 95.7478 108.539 96.5715C108.558 97.3953 108.486 98.2104 108.324 99.018C108.162 99.8259 107.913 100.606 107.578 101.358C107.243 102.111 106.83 102.818 106.34 103.479" fill="#D22B2D"/>
<path d="M95.755 39.0841C94.8003 39.0265 93.8549 39.0951 92.9183 39.29C91.9806 39.484 91.087 39.7977 90.233 40.2312C89.381 40.6637 88.5988 41.2009 87.8892 41.8424C87.1792 42.4842 86.5657 43.2072 86.0502 44.0124C85.5335 45.1204 85.185 46.279 85.0059 47.4879C84.8254 48.6964 84.8207 49.9065 84.9905 51.1162C85.777 59.3703 90.7965 66.5354 95.4538 72.612L96.3911 73.8209C101.018 79.8676 105.764 85.914 107.609 93.4417C108.132 95.5328 108.273 97.6492 108.032 99.7912C108.387 97.9164 108.387 96.042 108.032 94.1673C106.853 87.1839 102.619 81.0463 98.5375 75.1209L97.6907 73.9114C93.5184 67.8653 89.073 60.7004 88.9824 52.9302C88.8929 51.757 88.9961 50.6008 89.2901 49.4615C89.5864 48.3224 90.0576 47.2619 90.7054 46.2794C91.3166 45.5687 92.0055 44.9449 92.7737 44.4088C93.5426 43.8729 94.3649 43.4406 95.2429 43.113C96.121 42.7854 97.0253 42.5723 97.9568 42.4735C98.8889 42.3747 99.8182 42.3938 100.745 42.5305L95.9671 39.084H95.755V39.0841ZM106.521 103.721H106.279C106.587 103.375 106.86 103.002 107.094 102.603C107.595 101.186 107.869 99.7266 107.916 98.225C107.962 96.7229 107.779 95.2495 107.368 93.805C105.552 86.3979 100.806 80.2306 96.2403 74.2747L95.3026 73.0655C90.6154 67.019 85.565 59.7937 84.7487 51.419C84.5807 50.1864 84.5909 48.9547 84.7817 47.7249C84.9719 46.4949 85.334 45.3178 85.8677 44.1933C86.4091 43.3491 87.0521 42.5915 87.7981 41.9203C88.5435 41.2495 89.3644 40.6892 90.2614 40.2398C91.1575 39.7902 92.0982 39.4673 93.0823 39.2714C94.0647 39.0752 95.058 39.0131 96.0578 39.0842L101.743 43.3169H101.199C100.261 43.1466 99.3158 43.0974 98.3662 43.1708C97.4153 43.2441 96.4896 43.4373 95.5888 43.7496C94.6881 44.0626 93.8422 44.4841 93.0508 45.0154C92.2591 45.5464 91.5486 46.1693 90.9175 46.8844C90.3021 47.8352 89.8537 48.8589 89.5688 49.9549C89.2836 51.0506 89.1799 52.1635 89.2535 53.2939C89.2535 60.9725 93.7902 68.0773 97.9325 74.0934L98.7795 75.3027C102.861 81.3495 107.126 87.3958 108.335 94.5007C108.625 95.9062 108.681 97.3213 108.499 98.7454C108.317 100.17 107.91 101.526 107.276 102.814C107.044 103.133 106.792 103.435 106.521 103.721Z" fill="#D22B2D"/>
<path d="M43.2018 103.389C42.7693 102.624 42.4209 101.822 42.1537 100.986C41.8871 100.149 41.7078 99.293 41.6173 98.4199C41.5255 97.5461 41.5238 96.6715 41.6134 95.7981C41.7024 94.9245 41.8778 94.0683 42.1427 93.2305C44.1082 85.4 49.3709 79.0214 54.2391 72.7333C59.107 66.4449 63.9751 59.5215 64.7314 51.5706C64.9045 50.3634 64.899 49.1574 64.7144 47.952C64.5291 46.7469 64.1713 45.5948 63.6431 44.4958C63.1041 43.6697 62.4636 42.9299 61.7249 42.2762C60.9862 41.623 60.1728 41.0794 59.2868 40.6457C58.4008 40.212 57.4725 39.9033 56.503 39.7206C55.5329 39.5375 54.5562 39.487 53.5729 39.5681L48.3414 43.2564C49.294 43.077 50.2525 43.0218 51.2189 43.0902C52.1844 43.1593 53.126 43.3499 54.0428 43.6628C54.9602 43.9749 55.8221 44.3993 56.6283 44.9349C57.4352 45.4708 58.1601 46.1004 58.8048 46.8238C59.4122 47.7726 59.8579 48.7913 60.1431 49.8816C60.4268 50.9715 60.5352 52.0785 60.4675 53.203C60.4675 60.7309 56.1139 67.5635 51.7593 73.8212C47.4039 80.0796 42.6872 86.4588 41.3876 93.8957C41.2041 94.674 41.1056 95.4636 41.0948 96.2633C41.0837 97.0633 41.1598 97.8547 41.3219 98.6376C41.4824 99.4215 41.7286 100.178 42.0549 100.908C42.3819 101.638 42.7843 102.323 43.2626 102.965" fill="#D22B2D"/>
<path d="M50.1578 42.9839C50.9807 42.9314 51.798 42.974 52.6109 43.1128C53.4237 43.2515 54.2102 43.4821 54.9693 43.805C55.7272 44.1279 56.4391 44.5344 57.1019 45.0238C57.7654 45.5135 58.3638 46.0733 58.8959 46.7028C59.5279 47.6584 59.9913 48.69 60.286 49.797C60.5817 50.9039 60.6926 52.0294 60.6196 53.1728C60.6196 60.8518 56.0538 67.8955 51.8814 73.8818L51.0346 75.061C46.9524 80.9258 42.7489 86.9727 41.5397 93.8956C41.1873 95.7398 41.1873 97.584 41.5397 99.4282C41.2912 97.3034 41.4431 95.2071 41.9925 93.1397C43.808 85.7632 48.5854 79.6865 53.1809 73.7911L54.1185 72.5816C58.7755 66.5354 63.7953 59.5515 64.5813 51.4189C64.7555 50.2284 64.7527 49.0382 64.5731 47.8482C64.3921 46.6584 64.0426 45.5208 63.522 44.4352C62.9872 43.6234 62.357 42.8963 61.627 42.2524C60.8992 41.6088 60.0996 41.0721 59.2283 40.6414C58.3556 40.2117 57.4438 39.9025 56.4902 39.715C55.5354 39.5276 54.5736 39.4689 53.6053 39.5377L48.8273 43.0448L50.1578 42.9839ZM43.0813 103.45C42.7813 103.022 42.5301 102.569 42.3261 102.089C41.6738 100.828 41.2561 99.4932 41.0751 98.0854C40.8928 96.6775 40.9576 95.2809 41.267 93.8958C42.4774 86.912 46.7105 80.8354 50.8222 74.9706L51.6397 73.7611C55.7812 67.7142 60.2264 60.8216 60.3173 53.2329C60.3897 52.1243 60.2874 51.0328 60.0077 49.9575C59.7279 48.8822 59.2877 47.8783 58.6836 46.9448C58.0488 46.2329 57.3342 45.6135 56.5389 45.087C55.7429 44.5597 54.8933 44.143 53.9898 43.8353C53.0861 43.5282 52.1595 43.3409 51.2075 43.2741C50.2551 43.2066 49.3107 43.2613 48.3732 43.4382H47.829L53.5441 39.2962C54.5411 39.2171 55.5299 39.2707 56.5116 39.4586C57.4936 39.6463 58.4324 39.9615 59.3295 40.4032C60.2264 40.8448 61.0493 41.3976 61.7963 42.0614C62.5442 42.7252 63.1901 43.4766 63.7342 44.3151C64.2763 45.4262 64.6422 46.5922 64.8323 47.8132C65.0231 49.0342 65.0297 50.2569 64.8528 51.4798C64.0668 59.7033 58.9865 66.8078 54.2993 72.824L53.3616 74.0335C48.7964 79.8983 44.0498 85.9452 42.2344 93.2609C41.8221 94.6907 41.6386 96.1486 41.6859 97.6359C41.7315 99.1229 42.0057 100.567 42.507 101.968C42.76 102.345 43.0325 102.708 43.3225 103.057L43.0813 103.45Z" fill="#D22B2D"/>
<path d="M33.374 71.221V68.7116C34.0635 68.0418 34.7657 67.3897 35.4857 66.7541C36.2042 66.1182 36.9389 65.5004 37.687 64.9002C38.4368 64.3 39.2002 63.7185 39.9768 63.1549C40.7534 62.5911 41.5439 62.0474 42.3474 61.522C43.151 60.9968 43.9671 60.4915 44.7938 60.0056C45.6215 59.5194 46.4607 59.0541 47.3115 58.6088C48.1614 58.1636 49.0215 57.7388 49.8927 57.335C50.7639 56.9311 51.6433 56.5484 52.532 56.1868C53.4223 55.8257 54.3194 55.4862 55.2258 55.1681C56.1304 54.8498 57.0439 54.5539 57.9635 54.2796C58.8835 54.0057 59.8091 53.7541 60.7408 53.5249C61.673 53.2954 62.6106 53.0886 63.5533 52.9045C64.4946 52.7203 65.4401 52.5596 66.3909 52.4208C67.3407 52.2825 68.2931 52.1669 69.2478 52.0746C70.2042 51.9816 71.1605 51.9128 72.1198 51.8662C73.0787 51.8198 74.0379 51.7969 74.998 51.7969C75.9572 51.7969 76.9162 51.8198 77.8755 51.8662C78.8344 51.9126 79.7921 51.9815 80.7472 52.0746C81.7019 52.1669 82.6546 52.2825 83.6054 52.4208C84.5551 52.5596 85.5005 52.7203 86.4433 52.9045C87.3853 53.0886 88.3223 53.2956 89.2541 53.5249C90.186 53.7541 91.1117 54.0056 92.0318 54.2796C92.9511 54.5539 93.8643 54.8498 94.7712 55.1681C95.6759 55.4862 96.5728 55.8257 97.4632 56.1868C98.3514 56.5484 99.2325 56.931 100.103 57.335C100.974 57.7389 101.834 58.1636 102.684 58.6088C103.535 59.0542 104.373 59.5194 105.201 60.0056C106.03 60.4915 106.844 60.9968 107.648 61.522C108.451 62.0476 109.242 62.5912 110.019 63.1549C110.796 63.7185 111.558 64.3 112.308 64.9002C113.056 65.5004 113.791 66.1182 114.51 66.7541C115.23 67.3897 115.934 68.042 116.621 68.7116V71.221C115.934 70.5515 115.229 69.8989 114.51 69.2634C113.791 68.6274 113.056 68.0097 112.308 67.4091C111.558 66.8093 110.796 66.2272 110.019 65.6642C109.242 65.1009 108.452 64.5564 107.648 64.0311C106.844 63.5062 106.03 63.001 105.201 62.5147C104.373 62.0287 103.535 61.5627 102.684 61.1176C101.834 60.6721 100.974 60.248 100.103 59.8437C99.2325 59.4401 98.3514 59.0575 97.4632 58.696C96.5728 58.3347 95.6759 57.9947 94.7712 57.6768C93.8643 57.3585 92.9511 57.0625 92.0318 56.7886C91.1117 56.5149 90.186 56.2631 89.2541 56.0336C88.3223 55.8044 87.3852 55.5977 86.4433 55.4136C85.5005 55.2296 84.5551 55.0679 83.6054 54.9297C82.6546 54.7909 81.702 54.676 80.7472 54.5831C79.7921 54.4908 78.8345 54.421 77.8755 54.375C76.9163 54.329 75.9573 54.3056 74.998 54.3056C74.0379 54.3056 73.0787 54.329 72.1198 54.375C71.1606 54.421 70.2042 54.4908 69.2478 54.5831C68.2931 54.6759 67.3407 54.7909 66.3909 54.9297C65.4401 55.0679 64.4946 55.2296 63.5533 55.4136C62.6105 55.5977 61.6729 55.8044 60.7408 56.0336C59.8091 56.2631 58.8835 56.5148 57.9635 56.7886C57.0439 57.0626 56.1304 57.3585 55.2258 57.6768C54.3194 57.9947 53.4223 58.3347 52.532 58.696C51.6433 59.0575 50.764 59.44 49.8927 59.8437C49.0215 60.248 48.1614 60.6721 47.3115 61.1176C46.4607 61.5628 45.6215 62.0288 44.7938 62.5147C43.9671 63.0008 43.151 63.5062 42.3474 64.0311C41.5439 64.5563 40.7533 65.1007 39.9768 65.6642C39.2002 66.2272 38.4368 66.8094 37.687 67.4091C36.9389 68.0097 36.2041 68.6274 35.4857 69.2634C34.7657 69.8989 34.0635 70.5515 33.374 71.221Z" fill="#D22B2D"/>
<path d="M33.9487 68.9537V69.8908C34.6391 69.253 35.3443 68.6315 36.0625 68.0263C36.7827 67.4209 37.5163 66.8332 38.2633 66.2617C39.0087 65.6909 39.7694 65.1377 40.5421 64.6024C41.3143 64.0667 42.0993 63.5494 42.8961 63.0506C43.6931 62.552 44.501 62.0717 45.3196 61.6105C46.1395 61.1488 46.9689 60.7072 47.8076 60.2845C48.648 59.8618 49.4977 59.459 50.355 59.0764C51.214 58.6933 52.0814 58.3304 52.957 57.9877C53.832 57.6452 54.7153 57.3234 55.6057 57.0217C56.4958 56.7204 57.3926 56.4401 58.2961 56.1807C59.2004 55.921 60.1094 55.6825 61.025 55.4657C61.9395 55.2482 62.8581 55.0526 63.7819 54.8783C64.7058 54.7038 65.6336 54.5514 66.5641 54.4202C67.4951 54.2892 68.4285 54.1798 69.3645 54.0921C70.3004 54.0045 71.2381 53.9393 72.1779 53.8953C73.1166 53.8516 74.0571 53.8293 74.997 53.8293C75.9375 53.8293 76.8763 53.8517 77.815 53.8953C78.7549 53.9393 79.6925 54.0044 80.6286 54.0921C81.5645 54.1798 82.4979 54.2892 83.429 54.4202C84.3595 54.5514 85.2873 54.7038 86.2112 54.8783C87.135 55.0525 88.0534 55.2482 88.9681 55.4657C89.8839 55.6825 90.7929 55.921 91.6964 56.1807C92.6 56.4401 93.4971 56.7205 94.3875 57.0217C95.2777 57.3235 96.1609 57.6452 97.0367 57.9877C97.9116 58.3304 98.779 58.6933 99.638 59.0764C100.496 59.459 101.345 59.8618 102.186 60.2845C103.024 60.7072 103.854 61.1488 104.673 61.6105C105.492 62.0717 106.301 62.552 107.097 63.0506C107.894 63.5495 108.679 64.0667 109.451 64.6024C110.224 65.1376 110.984 65.6909 111.732 66.2617C112.477 66.8333 113.21 67.4209 113.93 68.0263C114.649 68.6315 115.354 69.253 116.045 69.8908V68.9537C115.363 68.2981 114.667 67.6587 113.956 67.0369C113.245 66.4148 112.519 65.8101 111.779 65.2224C111.038 64.6349 110.283 64.0655 109.516 63.5146C108.749 62.9634 107.968 62.4305 107.175 61.9166C106.381 61.4032 105.576 60.9083 104.759 60.4328C103.943 59.9574 103.114 59.502 102.276 59.0668C101.437 58.6309 100.587 58.2156 99.7298 57.8205C98.8708 57.4259 98.0037 57.0519 97.1268 56.6982C96.2501 56.3447 95.3657 56.0122 94.4728 55.7014C93.5796 55.3899 92.6804 55.1009 91.7736 54.833C90.8678 54.5651 89.9554 54.319 89.0376 54.0948C88.1184 53.8705 87.1963 53.6685 86.2683 53.4886C85.34 53.308 84.4085 53.1509 83.4729 53.0154C82.5375 52.8802 81.5997 52.7667 80.6581 52.6766C79.7165 52.5861 78.7752 52.5183 77.8314 52.4729C76.8874 52.4279 75.9415 52.4053 74.997 52.4053C74.0517 52.4053 73.1063 52.4279 72.1621 52.4729C71.219 52.5183 70.2763 52.5861 69.3348 52.6766C68.3944 52.7667 67.4558 52.8802 66.5198 53.0154C65.5854 53.1509 64.6533 53.3081 63.7254 53.4886C62.7972 53.6685 61.8747 53.8705 60.9559 54.0948C60.0374 54.319 59.1257 54.5651 58.2193 54.833C57.313 55.1009 56.4138 55.3899 55.5206 55.7014C54.628 56.0122 53.743 56.3447 52.8665 56.6982C51.9898 57.0519 51.1225 57.4259 50.2634 57.8205C49.406 58.2157 48.5561 58.6309 47.7175 59.0668C46.8781 59.5021 46.0503 59.9574 45.2342 60.4328C44.4176 60.9083 43.6122 61.4032 42.818 61.9166C42.0249 62.4305 41.2444 62.9634 40.4772 63.5146C39.7099 64.0657 38.9547 64.635 38.2144 65.2224C37.4745 65.8101 36.749 66.4148 36.0373 67.0369C35.3255 67.6588 34.6297 68.2981 33.9487 68.9537ZM117.346 72.6118L116.378 71.6442C115.696 70.9822 114.999 70.3362 114.287 69.7073C113.575 69.0788 112.847 68.467 112.105 67.8737C111.364 67.2799 110.608 66.7045 109.838 66.1473C109.069 65.5895 108.285 65.0512 107.49 64.5317C106.694 64.0118 105.887 63.5121 105.067 63.0316C104.248 62.5509 103.416 62.0902 102.575 61.6495C101.733 61.209 100.881 60.789 100.019 60.3897C99.1561 59.9902 98.2846 59.6112 97.4041 59.2539C96.5244 58.897 95.6358 58.5609 94.7388 58.2458C93.8418 57.9312 92.9382 57.6385 92.0274 57.3674C91.1173 57.0967 90.2006 56.8473 89.2776 56.6206C88.3538 56.3936 87.4271 56.1888 86.4938 56.007C85.5615 55.825 84.6241 55.6657 83.684 55.5283C82.7442 55.3917 81.801 55.2774 80.8546 55.1858C79.9087 55.0944 78.9617 55.0256 78.012 54.9803C77.0628 54.9345 76.1129 54.9111 75.1635 54.9111C74.2123 54.9111 73.263 54.9345 72.3132 54.9803C71.3652 55.0256 70.4172 55.0944 69.4711 55.1858C68.5256 55.2774 67.5815 55.3917 66.6411 55.5283C65.7012 55.6657 64.7653 55.8251 63.832 56.007C62.8998 56.1889 61.9721 56.3936 61.0491 56.6206C60.1269 56.8473 59.2096 57.0967 58.2988 57.3674C57.3869 57.6385 56.4834 57.9312 55.587 58.2458C54.691 58.5609 53.8023 58.897 52.9218 59.2539C52.0407 59.6117 51.1696 59.9901 50.3077 60.3897C49.4448 60.789 48.5924 61.209 47.7509 61.6495C46.9092 62.0903 46.0783 62.551 45.2588 63.0316C44.4387 63.5121 43.6308 64.0118 42.8355 64.5317C42.0396 65.0512 41.2574 65.5895 40.4874 66.1473C39.718 66.7045 38.9628 67.2799 38.2198 67.8737C37.4782 68.467 36.7517 69.0789 36.0383 69.7073C35.3265 70.3362 34.6296 70.9822 33.9486 71.6442L32.9504 72.6118V68.4699L33.1313 68.3189C33.8272 67.6442 34.5378 66.986 35.2645 66.3455C35.9902 65.7049 36.7314 65.082 37.4877 64.4771C38.2441 63.8724 39.0158 63.2857 39.8006 62.7179C40.5849 62.1504 41.3819 61.6019 42.1937 61.0723C43.0055 60.543 43.8283 60.0339 44.6642 59.5444C45.5007 59.0546 46.3476 58.5849 47.2052 58.1364C48.0642 57.6875 48.9327 57.2596 49.8109 56.8529C50.6904 56.4459 51.5791 56.0603 52.4761 55.6962C53.3741 55.3321 54.2795 54.9896 55.1935 54.6689C56.1081 54.3486 57.0292 54.0506 57.9576 53.7739C58.8853 53.498 59.8201 53.2443 60.7616 53.0132C61.7015 52.782 62.6469 52.574 63.5983 52.3883C64.5493 52.2034 65.504 52.0402 66.4619 51.9009C67.4211 51.7617 68.3823 51.6451 69.3458 51.5521C70.3098 51.459 71.2762 51.3892 72.2428 51.3422C73.2113 51.2957 74.1786 51.2726 75.1471 51.2726C76.1167 51.2726 77.0839 51.2957 78.0525 51.3422C79.0197 51.3892 79.9854 51.459 80.95 51.5521C81.913 51.645 82.8747 51.7617 83.8339 51.9009C84.7914 52.0402 85.7466 52.2034 86.6975 52.3883C87.6483 52.5741 88.5944 52.7821 89.5341 53.0132C90.4755 53.2443 91.4105 53.498 92.3383 53.7739C93.2661 54.0506 94.1873 54.3485 95.1019 54.6689C96.0163 54.9896 96.9213 55.3321 97.8197 55.6962C98.7162 56.0603 99.6056 56.4459 100.485 56.8529C101.362 57.2596 102.232 57.6875 103.09 58.1364C103.948 58.5851 104.795 59.0546 105.631 59.5444C106.467 60.0339 107.29 60.543 108.102 61.0723C108.914 61.6019 109.71 62.1504 110.495 62.7179C111.28 63.2856 112.051 63.8724 112.808 64.4771C113.564 65.082 114.306 65.7049 115.031 66.3455C115.758 66.9862 116.468 67.6442 117.164 68.3189L117.345 68.4699V72.6118H117.346Z" fill="#D22B2D"/>
<path d="M46.7396 96.6766H45.6506V106.351H46.7396V96.6766Z" fill="#D22B2D"/>
<path d="M103.889 96.7975H102.8V106.351H103.889V96.7975Z" fill="#D22B2D"/>
<path d="M106.612 98.9746H105.522V103.6H106.612V98.9746Z" fill="#D22B2D"/>
<path d="M44.0789 98.9746H42.9907V103.509H44.0789V98.9746Z" fill="#D22B2D"/>
<path d="M49.733 87.4866H48.5242V108.709H49.733V87.4866Z" fill="#D22B2D"/>
<path d="M52.5745 94.469H51.366V110.764H52.5745V94.469Z" fill="#D22B2D"/>
<path d="M55.4486 92.8375H54.2395V112.489H55.4486V92.8375Z" fill="#D22B2D"/>
<path d="M58.1096 82.4677H57.052V113.819H58.1096V82.4677Z" fill="#D22B2D"/>
<path d="M61.1339 88.7561H59.9231V115.059H61.1339V88.7561Z" fill="#D22B2D"/>
<path d="M64.0052 87.3346H62.7966V115.874H64.0052V87.3346Z" fill="#D22B2D"/>
<path d="M69.6002 75.8771H68.3899V117.114H69.6002V75.8771Z" fill="#D22B2D"/>
<path d="M66.6363 75.8771H65.426V116.57H66.6363V75.8771Z" fill="#D22B2D"/>
<path d="M72.5626 82.7399H71.3538V117.537H72.5626V82.7399Z" fill="#D22B2D"/>
<path d="M75.3441 60.1263H74.2261V117.538H75.3441V60.1263Z" fill="#D22B2D"/>
<path d="M78.2771 82.7399H77.0679V117.537H78.2771V82.7399Z" fill="#D22B2D"/>
<path d="M81.1506 75.8771H79.9414V117.265H81.1506V75.8771Z" fill="#D22B2D"/>
<path d="M83.9924 75.8771H82.7832V116.691H83.9924V75.8771Z" fill="#D22B2D"/>
<path d="M86.8657 87.5769H85.6567V116.055H86.8657V87.5769Z" fill="#D22B2D"/>
<path d="M89.7071 89.0887H88.4985V115.119H89.7071V89.0887Z" fill="#D22B2D"/>
<path d="M92.581 82.4677H91.3708V113.909H92.581V82.4677Z" fill="#D22B2D"/>
<path d="M95.4224 92.8375H94.2139V112.549H95.4224V92.8375Z" fill="#D22B2D"/>
<path d="M98.2641 94.1675H97.0557V110.917H98.2641V94.1675Z" fill="#D22B2D"/>
<path d="M101.139 87.4866H99.9292V108.831H101.139V87.4866Z" fill="#D22B2D"/>
<path d="M44.5629 37.8744C44.7966 38.2368 45.1098 38.5092 45.5 38.6905C45.904 38.7702 46.258 38.6697 46.5591 38.3884C46.7295 38.2982 46.8685 38.172 46.9751 38.0115C47.0828 37.8508 47.1455 37.674 47.1626 37.4821C47.1131 37.061 46.9509 36.6883 46.6795 36.3633L42.6282 30.5282C42.4112 30.1749 42.1192 29.9029 41.7503 29.712C41.3463 29.6326 40.994 29.7336 40.693 30.0142C40.3429 30.2179 40.1415 30.5201 40.0877 30.9214C40.1389 31.3418 40.2994 31.7148 40.5709 32.0399L44.5629 37.8744ZM38.5153 33.4306C38.2273 33.0313 38.0047 32.598 37.8508 32.1306C37.7574 31.6873 37.7574 31.2434 37.8508 30.8005C37.9086 30.3291 38.0706 29.8955 38.3345 29.5003C39.0028 28.5341 39.9008 27.8789 41.025 27.5354C41.4993 27.4288 41.972 27.4288 42.4461 27.5354C42.8876 27.6168 43.2903 27.7879 43.6565 28.0492C44.0439 28.3463 44.3871 28.6887 44.6844 29.0771L48.9782 35.1232C49.2448 35.5303 49.4562 35.9634 49.6135 36.4233C49.7211 36.8666 49.7211 37.3102 49.6135 37.7538C49.5535 38.2254 49.3916 38.6583 49.1281 39.0538C48.8137 39.5326 48.4207 39.936 47.9492 40.2631C47.4979 40.6192 46.9939 40.8709 46.4376 41.0185C45.9743 41.1284 45.5111 41.1284 45.046 41.0185C44.5882 40.9553 44.1748 40.7838 43.8077 40.5046C43.4119 40.2149 43.0684 39.8725 42.7782 39.4767L38.5153 33.4306Z" fill="white"/>
<path d="M53.9365 36.1214L48.2825 23.0913L50.5196 22.124L55.3282 33.2194L58.8655 31.6772L59.7127 33.6425L53.9365 36.1214Z" fill="white"/>
<path d="M59.5007 18.976L61.8823 18.4015L65.2186 32.2129L62.8387 32.7881L59.5007 18.976Z" fill="white"/>
<path d="M78.4888 16.9244L78.821 31.1032L76.705 31.1634L76.463 20.0685H76.4035L74.4365 31.2241L73.2576 31.2541L70.8381 20.1891H70.7789L71.0206 31.2845L68.9039 31.3447L68.6011 17.1361L71.8066 17.0753L73.7116 25.3284H73.7422L75.2834 16.9846L78.4888 16.9244Z" fill="white"/>
<path d="M86.3826 24.6031L87.3203 24.8146C87.643 24.8539 87.9645 24.8539 88.2873 24.8146C88.5451 24.819 88.7867 24.7583 89.0127 24.6333C89.2224 24.4825 89.3835 24.2909 89.4976 24.0592C89.6394 23.7369 89.75 23.4043 89.8302 23.0613C89.9758 22.7528 90.0757 22.4304 90.1322 22.0937C90.1621 21.8351 90.1109 21.5934 89.9812 21.3681C89.8378 21.1491 89.6465 20.9881 89.4056 20.8848C89.1089 20.7243 88.7967 20.6036 88.4679 20.5217L87.5621 20.3101L86.3826 24.6031ZM82.179 31.6172L85.5058 17.8308L88.9218 18.647C89.5166 18.7358 90.0737 18.9285 90.5953 19.226C91.117 19.5231 91.5676 19.9045 91.9457 20.3703C92.2383 20.8869 92.4109 21.4399 92.4638 22.0307C92.5165 22.6219 92.445 23.197 92.2488 23.7569C92.102 24.3989 91.8604 25.0037 91.5223 25.5704C91.2654 26.0327 90.9039 26.3854 90.4347 26.6287C89.965 26.8941 89.4612 27.0255 88.922 27.0217C88.3065 27.0255 87.7007 26.9447 87.1082 26.7796L86.0803 26.5381L84.7195 32.1918L82.179 31.6172Z" fill="white"/>
<path d="M93.1641 34.9241L99.1045 22.0166L101.329 23.0399L95.3886 35.9483L93.1641 34.9241Z" fill="white"/>
<path d="M103.799 34.761L105.433 35.9097L108.274 30.3774L103.799 34.761ZM100.14 38.631L98.2056 37.2099L108.516 27.1124L110.996 28.8352L104.949 41.9565L103.013 40.5959L104.495 37.784L102.227 36.3027L100.14 38.631Z" fill="white"/>
<path d="M57.2923 117.386L50.7007 129.025L48.9464 128.058L54.1173 118.928H54.0874L47.1024 127L46.1337 126.456L49.4904 116.328L49.4607 116.298L44.2904 125.398L42.5354 124.431L49.1583 112.761L51.7885 114.242L49.3393 121.891H49.3705L54.6613 115.875L57.2923 117.386Z" fill="white"/>
<path d="M57.3499 131.439L61.1913 118.577L63.3931 119.235L59.5516 132.097L57.3499 131.439Z" fill="white"/>
<path d="M66.1218 133.561L67.5431 120.228L69.8421 120.47L68.6318 131.808L72.2303 132.199L72.0192 134.196L66.1218 133.561Z" fill="white"/>
<path d="M79.4879 128.934L81.3317 128.723L79.8501 123.1L79.4879 128.934ZM79.2755 133.954L77.0386 134.165L78.0357 120.681L80.8795 120.379L84.7192 133.47L82.5107 133.681L81.7853 130.658L79.2755 130.93V133.954Z" fill="white"/>
<path d="M90.735 132.079L86.2598 119.442L88.2865 118.746L93.4574 125.035H93.5183L90.9473 117.779L92.9127 117.084L97.3878 129.752L95.4832 130.416L89.9194 123.493H89.8897L92.6707 131.415L90.735 132.079Z" fill="white"/>
<path d="M103.769 122.556C103.98 122.902 104.262 123.173 104.614 123.372C104.99 123.463 105.322 123.382 105.612 123.13C106.006 122.858 106.218 122.586 106.218 122.284C106.2 121.889 106.069 121.536 105.824 121.226L102.227 115.541C102.015 115.204 101.733 114.941 101.379 114.756C101.005 114.664 100.673 114.745 100.381 114.998C100.218 115.073 100.083 115.183 99.974 115.328C99.8672 115.473 99.8015 115.635 99.7773 115.814C99.7882 116.22 99.9191 116.583 100.17 116.902L103.769 122.556ZM98.0833 118.142C97.8237 117.76 97.632 117.347 97.5094 116.902C97.4187 116.479 97.4187 116.055 97.5094 115.633C97.5865 115.18 97.7579 114.767 98.0227 114.393C98.34 113.961 98.7235 113.598 99.1721 113.305C99.6169 113.002 100.1 112.79 100.624 112.67C101.067 112.579 101.51 112.579 101.955 112.67C102.373 112.788 102.758 112.98 103.103 113.244C103.461 113.527 103.763 113.859 104.01 114.242L107.819 119.986C108.081 120.368 108.272 120.781 108.395 121.226C108.486 121.649 108.486 122.072 108.395 122.495C108.321 122.94 108.149 123.343 107.881 123.705C107.571 124.145 107.187 124.508 106.732 124.793C106.289 125.104 105.806 125.326 105.28 125.458C104.837 125.566 104.393 125.566 103.95 125.458C103.528 125.359 103.144 125.177 102.8 124.914C102.434 124.639 102.132 124.307 101.894 123.916L98.0833 118.142Z" fill="white"/>
<path d="M65.4866 62.1209H64.5496V61.3959L65.3057 60.9722C65.5355 60.8356 65.7476 60.674 65.9405 60.4883H66.5457V67.503H65.4866V62.1209Z" fill="#D22B2D"/>
<path d="M70.7191 62.1819C70.7191 61.7588 70.5378 61.5169 70.1744 61.5169C69.811 61.5169 69.6005 61.7588 69.6005 62.1819V63.3303C69.5478 63.5022 69.5478 63.6733 69.6005 63.8451C69.7001 63.9451 69.8204 63.9953 69.9622 63.9959C70.0732 64.0292 70.1839 64.0292 70.296 63.9959L70.5674 63.8142L70.7191 62.1819ZM69.6599 65.7493V66.0815C69.6599 66.5356 69.811 66.7471 70.1744 66.7471C70.5377 66.7471 70.7191 66.5356 70.7191 66.0815V64.4191L70.507 64.6005L70.296 64.7514H69.7518C69.5803 64.7805 69.4088 64.7805 69.2373 64.7514C69.0817 64.7112 68.9509 64.6306 68.8438 64.5098C68.7169 64.3916 68.6267 64.2507 68.5721 64.0866C68.5359 63.8648 68.5359 63.6435 68.5721 63.4213V62.6051C68.5399 62.0588 68.6711 61.5551 68.9658 61.094C69.1273 60.909 69.3247 60.7716 69.5533 60.6807C69.7825 60.5899 70.0205 60.5567 70.2652 60.5801C70.7609 60.5297 71.1835 60.6812 71.5348 61.0332C71.847 61.468 71.9777 61.9513 71.9279 62.4842V65.7794C71.9778 66.3122 71.8471 66.7961 71.5348 67.2309C71.1835 67.583 70.7609 67.7343 70.2652 67.6844C70.0436 67.7159 69.8221 67.7159 69.6005 67.6844C69.4192 67.6013 69.2586 67.4905 69.1153 67.3518C68.991 67.2062 68.89 67.0445 68.8141 66.8679C68.779 66.6561 68.779 66.445 68.8141 66.2332V65.84L69.6599 65.7493Z" fill="#D22B2D"/>
<path d="M78.4601 65.5982V66.0513C78.4074 66.2229 78.4074 66.3945 78.4601 66.5653C78.5546 66.7042 78.6855 66.7644 78.8532 66.7469C79.0218 66.7521 79.1637 66.6919 79.2757 66.5653C79.3407 66.3537 79.3407 66.1421 79.2757 65.9305V65.4169C79.3056 65.1206 79.2264 64.8584 79.034 64.6303C78.7923 64.4845 78.5304 64.4243 78.248 64.4488V63.4816H78.7021C78.8197 63.4505 78.9208 63.3902 79.0041 63.3003C79.026 63.1994 79.026 63.0988 79.0041 62.9979C79.0355 62.8272 79.0355 62.6556 79.0041 62.484C79.0459 62.2425 79.0459 62.0001 79.0041 61.7586C78.9099 61.6198 78.7789 61.5496 78.6118 61.5469C78.46 61.5458 78.3292 61.5958 78.2184 61.6978C78.1534 61.8893 78.1534 62.0809 78.2184 62.2725V62.5448H77.4324V62.2124C77.3873 62.0002 77.3873 61.7884 77.4324 61.5772C77.4919 61.3813 77.5918 61.2103 77.7336 61.0631C77.8904 60.9275 78.0601 60.8168 78.248 60.7307C78.4805 60.6939 78.7113 60.6939 78.9438 60.7307C79.1758 60.7339 79.3979 60.7841 79.6083 60.8816C79.7908 60.9872 79.953 61.118 80.0938 61.2746C80.2145 61.4513 80.3052 61.6429 80.3652 61.8492C80.396 62.071 80.396 62.2926 80.3652 62.5141C80.3718 62.8456 80.321 63.1685 80.2134 63.4817C80.0903 63.762 79.8891 63.9638 79.6082 64.0865C79.7676 64.1625 79.9079 64.2633 80.032 64.3889C80.1577 64.4834 80.2486 64.6045 80.3033 64.7513C80.3254 64.9026 80.3254 65.0535 80.3033 65.205C80.3209 65.4068 80.3209 65.6082 80.3033 65.8098C80.3429 66.3733 80.2025 66.8872 79.8813 67.3516C79.7081 67.4932 79.5164 67.6006 79.3068 67.6755C79.0965 67.7509 78.879 67.7884 78.6558 67.7884C78.433 67.7884 78.2171 67.7509 78.0061 67.6755C77.7957 67.6006 77.6048 67.4931 77.4323 67.3516C77.1068 66.9778 76.9663 66.5446 77.0078 66.0513V65.6584L78.4601 65.5982Z" fill="#D22B2D"/>
<path d="M82.7835 66.0812C82.7835 66.5353 82.9645 66.7468 83.3278 66.7468C83.69 66.7468 83.8725 66.5353 83.8725 66.0812V64.9329C83.929 64.7718 83.929 64.6103 83.8725 64.4487C83.7845 64.3227 83.6624 64.2619 83.5084 64.268C83.398 64.2425 83.2877 64.2425 83.1767 64.268L82.9038 64.4792L82.7835 66.0812ZM83.8411 62.5447V62.1817C83.8411 61.7586 83.6601 61.5167 83.3278 61.5167C82.9951 61.5167 82.7835 61.7586 82.7835 62.1817V63.814L82.9951 63.6025L83.2063 63.4515H83.7503C83.9131 63.4195 84.0737 63.4195 84.234 63.4515C84.388 63.4968 84.5192 63.5766 84.6276 63.6934C84.7541 63.8232 84.8447 63.974 84.9002 64.1465C84.9504 64.3587 84.9504 64.5702 84.9002 64.7818V65.6281C84.931 66.2016 84.8 66.7361 84.5068 67.2305C84.3397 67.4075 84.1407 67.5386 83.9132 67.6234C83.6843 67.7088 83.4492 67.7386 83.2064 67.7138C82.7051 67.7598 82.2719 67.6088 81.9071 67.2607C81.6079 66.8222 81.4772 66.339 81.5135 65.8097V62.4839C81.4772 61.9546 81.6079 61.4716 81.9071 61.0329C82.2718 60.6848 82.7051 60.5332 83.2064 60.5798C83.4185 60.5294 83.6306 60.5294 83.8411 60.5798C84.0254 60.6446 84.1868 60.7456 84.3263 60.8814C84.4737 61.0249 84.5748 61.1964 84.6278 61.3959C84.6733 61.5968 84.6733 61.7986 84.6278 62V62.4237L83.8411 62.5447Z" fill="#D22B2D"/>
</svg>
