<svg width="150" height="150" viewBox="0 0 150 150" fill="none" xmlns="http://www.w3.org/2000/svg">
<path d="M74.7963 17.2222C79.0093 17.0718 82.0185 16.6204 84.8773 15.5671C87.7361 14.5139 90.4444 12.8588 93.9051 10.6019L94.8079 10L95.5602 10.7523C100.977 15.5671 110.907 17.2222 118.731 16.4699C120.236 16.3194 121.741 16.0185 123.095 15.7176C124.449 15.4167 125.502 14.9653 126.556 14.5139L127.609 14.0625L128.211 14.9653C128.963 16.0185 129.715 17.0718 130.468 17.9745C131.37 19.1782 132.123 20.2315 132.725 20.9838L133.326 21.7361L132.725 22.4884C123.095 35.4282 123.095 48.5185 128.813 60.2546C129.866 62.5116 131.22 64.7685 132.725 67.0255C134.229 69.2824 135.884 71.3889 137.84 73.4954L138.593 74.3982L137.69 75.3009C136.787 76.3542 135.734 77.2569 134.831 78.1597C134.079 78.912 133.176 79.8148 132.424 80.5671C132.574 82.6736 132.574 84.6296 132.574 86.5856C132.273 104.34 124.449 115.324 114.97 121.944C105.641 128.565 94.5069 130.972 87.4352 131.574C86.3819 132.025 85.3287 132.176 84.2755 132.176C81.1157 134.884 77.956 137.442 74.7963 140C71.6366 137.442 68.4768 134.734 65.3171 132.176C64.2639 132.176 63.2106 132.025 62.1574 132.025C55.0856 131.424 44.1019 129.016 34.6227 122.396C25.1435 115.625 17.3194 104.641 17.0185 87.037C17.0185 85.081 17.0185 83.125 17.169 81.0185C16.4167 80.2662 15.5139 79.3634 14.7616 78.6111C13.7083 77.7083 12.8056 76.6551 11.9028 75.7523L11 74.8495L11.7523 73.9468C13.5579 71.8403 15.3634 69.5833 16.8681 67.4769C18.3727 65.2199 19.7269 62.963 20.7801 60.706C26.4977 48.9699 26.4977 36.0301 16.8681 22.9398L16.2662 22.1875L16.8681 21.4352C17.4699 20.6829 18.3727 19.4792 19.125 18.4259C19.8773 17.3727 20.6296 16.4699 21.3819 15.4167L21.9838 14.5139L23.037 14.9653C24.0903 15.4167 25.1435 15.8681 26.4977 16.169C27.8519 16.4699 29.206 16.7708 30.8611 16.9213C38.8356 17.6736 48.7662 16.0185 54.0324 11.2037L54.7847 10.4514L55.6875 11.0532C59.1481 13.3102 61.8565 14.9653 64.7153 16.0185C67.5741 16.6204 70.5833 17.2222 74.7963 17.2222Z" fill="black"/>
<path d="M25.8959 18.2757C24.8426 17.9748 23.7894 17.6739 22.8866 17.3729C22.4352 17.9748 21.8334 18.8776 21.2315 19.6299C20.6297 20.3822 20.0278 21.1345 19.5764 21.8868C29.3565 35.5789 29.2061 49.1206 23.1875 61.609C21.9838 64.0164 20.6297 66.4239 18.9746 68.8313C17.6204 70.7873 16.1158 72.7433 14.4607 74.6993C15.0625 75.3012 15.8149 76.0535 16.4167 76.6553C17.47 77.5581 18.3727 78.6114 19.2755 79.5141L19.7269 79.9655V80.5674C19.5764 82.8243 19.426 84.9308 19.5764 86.8868C19.8774 103.588 27.0996 113.82 35.9769 120.139C44.8542 126.459 55.3866 128.716 62.1575 129.317C63.5116 129.468 64.7153 129.468 65.7686 129.468H66.22C68.9283 131.875 71.7871 134.283 74.6459 136.69C77.5047 134.283 80.3635 131.875 83.0718 129.468H83.5232C84.426 129.468 85.7801 129.468 87.1343 129.317C93.9051 128.716 104.438 126.459 113.315 120.139C122.192 113.82 129.414 103.588 129.715 86.8868C129.715 84.9308 129.715 82.8243 129.565 80.5674V79.9655L130.016 79.5141C130.919 78.4609 131.972 77.5581 132.875 76.6553C133.477 76.0535 134.229 75.3012 134.831 74.6993C133.176 72.7433 131.671 70.7873 130.317 68.8313C128.662 66.5743 127.308 64.1669 126.104 61.609C120.086 49.2711 119.935 35.5789 129.715 21.8868C129.113 21.1345 128.512 20.3822 128.06 19.6299C127.458 18.8776 126.857 18.1252 126.405 17.3729C125.502 17.6739 124.449 17.9748 123.396 18.2757C121.891 18.5766 120.387 18.8776 118.732 19.028C110.607 19.7803 100.375 18.1252 94.2061 13.3104C88.338 17.5234 81.5672 20.0813 74.4954 19.9308C67.4237 20.2317 60.6528 17.6739 54.7848 13.3104C48.7663 18.1252 38.5348 19.7803 30.2593 19.028C28.9051 18.8776 27.4005 18.5766 25.8959 18.2757Z" fill="#D6B24A"/>
<path d="M74.7964 62.9636H28.0024H27.4005L27.551 62.5122C30.4098 55.8918 31.9144 49.4219 31.764 43.1025C31.6135 36.6326 29.8079 30.3131 26.0464 23.6927L25.595 23.0909L26.3473 23.2414C32.5163 24.1441 37.7825 24.1441 42.4468 23.3918C46.9607 22.6395 50.8728 21.1349 54.4839 19.0284L54.6343 18.8779L54.7848 19.0284C58.3959 21.4358 63.963 23.5423 68.9283 24.2946C69.9815 24.4451 70.8843 24.5955 71.7871 24.5955C73.2917 24.5955 75.6991 24.5955 77.0533 24.5955C77.9561 24.5955 79.0093 24.4451 79.9121 24.2946C85.0278 23.5423 90.4445 21.4358 94.0556 19.0284L94.2061 18.8779L94.3566 19.0284C97.9677 21.1349 101.88 22.6395 106.394 23.3918C111.058 24.1441 116.174 24.1441 122.493 23.2414L123.245 23.0909L122.794 23.6927C119.032 30.3131 117.227 36.6326 117.076 43.1025C116.926 49.5724 118.431 55.8918 121.289 62.5122L121.44 62.9636H120.838H74.7964Z" fill="black"/>
<path d="M28.4535 62.2105H74.3447V25.0461C73.5924 25.0461 72.8401 25.0461 72.0878 25.0461C71.185 25.0461 70.1318 24.8957 69.0785 24.7452C63.9628 23.9929 58.3957 21.8864 54.7846 19.479C51.1734 21.5855 47.2614 23.0901 42.5971 23.8424C38.0832 24.5947 32.9674 24.5947 27.0994 23.8424C30.7105 30.3123 32.3656 36.6318 32.516 42.9512C32.6665 49.2707 31.1619 55.5901 28.4535 62.2105Z" fill="white"/>
<path d="M120.989 62.2105H75.0974V25.0461C75.8497 25.0461 76.602 25.0461 77.3544 25.0461C78.2571 25.0461 79.3104 24.8957 80.3636 24.7452C85.4794 23.9929 91.0465 21.8864 94.6576 19.479C98.2687 21.5855 102.181 23.0901 106.845 23.8424C111.359 24.5947 116.475 24.5947 122.343 23.8424C118.732 30.3123 117.077 36.6318 116.926 42.9512C116.926 49.2707 118.28 55.5901 120.989 62.2105Z" fill="#F6DA46"/>
<path d="M114.669 62.2105H109.553V24.1434C111.208 24.2938 112.863 24.2938 114.669 24.2938V62.2105ZM104.738 62.2105H99.6227V21.7359C101.278 22.3378 102.933 22.9397 104.738 23.391V62.2105ZM94.6574 62.2105H89.5417V22.1873C91.4977 21.435 93.3033 20.5322 94.6574 19.479V62.2105ZM84.5764 62.2105H79.4607V24.8957C79.7616 24.8957 80.0625 24.7452 80.5139 24.7452C81.8681 24.5947 83.2223 24.2938 84.7269 23.8424V62.2105H84.5764Z" fill="#D24A49"/>
<path d="M124.75 80.1152H24.8424H24.5415V80.4162C24.391 81.018 24.2406 81.7703 24.2406 82.2217C24.2406 82.8236 24.0901 83.1245 24.0901 83.4254C24.0901 84.6291 24.0901 85.8328 24.0901 86.8861C24.2406 96.2148 27.0994 105.243 34.0206 112.314C40.9419 119.236 51.7753 124.05 67.8748 124.953C72.5392 125.104 77.2035 125.104 81.8679 124.953C97.9674 124.201 108.951 119.386 115.722 112.314C122.643 105.393 125.502 96.2148 125.653 86.8861C125.653 85.6824 125.653 84.4787 125.653 83.4254C125.653 83.1245 125.653 82.6731 125.502 82.2217C125.502 81.6199 125.352 81.018 125.201 80.4162V80.1152H124.75V80.1152Z" fill="black"/>
<path fill-rule="evenodd" clip-rule="evenodd" d="M59.75 22.0369V35.5785H74.4954V49.7221H59.75V62.2105H45.6065V49.7221H32.2153C32.5162 47.4651 32.6667 45.2082 32.6667 42.9512C32.6667 40.5438 32.3658 37.9859 31.7639 35.5785H45.6065V23.2406C49.0672 22.4883 52.0764 21.1341 54.9352 19.479C56.2894 20.3818 57.9445 21.2846 59.75 22.0369Z" fill="#D24A49"/>
<path fill-rule="evenodd" clip-rule="evenodd" d="M38.3843 80.8676V115.173C37.0301 114.12 35.6759 113.067 34.4722 111.863C27.7014 105.092 24.9931 96.0643 24.6921 87.0365C24.6921 85.8328 24.6921 84.7796 24.6921 83.5759C24.6921 83.275 24.6921 82.974 24.8426 82.3722C24.8426 81.9208 24.9931 81.4694 25.1435 80.8676H38.3843V80.8676Z" fill="#4A5F90"/>
<path fill-rule="evenodd" clip-rule="evenodd" d="M111.208 80.8679V115.173C112.563 114.12 113.917 113.067 115.121 111.863C121.741 105.092 124.6 96.0647 124.75 87.0369C124.75 85.8332 124.75 84.7799 124.75 83.5762C124.75 83.2753 124.75 82.9744 124.6 82.3725C124.6 81.9212 124.449 81.4698 124.299 80.8679H111.208V80.8679Z" fill="#4A5F90"/>
<path fill-rule="evenodd" clip-rule="evenodd" d="M38.3845 80.8679V115.173C42.2966 118.032 46.9609 120.44 52.829 121.944V80.8679H38.3845Z" fill="#9B4D56"/>
<path fill-rule="evenodd" clip-rule="evenodd" d="M111.208 80.8679V115.173C107.296 118.032 102.632 120.44 96.7639 121.944V80.8679H111.208Z" fill="#9B4D56"/>
<path fill-rule="evenodd" clip-rule="evenodd" d="M67.2733 80.8679V124.201C61.8566 123.9 57.0418 123.148 52.8289 121.944V80.8679H67.2733Z" fill="#4A5F90"/>
<path fill-rule="evenodd" clip-rule="evenodd" d="M82.1689 80.8679V124.201C87.5856 123.9 92.4004 123.148 96.6134 121.944V80.8679H82.1689Z" fill="#4A5F90"/>
<path fill-rule="evenodd" clip-rule="evenodd" d="M82.169 80.8679V124.201C82.0185 124.201 81.868 124.201 81.7176 124.201C77.2037 124.352 72.3889 124.352 67.875 124.201C67.7245 124.201 67.574 124.201 67.4236 124.201V80.8679H82.169Z" fill="#9B4D56"/>
<path d="M88.037 72.4417V75.3005C88.6388 75.3005 90.8958 75.3005 91.1967 75.3005C93.7546 75.3005 93.7545 72.2912 91.3471 72.2912C91.0462 72.4417 88.7893 72.4417 88.037 72.4417ZM88.037 67.6268V69.8838C88.4883 69.8838 90.4444 69.8838 90.8957 69.8838C93.1527 69.8838 92.8518 67.4764 90.7453 67.6268C90.4444 67.7773 88.7893 67.6268 88.037 67.6268ZM90.8957 78.0088H85.3286V65.069C87.4351 65.069 90.5948 65.069 91.3471 65.069C95.2592 65.069 96.9143 68.5296 94.3564 71.0875C96.9143 72.5921 96.0115 76.2032 94.0555 77.2565C93.3032 77.8583 92.0994 78.0088 90.8957 78.0088Z" fill="black"/>
<path d="M71.0346 71.5393C71.0346 75.7523 74.7962 76.5046 76.1504 73.7963L78.5578 75.3009C77.9559 76.8055 76.1504 78.4606 73.743 78.4606C69.8309 78.4606 68.0254 75.3009 68.0254 71.6898C68.0254 68.0787 69.9814 64.9189 73.743 64.9189C76.1504 64.9189 77.9559 66.574 78.5578 68.0787L76.1504 69.5833C74.9467 66.574 71.0346 67.3264 71.0346 71.5393Z" fill="black"/>
<path d="M56.4398 67.9285V69.8846H60.2014V72.7434H56.4398V78.16H53.5811V65.2202H62.9098V67.9285H56.4398Z" fill="black"/>
<path fill-rule="evenodd" clip-rule="evenodd" d="M74.7964 88.0908C82.47 88.0908 88.639 94.2598 88.639 101.933C88.639 109.607 82.47 115.776 74.7964 115.776C67.1228 115.776 60.9538 109.607 60.9538 101.933C60.8033 94.4103 67.1228 88.0908 74.7964 88.0908Z" fill="black"/>
<path fill-rule="evenodd" clip-rule="evenodd" d="M62.6089 106.898C64.5649 107.5 68.0256 105.243 67.5742 104.491C65.7686 102.083 64.5649 99.2245 66.22 91.8518C63.3612 94.2592 61.5557 97.8704 61.5557 101.933C61.5557 103.738 62.0071 105.393 62.6089 106.898ZM67.5742 91.0995C65.7686 95.7639 65.1668 103.588 70.2825 105.093C72.0881 105.544 74.7964 102.986 74.4955 102.234C73.4422 101.782 70.2825 97.8704 74.0441 94.4097C73.2918 93.6574 71.6367 91.4004 73.7432 88.993C71.7871 89.1435 69.8311 89.7454 68.176 90.7986C67.8751 90.7986 67.7246 90.9491 67.5742 91.0995ZM78.4075 89.4444C77.3543 89.1435 76.0001 88.993 74.6459 88.993C72.8404 90.1967 72.8404 92.9051 74.7964 93.9583C76.0001 93.3565 80.0626 93.8079 82.9214 95.9143C84.5765 97.118 86.0811 98.6227 87.8867 101.03C87.5858 95.4629 83.6737 90.9491 78.4075 89.4444ZM87.7362 102.384C86.2316 97.8703 77.2038 91.7014 73.8936 95.6134C73.2918 96.2153 71.6367 99.375 74.9469 101.632C77.5047 99.9768 80.8149 100.88 81.4168 104.792C82.47 104.491 85.7802 104.19 86.8334 107.35C86.8334 107.35 86.9839 107.199 86.9839 107.049C87.4353 105.995 87.7362 104.792 87.8867 103.588C87.8867 103.137 87.7362 102.836 87.7362 102.384ZM66.5209 112.315C76.0001 111.713 80.3635 107.951 80.514 104.491C80.514 103.437 79.6112 102.083 78.1066 101.632C76.7524 101.331 75.5487 101.782 75.0973 102.384C75.0973 103.889 72.2385 107.35 68.3265 105.093C67.8751 105.845 65.9191 108.102 63.0603 107.951C63.8126 109.606 65.0163 111.111 66.5209 112.315ZM86.3821 108.403C86.8334 105.694 81.8682 104.19 81.2663 105.845C79.9122 109.606 74.9469 112.465 67.5742 113.067C69.6807 114.421 72.2385 115.324 74.9469 115.324C79.7617 115.174 84.1251 112.465 86.3821 108.403Z" fill="#D6B24A"/>
</svg>
