<svg width="150" height="150" viewBox="0 0 150 150" fill="none" xmlns="http://www.w3.org/2000/svg">
<path d="M75.011 10C73.9491 10 72.8818 10.0275 71.8199 10.077C70.758 10.1265 69.6961 10.2091 68.6398 10.3136C67.5834 10.4181 66.527 10.5502 65.4761 10.7042C64.4253 10.8583 63.3744 11.0399 62.3345 11.2489C61.2891 11.458 60.2548 11.6891 59.2204 11.9477C58.1861 12.2063 57.1627 12.4869 56.1448 12.8005C55.127 13.1086 54.1146 13.4442 53.1133 13.8018C52.1119 14.1595 51.1215 14.5446 50.1367 14.9518C49.1519 15.3589 48.1835 15.788 47.2207 16.2447C46.2578 16.7014 45.3115 17.18 44.3707 17.6807C43.4353 18.1814 42.5055 18.7041 41.5922 19.2543C40.6789 19.799 39.782 20.3712 38.8962 20.9599C38.0104 21.5486 37.1411 22.1648 36.2883 22.7975C35.4355 23.4303 34.5937 24.085 33.7739 24.7617C32.9541 25.4385 32.1453 26.1317 31.3586 26.847C30.5718 27.5622 29.8015 28.294 29.0477 29.0477C28.294 29.8015 27.5622 30.5718 26.847 31.3586C26.1317 32.1453 25.4385 32.9541 24.7617 33.7739C24.085 34.5937 23.4303 35.4355 22.7975 36.2883C22.1648 37.1411 21.5541 38.0104 20.9599 38.8962C20.3712 39.782 19.799 40.6789 19.2543 41.5922C18.7096 42.5055 18.1814 43.4298 17.6807 44.3652C17.18 45.3005 16.7014 46.2523 16.2447 47.2152C15.788 48.178 15.3589 49.1463 14.9518 50.1312C14.5446 51.116 14.1595 52.1064 13.8018 53.1078C13.4442 54.1091 13.1086 55.1215 12.8005 56.1338C12.4924 57.1517 12.2063 58.175 11.9477 59.2094C11.6891 60.2438 11.458 61.2781 11.2489 62.3235C11.0399 63.3689 10.8583 64.4143 10.7042 65.4651C10.5502 66.516 10.4181 67.5724 10.3136 68.6287C10.2091 69.6851 10.132 70.747 10.077 71.8089C10.022 72.8707 10 73.9326 10 75C10 76.0619 10.0275 77.1238 10.077 78.1911C10.1265 79.253 10.2091 80.3149 10.3136 81.3713C10.4181 82.4276 10.5502 83.484 10.7042 84.5349C10.8583 85.5857 11.0399 86.6366 11.2489 87.6765C11.458 88.7219 11.6891 89.7562 11.9477 90.7906C12.2063 91.825 12.4869 92.8483 12.8005 93.8662C13.1086 94.884 13.4442 95.8909 13.8018 96.8922C14.1595 97.8936 14.5446 98.884 14.9518 99.8688C15.3589 100.854 15.788 101.822 16.2447 102.785C16.7014 103.748 17.18 104.694 17.6807 105.635C18.1814 106.57 18.7041 107.5 19.2543 108.408C19.799 109.321 20.3712 110.218 20.9599 111.104C21.5486 111.99 22.1648 112.859 22.7975 113.712C23.4303 114.564 24.085 115.406 24.7617 116.226C25.4385 117.046 26.1317 117.855 26.847 118.641C27.5622 119.428 28.294 120.198 29.0477 120.952C29.8015 121.706 30.5718 122.438 31.3586 123.153C32.1453 123.868 32.9541 124.562 33.7739 125.238C34.5937 125.915 35.4355 126.564 36.2883 127.202C37.1411 127.835 38.0104 128.446 38.8962 129.04C39.782 129.629 40.6789 130.201 41.5922 130.746C42.5055 131.29 43.4298 131.819 44.3652 132.319C45.3005 132.82 46.2523 133.299 47.2152 133.755C48.178 134.212 49.1463 134.641 50.1312 135.048C51.116 135.455 52.1064 135.841 53.1077 136.198C54.1091 136.556 55.116 136.891 56.1338 137.2C57.1517 137.508 58.175 137.794 59.2094 138.052C60.2438 138.311 61.2781 138.542 62.3235 138.751C63.3689 138.96 64.4143 139.142 65.4651 139.296C66.516 139.45 67.5724 139.582 68.6288 139.686C69.6851 139.791 70.747 139.868 71.8089 139.923C72.8707 139.972 73.9326 140 75 140C76.0619 140 77.1237 139.972 78.1911 139.923C79.253 139.873 80.3149 139.791 81.3713 139.686C82.4276 139.582 83.484 139.45 84.5349 139.296C85.5857 139.142 86.6366 138.96 87.6765 138.751C88.7219 138.542 89.7562 138.311 90.7906 138.052C91.8249 137.794 92.8483 137.513 93.8662 137.2C94.884 136.891 95.8909 136.556 96.8922 136.198C97.8936 135.841 98.8839 135.455 99.8688 135.048C100.854 134.641 101.822 134.212 102.785 133.755C103.748 133.299 104.694 132.82 105.635 132.319C106.57 131.819 107.5 131.296 108.408 130.746C109.321 130.201 110.218 129.629 111.104 129.04C111.99 128.451 112.859 127.835 113.712 127.202C114.564 126.57 115.406 125.915 116.226 125.238C117.046 124.562 117.855 123.868 118.641 123.153C119.428 122.438 120.198 121.706 120.952 120.952C121.706 120.198 122.438 119.428 123.153 118.641C123.868 117.855 124.562 117.046 125.238 116.226C125.915 115.406 126.57 114.564 127.202 113.712C127.835 112.859 128.446 111.99 129.04 111.104C129.629 110.218 130.201 109.321 130.746 108.408C131.29 107.494 131.819 106.57 132.319 105.635C132.82 104.7 133.299 103.748 133.755 102.785C134.212 101.822 134.641 100.854 135.048 99.8688C135.455 98.884 135.841 97.8936 136.198 96.8922C136.556 95.8909 136.891 94.884 137.2 93.8662C137.508 92.8483 137.794 91.825 138.052 90.7906C138.311 89.7562 138.542 88.7219 138.751 87.6765C138.96 86.6311 139.142 85.5857 139.296 84.5349C139.45 83.484 139.582 82.4276 139.686 81.3713C139.791 80.3149 139.868 79.253 139.923 78.1911C139.978 77.1293 140 76.0674 140 75C140 73.9381 139.972 72.8762 139.923 71.8089C139.868 70.747 139.791 69.6851 139.686 68.6287C139.582 67.5724 139.45 66.516 139.296 65.4651C139.142 64.4143 138.96 63.3634 138.751 62.3235C138.542 61.2781 138.311 60.2438 138.052 59.2094C137.794 58.175 137.508 57.1517 137.2 56.1338C136.891 55.116 136.556 54.1091 136.198 53.1078C135.841 52.1064 135.455 51.116 135.048 50.1312C134.641 49.1463 134.212 48.178 133.755 47.2152C133.299 46.2523 132.82 45.306 132.319 44.3652C131.819 43.4298 131.296 42.5 130.746 41.5922C130.201 40.6789 129.629 39.782 129.04 38.8962C128.451 38.0104 127.835 37.1411 127.202 36.2883C126.57 35.4355 125.915 34.5937 125.238 33.7739C124.562 32.9541 123.868 32.1453 123.153 31.3586C122.438 30.5718 121.706 29.8015 120.952 29.0477C120.198 28.294 119.428 27.5622 118.641 26.847C117.855 26.1317 117.046 25.4385 116.226 24.7617C115.406 24.085 114.564 23.4358 113.712 22.7975C112.859 22.1648 111.99 21.5541 111.104 20.9599C110.218 20.3712 109.321 19.799 108.408 19.2543C107.495 18.7096 106.57 18.1814 105.635 17.6807C104.7 17.18 103.748 16.7014 102.785 16.2447C101.822 15.788 100.854 15.3589 99.8688 14.9518C98.8839 14.5446 97.8936 14.1595 96.8922 13.8018C95.8909 13.4442 94.884 13.1086 93.8662 12.8005C92.8483 12.4924 91.8249 12.2063 90.7906 11.9477C89.7617 11.6891 88.7219 11.458 87.6765 11.2489C86.6311 11.0399 85.5857 10.8583 84.5349 10.7042C83.484 10.5502 82.4276 10.4181 81.3713 10.3136C80.3149 10.2091 79.253 10.132 78.1911 10.077C77.1292 10.0275 76.0674 10 75.0055 10H75.011V10Z" fill="#0069AB"/>
<path d="M75.0109 13.2462C73.9986 13.2462 72.9917 13.2682 71.9794 13.3177C70.9725 13.3673 69.9601 13.4388 68.9588 13.5378C67.9519 13.6369 66.9506 13.7579 65.9492 13.9064C64.9479 14.055 63.952 14.2256 62.9617 14.4236C61.9713 14.6217 60.9865 14.8418 60.0071 15.0894C59.0278 15.337 58.0539 15.6066 57.0856 15.8982C56.1172 16.1898 55.1599 16.5089 54.2081 16.85C53.2562 17.1911 52.3154 17.5542 51.3801 17.9394C50.4447 18.3245 49.5204 18.7372 48.6071 19.1663C47.6938 19.601 46.7914 20.0521 45.9001 20.5308C45.0088 21.0095 44.1285 21.5046 43.2647 22.0218C42.3954 22.539 41.5426 23.0837 40.7063 23.6449C39.8645 24.2061 39.0392 24.7893 38.2304 25.389C37.4161 25.9887 36.6238 26.6104 35.8426 27.2542C35.0613 27.8924 34.2965 28.5526 33.5483 29.2349C32.8 29.9116 32.0682 30.6104 31.353 31.3256C30.6377 32.0409 29.9445 32.7726 29.2622 33.5209C28.5855 34.2692 27.9253 35.0339 27.2815 35.8152C26.6378 36.5965 26.0161 37.3943 25.4164 38.203C24.8167 39.0118 24.2335 39.8426 23.6723 40.6789C23.1111 41.5207 22.5719 42.3735 22.0492 43.2373C21.532 44.1066 21.0313 44.9814 20.5527 45.8728C20.074 46.7641 19.6228 47.6664 19.1882 48.5797C18.7535 49.493 18.3464 50.4174 17.9612 51.3527C17.5761 52.288 17.213 53.2289 16.8719 54.1807C16.5307 55.1325 16.2171 56.0899 15.92 57.0582C15.6284 58.0266 15.3588 59.0004 15.1112 59.9798C14.8636 60.9591 14.6436 61.9439 14.4455 62.9343C14.2474 63.9246 14.0769 64.9205 13.9283 65.9219C13.7798 66.9232 13.6587 67.9246 13.5597 68.9314C13.4607 69.9383 13.3836 70.9451 13.3341 71.952C13.2846 72.9588 13.2571 73.9712 13.2571 74.9836C13.2571 75.9959 13.2791 77.0028 13.3286 78.0151C13.3781 79.022 13.4496 80.0288 13.5487 81.0357C13.6477 82.0426 13.7688 83.0439 13.9173 84.0453C14.0659 85.0466 14.2364 86.0425 14.4345 87.0328C14.6326 88.0232 14.8526 89.008 15.1002 89.9874C15.3478 90.9667 15.6174 91.9406 15.909 92.9089C16.2006 93.8772 16.5197 94.8346 16.8609 95.7864C17.202 96.7383 17.5651 97.6791 17.9502 98.6144C18.3354 99.5497 18.748 100.469 19.1772 101.382C19.6118 102.295 20.063 103.198 20.5417 104.089C21.0203 104.98 21.5155 105.86 22.0327 106.724C22.5499 107.588 23.0946 108.446 23.6558 109.283C24.217 110.124 24.8002 110.95 25.3999 111.759C25.9996 112.573 26.6213 113.365 27.265 114.146C27.9088 114.928 28.5635 115.692 29.2457 116.441C29.9225 117.189 30.6212 117.921 31.3365 118.636C32.0517 119.351 32.7835 120.044 33.5318 120.727C34.28 121.403 35.0448 122.064 35.8261 122.707C36.6073 123.346 37.4051 123.967 38.2139 124.573C39.0282 125.172 39.8535 125.756 40.6898 126.317C41.5316 126.878 42.3844 127.417 43.2482 127.94C44.1175 128.457 44.9923 128.958 45.8836 129.431C46.7749 129.909 47.6773 130.361 48.5906 130.795C49.5039 131.224 50.4282 131.637 51.3636 132.022C52.2989 132.407 53.2397 132.771 54.1916 133.112C55.1434 133.453 56.1007 133.766 57.0691 134.063C58.0374 134.355 59.0113 134.625 59.9906 134.872C60.97 135.12 61.9548 135.34 62.9452 135.538C63.9355 135.736 64.9314 135.907 65.9327 136.055C66.9341 136.204 67.9354 136.325 68.9423 136.424C69.9491 136.523 70.956 136.6 71.9629 136.649C72.9697 136.699 73.9821 136.726 74.9944 136.726C76.0068 136.726 77.0136 136.704 78.026 136.655C79.0329 136.605 80.0397 136.528 81.0466 136.435C82.0534 136.336 83.0548 136.215 84.0561 136.066C85.0575 135.918 86.0533 135.747 87.0437 135.549C88.034 135.351 89.0189 135.131 89.9982 134.883C90.9776 134.636 91.9514 134.366 92.9198 134.074C93.8881 133.783 94.8454 133.464 95.7973 133.123C96.7491 132.782 97.69 132.418 98.6253 132.033C99.5606 131.648 100.485 131.235 101.393 130.806C102.306 130.372 103.208 129.92 104.1 129.442C104.991 128.963 105.871 128.468 106.735 127.951C107.604 127.434 108.457 126.889 109.294 126.328C110.135 125.767 110.961 125.183 111.769 124.584C112.578 123.984 113.376 123.362 114.157 122.718C114.939 122.08 115.703 121.42 116.452 120.738C117.2 120.061 117.932 119.362 118.647 118.647C119.362 117.932 120.055 117.2 120.738 116.452C121.414 115.703 122.075 114.939 122.718 114.157C123.357 113.376 123.978 112.578 124.583 111.77C125.183 110.955 125.766 110.13 126.328 109.294C126.889 108.452 127.428 107.599 127.951 106.735C128.468 105.866 128.969 104.991 129.442 104.1C129.92 103.209 130.372 102.306 130.806 101.393C131.241 100.48 131.648 99.5552 132.033 98.6199C132.418 97.6846 132.781 96.7438 133.122 95.7919C133.464 94.8401 133.777 93.8827 134.074 92.9144C134.366 91.9461 134.636 90.9722 134.883 89.9929C135.131 89.0135 135.351 88.0287 135.549 87.0383C135.747 86.048 135.917 85.0521 136.066 84.0508C136.215 83.0494 136.336 82.0481 136.435 81.0412C136.534 80.0343 136.611 79.0275 136.66 78.0206C136.71 77.0138 136.737 76.0014 136.737 74.9891C136.737 73.9767 136.71 72.9698 136.66 71.963C136.611 70.9561 136.534 69.9493 136.435 68.9424C136.336 67.9356 136.215 66.9342 136.066 65.9329C135.917 64.9315 135.747 63.9411 135.549 62.9453C135.351 61.9549 135.131 60.9701 134.883 59.9908C134.636 59.0114 134.366 58.0376 134.074 57.0692C133.783 56.1009 133.464 55.1435 133.122 54.1917C132.781 53.2399 132.418 52.299 132.033 51.3637C131.648 50.4284 131.235 49.5095 130.806 48.5962C130.377 47.6829 129.92 46.7806 129.442 45.8893C128.963 44.998 128.468 44.1176 127.951 43.2538C127.433 42.3845 126.889 41.5317 126.328 40.6954C125.766 39.8536 125.183 39.0283 124.583 38.2196C123.984 37.4108 123.362 36.613 122.718 35.8317C122.08 35.0504 121.42 34.2857 120.738 33.5374C120.061 32.7891 119.362 32.0574 118.647 31.3421C117.932 30.6269 117.2 29.9336 116.452 29.2514C115.703 28.5746 114.939 27.9144 114.157 27.2707C113.376 26.6325 112.578 26.0107 111.769 25.4055C110.961 24.8058 110.135 24.2226 109.294 23.6614C108.452 23.1002 107.599 22.561 106.735 22.0383C105.871 21.5211 104.991 21.0205 104.1 20.5473C103.208 20.0686 102.306 19.6175 101.393 19.1828C100.479 18.7482 99.5551 18.341 98.6253 17.9559C97.69 17.5707 96.7491 17.2076 95.7973 16.8665C94.8454 16.5254 93.8881 16.2063 92.9198 15.9147C91.9514 15.6231 90.9776 15.3535 89.9982 15.1059C89.0189 14.8583 88.034 14.6382 87.0437 14.4401C86.0533 14.2421 85.0575 14.0715 84.0561 13.923C83.0548 13.7744 82.0534 13.6534 81.0521 13.5488C80.0452 13.4498 79.0384 13.3728 78.0315 13.3232C77.0301 13.2682 76.0233 13.2462 75.0109 13.2462Z" fill="white"/>
<path d="M75.0109 111.693C74.4112 111.693 73.8115 111.676 73.2063 111.648C72.6065 111.621 72.0068 111.577 71.4071 111.516C70.8074 111.456 70.2132 111.384 69.619 111.296C69.0248 111.208 68.4306 111.104 67.8419 110.988C67.2532 110.873 66.6644 110.741 66.0812 110.592C65.498 110.444 64.9203 110.284 64.3426 110.113C63.7649 109.937 63.1982 109.75 62.6315 109.547C62.0648 109.343 61.5036 109.129 60.9479 108.898C60.3922 108.666 59.842 108.424 59.2973 108.166C58.7526 107.907 58.219 107.638 57.6853 107.357C57.1571 107.076 56.6344 106.779 56.1172 106.471C55.6 106.163 55.0938 105.838 54.5932 105.508C54.0925 105.173 53.6028 104.826 53.1187 104.468C52.6345 104.111 52.1613 103.742 51.6991 103.357C51.237 102.977 50.7803 102.581 50.3347 102.18C49.889 101.778 49.4544 101.36 49.0307 100.936C48.6071 100.513 48.1889 100.078 47.7873 99.6322C47.3856 99.1866 46.9895 98.7299 46.6098 98.2678C46.2302 97.8056 45.8561 97.3269 45.4985 96.8483C45.1408 96.3641 44.7942 95.8744 44.4586 95.3737C44.123 94.8731 43.8039 94.3669 43.4957 93.8497C43.1876 93.3325 42.8905 92.8098 42.6044 92.2816C42.3183 91.7535 42.0487 91.2143 41.7956 90.6696C41.537 90.1249 41.295 89.5747 41.0639 89.019C40.8328 88.4633 40.6182 87.9021 40.4147 87.3354C40.2111 86.7687 40.024 86.1965 39.848 85.6243C39.6719 85.0466 39.5123 84.4689 39.3693 83.8857C39.2207 83.3025 39.0942 82.7138 38.9731 82.1251C38.8576 81.5363 38.7531 80.9421 38.665 80.3479C38.577 79.7537 38.5055 79.1595 38.445 78.5598C38.3844 77.9601 38.3404 77.3604 38.3129 76.7607C38.2854 76.1609 38.2689 75.5612 38.2689 74.956C38.2689 74.3563 38.2854 73.7566 38.3129 73.1569C38.3404 72.5572 38.3844 71.9575 38.445 71.3577C38.5055 70.758 38.577 70.1638 38.665 69.5696C38.7531 68.9754 38.8576 68.3812 38.9731 67.7925C39.0887 67.2038 39.2207 66.6151 39.3693 66.0319C39.5178 65.4487 39.6774 64.8709 39.848 64.2932C40.024 63.7155 40.2111 63.1488 40.4147 62.5821C40.6182 62.0154 40.8328 61.4542 41.0639 60.8985C41.295 60.3428 41.537 59.7927 41.7956 59.248C42.0542 58.7033 42.3238 58.1696 42.6044 57.6359C42.885 57.1077 43.1821 56.585 43.4902 56.0678C43.7984 55.5506 44.123 55.0445 44.4531 54.5438C44.7887 54.0431 45.1353 53.5534 45.4929 53.0693C45.8506 52.5851 46.2192 52.1119 46.6043 51.6498C46.984 51.1876 47.3801 50.7309 47.7818 50.2853C48.1834 49.8396 48.6016 49.405 49.0252 48.9813C49.4489 48.5577 49.8835 48.1395 50.3292 47.7379C50.7748 47.3362 51.2315 46.9401 51.6936 46.5605C52.1558 46.1808 52.6345 45.8067 53.1132 45.4491C53.5973 45.0914 54.087 44.7448 54.5877 44.4092C55.0883 44.0736 55.5945 43.7545 56.1117 43.4464C56.6289 43.1383 57.1516 42.8412 57.6798 42.5606C58.208 42.28 58.7471 42.0049 59.2918 41.7518C59.8365 41.4932 60.3867 41.2511 60.9424 41.02C61.4981 40.7889 62.0593 40.5744 62.626 40.3708C63.1927 40.1672 63.7649 39.9801 64.3371 39.8041C64.9148 39.628 65.4925 39.4685 66.0757 39.3254C66.6589 39.1769 67.2476 39.0503 67.8364 38.9293C68.4251 38.8137 69.0193 38.7092 69.6135 38.6212C70.2077 38.5331 70.8019 38.4616 71.4016 38.4011C72.0013 38.3406 72.601 38.2965 73.2008 38.269C73.8005 38.2415 74.4002 38.225 75.0054 38.225C75.6051 38.225 76.2048 38.2415 76.81 38.269C77.4097 38.2965 78.0095 38.3406 78.6092 38.4011C79.2089 38.4616 79.8031 38.5331 80.3973 38.6212C80.9915 38.7092 81.5857 38.8137 82.1744 38.9293C82.7631 39.0448 83.3518 39.1769 83.9351 39.3254C84.5183 39.474 85.096 39.6335 85.6737 39.8041C86.2514 39.9801 86.8181 40.1672 87.3848 40.3708C87.9515 40.5744 88.5127 40.7889 89.0684 41.02C89.6241 41.2511 90.1743 41.4932 90.719 41.7518C91.2636 42.0104 91.7973 42.28 92.331 42.5606C92.8592 42.8467 93.3819 43.1383 93.8991 43.4519C94.4163 43.76 94.9224 44.0846 95.4231 44.4147C95.9238 44.7503 96.4135 45.0969 96.8976 45.4546C97.3818 45.8122 97.855 46.1808 98.3171 46.566C98.7793 46.9456 99.236 47.3417 99.6816 47.7434C100.127 48.145 100.562 48.5632 100.986 48.9868C101.409 49.4105 101.827 49.8451 102.229 50.2908C102.631 50.7364 103.027 51.1931 103.406 51.6553C103.786 52.1174 104.155 52.5961 104.518 53.0748C104.875 53.5589 105.222 54.0486 105.558 54.5493C105.893 55.05 106.212 55.5561 106.521 56.0733C106.829 56.5905 107.126 57.1132 107.406 57.6414C107.687 58.1696 107.962 58.7088 108.215 59.2535C108.468 59.7982 108.716 60.3483 108.947 60.904C109.178 61.4597 109.393 62.0209 109.596 62.5876C109.8 63.1543 109.987 63.7265 110.163 64.2987C110.339 64.8765 110.498 65.4542 110.641 66.0374C110.79 66.6206 110.917 67.2093 111.038 67.798C111.153 68.3867 111.258 68.9809 111.346 69.5751C111.434 70.1693 111.505 70.7635 111.566 71.3632C111.626 71.963 111.67 72.5627 111.698 73.1624C111.725 73.7621 111.742 74.3618 111.742 74.967C111.742 75.5667 111.725 76.1664 111.698 76.7662C111.67 77.3659 111.621 77.9656 111.566 78.5598C111.505 79.1595 111.434 79.7537 111.346 80.3479C111.258 80.9421 111.153 81.5308 111.038 82.1251C110.922 82.7138 110.79 83.297 110.641 83.8802C110.493 84.4634 110.333 85.0411 110.163 85.6133C109.987 86.1855 109.8 86.7577 109.596 87.3244C109.393 87.8911 109.178 88.4523 108.947 89.0025C108.716 89.5582 108.474 90.1084 108.215 90.6476C107.957 91.1923 107.687 91.7259 107.406 92.2541C107.126 92.7823 106.829 93.305 106.521 93.8222C106.212 94.3394 105.888 94.8456 105.558 95.3407C105.222 95.8414 104.881 96.3311 104.518 96.8153C104.16 97.2994 103.792 97.7726 103.412 98.2347C103.032 98.6969 102.636 99.1536 102.235 99.5992C101.833 100.045 101.415 100.48 100.991 100.903C100.567 101.327 100.133 101.739 99.6871 102.147C99.2415 102.548 98.7848 102.944 98.3226 103.324C97.8605 103.704 97.3873 104.072 96.9031 104.43C96.419 104.788 95.9293 105.134 95.4286 105.464C94.9279 105.8 94.4218 106.119 93.9046 106.427C93.3874 106.735 92.8647 107.032 92.3365 107.313C91.8083 107.594 91.2691 107.869 90.73 108.122C90.1853 108.38 89.6406 108.622 89.0849 108.854C88.5292 109.085 87.968 109.299 87.4068 109.503C86.8401 109.706 86.2734 109.893 85.6957 110.069C85.1235 110.245 84.5403 110.405 83.9626 110.548C83.3794 110.697 82.7961 110.823 82.2074 110.944C81.6187 111.06 81.0245 111.164 80.4303 111.252C79.8361 111.34 79.2419 111.412 78.6422 111.472C78.0425 111.533 77.4483 111.577 76.8485 111.604C76.2488 111.632 75.6491 111.648 75.0494 111.648V111.693H75.0109ZM75.0109 16.1732C74.0481 16.1732 73.0852 16.1952 72.1279 16.2447C71.165 16.2943 70.2077 16.3603 69.2504 16.4593C68.293 16.5529 67.3357 16.6739 66.3838 16.8114C65.432 16.9545 64.4857 17.1196 63.5393 17.3066C62.593 17.4937 61.6577 17.7028 60.7223 17.9393C59.787 18.1704 58.8627 18.429 57.9384 18.7096C57.0195 18.9902 56.1062 19.2928 55.1984 19.6174C54.2906 19.9421 53.3937 20.2887 52.5079 20.6573C51.6166 21.0259 50.7418 21.4166 49.867 21.8292C48.9977 22.2419 48.1394 22.671 47.2866 23.1277C46.4393 23.5788 45.603 24.0575 44.7777 24.5527C43.9524 25.0479 43.1381 25.5595 42.3403 26.0987C41.5426 26.6324 40.7558 27.1881 39.98 27.7603C39.2097 28.3325 38.4505 28.9267 37.7022 29.5374C36.9594 30.1482 36.2277 30.7754 35.5179 31.4246C34.8027 32.0683 34.1094 32.7341 33.4272 33.4163C32.7449 34.0986 32.0847 34.7918 31.4355 35.5071C30.7917 36.2223 30.159 36.9486 29.5483 37.6913C28.9376 38.4341 28.3434 39.1934 27.7712 39.9691C27.199 40.7449 26.6433 41.5262 26.1096 42.3295C25.5759 43.1273 25.0587 43.9415 24.5635 44.7668C24.0684 45.5921 23.5952 46.4284 23.1385 47.2757C22.6819 48.123 22.2527 48.9813 21.8401 49.8561C21.4274 50.7254 21.0368 51.6058 20.6682 52.4971C20.2995 53.3884 19.9529 54.2852 19.6283 55.1875C19.3037 56.0953 19.0011 57.0087 18.7205 57.9275C18.4399 58.8463 18.1868 59.7761 17.9502 60.7115C17.7136 61.6468 17.5045 62.5821 17.3175 63.5285C17.1304 64.4748 16.9654 65.4211 16.8223 66.373C16.6793 67.3248 16.5637 68.2822 16.4702 69.2395C16.3766 70.1968 16.3051 71.1542 16.2556 72.117C16.2061 73.0799 16.1841 74.0427 16.1841 75C16.1841 75.9574 16.2061 76.9257 16.2556 77.883C16.3051 78.8459 16.3711 79.8032 16.4702 80.7606C16.5637 81.7179 16.6848 82.6752 16.8223 83.6271C16.9654 84.5789 17.1304 85.5253 17.3175 86.4716C17.5045 87.4179 17.7136 88.3533 17.9502 89.2886C18.1813 90.2239 18.4399 91.1482 18.7205 92.0726C19.0011 92.9914 19.3037 93.9047 19.6283 94.8125C19.9529 95.7204 20.2995 96.6172 20.6682 97.503C21.0368 98.3943 21.4274 99.2691 21.8401 100.144C22.2527 101.013 22.6819 101.872 23.1385 102.724C23.5952 103.577 24.0684 104.408 24.5635 105.233C25.0587 106.059 25.5704 106.873 26.1096 107.671C26.6433 108.468 27.199 109.255 27.7712 110.031C28.3434 110.807 28.9376 111.56 29.5483 112.309C30.159 113.051 30.7862 113.783 31.4355 114.493C32.0792 115.208 32.7449 115.902 33.4272 116.584C34.1094 117.266 34.8027 117.926 35.5179 118.575C36.2332 119.219 36.9594 119.852 37.7022 120.463C38.445 121.073 39.2042 121.668 39.98 122.24C40.7558 122.812 41.5371 123.368 42.3403 123.901C43.1381 124.435 43.9524 124.952 44.7777 125.447C45.603 125.943 46.4393 126.416 47.2866 126.872C48.1339 127.324 48.9922 127.758 49.867 128.171C50.7363 128.583 51.6166 128.974 52.5079 129.343C53.3993 129.711 54.2961 130.058 55.1984 130.383C56.1007 130.707 57.0195 131.01 57.9384 131.29C58.8572 131.571 59.787 131.824 60.7223 132.061C61.6577 132.292 62.593 132.506 63.5393 132.693C64.4857 132.88 65.432 133.046 66.3838 133.189C67.3357 133.332 68.293 133.447 69.2504 133.541C70.2077 133.634 71.165 133.706 72.1279 133.755C73.0907 133.805 74.0536 133.827 75.0109 133.827C75.9737 133.827 76.9366 133.805 77.8939 133.755C78.8568 133.706 79.8141 133.64 80.7714 133.541C81.7288 133.447 82.6861 133.326 83.6379 133.189C84.5898 133.046 85.5361 132.88 86.4825 132.693C87.4288 132.506 88.3641 132.297 89.2994 132.061C90.2348 131.824 91.1591 131.571 92.0834 131.29C93.0023 131.01 93.9156 130.707 94.8234 130.383C95.7312 130.058 96.628 129.711 97.5139 129.343C98.4052 128.974 99.28 128.583 100.155 128.171C101.024 127.758 101.882 127.329 102.735 126.872C103.582 126.421 104.419 125.943 105.244 125.447C106.069 124.952 106.884 124.441 107.681 123.901C108.479 123.368 109.266 122.812 110.042 122.24C110.812 121.668 111.571 121.073 112.32 120.463C113.062 119.852 113.794 119.225 114.504 118.575C115.219 117.926 115.912 117.266 116.595 116.584C117.277 115.902 117.937 115.208 118.586 114.493C119.236 113.778 119.863 113.051 120.473 112.309C121.084 111.566 121.678 110.807 122.251 110.031C122.823 109.261 123.379 108.474 123.912 107.671C124.446 106.873 124.963 106.059 125.458 105.233C125.953 104.408 126.427 103.572 126.883 102.724C127.334 101.877 127.769 101.019 128.182 100.144C128.594 99.2746 128.985 98.3943 129.354 97.503C129.722 96.6117 130.069 95.7149 130.393 94.8125C130.718 93.9047 131.021 92.9914 131.301 92.0726C131.582 91.1537 131.835 90.2239 132.072 89.2886C132.308 88.3533 132.517 87.4179 132.704 86.4716C132.891 85.5253 133.056 84.5789 133.199 83.6271C133.343 82.6752 133.458 81.7179 133.552 80.7606C133.645 79.8032 133.717 78.8459 133.766 77.883C133.816 76.9202 133.838 75.9574 133.838 75C133.838 74.0427 133.816 73.0744 133.766 72.117C133.717 71.1542 133.651 70.1968 133.552 69.2395C133.458 68.2822 133.337 67.3248 133.199 66.373C133.056 65.4211 132.891 64.4748 132.704 63.5285C132.517 62.5821 132.308 61.6468 132.072 60.7115C131.84 59.7761 131.582 58.8518 131.301 57.9275C131.021 57.0087 130.718 56.0953 130.393 55.1875C130.069 54.2797 129.722 53.3829 129.354 52.4971C128.985 51.6058 128.594 50.7309 128.182 49.8561C127.769 48.9868 127.34 48.1285 126.883 47.2757C126.432 46.4284 125.953 45.5921 125.458 44.7668C124.963 43.9415 124.451 43.1273 123.912 42.3295C123.379 41.5317 122.823 40.7449 122.251 39.9691C121.678 39.1989 121.084 38.4396 120.473 37.6913C119.863 36.9486 119.236 36.2168 118.586 35.5071C117.943 34.7918 117.277 34.0986 116.595 33.4163C115.912 32.7341 115.219 32.0738 114.504 31.4246C113.789 30.7809 113.062 30.1482 112.32 29.5374C111.577 28.9267 110.818 28.3325 110.042 27.7603C109.266 27.1881 108.485 26.6324 107.681 26.0987C106.884 25.565 106.069 25.0479 105.244 24.5527C104.419 24.0575 103.582 23.5843 102.735 23.1277C101.888 22.6765 101.03 22.2419 100.155 21.8292C99.2855 21.4166 98.4052 21.0259 97.5139 20.6573C96.6225 20.2887 95.7257 19.9421 94.8234 19.6174C93.9156 19.2928 93.0023 18.9902 92.0834 18.7096C91.1646 18.429 90.2348 18.1759 89.2994 17.9393C88.3641 17.7028 87.4288 17.4937 86.4825 17.3066C85.5361 17.1196 84.5898 16.9545 83.6379 16.8114C82.6861 16.6684 81.7288 16.5529 80.7714 16.4593C79.8141 16.3658 78.8568 16.2943 77.8939 16.2447C76.9366 16.2007 75.9737 16.1732 75.0109 16.1732Z" fill="#EE263C"/>
<path d="M107.291 65.0085C106.543 62.6042 105.541 60.3099 104.287 58.1311C103.027 55.9468 101.547 53.9331 99.8414 52.079V67.2533L108.446 79.8033C108.81 77.3109 108.898 74.8075 108.705 72.2931C108.512 69.7787 108.039 67.3194 107.297 64.915L107.291 65.0085ZM99.8414 84.7385V67.2863L89.9764 52.8987V44.6898C87.55 43.5014 85.0246 42.6101 82.3892 42.0214L89.8993 52.9153V70.3674L99.7643 84.7715V98.0202C101.585 96.0505 103.154 93.8937 104.469 91.5554L99.8414 84.7385ZM65.014 42.7036C62.5822 43.4519 60.2604 44.4698 58.0596 45.7517C55.8588 47.0337 53.8286 48.5467 51.9744 50.2908L60.1063 62.186V79.5777L69.9548 93.9818V108.397C71.2092 108.584 72.4692 108.705 73.7401 108.749C75.0056 108.799 76.2765 108.771 77.542 108.677C78.8074 108.584 80.0619 108.413 81.3108 108.177C82.5598 107.94 83.7867 107.632 84.9971 107.258C86.2075 106.884 87.396 106.444 88.5569 105.932C89.7178 105.426 90.8512 104.854 91.9461 104.215C93.0465 103.577 94.1028 102.884 95.1207 102.13C96.1386 101.376 97.1124 100.568 98.0422 99.7038L89.8993 87.8031V70.3674L80.0509 55.9633V41.5647C77.5365 41.1796 75.0056 41.0861 72.4692 41.2786C69.9273 41.4712 67.4404 41.9444 65.014 42.7036ZM79.9738 73.6136L70.1694 59.0444V41.5923L80.0179 55.9963V73.432L89.8993 87.8361V105.288L79.9738 90.8842V73.6136ZM70.0373 76.6507L79.9023 91.0547V108.353L70.0373 93.9653V76.5131L60.1888 62.109V44.6733L70.0373 59.0609V76.6507ZM60.1118 97.1674V79.5777L50.2633 65.1901V51.9854C48.4257 53.9496 46.8521 56.1009 45.5426 58.4502L50.1863 65.2011V82.6533L60.0348 97.0574V105.25C62.4556 106.444 64.9865 107.335 67.622 107.918L60.1118 97.1674ZM42.7312 84.9696C43.4684 87.3794 44.4698 89.6738 45.7242 91.858C46.9842 94.0423 48.4697 96.056 50.1808 97.8992V82.7248L41.5647 70.1418C41.1961 72.6342 41.1136 75.1376 41.3117 77.652C41.5097 80.1664 41.9829 82.6258 42.7367 85.0301" fill="#0069AB"/>
<path d="M35.6941 87.1208L37.3612 90.6696L34.6432 95.7974L33.8839 97.1949L35.4025 97.316L41.1685 97.8331L43.2482 101.173L30.8634 108.534L28.8607 105.332L34.0985 102.295C35.3144 101.58 36.2388 101.079 36.2388 101.079C36.2388 101.079 35.617 101.079 34.2966 100.837L28.9707 100.05L31.1275 94.9831C31.6887 93.7672 31.9913 93.2225 31.9913 93.2225C31.9913 93.2225 31.0834 93.7232 29.8235 94.3614L24.4206 97.0794L22.781 93.6186L35.6941 87.1208Z" fill="white"/>
<path d="M51.0168 107.577L47.4076 110.053L48.9261 106.014L51.0168 107.577ZM45.2673 102.889L48.1503 105.453L42.3678 112.331C42.3073 112.391 42.2467 112.452 42.1972 112.518C42.1422 112.584 42.0927 112.655 42.0487 112.727C42.0047 112.798 41.9606 112.875 41.9221 112.952C41.8836 113.029 41.8506 113.106 41.8231 113.189C41.7956 113.271 41.7736 113.354 41.7516 113.437C41.7351 113.519 41.7186 113.602 41.7131 113.69C41.7076 113.772 41.7021 113.86 41.7021 113.943C41.7021 114.025 41.7131 114.113 41.7241 114.196C41.7351 114.278 41.7516 114.366 41.7736 114.443C41.7956 114.526 41.8231 114.608 41.8506 114.685C41.8836 114.762 41.9166 114.84 41.9551 114.917C41.9937 114.994 42.0377 115.065 42.0872 115.137C42.1367 115.208 42.1862 115.274 42.2467 115.335C42.3018 115.401 42.3623 115.461 42.4283 115.516C42.4943 115.571 42.5604 115.626 42.6264 115.676C42.6979 115.725 42.7694 115.769 42.8465 115.808C42.9015 115.874 42.962 115.934 43.028 115.989C43.094 116.044 43.1601 116.099 43.2261 116.149C43.2976 116.198 43.3691 116.243 43.4407 116.287C43.5177 116.325 43.5947 116.364 43.6718 116.397C43.7488 116.43 43.8313 116.457 43.9138 116.479C43.9964 116.501 44.0789 116.518 44.1614 116.534C44.244 116.545 44.332 116.556 44.4145 116.556C44.497 116.556 44.5851 116.556 44.6676 116.551C44.7501 116.545 44.8382 116.529 44.9207 116.512C45.0032 116.496 45.0858 116.474 45.1683 116.446C45.2508 116.419 45.3278 116.386 45.4049 116.353C45.4819 116.314 45.5589 116.276 45.6304 116.231C45.702 116.187 45.7735 116.138 45.8395 116.083C45.9055 116.028 45.9716 115.973 46.0321 115.912C46.0926 115.852 46.1476 115.786 46.2026 115.72C46.2577 115.654 46.3017 115.582 46.3512 115.511L51.6771 108.287L54.8352 110.487L49.3718 117.893C46.8519 121.293 43.6057 120.628 40.7997 118.41C37.9937 116.193 36.5632 113.189 39.2812 109.959L45.2673 102.889Z" fill="white"/>
<path d="M57.1188 111.676L60.8821 113.057L63.0059 120.309C63.4625 121.827 63.6441 122.707 63.6441 122.707H63.7652C63.7652 122.707 64.0072 121.629 64.3594 120.309L65.8779 114.526L69.5532 115.406L65.8174 129.381L61.9165 128.44L59.5507 120.93C59.0775 119.412 58.8849 118.531 58.8849 118.531H58.7804C58.7804 118.531 58.4448 119.67 58.0376 120.897L56.0624 126.74L52.5137 125.436L57.1188 111.676Z" fill="white"/>
<path d="M85.3491 124.242C85.3491 127.67 83.2694 130.025 79.1704 130.311C75.3466 130.57 71.7483 128.793 71.5832 123.225C71.4182 117.657 74.5103 115.439 78.2021 115.197C82.18 114.922 84.4853 117.156 84.8814 120.176L81.0136 120.435C80.9915 120.276 80.953 120.127 80.9035 119.973C80.8485 119.824 80.7825 119.681 80.6999 119.544C80.6174 119.406 80.5239 119.28 80.4138 119.164C80.3038 119.049 80.1883 118.944 80.0562 118.851C79.9242 118.757 79.7866 118.68 79.6436 118.619C79.5005 118.559 79.3465 118.509 79.1924 118.476C79.0384 118.443 78.8788 118.427 78.7192 118.427C78.5597 118.427 78.4056 118.443 78.2461 118.471C76.6505 118.575 75.5281 119.989 75.6492 123.021C75.7702 126.058 77.0467 127.241 78.8183 127.12C78.9943 127.136 79.1649 127.131 79.341 127.109C79.5115 127.087 79.6821 127.048 79.8471 126.988C80.0122 126.933 80.1663 126.856 80.3148 126.762C80.4634 126.669 80.6009 126.564 80.7275 126.443C80.854 126.322 80.964 126.19 81.0631 126.047C81.1621 125.904 81.2391 125.75 81.3052 125.585C81.3712 125.425 81.4152 125.255 81.4427 125.084C81.4702 124.914 81.4812 124.738 81.4757 124.567L85.3491 124.242Z" fill="white"/>
<path d="M86.1194 114.24L89.7177 112.859L91.7534 117.745L96.3035 115.698L93.9542 110.961L97.3489 109.156L103.77 122.119L100.369 123.923L97.822 118.763L93.1344 120.903L95.3627 126.201L91.7644 127.593L86.1359 114.256L86.1194 114.24Z" fill="white"/>
<path d="M99.5662 107.456L106.488 100.826L108.716 103.01L104.38 107.126L106.031 108.958L110.234 104.936L112.419 107.126L108.111 111.269L109.915 113.282L114.757 108.639L116.991 110.84L109.25 118.262L99.5662 107.456Z" fill="white"/>
<path d="M108.215 98.7795L110.202 95.3022L117.789 94.4219C119.412 94.2404 120.265 94.1963 120.265 94.1963V94.0918C120.265 94.0918 119.247 93.6682 118.003 93.0905L112.573 90.6036L114.091 87.1263L127.236 93.195L125.717 96.8813L117.827 97.9872C116.309 98.2018 115.351 98.2293 115.351 98.2293V98.3338C115.351 98.3338 116.413 98.8345 117.569 99.4562L123.032 102.383L120.969 105.602L108.215 98.7795Z" fill="white"/>
<path d="M25.4935 50.8794L28.3931 52.0348L26.0712 58.4556L28.7892 59.3524L30.957 53.2782L33.752 54.4612L31.6557 60.2932L36.7835 61.9438L35.6941 65.6301L21.8237 61.08L25.4935 50.8794Z" fill="white"/>
<path d="M43.2042 41.3336C45.7076 43.5949 46.1477 46.7035 43.6444 49.8616C41.3555 52.7611 37.8343 54.1421 33.2787 50.7694C28.7286 47.4022 29.3778 43.4848 31.7602 40.4808C34.1425 37.4767 37.4987 37.0036 40.0021 38.8247L37.5867 41.8618C37.4492 41.7737 37.3061 41.6967 37.1576 41.6362C37.009 41.5757 36.8495 41.5317 36.6899 41.5041C36.5303 41.4766 36.3708 41.4656 36.2057 41.4711C36.0407 41.4766 35.8811 41.4986 35.7271 41.5372C35.5675 41.5757 35.4189 41.6307 35.2704 41.6967C35.1218 41.7682 34.9843 41.8508 34.8577 41.9443C34.7257 42.0433 34.6102 42.1534 34.5001 42.2744C34.3956 42.3955 34.2966 42.5275 34.2195 42.6706C33.1136 44.0846 33.3722 45.7076 35.7381 47.6003C38.1039 49.4985 39.8975 49.2839 40.9154 47.9964C41.0364 47.8754 41.141 47.7489 41.2345 47.6058C41.328 47.4628 41.4051 47.3142 41.4656 47.1601C41.5261 47.0006 41.5701 46.841 41.5976 46.676C41.6251 46.5109 41.6306 46.3404 41.6251 46.1753C41.6141 46.0047 41.5866 45.8397 41.5426 45.6801C41.4986 45.5151 41.4381 45.361 41.361 45.2125C41.284 45.0639 41.1905 44.9209 41.0804 44.7943C40.9704 44.6623 40.8549 44.5467 40.7228 44.4422L43.2042 41.3336Z" fill="white"/>
<path d="M57.3333 35.4795C58.4391 34.9788 58.7473 34.5387 58.2741 33.4328C57.8009 32.3269 57.0747 32.3874 55.9688 32.8881L54.1036 33.7519L55.4241 36.3763L57.3333 35.4795ZM54.8904 30.1976C55.8917 29.741 56.1778 29.2733 55.7707 28.2994C55.3636 27.3256 54.7253 27.2981 53.768 27.7382L51.6002 28.7396L52.8272 31.155L54.8904 30.1976ZM52.7171 24.9598C55.281 23.7768 57.7734 23.5183 58.8793 26.1262C59.7871 28.2664 59.2149 29.1632 58.0925 30.1316V30.2251C58.2906 30.1646 58.4887 30.1261 58.6922 30.1096C58.8958 30.0931 59.0994 30.0931 59.303 30.1206C59.5065 30.1426 59.7046 30.1866 59.9027 30.2526C60.0952 30.3187 60.2823 30.4012 60.4639 30.5002C60.6399 30.5993 60.8105 30.7203 60.9645 30.8523C61.1186 30.9899 61.2561 31.1384 61.3827 31.298C61.5092 31.4631 61.6138 31.6336 61.7018 31.8207C61.7898 32.0078 61.8614 32.1948 61.9109 32.3929C63.1268 35.2594 61.2561 36.9485 58.6922 38.0984L53.3333 40.6018L46.8521 27.6557L52.7171 24.9598Z" fill="white"/>
<path d="M72.6286 29.0753L71.4017 26.2528C70.978 25.2954 70.6589 24.4481 70.6589 24.4481C70.6589 24.4481 70.4773 25.3284 70.2353 26.3463L69.4925 29.3834L72.6286 29.0753ZM79.0329 34.4617H74.9339L73.751 31.8813L68.7882 32.3049L68.062 35.0504L64.1006 35.7931L68.029 20.6188L72.5076 20.2391L79.0329 34.4617Z" fill="white"/>
<path d="M82.6916 30.2143L79.2749 19.9421L83.6159 20.7784L84.9804 25.18C85.2225 26.0163 85.4481 26.8966 85.4481 26.8966C85.4481 26.8966 86.0093 26.1813 86.5705 25.5321L89.6076 22.1044L93.9046 23.1663L86.5925 31.1166L85.4701 35.9143L81.6738 35.0945L82.6916 30.2143Z" fill="white"/>
<path d="M96.8373 24.3711L105.943 29.3614L104.424 32.0463L98.807 29.0147L97.6076 31.243L102.801 34.0985L101.283 36.723L96.2596 33.961L95.0271 36.3763L100.491 39.4079L98.9775 42.0929L90.2625 37.3172L96.8373 24.3711Z" fill="white"/>
<path d="M108.991 40.6844L110.51 42.28C110.576 42.379 110.653 42.4726 110.741 42.5551C110.829 42.6376 110.922 42.7091 111.027 42.7697C111.131 42.8302 111.241 42.8742 111.357 42.9072C111.472 42.9402 111.588 42.9622 111.709 42.9622C111.83 42.9677 111.946 42.9567 112.067 42.9347C112.182 42.9127 112.298 42.8742 112.408 42.8247C112.518 42.7752 112.617 42.7146 112.716 42.6376C112.809 42.5661 112.897 42.4781 112.969 42.3845C113.068 42.313 113.156 42.236 113.233 42.1424C113.31 42.0489 113.376 41.9499 113.431 41.8453C113.486 41.7408 113.525 41.6253 113.558 41.5097C113.585 41.3942 113.602 41.2731 113.602 41.1521C113.602 41.0311 113.585 40.9155 113.558 40.8C113.53 40.6844 113.486 40.5689 113.431 40.4643C113.376 40.3598 113.31 40.2608 113.233 40.1672C113.156 40.0737 113.068 39.9967 112.969 39.9252L111.45 38.2416L108.991 40.6844ZM110.966 33.2788L115.395 38.016C117.64 40.4313 118.19 42.7642 115.5 45.119C113.772 46.6375 112.463 47.0447 110.95 46.456L108.644 52.2825L105.915 48.9429L108.116 44.1782L106.856 42.8412L103.456 46.2249L100.661 43.5674L110.966 33.2788Z" fill="white"/>
<path d="M114.62 65.6027L113.299 61.8229L117.563 55.5231C118.476 54.2027 119.082 53.5039 119.082 53.5039V53.3994C119.082 53.3994 118.08 53.8835 116.837 54.4447L111.28 57.0417L109.624 53.5809L122.812 47.6168L124.556 51.2261L120.248 57.9055C119.412 59.1819 118.729 59.9412 118.729 59.9412V60.0457C118.729 60.0457 119.808 59.5781 121.024 59.1214L126.823 56.9206L128.05 60.4859L114.62 65.6027Z" fill="white"/>
</svg>
