<svg width="150" height="150" viewBox="0 0 150 150" fill="none" xmlns="http://www.w3.org/2000/svg">
<path d="M75.1306 138.837C75.1306 138.837 44.9304 126.651 27.9977 83.2705C10.6461 38.8176 11.164 11.1628 11.164 11.1628H138.995C138.995 11.1628 139.513 38.8176 122.163 83.2705C105.23 126.651 75.0287 138.837 75.0287 138.837H75.1306Z" fill="white"/>
<path d="M138.422 11.8536L29.8373 87.7939Z" fill="white"/>
<path d="M30.2767 27.8329L30.2776 21.554C32.6342 22.0821 34.1373 23.445 34.1373 24.6958C34.1373 25.926 32.6707 27.2655 30.3767 27.8114L30.2767 27.8329ZM26.0094 32.1582L26.0112 35.5393L24.1912 35.5384V38.3493H32.0901V35.5384L30.2757 35.5365V32.1703L30.344 32.1601C35.0039 31.4319 38.4018 28.4134 38.4018 24.6958C38.4018 20.4154 33.8999 17.0632 28.1528 17.0632C22.4057 17.0632 17.9038 20.4154 17.9038 24.6958C17.9038 28.42 21.313 31.4421 25.985 32.1638L26.0094 32.1582ZM26.0094 27.8301C23.6696 27.2964 22.1683 25.94 22.1683 24.6958C22.1683 23.4516 23.6677 22.0961 26.0047 21.5624L26.0094 27.8301Z" fill="#F1BC34"/>
<path d="M30.156 21.4035C30.1102 21.4399 30.0841 21.4951 30.0841 21.554L30.0831 27.8329C30.0831 27.8918 30.1093 27.947 30.1551 27.9844C30.2009 28.0208 30.2607 28.0349 30.3178 28.0227L30.4187 28.0003C32.7239 27.4525 34.3317 26.0933 34.3317 24.6958C34.3317 23.2871 32.6444 21.8858 30.3196 21.3651C30.2626 21.3521 30.2018 21.3661 30.156 21.4035ZM30.4711 21.8101C32.7454 22.3887 33.9438 23.6778 33.9438 24.6958C33.9438 25.8661 32.4893 27.0636 30.4701 27.5824C30.4711 27.1393 30.4711 22.2597 30.4711 21.8101Z" fill="#231F20"/>
<path d="M17.7103 24.6958C17.7103 28.4181 21.0382 31.5337 25.8159 32.3236C25.8159 32.6059 25.8168 35.0186 25.8168 35.3458C25.5074 35.3449 24.1921 35.3449 24.1921 35.3449C24.1407 35.3449 24.0912 35.3645 24.0547 35.4009C24.0183 35.4374 23.9977 35.4869 23.9977 35.5384V38.3493C23.9977 38.4558 24.0846 38.5428 24.1912 38.5428H32.0902C32.1977 38.5428 32.2846 38.4558 32.2846 38.3493V35.5384C32.2846 35.4318 32.1977 35.3449 32.0911 35.3449C32.0911 35.3449 30.7787 35.343 30.4692 35.343C30.4692 35.0158 30.4702 32.6022 30.4702 32.3302C35.2582 31.5459 38.5963 28.4209 38.5963 24.6958C38.5963 20.3069 34.0084 16.8688 28.1528 16.8688C22.2973 16.8688 17.7103 20.3069 17.7103 24.6958ZM26.1477 35.6767C26.1842 35.6402 26.2047 35.5907 26.2047 35.5393L26.2029 32.1582C26.2029 32.0628 26.1094 31.9871 26.015 31.9721C21.3532 31.2524 18.0973 28.2601 18.0973 24.6958C18.0973 20.5247 22.5142 17.2567 28.1528 17.2567C33.7915 17.2567 38.2084 20.5247 38.2084 24.6958C38.2084 28.2517 34.9618 31.2421 30.3141 31.9684L30.2468 31.9787C30.1524 31.9927 30.0822 32.074 30.0822 32.1703L30.0813 35.5365C30.0813 35.6431 30.1682 35.73 30.2757 35.73C30.2757 35.73 31.5873 35.7319 31.8967 35.7319C31.8967 36.0431 31.8967 37.8435 31.8967 38.1548C31.5368 38.1548 24.7446 38.1548 24.3856 38.1548C24.3856 37.8435 24.3856 36.0431 24.3856 35.7319C24.6951 35.7319 26.0112 35.7328 26.0112 35.7328C26.0627 35.7328 26.1122 35.7122 26.1477 35.6767Z" fill="#231F20"/>
<path d="M25.9607 21.3736C23.6509 21.9008 21.9739 23.2983 21.9739 24.6958C21.9739 26.0943 23.6528 27.4918 25.9664 28.019C26.0234 28.0321 26.0841 28.0181 26.1299 27.9816C26.1767 27.9442 26.2029 27.8891 26.2029 27.8302L26.1982 21.5624C26.1982 21.5035 26.1711 21.4474 26.1253 21.411C26.0785 21.3736 26.0187 21.3605 25.9607 21.3736ZM22.3618 24.6958C22.3618 23.5245 23.8014 22.3411 25.8112 21.8185C25.8112 22.2682 25.8149 27.1244 25.8149 27.574C23.8033 27.0515 22.3618 25.868 22.3618 24.6958Z" fill="#231F20"/>
<path d="M51.9329 17.0792L57.6024 17.0801C56.0945 18.8796 50.283 25.8148 48.6826 27.7255C50.4372 29.7549 56.9854 37.3267 57.8688 38.3493L52.1208 38.3484L43.9629 28.936V38.3493H39.6984V17.0754H43.9629V26.5794L51.9329 17.0792Z" fill="#F1BC34"/>
<path d="M39.6984 16.882C39.5909 16.882 39.5049 16.968 39.5049 17.0755V38.3494C39.5049 38.4559 39.5909 38.5429 39.6984 38.5429H43.9629C44.0704 38.5429 44.1564 38.4559 44.1564 38.3494C44.1564 38.3494 44.1564 30.3831 44.1564 29.4558C44.7818 30.1765 51.974 38.4756 51.974 38.4756C52.0105 38.5176 52.0638 38.5419 52.1208 38.5419L57.8688 38.5438C57.9445 38.5438 58.0137 38.4989 58.0455 38.4298C58.0567 38.4045 58.0632 38.3765 58.0632 38.3494C58.0632 38.3036 58.0464 38.2587 58.0156 38.2222C58.0156 38.2222 49.136 27.9536 48.9369 27.7236C49.1407 27.4806 57.751 17.2045 57.751 17.2045C57.78 17.1689 57.7959 17.125 57.7959 17.0801C57.7959 17.0521 57.7903 17.024 57.7781 16.9979C57.7463 16.9296 57.6772 16.8857 57.6024 16.8857L51.9329 16.8848C51.8759 16.8848 51.8216 16.9109 51.7843 16.9539C51.7843 16.9539 44.7836 25.2988 44.1564 26.0466C44.1564 25.0978 44.1564 17.0755 44.1564 17.0755C44.1564 16.968 44.0704 16.882 43.9629 16.882H39.6984ZM43.7694 17.269C43.7694 17.641 43.7694 26.5794 43.7694 26.5794C43.7694 26.6608 43.8199 26.7337 43.8965 26.7617C43.9732 26.7898 44.0592 26.7664 44.1115 26.7038C44.1115 26.7038 51.9086 17.4092 52.0236 17.2727C52.1853 17.2727 56.4862 17.2736 57.1864 17.2736C56.7283 17.8214 48.534 27.6012 48.534 27.6012C48.5041 27.6367 48.4882 27.6816 48.4882 27.7255C48.4882 27.7704 48.5041 27.8162 48.5359 27.8526C48.5359 27.8526 56.9377 37.5688 57.4444 38.1559C56.7293 38.1549 52.3676 38.1549 52.2086 38.1549C52.0946 38.0231 44.1096 28.8089 44.1096 28.8089C44.0564 28.7482 43.9713 28.7257 43.8956 28.7547C43.8189 28.7827 43.7694 28.8547 43.7694 28.936C43.7694 28.936 43.7694 37.7829 43.7694 38.1549C43.4329 38.1549 40.2284 38.1549 39.8919 38.1549C39.8919 37.7782 39.8919 17.6457 39.8919 17.269C40.2284 17.269 43.4329 17.269 43.7694 17.269Z" fill="#231F20"/>
<path d="M138.321 11.9387L29.5138 87.9229C29.5138 87.9229 40.8855 110.924 51.4822 121.004C62.0781 131.084 74.8912 139.1 74.8912 139.1C74.8912 139.1 100.33 130.05 120.23 86.3721C140.13 42.6942 138.321 11.9387 138.321 11.9387Z" fill="#DD3C2E"/>
<path d="M11.1639 10.1935H10.2123L10.1945 11.1451C10.1899 11.4237 9.87203 39.5009 27.0946 83.6229C35.9124 106.215 48.3741 120.253 57.2751 128.051C66.9539 136.531 74.4528 139.609 74.7678 139.736L75.0286 139.806H75.1305L75.3913 139.736C75.7054 139.609 83.2052 136.531 92.8849 128.051C101.786 120.253 114.247 106.215 123.065 83.6229C140.287 39.5009 139.969 11.4237 139.965 11.1451L139.947 10.1935H11.1639ZM31.0627 88.1193L137.979 13.3549C137.686 20.6846 135.613 46.1435 121.259 82.9181C112.601 105.1 100.396 118.877 91.6818 126.528C83.4856 133.724 76.7645 136.997 75.08 137.757C73.3946 136.997 66.6735 133.724 58.4782 126.528C50.4717 119.498 39.5198 107.299 31.0777 88.1632L31.0627 88.1193ZM30.2756 86.303C29.8082 85.1971 29.3493 84.0688 28.8996 82.9181C13.5887 43.6925 12.2511 17.3409 12.1417 12.1322C13.9337 12.1322 121.374 12.1322 136.322 12.1322L30.2756 86.303Z" fill="#F1BC34"/>
<path d="M75.0286 140H75.1305C75.2296 139.999 75.4643 139.916 75.4643 139.916C75.7793 139.789 83.3062 136.699 93.0121 128.196C101.929 120.384 114.413 106.322 123.246 83.694C140.454 39.6075 140.164 11.4209 140.158 11.1414L140.14 10.1907C140.138 10.0851 140.052 10 139.947 10H10.2123C10.1076 10 10.0207 10.0851 10.0188 10.1907L10.0011 11.1414C9.99547 11.4199 9.67016 39.5169 26.9133 83.694C35.7461 106.321 48.2302 120.384 57.1471 128.196C66.853 136.699 74.3799 139.789 74.6959 139.916C74.6959 139.916 74.9641 139.999 75.0286 140ZM11.164 10.3879C11.164 10.3879 139.513 10.3879 139.756 10.3879C139.761 10.631 139.771 11.1489 139.771 11.1489C139.771 11.1591 139.771 11.2134 139.771 11.3087C139.771 13.6503 139.393 41.2584 122.885 83.5528C114.08 106.108 101.641 120.122 92.7569 127.905C83.8549 135.704 76.829 138.911 75.5362 139.464C75.3605 139.543 75.3063 139.58 75.0875 139.58C74.8679 139.58 74.8071 139.543 74.6229 139.464C73.3311 138.911 66.3043 135.704 57.4023 127.905C48.5181 120.121 36.0788 106.107 27.275 83.5528C10.7938 41.3294 10.3881 13.8476 10.3881 11.3349C10.3881 11.2227 10.389 11.1601 10.389 11.1489C10.389 11.1489 10.3984 10.631 10.403 10.3879C10.6461 10.3879 11.164 10.3879 11.164 10.3879Z" fill="#231F20"/>
<path d="M137.868 13.196L30.9515 87.9603C30.8795 88.0108 30.8505 88.1024 30.8795 88.1847L30.8954 88.2277C39.4291 107.573 50.5353 119.811 58.3501 126.674C66.4949 133.825 73.1534 137.101 74.9996 137.934C75.051 137.957 75.109 137.957 75.1595 137.934C77.0066 137.1 83.6651 133.824 91.8099 126.674C100.54 119.007 112.768 105.207 121.44 82.9891C135.859 46.0473 137.893 20.3565 138.173 13.3624C138.176 13.2886 138.137 13.2203 138.073 13.1848C138.008 13.1493 137.929 13.154 137.868 13.196ZM137.768 13.7391C137.431 21.2287 135.227 46.5997 121.079 82.848C112.435 104.993 100.252 118.745 91.5538 126.382C83.5511 133.409 77.0085 136.667 75.08 137.544C73.1516 136.667 66.609 133.409 58.6063 126.382C50.8344 119.558 39.7965 107.395 31.303 88.1875C31.56 88.008 137.128 14.186 137.768 13.7391Z" fill="#231F20"/>
<path d="M12.1418 11.9387C12.0904 11.9387 12.0399 11.9593 12.0034 11.9967C11.967 12.0341 11.9473 12.0845 11.9483 12.1369C12.052 17.0576 13.3467 43.6056 28.7193 82.9891L30.0972 86.3787C30.1187 86.4329 30.1645 86.474 30.2206 86.4909C30.2776 86.5067 30.3374 86.4965 30.386 86.4619L136.433 12.2911C136.502 12.2425 136.532 12.1547 136.507 12.0743C136.482 11.9929 136.407 11.9387 136.322 11.9387H12.1418ZM135.707 12.3257C134.709 13.024 30.7581 85.729 30.3636 86.0048C30.2056 85.6168 29.0811 82.848 29.0811 82.848C13.9132 43.9898 12.4727 17.6811 12.3409 12.3257C12.7354 12.3257 134.491 12.3257 135.707 12.3257Z" fill="#231F20"/>
<path d="M75.1305 22.0466L83.3622 49.2349H109.996L88.4475 66.0396L96.6792 93.2279L75.1305 76.4242L53.5808 93.2279L61.8135 66.0396L40.2648 49.2349H66.9006L75.1305 22.0466Z" fill="#DD3C2E"/>
<path d="M75.1305 20.1079C74.2761 20.1079 73.5227 20.6669 73.275 21.4849C73.275 21.4849 66.2136 44.8153 65.462 47.2971C62.8876 47.2971 40.2648 47.2971 40.2648 47.2971C39.4366 47.2971 38.7009 47.8225 38.4317 48.6049C38.3606 48.8115 38.326 49.0246 38.326 49.235C38.326 49.8211 38.5925 50.3894 39.0729 50.7643C39.0729 50.7643 57.6752 65.2703 59.5728 66.7501C58.8727 69.0627 51.7253 92.6661 51.7253 92.6661C51.6692 92.8522 51.6421 93.041 51.6421 93.2279C51.6421 93.8552 51.9478 94.4581 52.4843 94.8264C53.1808 95.3041 54.1071 95.2761 54.7727 94.7573C54.7727 94.7573 73.0029 80.541 75.1305 78.8827C77.2581 80.541 95.4874 94.7563 95.4874 94.7563C96.153 95.2761 97.0793 95.3041 97.7757 94.8264C98.3123 94.4581 98.6171 93.8552 98.6171 93.2279C98.6171 93.041 98.5899 92.8522 98.5339 92.6661C98.5339 92.6661 91.3883 69.0627 90.6882 66.7501C92.5858 65.2703 111.188 50.7643 111.188 50.7643C111.669 50.3894 111.934 49.8211 111.934 49.235C111.934 49.0246 111.9 48.8115 111.829 48.6049C111.56 47.8225 110.824 47.2971 109.996 47.2971C109.996 47.2971 87.3744 47.2971 84.8 47.2971C84.0493 44.8153 76.9861 21.4849 76.9861 21.4849C76.7383 20.6669 75.9849 20.1079 75.1305 20.1079ZM66.9006 51.1737C67.755 51.1737 68.5085 50.6147 68.7562 49.7968C68.7562 49.7968 72.9048 36.0909 75.1305 28.7369C77.3572 36.0909 81.5067 49.7968 81.5067 49.7968C81.7544 50.6147 82.5079 51.1737 83.3623 51.1737C83.3623 51.1737 97.3514 51.1737 104.359 51.1737C98.7573 55.541 87.2556 64.5103 87.2556 64.5103C86.7761 64.8842 86.5097 65.4526 86.5097 66.0396C86.5097 66.2266 86.5359 66.4154 86.5929 66.6005C86.5929 66.6005 90.8723 80.7373 93.0541 87.9427C87.2454 83.4136 76.3233 74.8958 76.3233 74.8958C75.6222 74.349 74.6398 74.349 73.9387 74.8949C73.9387 74.8949 63.0157 83.4136 57.2069 87.9427C59.3887 80.7373 63.6691 66.6005 63.6691 66.6005C63.7242 66.4154 63.7523 66.2266 63.7523 66.0396C63.7523 65.4526 63.4849 64.8842 63.0054 64.5103C63.0054 64.5103 51.5038 55.541 45.9025 51.1737C52.9097 51.1737 66.9006 51.1737 66.9006 51.1737Z" fill="#F1BC34"/>
<path d="M73.0899 21.4287C73.0899 21.4287 65.9004 45.1797 65.3181 47.1035C65.0339 47.1035 40.2648 47.1035 40.2648 47.1035C39.3543 47.1035 38.5439 47.6812 38.2485 48.5422C38.1709 48.7656 38.1326 48.9993 38.1326 49.2349C38.1326 49.8967 38.4317 50.5099 38.9533 50.9165C38.9533 50.9165 57.85 65.6516 59.3494 66.821C59.2728 67.0725 51.5402 92.6099 51.5402 92.6099C51.4795 92.8119 51.4486 93.0194 51.4486 93.2278C51.4486 93.9308 51.7945 94.5889 52.375 94.9862C53.1443 95.5143 54.1567 95.4835 54.8924 94.9095C54.8924 94.9095 73.547 80.3624 75.1305 79.1275C75.3661 79.3117 95.3678 94.9095 95.3678 94.9095C96.1034 95.4835 97.1149 95.5143 97.8851 94.9862C98.4647 94.5889 98.8115 93.9317 98.8115 93.2278C98.8115 93.0184 98.7807 92.81 98.7199 92.6099C98.7199 92.6099 90.9892 67.0734 90.9126 66.821C91.1201 66.6593 111.308 50.9165 111.308 50.9165C111.829 50.5099 112.129 49.8967 112.129 49.2349C112.129 48.9984 112.089 48.7647 112.013 48.5422C111.717 47.6812 110.907 47.1035 109.996 47.1035C109.996 47.1035 85.2281 47.1035 84.9439 47.1035C84.8617 46.8306 77.1712 21.4287 77.1712 21.4287C76.8973 20.5229 76.0765 19.9143 75.1305 19.9143C74.1845 19.9143 73.3638 20.5229 73.0899 21.4287ZM52.5937 94.6665C52.1198 94.3412 51.8366 93.8037 51.8366 93.2278C51.8366 93.0577 51.8618 92.8876 51.9113 92.7221L59.7589 66.8061C59.7813 66.7294 59.7551 66.6462 59.6925 66.5967L39.1917 50.6109C38.7645 50.2781 38.5196 49.7761 38.5196 49.2349C38.5196 49.0423 38.5523 48.8516 38.6149 48.6684C38.857 47.9635 39.5198 47.4905 40.2648 47.4905H65.462C65.5471 47.4905 65.6228 47.4345 65.648 47.3531L73.461 21.5408C73.6854 20.7996 74.3565 20.3022 75.1305 20.3022C75.9045 20.3022 76.5757 20.7996 76.801 21.5408L84.6149 47.3531C84.6392 47.4345 84.7149 47.4905 84.8 47.4905H109.996C110.741 47.4905 111.404 47.9635 111.646 48.6684C111.709 48.8507 111.741 49.0414 111.741 49.2349C111.741 49.777 111.496 50.2781 111.069 50.6109L90.5695 66.5976C90.5059 66.6462 90.4797 66.7294 90.5031 66.8061L98.3488 92.7221C98.3983 92.8866 98.4236 93.0568 98.4236 93.2278C98.4236 93.8037 98.1403 94.3412 97.6655 94.6665C97.0354 95.0983 96.2081 95.0731 95.6061 94.6038L75.2502 78.7293C75.1801 78.6751 75.0819 78.6751 75.0118 78.7293L54.654 94.6038C54.052 95.074 53.2238 95.0983 52.5937 94.6665Z" fill="#231F20"/>
<path d="M74.9455 28.6799L68.5702 49.7407C68.3459 50.4819 67.6747 50.9793 66.9007 50.9793H45.9026C45.8203 50.9793 45.7465 51.0325 45.7193 51.1101C45.6922 51.1886 45.7184 51.2756 45.7829 51.327L62.8858 64.6636C63.313 64.9964 63.5579 65.4974 63.5579 66.0396C63.5579 66.2098 63.5327 66.3799 63.4831 66.5444L57.0209 87.8865C56.9966 87.9679 57.0275 88.0557 57.0966 88.1025C57.1668 88.1502 57.2593 88.1474 57.3257 88.0959L74.0584 75.0482C74.6894 74.5555 75.5718 74.5555 76.2037 75.0482L92.9345 88.0959C93.0009 88.1474 93.0935 88.1502 93.1636 88.1025C93.2327 88.0548 93.2636 87.9679 93.2393 87.8865L86.778 66.5444C86.7285 66.3808 86.7032 66.2116 86.7032 66.0396C86.7032 65.4974 86.9482 64.9964 87.3754 64.6636L104.477 51.327C104.543 51.2756 104.569 51.1886 104.542 51.1101C104.515 51.0325 104.441 50.9793 104.359 50.9793H83.3623C82.5874 50.9793 81.9171 50.4819 81.6918 49.7407L75.3166 28.6799C75.2923 28.5986 75.2166 28.5425 75.1306 28.5425C75.0455 28.5425 74.9698 28.5986 74.9455 28.6799ZM66.9007 51.3672C67.8467 51.3672 68.6674 50.7586 68.9413 49.8528C68.9413 49.8528 74.0883 32.85 75.1306 29.4053C75.4802 30.5607 81.3207 49.8528 81.3207 49.8528C81.5956 50.7586 82.4154 51.3672 83.3623 51.3672C83.3623 51.3672 102.727 51.3672 103.795 51.3672C102.951 52.0253 87.137 64.3579 87.137 64.3579C86.6144 64.7646 86.3153 65.3778 86.3153 66.0396C86.3153 66.249 86.3462 66.4575 86.4069 66.6575C86.4069 66.6575 91.6586 84.0016 92.6915 87.4145C91.7819 86.7059 76.4421 74.7425 76.4421 74.7425C75.6699 74.1405 74.5912 74.1405 73.82 74.7425C73.82 74.7425 60.2946 85.2888 57.5687 87.4145C57.9043 86.3077 63.8542 66.6575 63.8542 66.6575C63.915 66.4556 63.9458 66.2481 63.9458 66.0396C63.9458 65.3778 63.6467 64.7646 63.1251 64.3579C63.1251 64.3579 49.1481 53.4592 46.4662 51.3672C47.5338 51.3672 66.9007 51.3672 66.9007 51.3672Z" fill="#231F20"/>
</svg>
