<svg width="150" height="150" viewBox="0 0 150 150" fill="none" xmlns="http://www.w3.org/2000/svg">
<path d="M116.375 57.6011L116.076 56.041H114.477L113.177 55.9629H112.852C112.358 55.9629 111.929 55.885 111.551 55.833H111.37C109.56 55.5393 107.785 55.1074 106.042 54.5373C104.3 53.9672 102.613 53.2656 100.98 52.4326C99.3473 51.5997 97.7886 50.6453 96.3045 49.5696C94.8204 48.4939 93.4282 47.3098 92.1285 46.0174L91.8554 45.7704L91.3484 45.2634L91.0624 44.9904L90.5163 44.4313L90.2434 44.1453L89.7103 43.5734L101.723 33.9527C102.252 33.5678 102.685 33.0955 103.023 32.5358C103.195 32.2211 103.312 31.8874 103.374 31.5346C103.401 31.325 103.403 31.115 103.38 30.9049C103.356 30.6948 103.307 30.4906 103.233 30.2924C103.16 30.0942 103.063 29.9077 102.944 29.733C102.825 29.5582 102.687 29.4004 102.529 29.2595C102.271 29.0033 101.976 28.7997 101.645 28.6484C101.064 28.375 100.453 28.2234 99.8118 28.1935L83.8601 27.4523L78.2306 12.5925C78.0247 11.9715 77.7039 11.4168 77.2685 10.9284C77.0272 10.6626 76.7455 10.4502 76.4236 10.2914C76.2387 10.1956 76.0452 10.1231 75.8429 10.0739C75.6407 10.0246 75.4355 10 75.2275 10C75.0194 10 74.8141 10.0246 74.612 10.0739C74.4097 10.1231 74.2161 10.1956 74.0314 10.2914C73.7094 10.4502 73.4276 10.6626 73.1863 10.9284C72.7509 11.4168 72.4302 11.9715 72.2243 12.5925L66.595 27.5043L50.6431 28.1935C50.001 28.2051 49.3856 28.3395 48.797 28.5964C48.466 28.7477 48.1714 28.9513 47.9129 29.2074C47.6122 29.5015 47.3954 29.8482 47.2629 30.2474C47.1302 30.6737 47.0998 31.107 47.1719 31.5475C47.2332 31.903 47.3545 32.2367 47.5359 32.5486C47.8755 33.1106 48.3088 33.5872 48.8361 33.9787L60.8487 43.5862L60.2507 44.2233L59.4966 45.0033L58.6906 45.7834L58.4175 46.0433C57.1161 47.3254 55.7234 48.4992 54.2398 49.5652C52.756 50.631 51.199 51.576 49.5686 52.3999C47.938 53.224 46.2538 53.9172 44.5157 54.4797C42.7777 55.0423 41.0066 55.4673 39.2025 55.7549H39.0204L37.7204 55.8978H37.3953C36.8623 55.8978 36.4462 55.9628 36.0952 55.9759H34.4962L34.1972 57.536C32.7488 65.2692 32.0164 73.0696 32 80.9374C32 81.6004 32 82.2372 32 83.0044C32 83.1473 32 83.3034 32 83.4463V83.8495C32 84.2524 32 84.6425 32 85.0324V85.5265V86.0335C32 86.3714 32 86.6965 32.0781 87.0215V87.5028C32.0781 87.5936 32.1431 88.0748 32.1431 88.0748C32.1431 88.3736 32.2081 88.6727 32.2471 88.9718C32.286 89.2707 32.2471 89.2968 32.2471 89.4658V89.6997V89.9077C32.2471 90.2328 32.338 90.5578 32.39 90.8699C32.4033 91.0279 32.4294 91.184 32.4681 91.3378L32.533 91.7929C32.533 92.1049 32.6371 92.43 32.7021 92.729C32.7671 93.0278 32.7021 93.0409 32.7931 93.197V93.4051V93.5869C32.7931 93.912 32.9101 94.2371 32.9881 94.5491C33.066 94.8611 33.053 94.835 33.0791 94.9651C33.1051 95.0952 33.0791 95.121 33.1441 95.1991V95.4461C33.2091 95.7452 33.274 96.044 33.3522 96.3302C33.4301 96.6161 33.4172 96.5901 33.4561 96.7201L33.5732 97.1751L33.8072 98.0591L33.9242 98.4493L34.0151 98.7354C34.1062 99.0734 34.2102 99.4115 34.3142 99.7625L34.4312 100.1L34.5872 100.568C34.6782 100.855 34.7692 101.127 34.8733 101.427C34.9023 101.524 34.9369 101.619 34.9773 101.712L35.0682 101.96L35.4582 103.026L35.5752 103.325L35.6792 103.585L36.0823 104.599C36.0823 104.703 36.1733 104.807 36.2253 104.898V105.054C36.3813 105.418 36.5243 105.769 36.6933 106.133L36.8103 106.393L36.9013 106.588L36.9794 106.744C37.1093 107.043 37.2523 107.329 37.3953 107.615L37.6033 108.031C37.7724 108.382 37.9543 108.733 38.1363 109.084L38.2403 109.292C38.2807 109.349 38.3154 109.41 38.3444 109.474L38.4484 109.656C38.5915 109.942 38.7474 110.215 38.9034 110.488C38.9434 110.575 38.991 110.657 39.0465 110.735L39.1505 110.917L39.6965 111.866L39.9694 112.308C40.1515 112.607 40.3335 112.906 40.5285 113.205L40.7365 113.53C40.9446 113.855 41.1526 114.18 41.3736 114.492L41.5036 114.687L41.5816 114.804L42.2446 115.753L42.5697 116.208L43.1417 116.988L43.2457 117.118L43.3497 117.248C43.5707 117.548 43.7917 117.846 44.0257 118.132L44.2467 118.418C44.4938 118.705 44.7278 119.004 44.9488 119.277L45.0917 119.446L45.1698 119.523C45.4038 119.823 45.6509 120.109 45.9108 120.395L46.1838 120.707L46.8469 121.461L46.9768 121.591L47.0679 121.682C47.3148 121.955 47.5749 122.241 47.8479 122.514L48.043 122.722L48.81 123.515L49.018 123.71L49.7981 124.477L49.9671 124.633H50.032L50.7471 125.309L50.9422 125.478L51.7612 126.219L51.9432 126.388L52.7492 127.077L52.9442 127.233L53.7503 127.909L53.9454 128.065L54.7513 128.715L55.0114 128.923L55.7264 129.482L55.9605 129.651L56.7144 130.21L56.9095 130.353L57.6766 130.912L57.8586 131.029L58.6256 131.562L58.9895 131.822L59.5876 132.212L59.7956 132.342L60.5366 132.836L60.7576 132.966L61.4597 133.421L61.6676 133.538L62.3568 133.968L62.6817 134.162L63.2407 134.488L64.1118 134.995L64.3328 135.111L64.9569 135.462L65.2819 135.632L65.7759 135.904L66.088 136.074L66.5689 136.321L66.738 136.412L66.9461 136.516L67.2841 136.685L67.6091 136.841L67.9992 137.049L68.2851 137.179L68.7272 137.387L68.9872 137.517L69.3772 137.699L69.6632 137.829L69.9752 137.959L70.2742 138.102L70.5862 138.232L71.1452 138.479L71.6392 138.687L72.1073 138.869L72.4063 138.999L72.9133 139.194C73.6154 139.467 74.0314 139.597 74.0575 139.61L75.2275 140L75.8385 139.805L76.9827 139.389L77.4766 139.194L77.8016 139.064L78.2566 138.882L78.7507 138.674L79.2968 138.44L79.6216 138.297L79.8948 138.167L80.2068 138.024L80.5057 137.881L80.8307 137.738L81.0909 137.608L81.7928 137.27L82.1828 137.088L82.5207 136.919L83.0409 136.646L83.2489 136.542L84.0289 136.139L84.458 135.905L84.8349 135.697L85.6931 135.216L86.1221 134.969L86.5642 134.722L87.4482 134.202L88.1373 133.773L88.3583 133.643L88.9561 133.265H89.0602L89.2812 133.122L90.0224 132.641L90.2175 132.512L90.8154 132.121L90.9975 131.991L91.1793 131.861L91.9464 131.328L92.1415 131.185L92.9215 130.626L93.1165 130.483L93.8704 129.924L93.9874 129.833H94.0525L94.8196 129.235L95.0406 129.053L96.0287 128.299L96.2368 128.13L97.0298 127.48L97.2379 127.298L98.0309 126.609L98.2389 126.427L99.032 125.712C99.087 125.668 99.1388 125.62 99.1879 125.569L99.9941 124.815L100.189 124.633L100.969 123.866L101.177 123.671L101.944 122.878L102.152 122.657C102.412 122.397 102.659 122.124 102.919 121.851L103.114 121.63C103.374 121.357 103.621 121.071 103.881 120.785L104.089 120.499C104.31 120.265 104.518 120.018 104.726 119.771L104.895 119.55L105.038 119.394L105.779 118.484L105.974 118.237C106.208 117.951 106.429 117.652 106.663 117.353L106.884 117.054L107.573 116.118L107.638 116.027L107.781 115.832C108.002 115.52 108.224 115.207 108.432 114.882L108.523 114.765L108.653 114.571C108.874 114.259 109.082 113.933 109.303 113.596L109.394 113.44L109.498 113.283L110.005 112.477L110.187 112.165C110.187 112.087 110.278 112.009 110.33 111.944L110.85 111.06L111.123 110.566L111.617 109.669L111.89 109.149C112.072 108.811 112.241 108.46 112.423 108.109L112.514 107.94L112.631 107.706L113.021 106.887L113.203 106.497C113.203 106.393 113.294 106.302 113.333 106.211C113.489 105.873 113.632 105.522 113.788 105.184L113.879 104.963L114.009 104.664L114.334 103.845L114.516 103.39L114.633 103.104C114.763 102.779 114.88 102.441 114.997 102.103V102.012V101.856C114.997 101.726 115.088 101.609 115.127 101.492C115.244 101.18 115.348 100.855 115.452 100.53V100.4V100.218C115.452 100.088 115.543 99.9577 115.582 99.8407C115.621 99.7237 115.738 99.2946 115.829 99.0347L115.907 98.7356C115.913 98.6621 115.913 98.5884 115.907 98.5146L116.024 98.1507L116.297 97.0844C116.297 97.0844 116.297 96.8766 116.375 96.7986C116.417 96.6663 116.452 96.5318 116.479 96.3955C116.557 96.1096 116.622 95.7975 116.7 95.4985C116.7 95.4985 116.778 95.1215 116.804 95.0434C116.83 94.9656 116.804 94.7576 116.895 94.6277L117.09 93.6785L117.168 93.2624C117.168 93.1194 117.233 92.9635 117.259 92.8074C117.285 92.6515 117.363 92.2614 117.402 91.9884L117.493 91.4424L117.571 90.9482C117.571 90.6624 117.662 90.3762 117.701 90.0773V89.7782V89.5054C117.701 89.3493 117.701 89.2063 117.701 89.0502C117.701 88.8942 117.701 88.4782 117.792 88.1923V87.8543V87.607C117.792 87.4381 117.792 87.2691 117.792 87.1002C117.792 86.697 117.857 86.2812 117.883 85.8781V85.67V85.111C117.883 84.7341 117.883 84.3439 117.883 83.9541V83.538C117.883 83.382 117.883 83.2259 117.883 83.083C117.883 82.4329 117.883 81.7829 117.883 81.0549C118.095 73.1907 117.593 65.3728 116.375 57.6011Z" fill="#023F88"/>
<path d="M78.5942 92.9371C80.6519 93.0738 82.6833 93.3821 84.6889 93.8624C86.6944 94.3424 88.6453 94.9873 90.542 95.7973L90.906 95.9665L91.4128 96.2004L92.3491 96.6424H92.4791L93.4671 97.1622C94.1821 97.5524 94.8972 97.9685 95.5732 98.4624L95.7943 98.5924C97.9197 99.97 99.8785 101.554 101.671 103.343C103.463 105.133 105.049 107.09 106.429 109.214L106.598 109.448C107.681 107.337 108.634 105.168 109.455 102.942C110.277 100.716 110.961 98.448 111.509 96.1393C112.057 93.8303 112.464 91.4968 112.729 89.139C112.995 86.781 113.118 84.4153 113.098 82.0424C113.068 74.4605 112.34 66.9461 110.914 59.4993L109.029 59.2524C107.19 58.8731 105.387 58.3655 103.62 57.7294C101.854 57.0934 100.141 56.3354 98.4819 55.4555C96.8232 54.5754 95.235 53.5824 93.7176 52.4761C92.2005 51.3699 90.7692 50.1619 89.4238 48.8518L89.1119 48.5658L88.5788 48.0457L88.2279 47.6947L91.582 59.9023C92.0759 61.7355 91.1918 62.3725 89.6059 61.3325L75.2271 51.79V92.8593C76.3451 92.833 77.4631 92.8592 78.5942 92.9371Z" fill="#003375"/>
<path d="M113.111 82.0161C113.131 84.3891 113.008 86.7545 112.742 89.1124C112.477 91.4706 112.07 93.8041 111.522 96.113C110.974 98.4218 110.29 100.689 109.468 102.916C108.647 105.142 107.694 107.311 106.611 109.422L106.429 109.214C105.04 107.1 103.446 105.153 101.647 103.374C99.8484 101.595 97.8845 100.023 95.7552 98.6571L95.5342 98.5272C94.8582 98.0851 94.1432 97.6691 93.428 97.227L92.4402 96.7069H92.31L91.3741 96.2649L90.8669 96.0309L90.5421 95.7969C88.6471 94.9782 86.6968 94.3243 84.6915 93.8354C82.6858 93.3467 80.6535 93.0296 78.5943 92.8848C77.7586 92.8275 76.9219 92.7992 76.0841 92.7999C75.2465 92.8003 74.4098 92.8298 73.5741 92.8881C72.7385 92.9463 71.9059 93.0336 71.0761 93.1494C70.2465 93.2652 69.4217 93.4094 68.6021 93.5823C67.7824 93.755 66.9695 93.9557 66.1638 94.1847C65.3579 94.4135 64.5609 94.6699 63.7728 94.9537C62.9846 95.2377 62.2072 95.5483 61.4405 95.8858C60.6739 96.2233 59.9197 96.5871 59.1781 96.9768C58.4365 97.3662 57.7093 97.7811 56.9962 98.2207C56.2833 98.6607 55.5864 99.1247 54.9054 99.6124C54.2246 100.1 53.5613 100.611 52.9156 101.145C52.2699 101.679 51.6434 102.234 51.0361 102.811C50.4287 103.388 49.8421 103.985 49.276 104.603C48.7098 105.22 48.1657 105.856 47.6437 106.512C47.1214 107.167 46.6226 107.839 46.1467 108.529C45.671 109.218 45.2195 109.923 44.7925 110.644L44.6494 110.878L44.5324 110.67C43.3365 108.481 42.2848 106.226 41.3772 103.903C40.4697 101.58 39.7138 99.2093 39.1095 96.7898C38.5052 94.3702 38.0574 91.9223 37.7661 89.4456C37.4749 86.9689 37.3426 84.4837 37.3692 81.99C37.3991 74.408 38.1271 66.8935 39.5532 59.4467L41.4254 59.2518C43.2644 58.8725 45.0673 58.3649 46.8341 57.7288C48.6009 57.0928 50.3137 56.3348 51.9724 55.4549C53.6311 54.5749 55.2193 53.5819 56.7366 52.4756C58.254 51.3695 59.6853 50.1613 61.0305 48.8512L61.3424 48.5652L61.8755 48.0451L62.2264 47.6941L58.8723 59.9018C58.3783 61.7349 59.2623 62.372 60.8484 61.3319L75.2272 51.7894L89.6189 61.2669C91.205 62.3068 92.089 61.6699 91.5951 59.8368L88.228 47.6941L88.6179 48.0841L89.151 48.6041L89.463 48.8902C90.8082 50.2002 92.2395 51.4084 93.7569 52.5147C95.274 53.6207 96.8621 54.6139 98.5208 55.4938C100.18 56.3739 101.892 57.1319 103.659 57.768C105.426 58.404 107.229 58.9116 109.068 59.2908L110.914 59.5378C112.342 66.9714 113.075 74.4727 113.111 82.042V82.0161ZM104.661 112.698C104.232 113.348 103.699 114.141 103.023 115.038L101.723 116.767L100.878 117.781H100.761C100.059 117.651 99.4606 117.482 99.4606 117.482C95.4588 116.398 91.7147 114.734 88.228 112.49C86.2674 111.297 84.4318 109.936 82.7208 108.406C81.0099 106.877 79.4524 105.205 78.0482 103.389C77.6371 102.817 77.2601 102.224 76.9172 101.608C79.3979 101.299 81.8854 101.23 84.3796 101.4C92.518 101.972 99.4476 105.106 103.881 110.072C103.881 110.072 104.388 110.631 104.999 111.437L105.116 111.593C105.154 111.631 105.184 111.674 105.207 111.723L104.661 112.698ZM76.2282 96.9151C76.9042 95.836 78.6072 95.3419 81.0125 95.5109C82.0539 95.593 83.0809 95.7621 84.0937 96.018H84.2886L85.0557 96.2261H85.1337C88.4211 97.2033 91.5282 98.5858 94.4552 100.373C95.5785 101.092 96.6576 101.872 97.6924 102.713C95.6331 101.714 93.4965 100.924 91.2827 100.342C89.0691 99.7604 86.82 99.3981 84.5357 99.2551C81.7045 99.0705 78.8832 99.1702 76.0723 99.5543C75.9081 99.1117 75.8409 98.6551 75.8704 98.1843C75.8996 97.7133 76.0233 97.2686 76.2412 96.85L76.2282 96.9151ZM94.6502 124.217L92.8172 125.699C92.2192 126.206 91.595 126.713 90.9319 127.22C87.9264 129.587 84.7499 131.698 81.4024 133.551C80.8433 131.731 80.2324 129.885 79.5823 128.026C76.8967 120.06 73.3864 112.477 69.0518 105.274C68.6877 104.715 68.3368 104.169 67.9858 103.662C70.1747 102.897 72.4108 102.312 74.6941 101.907C75.1578 102.863 75.7038 103.768 76.3322 104.624C77.8123 106.552 79.4571 108.326 81.2668 109.947C83.0764 111.569 85.0195 113.01 87.097 114.271C90.7862 116.681 94.76 118.454 99.0186 119.588H99.2004C97.9005 121.083 96.3924 122.604 94.7283 124.152L94.6502 124.217ZM79.4523 134.617C78.1522 135.306 76.7483 135.917 75.3181 136.593H75.2142L74.3561 136.216C68.7092 133.667 63.4786 130.443 58.6641 126.544L57.7672 125.803C57.7672 125.673 57.8321 125.556 57.8452 125.504C59.5743 118.886 59.8212 112.503 58.5082 108.239C60.8434 106.733 63.3005 105.463 65.8796 104.43C66.3087 105.041 66.7636 105.73 67.1796 106.419C71.44 113.476 74.8808 120.912 77.5021 128.728C78.1913 130.691 78.8022 132.628 79.4264 134.565L79.4523 134.617ZM73.9271 99.8922C71.4463 100.357 69.0195 101.02 66.6467 101.881C65.4939 100.284 64.1115 98.9186 62.4994 97.7862L63.5785 97.3441C65.3934 96.631 67.2559 96.0782 69.1657 95.6852C71.0757 95.2922 73.0052 95.0653 74.9541 95.004C74.7466 95.2134 74.5646 95.4431 74.4081 95.693C74.2233 96.0067 74.073 96.336 73.9573 96.6813C73.8417 97.0264 73.7632 97.3797 73.7216 97.7415C73.6802 98.1031 73.6768 98.4653 73.7114 98.8278C73.7461 99.1901 73.8179 99.5448 73.9271 99.8922ZM54.426 103.493C54.162 103.419 53.8933 103.372 53.62 103.35C55.4933 101.73 57.5171 100.326 59.6914 99.1382C59.8039 99.1181 59.9167 99.1181 60.0293 99.1382C60.6663 99.1382 62.0834 99.7102 64.5276 102.726C62.1344 103.72 59.842 104.907 57.6502 106.288C57.4956 105.955 57.3077 105.641 57.0865 105.347C56.8654 105.053 56.6159 104.786 56.338 104.545C56.0601 104.304 55.76 104.095 55.4378 103.918C55.1155 103.741 54.7783 103.599 54.426 103.493ZM55.9211 124.282L55.765 124.152C53.2942 121.939 51.006 119.551 48.9007 116.988L48.9657 116.897L49.0438 116.806L49.1217 116.715C51.2912 114.006 53.783 111.635 56.5971 109.604C57.5852 113.244 57.3122 118.704 55.9471 124.282H55.9211V124.282ZM47.9256 114.791L47.5487 115.259L47.4056 115.064C46.8206 114.271 46.3266 113.569 45.9235 112.971L46.0275 112.776C46.0275 112.776 46.1835 112.49 46.2615 112.36V112.282C46.9599 111.072 47.7312 109.911 48.5757 108.798C50.3438 106.549 52.0988 105.366 53.516 105.47C53.6547 105.458 53.7932 105.458 53.9319 105.47C54.1577 105.559 54.3715 105.671 54.5732 105.806C54.7748 105.941 54.9598 106.096 55.128 106.271C55.2964 106.446 55.444 106.637 55.5712 106.844C55.6983 107.051 55.802 107.269 55.882 107.498C52.9072 109.577 50.255 112.008 47.9256 114.791ZM114.476 57.8998C113.982 57.8998 113.501 57.8738 113.033 57.8218H112.669L111.265 57.6788H111.096C109.191 57.3756 107.32 56.9261 105.485 56.3304C103.65 55.7346 101.872 54.9998 100.152 54.1258C98.4315 53.2519 96.7895 52.2496 95.2261 51.1188C93.6627 49.988 92.1965 48.7425 90.8279 47.3823L90.516 47.1092L89.9831 46.5763L89.7099 46.3033C89.5094 46.1179 89.3188 45.9228 89.1379 45.7182L88.9039 45.4842C88.683 45.2633 88.4748 45.0292 88.2669 44.8082L88.1109 44.6392L87.2918 43.7942C87.2918 43.7942 87.1618 43.6382 87.1358 43.5992L87.0318 43.2091L100.475 32.4576C101.97 31.2615 101.632 30.2214 99.7205 30.1303L82.5204 29.3373L76.4493 13.2425C76.1112 12.3454 75.6691 11.9424 75.2271 11.9424C74.7851 11.9424 74.3431 12.3843 74.0051 13.2425L67.9337 29.3503L50.7338 30.1433C48.8228 30.2344 48.4846 31.2744 49.9797 32.4705L63.4225 43.2221L63.3185 43.6121C63.2617 43.6733 63.2098 43.7383 63.1625 43.8072L62.4085 44.6392L62.2524 44.8082C62.0444 45.0292 61.8364 45.2632 61.6153 45.4842L61.3814 45.7182C61.2005 45.9229 61.0098 46.118 60.8094 46.3033L60.5363 46.5763L59.9902 47.1092L59.6913 47.3823C58.3165 48.7407 56.8446 49.9838 55.2752 51.1115C53.7058 52.2392 52.0582 53.2379 50.3323 54.1075C48.6064 54.977 46.8233 55.707 44.9831 56.2971C43.1428 56.8873 41.2678 57.3305 39.358 57.6269H39.189L37.7849 57.77H37.4339C36.9529 57.77 36.4719 57.8349 35.9779 57.848C34.5649 65.4403 33.8412 73.0977 33.8068 80.8204C33.8068 81.4964 33.8068 82.1203 33.8068 82.8355C33.8068 83.0434 33.8068 83.2646 33.8068 83.4723C33.8068 83.9144 33.8068 84.3694 33.8068 84.7725C33.8068 85.1756 33.8068 85.2664 33.8068 85.5007C33.8068 85.7346 33.8068 86.3067 33.8977 86.7095L33.9758 87.4377L34.0928 88.5946C34.0928 88.8288 34.1578 89.0629 34.1968 89.3098C34.2357 89.5568 34.2878 90.0639 34.3528 90.4409C34.4178 90.8178 34.4308 90.8958 34.4698 91.1298C34.5087 91.3638 34.5868 91.871 34.6518 92.235C34.7168 92.5989 34.7428 92.677 34.7818 92.898C34.8208 93.119 34.9248 93.6391 35.0028 94.003L35.1588 94.6273C35.2368 94.9912 35.3149 95.3551 35.4058 95.7191L35.5618 96.3172C35.6658 96.6813 35.7569 97.0452 35.8478 97.3962C35.9389 97.7474 35.9648 97.7863 36.0299 97.9684L36.3418 99.0343C36.4068 99.2164 36.4589 99.3982 36.5239 99.5803L36.8749 100.634C36.9399 100.802 36.9919 100.972 37.0569 101.127L37.4469 102.194C37.5119 102.35 37.5639 102.505 37.6289 102.649L38.058 103.714L38.2531 104.157C38.396 104.507 38.552 104.846 38.6951 105.197C38.7731 105.34 38.838 105.483 38.903 105.626C38.968 105.769 39.2151 106.302 39.3841 106.64L39.5791 107.043L40.0861 108.044C40.1632 108.165 40.2326 108.291 40.2941 108.421L40.8402 109.409L41.0352 109.76L41.6073 110.735L41.8153 111.073L42.4003 112.022L42.6084 112.334L43.2194 113.283C43.2962 113.378 43.3655 113.477 43.4273 113.582C43.6483 113.881 43.8564 114.193 44.0644 114.492L44.2725 114.778L44.9355 115.675L45.1434 115.948C45.3644 116.234 45.5855 116.533 45.8196 116.819L46.0275 117.079L46.7166 117.937L46.9245 118.171L47.6396 119.016L47.8346 119.237L48.5627 120.056L48.7706 120.265L49.5117 121.058L49.7067 121.266L50.4607 122.033L50.6558 122.228L51.4228 122.982L51.6048 123.151L52.3848 123.879L52.5669 124.048L53.347 124.763L53.5419 124.932L54.322 125.595L54.517 125.764L55.2841 126.414L55.4791 126.57L56.2591 127.194L56.4542 127.35L57.2211 127.935L57.4161 128.091L58.1833 128.65L58.3782 128.793C58.6253 128.988 58.8852 129.17 59.1323 129.339L59.3272 129.482L60.0683 130.002L60.2633 130.132L61.0043 130.626L61.1994 130.756L61.9144 131.224L62.1224 131.354L62.8244 131.796L63.0195 131.913L63.7085 132.329L63.9166 132.459L64.5666 132.849L64.7876 132.966L65.4118 133.33L65.6327 133.46L66.2307 133.785L66.4517 133.902L67.0237 134.214L67.2578 134.331L67.8037 134.617L68.0378 134.747L68.5449 134.994L68.7918 135.124L69.2468 135.345L69.5069 135.475L69.9359 135.683L70.1829 135.8L70.5729 135.982L70.846 136.1L71.184 136.255L71.4569 136.372L71.7559 136.502L72.0289 136.633L72.2891 136.737L72.575 136.854L72.7701 136.944L73.0691 137.061H73.2251L73.524 137.178H73.6151L73.927 137.296L75.0061 137.686L76.0852 137.296L76.6572 137.4H76.7483L77.0472 137.283H77.2033L77.5022 137.166L77.6972 137.075L77.9834 136.958L78.2432 136.854L78.5162 136.724L78.8152 136.594L79.0883 136.477L79.4264 136.321L79.6992 136.204L80.0894 136.021L80.3363 135.904L80.7654 135.697L81.0254 135.566L81.4804 135.345L81.7273 135.215L82.2344 134.969L82.4685 134.839L83.0145 134.552L83.2355 134.435L83.8205 134.123L84.0415 134.006L84.6395 133.681L84.8605 133.551L85.4846 133.187L85.7056 133.07L86.3557 132.68L86.5638 132.55L87.2528 132.134L87.4478 132.017L88.1498 131.575L88.3579 131.445L89.0728 130.977L89.2679 130.847L90.0089 130.353L90.2038 130.223L90.9449 129.703L91.14 129.56C91.3869 129.391 91.6469 129.209 91.8941 129.014L92.0888 128.871L92.8559 128.312L93.051 128.156L93.8181 127.571L94.0132 127.415L94.7932 126.791L94.9751 126.635L95.7551 125.985L95.9501 125.816L96.7302 125.153L96.9252 124.984L97.7053 124.269L97.8871 124.1L98.6671 123.372L98.8493 123.203L99.6163 122.449L99.8113 122.254L100.565 121.487L100.76 121.279L101.501 120.486L101.697 120.278L102.437 119.459L102.632 119.238L103.348 118.392L103.555 118.158L104.245 117.3L104.453 117.04C104.687 116.755 104.908 116.455 105.129 116.169L105.337 115.896C105.558 115.61 105.779 115.298 106 114.999L106.208 114.713C106.416 114.414 106.624 114.102 106.845 113.803L107.04 113.504L107.664 112.555L107.872 112.243L108.457 111.294L108.665 110.956L109.237 109.981L109.432 109.63L109.978 108.642L110.173 108.265C110.355 107.927 110.524 107.589 110.68 107.264L110.888 106.861C111.057 106.523 111.213 106.185 111.369 105.847L111.564 105.418C111.72 105.067 111.876 104.729 112.019 104.378L112.214 103.936L112.643 102.87C112.643 102.727 112.76 102.571 112.825 102.415L113.215 101.348C113.215 101.193 113.332 101.023 113.397 100.855L113.748 99.8014C113.748 99.6195 113.865 99.4374 113.93 99.2553L114.242 98.1894C114.242 98.0073 114.359 97.8123 114.424 97.6173C114.489 97.4223 114.606 96.9022 114.71 96.5383L114.866 95.9403C114.957 95.5761 115.035 95.2122 115.113 94.8482L115.269 94.224C115.347 93.86 115.412 93.4831 115.49 93.119C115.568 92.755 115.581 92.677 115.62 92.4559C115.659 92.2349 115.737 91.728 115.802 91.3508L115.919 90.5968C115.919 90.2198 116.023 89.8429 116.075 89.4658C116.127 89.0888 116.153 88.9848 116.179 88.7508L116.296 87.5936L116.374 86.8657C116.374 86.4625 116.374 86.0597 116.465 85.6565C116.556 85.2534 116.465 85.1756 116.465 84.9284C116.465 84.6814 116.465 84.0443 116.465 83.6285C116.465 83.4204 116.465 83.1994 116.465 82.9914C116.465 82.3153 116.465 81.6912 116.465 80.9763C116.509 73.2231 115.846 65.5312 114.476 57.8998Z" fill="white"/>
<path d="M87.0968 114.376C85.0193 113.115 83.0762 111.674 81.2666 110.052C79.4569 108.431 77.8121 106.656 76.332 104.729C75.7036 103.873 75.1576 102.967 74.6939 102.012C72.4106 102.417 70.1745 103.002 67.9856 103.767C68.3366 104.274 68.6875 104.82 69.0516 105.379C73.3862 112.581 76.8965 120.165 79.5821 128.131C80.2323 129.99 80.8823 131.836 81.4022 133.656C84.7497 131.803 87.9262 129.692 90.9317 127.325C91.5948 126.818 92.2319 126.31 92.817 125.804L94.728 124.152C96.4572 122.605 97.9651 121.084 99.2653 119.667H99.0832C94.7994 118.527 90.804 116.741 87.0967 114.311V114.376H87.0968ZM60.0551 99.1778C59.9425 99.1578 59.8299 99.1578 59.7171 99.1778C57.5429 100.365 55.5193 101.769 53.6457 103.39C53.9192 103.411 54.1878 103.459 54.4519 103.533C54.8004 103.639 55.1344 103.78 55.4534 103.956C55.7724 104.132 56.0697 104.339 56.3452 104.578C56.6208 104.816 56.8683 105.081 57.0882 105.371C57.3081 105.662 57.4954 105.972 57.65 106.302C59.8418 104.921 62.1342 103.733 64.5274 102.74C62.1092 99.698 60.6922 99.1519 60.0551 99.113V99.1778ZM105.168 111.672L105.051 111.399C104.44 110.593 103.933 110.034 103.933 110.034C99.4734 105.067 92.5441 101.934 84.4317 101.362C81.9375 101.192 79.4499 101.261 76.9692 101.57C77.3119 102.185 77.6892 102.779 78.1003 103.351C79.5044 105.166 81.0619 106.839 82.7727 108.368C84.4835 109.898 86.3194 111.259 88.2797 112.452C91.7216 114.682 95.418 116.346 99.3694 117.444C99.3694 117.444 100.02 117.613 100.67 117.743H100.787L101.631 116.729L102.932 115C103.608 114.103 104.141 113.31 104.57 112.66L105.168 111.672C105.156 111.649 105.143 111.627 105.129 111.607L105.168 111.672ZM67.2186 106.471C66.7765 105.756 66.3215 105.093 65.9185 104.482C63.3394 105.516 60.8822 106.786 58.5471 108.291C59.8471 112.517 59.613 118.939 57.884 125.556C57.884 125.556 57.884 125.725 57.806 125.855L58.703 126.596C63.5174 130.496 68.7479 133.72 74.3949 136.269L75.253 136.646H75.3569C76.787 136.022 78.165 135.346 79.4911 134.67C78.9062 132.746 78.2561 130.77 77.5671 128.833C74.9411 120.998 71.4915 113.544 67.2186 106.471ZM84.5485 99.308C86.8327 99.4507 89.0819 99.8133 91.2956 100.395C93.5093 100.977 95.6458 101.767 97.7053 102.766C96.6704 101.925 95.5913 101.145 94.468 100.426C91.5411 98.6384 88.4339 97.2561 85.1465 96.2786H85.0684L84.3275 95.9928H84.1324C83.1197 95.7366 82.0926 95.5677 81.0512 95.4856C78.6462 95.3167 76.943 95.8106 76.267 96.8898C76.0513 97.3092 75.9299 97.7545 75.9028 98.2253C75.8756 98.6961 75.945 99.1523 76.1111 99.5938C78.9121 99.1985 81.7246 99.086 84.5486 99.2558V99.308H84.5485ZM66.6595 101.908C69.0272 101.039 71.4498 100.367 73.927 99.8929C73.8177 99.5455 73.7459 99.1908 73.7112 98.8285C73.6767 98.4659 73.6801 98.1038 73.7215 97.7422C73.763 97.3806 73.8414 97.0271 73.9571 96.682C74.0728 96.3367 74.2231 96.0074 74.4079 95.6936C74.5644 95.4439 74.7464 95.2141 74.954 95.0046C73.0051 95.066 71.0756 95.2931 69.1655 95.6859C67.2557 96.0788 65.3932 96.6317 63.5784 97.3448L62.4992 97.7868C64.116 98.9181 65.5027 100.283 66.6595 101.882V101.908V101.908ZM55.8818 107.498C55.7042 107.059 55.4457 106.675 55.1063 106.344C54.7668 106.014 54.3754 105.766 53.9317 105.6C53.793 105.589 53.6545 105.589 53.5158 105.6C52.0986 105.496 50.3436 106.679 48.5755 108.928C47.7547 110.03 47.005 111.179 46.3264 112.374V112.452C46.2483 112.582 46.0923 112.855 46.0923 112.868L45.9884 113.063C46.3914 113.661 46.8854 114.363 47.4704 115.156L47.6134 115.351L47.9905 114.883C50.2938 112.072 52.9242 109.61 55.8818 107.498ZM49.2256 116.677L49.1475 116.768L49.0695 116.859L49.0046 116.95C51.1099 119.513 53.398 121.901 55.8689 124.113L56.0249 124.243C57.325 118.666 57.663 113.206 56.727 109.526C53.9008 111.568 51.4004 113.952 49.2256 116.677Z" fill="#D71920"/>
<path d="M75.2273 15.5701L69.312 31.2489L75.2273 39.3874V15.5701Z" fill="#E01B22"/>
<path d="M75.2275 15.5701L81.1429 31.2489L75.2275 39.3874V15.5701Z" fill="#C3161C"/>
<path d="M52.5669 32.0287L65.6585 42.4943L75.2271 39.3872L52.5669 32.0287Z" fill="#C3161C"/>
<path d="M52.5669 32.0288L69.3118 31.2488L75.2271 39.3873L52.5669 32.0288Z" fill="#EC1C24"/>
<path d="M97.8877 32.0287L84.7961 42.4943L75.2275 39.3872L97.8877 32.0287Z" fill="#A60E13"/>
<path d="M97.8877 32.0288L81.1429 31.2488L75.2275 39.3873L97.8877 32.0288Z" fill="#E01B22"/>
<path d="M61.2255 58.6675L75.2272 49.4499V39.3873L61.2255 58.6675Z" fill="#A60E13"/>
<path d="M61.2255 58.6675L65.6587 42.4945L75.2272 39.3873L61.2255 58.6675Z" fill="#E01B22"/>
<path d="M89.2294 58.6675L75.2275 49.4499V39.3873L89.2294 58.6675Z" fill="#E01B22"/>
<path d="M89.2294 58.6675L84.7961 42.4945L75.2275 39.3873L89.2294 58.6675Z" fill="#C3161C"/>
<path d="M90.9843 66.7926H85.511L81.0129 73.293V66.7926H76.4366V85.9817H81.0129V78.3113L85.9271 85.9817H91.4263L84.64 75.581L90.9843 66.7926ZM51.9822 66.4937C51.6769 66.4843 51.3726 66.4961 51.0689 66.5289C50.7653 66.5617 50.4654 66.6151 50.1692 66.6892C49.8729 66.7634 49.5831 66.8575 49.2998 66.9716C49.0165 67.0856 48.7424 67.2187 48.4775 67.3705C48.2126 67.5223 47.9593 67.6917 47.7177 67.8785C47.4761 68.0653 47.2485 68.2678 47.0348 68.486C46.8213 68.7042 46.6236 68.936 46.4418 69.1814C46.2601 69.427 46.0962 69.6838 45.95 69.9518C45.3926 70.9561 44.9696 72.0143 44.6813 73.1262C44.3928 74.2381 44.248 75.3684 44.2468 76.5171C44.162 77.6486 44.2208 78.7729 44.4235 79.8892C44.626 81.0059 44.9658 82.0789 45.4429 83.1085C45.5732 83.3762 45.7223 83.6328 45.8902 83.8786C46.0582 84.1243 46.2431 84.3565 46.445 84.5751C46.6469 84.7938 46.8638 84.9966 47.0954 85.1835C47.327 85.3705 47.571 85.5396 47.8275 85.6908C48.0839 85.8421 48.3498 85.9737 48.6255 86.0859C48.9012 86.1983 49.1836 86.2897 49.4727 86.3606C49.7618 86.4316 50.0545 86.4808 50.3507 86.5089C50.6471 86.537 50.9439 86.5431 51.2412 86.5278C51.7221 86.5424 52.1989 86.5053 52.6718 86.4169C53.1448 86.3285 53.6028 86.1907 54.0461 86.0034C54.4891 85.8159 54.9072 85.5835 55.3001 85.3057C55.6931 85.0281 56.0518 84.7117 56.3764 84.3565C56.7007 84.005 56.9904 83.6269 57.2451 83.2222C57.5 82.8174 57.7157 82.3926 57.8924 81.9482C58.069 81.5036 58.2038 81.0469 58.2963 80.5775C58.389 80.1083 58.4381 79.6345 58.4435 79.1564V78.3112H54.0364L53.9584 79.0132C53.6203 81.6134 52.3072 81.9905 51.1891 81.9905C50.6692 81.9905 49.8891 81.8215 49.3951 80.3004C49.0418 79.1292 48.9031 77.9331 48.979 76.7122C49.122 72.8119 50.097 70.8359 51.9042 70.8359C52.0851 70.8246 52.2641 70.8388 52.4411 70.8784C52.6181 70.9181 52.786 70.9817 52.9448 71.0691C53.1036 71.1567 53.2472 71.2646 53.3753 71.3929C53.5033 71.5212 53.611 71.6648 53.6983 71.8238C54.0081 72.3589 54.1771 72.9353 54.2052 73.5529V74.307H58.5866V73.501C58.6045 73.0482 58.5792 72.598 58.5106 72.1502C58.4421 71.7023 58.3314 71.2652 58.1788 70.8385C58.0263 70.412 57.8344 70.0039 57.6035 69.6141C57.3725 69.2245 57.1064 68.8603 56.8054 68.5217C56.4992 68.1902 56.1613 67.8949 55.7919 67.6358C55.4224 67.3768 55.0296 67.1599 54.6136 66.9849C54.1976 66.8099 53.7678 66.6811 53.3242 66.5982C52.8806 66.5154 52.4333 66.4805 51.9822 66.4937ZM69.0131 74.4501C67.1801 74.034 66.517 73.852 66.27 73.7739C66.1853 73.7585 66.1026 73.7354 66.022 73.705C65.9414 73.6744 65.8642 73.637 65.7904 73.5926C65.7165 73.5481 65.6473 73.4974 65.5827 73.4404C65.518 73.3835 65.4589 73.3212 65.4055 73.2535C65.3522 73.1859 65.3053 73.114 65.2648 73.0379C65.2245 72.9619 65.1912 72.8827 65.1651 72.8006C65.1389 72.7184 65.1204 72.6347 65.1094 72.5492C65.0985 72.4637 65.0954 72.378 65.0999 72.292C65.0999 71.3689 65.4118 70.7449 66.9459 70.7449C67.0891 70.7384 67.2314 70.7466 67.3728 70.7699C67.5142 70.7931 67.6515 70.8308 67.7852 70.8828C67.9187 70.9348 68.0453 71.0001 68.1652 71.0785C68.2851 71.157 68.3955 71.2472 68.4966 71.3487C68.5976 71.4504 68.687 71.5613 68.7648 71.6818C68.8425 71.8021 68.907 71.9292 68.9582 72.0629C69.0095 72.1968 69.0462 72.3346 69.0686 72.4761C69.091 72.6177 69.0985 72.7598 69.0911 72.903V73.761H73.4853C73.5109 73.3536 73.5109 72.9462 73.4853 72.5389C73.4896 71.9321 73.4089 71.3369 73.243 70.7532C73.0772 70.1694 72.8329 69.6206 72.5103 69.1068C72.3572 68.8877 72.1905 68.6795 72.0102 68.4822C71.8299 68.2848 71.6375 68.1002 71.4332 67.9281C71.2286 67.7559 71.0139 67.5977 70.7889 67.4537C70.5637 67.3097 70.3302 67.1807 70.0883 67.0672C69.8464 66.9536 69.5981 66.8563 69.3434 66.7752C69.0887 66.694 68.83 66.6297 68.567 66.5825C68.3039 66.5351 68.039 66.5051 67.7719 66.4925C67.505 66.4797 67.2384 66.4845 66.9719 66.5066C66.5593 66.4834 66.1484 66.5008 65.7391 66.5583C65.3298 66.6159 64.93 66.7127 64.5397 66.8488C64.1495 66.9848 63.7761 67.1575 63.4198 67.3668C63.0634 67.5762 62.7307 67.818 62.4218 68.0926C62.1288 68.3877 61.8698 68.7099 61.6445 69.0592C61.4193 69.4087 61.2327 69.7775 61.085 70.1662C60.9372 70.5546 60.8312 70.9543 60.7673 71.3651C60.7034 71.7758 60.6829 72.1888 60.7056 72.6038C60.6856 72.8703 60.6865 73.1369 60.7086 73.4033C60.7307 73.6696 60.7735 73.9326 60.8371 74.1923C60.9007 74.4519 60.9845 74.7048 61.0882 74.9514C61.1917 75.1976 61.3141 75.4344 61.4551 75.6613C61.5963 75.8882 61.7543 76.1029 61.9293 76.305C62.1043 76.5069 62.2941 76.694 62.4987 76.866C62.7034 77.0379 62.9203 77.1929 63.1493 77.3306C63.3784 77.4684 63.617 77.5871 63.8649 77.687C64.9444 78.0414 66.0407 78.3317 67.154 78.5581C67.7948 78.6634 68.3928 78.8844 68.9481 79.2212C69.1426 79.3779 69.287 79.5717 69.3818 79.8027C69.4766 80.0338 69.5097 80.2732 69.4811 80.5214C69.4968 80.7759 69.4505 81.0186 69.342 81.2496C69.2335 81.4805 69.0762 81.6711 68.8701 81.8215C68.6291 81.9844 68.3683 82.1046 68.0881 82.1824C67.8078 82.2603 67.5224 82.2916 67.232 82.2766C66.9258 82.2893 66.6293 82.2417 66.3427 82.1332C66.0561 82.0249 65.8021 81.8645 65.581 81.6524C65.3645 81.4336 65.2008 81.1807 65.0899 80.8934C64.9791 80.6063 64.9304 80.3089 64.9439 80.0013V79.1564H60.4456V80.0142C60.4643 80.858 60.6265 81.6732 60.9326 82.4596C61.2386 83.246 61.67 83.9562 62.2267 84.5905C62.5151 84.9084 62.8342 85.1913 63.1842 85.4396C63.5339 85.688 63.9065 85.8959 64.3016 86.063C64.6967 86.2303 65.1052 86.353 65.5271 86.4315C65.9488 86.5098 66.3742 86.5419 66.8031 86.5278C72.6924 86.5278 73.9275 82.9396 73.9275 79.9232C73.9453 79.5748 73.9273 79.228 73.8737 78.8832C73.82 78.5384 73.7316 78.2025 73.6086 77.8761C73.4856 77.5494 73.3305 77.2387 73.1433 76.9442C72.9561 76.6495 72.7408 76.3774 72.4975 76.1271C72.004 75.694 71.4616 75.3352 70.87 75.0505C70.2784 74.7657 69.6595 74.5656 69.0131 74.45V74.4501V74.4501ZM98.3559 77.8303L98.9538 74.918L99.9289 77.8303H98.3559ZM100.839 66.7926H96.2105L91.7124 85.9817H96.4057L97.3157 82.2245H101.216L102.516 85.9817H107.209L100.839 66.7926Z" fill="#D71920"/>
<path d="M57.6372 79.1697C57.6309 79.5954 57.5861 80.0171 57.5028 80.4344C57.4193 80.852 57.2988 81.2586 57.1412 81.6539C56.9834 82.0495 56.791 82.4274 56.5642 82.7878C56.3373 83.1479 56.0796 83.4848 55.7911 83.7979C55.504 84.1131 55.1862 84.3939 54.8381 84.6401C54.4901 84.8867 54.1197 85.0928 53.727 85.2589C53.3342 85.4249 52.9281 85.5471 52.509 85.6252C52.0897 85.7032 51.667 85.7355 51.2408 85.7221C50.982 85.7382 50.7234 85.7352 50.4649 85.7133C50.2066 85.6917 49.9511 85.651 49.6987 85.5921C49.4462 85.5329 49.1994 85.4557 48.9582 85.3605C48.717 85.2652 48.4841 85.1528 48.2594 85.0236C48.0346 84.8943 47.8205 84.7492 47.6169 84.5886C47.4135 84.428 47.2227 84.2532 47.0447 84.0647C46.8667 83.8761 46.7034 83.6755 46.5548 83.4633C46.406 83.2508 46.2736 83.0285 46.1575 82.7967C45.7081 81.8307 45.3898 80.8233 45.2025 79.7744C45.0152 78.7257 44.9652 77.6702 45.0525 76.6085C45.0439 75.5183 45.1729 74.4446 45.4393 73.3875C45.7058 72.3304 46.1012 71.3239 46.6255 70.3681C46.755 70.1306 46.9002 69.903 47.0611 69.6854C47.2219 69.4678 47.3971 69.2623 47.5862 69.0688C47.7754 68.8753 47.9771 68.6959 48.191 68.5301C48.405 68.3644 48.6293 68.2143 48.8639 68.0794C49.0985 67.9448 49.3413 67.8267 49.5923 67.7254C49.8432 67.6241 50.0999 67.5407 50.3624 67.4747C50.6247 67.4088 50.8906 67.3613 51.1594 67.332C51.4285 67.3027 51.6983 67.2919 51.9688 67.2999C52.3699 67.2872 52.7678 67.3177 53.1622 67.3916C53.5568 67.4656 53.9388 67.5811 54.3081 67.7383C54.6775 67.8955 55.0255 68.0905 55.3524 68.3236C55.6793 68.5566 55.9771 68.822 56.246 69.12C56.5141 69.4211 56.7508 69.7452 56.9562 70.0922C57.1613 70.4393 57.3314 70.8028 57.4663 71.1828C57.6011 71.5626 57.6982 71.952 57.7575 72.3509C57.817 72.7497 57.8375 73.1505 57.8191 73.5532H55.011C54.9875 72.8076 54.7926 72.1099 54.4259 71.4602C54.3038 71.241 54.1539 71.0427 53.9764 70.8654C53.7988 70.6881 53.6003 70.5387 53.381 70.4169C53.1614 70.2951 52.9295 70.2058 52.6852 70.1489C52.4409 70.092 52.1933 70.0697 51.9428 70.082C49.6113 70.082 48.3675 72.2964 48.2116 76.7255C48.131 78.0525 48.2828 79.3527 48.6666 80.6257C49.1736 82.1208 49.9666 82.8748 51.2666 82.8748C53.3339 82.8748 54.5298 81.6527 54.8419 79.1956L57.6372 79.1697Z" fill="white"/>
<path d="M73.1609 79.9231C73.1609 83.7802 71.0547 85.7129 66.8425 85.7217C66.4722 85.7356 66.1045 85.7106 65.7396 85.646C65.3747 85.5815 65.0206 85.4795 64.6777 85.3391C64.3346 85.199 64.0102 85.0242 63.7046 84.8147C63.3989 84.6053 63.1188 84.3658 62.8642 84.0965C62.366 83.5292 61.9806 82.8935 61.7079 82.1896C61.4352 81.4855 61.2921 80.756 61.2781 80.0012H64.1642C64.156 80.2067 64.169 80.4107 64.203 80.6134C64.2369 80.8161 64.2914 81.0131 64.3662 81.2047C64.4411 81.3959 64.5347 81.5778 64.6472 81.7497C64.7596 81.9217 64.8886 82.0805 65.0339 82.2258C65.1792 82.3711 65.3379 82.5001 65.51 82.6126C65.6821 82.7251 65.8638 82.8188 66.0552 82.8935C66.2466 82.9683 66.4437 83.0228 66.6464 83.0567C66.8491 83.0907 67.0531 83.1037 67.2585 83.0954C67.6342 83.1096 68.0024 83.0633 68.3628 82.9565C68.7233 82.8496 69.0573 82.6879 69.3647 82.4713C69.5172 82.3613 69.6541 82.2345 69.7755 82.0908C69.8969 81.947 69.9989 81.7906 70.0817 81.6217C70.1645 81.4528 70.2255 81.2764 70.2647 81.0924C70.304 80.9084 70.3203 80.7223 70.3137 80.5343C70.326 80.3511 70.3163 80.1692 70.2842 79.9882C70.2521 79.8075 70.1985 79.6333 70.1238 79.4655C70.049 79.2978 69.9551 79.1417 69.842 78.9968C69.7291 78.8523 69.6001 78.7232 69.4555 78.6102C68.8365 78.1897 68.1604 77.9036 67.4276 77.7522C65.6203 77.3231 64.5673 77.0502 64.2554 76.9332C64.0463 76.8464 63.8455 76.7433 63.6528 76.6244C63.4602 76.5056 63.2782 76.372 63.107 76.2242C62.9357 76.0764 62.7773 75.9156 62.6316 75.7423C62.4859 75.5691 62.3549 75.3854 62.2386 75.1911C62.1224 74.9969 62.0223 74.7946 61.9383 74.5844C61.8543 74.3743 61.7876 74.1587 61.7381 73.9378C61.6883 73.717 61.6567 73.4935 61.6429 73.2677C61.629 73.0418 61.633 72.8161 61.6552 72.5909C61.6366 72.2328 61.6548 71.8765 61.7099 71.5221C61.7648 71.1677 61.8556 70.8227 61.982 70.4872C62.1084 70.1516 62.2678 69.8324 62.4603 69.5298C62.6527 69.2272 62.874 68.9475 63.1243 68.6907C63.396 68.4517 63.6885 68.2415 64.0014 68.06C64.3144 67.8786 64.6421 67.7293 64.9845 67.6122C65.3268 67.4951 65.6774 67.4125 66.0358 67.3641C66.3945 67.3159 66.7543 67.3031 67.1154 67.3256C67.5838 67.283 68.0495 67.3019 68.5128 67.3821C68.9762 67.4623 69.4213 67.6012 69.8479 67.7985C70.2747 67.996 70.6687 68.2453 71.0298 68.5464C71.3909 68.8476 71.7069 69.1903 71.9778 69.5747C72.2604 70.0216 72.4737 70.4996 72.6175 71.0084C72.7612 71.5173 72.8297 72.0361 72.8228 72.5649C72.8339 72.7035 72.8339 72.8422 72.8228 72.9809H69.8976C69.9118 72.5834 69.8465 72.1994 69.7019 71.8289C69.5574 71.4583 69.3453 71.1316 69.0655 70.8488C68.786 70.5681 68.4619 70.3554 68.0932 70.2106C67.7245 70.0658 67.3422 70.0012 66.9464 70.0168C65.1783 70.0168 64.3462 70.7968 64.3462 72.3699C64.3416 72.4983 64.348 72.6261 64.3654 72.7535C64.3829 72.8808 64.4112 73.0057 64.4503 73.1281C64.4895 73.2505 64.5388 73.3686 64.5985 73.4825C64.6581 73.5963 64.727 73.7042 64.8055 73.8061C64.8837 73.9079 64.9702 74.0023 65.065 74.0892C65.1596 74.1761 65.2612 74.2542 65.3693 74.3235C65.4776 74.3929 65.591 74.4522 65.7096 74.5018C65.8281 74.5515 65.9501 74.5905 66.0754 74.619C66.4523 74.749 67.3754 74.97 68.8835 75.308C69.4654 75.4075 70.0235 75.583 70.5575 75.8348C71.0916 76.0864 71.5824 76.4049 72.0296 76.79C72.2246 76.9998 72.3964 77.2267 72.5455 77.471C72.6945 77.7154 72.8176 77.9721 72.9148 78.2414C73.012 78.5105 73.0812 78.7867 73.1226 79.0698C73.1642 79.3531 73.1769 79.6375 73.1609 79.9231Z" fill="white"/>
<path d="M80.2072 85.1756H77.2429V67.5986H80.2072V74.6059H81.0521L85.9404 67.5986H89.3597L83.6654 75.62L89.9316 85.1756H86.3694L81.3771 77.3752H80.2072V85.1756Z" fill="white"/>
<path d="M101.046 78.6751L98.7712 71.8628L97.328 78.6362L101.046 78.6751ZM106.116 85.1756H103.113L101.813 81.4184H96.6131L95.7031 85.1756H92.7389L96.8471 67.5986H100.253L106.116 85.1756Z" fill="white"/>
</svg>
