<svg width="150" height="150" viewBox="0 0 150 150" fill="none" xmlns="http://www.w3.org/2000/svg">
<path d="M123.245 91.8549V19.8057C108.468 13.4962 92.2026 10 75.1223 10C58.0421 10 41.7768 13.4962 27 19.8057V91.8549C27.0046 118.445 48.5506 140 75.1269 140C101.699 140 123.245 118.445 123.245 91.8549Z" fill="#4EAFE8"/>
<path d="M118.219 92.2555V23.2654C104.881 17.9529 90.3408 15.0303 75.127 15.0303C59.9132 15.0303 45.3731 17.9483 32.0349 23.2654V92.2555C32.0349 116.246 51.3276 135.694 75.127 135.694C98.9264 135.689 118.219 116.242 118.219 92.2555Z" fill="#46576D"/>
<path d="M76.4698 97.0991C76.4698 100.495 76.4744 103.891 76.4698 107.287C76.4698 108.694 77.4258 109.836 78.6094 109.836C81.1996 109.836 83.7899 109.836 86.3802 109.836C86.3847 109.003 86.3847 108.166 86.3893 107.333C83.799 107.31 81.2042 107.296 78.6139 107.292C78.6139 106.017 78.6185 104.747 78.6185 103.477C80.8582 103.491 83.098 103.518 85.3331 103.559C85.3377 102.721 85.3286 101.884 85.3331 101.046C83.0934 100.991 80.8582 100.95 78.623 100.932C78.623 99.6621 78.6276 98.3874 78.6276 97.1173C80.5122 97.1401 82.3969 97.1811 84.277 97.2402C85.4651 97.2767 86.4302 96.1932 86.4393 94.8139C83.84 94.691 81.2361 94.609 78.6321 94.568C77.4394 94.5589 76.4698 95.6925 76.4698 97.0991ZM64.8979 97.2812C64.9115 101.465 64.8842 105.648 64.8979 109.836H67.0693C67.0648 107.733 67.0739 105.63 67.0693 103.522C69.1269 103.491 71.1891 103.477 73.2468 103.468C73.2468 102.621 73.2468 101.77 73.2468 100.923C71.1846 100.932 69.1315 100.959 67.0693 101C67.0648 99.7349 67.0739 98.4739 67.0693 97.2129C68.7719 97.1629 70.4608 97.131 72.1633 97.1128C73.3515 97.0991 74.3166 95.9565 74.3166 94.5498C71.8902 94.5589 69.4684 94.6045 67.042 94.6864C65.8538 94.7274 64.8888 95.8973 64.8979 97.2812ZM46.6568 85.5181C45.5961 85.7502 44.5309 85.9961 43.4793 86.251C43.4793 85.1539 43.4793 84.0568 43.4793 82.9597C44.5309 82.6683 45.6007 82.3861 46.6568 82.1221C46.6568 83.2556 46.6523 84.3891 46.6568 85.5181ZM46.6568 96.2615C47.367 96.175 48.0726 96.0931 48.7827 96.0111C48.7645 91.213 48.8009 86.4149 48.7827 81.6122C48.7782 80.3376 47.7903 79.5409 46.6249 79.8596C45.5688 80.1464 44.5172 80.4468 43.4656 80.7655C42.3048 81.1206 41.3716 82.3906 41.3716 83.5651V96.9671C42.5415 96.8032 43.4793 95.6925 43.4793 94.477C43.4747 92.4649 43.4839 90.4528 43.4793 88.4452C44.5354 88.213 45.5961 87.99 46.6568 87.7806C46.6659 90.6075 46.6431 93.4345 46.6568 96.2615ZM59.467 91.9823C59.4442 87.0568 59.4897 82.1357 59.467 77.2101C58.2788 77.3831 57.3046 78.6396 57.3092 79.9825C57.3183 82.2495 57.3001 84.5166 57.3092 86.7791C56.2212 83.8292 55.1514 80.9385 54.0634 78.1251C52.8798 78.3619 51.9602 79.6274 51.9693 80.9248C51.9875 84.858 51.9511 88.7912 51.9693 92.7244C53.1484 92.5878 54.1135 91.4133 54.1089 90.0886C54.0953 87.8625 54.1226 85.6364 54.1089 83.4149C55.1924 86.2647 56.2667 89.1827 57.3547 92.1644C57.9829 92.1098 59.3805 91.9914 59.467 91.9823ZM54.2273 109.836H61.998C61.9935 109.008 61.9935 108.179 61.9889 107.351C59.3987 107.374 56.7811 107.406 54.1954 107.446C54.1909 106.249 54.2 105.052 54.1954 103.855C56.426 103.773 58.6658 103.705 60.9009 103.645C60.8964 102.821 60.8918 101.993 60.8873 101.169C58.6521 101.246 56.4215 101.346 54.1909 101.46C54.1863 100.263 54.1954 99.0657 54.1909 97.8685C56.0664 97.7319 57.9146 97.609 59.7947 97.5088C60.9829 97.4451 61.9389 96.2888 61.9298 94.914C59.3304 95.0597 56.7401 95.2463 54.1499 95.474C52.9663 95.5832 52.0149 96.7349 52.0194 98.0323C52.0331 101.178 52.0513 104.324 52.0649 107.469C52.0786 108.776 53.0437 109.832 54.2273 109.836ZM67.561 82.6638C66.6596 82.7139 65.7582 82.773 64.8569 82.8459C64.8523 81.5894 64.8614 80.333 64.8569 79.0811C65.7582 78.9992 66.6596 78.9354 67.561 78.8763C67.561 80.1327 67.5564 81.3982 67.561 82.6638ZM67.561 91.5089C68.2802 91.4816 69.004 91.4588 69.7233 91.4361C69.7142 87.207 69.7324 82.9779 69.7233 78.7488C69.7233 77.3467 68.7355 76.2541 67.5382 76.3406C66.6368 76.4044 65.7355 76.4772 64.8341 76.5637C63.6414 76.6775 62.7037 77.9066 62.7082 79.286C62.7264 83.4422 62.69 87.5985 62.7082 91.7547C63.8964 91.6819 64.866 90.5119 64.8614 89.1189C64.8569 87.8625 64.866 86.6061 64.8614 85.3542C65.7628 85.2905 66.6642 85.2358 67.5655 85.1903C67.5655 87.298 67.5519 89.4012 67.561 91.5089ZM77.8309 78.6578C77.8264 82.0492 77.8355 85.4452 77.8309 88.8413C76.9296 88.8276 76.0237 88.8185 75.1223 88.8185V78.6259C76.0282 78.6259 76.9296 78.635 77.8309 78.6578ZM79.9887 88.8868C79.9933 85.4999 79.9842 82.113 79.9887 78.7306C79.9933 77.3285 79.0327 76.1449 77.8355 76.1176C76.2103 76.0766 74.5806 76.0721 72.9509 76.1039C72.9554 81.1934 72.96 86.2874 72.9645 91.3769C74.5806 91.3587 76.2012 91.3632 77.8173 91.386C79.0145 91.3996 79.9887 90.2889 79.9887 88.8868ZM88.0964 79.3452C88.0827 82.6638 88.11 85.9824 88.0964 89.301C87.1996 89.2327 86.2937 89.1736 85.3923 89.1189C85.406 85.773 85.3832 82.4225 85.3923 79.0766C86.2982 79.154 87.1996 79.245 88.0964 79.3452ZM90.236 89.474C90.2496 86.1827 90.2223 82.8914 90.236 79.6001C90.2405 78.2389 89.3118 76.9962 88.1191 76.8505C87.2178 76.7412 86.321 76.6456 85.4196 76.5591C84.2269 76.4453 83.2391 77.506 83.2345 78.899C83.2254 82.2632 83.2436 85.6319 83.2345 89.0006C83.23 90.3981 84.1768 91.5635 85.3695 91.6273C86.2664 91.6728 87.1632 91.7274 88.06 91.7866C89.2481 91.864 90.2314 90.8352 90.236 89.474ZM98.7715 95.7289C96.3679 95.4876 93.9552 95.2828 91.5425 95.1143C90.3543 95.0278 89.3801 96.0794 89.3756 97.4496C89.371 98.6879 89.3801 99.9261 89.3756 101.164C89.371 102.535 90.3179 103.668 91.5015 103.7C93.377 103.755 95.2435 103.818 97.119 103.891C97.1145 105.079 97.1236 106.267 97.119 107.456C94.5288 107.415 91.9294 107.383 89.3392 107.355C89.3346 108.179 89.33 109.008 89.33 109.832H97.1008C98.2844 109.827 99.2586 108.78 99.2632 107.492C99.2677 106.322 99.2586 105.152 99.2632 103.978C99.2677 102.689 98.3254 101.583 97.1418 101.515C95.2663 101.41 93.3998 101.324 91.5243 101.246C91.5288 100.022 91.5197 98.7926 91.5243 97.568C93.2223 97.6682 94.9294 97.782 96.6228 97.9094C97.8019 97.9959 98.7624 97.0263 98.7715 95.7289ZM99.3269 90.5165C98.0796 90.339 96.8641 90.1796 95.6122 90.0294C95.6304 86.8291 95.5986 83.6289 95.6122 80.4241C95.6168 79.1039 94.6608 77.8429 93.4726 77.638C93.4499 81.685 93.4954 85.7366 93.4726 89.7881C93.4635 91.1356 94.3922 92.3101 95.5758 92.4285C96.8231 92.5605 98.0796 92.7016 99.3269 92.8564C99.3315 92.0779 99.3224 91.2949 99.3269 90.5165ZM108.882 94.8275V81.4256C107.726 81.0432 106.774 81.7442 106.774 82.9597C106.77 86.7973 106.779 90.6394 106.774 94.477C105.714 94.3086 104.667 94.1492 103.602 93.999C103.62 89.2874 103.583 84.5712 103.602 79.8596C102.896 79.6684 102.186 79.4863 101.48 79.3087C101.462 84.1069 101.498 88.9095 101.48 93.7077C101.476 94.9823 102.395 96.1204 103.57 96.2615C104.635 96.389 105.7 96.5255 106.761 96.6712C107.935 96.826 108.882 96.0066 108.882 94.8275Z" fill="#FEFEFE"/>
<path d="M64.5519 40.9374C64.5565 40.9101 64.5337 40.8828 64.5064 40.8828H47.1622C47.1166 40.8828 47.0984 40.942 47.1349 40.9693L64.4108 53.5245C64.429 53.5382 64.4336 53.5564 64.429 53.5792L57.8555 73.8597C57.8419 73.9052 57.8919 73.9416 57.9284 73.9143L72.9509 62.9933C72.9783 62.9751 72.9783 62.9387 72.9509 62.9205C72.1862 62.3196 62.7265 54.5352 64.5519 40.9374Z" fill="#4EAFE8"/>
<path d="M89.9721 65.5699C87.8643 63.9538 80.6034 58.3864 77.6399 56.0328C73.388 52.655 68.8676 47.6475 68.1301 38.0558C68.1256 38.0057 68.0527 37.9921 68.0391 38.0422C67.593 39.5444 65.4261 48.0299 70.7523 56.0875C72.3 58.4319 74.7173 61.186 77.7856 63.3529C84.7961 68.3104 92.0206 73.2405 93.0084 73.9097C93.0449 73.937 93.0949 73.9006 93.0813 73.8551L90.7778 66.708C90.6321 66.2573 90.3499 65.8613 89.9721 65.5699Z" fill="#FEFEFE"/>
<path d="M103.092 40.8873H85.224C85.1921 40.8873 85.1693 40.9192 85.183 40.9511L88.3651 52.3455C88.3742 52.3773 88.4106 52.391 88.4379 52.3728L103.119 40.9738C103.155 40.9465 103.133 40.8873 103.092 40.8873Z" fill="#4EAFE8"/>
<path d="M77.5397 51.9996C77.2939 51.0482 75.8872 45.3396 76.2014 39.5718C76.2059 39.5217 76.2787 39.5126 76.2924 39.5627C78.3227 46.942 80.1801 52.5049 80.7901 54.1892C80.9403 54.6035 81.2043 54.9631 81.5549 55.2272L87.2634 59.5473C87.2999 59.5746 87.3454 59.5382 87.3317 59.4972L81.6186 40.8419C78.1543 28.6372 78.8326 21.9089 78.9783 20.8254C78.9828 20.7799 78.9282 20.7572 78.8963 20.789C75.605 24.6494 74.4897 31.4232 74.3213 32.5613C74.3167 32.6068 74.2484 32.6113 74.2348 32.5704C73.7249 30.9452 73.5292 29.4475 73.3744 27.795C73.3698 27.7495 73.3106 27.7449 73.2924 27.7859C72.2682 29.971 70.7614 34.9194 70.8205 38.5612C70.948 46.942 76.6566 51.3441 77.4669 52.0497C77.5033 52.077 77.5488 52.0451 77.5397 51.9996Z" fill="#B8655D"/>
<path d="M83.6897 120.994C84.6412 120.994 84.8597 121.827 84.8597 122.601C84.8597 123.644 84.2997 124.986 83.28 124.986C82.6791 124.986 82.1101 124.508 82.1101 123.32C82.1101 122.082 82.6564 120.994 83.6897 120.994ZM85.8157 117.061C85.5971 117.02 85.5289 117.02 85.4879 117.02C85.1328 117.02 84.236 117.498 83.717 117.894C81.9052 119.292 80.9811 121.504 80.9811 123.143C80.9811 124.285 81.4045 125.961 83.2391 125.961C85.1738 125.961 86.0296 124.085 86.0296 122.565C86.0296 120.771 85.0099 120.125 84.0539 120.125C83.5759 120.125 83.2527 120.293 82.9523 120.434C84.1632 118.572 85.0099 117.953 86.6123 117.234L85.8157 117.061ZM75.8416 118.299C76.183 118.117 76.3059 118.103 77.0252 118.103H79.2467C78.4728 119.219 77.4895 120.771 77.1117 121.477C75.9827 123.562 75.8598 125.155 75.8598 125.442C75.8598 125.906 76.0373 125.965 76.3742 126.079L77.1936 126.361C77.1663 126.011 77.1526 125.824 77.1526 125.587C77.1526 123.389 78.186 121.527 80.9219 117.138H76.5745C76.3013 117.138 76.2057 117.166 76.1238 117.421L75.8416 118.299ZM71.963 117.99C72.6732 117.99 73.0237 118.695 73.0237 119.597C73.0237 120.612 72.573 122.009 71.4714 122.009C71.0207 122.009 70.3424 121.7 70.3424 120.457C70.3424 119.783 70.6565 117.99 71.963 117.99ZM68.5033 125.792C68.5442 126.143 68.6808 126.343 69.7142 126.343C73.4971 126.343 74.1117 120.657 74.1117 119.683C74.1117 118.595 73.7703 117.02 71.922 117.02C70.0283 117.02 69.2134 118.923 69.2134 120.348C69.2134 121.9 70.0419 122.902 71.2574 122.902C71.8856 122.902 72.2225 122.565 72.4547 122.351C72.0313 124.044 71.1618 125.369 69.6368 125.369C69.3773 125.369 68.9312 125.342 68.4122 125.1L68.5033 125.792ZM65.699 117.284C65.7264 117.411 65.781 117.566 65.781 117.776C65.781 117.971 64.8022 124.463 64.8022 124.463C64.652 125.423 64.5018 125.633 64.3516 125.833H65.4805C65.74 125.833 65.7673 125.733 65.8083 125.464L67.1012 117.015L65.699 117.284Z" fill="#FEFEFE"/>
</svg>
