<svg width="150" height="150" viewBox="0 0 150 150" fill="none" xmlns="http://www.w3.org/2000/svg">
<path d="M38.2812 59.257C38.2812 38.7351 54.8676 22.1486 75.3897 22.1486C95.9114 22.1486 112.498 38.7351 112.498 59.257C112.498 79.7793 95.7713 96.3659 75.3897 96.3659C55.0082 96.3659 38.2812 79.6386 38.2812 59.257Z" fill="white"/>
<path d="M75.3898 96.6466C54.7269 96.6466 38 79.9199 38 59.2571C38 38.5946 54.7269 21.8673 75.3898 21.8673C96.052 21.8673 112.779 38.5946 112.779 59.2571C112.779 79.9199 95.9114 96.6466 75.3898 96.6466ZM75.3898 22.4297C55.1486 22.4297 38.7029 38.8757 38.7029 59.1163C38.7029 79.3575 55.0082 95.9437 75.3898 95.9437C95.7713 95.9437 112.076 79.4981 112.076 59.2571C112.076 39.0159 95.6307 22.4297 75.3898 22.4297Z" fill="#272F2C"/>
<path d="M51.0723 59.257C51.0723 45.9035 61.8956 35.0803 75.2492 35.0803C88.6026 35.0803 99.4257 45.9035 99.4257 59.257C99.4257 72.6104 88.7431 83.4338 75.3897 83.4338C62.0361 83.4338 51.0723 72.6104 51.0723 59.257Z" fill="#D93740"/>
<path d="M75.3897 83.8553C61.8956 83.8553 50.7911 72.8917 50.7911 59.257C50.7911 45.7628 61.755 34.6588 75.3897 34.6588C88.8836 34.6588 99.9881 45.6223 99.9881 59.257C99.8475 72.8917 88.8836 83.8553 75.3897 83.8553ZM75.3897 35.5019C62.1767 35.5019 51.4939 46.1847 51.4939 59.3975C51.4939 72.6104 62.1767 83.2931 75.3897 83.2931C88.6025 83.2931 99.2851 72.6104 99.2851 59.3975C99.2851 46.1847 88.4618 35.5019 75.3897 35.5019Z" fill="#272F2C"/>
<g clip-path="url(#clip0_429_1762)">
<mask id="mask0_429_1762" style="mask-type:alpha" maskUnits="userSpaceOnUse" x="54" y="34" width="43" height="50">
<path d="M78.4028 83.4267C95.973 68.9489 96.676 49.2701 96.676 49.2701C86.1339 49.2701 75.4513 34.9331 75.4513 34.9331C75.4513 34.9331 64.7686 49.4109 54.2263 49.4109C54.2263 49.4109 54.7885 68.9489 72.4993 83.4267H78.4028Z" fill="white"/>
</mask>
<g mask="url(#mask0_429_1762)">
<path d="M43.8246 34.9331H110.592V85.535H43.8246V34.9331Z" fill="#036599"/>
<path d="M42.5597 49.4109H114.527V62.2019H42.5597V49.4109Z" fill="#FCE32B"/>
<path d="M78.3418 83.7078H72.2979C63.1613 76.1178 58.6634 67.2624 56.555 61.2176C54.1653 54.6113 54.0248 49.692 54.0248 49.5514V49.4109H54.1653C64.4263 49.4109 75.2498 35.2138 75.2498 35.0733L75.3904 34.9331L75.5307 35.0733C75.6712 35.2138 86.3542 49.2701 96.7555 49.2701H96.8961V49.4109C96.8961 49.4109 96.7555 54.4708 94.366 61.0771C91.9769 67.2624 87.4786 76.1178 78.3418 83.7078ZM72.2979 83.4267H78.2013C94.7877 69.7924 96.3343 51.0974 96.4744 49.4109C86.6351 49.4109 76.3742 36.7602 75.3904 35.3544C74.2658 36.7602 64.1454 49.5514 54.3059 49.692C54.3059 51.3785 55.7115 69.6519 72.2979 83.4267Z" fill="#272F2C"/>
</g>
</g>
<path fill-rule="evenodd" clip-rule="evenodd" d="M75.2492 83.4338V77.6709C75.2492 77.6709 74.1247 75.5625 73.0001 75.9838C71.8757 76.5462 70.1889 77.2491 69.3455 76.5462C68.502 75.9838 68.3616 75.5625 67.5181 75.5625C66.6749 75.5625 65.5503 75.2812 65.2692 74.2976C64.9881 73.3134 66.1127 72.8917 64.4259 72.1886C62.7389 71.4863 62.0362 70.6426 62.1767 69.9396C62.3173 69.2371 62.7389 68.2531 62.1767 67.8312C61.6146 67.2694 61.474 65.8634 62.3173 66.0039C63.1608 66.1447 63.723 67.2694 64.2852 67.41C64.8473 67.5505 65.8314 67.41 66.3936 67.5505C66.956 67.6907 67.237 68.1125 67.3778 68.6747C67.5181 69.2371 67.5181 69.2371 68.3616 69.2371C69.0644 69.2371 69.9078 69.3778 70.1889 70.2209C70.3295 71.0644 70.8917 71.4863 71.4539 71.4863C72.0163 71.4863 72.1568 71.7673 72.5784 72.751C73.0001 73.7352 73.9839 75.8436 75.5301 75.8436V71.205C75.5301 71.205 74.6868 69.0966 68.9238 66.2852C68.9238 66.2852 67.7994 65.8634 67.237 66.0039C66.6749 66.1447 64.8473 65.5823 64.707 64.7392C64.4259 63.755 65.5503 63.6144 64.4259 63.0526C63.3013 62.4902 63.5824 61.0842 64.5664 60.9442C65.5503 60.8031 66.3936 61.2247 66.6749 61.9278C66.8154 62.6308 66.8154 62.9119 67.6587 63.1926C68.502 63.4739 68.502 63.755 69.0644 64.5986C69.6266 65.4421 74.2652 68.2531 74.6868 68.956C74.9679 69.5184 75.3898 69.5184 75.5301 68.8155C75.6707 68.1125 75.2492 66.8476 74.5463 66.1447C73.8436 65.5823 72.8595 64.0363 73.4217 63.3337C73.9839 62.6308 74.2652 62.4902 73.703 61.7871C73.1406 61.0842 72.4379 59.3976 73.4217 58.414C73.4217 58.414 73.9839 57.9921 73.703 57.4297C73.5623 56.8674 73.2814 55.4619 74.6868 54.4778C74.6868 54.4778 74.9679 53.9159 75.3898 52.9318C75.8112 51.9476 76.7955 51.6669 77.3574 52.7911C77.9198 53.9159 77.6387 54.6184 77.6387 54.6184C77.6387 54.6184 79.8875 56.0243 78.3413 57.8516C78.3413 57.8516 80.4499 60.1005 77.7793 62.9119C77.7793 62.9119 79.3253 65.0203 77.2169 66.9881C77.2169 66.9881 76.5142 67.6907 76.6547 69.0966C76.6547 69.0966 77.6385 69.3778 78.3413 68.6747C79.0442 67.9718 82.8396 65.7228 82.8396 65.7228C82.8396 65.7228 83.261 63.1926 84.5264 63.3337C85.7911 63.4739 85.7911 62.7713 86.0724 62.4902C86.2129 62.2089 86.7751 60.6629 87.6184 61.2247C88.4619 61.7871 88.4619 61.9278 87.7591 63.1926C87.7591 63.1926 87.3375 64.0363 87.3375 64.5986C87.3375 65.161 86.7751 66.2852 85.0883 66.4258C83.4016 66.5663 81.7148 67.5505 81.7148 67.5505C81.7148 67.5505 76.936 70.0802 76.6547 71.6268V75.8436C76.6547 75.8436 77.498 76.1249 78.2007 75.2812C78.9037 74.4377 79.1848 72.6104 80.028 72.3293C80.8715 72.048 80.5904 72.6104 81.2934 71.7673C82.1367 70.9239 81.7148 69.9396 82.9799 69.9396C84.2451 69.9396 83.964 69.3778 84.8072 68.8155C85.6507 68.2531 85.3696 68.1125 86.6346 68.2531C87.8997 68.3936 87.7591 68.1125 88.4619 67.6907C89.1648 67.2694 90.8516 66.0039 89.7272 68.2531C88.0402 70.502 88.7432 70.502 88.4619 71.0644C88.3213 71.6268 87.8997 71.9079 86.6346 72.3293C85.3696 72.751 86.0724 73.5947 85.9316 74.1565C85.7911 74.7188 85.3696 75.2812 84.2451 75.4218C83.261 75.5625 83.1205 75.2812 82.5583 75.9838C81.9961 76.6867 82.5583 77.1085 81.1528 76.6867C79.7471 76.2655 77.2169 74.7188 76.2331 77.6709V83.7149L75.2492 84.2772V83.4338Z" fill="#00AC5D"/>
<path d="M75.2492 84.1367V77.5302C75.1084 77.3896 73.9839 75.4217 73 75.9837C71.7349 76.5461 70.0483 77.1085 69.2049 76.5461C68.9238 76.406 68.7832 76.2654 68.6425 76.1249C68.2208 75.703 67.9397 75.5625 67.3776 75.5625C66.3935 75.5625 65.4097 75.1407 65.1286 74.1564C64.988 73.7352 65.1286 73.4541 65.1286 73.1728C65.2691 72.751 65.2691 72.4699 64.2851 72.048C62.5985 71.3455 61.7551 70.502 62.0362 69.6589C62.0362 69.5184 62.0362 69.5184 62.0362 69.3778C62.1767 68.6747 62.458 67.9717 61.8956 67.5505C61.474 67.2694 61.3334 66.4257 61.474 66.0039C61.6145 65.7228 61.7551 65.5822 62.0362 65.7228C62.5985 65.7228 62.8796 66.1446 63.3013 66.5663C63.5824 66.8476 63.7229 66.9881 64.004 67.1287C64.5664 67.2694 65.5502 67.1287 66.1126 67.2694C66.8154 67.5505 66.9559 67.8312 67.237 68.3936C67.3776 68.956 67.3776 68.956 68.0803 68.956C68.7832 68.956 69.6265 69.0965 69.9076 69.9396C70.0483 70.6425 70.6105 71.2049 71.0322 71.2049C71.5944 71.2049 71.8757 71.4862 72.1568 72.4699C72.5784 73.3133 73.4217 75.4217 74.9679 75.5625V71.0644C74.8274 70.9238 73.8435 68.8154 68.5019 66.1446C68.5019 66.1446 67.3776 65.7228 66.8154 65.8633C66.1126 66.0039 64.4257 65.4421 64.1448 64.4579C64.004 64.0362 64.1448 63.7549 64.2851 63.6144C64.4257 63.4738 64.4257 63.3337 64.4257 63.3337C64.4257 63.1925 64.2851 63.0526 64.004 62.9118C63.3013 62.4902 63.1607 61.9278 63.3013 61.506C63.4418 61.0841 63.7229 60.803 64.1448 60.6629C65.1286 60.5223 66.1124 61.0841 66.2532 61.7871C66.2532 61.9278 66.2532 62.0684 66.3935 62.0684C66.5341 62.4902 66.5341 62.7713 67.237 62.9118C67.9397 63.0526 68.0803 63.3337 68.5019 63.8955C68.5019 64.0362 68.6425 64.1768 68.7832 64.3173C69.0643 64.7392 70.3292 65.7228 71.7349 66.5663C73 67.41 74.2652 68.253 74.4057 68.6747C74.5463 68.956 74.6868 69.0965 74.8274 69.0965C74.9679 69.0965 75.1084 68.8154 75.1084 68.5341C75.2492 67.8312 74.8274 66.5663 74.1244 65.8633C73.4217 65.301 72.4377 63.7549 73 63.0526C73.1406 62.9118 73.1406 62.9118 73.2813 62.7713C73.703 62.3495 73.703 62.2089 73.4217 61.6465C73 61.0841 72.0162 59.257 73.1406 58.1326C73.1406 58.1326 73.5622 57.711 73.4217 57.1486C73.2813 56.8673 72.8595 55.1808 74.4057 54.1971C74.4057 54.0564 74.8274 53.494 75.1084 52.6505C75.3897 52.0887 75.8112 51.6669 76.233 51.6669C76.6547 51.6669 76.936 51.9476 77.0763 52.3694C77.498 53.3534 77.3574 54.0564 77.3574 54.1971C77.498 54.3371 78.4818 54.8995 78.6227 55.8837C78.7631 56.4461 78.4822 56.8673 78.0603 57.4297C78.3412 57.711 80.028 59.8194 77.498 62.6308C77.6385 62.9118 78.9036 64.8797 76.795 66.707C76.795 66.707 76.0925 67.41 76.3736 68.8154C76.5141 68.8154 77.3574 69.0965 77.9198 68.3936C78.6227 67.6907 82.1366 65.5822 82.4177 65.4421C82.4177 65.161 82.8395 63.0526 84.1045 63.0526C84.1045 63.0526 84.1045 63.0526 84.245 63.0526C85.229 63.1925 85.5101 62.6308 85.6507 62.3495C85.6507 62.3495 85.6507 62.2089 85.791 62.2089C85.791 62.2089 85.791 62.0684 85.9316 62.0684C86.0721 61.6465 86.494 60.9442 86.9158 60.9442C87.0564 60.9442 87.3375 60.9442 87.478 61.0841C88.3213 61.6465 88.3213 61.9278 87.7591 63.0526C87.7591 63.0526 87.3375 63.8955 87.3375 64.4579C87.3375 65.161 86.7751 66.1446 85.0883 66.2852C83.5423 66.5663 81.7148 67.5505 81.7148 67.5505C81.7148 67.5505 77.0763 70.0802 76.6547 71.6268V75.703C76.795 75.703 77.498 75.8436 78.0603 75.1407C78.3412 74.8594 78.6227 74.2976 78.7631 73.7352C79.0442 73.0322 79.3253 72.3293 79.8875 72.1886C80.3093 72.048 80.4498 72.048 80.4498 72.1886C80.5904 72.1886 80.7309 72.1886 81.1528 71.7673C81.4339 71.4862 81.5744 71.0644 81.7148 70.7833C81.8555 70.3614 81.9961 69.9396 82.8395 69.9396C83.5423 69.9396 83.8234 69.6589 83.9639 69.3778C84.1045 69.2371 84.245 68.956 84.5263 68.8154C84.8072 68.6747 84.9478 68.5341 85.0883 68.3936C85.3696 68.1125 85.5101 68.1125 86.3536 68.1125C87.1969 68.253 87.3375 68.1125 87.7591 67.8312C87.8996 67.6907 88.0402 67.6907 88.1807 67.5505C88.3213 67.5505 88.4618 67.41 88.6026 67.2694C89.1648 66.9881 89.5866 66.5663 89.8673 66.8476C90.0079 66.9881 90.0079 67.41 89.5866 68.253C88.7431 69.9396 88.8837 70.3614 88.8837 70.7833C88.8837 70.9238 88.8837 71.0644 88.8837 71.2049C88.6026 71.7673 88.3213 72.048 86.9158 72.4699C86.0723 72.751 86.0723 73.1728 86.2129 73.7352C86.2129 74.0163 86.3536 74.1564 86.2129 74.2976C85.9316 75.0001 85.3696 75.4217 84.5263 75.5625C84.245 75.5625 84.1045 75.5625 83.9639 75.5625C83.5423 75.5625 83.4015 75.5625 82.9799 76.1249C82.8395 76.406 82.8395 76.5461 82.6988 76.6867C82.5582 77.1085 82.4177 77.1085 81.4339 76.8272C81.1528 76.8272 81.0118 76.6867 80.7309 76.5461C79.7471 76.2654 78.6227 75.8436 77.7792 76.2654C77.2169 76.5461 76.936 76.9678 76.6547 77.8114V83.8554L75.2492 84.1367ZM73.2813 75.703C74.2652 75.703 75.2492 77.3896 75.2492 77.3896V83.8554L76.0925 83.4337V77.5302C76.3736 76.6867 76.795 76.1249 77.2169 75.8436C78.2007 75.4217 79.3253 75.8436 80.3093 76.1249C80.5904 76.2654 80.8715 76.2654 81.0118 76.406C81.9961 76.6867 81.9961 76.6867 82.1366 76.2654C82.1366 76.1249 82.2772 75.9837 82.4177 75.703C82.8395 75.1407 82.9799 75.1407 83.5423 75.1407C83.6828 75.1407 83.9639 75.1407 84.1045 75.1407C85.0883 75.0001 85.5101 74.4377 85.6507 74.0163C85.6507 73.8757 85.6507 73.7352 85.6507 73.4541C85.5101 73.0322 85.5101 72.4699 86.494 72.048C87.7591 71.6268 88.1807 71.3455 88.3213 70.7833C88.3213 70.6425 88.3213 70.502 88.3213 70.3614C88.3213 69.9396 88.1807 69.5184 89.0242 67.8312C89.4461 66.8476 89.4461 66.5663 89.3049 66.5663C89.1648 66.4257 88.6026 66.8476 88.1807 66.9881C88.0402 67.1287 87.8996 67.1287 87.7591 67.2694C87.6184 67.41 87.478 67.41 87.3375 67.5505C87.0564 67.8312 86.7751 67.8312 85.9316 67.8312C85.0883 67.8312 84.9478 67.8312 84.6667 68.1125C84.5263 68.253 84.3856 68.3936 84.1045 68.5341C83.8234 68.6747 83.6828 68.956 83.5423 69.0965C83.261 69.3778 83.1204 69.6589 82.2772 69.6589C81.5744 69.6589 81.4339 69.9396 81.2933 70.502C81.1528 70.7833 81.0118 71.2049 80.7309 71.4862C80.1685 72.048 80.1685 72.048 79.8875 71.9079C79.7471 71.9079 79.6066 71.9079 79.3253 71.9079C78.9036 72.048 78.6227 72.751 78.3412 73.4541C78.0603 74.0163 77.9198 74.5783 77.6385 74.8594C76.936 75.703 76.0925 75.4217 76.0925 75.4217V71.2049C76.3736 69.6589 81.0118 67.1287 81.1528 66.9881C81.1528 66.9881 82.9799 66.0039 84.5263 65.8633C86.0721 65.7228 86.7751 64.7392 86.7751 64.1768C86.7751 63.4738 87.1969 62.7713 87.1969 62.7713C87.8996 61.506 87.7589 61.3654 87.0564 60.9442C86.9158 60.9442 86.7751 60.9442 86.6345 60.9442C86.2129 61.0841 85.9316 61.6465 85.6507 62.0684C85.6507 62.2089 85.5101 62.2089 85.5101 62.3495C85.5101 62.3495 85.5101 62.4902 85.3696 62.4902C85.229 62.7713 84.9478 63.3331 83.8234 63.1925C82.699 63.1925 82.2772 65.4421 82.2772 65.4421C82.2772 65.4421 78.4822 67.6907 77.7792 68.3936C77.0763 69.0965 76.0925 68.6747 76.0925 68.6747C75.9517 67.2694 76.5141 66.5663 76.6547 66.4257C78.7631 64.5986 77.3574 62.4902 77.2169 62.4902C79.7471 59.6787 77.7792 57.5703 77.7792 57.4297C78.2007 56.8673 78.3412 56.4461 78.3412 55.8837C78.2007 54.8995 77.2169 54.3371 77.2169 54.3371C77.2169 54.3371 77.3574 53.6347 76.936 52.51C76.7954 52.0887 76.5141 51.8074 76.0925 51.8074C75.6706 51.8074 75.2492 52.0887 75.1084 52.6505C74.6868 53.6347 74.4057 54.1971 74.4057 54.1971C73 55.1808 73.4217 56.7268 73.5622 57.1486C73.703 57.711 73.2813 58.2734 73.2813 58.2734C72.1568 59.3976 73.2813 61.0841 73.5622 61.6465C73.9839 62.3495 73.8435 62.4902 73.4217 62.9118C73.4217 63.0526 73.2813 63.0526 73.1406 63.1925C72.7189 63.8955 73.5622 65.301 74.2652 65.8633C74.9679 66.4257 75.3897 67.8312 75.2492 68.5341C75.2492 68.956 75.1086 69.0965 74.8274 69.2371C74.6868 69.2371 74.4057 69.0965 74.2652 68.8154C74.1246 68.5341 72.8595 67.6907 71.5944 66.8476C70.3294 65.8633 68.9238 65.0203 68.6427 64.5986C68.5019 64.4579 68.5019 64.3173 68.3616 64.1768C68.0803 63.6144 67.7994 63.3337 67.237 63.1925C66.5341 63.0526 66.3935 62.7713 66.3935 62.2089C66.3935 62.0684 66.3935 61.9278 66.2532 61.9278C66.1126 61.2247 65.2691 60.8034 64.2851 60.9442C63.8635 60.9442 63.5824 61.2247 63.5824 61.6465C63.4418 62.0684 63.5824 62.4902 64.2851 62.9118C64.5664 63.0526 64.707 63.1925 64.8473 63.3337C64.8473 63.4738 64.8473 63.6144 64.707 63.7549C64.5664 63.8955 64.4259 64.1768 64.5664 64.5986C64.8475 65.4421 66.5343 66.0039 67.0965 65.8633C67.7994 65.7228 68.7832 66.1446 68.9238 66.1446C74.5463 68.956 75.3897 71.0644 75.5301 71.0644V75.703C73.8435 75.703 72.8595 73.4541 72.5784 72.6104C72.1568 71.6268 72.0162 71.3455 71.4538 71.3455C70.8916 71.3455 70.3294 70.7833 70.1889 69.9396C70.0483 69.0965 69.0643 69.0965 68.5019 69.0965C67.7994 69.0965 67.6586 69.0965 67.5181 68.3936C67.3777 67.8312 67.0965 67.5505 66.5343 67.2694C66.2532 67.1287 65.8313 67.1287 65.4097 67.1287C64.988 67.1287 64.5664 67.1287 64.2851 66.9881C64.004 66.8476 63.8635 66.707 63.5824 66.4257C63.1607 66.0039 62.8796 65.5822 62.3173 65.5822C62.0362 65.5822 61.8956 65.7228 61.8956 65.8633C61.7551 66.2852 61.8956 66.9881 62.3173 67.2694C62.8796 67.6907 62.5985 68.5341 62.458 69.2371C62.458 69.3778 62.458 69.3778 62.458 69.5184C62.3173 70.2209 63.1607 71.0644 64.707 71.7673C65.691 72.1886 65.691 72.4699 65.5502 73.0322C65.5502 73.3133 65.4097 73.5946 65.5502 73.8757C65.8313 74.8594 66.8154 75.1407 67.7994 75.1407C68.3616 75.1407 68.6427 75.4217 69.2049 75.703C69.3454 75.8436 69.486 75.9837 69.7671 76.1249C70.6105 76.6867 72.5784 75.8436 73.4217 75.5625C73 75.9837 73.1406 75.703 73.2813 75.703Z" fill="#272F2C"/>
<path d="M70.3292 73.5946C70.0483 73.1728 67.9397 71.4862 66.9559 71.2049C65.9718 70.9238 64.8473 69.3778 64.7069 69.3778H64.8473C64.8473 69.3778 66.1124 70.9238 66.9559 71.0644C67.9397 71.2049 70.1888 72.8917 70.3292 73.5946Z" fill="#272F2C"/>
<path d="M75.53 64.0362C76.0924 63.333 76.0924 61.5059 75.3897 58.4139C74.8273 55.7431 75.9517 54.8994 75.9517 54.8994V55.0402C75.9517 55.0402 74.9678 55.8836 75.3897 58.4139C76.233 61.6465 76.233 63.4738 75.53 64.0362Z" fill="#272F2C"/>
<path d="M75.6706 61.6465C75.5301 61.6465 75.5301 61.6465 75.6706 61.6465C74.9679 61.6465 74.6868 60.9441 74.6868 60.9441H74.8273C74.8273 60.6628 74.9679 61.3654 75.6706 61.6465C75.9517 61.6465 76.3735 61.3654 76.9359 60.6628L77.0763 60.803C76.5141 61.2246 76.0924 61.6465 75.6706 61.6465Z" fill="#272F2C"/>
<path d="M75.3897 57.0078L74.6868 56.0242H74.8273L75.3897 57.0078Z" fill="#272F2C"/>
<path d="M80.8715 73.8758C80.7309 73.8758 81.5744 72.3293 83.1204 71.7673C84.6667 71.3455 86.3536 69.6589 86.3536 69.6589L86.494 69.7995C86.494 69.7995 84.8072 71.4862 83.1204 72.048C81.5744 72.4699 80.8715 73.8758 80.8715 73.8758Z" fill="#272F2C"/>
<path d="M78.3412 83.7149H72.2973C63.1607 76.1249 58.6628 67.2694 56.5544 61.2247C54.1647 54.6184 54.0242 49.699 54.0242 49.5585V49.4179H54.1647C64.4257 49.4179 75.2492 35.2209 75.2492 35.0803L75.3897 34.9402L75.5301 35.0803C75.6706 35.2209 86.3536 49.2772 96.7549 49.2772H96.8955V49.4179C96.8955 49.4179 96.7549 54.4779 94.3654 61.0842C91.9763 67.2694 87.478 76.1249 78.3412 83.7149ZM72.2973 83.4338H78.2007C94.7871 69.7995 96.3337 51.1045 96.4738 49.4179C86.6345 49.4179 76.3736 36.7673 75.3897 35.3614C74.2652 36.7673 64.1448 49.5585 54.3053 49.699C54.3053 51.3856 55.7109 69.6589 72.2973 83.4338Z" fill="#272F2C"/>
<path d="M75.3897 83.8553C61.8956 83.8553 50.7911 72.8917 50.7911 59.257C50.7911 45.7628 61.755 34.6588 75.3897 34.6588C88.8836 34.6588 99.9881 45.6223 99.9881 59.257C99.8475 72.8917 88.8836 83.8553 75.3897 83.8553ZM75.3897 35.5019C62.1767 35.5019 51.4939 46.1847 51.4939 59.3975C51.4939 72.6104 62.1767 83.2931 75.3897 83.2931C88.6025 83.2931 99.2851 72.6104 99.2851 59.3975C99.2851 46.1847 88.4618 35.5019 75.3897 35.5019Z" fill="#272F2C"/>
<path fill-rule="evenodd" clip-rule="evenodd" d="M47.4177 79.498L53.0402 76.1248L52.478 75.2812L49.9479 76.8272L48.2612 74.0162L47.5582 74.5782L49.3856 77.3896L47.6988 78.2332L45.7309 75.2812L45.0282 75.703L47.4177 79.498Z" fill="#272F2C"/>
<path fill-rule="evenodd" clip-rule="evenodd" d="M44.1847 74.0163L50.3696 71.7673L48.6828 67.2694L47.8396 67.5505L49.3856 71.0644L47.2772 71.9079L45.8715 68.6747L45.1688 68.956L46.5744 72.1886L44.6066 72.8917L43.2009 69.3778L42.4982 69.6589L44.1847 74.0163Z" fill="#272F2C"/>
<path fill-rule="evenodd" clip-rule="evenodd" d="M41.9357 67.6907L48.4017 66.5663L48.2611 65.5823L43.0603 66.5663L47.8395 62.3495L47.6987 61.3655L41.0924 62.3495L41.233 63.3331L46.5743 62.3495L41.7951 66.5663L41.9357 67.6907Z" fill="#272F2C"/>
<path fill-rule="evenodd" clip-rule="evenodd" d="M41.0924 60.241L47.5582 60.5223L47.8395 55.6026H46.996L46.8554 59.5381H44.6065L44.747 55.7431H44.0443L43.9036 59.5381L41.9357 59.257L42.0764 55.6026L41.233 55.3213L41.0924 60.241Z" fill="#272F2C"/>
<path fill-rule="evenodd" clip-rule="evenodd" d="M41.6547 53.2129L47.9801 54.8995L48.2612 54.0564L45.5904 53.3535L46.1528 51.3856C46.2931 50.964 46.2931 50.8232 46.4339 50.6827C46.715 50.4016 46.9961 50.4016 47.4177 50.4016L48.5423 50.6827C48.8234 50.6827 48.9639 50.8232 49.1045 50.8232C49.245 50.8232 49.245 50.8232 49.3856 50.8232L49.6667 49.6991H49.5263C49.3856 49.6991 49.245 49.6991 49.1045 49.6991C48.9639 49.6991 48.8234 49.6991 48.5423 49.5585L47.2772 49.2772C46.8555 49.1367 46.5744 49.1367 46.4339 49.2772C46.2931 49.418 46.012 49.5585 45.8715 49.6991C45.8715 49.418 45.7309 49.1367 45.4498 48.8556C45.3093 48.5743 44.8876 48.4337 44.6066 48.4337C43.9036 48.2932 43.3414 48.4337 42.9198 48.9961C42.6387 49.2772 42.4981 49.6991 42.3576 50.1203L41.6547 53.2129Z" fill="#272F2C"/>
<path fill-rule="evenodd" clip-rule="evenodd" d="M45.3093 51.1045L44.7471 53.0723L42.6387 52.5099L43.2009 50.4015C43.3414 50.1202 43.3414 49.8395 43.482 49.699C43.7631 49.4179 44.0443 49.2771 44.6065 49.4179C45.0282 49.5584 45.3093 49.699 45.4498 49.9797C45.4498 50.4015 45.3093 50.6826 45.3093 51.1045Z" fill="white"/>
<path fill-rule="evenodd" clip-rule="evenodd" d="M43.7631 46.1847L49.6666 49.1366L50.7912 46.4658C51.2129 45.6223 51.2129 45.0603 50.9318 44.3574C50.7912 43.9355 50.5101 43.6548 50.0885 43.5139C49.6666 43.2326 49.245 43.2326 48.8234 43.3737C48.5423 43.5139 48.4017 43.6548 48.1206 43.9355C48.1206 43.6548 48.1206 43.5139 47.9801 43.2326C47.8395 42.9519 47.5582 42.6708 47.2771 42.5303C46.996 42.3895 46.5744 42.249 46.2931 42.3895C45.7309 42.5303 45.3093 42.8113 44.8876 43.5139L43.7631 46.1847Z" fill="#272F2C"/>
<path fill-rule="evenodd" clip-rule="evenodd" d="M47.2771 45.201L46.5744 46.6063L44.7471 45.7628L45.4498 44.3574C45.5904 43.9355 45.7309 43.795 46.012 43.6548C46.2931 43.3737 46.5744 43.3737 46.996 43.5139C47.4177 43.6548 47.5582 43.9355 47.5582 44.3574C47.5582 44.6387 47.4177 44.7792 47.2771 45.201Z" fill="white"/>
<path fill-rule="evenodd" clip-rule="evenodd" d="M50.0885 46.1847L49.245 47.8719L47.1366 46.8876L47.9801 45.3416C48.1206 45.0603 48.2612 44.7792 48.5423 44.6387C48.8234 44.3574 49.245 44.2168 49.6666 44.4979C49.9479 44.6387 50.0885 44.7792 50.229 45.0603C50.3696 45.4822 50.3696 45.6223 50.0885 46.1847Z" fill="white"/>
<path fill-rule="evenodd" clip-rule="evenodd" d="M48.4017 38.454L51.9158 44.6387L52.478 43.9356L51.3534 41.9679L53.0402 39.8595L55.0082 40.703L55.5704 39.8595L48.9639 37.7511L48.4017 38.454Z" fill="#272F2C"/>
<path fill-rule="evenodd" clip-rule="evenodd" d="M52.3374 39.8595L50.9317 41.2654L49.3855 38.5946L52.3374 39.8595Z" fill="white"/>
<path fill-rule="evenodd" clip-rule="evenodd" d="M51.6346 34.5183L55.8515 39.8595L56.5544 39.1569L54.5863 36.908L57.2569 34.5183L59.225 37.048L59.9277 36.3456L55.7109 31.4257L55.0082 31.988L56.6947 34.0965L54.0241 36.2049L52.3374 34.0965L51.6346 34.5183Z" fill="#272F2C"/>
<path fill-rule="evenodd" clip-rule="evenodd" d="M62.1767 28.4738C61.6145 28.3333 60.9116 28.3333 60.0683 28.7549C59.225 29.1768 58.6628 29.8797 58.3815 30.7228C58.241 31.5665 58.241 32.2694 58.8032 33.253C59.3656 34.3778 60.0683 35.0803 61.0521 35.3614C61.7551 35.502 62.3173 35.502 62.7389 35.2209L62.5986 35.9238L62.8797 36.0644L63.0202 35.9238C63.0202 35.9238 63.1608 35.9238 63.1608 35.7833C63.3013 35.7833 63.4418 35.6425 63.4418 35.7833C63.5824 35.7833 63.5824 35.9238 63.7229 35.9238C63.7229 36.0644 63.7229 36.2049 63.7229 36.3457C63.7229 36.3457 63.5824 36.4862 63.4418 36.4862C63.3013 36.4862 63.3013 36.6268 63.1608 36.6268C63.1608 36.6268 63.0202 36.6268 62.8797 36.6268V37.048C63.0202 37.048 63.1608 37.048 63.3013 37.048C63.4418 37.048 63.5824 36.9081 63.7229 36.9081C64.004 36.7673 64.2851 36.4862 64.4257 36.3457C64.5664 36.0644 64.5664 35.9238 64.4257 35.6425C64.2851 35.502 64.1448 35.3614 64.004 35.2209C63.8635 35.2209 63.5824 35.2209 63.4418 35.2209C63.3013 35.2209 63.1608 35.3614 63.1608 35.3614L63.3013 34.7991C64.004 34.3778 64.5664 33.8154 64.707 33.1125C64.8473 32.5501 64.8473 31.8476 64.5664 31.1446L63.7229 31.4257C63.8635 31.8476 63.8635 32.2694 63.8635 32.5501C63.7229 33.1125 63.4418 33.5341 62.8797 33.956C62.1767 34.2373 61.6145 34.2373 61.0521 33.956C60.4902 33.6749 60.0683 33.253 59.7872 32.5501C59.3656 31.707 59.225 31.0041 59.3656 30.4417C59.5061 29.8797 59.9278 29.4581 60.4902 29.1768C60.9116 28.8957 61.3334 28.8957 61.7551 28.8957C62.1767 29.0362 62.458 29.1768 62.7389 29.5986L63.5824 29.1768C63.1608 28.8957 62.7389 28.6144 62.1767 28.4738Z" fill="#272F2C"/>
<path fill-rule="evenodd" clip-rule="evenodd" d="M64.4257 27.0683L66.1124 33.3935L70.8916 32.1288L70.7509 31.4257L66.8154 32.2694L66.2532 30.1604L69.7671 29.3173L69.6265 28.6143L66.1124 29.458L65.5502 27.4902L69.3454 26.6465L69.0643 25.6628L64.4257 27.0683Z" fill="#272F2C"/>
<path fill-rule="evenodd" clip-rule="evenodd" d="M76.2331 29.7391H75.3898C75.3898 30.4416 75.5301 31.004 75.9518 31.4256C76.3736 31.8475 76.936 32.1288 77.7793 32.2693C78.4822 32.2693 79.0442 32.2693 79.6066 31.988C80.1688 31.7069 80.4499 31.2851 80.5904 30.4416C80.5904 29.8796 80.4499 29.458 80.028 29.0361C79.7471 28.8956 79.466 28.6143 79.0442 28.4738L78.2007 28.1925C77.6385 28.0525 77.2169 27.7712 77.0763 27.7712C76.795 27.6307 76.6547 27.3496 76.795 27.0683C76.795 26.7872 76.936 26.5059 77.2169 26.3653C77.498 26.2248 77.9198 26.0846 78.3413 26.0846C79.0442 26.0846 79.466 26.3653 79.7471 26.7872C79.8875 26.9277 79.8875 27.2088 80.028 27.6307L80.8715 27.7712C80.8715 27.0683 80.731 26.5059 80.3093 26.0846C79.8875 25.6628 79.3253 25.5223 78.6228 25.3817C77.9198 25.3817 77.2169 25.5223 76.795 25.8034C76.3736 26.0846 76.0925 26.6464 76.0925 27.2088C76.0925 27.7712 76.2331 28.1925 76.6547 28.4738C76.936 28.6143 77.2169 28.8956 77.7793 29.0361L78.6228 29.3172C79.0442 29.458 79.466 29.5985 79.6066 29.7391C79.7471 29.8796 79.8875 30.1603 79.8875 30.5822C79.8875 31.004 79.6066 31.4256 79.0442 31.5664C78.7631 31.7069 78.4822 31.7069 78.0604 31.5664C77.3574 31.4256 76.795 31.2851 76.5141 30.7227C76.2331 30.3015 76.2331 30.0204 76.2331 29.7391Z" fill="#272F2C"/>
<path fill-rule="evenodd" clip-rule="evenodd" d="M82.9799 26.0847L81.0118 32.4099L81.8555 32.6906L82.6988 30.0204L84.6667 30.5822C85.3696 30.7228 85.791 30.7228 86.2129 30.4417C86.6345 30.1604 86.9158 29.7391 87.0564 29.3173C87.1969 28.7549 87.1969 28.1925 86.9158 27.7713C86.6345 27.3496 86.2129 27.0684 85.6507 26.9278L82.9799 26.0847Z" fill="#272F2C"/>
<path fill-rule="evenodd" clip-rule="evenodd" d="M86.0724 27.912C86.3537 28.1925 86.494 28.6143 86.3537 29.0361C86.2129 29.458 86.0724 29.7391 85.7911 29.7391C85.5102 29.8796 85.2291 29.8796 84.8072 29.7391L83.1205 29.1767L83.8234 26.9277L85.5102 27.4901C85.6507 27.7712 85.9316 27.912 86.0724 27.912Z" fill="white"/>
<path fill-rule="evenodd" clip-rule="evenodd" d="M93.9442 31.5664C93.8035 30.5821 93.2411 29.8796 92.2571 29.3172C91.2734 28.7548 90.2892 28.7548 89.4461 29.1767C88.7432 29.458 88.1808 30.0204 87.7592 30.8632C87.3375 31.7069 87.0564 32.55 87.197 33.3935C87.3375 34.2372 87.8997 34.9401 88.7432 35.3614C89.7272 35.9237 90.5703 35.9237 91.5545 35.6424C92.2571 35.3614 92.96 34.6588 93.3818 33.8153C93.8035 33.1124 93.9442 32.55 93.9442 31.5664Z" fill="#272F2C"/>
<path fill-rule="evenodd" clip-rule="evenodd" d="M91.1327 34.9402C90.5703 35.2209 89.8674 35.2209 89.305 34.799C88.6026 34.3778 88.1808 33.9559 88.0403 33.253C87.8997 32.6906 88.0403 31.9881 88.4619 31.4257C88.8837 30.5822 89.4461 30.1604 90.0079 29.8797C90.5703 29.7391 91.2734 29.7391 91.8352 30.0204C92.3976 30.3015 92.8195 30.8633 92.96 31.4257C93.1006 31.9881 92.96 32.6906 92.5382 33.3935C92.2571 34.2372 91.6947 34.799 91.1327 34.9402Z" fill="white"/>
<path fill-rule="evenodd" clip-rule="evenodd" d="M96.7549 32.6906L92.257 37.4698L92.9599 38.1727L94.9278 36.0643L96.4738 37.4698C96.7549 37.751 96.8954 37.8916 97.0362 38.1727C97.1767 38.454 97.0362 38.7351 96.7549 39.1569L96.0519 40C95.9114 40.1405 95.7712 40.2811 95.7712 40.4218C95.7712 40.5624 95.6307 40.5624 95.6307 40.5624L96.4738 41.2653L96.6143 41.1242C96.6143 40.984 96.6143 40.8435 96.6143 40.5624C96.6143 40.4218 96.7549 40.2811 96.8954 40.1405L97.4578 39.4376C97.7391 39.1569 97.8796 38.8756 97.8796 38.7351C97.8796 38.454 97.8796 38.3132 97.7391 38.0321C98.0202 38.1727 98.3009 38.1727 98.5822 38.0321C98.8633 37.8916 99.1446 37.751 99.4257 37.4698C99.9881 36.908 100.128 36.3456 99.8475 35.6424C99.707 35.3613 99.4257 34.9401 99.1446 34.6588L96.7549 32.6906Z" fill="#272F2C"/>
<path fill-rule="evenodd" clip-rule="evenodd" d="M96.8955 36.9081L95.3495 35.502L96.8955 33.8154L98.4417 35.3615C98.7234 35.6425 98.8634 35.7833 98.8634 35.9238C99.0039 36.3457 98.8634 36.6268 98.5827 36.9081C98.301 37.1888 98.0203 37.3293 97.7392 37.3293C97.4579 37.1888 97.1768 37.048 96.8955 36.9081Z" fill="white"/>
<path fill-rule="evenodd" clip-rule="evenodd" d="M104.627 41.8271L98.8633 44.7792L99.2851 45.4822L101.253 44.3574L102.658 44.9198L100.831 48.4337L101.394 49.4179L103.502 45.3416L107.157 46.3253L106.595 45.3416L102.237 44.0763L105.048 42.5303L104.627 41.8271Z" fill="#272F2C"/>
<path fill-rule="evenodd" clip-rule="evenodd" d="M108 48.996L107.719 48.1523L104.205 49.1366C103.361 49.2771 102.8 49.5584 102.518 49.9797C101.815 50.542 101.675 51.3855 101.956 52.5099C102.237 53.6347 102.8 54.1971 103.643 54.337C104.064 54.4778 104.767 54.337 105.47 54.1971L108.984 53.2128L108.703 52.5099L104.767 53.4939C104.346 53.6347 103.924 53.6347 103.643 53.6347C103.08 53.4939 102.659 53.0723 102.518 52.3694C102.378 51.8074 102.518 51.245 102.799 50.8231C103.08 50.542 103.361 50.4015 103.924 50.2609L108 48.996Z" fill="#272F2C"/>
<path fill-rule="evenodd" clip-rule="evenodd" d="M109.405 55.3213L102.799 55.6026L103.08 59.8194H103.924L103.643 56.4461L109.405 56.0242V55.3213Z" fill="#272F2C"/>
<path d="M109.824 64.8448L109.928 64.0078L110.904 64.1279L110.801 64.9649L109.824 64.8448Z" fill="#272F2C"/>
<path d="M110.067 63.5175L110.17 62.6805L111.146 62.801L111.043 63.638L110.067 63.5175Z" fill="#272F2C"/>
<path fill-rule="evenodd" clip-rule="evenodd" d="M109.546 62.0683L109.687 61.2247L106.032 60.803C105.189 60.6629 104.627 60.803 104.205 60.9442C103.361 61.2247 102.94 61.9278 102.799 63.0526C102.658 64.1768 102.94 65.0202 103.643 65.4421C104.064 65.7228 104.627 65.8633 105.47 66.0039L109.125 66.4257L109.265 65.5822L105.189 65.0202C104.767 65.0202 104.345 64.8797 104.064 64.5986C103.643 64.3173 103.361 63.7549 103.502 62.9118C103.643 62.3494 103.924 61.9278 104.345 61.6465C104.627 61.506 105.048 61.506 105.61 61.506L109.546 62.0683Z" fill="#272F2C"/>
<path fill-rule="evenodd" clip-rule="evenodd" d="M108.563 68.3936L102.378 66.2852L101.394 68.956C101.113 69.7994 101.113 70.502 101.534 71.0644C101.815 71.4862 102.097 71.6267 102.518 71.7673C102.94 71.9078 103.361 71.9078 103.783 71.7673C104.064 71.6267 104.205 71.4862 104.486 71.2049C104.486 71.4862 104.627 71.6267 104.627 71.7673C104.767 72.048 105.048 72.3293 105.47 72.4698C105.751 72.6104 106.173 72.6104 106.454 72.4698C107.016 72.3293 107.438 71.9078 107.578 71.2049L108.563 68.3936Z" fill="#272F2C"/>
<path fill-rule="evenodd" clip-rule="evenodd" d="M105.048 69.7995L105.61 68.2531L107.578 68.956L107.016 70.502C106.875 70.9238 106.735 71.2049 106.595 71.3455C106.313 71.6268 106.032 71.6268 105.61 71.6268C105.189 71.4862 105.048 71.2049 104.907 70.9238C104.907 70.502 104.907 70.3615 105.048 69.7995Z" fill="white"/>
<path fill-rule="evenodd" clip-rule="evenodd" d="M102.096 69.0965L102.658 67.2694L104.907 67.9718L104.345 69.6589C104.205 70.0802 104.064 70.2209 103.924 70.502C103.642 70.9238 103.221 70.9238 102.799 70.7833C102.518 70.6425 102.378 70.502 102.237 70.3615C101.956 70.0802 101.956 69.6589 102.096 69.0965Z" fill="white"/>
<path d="M104.621 78.5214L105.056 77.7982L105.899 78.3053L105.464 79.0283L104.621 78.5214Z" fill="#272F2C"/>
<path d="M105.437 77.3111L105.871 76.5879L106.715 77.0954L106.281 77.818L105.437 77.3111Z" fill="#272F2C"/>
<path fill-rule="evenodd" clip-rule="evenodd" d="M105.47 75.7031L105.892 74.8594L102.799 73.1728C102.096 72.751 101.534 72.4699 100.972 72.4699C100.128 72.3293 99.4257 72.8917 98.7233 73.7352C98.1609 74.7188 98.1609 75.5625 98.5822 76.2655C98.8633 76.6867 99.2851 77.1085 99.988 77.5302L103.221 79.498L103.642 78.655L100.128 76.5462C99.707 76.2655 99.4257 75.9838 99.2851 75.7031C99.0038 75.1407 99.0038 74.5783 99.4257 74.0163C99.707 73.4541 100.128 73.1728 100.691 73.1728C101.113 73.1728 101.394 73.3134 101.815 73.5947L105.47 75.7031Z" fill="#272F2C"/>
<path fill-rule="evenodd" clip-rule="evenodd" d="M65.4098 86.5262L66.8154 87.0886L65.1287 91.3056L65.9719 91.5867L68.3616 85.6827L67.6587 85.2609C67.3776 85.6827 67.0965 85.964 66.8154 85.964C66.5341 85.964 66.1125 85.964 65.5503 85.8233L65.4098 86.5262Z" fill="#272F2C"/>
<path fill-rule="evenodd" clip-rule="evenodd" d="M70.3292 91.1649L69.4859 91.0243C69.3454 91.4462 69.4859 92.008 69.767 92.2893C70.0483 92.7109 70.47 92.8516 71.1727 92.9922C72.1567 93.1327 72.8595 92.7109 73.4216 91.8674C73.7029 91.3056 73.9838 90.6025 74.1246 89.8996C74.2651 89.197 74.2651 88.6348 74.1246 88.0724C73.8435 87.2288 73.2813 86.667 72.4376 86.5262C71.7349 86.3857 71.1727 86.5262 70.7509 86.9477C70.3292 87.3693 70.0483 87.7917 70.0483 88.3535C69.9076 88.9159 70.0483 89.4783 70.3292 89.8996C70.6105 90.3214 71.0321 90.6025 71.7349 90.7432C72.0162 90.7432 72.2973 90.7432 72.5784 90.7432C72.8595 90.6025 73.1406 90.4619 73.2813 90.3214C73 91.3056 72.7189 91.8674 72.4376 92.1485C72.1567 92.4298 71.7349 92.5703 71.4538 92.4298C71.3132 92.4298 71.0321 92.2893 70.8916 92.1485C70.47 92.1485 70.3292 91.8674 70.3292 91.1649Z" fill="#272F2C"/>
<path fill-rule="evenodd" clip-rule="evenodd" d="M72.7189 90.0401C72.4376 90.1808 72.1567 90.3213 71.8756 90.1808C71.4538 90.0401 71.1727 89.8995 71.0321 89.6184C70.8916 89.3371 70.8916 89.0564 70.8916 88.6348C70.8916 88.2129 71.1727 87.9316 71.4538 87.6506C71.7349 87.3693 72.0162 87.3693 72.4378 87.3693C72.8595 87.3693 73.1406 87.6506 73.2813 87.7911C73.4217 88.0724 73.5622 88.3535 73.4217 88.9159C73.1406 89.4783 73 89.759 72.7189 90.0401Z" fill="white"/>
<path fill-rule="evenodd" clip-rule="evenodd" d="M79.1847 87.6506C78.7631 86.9477 78.0604 86.667 77.3574 86.8075C76.3736 86.9477 75.8112 87.3693 75.5301 88.4941C75.3898 89.0565 75.3898 89.6185 75.3898 90.4619C75.5301 91.4462 75.6707 92.1485 76.0925 92.7109C76.5141 93.414 77.0763 93.6945 77.9198 93.554C78.7631 93.414 79.3253 92.9922 79.6066 92.1485C79.8875 91.5867 79.8875 90.8838 79.7471 89.8995C79.7471 89.0565 79.466 88.3535 79.1847 87.6506Z" fill="#272F2C"/>
<path fill-rule="evenodd" clip-rule="evenodd" d="M78.763 92.1485C78.4821 92.5704 78.2007 92.7109 77.7792 92.8517C77.2168 92.8517 76.795 92.5704 76.6546 92.008C76.5141 91.5867 76.3735 91.1649 76.3735 90.462C76.3735 89.6185 76.3735 88.9159 76.5141 88.4941C76.6546 88.0724 77.0763 87.7917 77.4979 87.7917C78.0603 87.7917 78.3412 87.9317 78.6227 88.3535C78.9036 88.7754 79.0441 89.3372 79.0441 90.1809C79.0441 90.8838 78.9036 91.5867 78.763 92.1485Z" fill="white"/>
<path fill-rule="evenodd" clip-rule="evenodd" d="M84.1045 85.1204L79.8875 86.667L80.1687 87.3693L83.5423 86.1046C83.261 86.8075 83.1204 87.5101 82.9799 88.213C82.699 89.6185 82.699 90.8838 82.9799 92.1485L83.8234 91.8674C83.6828 91.1645 83.6828 90.7432 83.6828 90.462C83.6828 90.0401 83.6828 89.4777 83.6828 88.7754C83.6828 88.0724 83.8234 87.5101 83.9639 86.9477C84.1045 86.3857 84.245 85.964 84.3858 85.6827L84.1045 85.1204Z" fill="#272F2C"/>
<path d="M58.241 87.6506L57.3977 85.1203H54.8677L56.9761 83.7149L56.2732 81.0441L58.241 82.7308L60.3496 81.3254L59.5061 83.7149L61.6145 85.1203H58.9437L58.241 87.6506Z" fill="#272F2C"/>
<path d="M92.5381 87.6506L91.8352 85.1203H89.3049L91.4139 83.7149L90.5703 81.0441L92.6787 82.7308L94.7871 81.3254L93.9442 83.7149L95.9114 85.1203H93.3818L92.5381 87.6506Z" fill="#272F2C"/>
<path d="M73.5623 10.6223H67.6587L75.3898 13.0118L73.5623 10.6223Z" fill="#E7B750"/>
<path d="M75.3898 13.0118L80.1688 19.6184L78.3413 14.1366L75.3898 13.0118Z" fill="#F8D54E"/>
<path d="M70.6106 19.6184L75.3898 16.1045V13.0118L70.6106 19.6184Z" fill="#E7B750"/>
<path d="M82.9799 10.6223H77.2169L75.3898 13.0118L82.9799 10.6223Z" fill="#F8D54E"/>
<path d="M75.3898 16.1045L80.1688 19.6184L75.3898 13.0118V16.1045Z" fill="#D2A74C"/>
<path d="M75.3898 13.0118L72.4377 14.1366L70.6106 19.6184L75.3898 13.0118Z" fill="#F8D54E"/>
<path d="M73.5623 10.6223L75.3898 13.0118V5L73.5623 10.6223Z" fill="#F8D54E"/>
<path d="M75.3898 5V13.0118L77.2169 10.6223L75.3898 5Z" fill="#E7B750"/>
<path d="M75.3898 13.0118L67.6587 10.6223L72.4377 14.1366L75.3898 13.0118Z" fill="#D2A74C"/>
<path d="M75.3898 13.0118L78.3413 14.1366L82.9799 10.6223L75.3898 13.0118Z" fill="#D2A74C"/>
<path d="M81.9961 120.12L87.478 127.992H94.3654L86.7751 118.855L93.6629 110.703H86.6345L81.9961 118.012V105.502H76.6547V127.992H81.9961V120.12Z" fill="#0093D2"/>
<path d="M100.831 128.273C105.47 128.273 109.827 125.462 109.827 119.137C109.827 113.936 106.313 110.422 101.113 110.422C95.6307 110.422 91.9763 113.936 91.9763 119.418C91.9763 125.04 95.9114 128.273 100.831 128.273ZM100.972 114.076C103.361 114.076 104.345 116.606 104.345 119.277C104.345 122.37 103.08 124.478 100.972 124.478C98.7234 124.478 97.4579 122.229 97.4579 119.277C97.5986 116.888 98.4417 114.076 100.972 114.076Z" fill="#0093D2"/>
<path d="M68.502 128.273C70.7509 128.273 73.0001 127.992 74.6868 127.289L73.9839 123.635C72.5784 124.056 71.0322 124.337 69.2049 124.337C66.6749 124.337 64.5664 123.353 64.4257 121.105H75.3898C75.5301 120.683 75.5301 119.98 75.5301 118.996C75.5301 114.779 73.4217 110.422 67.9398 110.422C62.0362 110.422 59.3656 115.201 59.3656 119.558C59.3656 125.04 62.7389 128.273 68.502 128.273ZM67.6587 114.076C70.0484 114.076 70.6106 116.185 70.6106 117.591H64.2852C64.5664 116.044 65.5503 114.076 67.6587 114.076Z" fill="#0093D2"/>
<path d="M40.6708 145L108 135.582V130.101L40.6708 139.518V145Z" fill="#0093D2"/>
<path d="M49.5262 128.273C54.1647 128.273 58.5221 125.462 58.5221 119.137C58.5221 113.936 55.0082 110.422 49.8071 110.422C48.5422 110.422 47.2771 110.562 46.1527 110.984V105.502H40.6708V119.98C40.9519 125.321 44.747 128.273 49.5262 128.273ZM46.2931 118.855C46.4338 116.466 47.4176 114.217 49.8071 114.217C52.1968 114.217 53.1809 116.747 53.1809 119.418C53.1809 122.51 51.9158 124.618 49.8071 124.618C47.6987 124.618 46.4338 122.651 46.2931 120.12V118.855Z" fill="#0093D2"/>
<defs>
<clipPath id="clip0_429_1762">
<rect width="42.4497" height="48.4936" fill="white" transform="translate(54.2263 34.9331)"/>
</clipPath>
</defs>
</svg>
