<svg width="150" height="150" viewBox="0 0 150 150" fill="none" xmlns="http://www.w3.org/2000/svg">
<g clip-path="url(#clip0_429_1159)">
<path d="M75.7688 131.581H75.9447C82.4057 131.083 135.896 99.0357 125.743 28.4229C125.523 26.8386 125.172 23.0816 121.699 21.09C116.645 18.1931 103.986 14.4814 75.8567 13.6213H75.8128H75.7688C47.6831 14.4814 35.0248 18.1931 29.9263 21.09C26.454 23.0816 26.1024 26.8839 25.8826 28.4229C15.7296 99.081 70.8461 131.671 75.6809 131.581H75.7688Z" fill="white"/>
<path d="M75.7248 129.996H75.7687C78.5817 129.77 92.7784 122.075 105.393 105.825C116.908 90.9784 129.479 65.5849 124.161 28.6037L124.117 28.3321C123.897 26.7931 123.501 23.8962 120.908 22.4025C116.864 20.094 105.613 16.0654 75.7687 15.1149C45.9249 16.0202 34.6731 20.0487 30.6294 22.4025C27.9923 23.8962 27.5967 26.7931 27.4209 28.3321L27.3769 28.6037C22.0587 65.6302 35.1126 91.3405 47.0237 106.414C59.5502 122.256 73.4832 129.861 75.6369 129.996H75.7248V129.996Z" fill="black"/>
<path d="M27.4214 19.0983C32.6958 16.0655 45.7936 12.2633 74.8903 11.358V133.346C74.8463 133.346 74.7584 133.346 74.7145 133.346C68.0337 132.803 12.7413 99.7146 23.2459 26.7027C23.5097 25.0732 23.8173 21.1352 27.4214 19.0983Z" fill="url(#paint0_radial_429_1159)"/>
<path d="M122.27 19.0983C116.996 16.0655 103.898 12.2633 74.8015 11.358V133.346C74.8455 133.346 74.9334 133.346 74.9773 133.346C81.6581 132.803 136.951 99.7146 126.446 26.7027C126.182 25.0732 125.831 21.1352 122.27 19.0983Z" fill="url(#paint1_radial_429_1159)"/>
<path d="M129.347 28.1512C129.347 28.0154 129.303 27.8796 129.303 27.6986C129.083 25.5711 128.424 20.0036 123.194 17.7856C117.48 15.3413 96.9101 10.0001 72.868 10.0001C55.8144 10.0001 40.2551 12.6255 26.6298 17.7404C21.1797 19.7773 20.6083 25.4806 20.3886 27.6533C20.3886 27.8344 20.3446 28.0607 20.3446 28.1965C14.6308 68.6178 28.2121 96.5461 40.6068 112.841C53.353 129.589 68.9562 139.231 74.1866 139.955L74.3624 140H74.9338H75.2854L75.5051 139.955C80.6476 139.276 96.3387 129.635 109.129 112.841C121.48 96.5008 135.061 68.6178 129.347 28.1512ZM75.1096 132.577C75.1096 132.577 75.0656 132.577 75.0217 132.577H74.9777H74.9338C74.8898 132.577 74.8898 132.577 74.8458 132.577H74.8898C68.2969 132.034 13.9715 99.5335 24.3003 27.6986C24.5201 26.1143 24.608 21.6784 28.3879 20.2299C67.5497 5.20207 113.304 16.6993 121.655 20.2299C125.391 21.8142 125.523 26.1143 125.743 27.6986C136.028 99.4883 81.6585 132.034 75.1096 132.577Z" fill="url(#paint2_linear_429_1159)"/>
<path d="M30.9375 85.6829C35.5086 93.5589 35.2888 93.4231 39.6401 100.711C42.6289 105.735 47.6395 112.163 49.3976 114.245C49.7053 114.607 49.8811 114.788 49.8811 114.788C39.0248 102.929 35.0251 95.0074 30.9375 85.6829Z" fill="white"/>
<path d="M127.018 51.5079C127.018 51.3268 127.589 35.5748 125.743 28.2419C124.512 23.308 123.326 20.2753 116.557 18.4195C108.909 16.292 93.9214 13.9835 93.9214 13.9835C94.0972 13.9835 109.129 15.432 116.601 17.5142C124.732 19.7774 125.128 22.5385 126.49 28.0608C128.38 35.4842 127.018 51.5079 127.018 51.5079Z" fill="white"/>
<path opacity="0.36" d="M120.161 54.0425C122.227 43.9485 125.435 30.867 113.92 24.2584C108.294 21.0446 97.833 16.0655 72.736 15.7487H72.6921H72.6481C45.7491 17.1971 36.5191 21.5425 31.6403 27.8343C25.3551 35.9819 28.0802 65.0871 31.3766 70.8357C32.7392 73.2347 45.9249 45.0801 93.9652 39.8747C117.787 37.2946 120.161 54.0425 120.161 54.0425Z" fill="#715F3F"/>
<path d="M67.7697 42.0021H65.0885V35.5746C65.0885 35.5293 65.0885 35.4388 65.0885 35.303C65.0446 35.3482 65.0446 35.3935 65.0006 35.3935L60.1659 41.9569H58.2319V29.8712H60.913V36.2988C60.913 36.3441 60.913 36.4346 60.913 36.5704C60.957 36.4799 61.0449 36.3893 61.0449 36.3893L65.7918 29.9165H67.7257V42.0021H67.7697Z" fill="#435179"/>
<path d="M55.8585 29.9165H53.7049C53.7049 29.9165 51.3754 33.3566 51.0677 33.8093C50.804 33.4471 48.4745 29.9165 48.4745 29.9165H46.3208V31.5913C46.3208 31.5913 48.914 35.2125 49.3975 35.8914L46.145 40.3274V42.0022H48.2987C48.2987 42.0022 50.1447 39.2863 51.1117 37.9283L53.9246 42.0022H56.0343V40.3274L52.7819 35.8914C52.9577 35.6198 55.9025 31.5913 55.9025 31.5913L55.8585 29.9165Z" fill="#435179"/>
<path d="M78.4502 29.9165L75.2856 34.2166L72.121 29.9165H69.6597V42.0022H72.3847C72.3847 42.0022 72.3847 34.5335 72.3847 34.5788L75.2856 38.4262L78.1865 34.5788C78.1865 34.5335 78.1865 42.0022 78.1865 42.0022H80.9115V29.9165H78.4502Z" fill="#435179"/>
<path d="M92.1633 42.0022H90.0097L86.6253 37.0683H86.0539V42.0022H83.4167V29.9165H86.0979V34.7598H86.5813C87.3285 33.6282 89.8338 29.9165 89.8338 29.9165H90.1855H91.9875V31.5913C91.9875 31.5913 89.4822 35.1219 88.9548 35.8914C89.2185 36.2988 91.6799 39.7389 92.0315 40.2368L92.1633 42.0022Z" fill="#435179"/>
<path d="M103.283 42.0022H100.602C100.602 42.0022 100.602 35.4388 100.602 35.303C100.558 35.3483 95.7232 42.0022 95.7232 42.0022H93.7893V29.9165H96.4704C96.4704 29.9165 96.4704 36.4346 96.4704 36.5704C96.5144 36.4799 101.349 29.9165 101.349 29.9165H103.283V42.0022Z" fill="#435179"/>
<path d="M46.4085 44.1301H46.8481L47.7271 46.2576L48.6501 44.1301H49.0896L49.6171 47.4345H49.0017L48.738 45.3975L47.859 47.4797H47.6832L46.8481 45.3975L46.5404 47.4345H45.925L46.4085 44.1301Z" fill="#435179"/>
<path d="M53.6168 45.8049C53.6168 46.8007 52.9135 47.5249 51.9026 47.5249C50.8917 47.5249 50.2324 46.8007 50.2324 45.8049C50.2324 44.8091 50.9357 44.0848 51.9026 44.0848C52.9135 44.0848 53.6168 44.8091 53.6168 45.8049ZM52.9575 45.8049C52.9575 45.1259 52.518 44.6733 51.9026 44.6733C51.2873 44.6733 50.8478 45.1259 50.8478 45.8049C50.8478 46.4839 51.2873 46.9365 51.9026 46.9365C52.518 46.9365 52.9575 46.4839 52.9575 45.8049Z" fill="#435179"/>
<path d="M56.6938 47.3439C56.518 47.4344 56.2542 47.5249 55.9026 47.5249C55.3752 47.5249 55.0236 47.3439 54.7599 47.0723C54.4082 46.7102 54.2324 46.3028 54.2324 45.8049C54.2324 45.2165 54.4522 44.7638 54.7599 44.5375C55.0675 44.2206 55.4631 44.0848 55.9466 44.0848C56.1663 44.0848 56.4301 44.1301 56.7377 44.2659V44.9901C56.474 44.6733 56.0784 44.628 55.9905 44.628C55.3752 44.628 54.9357 45.1712 54.9357 45.7596C54.9357 46.4839 55.4631 46.8912 55.9905 46.8912C56.2982 46.8912 56.5619 46.7554 56.7377 46.5291V47.3439H56.6938Z" fill="#435179"/>
<path d="M58.1439 45.5784L59.2867 44.2205H60.0778L58.7153 45.7142L60.1218 47.4795H59.2867L58.1439 46.031L58.056 46.1216V47.5248H57.4407V44.2657H58.056V45.5784H58.1439Z" fill="#435179"/>
<path d="M64.0338 45.8049C64.0338 46.8007 63.3305 47.5249 62.3196 47.5249C61.3087 47.5249 60.6055 46.8007 60.6055 45.8049C60.6055 44.8091 61.3087 44.0848 62.3196 44.0848C63.3305 44.0848 64.0338 44.8091 64.0338 45.8049ZM63.3745 45.8049C63.3745 45.1259 62.935 44.6733 62.3196 44.6733C61.7043 44.6733 61.2648 45.1259 61.2648 45.8049C61.2648 46.4839 61.7043 46.9365 62.3196 46.9365C62.935 46.9365 63.3745 46.4839 63.3745 45.8049Z" fill="#435179"/>
<path d="M65.6161 44.1755C65.7919 44.1755 66.1435 44.1755 66.4072 44.4019C66.583 44.5377 66.7149 44.8092 66.7149 45.0808C66.7149 45.4882 66.4512 45.6693 66.3633 45.7145C66.583 45.7598 66.7149 45.8503 66.7589 45.9409C66.9347 46.1219 66.9786 46.3935 66.9786 46.5293C66.9786 46.7104 66.9347 46.9819 66.7149 47.2083C66.4951 47.4346 66.1875 47.4799 65.9238 47.4799H64.8689V44.2208H65.6161V44.1755ZM65.4403 45.5335H65.6161C65.704 45.5335 66.0996 45.5335 66.0996 45.1261C66.0996 44.8092 65.8798 44.7187 65.6161 44.7187H65.4403V45.5335ZM65.4403 46.9367H65.704C65.8359 46.9367 66.0117 46.9367 66.1435 46.8462C66.2754 46.7556 66.3193 46.5746 66.3193 46.484C66.3193 46.3935 66.2754 46.2124 66.0996 46.1219C65.9677 46.0766 65.7919 46.0767 65.66 46.0767H65.4403V46.9367Z" fill="#435179"/>
<path d="M70.0551 47.3439C69.8793 47.4344 69.6156 47.5249 69.2639 47.5249C68.6926 47.5249 68.3849 47.3439 68.0772 47.0723C67.7256 46.7102 67.5938 46.3028 67.5938 45.8049C67.5938 45.2165 67.8135 44.7638 68.0772 44.5375C68.3849 44.2206 68.7805 44.0848 69.2639 44.0848C69.4837 44.0848 69.7474 44.1301 70.0551 44.2659V44.9901C69.7474 44.6733 69.3958 44.628 69.3079 44.628C68.6926 44.628 68.253 45.1712 68.253 45.7596C68.253 46.4839 68.7805 46.8912 69.3079 46.8912C69.6156 46.8912 69.8793 46.7554 70.0551 46.5291V47.3439Z" fill="#435179"/>
<path d="M71.5055 45.5784L72.6483 44.2205H73.4394L72.0769 45.7142L73.4834 47.4795H72.6483L71.5055 46.031L71.4176 46.1216V47.5248H70.8022V44.2657H71.4176V45.5784H71.5055Z" fill="#435179"/>
<path d="M76.0326 46.7555H74.758L74.4943 47.4344H73.835L75.1975 44.0848H75.681L76.9995 47.4344H76.3403L76.0326 46.7555ZM75.8568 46.2575L75.4172 45.0807L74.9777 46.2575H75.8568Z" fill="#435179"/>
<path d="M79.549 47.4346H78.9336V46.1672H78.8018L78.0106 47.4346H77.2634L78.1864 46.1219C78.0546 46.1219 77.9227 46.0314 77.8348 45.9861C77.659 45.8503 77.4832 45.5787 77.4832 45.2166C77.4832 44.8545 77.6151 44.6282 77.7909 44.4471C78.0546 44.2208 78.3183 44.1755 78.582 44.1755H79.505V47.4346H79.549ZM78.7578 44.7187C78.6259 44.7187 78.1425 44.7187 78.1425 45.2166C78.1425 45.7145 78.6259 45.7145 78.7578 45.7145H78.9336V44.7187H78.7578Z" fill="#435179"/>
<path d="M85.0868 45.8049C85.0868 46.8007 84.3835 47.5249 83.4166 47.5249C82.4496 47.5249 81.7024 46.8007 81.7024 45.8049C81.7024 44.8091 82.4056 44.0848 83.4166 44.0848C84.4275 44.0848 85.0868 44.8091 85.0868 45.8049ZM84.4714 45.8049C84.4714 45.1259 84.0319 44.6733 83.4166 44.6733C82.8012 44.6733 82.3617 45.1259 82.3617 45.8049C82.3617 46.4839 82.8012 46.9365 83.4166 46.9365C84.0319 46.9365 84.4714 46.4839 84.4714 45.8049Z" fill="#435179"/>
<path d="M85.9219 44.1755H87.7679V44.7187H86.5372V45.4882H86.9767C87.1965 45.4882 87.5042 45.5335 87.7679 45.7598C87.9437 45.9409 88.0756 46.1672 88.0756 46.484C88.0756 46.7104 88.0316 46.8914 87.8998 47.0725C87.636 47.4346 87.2405 47.4799 86.9767 47.4799H85.9219V44.1755ZM86.5372 46.8914H86.8449C87.3284 46.8914 87.4163 46.6651 87.4163 46.484C87.4163 46.303 87.2844 46.0314 86.8449 46.0314H86.5372V46.8914Z" fill="#435179"/>
<path d="M91.3283 44.1755V47.4346H90.713V44.7187H89.79V46.1672C89.79 46.484 89.79 46.9367 89.4384 47.2535C89.3065 47.3441 89.1307 47.4799 88.823 47.4799C88.7351 47.4799 88.6472 47.4799 88.5593 47.4346V46.8914C88.6033 46.8914 88.6472 46.9367 88.7351 46.9367C88.867 46.9367 88.9549 46.8914 88.9988 46.8009C89.1747 46.6198 89.1747 46.3482 89.1747 46.0314V44.1755H91.3283Z" fill="#435179"/>
<path d="M94.1407 46.7555H92.8661L92.6024 47.4344H91.9431L93.3056 44.0848H93.7891L95.1516 47.4344H94.4924L94.1407 46.7555ZM93.9649 46.2575L93.5254 45.0807L93.0859 46.2575H93.9649Z" fill="#435179"/>
<path d="M98.0089 47.3439C97.8331 47.4344 97.5694 47.5249 97.2178 47.5249C96.6464 47.5249 96.3387 47.3439 96.075 47.0723C95.7234 46.7102 95.5476 46.3028 95.5476 45.8049C95.5476 45.2165 95.7674 44.7638 96.075 44.5375C96.3827 44.2206 96.7783 44.0848 97.2178 44.0848C97.4375 44.0848 97.7013 44.1301 98.0089 44.2659V44.9901C97.7013 44.6733 97.3496 44.628 97.2617 44.628C96.6025 44.628 96.2069 45.1712 96.2069 45.7596C96.2069 46.4839 96.7343 46.8912 97.2617 46.8912C97.5694 46.8912 97.8331 46.7554 98.0089 46.5291V47.3439Z" fill="#435179"/>
<path d="M99.8108 44.7187V47.4346H99.1954V44.7187H98.4922V44.1755H100.558V44.7187H99.8108Z" fill="#435179"/>
<path d="M101.173 44.1755H101.789V45.4429H102.272C102.492 45.4429 102.8 45.4882 103.063 45.7145C103.239 45.8956 103.371 46.1219 103.371 46.4388C103.371 46.6651 103.283 46.8914 103.195 47.0272C102.931 47.3893 102.58 47.4346 102.272 47.4346H101.173V44.1755ZM101.789 46.8914H102.14C102.272 46.8914 102.712 46.8914 102.712 46.4388C102.712 46.2124 102.624 45.9861 102.14 45.9861H101.789V46.8914Z" fill="#435179"/>
<path d="M45.7932 23.4441H47.6392V23.9873H46.4086V24.7568H46.8481C47.1118 24.7568 47.4195 24.802 47.6392 25.0284C47.815 25.2094 47.9469 25.4357 47.9469 25.7526C47.9469 25.9789 47.859 26.16 47.7711 26.341C47.5074 26.7032 47.1118 26.7484 46.8481 26.7484H45.7932V23.4441V23.4441ZM46.4086 26.16H46.7162C47.1997 26.16 47.2876 25.9337 47.2876 25.7526C47.2876 25.5263 47.1997 25.2999 46.7162 25.2999H46.4086V26.16Z" fill="#435179"/>
<path d="M50.7157 26.024H49.4411L49.1774 26.703H48.5181L49.8806 23.3534H50.3641L51.6827 26.703H51.0234L50.7157 26.024ZM50.5399 25.4808L50.1004 24.3039L49.6608 25.4808H50.5399Z" fill="#435179"/>
<path d="M54.7155 26.5669C54.5397 26.6574 54.2759 26.748 53.9243 26.748C53.353 26.748 53.0453 26.5669 52.7816 26.2953C52.43 25.9332 52.2542 25.5258 52.2542 25.0279C52.2542 24.4395 52.4739 23.9868 52.7816 23.7605C53.0892 23.4437 53.4848 23.3079 53.9243 23.3079C54.1441 23.3079 54.4078 23.3531 54.7155 23.4889V24.2132C54.4078 23.851 54.0562 23.851 53.9683 23.851C53.353 23.851 52.9134 24.3942 52.9134 24.9827C52.9134 25.7069 53.4409 26.1143 53.9683 26.1143C54.276 26.1143 54.5397 25.9785 54.7155 25.7521V26.5669Z" fill="#435179"/>
<path d="M56.254 24.802L57.3968 23.4441H58.1879L56.8694 24.9378L58.2758 26.7032H57.4407L56.298 25.2547L56.2101 25.3452V26.7484H55.5947V23.4894H56.2101V24.802H56.254Z" fill="#435179"/>
<path d="M60.7813 23.9873H59.6385V24.7115H60.7373V25.2547H59.6385V26.16H60.7813V26.7031H59.0232V23.4441H60.7813V23.9873Z" fill="#435179"/>
<path d="M62.7148 23.9873V26.7031H62.0995V23.9873H61.3962V23.4441H63.4181V23.9873H62.7148Z" fill="#435179"/>
<path d="M64.1653 23.4441H66.0113V23.9873H64.7806V24.7568H65.2201C65.4399 24.7568 65.7915 24.802 66.0113 25.0284C66.1871 25.2094 66.319 25.4357 66.319 25.7526C66.319 25.9789 66.275 26.16 66.1431 26.341C65.9234 26.7032 65.4839 26.7484 65.2201 26.7484H64.1653V23.4441ZM64.7806 26.16H65.0883C65.5718 26.16 65.6597 25.9337 65.6597 25.7526C65.6597 25.5263 65.5278 25.2999 65.0883 25.2999H64.7806V26.16Z" fill="#435179"/>
<path d="M70.4945 25.0734C70.4945 26.0693 69.7912 26.7935 68.8243 26.7935C67.8133 26.7935 67.1541 26.0693 67.1541 25.0734C67.1541 24.0776 67.8573 23.3534 68.8243 23.3534C69.7912 23.3534 70.4945 24.0776 70.4945 25.0734ZM69.8352 25.0734C69.8352 24.3945 69.3956 23.9418 68.7803 23.9418C68.165 23.9418 67.7254 24.3945 67.7254 25.0734C67.7254 25.7524 68.165 26.2051 68.7803 26.2051C69.3956 26.2051 69.8352 25.7071 69.8352 25.0734Z" fill="#435179"/>
<path d="M73.8791 23.4441V26.7032H73.2638V23.9873H72.3408V25.4357C72.3408 25.7979 72.3408 26.2052 71.9892 26.5221C71.8573 26.6126 71.6815 26.7484 71.3738 26.7484C71.2859 26.7484 71.198 26.7484 71.1101 26.7032V26.16C71.1541 26.16 71.198 26.2052 71.2859 26.2052C71.4178 26.2052 71.5057 26.16 71.5936 26.0695C71.7694 25.8884 71.7694 25.6168 71.7694 25.2999V23.4441H73.8791Z" fill="#435179"/>
<path d="M74.9338 23.4441H75.5492V24.7115H76.0326C76.2524 24.7115 76.5601 24.7568 76.8238 24.9831C76.9996 25.1641 77.1314 25.3905 77.1314 25.7073C77.1314 25.9336 77.0875 26.1147 76.9556 26.2958C76.7359 26.6579 76.3403 26.7031 76.0766 26.7031H74.9778V23.4441H74.9338ZM75.5492 26.16H75.9008C75.9887 26.16 76.4722 26.16 76.4722 25.7073C76.4722 25.481 76.3842 25.2547 75.9008 25.2547H75.5052V26.16H75.5492Z" fill="#435179"/>
<path d="M78.5816 24.7115H79.9442V23.4441H80.5595V26.7031H79.9002V25.2547H78.5816V26.7031H77.9663V23.4441H78.5816V24.7115Z" fill="#435179"/>
<path d="M81.6147 23.4441H82.2301V24.7115H82.7136C82.9333 24.7115 83.241 24.7568 83.5047 24.9831C83.6805 25.1641 83.8124 25.3905 83.8124 25.7073C83.8124 25.9336 83.7245 26.1147 83.6366 26.2958C83.4168 26.6579 83.0212 26.7031 82.7575 26.7031H81.6147V23.4441ZM82.2301 26.16H82.5817C82.7136 26.16 83.1531 26.16 83.1531 25.7073C83.1531 25.481 83.0652 25.2547 82.5817 25.2547H82.2301V26.16ZM84.6914 23.4441V26.7031H84.0761V23.4441H84.6914Z" fill="#435179"/>
<path d="M86.4054 23.4439V25.6619L88.1635 23.3987H88.603V26.7482H87.9877V24.5303L86.2296 26.7935H85.79V23.4439H86.4054ZM86.757 22.4028C86.8449 22.6744 87.1086 22.6744 87.1965 22.6744C87.2405 22.6744 87.5042 22.6744 87.636 22.4028L88.0756 22.5839C87.9437 22.9007 87.68 23.1271 87.2405 23.1271C86.801 23.1271 86.4933 22.9007 86.3614 22.5839L86.757 22.4028Z" fill="#435179"/>
<path d="M91.724 24.802L92.8667 23.4441H93.6579L92.3393 24.9378L93.7458 26.7032H92.9107L91.7679 25.2547L91.68 25.3452V26.7484H91.0647V23.4894H91.68V24.802H91.724Z" fill="#435179"/>
<path d="M96.9541 23.4441V26.7032H96.3387V23.9873H95.4157V25.4357C95.4157 25.7979 95.4157 26.2052 95.0641 26.5221C94.9323 26.6126 94.7564 26.7484 94.4488 26.7484C94.3609 26.7484 94.273 26.7484 94.1851 26.7032V26.16C94.229 26.16 94.273 26.2052 94.3609 26.2052C94.4927 26.2052 94.5806 26.16 94.6246 26.0695C94.8004 25.8884 94.8004 25.6168 94.8004 25.2999V23.4441H96.9541Z" fill="#435179"/>
<path d="M98.4047 23.4441L99.1958 25.0736L99.899 23.4441H100.558L99.1079 26.7031H98.4486L98.8881 25.7979L97.7014 23.4441H98.4047Z" fill="#435179"/>
<path d="M101.305 23.4441H103.151V23.9873H101.921V24.7568H102.36C102.58 24.7568 102.887 24.802 103.151 25.0284C103.327 25.2094 103.459 25.4357 103.459 25.7526C103.459 25.9789 103.371 26.16 103.283 26.341C103.019 26.7032 102.668 26.7484 102.36 26.7484H101.305V23.4441ZM101.921 26.16H102.228C102.712 26.16 102.8 25.9337 102.8 25.7526C102.8 25.5263 102.712 25.2999 102.228 25.2999H101.921V26.16Z" fill="#435179"/>
<path d="M67.286 41.5495H64.6049V35.1219C64.6049 35.0767 64.6049 34.9861 64.6049 34.8503C64.561 34.8956 64.5609 34.9409 64.517 34.9409L59.6822 41.5042H57.7483V29.4186H60.4294V35.8462C60.4294 35.8914 60.4294 35.982 60.4294 36.1177C60.5173 36.0272 60.5613 35.9367 60.5613 35.9367L65.3081 29.4638H67.2421V41.5495H67.286Z" fill="white"/>
<path d="M55.331 29.4639H53.1773C53.1773 29.4639 50.8478 32.904 50.5401 33.3566C50.2764 32.9945 47.9469 29.4639 47.9469 29.4639H45.7932V31.1387C45.7932 31.1387 48.3864 34.7598 48.8699 35.4388L45.6174 39.8747V41.5495H47.7272C47.7272 41.5495 49.5732 38.8336 50.5401 37.4757L53.3531 41.5495H55.4628V39.8747L52.2103 35.4388C52.3861 35.1672 55.331 31.1387 55.331 31.1387V29.4639Z" fill="white"/>
<path d="M77.9226 29.4639L74.758 33.764L71.5934 29.4639H69.1321V41.5495H71.8571C71.8571 41.5495 71.8571 34.0809 71.8571 34.1261L74.758 37.9736L77.6589 34.1261C77.6589 34.0809 77.6589 41.5495 77.6589 41.5495H80.3839V29.4639H77.9226Z" fill="white"/>
<path d="M91.636 41.5495H89.5263L86.1419 36.6157H85.5705V41.5495H82.8894V29.4639H85.5705V34.3072H86.054C86.8012 33.1756 89.3065 29.4639 89.3065 29.4639H89.6581H91.4602V31.1387C91.4602 31.1387 88.9549 34.6693 88.4274 35.4388C88.6912 35.8462 91.1525 39.2863 91.5041 39.7842L91.636 41.5495Z" fill="white"/>
<path d="M102.756 41.5495H100.074C100.074 41.5495 100.074 34.9862 100.074 34.8504C100.03 34.8956 95.1956 41.5495 95.1956 41.5495H93.2617V29.4639H95.9428C95.9428 29.4639 95.9428 36.0272 95.9428 36.1178C95.9868 36.0272 100.822 29.4639 100.822 29.4639H102.756V41.5495Z" fill="white"/>
<path d="M46.1888 43.8583H46.6283L47.5074 45.9857L48.3865 43.8583H48.826L49.3534 47.2079H48.6941L48.4304 45.2162L47.5513 47.2531H47.3755L46.5404 45.2162L46.2328 47.2079H45.6174L46.1888 43.8583Z" fill="white"/>
<path d="M53.3531 45.5783C53.3531 46.5742 52.6499 47.2984 51.639 47.2984C50.628 47.2984 49.9688 46.5742 49.9688 45.5783C49.9688 44.5825 50.672 43.8583 51.639 43.8583C52.6499 43.8583 53.3531 44.5825 53.3531 45.5783ZM52.6938 45.5783C52.6938 44.8994 52.2543 44.4467 51.639 44.4467C51.0236 44.4467 50.5841 44.8994 50.5841 45.5783C50.5841 46.2573 51.0236 46.71 51.639 46.71C52.2543 46.71 52.6938 46.2573 52.6938 45.5783Z" fill="white"/>
<path d="M56.4738 47.072C56.298 47.1626 56.0343 47.2531 55.6826 47.2531C55.1113 47.2531 54.8036 47.072 54.5399 46.8004C54.1883 46.4383 54.0564 46.031 54.0564 45.533C54.0564 44.9446 54.2762 44.492 54.5399 44.2656C54.8475 43.9488 55.2431 43.813 55.6826 43.813C55.9024 43.813 56.1661 43.8583 56.4738 43.994V44.7183C56.2101 44.3562 55.8145 44.3562 55.7266 44.3562C55.1113 44.3562 54.6717 44.8993 54.6717 45.4878C54.6717 46.212 55.1992 46.6194 55.7706 46.6194C56.0343 46.6194 56.298 46.4836 56.5177 46.2573V47.072H56.4738Z" fill="white"/>
<path d="M57.8802 45.3065L59.023 43.9486H59.8142L58.4516 45.4423L59.8581 47.2076H59.023L57.8802 45.7592L57.7923 45.8497V47.2529H57.177V43.9939H57.7923V45.3065H57.8802Z" fill="white"/>
<path d="M63.7701 45.5783C63.7701 46.5742 63.0669 47.2984 62.0999 47.2984C61.089 47.2984 60.3857 46.5742 60.3857 45.5783C60.3857 44.5825 61.089 43.8583 62.0999 43.8583C63.0669 43.8583 63.7701 44.5825 63.7701 45.5783ZM63.1108 45.5783C63.1108 44.8994 62.6713 44.4467 62.0559 44.4467C61.4406 44.4467 61.0011 44.8994 61.0011 45.5783C61.0011 46.2573 61.4406 46.71 62.0559 46.71C62.6713 46.71 63.1108 46.2573 63.1108 45.5783Z" fill="white"/>
<path d="M65.3522 43.9486C65.528 43.9486 65.8796 43.9486 66.1433 44.1749C66.3191 44.3107 66.451 44.5823 66.451 44.8539C66.451 45.2613 66.1873 45.4423 66.0994 45.4876C66.3191 45.5329 66.407 45.6234 66.4949 45.7139C66.7147 45.895 66.7147 46.1666 66.7147 46.3476C66.7147 46.5287 66.6707 46.8003 66.451 47.0266C66.2312 47.2529 65.9236 47.2982 65.6598 47.2982H64.605V44.0391H65.3522V43.9486ZM65.1764 45.3065H65.3522C65.4401 45.3065 65.8356 45.3065 65.8356 44.8992C65.8356 44.5823 65.6159 44.4918 65.3522 44.4918H65.1764V45.3065ZM65.1764 46.7097H65.4401C65.5719 46.7097 65.7038 46.7097 65.8796 46.6192C66.0115 46.5287 66.0554 46.3476 66.0554 46.2571C66.0554 46.1666 66.0115 45.9855 65.8356 45.895C65.7038 45.8497 65.528 45.8497 65.3961 45.8497H65.1764V46.7097Z" fill="white"/>
<path d="M69.8354 47.072C69.6596 47.1626 69.3958 47.2531 69.0442 47.2531C68.4728 47.2531 68.1652 47.072 67.9015 46.8004C67.5498 46.4383 67.374 46.031 67.374 45.533C67.374 44.9446 67.5938 44.492 67.9015 44.2656C68.2091 43.9488 68.6047 43.813 69.0882 43.813C69.3079 43.813 69.5717 43.8583 69.8793 43.994V44.7183C69.6156 44.3562 69.22 44.3562 69.1321 44.3562C68.5168 44.3562 68.0773 44.8993 68.0773 45.4878C68.0773 46.212 68.6047 46.6194 69.1321 46.6194C69.4398 46.6194 69.7035 46.4836 69.8793 46.2573V47.072H69.8354Z" fill="white"/>
<path d="M71.2421 45.3065L72.4288 43.9486H73.2199L71.8574 45.4423L73.2639 47.2076H72.4288L71.286 45.7592L71.1981 45.8497V47.2529H70.5828V43.9939H71.1981V45.3065H71.2421Z" fill="white"/>
<path d="M75.7687 46.5289H74.4941L74.1864 47.2079H73.5271L74.8896 43.8583H75.3731L76.6917 47.2079H76.0324L75.7687 46.5289ZM75.5929 45.9857L75.1534 44.8088L74.7138 45.9857H75.5929Z" fill="white"/>
<path d="M79.3292 47.2076H78.7139V45.9402H78.582L77.7909 47.2076H77.0437L77.9667 45.895C77.8349 45.895 77.703 45.8045 77.6151 45.7592C77.4393 45.6234 77.2635 45.3518 77.2635 44.9897C77.2635 44.6276 77.3953 44.4012 77.5711 44.2202C77.8349 43.9939 78.1425 43.9486 78.4062 43.9486H79.3292V47.2076ZM78.4941 44.4465C78.3623 44.4465 77.8788 44.4465 77.8788 44.9444C77.8788 45.4423 78.3623 45.4423 78.4941 45.4423H78.67V44.4465H78.4941Z" fill="white"/>
<path d="M84.8673 45.5783C84.8673 46.5742 84.164 47.2984 83.1531 47.2984C82.1422 47.2984 81.4829 46.5742 81.4829 45.5783C81.4829 44.5825 82.1861 43.8583 83.1531 43.8583C84.164 43.8583 84.8673 44.5825 84.8673 45.5783ZM84.208 45.5783C84.208 44.8994 83.7684 44.4467 83.1531 44.4467C82.5378 44.4467 82.0982 44.8994 82.0982 45.5783C82.0982 46.2573 82.5378 46.71 83.1531 46.71C83.7684 46.71 84.208 46.2573 84.208 45.5783Z" fill="white"/>
<path d="M85.658 43.9486H87.504V44.4918H86.2733V45.2613H86.7128C86.9326 45.2613 87.2403 45.3065 87.504 45.5329C87.6798 45.7139 87.8117 45.9402 87.8117 46.2571C87.8117 46.4834 87.7677 46.6645 87.6359 46.8455C87.3721 47.2076 87.0205 47.2529 86.7128 47.2529H85.658V43.9486ZM86.2733 46.6645H86.581C87.0645 46.6645 87.1524 46.4381 87.1524 46.2571C87.1524 46.0308 87.0205 45.8044 86.581 45.8044H86.2733V46.6645Z" fill="white"/>
<path d="M91.0644 43.9486V47.2076H90.4491V44.4918H89.5261V45.9402C89.5261 46.2571 89.5261 46.7097 89.1745 47.0266C89.0426 47.1171 88.8668 47.2529 88.5591 47.2529C88.4712 47.2529 88.3833 47.2529 88.2954 47.2076V46.6645C88.3394 46.6645 88.3833 46.7097 88.4712 46.7097C88.6031 46.7097 88.691 46.6645 88.7349 46.5739C88.9107 46.3929 88.9107 46.1213 88.9107 45.8044V43.9486H91.0644Z" fill="white"/>
<path d="M93.9213 46.5289H92.6466L92.3829 47.2079H91.7236L93.0862 43.8583H93.5697L94.8882 47.2079H94.229L93.9213 46.5289ZM93.7455 45.9857L93.3059 44.8088L92.8664 45.9857H93.7455Z" fill="white"/>
<path d="M97.7453 47.072C97.5695 47.1626 97.3057 47.2531 96.9541 47.2531C96.3827 47.2531 96.0751 47.072 95.8114 46.8004C95.4598 46.4383 95.2839 46.031 95.2839 45.533C95.2839 44.9446 95.5037 44.492 95.8114 44.2656C96.119 43.9488 96.5146 43.813 96.9981 43.813C97.2178 43.813 97.4816 43.8583 97.7892 43.994V44.7183C97.5255 44.3562 97.1299 44.3562 97.042 44.3562C96.3828 44.3562 95.9872 44.8993 95.9872 45.4878C95.9872 46.212 96.5146 46.6194 97.042 46.6194C97.3497 46.6194 97.6134 46.4836 97.7892 46.2573V47.072H97.7453Z" fill="white"/>
<path d="M99.5471 44.4918V47.2076H98.9318V44.4918H98.2285V43.9486H100.294V44.4918H99.5471Z" fill="white"/>
<path d="M100.91 43.9486H101.525V45.216H102.008C102.228 45.216 102.536 45.2613 102.8 45.4876C102.975 45.6687 103.107 45.895 103.107 46.2118C103.107 46.4382 103.063 46.6192 102.931 46.8003C102.712 47.1624 102.316 47.2076 102.052 47.2076H100.954V43.9486H100.91ZM101.525 46.6645H101.877C101.965 46.6645 102.448 46.6645 102.448 46.2118C102.448 45.9855 102.316 45.7592 101.877 45.7592H101.481V46.6645H101.525Z" fill="white"/>
<path d="M45.5295 23.1722H47.3756V23.7154H46.1449V24.4849H46.5844C46.8042 24.4849 47.1118 24.5302 47.3756 24.7565C47.5514 24.9376 47.6832 25.1639 47.6832 25.4807C47.6832 25.7071 47.6393 25.8881 47.5074 26.0692C47.2876 26.4313 46.8921 26.4766 46.5844 26.4766H45.5295V23.1722V23.1722ZM46.1449 25.8881H46.4525C46.936 25.8881 47.0239 25.6618 47.0239 25.4807C47.0239 25.2544 46.936 25.0281 46.4525 25.0281H46.1449V25.8881Z" fill="white"/>
<path d="M50.496 25.7522H49.2213L48.9576 26.4311H48.2544L49.6169 23.0815H50.1004L51.419 26.4311H50.7597L50.496 25.7522ZM50.3202 25.2542L49.8806 24.0774L49.4411 25.2542H50.3202Z" fill="white"/>
<path d="M54.4518 26.3406C54.276 26.4311 54.0123 26.5217 53.6607 26.5217C53.0893 26.5217 52.7816 26.3406 52.474 26.069C52.1223 25.7069 51.9465 25.2995 51.9465 24.8016C51.9465 24.2132 52.1663 23.7605 52.474 23.5342C52.7816 23.2173 53.1772 23.0815 53.6607 23.0815C53.8805 23.0815 54.1442 23.1268 54.4518 23.2626V23.9868C54.1442 23.6247 53.7925 23.6247 53.6607 23.6247C53.0454 23.6247 52.6058 24.1679 52.6058 24.7563C52.6058 25.4806 53.1333 25.8879 53.6607 25.8879C53.9684 25.8879 54.2321 25.7521 54.4079 25.5258V26.3406H54.4518Z" fill="white"/>
<path d="M55.9903 24.5756L57.1331 23.2177H57.9243L56.5617 24.7114L57.9682 26.4767H57.1331L55.9903 25.0282L55.9464 25.1188V26.522H55.3311V23.2629H55.9464V24.5756H55.9903Z" fill="white"/>
<path d="M60.5176 23.7154H59.3749V24.4397H60.4737V24.9828H59.3749V25.8881H60.5176V26.4313H58.7595V23.1722H60.5176V23.7154Z" fill="white"/>
<path d="M62.4953 23.7154V26.4313H61.88V23.7154H61.1768V23.1722H63.1986V23.7154H62.4953Z" fill="white"/>
<path d="M63.9458 23.1722H65.7918V23.7154H64.5611V24.4849H65.0007C65.2204 24.4849 65.572 24.5302 65.7918 24.7565C65.9676 24.9376 66.0995 25.1639 66.0995 25.4807C66.0995 25.7071 66.0555 25.8881 65.9237 26.0692C65.7039 26.4313 65.3083 26.4766 65.0007 26.4766H63.9458V23.1722ZM64.5611 25.8881H64.8688C65.3523 25.8881 65.4402 25.6618 65.4402 25.4807C65.4402 25.2544 65.3523 25.0281 64.8688 25.0281H64.5611V25.8881Z" fill="white"/>
<path d="M70.2308 24.8016C70.2308 25.7974 69.5275 26.5217 68.5166 26.5217C67.5057 26.5217 66.8025 25.7974 66.8025 24.8016C66.8025 23.8058 67.5057 23.0815 68.5166 23.0815C69.5275 23.1268 70.2308 23.8058 70.2308 24.8016ZM69.6155 24.8016C69.6155 24.1226 69.1759 23.67 68.5606 23.67C67.9453 23.67 67.5057 24.1226 67.5057 24.8016C67.5057 25.4806 67.9453 25.9332 68.5606 25.9332C69.1759 25.9332 69.6155 25.4806 69.6155 24.8016Z" fill="white"/>
<path d="M73.6155 23.1722V26.4313H73.0001V23.7154H72.0771V25.1639C72.0771 25.4807 72.0771 25.9334 71.7255 26.2502C71.5936 26.3408 71.4178 26.4766 71.1102 26.4766C71.0222 26.4766 70.9343 26.4766 70.8464 26.4313V25.8881C70.8904 25.8881 70.9783 25.9334 71.0222 25.9334C71.1541 25.9334 71.242 25.8881 71.286 25.7976C71.4618 25.6165 71.4618 25.345 71.4618 25.0281V23.1722H73.6155Z" fill="white"/>
<path d="M74.7139 23.1722H75.3292V24.4397H75.8127C76.0324 24.4397 76.3401 24.4849 76.6038 24.7112C76.7796 24.8923 76.8675 25.1186 76.8675 25.4355C76.8675 25.6618 76.7796 25.8429 76.6917 26.0239C76.472 26.386 76.0764 26.4313 75.8127 26.4313H74.7139V23.1722V23.1722ZM75.3292 25.8881H75.6808C75.7687 25.8881 76.2522 25.8881 76.2522 25.4355C76.2522 25.2092 76.1203 24.9828 75.6808 24.9828H75.3292V25.8881Z" fill="white"/>
<path d="M78.318 24.4397H79.6366V23.1722H80.2519V26.4313H79.6366V24.9828H78.318V26.4313H77.7026V23.1722H78.318V24.4397Z" fill="white"/>
<path d="M81.3511 23.1722H81.9664V24.4397H82.4499C82.6696 24.4397 82.9773 24.4849 83.241 24.7112C83.4168 24.8923 83.5487 25.1186 83.5487 25.4355C83.5487 25.6618 83.4608 25.8429 83.3729 26.0239C83.1531 26.386 82.7576 26.4313 82.4499 26.4313H81.3511V23.1722ZM81.9664 25.8881H82.318C82.4059 25.8881 82.8894 25.8881 82.8894 25.4355C82.8894 25.2092 82.8015 24.9828 82.318 24.9828H81.9225V25.8881H81.9664ZM84.4277 23.1722V26.4313H83.8124V23.1722H84.4277Z" fill="white"/>
<path d="M86.1417 23.1721V25.39L87.8998 23.1268H88.3393V26.4764H87.724V24.2584L85.9659 26.5217H85.5264V23.1721H86.1417ZM86.4933 22.131C86.5812 22.4026 86.8449 22.4026 86.9329 22.4026C86.9768 22.4026 87.2405 22.4026 87.3724 22.131L87.8119 22.312C87.68 22.6289 87.3724 22.8552 86.9768 22.8552C86.5373 22.8552 86.2296 22.6289 86.0978 22.312L86.4933 22.131Z" fill="white"/>
<path d="M91.504 24.5756L92.6468 23.2177H93.4379L92.1193 24.7114L93.5258 26.4767H92.6907L91.548 25.0282L91.4601 25.1188V26.522H90.8887V23.2629H91.504V24.5756Z" fill="white"/>
<path d="M96.7344 23.1722V26.4313H96.119V23.7154H95.196V25.1639C95.196 25.4807 95.196 25.9334 94.8444 26.2502C94.7125 26.3408 94.5367 26.4766 94.2291 26.4766C94.1411 26.4766 94.0532 26.4766 93.9653 26.4313V25.8881C94.0093 25.8881 94.0532 25.9334 94.1411 25.9334C94.273 25.9334 94.3609 25.8881 94.4488 25.7976C94.6246 25.6165 94.6246 25.345 94.6246 25.0281V23.1722H96.7344Z" fill="white"/>
<path d="M98.1408 23.1722L98.9319 24.8018L99.5912 23.1722H100.25L98.8001 26.4313H98.1408L98.5803 25.526L97.3936 23.1722H98.1408Z" fill="white"/>
<path d="M101.042 23.1722H102.887V23.7154H101.657V24.4849H102.096C102.36 24.4849 102.668 24.5302 102.887 24.7565C103.063 24.9376 103.195 25.1639 103.195 25.4807C103.195 25.7071 103.107 25.8881 103.019 26.0692C102.756 26.4313 102.36 26.4766 102.096 26.4766H101.042V23.1722ZM101.657 25.8881H101.964C102.448 25.8881 102.536 25.6618 102.536 25.4807C102.536 25.2544 102.448 25.0281 101.964 25.0281H101.657V25.8881Z" fill="white"/>
<path d="M99.5034 80.1604C99.1518 66.8526 87.9439 56.3059 74.9339 56.3059C61.7042 56.3059 50.9797 67.3505 50.9797 80.9751C50.9797 91.386 57.265 100.303 66.1434 103.924V108.36C66.1434 112.977 69.6596 112.977 70.9342 112.977H71.5496H71.6814C72.8681 112.932 73.7472 112.887 74.6702 114.38L74.9339 114.743L75.1976 114.38C76.2085 112.932 76.692 112.932 78.0985 112.977H78.3183H78.9776C79.9006 112.977 81.4829 112.977 82.6256 111.891C83.4168 111.076 83.8123 109.854 83.8123 108.315V104.649C100.295 97.3609 99.5034 80.1604 99.5034 80.1604Z" fill="#394466"/>
<path d="M74.1865 54.1329C86.9767 54.1782 97.3496 64.7701 97.3496 77.8063C97.3496 90.8878 86.9767 101.48 74.1865 101.48V54.1329Z" fill="url(#paint3_radial_429_1159)"/>
<path d="M74.7577 54.1329C69.5713 54.1329 64.8245 55.8982 60.9566 58.7952C60.9127 58.7047 60.8248 58.6594 60.7808 58.5689C60.6929 58.4331 60.5171 58.3425 60.3852 58.3425C59.3304 58.3425 55.946 63.5027 54.0121 66.5807L53.8803 66.807L54.1 67.0786C52.5177 70.2924 51.5947 73.9136 51.5947 77.7611C51.5947 81.2917 52.3419 84.6413 53.7044 87.6287C53.4847 87.8551 53.3528 88.0361 53.3089 88.0361L53.0891 88.2624L59.4622 97.3154L60.2534 96.229C64.2091 99.4881 69.2637 101.434 74.7138 101.434V54.1329H74.7577ZM60.3413 59.2026C60.3852 59.2478 60.3852 59.2478 60.4292 59.2931C60.0776 59.5647 59.7259 59.8363 59.4183 60.1531C59.8139 59.6552 60.1655 59.2931 60.3413 59.2026ZM59.5062 96.1385L58.4513 94.6448C58.8469 95.0521 59.2864 95.4595 59.726 95.8669L59.5062 96.1385Z" fill="url(#paint4_radial_429_1159)"/>
<path d="M59.5061 96.7721L53.5725 88.3529C53.5725 88.3529 57.3085 84.4601 59.9456 80.6579C62.5828 76.9009 59.5061 73.4156 59.5061 73.4156L54.3197 66.8522C54.3197 66.8522 59.9017 57.9803 60.517 58.8403C63.0223 62.2352 69.3075 70.7902 71.3294 73.4608C74.0544 77.0367 71.5491 80.5674 71.5491 80.5674L59.5061 96.7721Z" fill="white"/>
<path d="M74.7581 66.264C74.7141 66.264 74.7141 66.264 74.6262 66.264C71.9012 66.1734 69.3959 63.7291 68.1652 59.8817C67.4619 57.6637 65.8357 56.0794 65.1764 55.491C65.1325 55.4457 65.0885 55.4005 65.1325 55.3552C65.1325 55.3552 65.1764 55.2647 65.2643 55.2647C65.3962 55.2647 65.7478 55.4004 65.9236 55.4457C65.9236 55.4004 65.9236 55.4005 65.9236 55.3552C65.9676 55.1289 66.0115 54.812 66.2752 54.812C66.3631 54.812 66.451 54.8573 66.5829 54.9931C67.5059 55.9436 68.7805 57.4826 69.4398 59.5195C70.4947 62.7786 72.4725 64.8608 74.6262 64.9966L74.802 65.0418C74.7581 65.6303 74.7581 66.264 74.7581 66.264Z" fill="white"/>
<path d="M74.7578 64.9515L74.9336 64.9062C77.0873 64.7704 79.0652 62.6883 80.12 59.4292C80.7793 57.3923 82.054 55.8533 82.977 54.9027C83.0649 54.8122 83.1967 54.7217 83.2846 54.7217C83.5044 54.7217 83.5923 55.0385 83.6362 55.2649C83.6362 55.3101 83.6362 55.3101 83.6362 55.3554C83.8121 55.3101 84.1637 55.1743 84.2955 55.1743C84.3834 55.1743 84.4274 55.2196 84.4274 55.2649C84.4274 55.3101 84.4274 55.3554 84.3834 55.4006C83.7242 55.9891 82.0979 57.5734 81.3947 59.7913C80.164 63.6388 77.6587 66.0831 74.9336 66.1736C74.8897 66.1736 74.8457 66.1736 74.8018 66.1736C74.7578 66.2642 74.7578 65.6305 74.7578 64.9515Z" fill="url(#paint5_linear_429_1159)"/>
<path d="M74.802 77.1277H51.1995V78.4403H74.802V77.1277Z" fill="white"/>
<path d="M98.7999 77.1277H88.471C88.6029 75.0003 89.9654 73.416 89.9654 73.416L95.1518 66.8527C95.1518 66.8527 89.5698 57.9808 88.9545 58.8408C86.4492 62.2357 80.164 70.7907 78.1422 73.4613C77.1752 74.7287 76.8675 75.9961 76.8675 77.1277H74.7578V78.4404H76.9994C77.2631 79.7531 77.8784 80.6131 77.8784 80.6131L89.9654 96.8179L95.899 88.3986C95.899 88.3986 92.163 84.5059 89.5259 80.7036C88.9985 79.9341 88.6908 79.1646 88.5589 78.4404H98.7999V77.1277Z" fill="url(#paint6_linear_429_1159)"/>
<path d="M74.67 102.476C61.4403 102.476 50.7158 91.3862 50.7158 77.8068C50.7158 64.1821 61.4842 53.1376 74.67 53.1376C87.8997 53.1376 98.6242 64.2274 98.6242 77.8068C98.6681 91.3862 87.8997 102.476 74.67 102.476ZM74.67 54.8124C62.3633 54.8124 52.386 65.1327 52.386 77.7615C52.386 90.4356 62.3633 100.711 74.67 100.711C86.9767 100.711 96.954 90.4356 96.954 77.7615C96.954 65.1327 86.9767 54.8124 74.67 54.8124Z" fill="white" stroke="white" stroke-width="1.6343" stroke-miterlimit="10"/>
<path d="M65.9675 90.8431V106.641C65.9675 111.257 69.4398 111.257 70.7584 111.257H71.3737H71.5056C72.6923 111.212 73.5713 111.167 74.4943 112.661L74.7581 113.023L75.0218 112.661C76.0327 111.212 76.5162 111.212 77.9226 111.257H78.1424H78.8017C79.7247 111.257 81.307 111.257 82.4498 110.171C83.2409 109.356 83.6804 108.134 83.6804 106.595V90.8431H65.9675Z" fill="white"/>
<path fill-rule="evenodd" clip-rule="evenodd" d="M82.8015 91.7483C82.8015 91.7483 82.8015 102.793 82.8015 106.686C82.8455 110.669 80.0325 110.578 78.67 110.578C77.3074 110.578 75.6372 110.262 74.8021 111.846C74.7582 111.891 74.8021 111.936 74.7582 111.891C73.9231 110.307 72.165 110.578 70.8464 110.578C69.5718 110.578 66.7148 110.669 66.7148 106.731C66.7148 102.793 66.7148 91.7483 66.7148 91.7483H82.8015" fill="url(#paint7_linear_429_1159)"/>
<path d="M82.2301 96.8634C82.2741 96.8181 82.2741 96.8181 82.0543 96.8181C81.9225 96.8181 81.0874 96.8181 80.8237 96.8181C80.8676 96.7729 81.1313 96.5466 81.1313 96.5013C81.1753 96.5013 81.3072 96.6371 81.3072 96.6371L81.8346 95.596L80.7358 96.275C80.7358 96.275 80.8676 96.3655 80.9116 96.3655C80.8676 96.4108 80.472 96.8181 80.472 96.8181C80.472 96.8181 80.4721 96.8181 80.4281 96.8634C80.2523 96.8634 78.7579 96.8634 78.5381 96.8634C78.2305 96.8634 78.0546 96.9992 77.8788 97.1803C77.6151 97.1803 77.3514 97.135 77.1317 97.135C77.0877 97.135 76.8679 97.1803 76.7361 97.0897C76.5163 96.9539 76.3845 96.9087 76.1207 96.9087C75.901 96.9087 75.8131 96.9539 75.7691 96.9539C75.6812 96.8634 75.7252 96.7729 75.6812 96.7276C75.6812 96.6824 75.6373 96.6823 75.5933 96.6371L75.7691 96.6823C75.8131 96.6823 75.857 96.6823 75.857 96.6371C75.901 96.5918 76.2086 96.3655 76.3845 96.0486C76.2965 95.8676 76.0768 96.0486 76.0768 95.9581C76.0328 95.7771 76.0768 95.6865 76.0328 95.596C75.901 95.3244 75.5494 95.2339 75.2856 95.2791C75.1977 95.2791 75.1977 95.2791 75.1538 95.2791C75.0659 95.2791 74.978 95.3244 74.934 95.4149C74.8461 95.596 74.8022 95.6413 74.7582 95.6865C74.7582 95.6865 74.6263 95.8676 74.6263 95.9128L74.6703 95.9581C74.6703 96.0034 74.6703 96.0486 74.6703 96.0939C74.6703 96.1392 74.6703 96.1392 74.6263 96.1844C74.6263 96.1844 74.6263 96.1844 74.6263 96.2297H74.5824C74.5824 96.275 74.5824 96.3202 74.5384 96.3655C74.4945 96.456 74.5384 96.456 74.5384 96.456C74.5824 96.5013 74.7582 96.5466 74.8461 96.5918C74.8461 96.6823 74.8461 96.7729 74.8022 96.8634H74.7582C74.6263 96.8634 74.3187 96.5918 74.1429 96.5465C73.9231 96.456 73.8352 96.456 73.5275 96.456C73.3957 96.456 73.2199 96.456 73.132 96.456C72.8682 96.4108 72.8243 96.3202 72.6924 96.0939C72.4727 95.8676 72.3848 95.8223 72.165 95.6413C72.0331 95.5055 71.9452 95.3697 71.9013 95.2339C71.9013 95.1434 71.9892 95.1434 71.9892 95.0528C71.9892 95.0076 71.9892 95.0076 71.9892 95.0076C72.0771 94.9623 72.2529 94.8265 72.2529 94.8265C72.4727 94.6454 72.6045 94.5096 72.6924 94.3286L72.7803 94.1928C73.088 93.8307 73.5715 93.9665 73.9671 94.1023H74.011C74.4945 94.2833 75.1977 94.3286 75.5494 93.9212C75.5494 93.8759 75.5494 93.8307 75.5494 93.7854C75.5494 93.7402 75.5054 93.7402 75.4614 93.6949C75.4175 93.6949 75.3296 93.7402 75.2856 93.7854C75.2417 93.8307 75.1538 93.8759 75.0659 93.8759C74.5384 93.9665 74.2308 93.8307 73.8791 93.6949L73.5715 93.5591C73.088 93.4233 72.7803 93.5591 72.5166 93.9212L72.4727 94.0117C72.4287 94.1023 72.3848 94.1928 72.2969 94.2833C72.2529 94.3739 72.0331 94.6002 71.9013 94.6907L71.8573 94.6002C71.7694 94.5096 71.6376 94.6002 71.5936 94.6454C71.5497 94.6454 71.5497 94.6454 71.5497 94.6454C71.5057 94.6454 71.4618 94.6002 71.4178 94.6454C71.4178 94.6454 71.1541 94.8718 71.1101 94.917C71.0662 94.9623 71.0662 95.0528 71.0662 95.0981C71.0662 95.0981 71.1101 95.1433 71.1101 95.1886C70.8904 95.3244 70.8025 95.3697 70.319 95.3697C69.8795 95.4149 69.396 95.8223 69.352 96.5013C69.352 96.5918 69.352 96.6371 69.352 96.7276V96.8181V96.9539C69.352 97.135 69.396 97.3613 69.396 97.4971C69.352 97.814 69.2202 97.995 68.9125 98.2213C68.8686 98.2666 68.8686 98.3119 68.8686 98.3571C68.8686 98.4024 68.9125 98.4477 68.9125 98.4477C68.9565 98.4477 69.0004 98.4929 69.0444 98.4477C69.352 98.2213 69.4839 97.995 69.5278 97.9045C69.6157 97.7234 69.6597 97.5424 69.6597 97.4066C69.6597 97.3161 69.6597 97.2708 69.6597 97.1803C69.6597 97.0897 69.6597 97.0445 69.6597 96.9539C69.6597 96.9539 69.6597 96.9087 69.6597 96.8634C69.6597 96.6823 69.7037 96.456 69.7916 96.275C70.0113 95.7771 70.3629 95.7318 70.6267 95.6865C70.7146 95.6413 70.8904 95.596 70.9343 95.5507L71.1541 95.3697C71.198 95.3697 71.198 95.3697 71.242 95.3697V95.4149C71.3739 95.6413 71.5497 95.7771 71.6815 95.9581C71.9013 96.2297 72.0331 96.4108 72.4287 96.8181C72.5166 96.9087 72.6045 96.9087 72.6924 96.9539C73.0001 96.9992 73.3078 96.9992 73.6154 97.0445C73.5275 97.4971 73.5275 97.9498 73.5275 97.995C73.2199 98.2666 73.044 98.4929 72.7803 98.7645C72.6485 98.855 72.5166 98.9003 72.3848 98.9908C72.209 99.1719 72.0771 99.3077 71.9013 99.5793H71.8573C71.5057 99.2172 71.5057 99.2172 70.6267 98.2213C70.5827 98.1761 70.4509 98.1308 70.319 98.2213C70.0553 98.3571 69.7916 98.4929 69.5278 98.674C69.1762 98.855 68.9125 98.9908 68.7367 99.0814C68.5609 99.2624 68.429 99.4435 68.1653 99.7603C68.1214 99.8056 67.9895 100.168 67.9895 100.304H68.8686C68.9565 100.304 68.9125 99.9414 68.8686 99.8961C68.8246 99.8961 69.0444 99.7151 69.1323 99.7151C69.2641 99.5793 69.3081 99.4435 69.396 99.3077C69.6597 99.1719 69.9674 99.0361 70.2311 98.9908C70.4509 99.3077 70.7146 99.6698 70.9343 100.032C70.6706 99.8961 70.1432 99.3982 69.8795 99.2172C69.8355 99.1719 69.5278 99.3077 69.5278 99.3982C69.5278 99.4888 69.5278 101.118 69.5278 101.435C69.5278 101.48 69.4839 101.842 69.6158 102.024C69.7476 102.205 69.8795 102.431 70.0113 102.657C70.0553 102.703 70.0553 102.703 70.0553 102.748C70.275 102.793 70.4948 102.838 70.7585 102.884C70.7585 102.884 70.8025 102.884 70.7585 102.838C70.7146 102.612 70.6706 102.431 70.3629 102.114C70.275 101.933 70.1871 101.616 70.0553 101.254C70.0553 101.164 69.9674 100.439 70.0113 100.439C70.0553 100.439 70.6267 101.299 70.8904 101.526C70.8904 101.526 71.0662 101.616 71.0662 101.707C71.1541 102.205 71.4618 102.521 71.7255 102.884C71.8573 103.019 71.8573 103.065 72.121 103.336C72.6485 103.744 73.1759 104.015 73.7913 104.377C73.8792 104.423 73.8792 104.423 73.9231 104.468C73.9231 104.558 73.9231 104.423 73.9231 104.739C73.9231 104.92 73.9231 105.147 73.9231 105.237C74.3187 105.69 74.7582 106.097 75.1977 106.505V106.55C74.4505 106.641 74.3187 106.595 73.8791 106.595C73.8352 106.595 73.7912 106.641 73.7033 106.686C73.5275 106.776 73.3517 106.957 73.132 107.048C73.0001 107.138 72.8682 107.184 72.7364 107.32C72.6924 107.41 72.2969 107.998 72.4287 107.953C72.5166 107.953 73.088 107.953 73.3517 107.953C73.4396 107.908 73.3517 107.636 73.3517 107.591C73.3517 107.32 73.6594 107.455 73.8352 107.455C74.011 107.32 74.1429 107.229 74.3626 107.138C74.4066 107.138 74.4505 107.138 74.5384 107.138L74.4066 107.274C74.2308 107.455 74.0989 107.546 73.7473 107.817C73.6594 107.953 73.4836 108.18 73.4396 108.451C73.4836 108.451 74.4066 108.451 74.4066 108.451C74.4066 108.27 74.4066 108.134 74.4945 107.998C74.6264 107.953 74.6263 107.998 74.7582 107.998C74.8022 107.998 74.8461 107.953 74.8901 107.908C74.8901 107.908 75.0219 107.772 75.1098 107.636C75.1098 107.636 75.0659 107.591 75.0219 107.546L75.0659 107.501H75.1098H76.6042C76.7361 107.501 76.9119 107.365 76.824 107.184C76.4724 106.686 76.1207 106.233 75.7691 105.735C75.7691 105.735 75.8131 105.69 75.8131 105.645C76.2086 105.283 76.5163 105.056 76.8679 104.649L76.824 104.694C76.9119 104.604 76.9998 104.468 76.9998 104.377C77.0437 104.423 77.0437 104.423 77.0877 104.423C77.2196 104.558 77.3514 104.694 77.3954 104.875C77.3514 105.373 77.3075 105.781 77.2635 106.233C77.2635 106.324 77.2635 106.459 77.3514 106.55C77.4393 106.776 77.703 107.048 77.703 107.093C77.8788 107.32 78.0107 107.501 78.1426 107.682C78.1426 107.682 78.1426 107.682 78.1865 107.682C78.3184 107.546 79.1535 106.686 79.1974 106.641C79.2414 106.595 79.1974 106.595 79.1974 106.595C79.1095 106.595 78.8897 106.595 78.7579 106.595L79.2414 106.052H78.4063C78.4063 105.69 78.4063 105.418 78.3623 105.102C78.2744 104.966 78.0986 104.694 78.0546 104.649C77.9228 104.468 77.5272 104.106 77.1317 103.789C77.1317 103.608 77.1316 103.608 77.0877 103.472C76.9558 103.019 76.824 102.838 76.3845 102.476C76.2526 102.386 76.0768 102.25 75.901 102.114C75.6373 101.978 75.1977 101.797 75.0659 101.661C75.0219 101.616 74.934 101.571 74.8901 101.526C73.7913 100.937 73.9671 99.4887 74.8901 99.0814C75.0219 98.9908 75.5054 98.7645 76.2086 97.9498L76.4724 97.5424H77.2635C77.2635 97.5424 77.0437 97.9045 76.6921 97.9498C76.6482 97.9498 76.3844 97.9498 76.2965 97.9498C76.1207 98.1761 75.857 98.4929 75.5933 98.7193C74.8461 99.2624 74.5384 99.7603 74.4945 99.8509C75.2856 99.8509 75.9449 99.8509 76.4724 99.8509C76.7361 99.8509 76.824 99.8056 76.9998 99.7151C77.0437 99.6698 77.2195 99.534 77.3954 99.353C77.3954 99.353 78.5821 98.2213 78.67 98.1308L78.7579 98.0403C78.9777 98.0403 79.1095 98.0403 79.1095 98.0403C79.1095 98.0403 78.8898 98.2666 78.1426 98.9908C78.0986 98.9908 78.0107 99.0361 78.0107 99.0361L77.2635 99.7603C77.2635 99.7603 77.3514 99.8056 77.3514 99.8509C77.3075 99.8961 77.3075 99.8961 77.3075 99.9414C77.3075 99.9414 77.3075 99.9867 77.3514 100.032C77.3954 100.077 77.4833 100.077 77.5272 100.032C77.5712 100.032 77.6151 100.122 77.6151 100.122L78.3623 99.353L78.4063 99.1719C79.4611 98.1308 79.5051 98.0856 79.5051 98.0856H79.549C79.8128 98.0856 80.6479 98.0856 80.9995 98.0856C80.9995 98.0856 82.0983 96.9539 82.2301 96.8634Z" fill="white"/>
<path d="M69.9671 119.677H69.3079V118.907H70.8462V123.569H69.9671V119.677Z" fill="#394466"/>
<path d="M72.3847 123.162L73.4395 121.759C73.3077 121.804 73.1319 121.849 72.9121 121.849C72.1649 121.849 71.5056 121.306 71.5056 120.355C71.5056 119.541 72.033 118.726 73.2198 118.726C74.3625 118.726 74.9339 119.495 74.9339 120.31C74.9339 120.899 74.6702 121.351 74.3625 121.759L73 123.66L72.3847 123.162ZM72.3847 120.31C72.3847 120.808 72.7363 121.17 73.2198 121.17C73.7032 121.17 74.0549 120.808 74.0549 120.31C74.0549 119.812 73.7032 119.45 73.2198 119.45C72.7363 119.45 72.3847 119.812 72.3847 120.31Z" fill="#394466"/>
<path d="M76.3402 123.162L77.3951 121.759C77.2633 121.804 77.0874 121.849 76.8677 121.849C76.1205 121.849 75.4612 121.306 75.4612 120.355C75.4612 119.541 75.9886 118.726 77.1753 118.726C78.3181 118.726 78.8895 119.495 78.8895 120.31C78.8895 120.899 78.6258 121.351 78.3181 121.759L76.9556 123.66L76.3402 123.162ZM76.2523 119.948C76.2523 120.446 76.604 120.808 77.0874 120.808C77.5709 120.808 77.9226 120.446 77.9226 119.948C77.9226 119.45 77.5709 119.088 77.0874 119.088C76.604 119.133 76.2523 119.495 76.2523 119.948Z" fill="#394466"/>
<path d="M81.4383 119.677H79.3286V118.907H82.8009L80.0758 123.75L79.4165 123.298L81.4383 119.677Z" fill="#394466"/>
<path d="M69.5275 119.179H68.8682V118.409H70.4065V123.072H69.5275V119.179Z" fill="white"/>
<path d="M71.901 122.664L72.9559 121.261C72.824 121.306 72.6482 121.351 72.4724 121.351C71.7252 121.351 71.0659 120.808 71.0659 119.858C71.0659 119.043 71.5933 118.228 72.7801 118.228C73.9228 118.228 74.4942 118.998 74.4942 119.812C74.4942 120.401 74.2305 120.853 73.9228 121.261L72.5603 123.162L71.901 122.664ZM71.945 119.767C71.945 120.265 72.2966 120.627 72.7801 120.627C73.2635 120.627 73.6152 120.265 73.6152 119.767C73.6152 119.269 73.2635 118.907 72.7801 118.907C72.2966 118.952 71.945 119.314 71.945 119.767Z" fill="white"/>
<path d="M75.9005 122.664L76.9554 121.261C76.8235 121.306 76.6477 121.351 76.4719 121.351C75.7247 121.351 75.0654 120.808 75.0654 119.858C75.0654 119.043 75.5929 118.228 76.7796 118.228C77.9223 118.228 78.4937 118.998 78.4937 119.812C78.4937 120.401 78.23 120.853 77.9223 121.261L76.5598 123.162L75.9005 122.664ZM75.9005 119.767C75.9005 120.265 76.2521 120.627 76.7356 120.627C77.2191 120.627 77.5707 120.265 77.5707 119.767C77.5707 119.269 77.2191 118.907 76.7356 118.907C76.2521 118.952 75.9005 119.314 75.9005 119.767Z" fill="white"/>
<path d="M80.9986 119.179H78.8889V118.409H82.3612L79.6361 123.253L78.9768 122.8L80.9986 119.179Z" fill="white"/>
</g>
<defs>
<radialGradient id="paint0_radial_429_1159" cx="0" cy="0" r="1" gradientUnits="userSpaceOnUse" gradientTransform="translate(39.323 4.59528) scale(107.579 108.663)">
<stop stop-color="#DEC43B"/>
<stop offset="0.0935271" stop-color="#C8AD36"/>
<stop offset="0.2198" stop-color="#B3972F"/>
<stop offset="0.3091" stop-color="#AC902D"/>
<stop offset="0.5305" stop-color="#A88D31"/>
<stop offset="0.8597" stop-color="#A18738"/>
<stop offset="1" stop-color="#9E843C"/>
</radialGradient>
<radialGradient id="paint1_radial_429_1159" cx="0" cy="0" r="1" gradientUnits="userSpaceOnUse" gradientTransform="translate(62.171 40.1617) scale(66.1872 68.1629)">
<stop stop-color="#475393"/>
<stop offset="0.1071" stop-color="#495C9E"/>
<stop offset="0.2191" stop-color="#4B63A6"/>
<stop offset="0.339" stop-color="#4C68AC"/>
<stop offset="0.4788" stop-color="#4D6AAF"/>
<stop offset="0.6121" stop-color="#4D68AB"/>
<stop offset="0.769" stop-color="#4D65A2"/>
<stop offset="0.9372" stop-color="#4E5F95"/>
<stop offset="1" stop-color="#4E5D90"/>
</radialGradient>
<linearGradient id="paint2_linear_429_1159" x1="18.9801" y1="74.9742" x2="130.701" y2="74.9742" gradientUnits="userSpaceOnUse">
<stop stop-color="#475393"/>
<stop offset="0.1071" stop-color="#43538B"/>
<stop offset="0.2191" stop-color="#405286"/>
<stop offset="0.339" stop-color="#3E5282"/>
<stop offset="0.4788" stop-color="#3D5281"/>
<stop offset="0.5968" stop-color="#3E5180"/>
<stop offset="0.7357" stop-color="#3E4F7D"/>
<stop offset="0.8846" stop-color="#3F4B77"/>
<stop offset="1" stop-color="#3F4772"/>
</linearGradient>
<radialGradient id="paint3_radial_429_1159" cx="0" cy="0" r="1" gradientUnits="userSpaceOnUse" gradientTransform="translate(72.226 77.8469) scale(21.3481 21.9854)">
<stop stop-color="#DEC43B"/>
<stop offset="0.2384" stop-color="#C8AD36"/>
<stop offset="0.5603" stop-color="#B3972F"/>
<stop offset="0.7879" stop-color="#AC902D"/>
</radialGradient>
<radialGradient id="paint4_radial_429_1159" cx="0" cy="0" r="1" gradientUnits="userSpaceOnUse" gradientTransform="translate(81.0804 76.902) scale(22.0298 22.6874)">
<stop stop-color="#475393"/>
<stop offset="0.1071" stop-color="#495C9E"/>
<stop offset="0.2191" stop-color="#4B63A6"/>
<stop offset="0.339" stop-color="#4C68AC"/>
<stop offset="0.4788" stop-color="#4D6AAF"/>
<stop offset="0.6121" stop-color="#4D68AB"/>
<stop offset="0.769" stop-color="#4D65A2"/>
<stop offset="0.9372" stop-color="#4E5F95"/>
<stop offset="1" stop-color="#4E5D90"/>
</radialGradient>
<linearGradient id="paint5_linear_429_1159" x1="74.753" y1="60.5173" x2="84.3896" y2="60.5173" gradientUnits="userSpaceOnUse">
<stop offset="0.2" stop-color="#4D6599"/>
<stop offset="0.2436" stop-color="#4B6192"/>
<stop offset="0.4093" stop-color="#44547D"/>
<stop offset="0.5831" stop-color="#3E4B70"/>
<stop offset="0.7691" stop-color="#3B4669"/>
<stop offset="0.9879" stop-color="#394466"/>
</linearGradient>
<linearGradient id="paint6_linear_429_1159" x1="67.1612" y1="78.2917" x2="90.1208" y2="77.8018" gradientUnits="userSpaceOnUse">
<stop stop-color="#475393"/>
<stop offset="0.1071" stop-color="#495C9E"/>
<stop offset="0.2191" stop-color="#4B63A6"/>
<stop offset="0.339" stop-color="#4C68AC"/>
<stop offset="0.4788" stop-color="#4D6AAF"/>
<stop offset="0.6121" stop-color="#4D68AB"/>
<stop offset="0.769" stop-color="#4D65A2"/>
<stop offset="0.9372" stop-color="#4E5F95"/>
<stop offset="1" stop-color="#4E5D90"/>
</linearGradient>
<linearGradient id="paint7_linear_429_1159" x1="74.7467" y1="89.7237" x2="74.7467" y2="107.975" gradientUnits="userSpaceOnUse">
<stop stop-color="#475393"/>
<stop offset="0.1071" stop-color="#43538B"/>
<stop offset="0.2191" stop-color="#405286"/>
<stop offset="0.339" stop-color="#3E5282"/>
<stop offset="0.4788" stop-color="#3D5281"/>
<stop offset="0.5968" stop-color="#3E5180"/>
<stop offset="0.7357" stop-color="#3E4F7D"/>
<stop offset="0.8846" stop-color="#3F4B77"/>
<stop offset="1" stop-color="#3F4772"/>
</linearGradient>
<clipPath id="clip0_429_1159">
<rect width="111.692" height="130" fill="white" transform="translate(18.9998 10.0001)"/>
</clipPath>
</defs>
</svg>
