<svg width="150" height="150" viewBox="0 0 150 150" fill="none" xmlns="http://www.w3.org/2000/svg">
<path fill-rule="evenodd" clip-rule="evenodd" d="M126.396 25.1195C126.248 24.4763 126.029 23.8585 125.738 23.2659C125.447 22.6731 125.093 22.1215 124.675 21.6109C124.256 21.1003 123.785 20.6439 123.261 20.2422C122.737 19.8405 122.175 19.5038 121.573 19.2321C117.889 17.6277 114.129 16.2272 110.292 15.0312C106.457 13.8349 102.567 12.8503 98.6233 12.0766C94.6804 11.303 90.7066 10.7449 86.7026 10.403C82.6987 10.0608 78.6885 9.93651 74.6711 10.0302C70.6539 9.93651 66.6429 10.0608 62.639 10.403C58.635 10.745 54.6619 11.3031 50.7182 12.0766C46.7753 12.8503 42.8853 13.8349 39.0491 15.0312C35.213 16.2272 31.4529 17.6275 27.7687 19.2321C27.1671 19.5038 26.6043 19.8404 26.0804 20.2422C25.5568 20.6439 25.0856 21.1003 24.6671 21.6109C24.2489 22.1215 23.8945 22.6731 23.6039 23.2659C23.313 23.8585 23.0937 24.4763 22.9458 25.1195C22.9458 25.1195 -3.74204 98.9951 66.8711 138.129C67.4767 138.436 68.0981 138.706 68.7352 138.939C69.3721 139.173 70.0202 139.368 70.6806 139.526C71.34 139.684 72.0073 139.802 72.681 139.881C73.3551 139.961 74.0311 140 74.71 140C75.3884 140 76.0646 139.961 76.7385 139.881C77.4123 139.802 78.0792 139.684 78.7394 139.526C79.3991 139.368 80.0477 139.173 80.6848 138.939C81.3218 138.706 81.9432 138.436 82.5488 138.129C153.084 98.9951 126.396 25.1195 126.396 25.1195Z" fill="white"/>
<path fill-rule="evenodd" clip-rule="evenodd" d="M82.1848 135.504C81.6052 135.8 81.0102 136.061 80.3996 136.286C79.7895 136.512 79.1676 136.7 78.5351 136.853C77.9021 137.005 77.2627 137.119 76.6165 137.196C75.9701 137.273 75.3215 137.311 74.6711 137.311C74.0201 137.311 73.3714 137.273 72.7252 137.196C72.0794 137.119 71.4395 137.005 70.8069 136.853C70.1742 136.701 69.5527 136.512 68.9425 136.286C68.3316 136.061 67.7369 135.8 67.1573 135.504C-0.440087 97.9944 25.0908 27.1993 25.0908 27.1993C25.2324 26.5816 25.4424 25.9879 25.7212 25.4191C25.9999 24.8499 26.3398 24.32 26.7415 23.8295C27.143 23.3391 27.595 22.9011 28.0978 22.5152C28.6006 22.1294 29.1408 21.8062 29.7185 21.5456C33.2501 20.0092 36.8539 18.6684 40.531 17.5228C44.208 16.3775 47.9361 15.4343 51.7154 14.6936C55.4945 13.9529 59.3028 13.4184 63.1401 13.0909C66.9775 12.763 70.8209 12.6439 74.6711 12.7334C78.5223 12.6446 82.3664 12.7642 86.205 13.092C90.0435 13.4201 93.8523 13.9544 97.6326 14.6953C101.413 15.4361 105.142 16.379 108.82 17.5241C112.498 18.6689 116.104 20.0096 119.636 21.5456C120.213 21.8071 120.752 22.1308 121.253 22.5172C121.755 22.9032 122.206 23.3415 122.606 23.8319C123.006 24.3223 123.345 24.8517 123.623 25.4207C123.901 25.9893 124.11 26.5823 124.251 27.1993C124.251 27.1993 149.834 97.9944 82.1848 135.504Z" fill="#D4192D"/>
<path fill-rule="evenodd" clip-rule="evenodd" d="M122.132 29.2397C121.996 28.6498 121.795 28.0831 121.528 27.5395C121.261 26.9958 120.936 26.4897 120.553 26.0209C120.17 25.552 119.738 25.133 119.259 24.7635C118.779 24.3939 118.263 24.0839 117.712 23.833C114.331 22.3622 110.88 21.0788 107.36 19.9823C103.839 18.886 100.269 17.9832 96.6507 17.2741C93.0325 16.565 89.3858 16.0534 85.7119 15.74C82.0381 15.4262 78.3575 15.3124 74.6711 15.3978C70.9855 15.3122 67.306 15.4258 63.6331 15.7393C59.9603 16.0527 56.3153 16.5641 52.6975 17.2732C49.0801 17.9825 45.5112 18.8852 41.9922 19.9818C38.4724 21.0783 35.0226 22.362 31.6427 23.833C31.0901 24.083 30.5735 24.3927 30.0927 24.7617C29.6116 25.1309 29.179 25.5497 28.7945 26.0187C28.4101 26.4875 28.0843 26.9941 27.8165 27.538C27.5489 28.0819 27.3466 28.6493 27.2098 29.2397C27.2098 29.2397 2.73165 97.0194 67.5083 132.917C68.0641 133.198 68.6342 133.446 69.219 133.661C69.8038 133.875 70.399 134.054 71.0051 134.199C71.611 134.344 72.2229 134.452 72.8413 134.525C73.4599 134.597 74.0807 134.634 74.7037 134.634C75.3262 134.634 75.9471 134.597 76.5655 134.525C77.1839 134.452 77.7966 134.344 78.4022 134.199C79.008 134.054 79.603 133.875 80.188 133.661C80.7726 133.446 81.343 133.198 81.8987 132.917C146.623 97.0194 122.132 29.2397 122.132 29.2397ZM29.1728 44.5633C32.0243 45.5283 34.8106 46.6548 37.5313 47.9427C32.1498 101.296 62.4514 123.104 67.8983 126.77C61.0472 123.949 25.6888 107.638 29.1728 44.5633ZM80.9885 126.77C86.4357 123.104 116.737 101.296 111.369 47.9427C114.084 46.6536 116.865 45.5315 119.715 44.5764C123.211 107.638 87.8397 123.949 80.9885 126.77Z" fill="white"/>
<path fill-rule="evenodd" clip-rule="evenodd" d="M85.175 97.7478C84.6417 97.7478 84.6156 97.5916 84.6156 96.9156V94.94C84.6156 94.2642 84.6156 94.2124 85.2265 94.1084H85.3827C85.3827 94.1084 85.3827 93.8874 85.3827 93.8745H83.1987C83.1075 93.8745 83.1075 94.0562 83.1987 94.1084H83.3679C83.9265 94.2124 83.9524 94.2641 83.9524 94.94V96.9156C83.9524 97.5916 83.9524 97.6828 83.3679 97.7478H83.0947C83.0947 97.7478 83.0947 97.9557 83.0947 97.9812C83.0947 98.0072 83.8485 97.9812 84.2648 97.9812C84.6807 97.9812 85.2393 97.9812 85.4605 97.9812C85.6819 97.9812 85.5517 97.7866 85.4605 97.7478H85.175Z" fill="#D4192D"/>
<path fill-rule="evenodd" clip-rule="evenodd" d="M88.0738 93.7316C87.9477 93.7287 87.8234 93.7387 87.6998 93.7611C87.5762 93.7837 87.456 93.818 87.3393 93.865C87.2225 93.9115 87.1117 93.9689 87.0063 94.0381C86.9014 94.1072 86.8045 94.1861 86.715 94.2744C86.6261 94.3633 86.5465 94.4597 86.4767 94.5642C86.4071 94.6688 86.3485 94.7792 86.3008 94.8952C86.254 95.0119 86.2185 95.1315 86.1953 95.2553C86.1712 95.3788 86.1608 95.5031 86.1627 95.6286C86.1524 95.7198 86.1524 95.8111 86.1615 95.9027C86.1702 95.9939 86.1895 96.0827 86.2171 96.1704C86.2449 96.2576 86.2822 96.3411 86.3281 96.4201C86.3739 96.4996 86.4274 96.5735 86.489 96.6421C86.55 96.7099 86.6178 96.7709 86.6923 96.825C86.7667 96.8783 86.8456 96.9235 86.9297 96.9609C87.0134 96.9979 87.1004 97.0258 87.1906 97.0445C87.2799 97.063 87.3706 97.0724 87.4623 97.0717C87.8205 97.0757 88.1364 96.9632 88.4117 96.7337C88.4117 96.6558 88.4117 96.5776 88.3468 96.5521C88.1974 96.6187 88.0417 96.6489 87.8786 96.6425C87.2284 96.6425 86.8647 95.8238 86.8647 95.2262C86.8565 95.1541 86.856 95.0821 86.8624 95.0107C86.8692 94.9386 86.8834 94.8681 86.9042 94.7995C86.9258 94.7303 86.9536 94.6641 86.9883 94.6008C87.0233 94.5374 87.0639 94.4781 87.111 94.4235C87.158 94.3684 87.2098 94.3191 87.2672 94.2749C87.3241 94.2309 87.3851 94.1932 87.45 94.1613C87.5153 94.1298 87.5824 94.1055 87.6523 94.0875C87.7225 94.0701 87.7931 94.0596 87.8654 94.056C88.8014 94.056 89.0093 95.0699 89.0228 95.7325C89.0238 96.0432 88.9907 96.3497 88.9221 96.6524C88.8535 96.9548 88.7514 97.2457 88.6162 97.5252C88.4807 97.8045 88.3158 98.0652 88.1213 98.3067C87.9264 98.5483 87.7066 98.7648 87.4623 98.9559C87.0424 99.2846 86.5791 99.5316 86.0715 99.697C86.0715 99.7619 86.0715 99.8786 86.0715 99.9177C86.9257 99.7479 87.6795 99.3751 88.3332 98.8002C88.5544 98.6169 88.7539 98.4124 88.9315 98.1871C89.1092 97.9618 89.2614 97.7202 89.3879 97.4624C89.5145 97.205 89.6126 96.9369 89.6829 96.6588C89.7524 96.3799 89.7926 96.0979 89.8025 95.811C89.8025 94.5893 89.2431 93.7316 88.0738 93.7316Z" fill="#D4192D"/>
<path fill-rule="evenodd" clip-rule="evenodd" d="M94.3259 96.9417C94.1054 97.4095 93.884 97.4225 93.351 97.4225H92.2071C92.0382 97.4225 91.9992 97.4225 92.012 97.2796L92.7792 96.4608C93.351 95.8238 93.6501 95.4469 93.6501 94.8621C93.6501 94.7801 93.6414 94.6995 93.6241 94.6199C93.6066 94.5403 93.5805 94.4632 93.5466 94.3893C93.513 94.315 93.4713 94.2453 93.4223 94.1797C93.3737 94.1147 93.3184 94.0549 93.257 94.0014C93.1955 93.9481 93.1294 93.9015 93.0573 93.8621C92.9857 93.8227 92.911 93.7913 92.8331 93.7681C92.7547 93.7449 92.6753 93.7302 92.5933 93.7238C92.512 93.7174 92.4314 93.7203 92.3506 93.7315C92.1829 93.7425 92.0203 93.7761 91.8614 93.8326C91.7037 93.8893 91.5562 93.9661 91.4196 94.0637C91.2833 94.1613 91.1626 94.2756 91.0579 94.4067C90.9527 94.5381 90.8681 94.6816 90.8037 94.8359C90.8025 94.8592 90.8072 94.8808 90.8164 94.9016C90.8261 94.9226 90.8403 94.9398 90.8582 94.9538C90.8762 94.9678 90.896 94.9772 90.9187 94.9817C90.9414 94.9864 90.9631 94.9852 90.9854 94.9788C91.0799 94.7856 91.2164 94.6281 91.3953 94.5072C91.5741 94.3864 91.771 94.3187 91.9865 94.3035C92.0467 94.3016 92.1072 94.3071 92.1665 94.3187C92.2263 94.3303 92.2837 94.3478 92.3395 94.372C92.3952 94.3959 92.4482 94.4254 92.4975 94.4608C92.5467 94.4963 92.5916 94.5363 92.6327 94.5811C92.6733 94.6263 92.7088 94.6752 92.739 94.7278C92.7692 94.7801 92.7929 94.8354 92.8116 94.8935C92.8298 94.9514 92.8419 95.0107 92.8471 95.0712C92.8529 95.1315 92.8518 95.192 92.8442 95.2518C92.7867 95.5892 92.6711 95.9051 92.4992 96.2007C92.3268 96.4956 92.1085 96.7512 91.8431 96.9677C91.5372 97.2877 91.208 97.582 90.8555 97.8516C90.8451 97.8836 90.8455 97.9154 90.8578 97.9474C90.8698 97.9793 90.8909 98.0038 90.9204 98.0206C91.2065 98.005 91.4924 98.005 91.7786 98.0206H92.7403C93.2996 98.0206 93.7024 98.0206 94.0406 98.0206C94.1573 97.7477 94.3132 97.3835 94.4952 97.0194C94.4544 96.9601 94.3982 96.9341 94.3259 96.9417Z" fill="#D4192D"/>
<path fill-rule="evenodd" clip-rule="evenodd" d="M97.6149 93.7183C97.4507 93.8168 97.273 93.8646 97.0819 93.8617L96.4062 93.9654C96.1907 93.9876 95.978 94.0264 95.7692 94.0821C95.6392 94.0821 95.47 94.4075 95.3401 94.7192C95.2204 94.966 95.1466 95.2262 95.1193 95.4991C95.1193 95.8238 95.4699 96.0317 95.8991 96.3306C96.1261 96.4716 96.3079 96.6576 96.4456 96.8863C96.5834 97.1158 96.6609 97.3637 96.6791 97.6302C96.6715 97.862 96.6293 98.0866 96.5531 98.3058C96.4763 98.5241 96.3689 98.7261 96.2309 98.9119C96.0925 99.0979 95.9298 99.2586 95.7423 99.3951C95.5549 99.531 95.3517 99.6361 95.1322 99.7099C95.0542 99.7099 95.1322 99.9309 95.2098 99.9827C95.9118 99.762 97.3551 98.8648 97.3551 97.5263C97.348 97.3453 97.319 97.1681 97.2663 96.9944C97.2138 96.8207 97.1406 96.6565 97.046 96.5019C96.9519 96.347 96.8393 96.207 96.7086 96.0809C96.5787 95.955 96.434 95.8476 96.276 95.7588L95.8214 95.4469C95.548 95.2652 95.496 95.1478 95.548 94.9788C95.6 94.8099 95.6525 94.7449 95.9381 94.7192L97.2384 94.537C97.5501 94.537 97.719 94.1211 97.7842 93.9132C97.8492 93.7053 97.7057 93.7315 97.6149 93.7183Z" fill="#D4192D"/>
<path fill-rule="evenodd" clip-rule="evenodd" d="M55.2883 94.6804C55.2455 92.4527 55.328 90.2303 55.5357 88.0127C55.6136 87.4018 55.6658 86.713 55.7309 86.2189C55.7495 85.9145 55.8232 85.6248 55.9516 85.3484C57.7977 85.3484 59.3706 85.9197 61.1511 86.1021C61.9776 85.3624 62.8618 84.6991 63.8032 84.1133C64.4275 83.6585 65.2202 83.1254 65.7405 82.7225C65.8027 82.6615 65.8414 82.5879 65.8572 82.5017C65.8374 82.1643 65.7637 81.8397 65.6365 81.5268C64.6784 81.7329 63.7469 82.0233 62.8415 82.3979C61.3984 82.8914 59.8905 83.1907 58.5258 83.5807C57.5113 83.8664 56.3029 84.2955 55.4184 84.4385C55.214 84.4042 55.0153 84.3473 54.8244 84.2678C54.6327 84.1875 54.4527 84.0866 54.2849 83.9647C54.1164 83.8432 53.965 83.7034 53.8291 83.5465C53.693 83.389 53.5774 83.219 53.4817 83.0349C53.0654 82.1122 54.5216 78.5378 54.2355 77.0171C55.6263 75.6263 56.2893 74.7035 56.9136 74.4178C56.4247 75.1804 56.0514 75.996 55.7924 76.8645C55.5339 77.7325 55.4009 78.6198 55.3929 79.5257C57.2191 79.4178 59.0087 79.1019 60.7613 78.5768C61.7283 78.2712 62.6231 77.8219 63.4454 77.2283C64.2684 76.635 64.9768 75.9276 65.5715 75.1065C66.2213 78.7713 67.5469 79.9676 68.4958 82.9049C70.5109 82.9955 72.0062 77.29 72.0316 77.29C72.9029 80.6429 74.034 81.2927 74.5021 83.4117C75.2558 83.2683 75.9706 81.5141 76.4649 81.5141C76.5283 81.8055 76.6105 82.0912 76.7116 82.3716C77.8553 82.2086 78.9441 81.8712 79.9792 81.3601C81.0146 80.8493 81.945 80.19 82.7696 79.3824C81.2488 83.0867 84.6417 87.9604 84.9926 88.2857C86.2927 87.7526 87.9435 85.3612 88.2293 85.0755C88.5076 85.7782 88.875 86.4308 89.3322 87.0332C89.7892 87.6359 90.3188 88.1659 90.9204 88.6236C91.4923 89.0132 91.9865 89.2733 92.5841 89.6502C93.1956 89.1044 93.6374 87.2065 93.8841 86.8426C95.3924 88.5063 98.5513 90.2873 100.839 89.4422C100.839 89.4422 100.449 83.9189 96.8481 81.787C97.368 81.787 98.1482 82.0599 98.5903 82.1511C99.3963 82.3066 103.166 81.6703 104.505 80.1106C103.439 78.4729 101.307 76.2111 96.7054 75.9515C97.1896 75.631 97.6421 75.2709 98.0631 74.8707C98.4832 74.4701 98.8655 74.0364 99.2091 73.5682C99.5532 73.1003 99.8532 72.6061 100.109 72.0852C100.366 71.5636 100.574 71.0242 100.735 70.4667C99.6692 69.4917 97.9142 69.3489 96.6141 69.0759C96.6558 68.6125 96.6385 68.1515 96.5617 67.6933C96.4851 67.2345 96.3516 66.7927 96.1616 66.3688C95.9719 65.9443 95.7308 65.5505 95.4397 65.1882C95.1489 64.8252 94.817 64.5053 94.4434 64.2276C94.3522 63.942 94.1705 59.8741 88.9443 58.5743C88.4316 57.6284 87.7902 56.7788 87.0214 56.0258C86.2525 55.2723 85.3896 54.649 84.434 54.1552C83.7062 53.8132 82.952 53.5473 82.1708 53.3581C81.3904 53.1687 80.5976 53.0593 79.7947 53.0303C78.9915 53.0012 78.1937 53.053 77.4011 53.1855C76.6084 53.318 75.8371 53.5286 75.0869 53.8172C67.6644 52.6735 65.8704 56.1308 65.3629 56.6246C64.8345 56.644 64.3126 56.7157 63.798 56.8396C63.2829 56.9632 62.7859 57.1367 62.3055 57.3599C61.826 57.583 61.373 57.8518 60.9467 58.1654C60.5199 58.4791 60.1291 58.8321 59.7737 59.2241C59.0718 59.146 56.0945 57.5344 55.055 57.7944C54.6385 58.951 55.1715 63.4351 55.4184 64.2928C52.9225 64.8519 48.7629 63.2272 47.8269 64.0588C47.5278 65.8786 49.127 67.9582 49.127 68.0622C47.2159 67.867 43.5629 68.0622 42.4188 68.9588C42.1853 69.1927 42.8351 70.6747 43.8103 71.6236C44.488 72.2402 45.2498 72.7263 46.0953 73.0812C46.9406 73.4354 47.8211 73.6386 48.7369 73.6897C46.8154 74.8552 45.0605 76.2327 43.4722 77.8231C43.8753 78.0566 46.6829 78.8753 46.9692 78.9665C48.5289 79.4607 52.871 78.0176 52.936 78.0176C52.7018 79.2006 51.8959 82.3589 51.8699 82.9565C51.8699 83.8792 53.7025 85.1401 54.3395 85.5564C54.3395 87.5835 54.1316 93.5104 54.1316 93.5104C54.0364 94.4817 54.0759 95.4482 54.2489 96.4086C55.7001 96.3004 57.1384 96.1012 58.5647 95.8111C58.8156 96.6616 58.9885 97.5282 59.0845 98.4102C59.6169 98.6198 60.1629 98.7847 60.7227 98.9044C60.8781 99.4241 60.4363 100.308 60.7227 100.776C60.9566 101.439 62.0222 101.607 62.6465 101.868C62.6465 103.05 62.6465 104.233 62.6465 105.416C62.9709 106.04 65.2462 106.897 65.9611 107.287C65.9611 107.287 71.0829 102.322 71.1612 102.31C72.0456 103.154 72.8121 104.094 73.4621 105.13C72.4196 107.435 71.1415 109.602 69.6271 111.628C69.5105 111.849 70.2903 112.395 70.3809 112.551C71.2774 111.517 72.0532 110.4 72.7084 109.198C73.5658 107.819 74.2982 106.376 74.905 104.87C74.0468 103.765 73.0464 102.699 72.2268 101.686C72.6862 100.69 73.2448 99.7545 73.9041 98.8783C73.7878 98.7661 73.6538 98.6836 73.5021 98.6291C73.3499 98.5745 73.1938 98.5538 73.0329 98.5665C70.8273 101.137 68.4616 103.55 65.935 105.806C65.5844 105.559 64.453 105.156 64.0634 104.961C64.0988 103.763 64.0641 102.568 63.9594 101.374C63.6605 100.633 62.6593 100.711 62.0483 100.282L61.8666 100.165C61.9574 97.5654 61.8666 98.2152 60.1769 97.3964C60.0659 97.2402 60.0224 97.0666 60.0466 96.8766C60.0687 95.896 59.9782 94.9249 59.7738 93.9655C58.3053 94.2316 56.875 94.6347 55.4835 95.1741C55.4057 95.1741 55.3668 95.1741 55.3535 95.1741V95.0702L55.2883 94.6804ZM99.1623 70.9603C97.225 69.8163 91.5702 70.3105 89.1915 74.3656C93.1821 74.8598 94.3913 75.6653 98.005 72.4289C98.5397 72.0794 98.9341 71.6113 99.1878 71.0254L99.1623 70.9603ZM85.2006 63.1621C84.5644 63.4071 83.9785 63.7405 83.4426 64.1615C82.9067 64.5819 82.4437 65.072 82.0546 65.6317C82.6879 65.7224 83.3074 65.8699 83.9137 66.0737C83.6668 69.9726 77.6218 72.689 77.6218 72.7153C84.538 71.6363 86.4878 66.9053 85.2006 63.1621ZM55.9905 59.016C57.8492 59.5845 59.5565 60.451 61.1123 61.6157C61.7725 62.5129 62.1756 63.5134 62.3212 64.6179C62.5135 65.2572 62.5984 65.9105 62.5762 66.5777C62.5537 67.2456 62.4259 67.8918 62.1912 68.5167C60.4101 68.335 56.9917 65.0337 56.4719 62.928C56.0572 61.6593 55.9057 60.3593 56.0166 59.029L55.9905 59.016ZM44.0308 69.7124C44.8108 68.738 49.7509 68.803 50.6218 69.3356C51.5585 70.0294 52.5551 70.623 53.6118 71.1165C53.2477 71.7791 51.1161 72.4162 49.7118 72.4162C49.1764 72.4051 48.6486 72.3377 48.1283 72.2134C47.6075 72.0891 47.1064 71.9114 46.6243 71.6792C46.1418 71.447 45.69 71.1665 45.2678 70.8372C44.8462 70.5073 44.4642 70.1369 44.122 69.7258L44.0308 69.7124ZM51.5708 77.121C50.9047 77.3481 50.2201 77.478 49.5167 77.5107C48.3733 77.5206 47.2637 77.3301 46.1888 76.9393C48.2311 75.2952 50.4453 73.9307 52.832 72.8447C53.9452 72.609 55.0591 72.609 56.1727 72.8447C55.8348 74.0014 52.6758 76.653 51.5708 77.1728V77.121H51.5708ZM55.4707 70.9731C56.1472 71.1206 56.828 71.1434 57.5132 71.0427C58.1977 70.9423 58.8429 70.7239 59.4486 70.3884C59.2761 69.7803 59.0247 69.2065 58.693 68.6677C58.3622 68.1294 57.9638 67.6456 57.4985 67.2172C56.8383 66.6841 56.1096 66.2717 55.3128 65.9803C54.5161 65.6887 53.6931 65.5337 52.8448 65.5146C51.6131 65.1539 50.3564 64.9461 49.0749 64.8909C49.5557 66.9181 53.4034 70.2844 55.4707 70.9731ZM61.1256 77.1601C59.6779 77.5984 58.2048 77.919 56.706 78.1215C58.2785 70.9086 63.7382 70.5056 65.0251 70.5056C65.0343 70.8447 65.0203 71.1827 64.982 71.5196C64.9443 71.8563 64.8832 72.1897 64.7987 72.5177C64.7144 72.8464 64.6076 73.1676 64.4785 73.481C64.349 73.7946 64.1987 74.0978 64.0274 74.3905C63.8561 74.6832 63.665 74.9625 63.4542 75.2285C63.2441 75.4943 63.0159 75.7446 62.7708 75.9788C62.5251 76.2127 62.2649 76.4286 61.9892 76.6266C61.7139 76.8243 61.4259 77.0024 61.1256 77.1601ZM64.6744 67.3988C65.1167 68.1719 65.7283 68.7741 66.507 69.2061C70.095 64.6829 66.2213 58.808 64.349 58.5481C62.802 61.9537 62.8415 64.4228 64.6744 67.3988ZM68.9771 81.1237C68.5353 79.2916 67.3392 77.9787 66.8972 76.0422C66.6573 75.2342 66.6486 74.4243 66.8711 73.6118C67.2525 72.5218 67.8025 71.5254 68.5221 70.6224C70.9273 71.6752 71.8113 78.7713 69.029 81.1237H68.9771V81.1237ZM68.8345 68.6207C69.0811 65.4106 72.6559 62.4083 77.596 61.8625C77.5514 62.2412 77.481 62.6144 77.3841 62.9832C77.2877 63.352 77.1657 63.7121 77.0187 64.0639C76.8714 64.4152 76.7008 64.7549 76.5061 65.0825C76.3116 65.41 76.0949 65.7229 75.8563 66.0203C75.6177 66.3176 75.3598 66.5964 75.0822 66.8576C74.8048 67.1189 74.5104 67.3593 74.1989 67.5795C73.8871 67.7995 73.5626 67.9964 73.2233 68.1712C72.8842 68.3454 72.5352 68.4951 72.1752 68.6207C71.0615 68.7362 69.9477 68.7362 68.8345 68.6207ZM74.7617 81.8782C74.3981 80.1621 71.85 76.0031 72.591 73.6378C72.7862 72.9585 73.0156 72.2913 73.2798 71.6363C73.897 72.1009 74.4347 72.6438 74.8929 73.2652C75.351 73.887 75.71 74.5613 75.9706 75.2883C76.79 77.9787 75.2693 81.6568 74.6711 81.8782H74.7617ZM75.8539 71.0254C76.7726 70.9777 77.6398 70.7391 78.4538 70.3105C78.8784 70.1294 79.2812 69.9099 79.6633 69.6514C80.0461 69.393 80.4003 69.1003 80.7262 68.7746C81.0524 68.4482 81.3453 68.094 81.6035 67.7119C81.8617 67.3297 82.0816 66.9268 82.2626 66.5022C79.9486 65.5668 75.9706 67.2171 73.371 69.9464C74.138 70.4563 74.9702 70.8157 75.8667 71.0254H75.8539V71.0254ZM77.2709 81.1245C80.8585 80.8771 83.7707 75.9255 83.056 74.0405C81.7565 74.2552 80.5343 74.6884 79.3898 75.3407C78.0897 76.2499 77.5311 79.2394 77.271 81.176V81.1245H77.2709ZM85.2393 86.479C84.9014 85.7902 84.3165 84.9842 83.9397 84.2822C83.7986 83.7711 83.7005 83.2515 83.6452 82.7237C83.5899 82.1963 83.5786 81.6678 83.611 81.1383C83.6429 80.6085 83.7178 80.0855 83.8362 79.5687C83.9549 79.0512 84.115 78.5472 84.3165 78.0564C84.7974 77.0042 85.9153 76.549 86.5523 75.6652C88.8403 77.862 85.9936 86.063 85.175 86.4789H85.2393V86.479ZM82.3015 72.7407C84.1864 71.7791 85.175 69.8948 86.8257 68.7641C89.6074 66.8664 92.0255 67.2821 92.5195 67.7891C91.5579 69.3756 90.375 70.7751 88.9703 71.987C86.8125 73.2866 82.8995 73.365 82.2887 72.7407H82.3015V72.7407ZM92.1555 87.9088C92.7664 84.0093 93.2606 82.3066 91.1806 79.4082C90.8052 78.8556 90.3722 78.3533 89.8803 77.9008C88.5807 80.1493 87.9046 83.2038 89.5559 85.699C89.8774 86.1874 90.2591 86.6236 90.7004 87.008C91.1423 87.3918 91.6271 87.7096 92.1555 87.9603V87.9088ZM99.9548 88.6886C96.4323 88.5714 94.2612 85.2572 94.2484 81.6703C94.7757 81.7636 95.2768 81.9345 95.7517 82.183C96.2262 82.4316 96.6525 82.7456 97.0298 83.1253C97.754 83.9077 98.3644 84.7706 98.8604 85.7137C99.3561 86.6574 99.721 87.6487 99.9548 88.6886ZM92.6235 77.8231C94.8203 75.0805 103.114 78.6545 103.114 79.8632C101.928 80.3342 100.698 80.5855 99.4219 80.6175C96.7314 80.8641 92.9225 78.3167 92.6235 77.8231Z" fill="#D4192D"/>
<path fill-rule="evenodd" clip-rule="evenodd" d="M38.4933 37.246C36.621 37.9219 34.7756 37.584 34.0998 35.7514L32.5528 31.5404C31.8895 29.7469 33.0724 28.2392 34.905 27.5633C36.7384 26.8875 38.6623 27.2643 39.312 29.0579L40.8725 33.256C41.5483 35.0495 40.3522 36.5703 38.5193 37.246H38.4933ZM36.9724 29.9158C36.9464 29.8566 36.9149 29.8003 36.8778 29.7475C36.84 29.6944 36.7982 29.6457 36.7512 29.6011C36.7046 29.5565 36.6536 29.5171 36.599 29.4826C36.544 29.4481 36.4863 29.4192 36.426 29.3963C36.3656 29.3734 36.3034 29.3567 36.2396 29.346C36.1758 29.3353 36.1113 29.3312 36.0468 29.3333C35.9818 29.3356 35.9177 29.3442 35.8552 29.3588C35.7919 29.3738 35.7309 29.3947 35.6723 29.4219C35.0875 29.6429 34.7106 30.1238 34.9185 30.7215L36.4655 34.9194C36.4938 34.9815 36.5281 35.04 36.5683 35.0949C36.6089 35.1498 36.6542 35.1998 36.7046 35.2457C36.7551 35.2913 36.8097 35.3315 36.8683 35.3659C36.9271 35.4004 36.9886 35.4286 37.0536 35.4503C37.118 35.4724 37.1837 35.4875 37.2516 35.4959C37.3189 35.5043 37.387 35.5059 37.455 35.5005C37.5228 35.495 37.589 35.4828 37.6547 35.4637C37.7204 35.4446 37.783 35.4192 37.8435 35.3875C38.4283 35.1795 38.7922 34.7116 38.5845 34.0877L36.9724 29.9158Z" fill="#D4192D"/>
<path fill-rule="evenodd" clip-rule="evenodd" d="M49.5039 31.7221C49.5521 31.7058 49.6016 31.6997 49.6526 31.7035C49.7032 31.7071 49.7514 31.7207 49.7968 31.7441C49.8422 31.7672 49.8809 31.7985 49.9134 31.8375C49.9461 31.8766 49.9697 31.9203 49.9848 31.9691L50.323 33.2688C50.323 33.4899 50.323 33.6327 50.0238 33.6975L43.9659 35.3226C43.7064 35.4003 43.5502 35.3226 43.4978 35.1015L41.0671 26.0036C41.0671 25.7824 41.0671 25.6394 41.3663 25.5615L42.991 25.1328C43.0368 25.1119 43.0845 25.1014 43.1344 25.1019C43.1838 25.1022 43.2313 25.1128 43.2767 25.1341C43.3221 25.1554 43.3603 25.1853 43.3922 25.2237C43.4241 25.262 43.4463 25.3053 43.4591 25.3537L45.344 32.3982C45.4225 32.6581 45.6303 32.7491 45.9548 32.671L49.5039 31.7221Z" fill="#D4192D"/>
<path fill-rule="evenodd" clip-rule="evenodd" d="M52.936 23.2222C53.0137 22.9621 53.0914 22.8322 53.4946 22.7542L55.1714 22.4164C55.6395 22.3124 55.6785 22.6633 55.6135 22.8193L53.8064 28.0181C53.7482 28.1869 53.7482 28.3559 53.8064 28.5249L54.5606 32.424C54.5606 32.645 54.5606 32.7749 54.2354 32.8271L52.5718 33.1648C52.3116 33.1648 52.1554 33.1648 52.1165 32.9049L51.3499 29.0058C51.3215 28.8645 51.2611 28.7388 51.1675 28.629L47.5017 24.4178C47.385 24.301 47.307 23.9629 47.7746 23.8721L49.5037 23.5341C49.842 23.4691 49.9847 23.4561 50.1798 23.729L51.922 25.9646C52.0124 26.0814 52.1299 26.1205 52.1814 25.9646L52.936 23.2222Z" fill="#D4192D"/>
<path fill-rule="evenodd" clip-rule="evenodd" d="M64.2712 21.7274C64.3751 21.3894 64.5313 21.3115 64.8692 21.2723L66.26 21.1295C66.3158 21.1197 66.3715 21.1209 66.4273 21.1325C66.4826 21.1442 66.5341 21.1658 66.5811 21.1971C66.6281 21.2286 66.6683 21.2676 66.7002 21.3144C66.732 21.3611 66.7547 21.4122 66.7671 21.4676L67.7547 30.7346C67.7547 30.9554 67.638 31.0855 67.3778 31.1112L65.7922 31.2803C65.5189 31.2803 65.389 31.2803 65.3628 30.9812L64.9731 26.9264C64.9731 26.8094 64.8305 26.7964 64.7782 26.9264C64.4866 27.9582 64.1317 28.9677 63.7118 29.9546C63.6648 30.0475 63.597 30.1207 63.5081 30.1747C63.4186 30.2287 63.3222 30.255 63.2182 30.2536L62.6201 30.3185C62.3472 30.3185 62.191 30.3185 62.0354 30.0586L60.4362 27.4592C60.3194 27.2903 60.2022 27.3683 60.2154 27.4592L60.6573 31.5273C60.6573 31.7612 60.5663 31.8913 60.2934 31.9172L58.6684 32.086C58.4083 32.086 58.2655 32.0212 58.2521 31.7873L57.2644 22.5333C57.2625 22.4758 57.2719 22.4201 57.2916 22.3661C57.3119 22.3121 57.341 22.2638 57.38 22.2214C57.4187 22.179 57.4641 22.1454 57.5162 22.1206C57.568 22.0957 57.6231 22.0819 57.68 22.0784L59.0716 21.8704C59.4744 21.8704 59.5524 21.8704 59.7473 22.1955L62.4384 26.7703C62.5423 26.9522 62.6329 26.9522 62.6978 26.7703L64.2712 21.7274Z" fill="#D4192D"/>
<path fill-rule="evenodd" clip-rule="evenodd" d="M72.2267 30.6304C72.2267 30.8513 72.11 30.9684 71.8371 30.9684H70.1602C69.8872 30.9684 69.7571 30.8513 69.7571 30.6304V21.2596C69.7571 21.0257 69.8738 20.9215 70.1467 20.9087H73.7872C75.919 20.9087 77.3226 22.1043 77.3358 23.937C77.3486 25.7696 75.9056 26.8352 73.826 26.8484H72.2658L72.2267 30.6304ZM73.761 24.8597C73.8283 24.865 73.8957 24.8636 73.963 24.8552C74.0306 24.8465 74.096 24.8313 74.1601 24.8093C74.2238 24.7873 74.2848 24.759 74.3434 24.7245C74.4016 24.6898 74.4554 24.6497 74.5055 24.6039C74.5554 24.5581 74.6008 24.5078 74.6402 24.453C74.6796 24.3981 74.7134 24.3398 74.7413 24.2778C74.7685 24.2159 74.7895 24.1519 74.8039 24.0859C74.8184 24.0198 74.8259 23.9528 74.8266 23.8849C74.8259 23.8164 74.8184 23.7486 74.8039 23.6817C74.7895 23.6145 74.7677 23.5497 74.7399 23.487C74.7122 23.4245 74.678 23.3655 74.6378 23.3097C74.5978 23.254 74.5525 23.203 74.5019 23.1568C74.4513 23.1105 74.3963 23.0699 74.3377 23.0348C74.2784 22.9998 74.2167 22.971 74.1517 22.9488C74.0868 22.9264 74.0205 22.9109 73.9525 22.9024C73.8847 22.8935 73.8162 22.8919 73.7476 22.8973H72.6171C72.2657 22.8973 72.188 23.0792 72.188 23.3002V24.47C72.188 24.7819 72.3441 24.8728 72.6171 24.8728L73.761 24.8597Z" fill="#D4192D"/>
<path fill-rule="evenodd" clip-rule="evenodd" d="M78.688 31.0073C78.4149 31.0073 78.2976 30.8774 78.3108 30.6434L78.7007 21.2856C78.7007 21.0515 78.8439 20.9476 79.1171 20.9604L80.7933 21.0255C81.0147 21.0255 81.1837 21.1426 81.1709 21.3894L80.7806 30.7474C80.7806 30.9812 80.6379 31.0854 80.3649 31.0722L78.688 31.0073Z" fill="#D4192D"/>
<path fill-rule="evenodd" clip-rule="evenodd" d="M84.8886 31.1374C84.8484 31.2126 84.7898 31.2692 84.7138 31.3075C84.6372 31.3456 84.5569 31.3581 84.4727 31.3454L82.8219 31.1764C82.38 31.1764 82.4055 30.8646 82.4839 30.6955L86.3707 21.7276C86.4061 21.6479 86.4632 21.5896 86.5424 21.5525C86.6213 21.5155 86.7026 21.5089 86.7863 21.5325L88.4632 21.7276C88.5507 21.7294 88.6288 21.7567 88.6985 21.8095C88.7675 21.8622 88.8153 21.9302 88.8403 22.0134L90.6862 31.6446C90.6862 31.7613 90.6862 32.0862 90.2444 32.0342L88.5284 31.8523C88.4401 31.8511 88.3623 31.8227 88.2939 31.7667C88.226 31.7108 88.183 31.6398 88.1644 31.5533L87.9695 30.0719C87.9695 29.7989 87.8655 29.6559 87.5273 29.6169L86.0064 29.4478C85.6425 29.4478 85.5518 29.5259 85.4606 29.7729L84.8886 31.1374ZM87.2675 25.0806C87.2675 24.9377 87.1637 24.9506 87.0989 25.0806L86.3707 27.3163C86.2927 27.4852 86.3707 27.576 86.5786 27.5892L87.3716 27.6802C87.5145 27.6802 87.6312 27.6021 87.6057 27.3941L87.2931 25.0806H87.2675V25.0806Z" fill="#D4192D"/>
<path fill-rule="evenodd" clip-rule="evenodd" d="M95.0804 32.9311C93.0003 32.5411 91.8174 31.1375 92.1421 29.4219L92.9479 25.0158C93.2605 23.3003 94.9115 22.4165 96.952 22.7804C97.3492 22.8276 97.7301 22.9319 98.0961 23.0936C98.4611 23.2553 98.7951 23.4672 99.097 23.729C99.5372 24.1287 99.8403 24.6139 100.007 25.1848C100.016 25.2329 100.017 25.2813 100.008 25.3296C99.9982 25.3779 99.9803 25.4226 99.9536 25.4638C99.9269 25.5052 99.8938 25.5399 99.8532 25.5682C99.813 25.5963 99.769 25.6159 99.7209 25.6268L98.2776 25.9905C97.8882 26.1076 97.8492 25.8997 97.7707 25.6786C97.7266 25.5531 97.6657 25.4357 97.5879 25.3274C97.5102 25.2187 97.4189 25.1231 97.3145 25.0404C97.2098 24.9576 97.0962 24.8909 96.9723 24.8403C96.8486 24.7897 96.721 24.7572 96.5879 24.7429C96.4597 24.7111 96.3301 24.7046 96.1995 24.7234C96.0683 24.7424 95.9457 24.785 95.8318 24.8519C95.7175 24.9185 95.6199 25.0045 95.5397 25.1093C95.4591 25.2141 95.401 25.3302 95.3661 25.4579L94.5473 29.8639C94.5381 29.9949 94.5532 30.1231 94.5932 30.2483C94.6327 30.3736 94.6943 30.4869 94.7777 30.5883C94.8614 30.6899 94.9608 30.7725 95.0759 30.8358C95.1907 30.8992 95.3138 30.9392 95.4441 30.9555C95.5768 30.9848 95.711 30.9966 95.8469 30.9912C95.9824 30.9858 96.1151 30.9631 96.2453 30.9234C96.3747 30.8834 96.4974 30.8276 96.6127 30.756C96.7285 30.6845 96.8329 30.5992 96.926 30.5006C97.082 30.3448 97.1732 30.2018 97.4072 30.3577L98.707 31.2546C98.7505 31.2834 98.7847 31.3207 98.8097 31.3668C98.834 31.4129 98.8462 31.4621 98.8462 31.5143C98.8462 31.5667 98.834 31.6158 98.8097 31.662C98.7847 31.708 98.7505 31.7454 98.707 31.7745C98.426 32.1082 98.1051 32.3983 97.7453 32.6451C97.3342 32.8562 96.8986 32.9862 96.4393 33.0357C95.9799 33.0848 95.5263 33.0502 95.0804 32.9311Z" fill="#D4192D"/>
<path fill-rule="evenodd" clip-rule="evenodd" d="M102.867 34.7245C100.943 34.2047 99.6301 32.8528 100.15 30.9683L101.307 26.6402C101.801 24.7947 103.633 24.2487 105.532 24.7557C107.43 25.2627 108.755 26.6663 108.262 28.5119L107.17 32.8138C106.611 34.6465 104.752 35.2054 102.867 34.7245ZM105.87 27.836C106.025 27.2512 105.649 26.8222 105.038 26.6531C104.975 26.6294 104.912 26.6121 104.846 26.601C104.78 26.5901 104.714 26.5855 104.647 26.5879C104.581 26.5901 104.515 26.5988 104.45 26.6143C104.385 26.6294 104.323 26.6509 104.262 26.6789C104.201 26.7068 104.145 26.7404 104.091 26.7796C104.036 26.8188 103.987 26.8631 103.942 26.9123C103.897 26.9613 103.858 27.0144 103.823 27.0715C103.788 27.1287 103.76 27.1884 103.738 27.2513L102.581 31.5794C102.569 31.646 102.564 31.7134 102.566 31.7812C102.567 31.849 102.576 31.9159 102.591 31.9819C102.606 32.0482 102.628 32.1119 102.656 32.1737C102.685 32.2353 102.719 32.2933 102.759 32.3483C102.799 32.4029 102.844 32.453 102.894 32.4984C102.945 32.544 103 32.584 103.058 32.6184C103.116 32.653 103.177 32.6811 103.242 32.7031C103.306 32.725 103.371 32.7405 103.439 32.7492C104.036 32.9181 104.609 32.7492 104.739 32.1641L105.87 27.836Z" fill="#D4192D"/>
<path fill-rule="evenodd" clip-rule="evenodd" d="M108.301 35.5303C108.197 35.2835 107.482 33.9318 108.301 33.8798L109.705 33.7368C110.108 33.7368 110.212 33.8799 110.251 34.1266C110.27 34.2621 110.307 34.3915 110.364 34.5159C110.421 34.6401 110.495 34.7537 110.585 34.8562C110.675 34.9589 110.778 35.0468 110.894 35.1195C111.009 35.192 111.133 35.2468 111.265 35.2835C111.384 35.3346 111.508 35.3612 111.638 35.364C111.767 35.3668 111.893 35.3449 112.014 35.2989C112.136 35.2529 112.244 35.1856 112.339 35.0977C112.434 35.0098 112.509 34.9071 112.565 34.7895C112.785 34.1918 112.46 33.8147 111.525 32.9701C109.978 31.5274 109.158 30.4485 109.718 28.9148C110.277 27.3812 112.083 26.6665 114.033 27.3812C114.413 27.4951 114.766 27.663 115.094 27.8846C115.422 28.1061 115.71 28.3716 115.957 28.6809C116.152 28.9114 116.306 29.1668 116.42 29.4469C116.533 29.7268 116.6 30.0173 116.62 30.3185C116.62 30.4485 116.62 30.5784 116.269 30.6565L114.969 30.9294C114.92 30.9432 114.87 30.9468 114.82 30.9405C114.769 30.9338 114.721 30.9178 114.677 30.8922C114.633 30.8662 114.596 30.833 114.565 30.7921C114.535 30.7513 114.513 30.7059 114.501 30.6564C114.428 30.3522 114.293 30.0793 114.094 29.8375C113.896 29.5957 113.655 29.4094 113.37 29.2786C113.251 29.228 113.125 29.2017 112.995 29.2002C112.865 29.1983 112.739 29.221 112.617 29.2685C112.496 29.3156 112.388 29.3841 112.293 29.4737C112.199 29.5631 112.125 29.6672 112.071 29.7856C111.888 30.2794 112.239 30.6303 112.629 30.9812C113.463 31.6262 114.169 32.3888 114.748 33.2688C114.85 33.4481 114.931 33.6368 114.99 33.8347C115.049 34.0322 115.086 34.2341 115.099 34.44C115.113 34.6461 115.104 34.851 115.07 35.0548C115.037 35.2585 114.982 35.456 114.904 35.6473C114.306 37.2848 112.59 37.9217 110.601 37.1939C110.123 37.0784 109.685 36.8768 109.287 36.5887C108.889 36.3006 108.56 35.9479 108.301 35.5303Z" fill="#D4192D"/>
<path fill-rule="evenodd" clip-rule="evenodd" d="M50.9074 42.6528C51.3628 43.9527 50.7257 45.0315 49.2437 45.5382L46.5528 46.448C46.3712 46.513 46.2672 46.448 46.2148 46.3181L44.1348 40.1965C44.0833 40.049 44.1481 39.9451 44.3299 39.8846L46.9298 39.0008C48.3601 38.5197 49.5302 38.9358 49.9198 40.1575C49.9616 40.2763 49.9855 40.3986 49.9912 40.5246C49.9975 40.6502 49.9855 40.7742 49.9552 40.8966C49.9257 41.0188 49.8785 41.1343 49.8154 41.243C49.7513 41.3518 49.6736 41.4492 49.582 41.5353C49.582 41.5353 49.582 41.6263 49.6469 41.6263C49.788 41.6374 49.9246 41.6685 50.0569 41.7195C50.1887 41.7704 50.3107 41.8391 50.4226 41.9259C50.5348 42.0125 50.6317 42.113 50.7142 42.2282C50.7971 42.3429 50.8616 42.4672 50.9075 42.601V42.6528H50.9074ZM47.788 41.5741C47.8346 41.5639 47.8797 41.5488 47.9234 41.5291C47.9669 41.5095 48.0082 41.4851 48.0465 41.4568C48.0848 41.4282 48.1203 41.3959 48.1516 41.3602C48.1836 41.3241 48.2108 41.2852 48.2342 41.2436C48.2573 41.2018 48.2757 41.158 48.2904 41.1123C48.3044 41.0665 48.3135 41.0196 48.3176 40.9721C48.3218 40.9245 48.3206 40.8767 48.3148 40.8293C48.3091 40.7818 48.298 40.7354 48.2816 40.6903C48.2485 40.6016 48.1992 40.5228 48.1342 40.4544C48.0685 40.3861 47.9919 40.3333 47.9048 40.2966C47.8171 40.2596 47.7259 40.2414 47.6314 40.242C47.5366 40.2428 47.4462 40.2622 47.359 40.3005L46.3713 40.6384C46.1889 40.6384 46.1761 40.7942 46.2149 40.9245L46.488 41.704C46.4932 41.7419 46.5065 41.7766 46.528 41.8081C46.5491 41.8399 46.5762 41.8653 46.6093 41.8843C46.6423 41.9034 46.6778 41.9139 46.7161 41.9168C46.7539 41.9193 46.7905 41.9134 46.8259 41.8991L47.788 41.5741ZM48.8019 44.1736C48.8508 44.163 48.8971 44.1471 48.9425 44.1262C48.9879 44.1056 49.0301 44.08 49.0697 44.05C49.1091 44.0201 49.1452 43.9863 49.1776 43.9484C49.2102 43.9104 49.2381 43.8696 49.2613 43.8258C49.2852 43.7821 49.3031 43.736 49.317 43.6882C49.3305 43.6406 49.3386 43.5918 49.3414 43.5421C49.3442 43.4924 49.3421 43.443 49.3345 43.394C49.327 43.3448 49.3142 43.2971 49.2961 43.2508C49.2829 43.2008 49.2649 43.1526 49.2417 43.1063C49.2183 43.0604 49.1912 43.017 49.1586 42.9766C49.1259 42.9364 49.0895 42.8999 49.0493 42.8674C49.0092 42.8348 48.9664 42.807 48.9198 42.7836C48.874 42.7601 48.8258 42.7418 48.7758 42.7288C48.7259 42.7157 48.6748 42.708 48.6232 42.7054C48.5714 42.7032 48.5203 42.7064 48.4693 42.715C48.4187 42.7239 48.3689 42.7377 48.3212 42.7568L47.294 43.0947C47.0598 43.1728 47.0338 43.2766 47.0988 43.4456L47.4111 44.3945C47.4111 44.5635 47.5151 44.6156 47.7881 44.5245L48.8019 44.1736Z" fill="#D4192D"/>
<path fill-rule="evenodd" clip-rule="evenodd" d="M53.8716 43.9394C53.8692 44.0018 53.8472 44.0562 53.8058 44.1028C53.7641 44.1493 53.7125 44.177 53.6509 44.1864L52.5198 44.4593C52.2206 44.5244 52.1816 44.3553 52.1816 44.2254L52.572 37.48C52.58 37.419 52.6055 37.367 52.6492 37.3235C52.6927 37.2803 52.7449 37.2543 52.8059 37.2459L54.0015 36.9601C54.0579 36.9392 54.1149 36.9372 54.1727 36.954C54.2304 36.971 54.2774 37.0032 54.3141 37.0511L57.7714 42.8608C57.7714 42.8608 57.9016 43.1336 57.5762 43.2247L56.3934 43.5106C56.336 43.5306 56.2791 43.5295 56.2228 43.5073C56.1658 43.4854 56.1233 43.4472 56.0945 43.3937L55.6135 42.4838C55.602 42.4428 55.5822 42.4055 55.5548 42.3729C55.5276 42.3399 55.4945 42.3144 55.4563 42.2958C55.4172 42.2769 55.3766 42.2672 55.3343 42.2661C55.2913 42.2648 55.25 42.2725 55.2105 42.289L54.1706 42.549C53.9109 42.549 53.8846 42.7048 53.8846 42.8866L53.8716 43.9394ZM53.9755 39.4556C53.9755 39.3774 53.8716 39.4556 53.8588 39.4556V41.1061C53.8588 41.223 53.8588 41.2621 54.0539 41.223L54.5997 41.0931C54.7037 41.0931 54.7559 40.9892 54.6909 40.8591L53.9365 39.4295L53.9755 39.4556Z" fill="#D4192D"/>
<path fill-rule="evenodd" clip-rule="evenodd" d="M58.8893 42.5228C58.7464 42.4058 57.8492 41.847 58.2918 41.5482L59.0977 40.9763C59.3312 40.8201 59.4615 40.8983 59.5654 40.9763C59.6252 41.0519 59.6942 41.1174 59.7726 41.173C59.8515 41.2286 59.9364 41.2718 60.0276 41.3028C60.118 41.334 60.2121 41.3517 60.3081 41.3557C60.4045 41.3598 60.4993 41.3502 60.5926 41.3272C60.6821 41.3172 60.7667 41.2911 60.8463 41.2487C60.9259 41.2063 60.9945 41.1505 61.0531 41.0816C61.1112 41.0127 61.1542 40.9352 61.1825 40.8497C61.2105 40.7642 61.222 40.6764 61.2163 40.5864C61.1384 40.1574 60.8132 40.0404 59.9168 39.8455C58.4735 39.5075 57.6026 39.1437 57.4208 38.0389C57.2384 36.934 58.0834 35.8813 59.5264 35.6474C60.0746 35.5146 60.6117 35.5494 61.1383 35.7513C61.545 35.8977 61.8695 36.1487 62.1135 36.5053C62.1135 36.5832 62.1785 36.6744 62.0095 36.8302L61.2945 37.441C61.1773 37.5581 61.0606 37.532 60.9306 37.441C60.7784 37.2832 60.6 37.1654 60.3952 37.0882C60.1908 37.0108 59.9788 36.981 59.7603 36.9992C59.6686 37.0074 59.5816 37.0328 59.4997 37.0754C59.4177 37.118 59.3471 37.1748 59.2872 37.2453C59.2273 37.3158 59.1837 37.395 59.1553 37.4832C59.1268 37.5708 59.1163 37.661 59.1233 37.753C59.1233 38.1038 59.5264 38.1948 59.8777 38.2729C60.6111 38.3736 61.3085 38.5903 61.9705 38.9228C62.2184 39.0716 62.4223 39.2666 62.582 39.5082C62.741 39.7499 62.8409 40.0139 62.8804 40.3005C63.0756 41.4831 62.2434 42.4449 60.7742 42.6919C60.4601 42.7781 60.1414 42.8068 59.8167 42.7777C59.4921 42.7485 59.1833 42.6637 58.8893 42.5228Z" fill="#D4192D"/>
<path fill-rule="evenodd" clip-rule="evenodd" d="M67.0012 35.0623C67.1051 34.9194 67.1963 34.8545 67.5343 34.8285L68.5744 34.7374C68.7171 34.7374 68.8863 34.7374 68.899 34.9193C68.9014 34.9849 68.8799 35.0413 68.8345 35.0885L67.1835 37.4409C67.0791 37.5709 67.0791 37.6619 67.2876 37.6748C67.4036 37.675 67.5198 37.6857 67.6342 37.707C67.7493 37.7282 67.8608 37.7597 67.97 37.8014C68.0784 37.8431 68.1828 37.8946 68.2823 37.9555C68.382 38.0162 68.4751 38.0856 68.5616 38.1634C68.6486 38.2413 68.7277 38.3263 68.7991 38.4188C68.8699 38.5112 68.9326 38.6091 68.9855 38.7127C69.0389 38.8167 69.0824 38.9245 69.1162 39.036C69.1493 39.1476 69.1724 39.2615 69.1851 39.3774L69.3803 41.392C69.3803 41.548 69.3019 41.626 69.1202 41.6519L67.9374 41.7561C67.7549 41.7561 67.6509 41.7561 67.6381 41.548L67.4564 39.6116C67.4564 39.1435 66.9496 38.9616 66.4943 39.0136C66.0394 39.0655 65.6231 39.3515 65.6621 39.7803L65.8445 41.7299C65.8445 41.8861 65.7795 41.9638 65.5971 41.9899L64.4402 42.0938C64.2585 42.0938 64.1546 42.0938 64.1414 41.8861L63.5303 35.3874C63.5303 35.2313 63.5303 35.1535 63.7772 35.1274L64.9605 35.0235C64.9943 35.0158 65.0279 35.0152 65.0622 35.0219C65.096 35.0288 65.1274 35.0419 65.1557 35.0616C65.1841 35.0814 65.2075 35.1061 65.2254 35.1356C65.2434 35.1651 65.2545 35.197 65.259 35.2313L65.4154 36.921C65.4154 37.0639 65.5326 37.103 65.6103 36.921L67.0012 35.0623Z" fill="#D4192D"/>
<path fill-rule="evenodd" clip-rule="evenodd" d="M75.0996 40.0922C75.1355 40.0888 75.1704 40.0922 75.204 40.103C75.2385 40.1137 75.2693 40.1307 75.2957 40.1541C75.3231 40.1775 75.3447 40.2053 75.3604 40.2373C75.3755 40.2696 75.384 40.3036 75.3859 40.3392V41.2229C75.3859 41.379 75.3079 41.4571 75.1128 41.47L70.771 41.5609C70.5893 41.5609 70.4981 41.4961 70.4981 41.34L70.3679 34.8413C70.3679 34.6855 70.4458 34.6075 70.6409 34.6075L75.0478 34.5166C75.0816 34.5129 75.1147 34.5161 75.1473 34.5263C75.1797 34.5362 75.2088 34.5524 75.2348 34.5746C75.2603 34.5968 75.2813 34.6231 75.2957 34.6537C75.3108 34.6841 75.3191 34.7166 75.3207 34.7506V35.6472C75.3207 35.8034 75.2295 35.8811 75.0478 35.8943H72.4481C72.0713 36.0242 72.0713 36.0242 72.0713 36.2191V37.0251C72.0713 37.2589 72.0713 37.337 72.4219 37.3237H74.4758C74.671 37.3237 74.7616 37.4019 74.7616 37.5579V38.4547C74.7616 38.6107 74.6836 38.6884 74.4888 38.7016H72.4092C72.11 38.7016 72.084 38.7925 72.0969 38.9744V39.9234C72.0969 40.1572 72.2141 40.2092 72.4997 40.1963L75.0996 40.0922Z" fill="#D4192D"/>
<path fill-rule="evenodd" clip-rule="evenodd" d="M76.3221 35.9203C76.1399 35.9203 76.036 35.8295 76.0492 35.6734V34.7767C76.0492 34.6205 76.1531 34.5427 76.3484 34.5557L80.716 34.7375C80.7514 34.7315 80.7862 34.7335 80.8209 34.7436C80.8551 34.7535 80.8861 34.7707 80.9125 34.7948C80.9395 34.8188 80.9591 34.8476 80.9726 34.8807C80.9858 34.914 80.9916 34.9487 80.9885 34.9845V35.8813C80.9885 36.0373 80.8847 36.1154 80.7032 36.1021H79.7018C79.4291 36.1021 79.3766 36.1802 79.3766 36.3231L79.1687 41.4051C79.1687 41.5609 79.052 41.6391 78.8695 41.6391H77.7001C77.5052 41.6391 77.4272 41.548 77.4272 41.392L77.6351 36.3101C77.6351 36.1543 77.6351 36.0631 77.3488 36.0631L76.3221 35.9203Z" fill="#D4192D"/>
<path fill-rule="evenodd" clip-rule="evenodd" d="M87.1243 40.1444C87.1108 40.3026 87.0805 40.4576 87.0331 40.6091C86.9853 40.7606 86.922 40.9053 86.8426 41.0431C86.763 41.1807 86.6701 41.3082 86.5626 41.4253C86.4551 41.5426 86.3368 41.6467 86.2061 41.7379C86.0761 41.8287 85.9376 41.9048 85.791 41.9653C85.644 42.0262 85.4925 42.0703 85.3355 42.0977C85.1794 42.125 85.0213 42.1351 84.863 42.128C84.7037 42.1209 84.5483 42.0963 84.3942 42.0548L81.5603 41.7429C81.3787 41.7429 81.3007 41.6261 81.3136 41.4701L82.0285 35.0494C82.0285 34.8936 82.1457 34.8286 82.3276 34.8546L85.0575 35.1536C86.5522 35.3227 87.4232 36.1803 87.2803 37.4668C87.2775 37.5998 87.2543 37.7287 87.2096 37.8535C87.1649 37.9787 87.1016 38.0934 87.0189 38.1977C86.9372 38.302 86.8408 38.3908 86.7292 38.4635C86.6185 38.5364 86.4986 38.5899 86.3706 38.6237C86.5029 38.6967 86.6212 38.7881 86.7259 38.8979C86.8304 39.0077 86.9157 39.1305 86.9821 39.2666C87.0483 39.4027 87.0922 39.5458 87.1144 39.6955C87.1364 39.8452 87.1356 39.995 87.1115 40.1445H87.1243V40.1444ZM84.5244 40.6772C84.573 40.6874 84.6219 40.6925 84.6718 40.6924C84.7212 40.6924 84.7706 40.6869 84.8187 40.6765C84.8675 40.6661 84.9145 40.6507 84.9599 40.6302C85.0045 40.6095 85.0475 40.5847 85.0869 40.5552C85.1271 40.5257 85.1635 40.4923 85.1961 40.4552C85.2292 40.4179 85.2578 40.3777 85.2821 40.3345C85.3064 40.2914 85.3264 40.246 85.3407 40.1986C85.3553 40.1512 85.3653 40.1028 85.3691 40.0535C85.3785 40.0022 85.3825 39.9507 85.3809 39.8986C85.3789 39.8468 85.3722 39.7956 85.3601 39.745C85.3478 39.6947 85.3299 39.6459 85.3077 39.5991C85.2849 39.5523 85.2578 39.5084 85.226 39.4674C85.1938 39.4262 85.1578 39.3888 85.1184 39.3555C85.0785 39.322 85.036 39.2929 84.9901 39.2684C84.9442 39.2438 84.896 39.2244 84.8459 39.2098C84.7961 39.1954 84.7455 39.1863 84.6933 39.1826L83.6144 39.0656C83.3677 39.0656 83.3152 39.0656 83.2897 39.2995L83.1853 40.2874C83.1853 40.4692 83.1853 40.5343 83.4715 40.5602L84.5244 40.6772ZM84.7455 37.8438C84.8383 37.8649 84.9315 37.8656 85.0248 37.8465C85.1184 37.8273 85.2037 37.7896 85.281 37.7336C85.3577 37.6778 85.4204 37.6084 85.4674 37.5255C85.5144 37.4427 85.5423 37.3538 85.5515 37.259C85.5602 37.1647 85.5505 37.073 85.5208 36.9833C85.4917 36.8935 85.4451 36.8134 85.3825 36.7431C85.3194 36.6728 85.2448 36.6182 85.159 36.5789C85.073 36.5397 84.983 36.5194 84.8885 36.518L83.8483 36.4011C83.6531 36.4011 83.6016 36.4662 83.5881 36.5961L83.4977 37.4147C83.4977 37.5966 83.4977 37.7138 83.7316 37.7268L84.7455 37.8438Z" fill="#D4192D"/>
<path fill-rule="evenodd" clip-rule="evenodd" d="M88.9703 42.5228C88.9443 42.5791 88.9023 42.6196 88.8456 42.6442C88.7885 42.6689 88.7304 42.6718 88.6712 42.6528L87.5273 42.4447C87.2156 42.4447 87.2544 42.211 87.3194 42.0938L90.4396 36.1022C90.4722 36.0496 90.5173 36.0124 90.5755 35.9905C90.6336 35.9687 90.6922 35.967 90.7515 35.9854L91.9603 36.2192C92.0213 36.2185 92.0761 36.2378 92.1225 36.2774C92.1694 36.3169 92.1981 36.3667 92.2072 36.4274L93.0005 43.1467C93.0005 43.2376 93.0005 43.4588 92.6754 43.3937L91.4925 43.1728C91.4301 43.1703 91.3758 43.1482 91.3292 43.1067C91.2826 43.065 91.2548 43.0135 91.2455 42.9517V41.9249C91.2455 41.73 91.2455 41.6261 90.9727 41.5871L89.9193 41.3921C89.6598 41.3921 89.5946 41.3921 89.5033 41.5741L88.9703 42.5228ZM90.9077 38.4807C90.9077 38.3899 90.8427 38.3899 90.7902 38.4807L90.1532 39.9235C90.1532 40.0274 90.1532 40.0922 90.2834 40.1184L90.8292 40.2223C90.8547 40.2271 90.8798 40.2257 90.9042 40.218C90.9292 40.2104 90.95 40.1976 90.9686 40.1794C90.9866 40.1613 90.9994 40.1398 91.0069 40.1152C91.0145 40.0908 91.0161 40.0657 91.0114 40.0404L90.9077 38.429V38.4807V38.4807Z" fill="#D4192D"/>
<path fill-rule="evenodd" clip-rule="evenodd" d="M98.6419 43.5107C98.6779 43.515 98.7109 43.5266 98.7417 43.5454C98.7724 43.5642 98.7974 43.5888 98.8177 43.6188C98.8376 43.649 98.8503 43.6815 98.856 43.7172C98.8619 43.7527 98.8595 43.788 98.8499 43.8227L98.6157 44.6935C98.6157 44.8364 98.4727 44.8884 98.2911 44.8493L94.0404 43.7185C93.8581 43.7185 93.7928 43.5757 93.8325 43.4196L95.47 37.1811C95.47 37.0253 95.6262 36.9731 95.808 37.0253L96.952 37.3239C97.0947 37.3239 97.1988 37.454 97.1599 37.623L95.8604 42.4709C95.8604 42.6658 95.8604 42.7958 96.146 42.8476L98.6419 43.5107Z" fill="#D4192D"/>
<path fill-rule="evenodd" clip-rule="evenodd" d="M104.401 45.4991C104.435 45.508 104.465 45.5235 104.493 45.5451C104.52 45.5669 104.541 45.5934 104.558 45.6242C104.574 45.655 104.583 45.6882 104.585 45.7228C104.587 45.7578 104.582 45.7914 104.57 45.8241L104.271 46.6691C104.271 46.8249 104.115 46.8639 103.933 46.799L99.7859 45.3303C99.6043 45.2654 99.5518 45.1611 99.6043 45.0184L101.762 38.9228C101.762 38.7798 101.931 38.7276 102.1 38.7927L103.218 39.1955C103.361 39.1955 103.452 39.3516 103.4 39.5075L101.723 44.2384C101.723 44.4202 101.723 44.5634 101.97 44.6413L104.401 45.4991Z" fill="#D4192D"/>
</svg>
