<svg width="150" height="150" viewBox="0 0 150 150" fill="none" xmlns="http://www.w3.org/2000/svg">
<path d="M118.821 72.6079C118.821 97.5902 98.9283 117.831 74.4102 117.831C49.8921 117.831 29.999 97.5321 29.999 72.6079C29.999 47.6838 49.892 27.3994 74.4102 27.3994C98.9283 27.3994 118.821 47.6113 118.821 72.6079Z" fill="#D99854"/>
<path d="M73.1776 25.2673H74.9756V56.4407H73.0906L73.1776 25.2673Z" fill="#282A2B"/>
<path d="M91.373 33.5613C91.373 33.5613 106.641 36.9976 113.252 55.4696C113.252 55.4696 106.51 40.2599 91.373 33.5613Z" fill="#282A2B"/>
<path d="M57.7351 33.4166C57.7351 33.4166 42.511 36.8529 35.8413 55.325C35.8413 55.325 42.5979 40.1153 57.7351 33.4166Z" fill="#282A2B"/>
<path d="M53.2548 28.6896C53.2548 28.6896 68.4645 24.0642 64.5933 36.867C64.5933 36.867 64.3033 39.564 57.5032 49.3655C53.0279 55.9017 49.1278 62.7646 45.8023 69.9543C45.8023 69.9543 33.0428 93.8054 55.5602 107.855C55.5602 107.855 30.7231 97.8508 44.0333 68.8958C47.843 60.5376 52.4101 52.6162 57.735 45.1315C57.735 45.1315 65.1006 34.9822 62.5488 31.3863C62.6069 31.3863 60.3449 28.3996 53.2548 28.6896Z" fill="#282A2B"/>
<path d="M95.0124 28.6896C95.0124 28.6896 80.1218 24.0642 83.993 36.867C83.993 36.867 84.2683 39.564 91.0685 49.3655C95.5515 55.8996 99.4566 62.7626 102.784 69.9543C102.784 69.9543 115.529 93.8054 92.9535 107.855C92.9535 107.855 117.791 97.8508 104.48 68.8958C100.671 60.5376 96.1037 52.6162 90.7787 45.1315C90.7787 45.1315 83.4129 34.9822 85.9649 31.3863C86.0083 31.3863 87.9224 28.3996 95.0124 28.6896Z" fill="#282A2B"/>
<path d="M74.3222 55.8324C74.3222 55.8324 81.7748 51.1636 84.5588 60.0082C84.5588 60.0082 86.11 64.3579 80.47 69.6936C80.47 69.6936 77.2367 72.898 78.4255 73.8693C78.4255 73.8693 79.2664 74.3623 81.4123 71.0709C81.4123 71.0709 88.43 60.0081 94.1572 66.0108C94.1572 66.0108 96.2307 68.3597 95.0271 73.4634C95.0271 73.4634 94.2587 76.6531 95.2157 77.8131C95.2157 77.8131 97.8109 81.5683 96.2596 84.8162C96.1435 85.0483 94.0556 90.8914 87.9515 88.5859C85.8135 87.7426 83.8803 86.5632 82.1517 85.0483C82.1517 85.0483 78.962 81.4379 77.4975 81.7279C76.0331 82.0179 75.8591 86.5125 75.6995 88.9774C75.6995 88.9774 75.9752 97.5756 76.816 98.9675C76.816 98.9675 76.816 99.8518 74.7427 98.837C74.7427 98.837 71.4803 97.5029 71.2339 95.4731C71.9306 92.1183 72.438 88.735 72.7562 85.3236C72.7562 85.3236 73.5101 79.8863 70.8859 81.2203C69.2023 82.8 67.6218 84.4773 66.1446 86.2514C66.1446 86.2514 61.6644 91.3698 56.5027 89.253C56.5027 89.253 50.5434 87.3825 53.2404 79.3645C53.4705 78.6634 53.6124 77.945 53.6663 77.209C53.7204 76.4733 53.6845 75.7418 53.5594 75.0147C53.5594 75.0147 51.2104 69.0119 55.0963 66.6922C55.0963 66.6922 59.4461 64.1403 62.5054 67.3881C62.5054 67.3881 65.1732 70.4329 66.5653 72.1728C66.5653 72.1728 69.4649 75.5802 70.1175 73.7534C70.1175 73.7534 70.7554 72.5354 66.1302 68.8815C66.1302 68.8815 59.997 63.8213 62.7809 58.8335C62.8808 58.6379 62.9896 58.4473 63.1075 58.2619C63.2254 58.0764 63.3518 57.897 63.4864 57.7234C63.6213 57.5499 63.7638 57.3831 63.9143 57.223C64.0648 57.0629 64.2224 56.9103 64.3873 56.7648C64.5521 56.6197 64.7234 56.4825 64.9011 56.3533C65.0789 56.2241 65.2624 56.1037 65.4514 55.9917C65.6405 55.8799 65.8344 55.777 66.0332 55.6834C66.2319 55.5898 66.4347 55.5057 66.6413 55.4311C66.8479 55.3566 67.0578 55.292 67.2704 55.2371C67.4833 55.1823 67.6983 55.1376 67.915 55.1031C68.1322 55.0685 68.3502 55.0441 68.5694 55.03C68.7887 55.016 69.0081 55.0123 69.2278 55.0188C69.4474 55.0254 69.6661 55.0423 69.8842 55.0695C70.1022 55.0968 70.3185 55.1341 70.533 55.1815C70.7475 55.2292 70.9593 55.2867 71.1683 55.3542C71.3774 55.4217 71.5829 55.4988 71.7849 55.5856C72.1848 55.7565 72.6015 55.863 73.0344 55.9051C73.4675 55.9473 73.8968 55.9231 74.3222 55.8324Z" fill="#519868"/>
<path d="M63.463 81.3507H61.7375V75.0581H59.1422V81.3507H57.4167V73.5792H63.463V81.3507Z" fill="white"/>
<path d="M74.7136 64.9521L74.2354 63.3136C74.1048 62.8496 73.9743 62.2552 73.8582 61.8637C73.7567 62.3277 73.6262 62.9222 73.5102 63.3136L72.9593 64.9521H74.7136ZM72.7708 66.2716L72.2343 68.2724H70.4509L72.7853 60.4863H75.0327L77.4105 68.2724H75.5546L74.9748 66.2716H72.7708Z" fill="white"/>
<path d="M88.1258 80.0315C89.2859 80.0315 89.9528 78.915 89.9528 77.3781C89.9528 75.8412 89.3149 74.7828 88.1258 74.7828C86.937 74.7828 86.2555 75.9716 86.2555 77.4216C86.2555 78.8715 86.9515 80.0315 88.1114 80.0315H88.1258ZM88.0245 81.4814C87.8991 81.4815 87.7738 81.4751 87.6491 81.4622C87.5245 81.4492 87.4006 81.4298 87.278 81.404C87.1551 81.3781 87.0342 81.3458 86.9147 81.3071C86.7955 81.2686 86.6784 81.2239 86.5637 81.1731C86.449 81.1222 86.3372 81.0657 86.2286 81.0031C86.12 80.9406 86.0146 80.8726 85.9132 80.7991C85.8114 80.7256 85.714 80.6469 85.6204 80.5633C85.527 80.4795 85.4383 80.3913 85.3542 80.2982C85.2699 80.2051 85.1911 80.108 85.1169 80.0068C85.0429 79.9055 84.9745 79.8005 84.9114 79.6921C84.8485 79.5836 84.7912 79.4722 84.7399 79.3577C84.6887 79.2433 84.6434 79.1265 84.6042 79.0074C84.565 78.8882 84.5323 78.7673 84.5058 78.6447C84.4792 78.522 84.4592 78.3984 84.4459 78.2737C84.4324 78.1489 84.4253 78.0239 84.4248 77.8986C84.4245 77.7731 84.4306 77.648 84.4431 77.5232C84.4316 77.3945 84.4268 77.2657 84.4287 77.1365C84.4305 77.0072 84.439 76.8785 84.4541 76.7501C84.4692 76.6219 84.491 76.4947 84.5195 76.3687C84.5479 76.2426 84.5825 76.1184 84.6238 75.9959C84.6649 75.8735 84.7126 75.7536 84.7663 75.6359C84.8198 75.5185 84.8793 75.404 84.9448 75.2927C85.0103 75.1814 85.0816 75.0737 85.1581 74.9696C85.2347 74.8657 85.3168 74.7659 85.4036 74.6704C85.4907 74.5749 85.5825 74.4842 85.6788 74.3982C85.7752 74.3122 85.8758 74.2313 85.9805 74.1558C86.0855 74.0802 86.1939 74.0102 86.3059 73.9459C86.418 73.8816 86.5329 73.8232 86.6511 73.7707C86.7691 73.7184 86.8896 73.6721 87.0125 73.6322C87.1353 73.5923 87.2598 73.5588 87.3862 73.5318C87.5125 73.5046 87.64 73.4843 87.7685 73.4704C87.8969 73.4566 88.0258 73.4494 88.1549 73.449C88.2812 73.4464 88.4072 73.4504 88.533 73.4611C88.659 73.4719 88.784 73.4891 88.9079 73.513C89.0317 73.5369 89.1544 73.5672 89.2751 73.604C89.3959 73.6406 89.5145 73.6836 89.6308 73.733C89.7471 73.7822 89.8604 73.8374 89.9709 73.8986C90.0814 73.9599 90.1884 74.0267 90.2919 74.0992C90.3952 74.1717 90.4947 74.2492 90.5899 74.3322C90.6852 74.4153 90.7757 74.5029 90.8617 74.5953C90.9477 74.6879 91.0287 74.7846 91.1045 74.8856C91.1802 74.9866 91.2505 75.0913 91.3155 75.1998C91.3802 75.3082 91.4391 75.4198 91.492 75.5344C91.5451 75.6491 91.5919 75.7661 91.6327 75.8857C91.6732 76.0052 91.7076 76.1266 91.7356 76.2497C91.7635 76.373 91.7848 76.4972 91.7995 76.6225C91.8143 76.7481 91.8223 76.874 91.8239 77.0002C91.8255 77.1264 91.8205 77.2525 91.8087 77.3782C91.8245 77.5091 91.8331 77.6407 91.8347 77.7727C91.836 77.9046 91.8306 78.0362 91.8179 78.1677C91.8053 78.2989 91.7856 78.4293 91.7587 78.5584C91.7321 78.6877 91.6985 78.815 91.658 78.9406C91.6174 79.0662 91.5703 79.1893 91.5167 79.3099C91.4627 79.4304 91.4028 79.5477 91.3363 79.6617C91.27 79.7758 91.1977 79.8859 91.1192 79.9921C91.041 80.0983 90.9572 80.1999 90.8679 80.2971C90.7785 80.3943 90.6843 80.4864 90.5851 80.5733C90.486 80.6605 90.3823 80.7418 90.2743 80.8176C90.1663 80.8934 90.0546 80.9633 89.9391 81.027C89.8233 81.0909 89.7047 81.1481 89.5831 81.1991C89.4613 81.25 89.3371 81.2942 89.2106 81.3318C89.0841 81.3694 88.956 81.4001 88.8263 81.4237C88.6963 81.4474 88.5656 81.4641 88.4341 81.4737C88.3025 81.4835 88.1706 81.486 88.0389 81.4814H88.0245V81.4814Z" fill="white"/>
<path d="M66.7979 108.015L65.4785 108.363V107.145L67.32 106.71L68.5378 106.956L67.1604 113.408L65.7105 113.104L66.7979 108.015Z" fill="#519868"/>
<path d="M72.0319 108.464C71.5243 108.464 71.104 108.856 71.0459 109.537C71.0324 109.601 71.0256 109.666 71.0256 109.731C71.0254 109.797 71.0321 109.862 71.0457 109.926C71.0591 109.99 71.0791 110.052 71.1056 110.112C71.1318 110.172 71.1642 110.228 71.2023 110.282C71.2406 110.335 71.2838 110.384 71.3322 110.428C71.3805 110.472 71.4329 110.511 71.4893 110.544C71.5457 110.577 71.605 110.604 71.6671 110.625C71.7292 110.646 71.7927 110.66 71.8579 110.668C72.0257 110.692 72.1885 110.674 72.3463 110.612C72.504 110.55 72.6361 110.452 72.7423 110.32C72.807 110.197 72.8457 110.067 72.8583 109.929C72.8583 109.233 72.7134 108.478 72.0319 108.478V108.464ZM69.8424 112.727C70.06 112.76 70.2775 112.76 70.495 112.727C70.9602 112.757 71.4 112.665 71.8144 112.451C72.035 112.327 72.2243 112.166 72.3823 111.967C72.5402 111.769 72.6554 111.549 72.7278 111.306C72.5374 111.456 72.3249 111.561 72.0903 111.622C71.8554 111.683 71.6185 111.693 71.3793 111.654C71.2449 111.646 71.1126 111.625 70.9826 111.59C70.8525 111.555 70.7276 111.506 70.6075 111.445C70.4875 111.384 70.3751 111.311 70.2702 111.227C70.1654 111.142 70.0703 111.048 69.9851 110.943C69.9 110.839 69.8263 110.727 69.7644 110.607C69.7025 110.488 69.6536 110.363 69.6174 110.233C69.5815 110.104 69.5592 109.972 69.5508 109.837C69.5423 109.703 69.5476 109.569 69.567 109.436C69.5795 109.278 69.6077 109.123 69.6516 108.971C69.6955 108.818 69.7542 108.672 69.8276 108.532C69.9009 108.392 69.9877 108.26 70.0877 108.138C70.1878 108.015 70.2991 107.903 70.4217 107.803C70.5441 107.703 70.6755 107.616 70.8157 107.542C70.9558 107.469 71.102 107.41 71.254 107.366C71.4061 107.322 71.561 107.293 71.7188 107.28C71.8767 107.267 72.0341 107.271 72.1913 107.29C72.3668 107.309 72.5385 107.346 72.7063 107.402C72.8739 107.457 73.034 107.529 73.1865 107.619C73.3389 107.708 73.4803 107.812 73.6106 107.931C73.7411 108.05 73.8577 108.182 73.9602 108.325C74.0629 108.469 74.1494 108.622 74.2196 108.784C74.2902 108.946 74.3427 109.114 74.3778 109.287C74.4128 109.46 74.4293 109.635 74.4272 109.811C74.4254 109.988 74.4049 110.162 74.3662 110.335C74.3562 110.614 74.3171 110.889 74.2479 111.161C74.1789 111.431 74.0818 111.692 73.9568 111.942C73.8317 112.193 73.6814 112.426 73.506 112.644C73.3305 112.862 73.1339 113.059 72.9162 113.235C72.5483 113.504 72.1445 113.699 71.7047 113.819C71.2647 113.938 70.818 113.976 70.3643 113.93C70.1372 113.948 69.9101 113.948 69.6828 113.93L69.8424 112.727Z" fill="#519868"/>
<path d="M77.106 113.104C77.6858 113.104 77.976 112.321 77.9178 110.827C77.8599 109.334 77.5264 108.594 76.9174 108.594C76.3084 108.594 76.0185 109.363 76.0763 110.842C76.1345 112.321 76.497 113.075 77.0767 113.046L77.106 113.104ZM77.106 114.264C75.4384 114.264 74.6411 112.814 74.5686 110.972C74.4962 109.131 75.2357 107.551 76.8885 107.493C78.5413 107.434 79.3534 108.942 79.4112 110.755C79.4112 112.77 78.7299 114.206 77.106 114.264Z" fill="#519868"/>
<path d="M82.4273 112.625C82.5409 112.615 82.6477 112.582 82.7477 112.527C82.8476 112.471 82.9321 112.398 83.0009 112.307C83.0699 112.216 83.1176 112.115 83.1439 112.004C83.1701 111.892 83.173 111.781 83.152 111.668C83.0507 111.103 82.5721 110.842 81.9631 110.784C81.8574 110.827 81.7622 110.887 81.6772 110.963C81.5923 111.039 81.5228 111.128 81.4687 111.228C81.4144 111.329 81.3786 111.435 81.3615 111.548C81.3445 111.661 81.3468 111.774 81.3687 111.886C81.3763 111.945 81.39 112.004 81.41 112.06C81.4297 112.117 81.4549 112.171 81.4859 112.223C81.517 112.274 81.5528 112.322 81.5938 112.366C81.6346 112.41 81.6796 112.449 81.7285 112.484C81.7777 112.519 81.8298 112.548 81.8848 112.572C81.94 112.596 81.9969 112.614 82.0558 112.626C82.1146 112.638 82.1741 112.644 82.2343 112.644C82.2943 112.644 82.3539 112.638 82.4124 112.625H82.4273V112.625ZM81.5863 108.015C81.4842 108.028 81.389 108.062 81.3008 108.115C81.2124 108.168 81.1382 108.237 81.0779 108.32C81.0177 108.404 80.9764 108.496 80.9539 108.596C80.9312 108.697 80.9293 108.798 80.9482 108.899C81.0351 109.348 81.4557 109.551 81.9921 109.624C82.0794 109.583 82.1579 109.529 82.2278 109.463C82.2978 109.397 82.3557 109.321 82.4015 109.236C82.4473 109.152 82.4783 109.062 82.4951 108.967C82.512 108.872 82.5136 108.777 82.4996 108.681C82.4906 108.58 82.4622 108.485 82.4142 108.396C82.3659 108.307 82.302 108.23 82.2225 108.167C82.1429 108.104 82.0542 108.059 81.9564 108.033C81.8582 108.006 81.7591 108 81.6585 108.015H81.5863V108.015ZM81.4702 106.985C82.9202 106.709 83.7175 107.478 83.8625 108.261C83.8878 108.412 83.8915 108.565 83.8731 108.717C83.8546 108.87 83.8154 109.017 83.7549 109.158C83.6947 109.299 83.6158 109.429 83.5179 109.548C83.4203 109.667 83.308 109.769 83.1812 109.856C83.3645 109.881 83.539 109.935 83.7049 110.017C83.8707 110.1 84.019 110.206 84.1497 110.337C84.2807 110.468 84.3873 110.616 84.4695 110.782C84.552 110.948 84.6059 111.122 84.6308 111.306C84.834 112.48 84.0074 113.452 82.5429 113.727C81.0787 114.002 80.0201 113.234 79.8753 112.277C79.8421 112.1 79.8366 111.922 79.8589 111.743C79.881 111.565 79.9297 111.393 80.0049 111.23C80.0804 111.066 80.1785 110.918 80.3 110.785C80.4214 110.652 80.5602 110.54 80.7162 110.45C80.5692 110.413 80.4303 110.356 80.2996 110.279C80.1688 110.202 80.0515 110.108 79.9473 109.998C79.8434 109.887 79.7568 109.764 79.6879 109.629C79.619 109.494 79.5701 109.352 79.5417 109.203C79.3533 108.101 80.1944 107.202 81.4558 106.97L81.4702 106.985Z" fill="#519868"/>
<path d="M27.0979 73.1729C27.0979 73.1729 38.6973 40.7526 74.2202 40.7526C74.2202 40.7526 109.729 39.0271 121.807 73.7529C121.807 73.7529 108.598 41.6226 74.3072 42.681C74.3073 42.681 44.845 39.6071 27.0979 73.1729Z" fill="#282A2B"/>
<path d="M61.5639 10.3625L60.2155 15.3504L55.4163 17.0468L59.6501 19.8886L59.7516 25.0647L63.7243 21.8459L68.5815 23.3539L66.7981 18.4966L69.698 14.2628L64.6377 14.4949L61.5639 10.3625Z" fill="#F3DB4F"/>
<path d="M86.4732 10L83.3125 14.0599L78.2522 13.7119L81.0504 18.0182L79.1655 22.8173L84.0519 21.4254L87.9522 24.7458L88.1697 19.5696L92.4758 16.8147L87.7057 15.0167L86.4732 10Z" fill="#F3DB4F"/>
<path d="M40.395 19.4681L40.9895 24.601L37.1616 28.0082L42.1495 29.0376L44.1358 33.7934L46.6296 29.2841L51.6899 28.8057L48.2535 25.0069L49.37 19.9612L44.7593 22.1216L40.395 19.4681Z" fill="#F3DB4F"/>
<path d="M24.3008 35.9392L26.8091 40.434L24.5907 45.0883L29.5639 44.0588L33.2323 47.6257L33.7978 42.4929L38.2779 40.0426L33.6527 37.9111L32.7538 32.8219L29.332 36.6498L24.3008 35.9392Z" fill="#F3DB4F"/>
<path d="M107.483 19.3088L106.888 24.456L110.716 27.8634L105.728 28.8784L103.742 33.6341L101.248 29.1247L96.1877 28.6609L99.6243 24.8476L98.5078 19.8018L103.118 21.9622L107.483 19.3088Z" fill="#F3DB4F"/>
<path d="M124.519 35.9392L122.01 40.434L124.228 45.0883L119.241 44.0588L115.587 47.6257L115.021 42.4929L110.541 40.0426L115.166 37.9111L116.066 32.8219L119.487 36.6498L124.519 35.9392Z" fill="#F3DB4F"/>
<path d="M39.7504 133.158L39.7511 133.157C39.8083 133.074 39.8601 132.987 39.9067 132.896C39.9531 132.805 39.9937 132.712 40.0283 132.616L39.7504 133.158ZM39.7504 133.158C39.6934 133.242 39.631 133.321 39.5632 133.397C39.4953 133.473 39.4231 133.545 39.3463 133.612C39.2694 133.679 39.1888 133.74 39.1044 133.797L39.1041 133.797C39.0195 133.853 38.9318 133.904 38.8406 133.949L38.8402 133.95C38.7491 133.995 38.6558 134.034 38.5603 134.067L38.5593 134.068M39.7504 133.158L38.5593 134.068M38.5593 134.068C38.4635 134.101 38.366 134.128 38.2665 134.149C38.1658 134.17 38.0656 134.185 37.9656 134.193L37.9643 134.193C37.8631 134.201 37.762 134.203 37.6606 134.198L37.6595 134.198C37.5579 134.194 37.4572 134.183 37.3578 134.165L37.3576 134.165M38.5593 134.068L37.3576 134.165M37.3576 134.165C37.2568 134.147 37.1581 134.124 37.0614 134.094M37.3576 134.165L37.0614 134.094M37.0614 134.094C36.964 134.063 36.8689 134.027 36.7761 133.985C36.6835 133.943 36.5941 133.895 36.508 133.842L36.5076 133.841C36.4215 133.788 36.3387 133.729 36.2593 133.665C36.18 133.6 36.1055 133.532 36.0353 133.458C35.965 133.385 35.8999 133.307 35.8398 133.225L35.8392 133.225C35.7791 133.143 35.7243 133.058 35.6746 132.969C35.6251 132.88 35.5815 132.788 35.5436 132.694C35.5056 132.599 35.4738 132.502 35.4483 132.404C35.4227 132.306 35.4036 132.206 35.3906 132.105C35.3777 132.004 35.3713 131.902 35.3713 131.801C35.3713 131.699 35.3778 131.598 35.3907 131.497C35.4036 131.396 35.4228 131.296 35.4483 131.198L37.0614 134.094ZM36.0353 130.144L36.035 130.144C35.9651 130.217 35.9 130.295 35.8396 130.377C35.7789 130.459 35.7239 130.545 35.6744 130.634L36.0353 130.144ZM36.0353 130.144C36.1061 130.07 36.1806 130.001 36.2589 129.938L36.2589 129.938M36.0353 130.144L36.2589 129.938M36.2589 129.938L36.2601 129.937M36.2589 129.938L36.2601 129.937M36.2601 129.937C36.3384 129.873 36.4208 129.814 36.5075 129.761L36.5078 129.761M36.2601 129.937L36.5078 129.761M36.5078 129.761C36.5941 129.707 36.6836 129.659 36.7765 129.617C36.8691 129.575 36.9638 129.539 37.0608 129.509C37.1586 129.478 37.2571 129.455 37.3566 129.437L37.3573 129.437M36.5078 129.761L37.3573 129.437M37.3573 129.437C37.4573 129.42 37.5581 129.409 37.66 129.404L37.3573 129.437ZM40.2744 136.038V136.173V136.673H40.7744H42.4274H42.9274V136.173V127.444V126.944H42.4274H40.7746V127.444H40.2746V127.444V127.592C40.2294 127.567 40.1838 127.542 40.1377 127.519L40.1376 127.519C39.9654 127.431 39.7879 127.353 39.6047 127.286M40.2744 136.038L39.6047 127.286M40.2744 136.038C40.063 136.16 39.8417 136.266 39.6109 136.356L40.2744 136.038ZM39.6047 127.286C39.6049 127.286 39.605 127.286 39.6051 127.286L39.4324 127.755L39.6044 127.286C39.6045 127.286 39.6046 127.286 39.6047 127.286ZM36.7413 127.136L36.7419 127.136C36.9297 127.089 37.1201 127.052 37.313 127.028C37.5063 127.003 37.6998 126.99 37.8932 126.988M36.7413 127.136L38.4745 127.018C38.2818 126.997 38.0881 126.986 37.8932 126.988M36.7413 127.136C36.5533 127.184 36.3686 127.242 36.1874 127.312L36.1871 127.312M36.7413 127.136L36.1871 127.312M37.8932 126.988C37.8934 126.988 37.8935 126.988 37.8936 126.988L37.8975 127.488L37.8928 126.988C37.893 126.988 37.8931 126.988 37.8932 126.988ZM36.1871 127.312C36.0056 127.382 35.8292 127.463 35.6581 127.554L35.6577 127.554M36.1871 127.312L35.6577 127.554M35.6577 127.554C35.4862 127.645 35.3208 127.746 35.1613 127.857L35.1607 127.857M35.6577 127.554L35.1607 127.857M35.1607 127.857C35.0019 127.968 34.8497 128.088 34.7044 128.217L34.7042 128.217M35.1607 127.857L34.7042 128.217M34.7042 128.217C34.5594 128.346 34.4227 128.484 34.294 128.63L34.2937 128.63M34.7042 128.217L34.2937 128.63M34.2937 128.63C34.1655 128.775 34.0463 128.928 33.9361 129.088L34.2937 128.63ZM33.6353 129.587L33.6356 129.586C33.7256 129.415 33.8257 129.248 33.9361 129.088L33.6353 129.587ZM33.6353 129.587C33.5453 129.759 33.4658 129.935 33.3969 130.117L33.3968 130.117M33.6353 129.587L33.3968 130.117M33.3968 130.117C33.3281 130.299 33.27 130.484 33.2233 130.673C33.1768 130.861 33.1415 131.052 33.1178 131.245L33.614 131.306M33.3968 130.117L33.0813 131.825M33.0813 131.825L33.0813 131.825C33.0819 131.631 33.0938 131.438 33.1178 131.244L33.614 131.306M33.0813 131.825C33.0808 132.019 33.092 132.213 33.1147 132.406L33.1147 132.406M33.0813 131.825L33.1147 132.406M33.614 131.306C33.5926 131.479 33.5819 131.652 33.5813 131.826L33.8643 130.294C33.8025 130.458 33.7505 130.623 33.7087 130.793C33.6669 130.962 33.6353 131.133 33.614 131.306ZM33.1147 132.406C33.1374 132.599 33.1716 132.79 33.2174 132.979L33.2174 132.979M33.1147 132.406L33.2174 132.979M33.2174 132.979C33.263 133.167 33.3197 133.353 33.3879 133.535M33.2174 132.979L33.6238 134.067M33.6238 134.067L33.6236 134.066C33.5347 133.894 33.4559 133.717 33.3879 133.535M33.6238 134.067C33.7131 134.239 33.8123 134.406 33.9216 134.566L33.6238 134.067ZM33.3879 133.535C33.3878 133.535 33.3878 133.535 33.3878 133.535L33.8561 133.36L33.388 133.535C33.3879 133.535 33.3879 133.535 33.3879 133.535ZM34.6856 135.442L34.6851 135.441C34.5409 135.311 34.4051 135.173 34.2774 135.027C34.1494 134.881 34.0309 134.727 33.9216 134.566L34.6856 135.442ZM34.6856 135.442C34.8298 135.572 34.9814 135.692 35.1403 135.804L34.6856 135.442ZM36.1638 136.354L36.163 136.354C35.9826 136.283 35.8068 136.202 35.6356 136.11C35.4642 136.018 35.2992 135.916 35.1407 135.804L36.1638 136.354ZM36.1638 136.354C36.3443 136.425 36.5286 136.485 36.7166 136.533L36.7176 136.534M36.1638 136.354L36.7176 136.534M36.7176 136.534C36.9051 136.582 37.0951 136.619 37.2877 136.645M36.7176 136.534L37.8675 136.687M37.8675 136.687L37.8675 136.687C37.674 136.685 37.4806 136.671 37.2877 136.645M37.8675 136.687L37.8778 136.687M37.8675 136.687L37.8778 136.687M37.2877 136.645L37.3541 136.15L37.2878 136.645C37.2878 136.645 37.2877 136.645 37.2877 136.645ZM37.8778 136.687C38.4751 136.684 39.0539 136.573 39.6107 136.356L37.8778 136.687ZM38.0051 128.911L37.9647 129.409C38.0661 129.417 38.1663 129.432 38.2657 129.453L38.2672 129.453C38.3658 129.474 38.4631 129.501 38.5593 129.534L38.5603 129.535C38.6561 129.568 38.7494 129.607 38.8403 129.652C38.9316 129.698 39.0195 129.749 39.1044 129.805C39.1892 129.862 39.2698 129.924 39.3464 129.99C39.4231 130.057 39.4953 130.129 39.5628 130.204C39.6309 130.281 39.6934 130.361 39.7506 130.444L39.7509 130.445C39.8083 130.528 39.8601 130.615 39.9067 130.706C39.9532 130.797 39.9938 130.89 40.0282 130.986L40.0283 130.986C40.0628 131.081 40.0911 131.179 40.1134 131.278C40.134 131.37 40.149 131.463 40.1586 131.557V132.045C40.149 132.139 40.134 132.232 40.1134 132.324C40.0912 132.423 40.0629 132.521 40.0284 132.616L38.0051 128.911ZM35.4483 131.198C35.4739 131.1 35.5056 131.003 35.5435 130.909L35.4483 131.198Z" fill="#519868" stroke="white"/>
<path d="M58.4265 132.324L58.4266 132.324C58.4472 132.232 58.4623 132.139 58.4717 132.045V131.557C58.4623 131.463 58.4472 131.371 58.4266 131.279L58.4265 131.278C58.4043 131.179 58.376 131.081 58.3414 130.985L58.3413 130.985C58.307 130.89 58.2665 130.797 58.2198 130.706C58.1732 130.615 58.1214 130.528 58.064 130.445L58.0639 130.444C58.0066 130.361 57.944 130.281 57.8761 130.204C57.8086 130.129 57.7362 130.057 57.6592 129.99L57.9877 129.613M58.4265 132.324L53.8568 130.909C53.8946 130.814 53.9382 130.722 53.9878 130.633C54.0369 130.545 54.092 130.46 54.1529 130.377C54.2134 130.295 54.2785 130.217 54.3483 130.144L54.3485 130.144C54.4193 130.07 54.4938 130.001 54.5722 129.938L54.5722 129.938L54.5735 129.937C54.6516 129.873 54.734 129.815 54.8207 129.761L54.8212 129.761C54.9074 129.707 54.9967 129.659 55.0895 129.617C55.1822 129.575 55.2771 129.539 55.3744 129.509L55.2264 129.031M58.4265 132.324C58.4044 132.423 58.376 132.521 58.3414 132.617M58.4265 132.324L58.3414 132.617M57.9877 129.613L57.6595 129.99C57.5829 129.924 57.5023 129.862 57.4175 129.805C57.3326 129.749 57.2447 129.698 57.1534 129.652C57.0625 129.607 56.9692 129.568 56.8735 129.535L56.8724 129.534C56.7764 129.501 56.679 129.474 56.5803 129.453L56.5788 129.453C56.4796 129.432 56.3794 129.417 56.2779 129.409L56.3182 128.911L56.2783 129.409C56.1769 129.401 56.0754 129.399 55.9733 129.404C55.8715 129.409 55.7706 129.42 55.6705 129.437L55.6699 129.437C55.5703 129.455 55.4719 129.478 55.374 129.509L55.2264 129.031M57.9877 129.613C57.8948 129.532 57.7973 129.458 57.6951 129.39L58.2495 129.872C58.1678 129.78 58.0804 129.694 57.9877 129.613ZM55.2264 129.031C55.109 129.067 54.9943 129.111 54.8824 129.162L56.3182 128.911C56.1956 128.901 56.073 128.899 55.9502 128.904C55.8275 128.91 55.7054 128.923 55.5842 128.945C55.463 128.966 55.3439 128.995 55.2264 129.031ZM58.3414 132.617C58.3069 132.712 58.2664 132.805 58.22 132.896C58.1732 132.987 58.1214 133.074 58.0643 133.157L58.0636 133.158C58.0064 133.242 57.9439 133.321 57.8762 133.398C57.8084 133.473 57.7361 133.545 57.6593 133.612C57.5824 133.679 57.5019 133.74 57.4176 133.797L57.4173 133.797C57.3327 133.853 57.245 133.904 57.1538 133.949L57.1534 133.95C57.0623 133.995 56.9689 134.034 56.8735 134.067L56.8724 134.068C56.7768 134.101 56.6792 134.128 56.5797 134.149C56.479 134.17 56.3789 134.185 56.2788 134.193L56.2774 134.193C56.1762 134.201 56.0752 134.203 55.974 134.198L55.9729 134.198C55.8712 134.194 55.7706 134.183 55.671 134.165L55.6709 134.165C55.5701 134.147 55.4713 134.124 55.3747 134.094C55.2771 134.063 55.182 134.027 55.0892 133.985L54.8824 134.44M58.3414 132.617L58.2495 133.73C58.1677 133.822 58.0804 133.908 57.9877 133.989C57.8948 134.07 57.7973 134.144 57.6951 134.212C57.5928 134.281 57.4867 134.342 57.3765 134.397C57.2664 134.452 57.1533 134.5 57.0372 134.54C56.9211 134.58 56.8029 134.613 56.6826 134.639C56.5623 134.664 56.4409 134.682 56.3182 134.691C56.1956 134.701 56.073 134.704 55.9502 134.698C55.8275 134.692 55.7054 134.679 55.5842 134.658C55.4632 134.636 55.3439 134.608 55.2264 134.571C55.109 134.535 54.9943 134.491 54.8824 134.44M54.8824 134.44C54.7704 134.389 54.6622 134.331 54.5578 134.267C54.4532 134.202 54.3531 134.131 54.2576 134.053M54.8824 134.44L55.0895 133.985C54.9969 133.943 54.9076 133.895 54.8214 133.842L54.8209 133.841C54.7347 133.788 54.6519 133.729 54.5727 133.665M54.2576 134.053L54.5731 133.665C54.573 133.665 54.5729 133.665 54.5727 133.665M54.2576 134.053C54.1621 133.976 54.072 133.893 53.987 133.804C53.902 133.715 53.8232 133.621 53.7502 133.522C53.6773 133.423 53.6108 133.319 53.551 133.212L54.2576 134.053ZM54.5727 133.665C54.4933 133.6 54.4187 133.532 54.3485 133.458C54.2783 133.385 54.2132 133.307 54.1529 133.225L54.1525 133.225C54.0923 133.143 54.0373 133.058 53.9878 132.969M54.5727 133.665L53.9878 132.969M53.9878 132.969C53.9383 132.88 53.8947 132.788 53.8568 132.694C53.8189 132.599 53.7871 132.503 53.7616 132.404C53.736 132.306 53.7168 132.206 53.7039 132.105L53.7039 132.105C53.691 132.004 53.6844 131.902 53.6844 131.801C53.6844 131.7 53.691 131.598 53.7039 131.497L53.7039 131.497C53.7168 131.396 53.736 131.296 53.7616 131.198L53.9878 132.969ZM58.5878 127.592V127.444V127.444H59.0878V126.944H60.7407H61.2407V127.444V136.173V136.673H60.7407H59.0877H58.5877V136.173V136.038C58.3763 136.16 58.155 136.266 57.9241 136.356M58.5878 127.592L55.6674 136.149L55.6009 136.645C55.7939 136.671 55.9873 136.685 56.1809 136.687L56.1809 136.687L56.1911 136.687C56.7884 136.684 57.3671 136.573 57.9241 136.356M58.5878 127.592C58.5426 127.567 58.497 127.542 58.451 127.519L58.4508 127.519C58.2787 127.431 58.1012 127.353 57.9179 127.286C57.7355 127.219 57.5499 127.163 57.361 127.118L57.3609 127.118C57.1723 127.074 56.9813 127.04 56.7878 127.018L58.5878 127.592ZM57.9241 136.356L57.7424 135.89L57.9241 136.356C57.9241 136.356 57.9241 136.356 57.9241 136.356ZM55.0545 127.136L55.0551 127.136C55.2429 127.089 55.4332 127.052 55.6261 127.028C55.8195 127.003 56.013 126.99 56.2065 126.988M55.0545 127.136L56.7875 127.018C56.595 126.997 56.4012 126.986 56.2065 126.988M55.0545 127.136C54.8665 127.184 54.6818 127.242 54.5006 127.312L54.5004 127.312M55.0545 127.136L54.5004 127.312M56.2065 126.988C56.2066 126.988 56.2067 126.988 56.2069 126.988L56.2107 127.488L56.2061 126.988C56.2062 126.988 56.2063 126.988 56.2065 126.988ZM54.5004 127.312C54.3187 127.382 54.1424 127.463 53.9714 127.554L53.9709 127.554M54.5004 127.312L53.9709 127.554M53.9709 127.554C53.7994 127.645 53.634 127.746 53.4745 127.857L53.4739 127.857M53.9709 127.554L53.4739 127.857M53.4739 127.857C53.3151 127.968 53.1628 128.088 53.0175 128.217L53.4739 127.857ZM51.9487 129.587L51.9487 129.586C52.0389 129.414 52.1391 129.248 52.2493 129.088L51.9487 129.587ZM51.9487 129.587C51.8586 129.759 51.779 129.935 51.71 130.117L51.71 130.117M51.9487 129.587L51.71 130.117M51.71 130.117C51.6412 130.299 51.5834 130.484 51.5367 130.672L51.5366 130.672M51.71 130.117L51.5366 130.672M51.5366 130.672C51.4901 130.861 51.4548 131.051 51.4311 131.244C51.4071 131.437 51.3951 131.631 51.3945 131.825L51.3945 131.825M51.5366 130.672L51.3945 131.825M51.3945 131.825C51.3941 132.019 51.4052 132.213 51.4279 132.406L51.3945 131.825ZM51.5307 132.979L51.5307 132.979C51.4848 132.79 51.4506 132.599 51.428 132.406L51.5307 132.979ZM51.5307 132.979C51.5763 133.167 51.633 133.352 51.701 133.534L51.5307 132.979ZM52.9989 135.442L52.9984 135.441C52.8541 135.311 52.7183 135.173 52.5907 135.027C52.4626 134.881 52.3441 134.727 52.2349 134.566L52.9989 135.442ZM52.9989 135.442C53.1432 135.572 53.2949 135.693 53.4537 135.804L52.9989 135.442ZM53.9489 136.11L54.1853 135.669L53.9485 136.11C53.9486 136.11 53.9487 136.11 53.9489 136.11ZM58.5877 135.449C58.7626 135.331 58.9293 135.2 59.0877 135.057V135.673V135.706L58.5877 135.449ZM53.7616 131.198C53.7872 131.1 53.8189 131.003 53.8567 130.909L53.7616 131.198ZM53.0175 128.217C52.8729 128.346 52.7361 128.484 52.6074 128.63L53.0175 128.217ZM52.6072 128.63C52.4787 128.775 52.3594 128.928 52.2494 129.088L52.6072 128.63ZM51.701 133.535C51.7691 133.717 51.848 133.894 51.9371 134.067C51.9371 134.067 51.937 134.067 51.937 134.066L51.701 133.535Z" fill="#519868" stroke="white"/>
<path d="M29.4999 134.365C29.666 134.296 29.824 134.211 29.9738 134.112C30.1235 134.012 30.2623 133.898 30.3899 133.771C30.5174 133.644 30.6316 133.506 30.7324 133.357C30.8331 133.208 30.9183 133.05 30.9884 132.884M29.4999 134.365L27.9511 134.549C27.9372 134.546 27.9234 134.544 27.9095 134.541C27.7306 134.506 27.5569 134.454 27.3881 134.386C27.2195 134.317 27.0592 134.232 26.9072 134.131M29.4999 134.365C29.3337 134.434 29.1622 134.487 28.9859 134.522C28.8097 134.558 28.6318 134.576 28.4522 134.577L29.4999 134.365ZM30.9884 132.884C31.0584 132.718 31.1118 132.548 31.1483 132.371C31.1849 132.195 31.2042 132.017 31.206 131.837M30.9884 132.884L30.5277 132.69C30.5277 132.69 30.5277 132.69 30.5277 132.69M30.9884 132.884L30.5277 132.69M31.206 131.837C31.207 131.655 31.1901 131.474 31.1554 131.295M31.206 131.837L30.706 131.834C30.706 131.834 30.706 131.834 30.706 131.833M31.206 131.837L30.706 131.832C30.706 131.832 30.706 131.833 30.706 131.833M31.1554 131.295C31.1207 131.116 31.0688 130.943 30.9998 130.774C30.9309 130.605 30.8461 130.445 30.7455 130.293M31.1554 131.295L30.6646 131.39M31.1554 131.295L30.6646 131.39C30.6646 131.39 30.6646 131.39 30.6646 131.39M30.7455 130.293C30.6447 130.141 30.5303 130 30.4017 129.871C30.2734 129.742 30.1336 129.626 29.9823 129.524M30.7455 130.293L30.329 130.569C30.3289 130.569 30.3288 130.569 30.3287 130.569M30.7455 130.293L30.3284 130.569C30.3285 130.569 30.3286 130.569 30.3287 130.569M29.9823 129.524C29.8312 129.423 29.6714 129.337 29.5033 129.267C29.335 129.196 29.1616 129.143 28.9829 129.107M29.9823 129.524L29.7031 129.939C29.8274 130.023 29.9417 130.117 30.0466 130.223L30.0473 130.224C30.1521 130.329 30.2458 130.444 30.3287 130.569M29.9823 129.524L29.7035 129.939C29.5795 129.856 29.4486 129.786 29.3107 129.728C29.173 129.671 29.031 129.627 28.8841 129.598L28.9829 129.107M28.9829 129.107C28.8043 129.072 28.6238 129.054 28.4415 129.053C28.2594 129.053 28.0788 129.07 27.9 129.106M28.9829 129.107L28.8846 129.598C28.7382 129.568 28.5902 129.553 28.4402 129.553C28.2914 129.553 28.1436 129.567 27.9966 129.596L27.9 129.106M27.9 129.106C27.7212 129.141 27.5476 129.193 27.3791 129.263C27.2108 129.333 27.0507 129.418 26.8992 129.519C26.7476 129.62 26.6074 129.735 26.4785 129.864C26.3497 129.993 26.2347 130.133 26.1334 130.285M27.9 129.106L27.9966 129.596C27.8506 129.625 27.7086 129.668 27.57 129.725C27.4316 129.782 27.3007 129.852 27.1771 129.935L27.1769 129.935C27.0524 130.018 26.9377 130.112 26.8322 130.218C26.7264 130.324 26.6322 130.438 26.549 130.563M26.1334 130.285C26.0322 130.436 25.9469 130.596 25.8773 130.765C25.8077 130.933 25.7552 131.107 25.7199 131.285M26.1334 130.285L26.5492 130.562C26.5492 130.563 26.5491 130.563 26.549 130.563M26.1334 130.285L26.549 130.563M25.7199 131.285C25.6847 131.464 25.6671 131.645 25.6674 131.827M25.7199 131.285L26.2105 131.382C26.2105 131.382 26.2105 131.382 26.2104 131.382M25.7199 131.285L26.2104 131.383C26.2104 131.382 26.2104 131.382 26.2104 131.382M25.6674 131.827C25.6678 132.01 25.6858 132.19 25.7219 132.369C25.7577 132.547 25.8108 132.721 25.881 132.889M25.6674 131.827L26.1674 131.826M25.6674 131.827L26.1674 131.826C26.1674 131.826 26.1674 131.826 26.1674 131.826M25.881 132.889C25.9512 133.057 26.0372 133.217 26.1388 133.368M25.881 132.889L26.3424 132.696C26.2848 132.558 26.2415 132.416 26.2121 132.27L26.212 132.27C26.1825 132.124 26.1678 131.976 26.1674 131.826M25.881 132.889L26.3425 132.696C26.3999 132.834 26.4704 132.965 26.5539 133.089M26.1388 133.368C26.2405 133.519 26.3562 133.659 26.4854 133.787C26.6147 133.916 26.7553 134.03 26.9072 134.131M26.1388 133.368L26.5538 133.089C26.5538 133.089 26.5539 133.089 26.5539 133.089M26.1388 133.368L26.5539 133.089M26.9072 134.131L27.1831 133.714C27.1832 133.714 27.1833 133.714 27.1834 133.714M26.9072 134.131L27.1835 133.714C27.1835 133.714 27.1834 133.714 27.1834 133.714M28.1959 134.079C28.1318 134.072 28.068 134.062 28.0045 134.05L28.0042 134.05C27.8584 134.022 27.7163 133.979 27.5775 133.923L28.1959 134.079ZM28.1959 134.079L28.4482 134.077C28.5965 134.076 28.7423 134.062 28.8864 134.032L28.8866 134.032C29.0313 134.003 29.1716 133.96 29.3076 133.903L29.3084 133.903C29.4439 133.847 29.5733 133.778 29.6966 133.696C29.8195 133.613 29.9328 133.521 30.037 133.417C30.1419 133.313 30.2354 133.2 30.3179 133.077L30.3181 133.077C30.4004 132.955 30.4702 132.826 30.5277 132.69M28.1959 134.079L27.5774 133.923C27.4394 133.866 27.3082 133.797 27.1834 133.714M30.5277 132.69C30.5852 132.554 30.6288 132.414 30.6587 132.27L30.6587 132.27C30.6887 132.125 30.7044 131.98 30.706 131.833M30.706 131.833C30.7067 131.684 30.6929 131.536 30.6646 131.39M30.6646 131.39C30.6361 131.244 30.5937 131.102 30.537 130.963L30.5369 130.963C30.4806 130.825 30.4113 130.694 30.3287 130.569M26.549 130.563C26.4662 130.687 26.3964 130.818 26.3394 130.956M26.3394 130.956C26.3395 130.955 26.3395 130.955 26.3395 130.955L25.8775 130.765L26.3394 130.956ZM26.3394 130.956C26.2823 131.094 26.2394 131.236 26.2104 131.382M26.2104 131.382C26.1816 131.529 26.1672 131.677 26.1674 131.826M26.5539 133.089C26.6369 133.213 26.7316 133.327 26.8378 133.432L26.8381 133.433C26.9438 133.538 27.0587 133.632 27.1834 133.714M28.4618 126.944L28.4618 126.944C28.6541 126.948 28.8451 126.963 29.0349 126.99L28.4618 126.944ZM28.4618 126.944L28.4538 126.944M28.4618 126.944L28.4538 126.944M28.4538 126.944C27.8849 126.941 27.3313 127.035 26.7957 127.226L26.7954 127.227M28.4538 126.944L26.7954 127.227M26.7954 127.227C26.573 127.306 26.3588 127.401 26.1529 127.51M26.7954 127.227L26.1529 127.51M26.1529 127.51V127.031H25.6529H24H23.5V127.531V140V140.5H24H25.6383H26.1383V140V136.104C26.1916 136.131 26.2454 136.158 26.2998 136.183L26.3 136.183C26.474 136.265 26.6519 136.336 26.8337 136.396L26.8343 136.396C27.0165 136.457 27.2015 136.506 27.3898 136.544M26.1529 127.51L27.3898 136.544M27.3898 136.544C27.3897 136.544 27.3897 136.544 27.3896 136.544L27.4895 136.055L27.3898 136.544ZM30.7289 136.024C30.8962 135.93 31.0577 135.827 31.2135 135.713M30.7289 136.024L32.4006 134.473M30.7289 136.024L30.4846 135.587L30.7293 136.024C30.7291 136.024 30.729 136.024 30.7289 136.024ZM31.2135 135.713C31.3685 135.6 31.5164 135.479 31.657 135.348L31.657 135.348C31.7979 135.218 31.9304 135.079 32.0547 134.933M31.2135 135.713C31.2133 135.713 31.2132 135.713 31.2131 135.714L30.9189 135.309L31.2135 135.713ZM32.0547 134.933C32.0547 134.933 32.0547 134.933 32.0548 134.933L31.6759 134.611L32.0547 134.933ZM32.0547 134.933C32.1791 134.787 32.2943 134.633 32.4006 134.473M32.4006 134.473C32.4005 134.473 32.4004 134.473 32.4003 134.473L31.9839 134.197L32.4006 134.473ZM32.8924 130.069C32.8242 129.889 32.7455 129.715 32.6565 129.544L32.6565 129.544C32.5675 129.374 32.4688 129.21 32.3602 129.052L32.3602 129.052C32.2516 128.893 32.1342 128.742 32.0079 128.598L32.0075 128.597C31.8812 128.453 31.7465 128.317 31.6041 128.188L31.6039 128.188C31.4615 128.06 31.3119 127.94 31.155 127.83C30.9982 127.719 30.8353 127.618 30.6664 127.527C30.4972 127.435 30.3233 127.354 30.1449 127.283C29.9665 127.213 29.7846 127.153 29.599 127.104C29.413 127.055 29.225 127.017 29.035 126.99L32.8924 130.069ZM32.8924 130.069C32.9605 130.248 33.018 130.431 33.0645 130.618L32.8924 130.069ZM32.6893 133.976C32.7759 133.805 32.8519 133.629 32.9174 133.449L32.9175 133.448C32.9829 133.268 33.0376 133.084 33.0814 132.898L33.0815 132.897C33.1251 132.71 33.1576 132.521 33.179 132.331L33.1791 132.331C33.2003 132.14 33.2102 131.948 33.2088 131.756C33.2074 131.564 33.1946 131.373 33.1704 131.183L32.6745 131.246L33.1704 131.183C33.1464 130.992 33.1111 130.804 33.0645 130.618L32.6893 133.976Z" fill="#519868" stroke="white"/>
<path d="M114.303 133.879C114.434 133.749 114.551 133.607 114.653 133.454C114.756 133.301 114.843 133.139 114.914 132.969C114.985 132.799 115.038 132.623 115.074 132.442C115.11 132.262 115.128 132.079 115.128 131.895C115.129 131.71 115.112 131.527 115.077 131.345C115.042 131.164 114.989 130.987 114.919 130.816M114.303 133.879L110.759 129.537C110.913 129.435 111.076 129.349 111.247 129.278C111.418 129.208 111.594 129.155 111.775 129.12C111.957 129.084 112.14 129.067 112.325 129.067C112.51 129.068 112.693 129.087 112.874 129.123C113.055 129.16 113.231 129.215 113.402 129.286C113.572 129.357 113.734 129.445 113.888 129.548M114.303 133.879C114.173 134.009 114.03 134.125 113.877 134.226M114.303 133.879L113.877 134.226M114.919 130.816C114.849 130.645 114.763 130.482 114.661 130.328C114.559 130.174 114.443 130.031 114.313 129.9C114.182 129.769 114.041 129.651 113.888 129.548M114.919 130.816L114.456 131.005L113.608 129.963M114.919 130.816L114.456 131.005C114.399 130.865 114.328 130.731 114.244 130.604L114.244 130.604C114.16 130.477 114.065 130.36 113.958 130.252L113.958 130.252C113.85 130.144 113.734 130.048 113.608 129.963M113.888 129.548L113.608 129.963M113.888 129.548L113.608 129.963M111.036 129.954C111.162 129.869 111.296 129.799 111.437 129.741L111.437 129.741C111.577 129.683 111.722 129.64 111.871 129.61L111.872 129.61C112.02 129.581 112.171 129.567 112.323 129.567C112.475 129.568 112.626 129.583 112.775 129.613C112.924 129.644 113.068 129.688 113.209 129.747C113.349 129.806 113.482 129.878 113.608 129.963L111.036 129.954ZM111.036 129.954C110.909 130.038 110.792 130.133 110.685 130.24L110.683 130.242L110.683 130.242C110.576 130.348 110.48 130.464 110.395 130.591C110.31 130.718 110.238 130.851 110.18 130.99L110.18 130.991C110.122 131.131 110.077 131.276 110.048 131.424L110.048 131.426C110.018 131.574 110.003 131.724 110.002 131.877C110.002 132.028 110.017 132.179 110.046 132.328L110.046 132.328C110.076 132.478 110.119 132.622 110.177 132.763L110.177 132.763C110.235 132.903 110.306 133.037 110.391 133.163L110.391 133.163C110.475 133.29 110.571 133.407 110.678 133.514L110.678 133.514C110.786 133.622 110.902 133.718 111.029 133.802L111.036 129.954ZM111.352 127.018L111.353 127.018C111.513 126.99 111.675 126.969 111.838 126.957C112.001 126.944 112.163 126.94 112.326 126.944M111.352 127.018L116.588 134.213C116.588 134.213 116.588 134.213 116.588 134.213C116.664 134.07 116.733 133.922 116.796 133.771L116.796 133.77C116.857 133.62 116.911 133.467 116.958 133.31L116.479 133.167L116.958 133.311C117.005 133.154 117.044 132.996 117.075 132.836C117.106 132.675 117.129 132.513 117.144 132.352L117.144 132.35C117.159 132.189 117.166 132.027 117.165 131.864M111.352 127.018C111.193 127.046 111.034 127.082 110.876 127.127L111.352 127.018ZM112.326 126.944L112.315 127.444L112.325 126.944C112.325 126.944 112.326 126.944 112.326 126.944ZM112.326 126.944C112.644 126.95 112.96 126.987 113.272 127.055M113.272 127.055C113.272 127.055 113.272 127.054 113.272 127.054L113.167 127.543L113.272 127.055C113.272 127.055 113.272 127.055 113.272 127.055ZM113.272 127.055C113.585 127.122 113.888 127.219 114.181 127.345L114.181 127.345C114.474 127.472 114.753 127.625 115.016 127.805L115.016 127.805C115.28 127.986 115.524 128.19 115.748 128.418C115.972 128.646 116.172 128.893 116.348 129.159M116.348 129.159L115.93 129.435L116.348 129.159C116.348 129.159 116.348 129.159 116.348 129.159ZM116.348 129.159C116.524 129.426 116.673 129.707 116.794 130.002L116.794 130.002C116.916 130.298 117.007 130.602 117.07 130.915L117.07 130.916C117.132 131.228 117.164 131.544 117.165 131.864M117.165 131.864C117.165 131.864 117.165 131.864 117.165 131.865L116.665 131.866L117.165 131.863C117.165 131.863 117.165 131.864 117.165 131.864ZM109.966 127.482L109.966 127.482C110.112 127.408 110.26 127.341 110.412 127.282C110.565 127.222 110.719 127.171 110.875 127.127L109.966 127.482ZM109.966 127.482C109.821 127.556 109.679 127.637 109.542 127.725C109.405 127.813 109.272 127.908 109.144 128.009L109.144 128.009M109.966 127.482L109.144 128.009M109.144 128.009C109.016 128.11 108.894 128.217 108.776 128.33L109.144 128.009ZM108.441 128.687L108.441 128.687C108.547 128.563 108.658 128.444 108.776 128.331L108.441 128.687ZM108.441 128.687C108.335 128.812 108.236 128.941 108.144 129.074L108.143 129.075M108.441 128.687L108.143 129.075M108.143 129.075C108.051 129.209 107.964 129.347 107.885 129.49L108.143 129.075ZM107.293 131.341L107.293 131.34C107.312 131.179 107.338 131.018 107.372 130.858C107.406 130.699 107.448 130.541 107.498 130.386L107.293 131.341ZM107.293 131.341C107.275 131.503 107.265 131.665 107.263 131.829L107.263 131.829M107.293 131.341L107.263 131.829M107.263 131.829C107.261 131.992 107.267 132.154 107.281 132.317C107.294 132.48 107.316 132.641 107.347 132.802C107.376 132.962 107.414 133.121 107.46 133.278L107.46 133.278M107.263 131.829L107.46 133.278M107.46 133.278C107.505 133.434 107.558 133.588 107.619 133.74M107.46 133.278L108.359 135.001M108.359 135.001L108.359 135.001C108.256 134.874 108.16 134.742 108.071 134.606M108.359 135.001C108.461 135.127 108.569 135.249 108.684 135.366M108.359 135.001L108.684 135.366M108.071 134.606C107.981 134.469 107.899 134.328 107.824 134.184C107.748 134.039 107.68 133.891 107.619 133.74M108.071 134.606C108.071 134.605 108.071 134.605 108.071 134.605L108.489 134.332L108.071 134.606C108.071 134.606 108.071 134.606 108.071 134.606ZM107.619 133.74L108.082 133.554L107.619 133.74C107.619 133.74 107.619 133.74 107.619 133.74ZM108.684 135.366C108.798 135.482 108.918 135.593 109.043 135.697C109.169 135.802 109.299 135.9 109.434 135.991C109.434 135.991 109.434 135.991 109.434 135.991L108.684 135.366ZM113.169 136.752L113.168 136.752C113.009 136.783 112.848 136.807 112.685 136.823C112.685 136.823 112.685 136.823 112.685 136.823L112.637 136.325L113.169 136.752ZM113.169 136.752C113.329 136.72 113.487 136.681 113.643 136.634L113.643 136.634M113.169 136.752L113.643 136.634M113.643 136.634C113.8 136.587 113.953 136.532 114.104 136.47C114.255 136.408 114.402 136.338 114.545 136.262L114.546 136.261M113.643 136.634L114.546 136.261M114.546 136.261C114.69 136.184 114.83 136.101 114.965 136.01C115.101 135.919 115.232 135.822 115.358 135.719L115.358 135.719M114.546 136.261L115.358 135.719M115.358 135.719C115.484 135.615 115.604 135.505 115.719 135.39L115.72 135.39M115.358 135.719L115.72 135.39M115.72 135.39C115.835 135.275 115.944 135.154 116.048 135.027L116.048 135.027M115.72 135.39L116.048 135.027M116.048 135.027C116.15 134.901 116.247 134.77 116.338 134.634L116.048 135.027ZM113.877 134.226C113.723 134.329 113.561 134.414 113.391 134.484M113.877 134.226L113.391 134.484M113.391 134.484C113.22 134.554 113.044 134.607 112.863 134.642L113.391 134.484ZM110.09 135.806C110.219 135.876 110.351 135.939 110.486 135.996L110.09 135.806ZM107.885 129.49C107.806 129.632 107.734 129.779 107.669 129.928C107.605 130.078 107.547 130.23 107.498 130.386L107.885 129.49Z" fill="#519868" stroke="white"/>
<path d="M45.9596 127.248V127.016H45.4596H43.5891H43.0891V127.516V136.215V136.715H43.5891H45.4596H45.9596V136.215V131.866C45.9596 130.874 46.1184 130.281 46.3633 129.942C46.5805 129.641 46.9216 129.466 47.5329 129.466C47.8383 129.466 48.0408 129.517 48.177 129.584C48.3069 129.649 48.3999 129.739 48.4728 129.864C48.636 130.145 48.7003 130.597 48.7003 131.271V136.288V136.788H49.2003H51.0851H51.5851V136.288V130.996C51.5851 130.19 51.5048 129.145 50.9821 128.293C50.431 127.395 49.4476 126.801 47.8606 126.798C47.3484 126.782 46.8515 126.867 46.3743 127.055L46.3742 127.055C46.231 127.112 46.0927 127.176 45.9596 127.248Z" fill="#519868" stroke="white"/>
<path d="M93.6157 132.324L93.6158 132.324C93.6363 132.232 93.6513 132.139 93.6611 132.045V131.557C93.6513 131.463 93.6363 131.37 93.6158 131.279L93.6158 131.278C93.5935 131.179 93.5652 131.081 93.5307 130.986C93.496 130.89 93.4555 130.797 93.409 130.706L93.409 130.706C93.3629 130.616 93.3109 130.529 93.2533 130.444C93.1953 130.36 93.1329 130.28 93.0654 130.204C92.9975 130.128 92.9253 130.057 92.8486 129.991L92.8478 129.99C92.7722 129.924 92.6917 129.862 92.6066 129.805C92.5224 129.749 92.4344 129.698 92.3428 129.652C92.2515 129.607 92.1582 129.568 92.0626 129.535L92.062 129.534C91.9655 129.501 91.8682 129.474 91.7695 129.453L91.7677 129.453C91.6687 129.432 91.5684 129.417 91.467 129.409L91.5073 128.911M93.6157 132.324L88.8931 131.497C88.9058 131.397 88.9251 131.297 88.9507 131.198C88.9767 131.099 89.0083 131.002 89.0458 130.909L89.0459 130.909C89.0836 130.814 89.1274 130.723 89.1773 130.633C89.226 130.545 89.2809 130.46 89.3417 130.377C89.4024 130.295 89.4678 130.217 89.5377 130.144C89.6084 130.07 89.6829 130.001 89.7613 129.938L89.7623 129.937C89.8409 129.873 89.9232 129.814 90.0097 129.761L90.0101 129.761C90.0963 129.707 90.186 129.659 90.279 129.617C90.3712 129.575 90.4659 129.539 90.5634 129.509L90.5634 129.509C90.6607 129.479 90.7595 129.455 90.8591 129.437L90.8596 129.437C90.9598 129.42 91.0605 129.409 91.1624 129.404C91.2644 129.399 91.3659 129.401 91.4674 129.409L91.5073 128.911M93.6157 132.324C93.5935 132.423 93.5652 132.521 93.5307 132.616M93.6157 132.324L94.1037 132.433C94.0769 132.553 94.0427 132.671 94.0009 132.786M91.5073 128.911C91.3846 128.901 91.2621 128.899 91.1392 128.904C91.0164 128.91 90.8946 128.923 90.7734 128.945L92.5659 129.205C92.4556 129.15 92.3425 129.103 92.2265 129.062C92.1102 129.022 91.9921 128.989 91.8716 128.964C91.7514 128.938 91.6299 128.92 91.5073 128.911ZM94.0009 132.786L93.5308 132.616C93.5308 132.616 93.5308 132.616 93.5307 132.616M94.0009 132.786C93.959 132.902 93.9101 133.015 93.8541 133.124C93.798 133.233 93.7351 133.339 93.6657 133.44L94.0009 132.786ZM93.5307 132.616C93.496 132.712 93.4554 132.805 93.4091 132.896M93.5307 132.616L93.4091 132.896M93.4091 132.896C93.3628 132.986 93.3108 133.073 93.2533 133.157C93.1952 133.242 93.1328 133.322 93.0655 133.397C92.9975 133.474 92.9252 133.545 92.8485 133.612L92.848 133.612C92.772 133.678 92.6915 133.74 92.6068 133.796L92.6058 133.797C92.522 133.853 92.4343 133.904 92.3429 133.95C92.2513 133.995 92.158 134.034 92.0626 134.068L92.062 134.068C91.9659 134.101 91.8684 134.128 91.7688 134.149L91.7688 134.149C91.6683 134.17 91.568 134.185 91.4679 134.193L91.4664 134.193C91.3656 134.201 91.2643 134.203 91.163 134.198L91.1619 134.198C91.0602 134.194 90.9598 134.183 90.8601 134.165L90.86 134.165C90.7591 134.147 90.6604 134.124 90.564 134.094L90.5638 134.094C90.4662 134.063 90.3712 134.027 90.279 133.985C90.1861 133.943 90.0965 133.895 90.0102 133.842L90.0098 133.841C89.9239 133.788 89.8412 133.729 89.7616 133.665C89.6822 133.6 89.6078 133.532 89.5379 133.459C89.4674 133.384 89.402 133.307 89.3415 133.225C89.2812 133.143 89.2263 133.058 89.1773 132.97C89.1275 132.88 89.0836 132.788 89.0458 132.694L88.5818 132.88M93.4091 132.896L89.4467 134.053C89.3512 133.976 89.261 133.893 89.176 133.804C89.0914 133.715 89.0124 133.621 88.9392 133.522C88.8664 133.423 88.7998 133.319 88.7402 133.212C88.6804 133.105 88.6275 132.994 88.5818 132.88M88.5818 132.88C88.5361 132.765 88.4979 132.649 88.4668 132.53M88.5818 132.88L89.046 132.694C89.0083 132.6 88.9767 132.503 88.9507 132.404M88.4668 132.53L88.9509 132.405C88.9508 132.405 88.9508 132.405 88.9507 132.404M88.4668 132.53C88.436 132.411 88.4126 132.29 88.3971 132.169L88.4668 132.53ZM88.9507 132.404C88.9251 132.305 88.9058 132.205 88.8931 132.106L88.9507 132.404ZM92.55 127.118L92.5506 127.118C92.7391 127.163 92.9248 127.219 93.1074 127.286C93.2896 127.353 93.4675 127.431 93.6402 127.519C93.6863 127.543 93.7319 127.567 93.7771 127.592V127.444V127.444H94.2771V126.944H95.9297H96.4297V127.444V136.173V136.673H95.9297H94.277H93.777V136.173V136.038C93.5656 136.16 93.3443 136.266 93.1133 136.356L93.1133 136.356C92.5561 136.573 91.9777 136.684 91.3801 136.687L91.3698 136.687L91.3698 136.687C91.1764 136.685 90.9832 136.671 90.7902 136.645L92.55 127.118ZM92.55 127.118C92.3613 127.074 92.1704 127.04 91.977 127.018L92.55 127.118ZM90.2437 127.136L90.2443 127.136C90.4321 127.089 90.6226 127.052 90.8154 127.028C91.0087 127.003 91.202 126.99 91.3957 126.988M90.2437 127.136L91.9769 127.018C91.7842 126.997 91.5904 126.986 91.3957 126.988M90.2437 127.136C90.0557 127.184 89.8711 127.243 89.6899 127.312L89.6898 127.312M90.2437 127.136L89.6898 127.312M91.3957 126.988C91.3959 126.988 91.396 126.988 91.3961 126.988L91.4 127.488L91.3953 126.988C91.3955 126.988 91.3956 126.988 91.3957 126.988ZM89.6898 127.312C89.5077 127.382 89.3314 127.463 89.1605 127.554L89.16 127.554M89.6898 127.312L89.16 127.554M89.16 127.554C88.9889 127.645 88.8231 127.746 88.6634 127.857L88.6634 127.857M89.16 127.554L88.6634 127.857M88.6634 127.857C88.5043 127.968 88.3521 128.088 88.2068 128.217L88.2065 128.217M88.6634 127.857L88.2065 128.217M88.2065 128.217C88.0621 128.346 87.9251 128.484 87.7962 128.63L87.7961 128.63M88.2065 128.217L87.7961 128.63M87.7961 128.63C87.6679 128.775 87.5486 128.928 87.4384 129.088L87.8504 129.372L87.4387 129.088C87.3281 129.248 87.2281 129.415 87.1381 129.586L87.1381 129.586M87.7961 128.63L87.1381 129.586M87.1381 129.586L87.1375 129.587M87.1381 129.586L87.1375 129.587M87.1375 129.587C87.0479 129.758 86.9682 129.935 86.8991 130.117L86.899 130.117M87.1375 129.587L86.899 130.117M86.899 130.117C86.8301 130.299 86.7724 130.484 86.7257 130.673L86.7257 130.673M86.899 130.117L86.7257 130.673M86.7257 130.673C86.6791 130.861 86.6439 131.052 86.6201 131.244L86.6201 131.245M86.7257 130.673L86.6201 131.245M86.6201 131.245C86.5964 131.437 86.5841 131.631 86.5838 131.825M86.6201 131.245L86.617 132.406M86.617 132.406L86.6169 132.405C86.5944 132.213 86.5832 132.02 86.5838 131.825M86.617 132.406C86.6398 132.599 86.6741 132.79 86.7195 132.978L86.7197 132.979M86.617 132.406L86.7197 132.979M86.5838 131.825C86.5838 131.825 86.5838 131.825 86.5838 131.825L87.0838 131.826L86.5838 131.826C86.5838 131.826 86.5838 131.825 86.5838 131.825ZM86.7197 132.979C86.7653 133.167 86.8221 133.353 86.8903 133.535L86.8903 133.535M86.7197 132.979L86.8903 133.535M86.8903 133.535C86.9584 133.717 87.0368 133.894 87.126 134.067L87.1261 134.067M86.8903 133.535L87.1261 134.067M87.1261 134.067C87.2153 134.239 87.3146 134.406 87.4241 134.567L87.1261 134.067ZM87.7798 135.027L87.7796 135.027C87.652 134.881 87.5336 134.727 87.4243 134.567L87.7798 135.027ZM87.7798 135.027C87.9076 135.173 88.0435 135.311 88.1874 135.441L88.1879 135.442L87.7798 135.027ZM89.6661 136.354L89.6654 136.354C89.4848 136.283 89.3091 136.202 89.1379 136.11C88.9664 136.018 88.8011 135.916 88.6425 135.804L88.9304 135.395L88.643 135.804L89.6661 136.354ZM89.6661 136.354C89.8466 136.425 90.031 136.485 90.2189 136.533L90.2198 136.534M89.6661 136.354L90.2198 136.534M90.2198 136.534C90.4073 136.582 90.5975 136.619 90.7901 136.645L90.2198 136.534ZM88.8931 132.106C88.8802 132.004 88.8737 131.902 88.8737 131.801C88.8737 131.7 88.8802 131.598 88.8931 131.497L88.8931 132.106Z" fill="#519868" stroke="white"/>
<path d="M81.3601 127.055C81.2168 127.112 81.0785 127.176 80.9453 127.248V127.016H80.4453H78.575H78.075V127.516V136.215V136.715H78.575H80.4164H80.9164V136.215V131.866C80.9164 130.874 81.0753 130.281 81.3202 129.942C81.5373 129.641 81.8785 129.466 82.4897 129.466C82.7952 129.466 82.9977 129.517 83.1339 129.584C83.2637 129.649 83.3567 129.739 83.4296 129.864C83.5929 130.145 83.6571 130.597 83.6571 131.271V136.288V136.788H84.1571H86.0419H86.5419V136.288V131C86.5564 130.191 86.4841 129.147 85.9654 128.295C85.4176 127.394 84.433 126.801 82.8464 126.798C82.3342 126.782 81.8375 126.867 81.3602 127.055L81.3601 127.055Z" fill="#519868" stroke="white"/>
<path d="M65.127 124.646V124.146H64.627H62.7421H62.2421V124.646V126.987H61.7561H61.2561V127.487V129.126V129.626H61.7561H62.2421V136.245V136.745H62.7421H64.627H65.127V136.245V129.626H66.2075H66.7075V129.126V127.487V126.987H66.2075H65.127V124.646Z" fill="#519868" stroke="white"/>
<path d="M77.8953 125.269L77.8952 125.27C77.8721 125.38 77.8381 125.486 77.7939 125.588L77.7933 125.589C77.7485 125.692 77.6938 125.79 77.6294 125.882L77.6292 125.882C77.5643 125.975 77.4909 126.06 77.41 126.137L77.4099 126.137C77.3277 126.216 77.2389 126.285 77.1439 126.345L76.8755 125.923M77.8953 125.269L74.9599 125.167C74.9759 125.243 74.9995 125.318 75.0309 125.39C75.0621 125.462 75.1006 125.53 75.1461 125.595M77.8953 125.269C77.9181 125.159 77.9298 125.048 77.9298 124.935C77.9298 124.822 77.9182 124.711 77.8952 124.601L77.8952 124.6C77.8721 124.49 77.8382 124.384 77.7938 124.281L77.7935 124.281C77.7485 124.177 77.6936 124.08 77.6294 123.988L77.6292 123.987C77.5643 123.895 77.4909 123.81 77.41 123.733L77.41 123.733L77.4095 123.732C77.3278 123.654 77.2392 123.585 77.1439 123.524L76.8755 123.946L77.1446 123.525C77.0487 123.464 76.9484 123.413 76.8446 123.372L76.8446 123.372M77.8953 125.269L76.8446 123.372M76.8755 125.923L77.1446 126.345C77.0494 126.406 76.9488 126.457 76.8435 126.498C76.7383 126.54 76.6303 126.571 76.5199 126.592L76.5191 126.592C76.4082 126.613 76.296 126.624 76.1829 126.624C76.0697 126.624 75.9574 126.613 75.8465 126.592L75.846 126.592C75.7351 126.571 75.6265 126.54 75.5211 126.498L75.7057 126.033M76.8755 125.923C76.8075 125.967 76.7355 126.003 76.6599 126.033L77.3349 125.39C77.3035 125.462 77.2651 125.53 77.2197 125.595C77.1742 125.66 77.1224 125.72 77.0646 125.776C77.0067 125.831 76.9437 125.88 76.8755 125.923ZM75.7057 126.033L75.5234 126.499C75.4177 126.457 75.3168 126.406 75.2214 126.345C75.2213 126.345 75.2212 126.345 75.2211 126.345L75.4902 125.923M75.7057 126.033C75.7813 126.063 75.8594 126.086 75.9396 126.101C76.0199 126.116 76.101 126.124 76.1829 126.124C76.2647 126.124 76.3458 126.116 76.4261 126.101L75.4902 125.923M75.7057 126.033C75.6301 126.003 75.5582 125.967 75.4902 125.923M75.4902 125.923C75.422 125.88 75.359 125.831 75.3011 125.776C75.2433 125.72 75.1916 125.66 75.1461 125.595M75.1461 125.595L75.1461 125.595L75.1461 125.595ZM75.5229 123.371L75.5229 123.371C75.6274 123.33 75.7353 123.299 75.846 123.278L75.8462 123.278C75.9573 123.256 76.0697 123.246 76.1829 123.246C76.296 123.246 76.4081 123.256 76.5192 123.277L75.5229 123.371ZM75.5229 123.371L75.521 123.372M75.5229 123.371L75.521 123.372M75.521 123.372C75.4171 123.413 75.3169 123.464 75.2214 123.525L75.521 123.372ZM76.8446 123.372L76.8429 123.371M76.8446 123.372L76.8429 123.371M76.8429 123.371C76.7387 123.33 76.6309 123.299 76.5195 123.278L76.8429 123.371ZM74.436 124.935C74.436 125.047 74.4474 125.158 74.4705 125.269L75.2213 123.525C75.1267 123.585 75.038 123.654 74.956 123.732L74.956 123.732L74.9555 123.733C74.8748 123.81 74.8015 123.895 74.7366 123.987L74.7363 123.988C74.6722 124.079 74.6172 124.177 74.5721 124.281L74.5721 124.281C74.5276 124.384 74.4935 124.49 74.4704 124.601L74.9599 124.703L74.4705 124.601C74.4474 124.711 74.436 124.823 74.436 124.935ZM74.4705 125.269C74.4935 125.379 74.5275 125.486 74.5722 125.589L74.4705 125.269ZM77.3349 124.48C77.3661 124.552 77.3898 124.626 77.4058 124.703L77.2197 124.274C77.2651 124.339 77.3035 124.408 77.3349 124.48Z" fill="#519868" stroke="white"/>
<path d="M75.2251 127.002H74.7251V127.502V136.245V136.745H75.2251H77.1245H77.6245V136.245V127.502V127.002H77.1245H75.2251Z" fill="#519868" stroke="white"/>
<path d="M97.3467 123.518L97.3467 123.518C97.4411 123.458 97.5405 123.407 97.6446 123.366L97.3467 123.518ZM97.3467 123.518L97.3456 123.519M97.3467 123.518L97.3456 123.519M97.3456 123.519C97.2527 123.578 97.1644 123.647 97.0827 123.725L97.0827 123.725M97.3456 123.519L97.0827 123.725M97.0827 123.725L97.0821 123.726M97.0827 123.725L97.0821 123.726M97.0821 123.726C97.0025 123.802 96.9295 123.886 96.8643 123.978L96.8643 123.978M97.0821 123.726L96.8643 123.978M96.8643 123.978L96.8637 123.979M96.8643 123.978L96.8637 123.979M96.8637 123.979C96.7992 124.07 96.7444 124.166 96.6988 124.267L96.6988 124.267M96.8637 123.979L96.6988 124.267M96.6988 124.267L96.6977 124.269M96.6988 124.267L96.6977 124.269M96.6977 124.269C96.652 124.372 96.6167 124.477 96.5913 124.585L96.5913 124.586M96.6977 124.269L96.5913 124.586M96.5913 124.586C96.5656 124.696 96.5513 124.806 96.5472 124.917L96.5468 124.928M96.5913 124.586L96.5468 124.928M96.5468 124.928L96.5469 124.94M96.5468 124.928L96.5469 124.94M96.5469 124.94C96.5481 125.055 96.5609 125.167 96.5847 125.278L96.5847 125.278M96.5469 124.94L96.5847 125.278M96.5847 125.278C96.6087 125.389 96.6435 125.496 96.6887 125.6L96.6889 125.6M96.5847 125.278L96.6889 125.6M96.6889 125.6C96.7342 125.704 96.7897 125.802 96.8551 125.895C96.921 125.989 96.9954 126.074 97.0775 126.151L97.0776 126.151C97.1606 126.23 97.2503 126.298 97.346 126.358L97.3462 126.358M96.6889 125.6L97.3462 126.358M97.3462 126.358C97.4427 126.418 97.5446 126.467 97.6515 126.507L97.6522 126.507M97.3462 126.358L97.6522 126.507M97.6522 126.507C97.7573 126.546 97.8663 126.574 97.9797 126.592L97.6522 126.507ZM98.9355 126.508L98.9355 126.508C98.8308 126.546 98.7218 126.574 98.6085 126.592L98.9355 126.508ZM98.9355 126.508L98.937 126.507M98.9355 126.508L98.937 126.507M98.937 126.507C99.0451 126.468 99.1466 126.418 99.2418 126.36L99.2422 126.36M98.937 126.507L99.2422 126.36M99.2422 126.36C99.3401 126.3 99.4298 126.231 99.5123 126.155L99.5132 126.154M99.2422 126.36L99.5132 126.154M99.5132 126.154C99.5958 126.077 99.6705 125.992 99.7367 125.9L99.7377 125.899M99.5132 126.154L99.7377 125.899M99.7377 125.899C99.8028 125.807 99.8594 125.709 99.9061 125.605L99.9061 125.605M99.7377 125.899L99.9061 125.605M99.9061 125.605C99.9528 125.501 99.9884 125.394 100.013 125.284L100.014 125.283M99.9061 125.605L100.014 125.283M100.014 125.283C100.039 125.172 100.052 125.06 100.055 124.947L100.055 124.932M100.014 125.283L100.055 124.932M100.055 124.932L100.055 124.917M100.055 124.932L100.055 124.917M100.055 124.917C100.051 124.805 100.036 124.694 100.011 124.584L100.01 124.583M100.055 124.917L100.01 124.583M100.01 124.583C99.9844 124.473 99.9481 124.366 99.9018 124.264L100.01 124.583ZM99.7344 123.973L99.7344 123.973C99.7986 124.063 99.8549 124.16 99.9018 124.264L99.7344 123.973ZM99.7344 123.973L99.7329 123.971M99.7344 123.973L99.7329 123.971M99.7329 123.971C99.6682 123.88 99.5947 123.796 99.5114 123.717C99.4296 123.64 99.3407 123.571 99.245 123.511C99.1492 123.451 99.0484 123.401 98.943 123.36L98.9428 123.36M99.7329 123.971L98.9428 123.36M98.9428 123.36C98.8379 123.32 98.7293 123.29 98.6184 123.271L98.6176 123.271M98.9428 123.36L98.6176 123.271M98.6176 123.271C98.5089 123.252 98.3998 123.244 98.2907 123.246L98.6176 123.271Z" fill="#519868" stroke="white"/>
<path d="M97.3376 127.002H96.8376V127.502V136.245V136.745H97.3376H99.237H99.737V136.245V127.502V127.002H99.237H97.3376Z" fill="#519868" stroke="white"/>
<path d="M123.243 131.197L123.243 131.197C123.45 131.312 123.638 131.453 123.806 131.62L123.806 131.62C123.975 131.788 124.117 131.975 124.233 132.181L124.233 132.182C124.349 132.388 124.435 132.607 124.49 132.837L123.243 131.197ZM123.243 131.197L123.24 131.195M123.243 131.197L123.24 131.195M123.24 131.195C122.662 130.88 122.053 130.643 121.415 130.483L120.992 130.37C120.646 130.264 120.438 130.175 120.321 130.091C120.239 130.033 120.238 130.007 120.238 129.988M123.24 131.195L122.6 127.548C123.144 127.783 123.618 128.119 124.02 128.554L124.026 128.561L124.032 128.568L124.206 128.771L124.553 129.175L124.128 129.495L122.823 130.481L122.423 130.784L122.122 130.383L121.948 130.151L121.944 130.146L121.944 130.146C121.827 129.985 121.681 129.866 121.5 129.783C121.32 129.7 121.135 129.667 120.937 129.682L120.917 129.684H120.898C120.732 129.684 120.536 129.743 120.39 129.838C120.253 129.927 120.239 129.988 120.238 129.988C120.238 129.988 120.238 129.988 120.238 129.988M120.238 129.988C120.238 129.987 120.238 129.986 120.238 129.986C120.238 129.984 120.238 129.983 120.238 129.981C120.238 129.985 120.238 129.987 120.238 129.988ZM120.493 136.73C122.71 136.725 124.552 135.48 124.559 133.529C124.568 133.296 124.545 133.065 124.49 132.838L120.493 136.73ZM122.6 127.548C122.056 127.314 121.487 127.199 120.895 127.205C120.087 127.205 119.203 127.434 118.507 127.89C117.802 128.352 117.252 129.08 117.252 130.054C117.252 131.043 117.823 131.691 118.466 132.104C119.093 132.506 119.847 132.726 120.357 132.869L120.359 132.87L121.029 133.055C121.356 133.163 121.513 133.257 121.588 133.328C121.636 133.374 121.659 133.416 121.659 133.519C121.659 133.832 121.336 134.237 120.608 134.237H120.598L120.588 134.237C120.416 134.244 120.248 134.227 120.081 134.185L120.081 134.185C119.915 134.143 119.758 134.079 119.611 133.991C119.463 133.903 119.331 133.797 119.214 133.672L119.214 133.672C119.097 133.546 119.001 133.407 118.924 133.253L118.919 133.242L118.912 133.231L118.782 132.998L118.526 132.544L118.083 132.819L116.633 133.717L116.396 133.864V134.142V134.302V134.435L116.463 134.551C116.665 134.903 116.912 135.221 117.202 135.503L117.202 135.503C117.493 135.787 117.818 136.024 118.175 136.217L122.6 127.548Z" fill="#519868" stroke="white"/>
<path d="M108.145 127.869L108.995 127.016H107.791H105.384H105.175L105.028 127.165L102.941 129.283V123.688V123.188H102.441H100.672H100.172V123.688V136.245V136.745H100.672H102.441H102.941V136.245V133.531L105.971 136.596L106.118 136.745H106.327H108.763H109.965L109.117 135.892L104.64 131.388L108.145 127.869Z" fill="#519868" stroke="white"/>
<path d="M69.0561 127.819V123.688V123.188H68.5561H66.8018H66.3018V123.688V136.244V136.744H66.8018H68.5561H69.0561V136.244V132.199C69.0561 131.285 69.2062 130.712 69.4357 130.378C69.6389 130.083 69.9457 129.915 70.4701 129.915C71.0318 129.915 71.2163 130.062 71.3132 130.215C71.4515 130.432 71.5215 130.824 71.5215 131.532V136.245V136.745H72.0215H73.7903H74.2903V136.245V131.373C74.2903 130.617 74.2134 129.634 73.7196 128.831C73.1974 127.982 72.2683 127.424 70.7813 127.422C70.3034 127.409 69.8398 127.491 69.3942 127.665L69.394 127.665C69.278 127.711 69.1653 127.762 69.0561 127.819Z" fill="#519868" stroke="white"/>
</svg>
