<svg width="150" height="150" viewBox="0 0 150 150" fill="none" xmlns="http://www.w3.org/2000/svg">
<path d="M76.3587 12.3385L75.6903 12.9231L75.1057 13.0069H75.0219L74.521 12.9231L73.8526 12.3385L72.0167 17.0138V17.0976C71.9329 17.2651 71.8492 17.4309 71.6816 17.5147L71.0988 17.5985C70.8474 17.5985 70.6817 17.5147 70.5141 17.4309L68.6764 15.5112L65.3361 20.1028C65.2542 20.2703 65.0866 20.3541 64.9191 20.4361H64.4182C64.2524 20.4361 64.1669 20.3541 64.0011 20.2703L61.5806 18.0156C58.7411 26.3645 60.4951 34.1305 66.8405 41.0606C67.0063 41.2282 67.0901 41.4777 67.0901 41.7273C67.0901 41.9786 67.0063 42.1461 66.8405 42.3119C66.5892 42.4794 66.4216 42.5632 66.1721 42.5632C65.9226 42.5632 65.6712 42.4794 65.5037 42.3119H65.5875C60.6608 36.8862 58.2403 31.0416 58.4898 24.8619C50.8093 27.368 43.963 31.6262 37.8671 37.8041C27.5147 48.1565 22.3385 60.6817 22.3385 75.376C22.3385 89.9884 27.5147 102.512 37.8671 112.864C45.0485 120.046 53.3136 124.805 62.5823 126.976C62.8318 126.976 63.0831 127.143 63.2489 127.227L75.439 137.328L87.5453 127.227C87.7128 127.143 87.9641 126.976 88.1317 126.976C97.4823 124.805 105.749 120.046 112.929 112.864C123.283 102.512 128.457 89.9884 128.457 75.376C128.457 60.6817 123.283 48.1565 112.929 37.8041C106.667 31.4587 99.5696 27.1167 91.7215 24.6943C91.9728 30.9578 89.6343 36.8024 84.6239 42.3119C84.4581 42.4794 84.2905 42.5632 84.041 42.5632C83.7897 42.5632 83.5384 42.4794 83.3708 42.3119C83.205 42.1461 83.0375 41.9786 83.0375 41.7273C83.0375 41.4777 83.1213 41.2282 83.3708 41.0606C89.6343 34.1305 91.3864 26.4482 88.6325 18.0156L86.2102 20.2703L85.7094 20.4361H85.2923C85.0409 20.3541 84.9572 20.2703 84.8752 20.1028L81.5349 15.5112L79.6134 17.4309L79.1144 17.5985L78.5297 17.5147C78.3622 17.4309 78.1946 17.2651 78.1946 17.0138L76.3587 12.3385Z" fill="white"/>
<path d="M90.8018 22.0243V24.3611C98.985 26.7816 106.332 31.2074 112.845 37.8042C123.283 48.1565 128.375 60.6817 128.457 75.2923C128.375 89.9885 123.283 102.428 112.845 112.782C105.664 120.046 97.4824 124.721 88.1317 126.976H88.3813C88.7164 126.976 88.9659 127.143 89.2154 127.393L89.4668 127.81V128.478L89.1334 129.063C98.6516 126.724 107.084 121.8 114.515 114.451C125.285 103.597 130.63 90.5713 130.712 75.2923C130.63 60.0133 125.285 46.9891 114.515 36.2178C107.501 29.2039 99.6534 24.5286 90.8018 22.0243Z" fill="black"/>
<path d="M59.4916 24.5287V22.1063C50.8931 24.6124 43.1271 29.2877 36.2807 36.2178C25.4275 46.9891 20 60.0133 20 75.2924C20 90.5714 25.4275 103.597 36.2807 114.451C43.6279 121.8 52.1444 126.724 61.6626 129.063L61.3293 128.478V127.81L61.5806 127.393C61.7464 127.143 61.9977 126.976 62.4148 126.976H62.5823C53.3137 124.721 45.0485 120.046 37.7833 112.782C27.431 102.428 22.2548 89.9885 22.2548 75.2924C22.2548 60.6817 27.431 48.1566 37.7833 37.8042C44.2126 31.375 51.476 26.9492 59.4916 24.5287Z" fill="black"/>
<path d="M87.5453 127.227L75.439 137.246L63.249 127.227C62.9994 126.976 62.7481 126.892 62.4148 126.892C62.0797 126.976 61.8302 127.143 61.5806 127.309C61.4131 127.644 61.2455 127.894 61.3293 128.227C61.3293 128.562 61.4968 128.813 61.7464 129.063L74.6049 139.75L75.439 140L76.1912 139.75L89.0497 129.063C89.2992 128.813 89.4668 128.562 89.4668 128.227C89.5506 127.894 89.4668 127.644 89.2155 127.309C89.0497 127.143 88.7164 126.976 88.3813 126.892C88.048 126.892 87.7966 126.976 87.5453 127.227Z" fill="black"/>
<path d="M90.636 26.3645V28.8706C97.7319 31.2074 104.079 35.1323 109.84 40.8931C119.358 50.3275 124.117 61.851 124.117 75.2923C124.117 88.7354 119.358 100.173 109.84 109.691C102.325 117.206 93.6412 121.716 83.7059 123.302V125.723C94.3096 124.053 103.576 119.295 111.51 111.362C121.445 101.426 126.456 89.4038 126.456 75.2923C126.456 61.1826 121.445 49.1583 111.51 39.223C105.33 33.0451 98.3165 28.7868 90.636 26.3645Z" fill="black"/>
<path d="M59.4916 29.1202V26.6158C52.0607 28.9526 45.2981 33.2108 39.2877 39.223C29.3507 49.1583 24.342 61.1826 24.342 75.2923C24.342 89.4038 29.3507 101.426 39.2877 111.362C47.052 119.211 56.0694 123.887 66.4217 125.639V123.218C56.7378 121.548 48.2213 117.04 40.9561 109.691C31.4379 100.173 26.6788 88.7354 26.6788 75.2923C26.6788 61.851 31.4379 50.3276 40.9561 40.8931C46.4674 35.2999 52.6453 31.3749 59.4916 29.1202Z" fill="black"/>
<path d="M100.154 50.4951C93.3917 43.6488 85.1248 40.2247 75.4391 40.2247C65.7551 40.2247 57.4882 43.6488 50.5581 50.4951C43.7955 57.3414 40.3715 65.6066 40.3715 75.2923C40.3715 84.9781 43.7955 93.2432 50.5581 100.091C57.4882 106.938 65.7551 110.36 75.4391 110.36C85.1248 110.36 93.3917 106.938 100.154 100.091C107.001 93.2432 110.423 84.9781 110.507 75.2923C110.423 65.6066 107.001 57.3414 100.154 50.4951ZM75.4391 42.5633C84.4582 42.5633 92.1387 45.736 98.5679 52.1653C104.913 58.5107 108.17 66.275 108.17 75.2923C108.17 84.3097 104.913 92.0757 98.5679 98.4212C92.1387 104.849 84.4582 108.023 75.4391 108.023C66.3397 108.023 58.6574 104.849 52.2282 98.4212C45.8827 92.0757 42.6262 84.3097 42.6262 75.2923C42.6262 66.275 45.8827 58.5107 52.2282 52.1653C58.6574 45.736 66.3397 42.5633 75.4391 42.5633Z" fill="black"/>
<path d="M97.2328 53.5003C91.2207 47.4061 83.9555 44.3992 75.439 44.3992C66.9244 44.3992 59.6592 47.4061 53.565 53.5003C47.5529 59.5124 44.5459 66.7758 44.5459 75.2923C44.5459 83.8088 47.5529 91.074 53.565 97.0843C59.6592 103.18 66.9244 106.185 75.439 106.185C83.9555 106.185 91.2207 103.18 97.2328 97.0843C103.243 91.074 106.25 83.8088 106.25 75.2923C106.25 66.7758 103.243 59.5124 97.2328 53.5003ZM62.331 62.2681L62.4148 62.1843C66.0046 58.5945 70.3466 56.8406 75.439 56.8406C80.5332 56.8406 84.8752 58.5945 88.4651 62.2681L88.5488 62.3518C92.1387 65.9417 93.8926 70.2837 93.8926 75.2923C93.8926 80.3865 92.0549 84.7267 88.5488 88.3183L88.2975 88.5679C84.7077 91.9919 80.4495 93.7441 75.439 93.7441C70.2628 93.7441 65.9226 91.9919 62.331 88.4021C58.7412 84.7267 56.9053 80.3865 56.9053 75.2923C56.9053 70.1999 58.7412 65.8579 62.331 62.2681Z" fill="black"/>
<path d="M79.4477 69.1982L75.357 56.5911L71.1808 69.1982H57.5719L68.4269 77.2138L64.0849 90.1543L75.1895 82.1387L86.294 90.4056L82.0358 77.2138L93.2241 69.1982H79.4477Z" fill="#DF513E"/>
<path d="M78.2784 108.189H75.8561V133.655L78.2784 131.651V108.189Z" fill="black"/>
<path d="M81.6187 108.189H79.1964V130.901L81.6187 128.895V108.189Z" fill="black"/>
<path d="M84.9572 108.189H82.5366V128.061L84.9572 126.14V108.189Z" fill="black"/>
<path d="M74.9381 108.189H72.5176V131.567L74.9381 133.571V108.189Z" fill="black"/>
<path d="M71.5997 108.189H69.1774V128.814L71.5997 130.817V108.189Z" fill="black"/>
<path d="M68.2594 108.189H65.9226V126.058L68.2594 128.061V108.189Z" fill="black"/>
<path d="M75.6065 12.8394L76.3587 12.3386L78.1109 17.0139C78.1946 17.1814 78.3622 17.3472 78.4459 17.431L79.1144 17.5985L79.6134 17.3472L81.5349 15.5113L84.7914 20.1028L85.2085 20.3542L85.7094 20.4361L86.2102 20.1866L88.5488 17.9318C91.3864 26.3645 89.6343 34.0468 83.2888 40.9769C83.1213 41.2282 83.0375 41.394 83.0375 41.6453L83.3708 42.312C83.5384 42.4795 83.7897 42.5633 84.041 42.4795C84.2905 42.4795 84.4581 42.3957 84.6239 42.23C91.8053 34.2964 93.5574 25.6141 89.8001 15.9284L89.4667 15.5113L88.8821 15.3437L88.2975 15.6788H88.3812L85.7094 18.1832L82.3709 13.5898L81.952 13.2565H81.3674L80.9503 13.4241L79.2801 15.0942L77.6118 10.5846L77.2767 10.1675H77.3604L76.7758 10C76.6083 10 76.3587 10.0838 76.2749 10.1675L75.1057 11.0017L73.8526 10.1675C73.7706 10.0838 73.6031 10 73.3518 10L72.8509 10.1675L72.5176 10.5846L70.8474 15.0942L69.1773 13.4241L68.6764 13.2565H68.1756L67.7585 13.5898L64.502 18.1832L61.8301 15.6788L61.3292 15.3437H61.2455L60.7446 15.5113L60.3275 15.9284C56.6539 25.6141 58.3223 34.2964 65.5037 42.23C65.6712 42.3957 65.9226 42.4795 66.1721 42.4795C66.4217 42.5633 66.5892 42.4795 66.7568 42.312H66.8405L67.0901 41.6453C67.0901 41.394 67.0063 41.2282 66.8405 40.9769C60.4951 34.0468 58.7411 26.3645 61.5806 17.9318L64.0011 20.1866C64.0849 20.3542 64.2524 20.3542 64.4182 20.4361L64.9191 20.3542C65.0866 20.3542 65.2542 20.1866 65.3362 20.1028L68.6764 15.5113L70.5141 17.3472L71.0988 17.5985L71.6816 17.431C71.8492 17.3472 71.9329 17.1814 72.0167 17.0139L73.7706 12.3386L74.521 12.8394L75.0219 13.007H75.1057L75.6065 12.8394Z" fill="black"/>
<path d="M87.5454 21.7729L84.3726 25.0295C84.7077 29.5372 83.9555 33.963 82.1196 38.3888L83.5384 38.8897C87.212 32.8775 88.5489 27.2005 87.5454 21.7729Z" fill="#DF513E"/>
<path d="M82.0358 18.267L78.8631 21.5235C80.1981 26.1988 80.1162 31.6263 78.6956 37.7204L80.7008 38.3051C84.2068 32.5443 84.6239 25.8637 82.0358 18.267Z" fill="#DF513E"/>
<path d="M75.5228 37.888H76.9434C79.5315 30.9579 79.1964 23.5269 75.9417 15.5951C75.9417 25.4466 75.7742 32.8776 75.5228 37.888Z" fill="#DF513E"/>
<path d="M65.755 25.0295L62.5823 21.7729C61.5806 27.2005 62.9156 32.8775 66.5892 38.8897L68.0918 38.3888C66.1721 33.963 65.4199 29.5372 65.755 25.0295Z" fill="#DF513E"/>
<path d="M71.3483 21.5235L68.0918 18.267C65.5037 25.8637 65.9226 32.5443 69.4287 38.3051L71.5159 37.7204C70.0133 31.6263 69.9295 26.1988 71.3483 21.5235Z" fill="#DF513E"/>
<path d="M73.186 37.888H74.6048C74.3535 32.8776 74.1877 25.4466 74.1877 15.5951C70.9312 23.5269 70.5979 30.9579 73.186 37.888Z" fill="#DF513E"/>
<path d="M48.838 69.692L49.1945 68.3712L50.804 68.8043L49.5652 66.9969L50.0358 65.2466L51.2211 67.2269L54.319 66.3232L53.8805 67.9434L51.8949 68.3658L52.4278 69.2428L53.4563 69.5191L53.0998 70.8399L48.838 69.692Z" fill="white"/>
<path d="M52.3548 65.5656C51.7149 65.2377 51.3067 64.8028 51.132 64.2627C50.9573 63.7208 51.034 63.1326 51.3602 62.4927C51.6953 61.8386 52.1284 61.4233 52.6614 61.2486C53.1943 61.0739 53.7772 61.147 54.4099 61.4714C54.868 61.7067 55.2049 61.9758 55.4206 62.2806C55.6345 62.5872 55.7503 62.9276 55.7646 63.3037C55.777 63.6798 55.6719 64.0862 55.4491 64.5229C55.2227 64.9667 54.9643 65.2983 54.6737 65.5157C54.385 65.735 54.0392 65.8562 53.6417 65.8811C53.2442 65.9061 52.8146 65.8009 52.3548 65.5656ZM52.9822 64.3589C53.3779 64.5603 53.7005 64.6316 53.9501 64.5728C54.1996 64.5122 54.3903 64.3554 54.5204 64.0987C54.6559 63.8367 54.6737 63.5889 54.5793 63.359C54.483 63.1273 54.2139 62.9009 53.7754 62.6745C53.4046 62.4856 53.0963 62.4232 52.8503 62.4856C52.6025 62.5498 52.4118 62.7102 52.2799 62.9668C52.1551 63.2146 52.1391 63.4552 52.2371 63.6941C52.3334 63.9329 52.5829 64.1539 52.9822 64.3589Z" fill="white"/>
<path d="M60.9479 56.6783L59.7697 57.6658L60.0656 58.3627L58.9979 59.2575L57.4347 54.8086L58.5808 53.8496L62.6786 56.1775L61.5824 57.0936L60.9479 56.6783ZM60.1155 56.1329L58.7287 55.2203L59.3793 56.7496L60.1155 56.1329Z" fill="white"/>
<path d="M62.9513 56.1543L60.8159 52.29L62.8087 51.1884C63.1794 50.9852 63.4789 50.8605 63.7088 50.8159C63.9387 50.7714 64.1615 50.8017 64.3772 50.9068C64.5911 51.012 64.7658 51.1884 64.9013 51.4326C65.0207 51.6483 65.0777 51.8586 65.0706 52.0654C65.0652 52.2704 65.0082 52.4664 64.8995 52.6536C64.83 52.7712 64.7177 52.8996 64.5608 53.0386C64.7301 53.0083 64.8603 52.9994 64.9512 53.0119C65.0118 53.019 65.1134 53.0511 65.2542 53.1099C65.395 53.1687 65.4948 53.2169 65.5554 53.2578L66.755 54.0528L65.4057 54.7979L64.1116 53.9708C63.9459 53.8639 63.8193 53.8051 63.7302 53.7944C63.6108 53.7819 63.4967 53.8068 63.388 53.8657L63.281 53.9245L64.1491 55.493L62.9513 56.1543ZM62.88 53.1972L63.388 52.9174C63.4414 52.8853 63.5395 52.8087 63.6785 52.6875C63.748 52.6269 63.7908 52.5502 63.8051 52.4575C63.8211 52.3648 63.8033 52.2757 63.7569 52.192C63.6874 52.0654 63.5947 51.9923 63.4789 51.9691C63.363 51.946 63.1937 51.9959 62.9744 52.1171L62.4451 52.4094L62.88 53.1972Z" fill="white"/>
<path d="M65.7319 49.7429L67.0527 49.39L67.4841 51.0031L68.4288 49.0246L70.1791 48.5576L69.058 50.5753L71.3894 52.8034L69.7656 53.2365L68.4091 51.7268L67.9154 52.6287L68.1899 53.6554L66.8691 54.0083L65.7319 49.7429Z" fill="white"/>
<path d="M74.284 51.9354L72.7493 52.0405L72.58 52.7785L71.1897 52.8747L72.539 48.3562L74.0309 48.2546L75.9773 52.5467L74.5531 52.643L74.284 51.9354ZM73.9311 51.0049L73.3447 49.4524L72.9721 51.0709L73.9311 51.0049Z" fill="white"/>
<path d="M76.102 51.1207L77.4014 51.1991C77.4014 51.413 77.4389 51.5788 77.512 51.7C77.6296 51.8943 77.8167 52.0066 78.077 52.0387C78.2695 52.0636 78.4228 52.0369 78.5404 51.9585C78.6563 51.88 78.7204 51.782 78.7365 51.6626C78.7507 51.5485 78.7133 51.4398 78.6242 51.3382C78.5351 51.2348 78.314 51.1225 77.9611 50.996C77.3836 50.7892 76.9826 50.5593 76.7562 50.3062C76.5281 50.053 76.4354 49.7536 76.4781 49.4114C76.5067 49.1868 76.5976 48.9818 76.7544 48.7964C76.9095 48.6128 77.1252 48.4792 77.4014 48.3972C77.6777 48.3152 78.0449 48.3009 78.503 48.358C79.0627 48.4292 79.4762 48.5861 79.7453 48.8303C80.0127 49.0745 80.1464 49.4274 80.1464 49.8873L78.8613 49.8035C78.8523 49.6021 78.7989 49.4506 78.7008 49.3472C78.6046 49.2456 78.4602 49.1814 78.2677 49.1583C78.1109 49.1387 77.9879 49.1565 77.8987 49.2135C77.8114 49.2706 77.7615 49.3472 77.749 49.4435C77.7401 49.513 77.7651 49.5807 77.8239 49.6449C77.8791 49.709 78.0235 49.7821 78.257 49.8623C78.8327 50.0637 79.2409 50.2455 79.4815 50.4077C79.7204 50.57 79.8879 50.7553 79.9788 50.9639C80.0715 51.1724 80.1036 51.3952 80.0733 51.6358C80.0394 51.9175 79.9289 52.167 79.7436 52.3845C79.56 52.6037 79.3193 52.757 79.0252 52.8443C78.7311 52.9335 78.3729 52.9513 77.9469 52.8978C77.2018 52.8051 76.7045 52.5984 76.4532 52.274C76.2019 51.9513 76.086 51.5681 76.102 51.1207ZM78.9147 48.2118L78.0556 48.1066L77.4995 47.1691L78.2374 47.2618L78.544 47.7626L78.9646 47.3509L79.7079 47.4436L78.9147 48.2118Z" fill="white"/>
<path d="M81.7149 48.9052L83.0161 49.3294L82.4974 50.914L84.3672 49.7714L86.0908 50.3329L84.0517 51.4148L84.7932 54.5537L83.1961 54.0314L82.8806 52.0262L81.9769 52.5146L81.6454 53.5252L80.3442 53.101L81.7149 48.9052Z" fill="white"/>
<path d="M86.7932 50.6787L88.0106 51.3008L86.0018 55.231L84.7826 54.609L86.7932 50.6787Z" fill="white"/>
<path d="M91.3793 53.356L92.4113 54.2561L91.3151 55.5127L93.4825 55.1901L94.8497 56.3825L92.5503 56.5804L92.0067 59.7602L90.7394 58.6569L91.2313 56.6855L90.2082 56.7818L89.5113 57.5839L88.4792 56.6838L91.3793 53.356Z" fill="white"/>
<path d="M95.4825 57.1168L96.322 58.1952L93.6983 60.2379L95.003 61.9133L94.1457 62.5818L91.9996 59.8279L95.4825 57.1168Z" fill="white"/>
<path d="M99.5857 63.1147L100.265 64.2947L97.9851 65.6066C97.7587 65.7367 97.5252 65.824 97.2828 65.8686C97.0422 65.9149 96.8033 65.906 96.5662 65.8419C96.3292 65.7777 96.1313 65.6797 95.9763 65.5495C95.7588 65.3695 95.5574 65.1164 95.372 64.7956C95.2651 64.6084 95.1617 64.3981 95.0601 64.1628C94.9603 63.9275 94.905 63.7136 94.8979 63.5211C94.889 63.3286 94.9228 63.1308 94.9941 62.9258C95.0654 62.7208 95.1635 62.5533 95.29 62.4196C95.4914 62.2057 95.6857 62.0453 95.8729 61.9383L98.1526 60.6265L98.8317 61.8047L96.4967 63.1486C96.2882 63.2698 96.1581 63.4213 96.1082 63.6049C96.0565 63.7885 96.0903 63.9828 96.208 64.1895C96.3256 64.3927 96.4771 64.5193 96.6589 64.5692C96.8407 64.6173 97.0368 64.5817 97.2507 64.4587L99.5857 63.1147Z" fill="white"/>
<path d="M100.849 65.8347L101.55 68.2927C101.668 68.7027 101.655 69.0449 101.516 69.3229C101.375 69.5992 101.156 69.781 100.857 69.8666C100.605 69.9379 100.368 69.9201 100.144 69.8149C99.9939 69.7454 99.8566 69.6188 99.7301 69.4388C99.7443 69.765 99.6819 70.0252 99.5429 70.2195C99.4057 70.4138 99.2025 70.5493 98.9315 70.6259C98.7105 70.6901 98.4984 70.6954 98.2934 70.6419C98.0885 70.5902 97.9102 70.4904 97.7569 70.3407C97.6625 70.248 97.568 70.0965 97.4753 69.8826C97.3523 69.5974 97.2774 69.4067 97.2507 69.3105L96.6055 67.045L100.849 65.8347ZM97.8977 68.1073L98.0885 68.7775C98.1526 69.0039 98.2382 69.1518 98.3433 69.2213C98.4503 69.2909 98.5715 69.3069 98.707 69.2677C98.8317 69.232 98.9191 69.1572 98.969 69.0449C99.0189 68.9308 99.0118 68.7597 98.9458 68.5298L98.7551 67.8631L97.8977 68.1073ZM99.5625 67.6332L99.7247 68.2036C99.7835 68.4103 99.8584 68.5422 99.9529 68.6028C100.047 68.6617 100.16 68.6741 100.293 68.6349C100.418 68.5993 100.502 68.5315 100.55 68.4317C100.596 68.3319 100.591 68.1822 100.534 67.9825L100.37 67.4033L99.5625 67.6332Z" fill="white"/>
<path d="M53.0981 80.4221L53.8235 82.9532C53.9447 83.3738 53.934 83.7268 53.7896 84.0137C53.6453 84.2989 53.4189 84.4861 53.1123 84.5752C52.8539 84.6483 52.6097 84.6322 52.378 84.5235C52.2247 84.4504 52.0821 84.3221 51.952 84.1367C51.9644 84.47 51.9021 84.7374 51.7595 84.937C51.6186 85.1384 51.4083 85.2775 51.1285 85.3577C50.9021 85.4218 50.6847 85.429 50.4725 85.3755C50.2622 85.322 50.0768 85.2186 49.92 85.0671C49.8202 84.9727 49.7239 84.8158 49.6295 84.5948C49.5011 84.3025 49.4245 84.1064 49.396 84.0066L48.7275 81.6752L53.0981 80.4221ZM50.0537 82.7696L50.2515 83.4576C50.3193 83.6911 50.4066 83.8426 50.5171 83.9139C50.6276 83.987 50.7524 84.003 50.8914 83.962C51.0215 83.9246 51.1124 83.848 51.1641 83.7303C51.2158 83.6127 51.2087 83.4362 51.141 83.2009L50.9431 82.5129L50.0537 82.7696ZM51.7755 82.2741L51.9448 82.8641C52.0054 83.0744 52.0839 83.2116 52.1801 83.274C52.2746 83.3364 52.3922 83.3471 52.5277 83.3079C52.6542 83.2722 52.7398 83.2027 52.7879 83.0993C52.8343 82.996 52.8289 82.8427 52.7701 82.6377L52.599 82.0388L51.7755 82.2741Z" fill="white"/>
<path d="M52.4581 88.9261L51.7094 87.5162L50.9412 87.666L50.2675 86.3969L55.0854 85.7712L55.8108 87.133L52.5971 90.7799L51.9037 89.4787L52.4581 88.9261ZM53.1871 88.1989L54.3991 86.9922L52.7201 87.3202L53.1871 88.1989Z" fill="white"/>
<path d="M54.2477 90.304L55.1549 91.2915C55.0052 91.4501 54.9143 91.5998 54.8822 91.7389C54.8305 91.967 54.8894 92.1845 55.0587 92.3912C55.1835 92.5463 55.3171 92.6372 55.458 92.6622C55.5988 92.6871 55.7182 92.6604 55.8144 92.582C55.9054 92.5089 55.9553 92.4019 55.9642 92.2629C55.9713 92.1257 55.8893 91.8832 55.7164 91.5392C55.4366 90.9724 55.3029 90.5143 55.3154 90.1668C55.3261 89.8174 55.4704 89.5287 55.7485 89.3058C55.9285 89.1579 56.1424 89.0706 56.3902 89.0456C56.6361 89.0207 56.8928 89.0759 57.1548 89.2132C57.4186 89.3504 57.7003 89.6017 57.9997 89.9707C58.3651 90.4234 58.5594 90.8352 58.5826 91.2095C58.6075 91.582 58.4542 91.9403 58.1227 92.2825L57.2261 91.3004C57.3634 91.1435 57.4329 90.9902 57.4347 90.8441C57.4382 90.6979 57.3759 90.5482 57.2511 90.3931C57.1477 90.2666 57.0443 90.1935 56.9392 90.1721C56.8322 90.1507 56.7413 90.1721 56.6647 90.2345C56.6076 90.2808 56.5791 90.3486 56.5773 90.4377C56.572 90.5268 56.629 90.6854 56.7449 90.91C57.0283 91.4715 57.2012 91.8975 57.2618 92.1898C57.3242 92.4821 57.3153 92.737 57.235 92.9581C57.1548 93.1773 57.0194 93.3662 56.8269 93.5231C56.6005 93.7067 56.3403 93.8136 56.0462 93.8439C55.7538 93.8724 55.4669 93.8154 55.1852 93.671C54.9036 93.5266 54.6256 93.2825 54.3493 92.9402C53.8609 92.3395 53.6399 91.8298 53.6844 91.4109C53.7272 90.992 53.9162 90.6231 54.2477 90.304Z" fill="white"/>
<path d="M59.3241 91.7441L60.4345 92.6122L59.3757 93.9668L61.5913 93.5141L63.0654 94.6655L60.7108 94.9953L60.3276 98.2981L58.9622 97.2323L59.3544 95.186L58.3081 95.334L57.6343 96.1967L56.5256 95.3304L59.3241 91.7441Z" fill="white"/>
<path d="M63.1794 94.744L66.5393 96.4552L66.0973 97.3232L63.9922 96.252L63.666 96.8919L65.6213 97.8882L65.2025 98.7135L63.2454 97.7171L62.839 98.5156L65.0064 99.619L64.5358 100.539L61.1154 98.7973L63.1794 94.744Z" fill="white"/>
<path d="M66.5715 96.6958L70.7085 97.8045L70.418 98.8882L69.0294 98.5157L68.1454 101.826L66.7836 101.46L67.6712 98.152L66.2827 97.7795L66.5715 96.6958Z" fill="white"/>
<path d="M71.3288 97.8865L73.9436 98.2073C74.3785 98.2608 74.7011 98.4105 74.9061 98.6547C75.1146 98.8989 75.1984 99.1787 75.1592 99.4978C75.1271 99.7634 75.0148 99.9826 74.8241 100.154C74.6975 100.266 74.5247 100.346 74.3018 100.394C74.6138 100.514 74.8366 100.676 74.9649 100.885C75.0933 101.093 75.1414 101.343 75.1057 101.63C75.0772 101.863 74.9952 102.068 74.8651 102.241C74.7332 102.416 74.5656 102.546 74.3642 102.631C74.2377 102.683 74.0559 102.712 73.8152 102.713C73.4962 102.715 73.2859 102.712 73.1825 102.699L70.7744 102.403L71.3288 97.8865ZM72.3002 101.608L73.0132 101.696C73.252 101.724 73.4267 101.703 73.5372 101.63C73.6459 101.557 73.7083 101.446 73.7279 101.302C73.7439 101.168 73.7083 101.054 73.621 100.961C73.5318 100.868 73.3661 100.806 73.1219 100.776L72.4143 100.688L72.3002 101.608ZM72.5194 99.8275L73.1272 99.9042C73.3465 99.9309 73.5033 99.9113 73.5978 99.8472C73.6905 99.783 73.7475 99.6814 73.7653 99.5406C73.7814 99.4105 73.7511 99.3035 73.6744 99.2197C73.5978 99.136 73.4534 99.0807 73.2413 99.054L72.6228 98.9791L72.5194 99.8275Z" fill="white"/>
<path d="M78.7241 101.788L77.1324 101.899L76.9577 102.662L75.5228 102.761L76.9096 98.1057L78.4496 97.9969L80.4726 102.416L79.0039 102.519L78.7241 101.788ZM78.3569 100.826L77.7473 99.2286L77.3641 100.897L78.3569 100.826Z" fill="white"/>
<path d="M80.2213 97.7901L81.5813 97.4265L82.4672 100.735L84.5883 100.168L84.877 101.252L81.3977 102.184L80.2213 97.7901Z" fill="white"/>
<path d="M83.8914 96.6619L85.1462 96.0238L86.7005 99.0771L88.6558 98.0807L89.1656 99.0807L85.9554 100.715L83.8914 96.6619Z" fill="white"/>
<path d="M92.4541 94.3019L93.6537 93.8385C93.8016 94.1611 93.8765 94.4695 93.8783 94.7618C93.8801 95.0541 93.8141 95.3268 93.6786 95.5817C93.545 95.8366 93.315 96.0897 92.996 96.341C92.6056 96.6441 92.2438 96.8366 91.9087 96.915C91.5736 96.9952 91.2046 96.9613 90.8018 96.817C90.4007 96.6708 90.0264 96.3749 89.6789 95.9311C89.2154 95.3375 89.0176 94.7582 89.0835 94.1932C89.1513 93.6282 89.4739 93.1202 90.0496 92.6692C90.5006 92.3163 90.9266 92.1309 91.3294 92.1131C91.7304 92.0935 92.1422 92.2254 92.5628 92.5052L91.7554 93.4874C91.636 93.4036 91.5379 93.3519 91.4595 93.3305C91.3312 93.2949 91.2046 93.2877 91.0799 93.3127C90.9533 93.3376 90.8357 93.3929 90.7252 93.4785C90.4738 93.6763 90.3598 93.9276 90.3829 94.2342C90.4007 94.4624 90.5326 94.7369 90.784 95.0577C91.0941 95.457 91.3668 95.6815 91.6039 95.735C91.8392 95.7885 92.0655 95.7297 92.283 95.5603C92.4951 95.3946 92.6092 95.2092 92.6234 95.006C92.6395 94.8028 92.5824 94.5675 92.4541 94.3019Z" fill="white"/>
<path d="M91.8071 91.1203L92.7304 90.058L95.3167 92.3074L96.7569 90.6498L97.6036 91.3859L95.2401 94.1059L91.8071 91.1203Z" fill="white"/>
<path d="M95.7143 85.7481L96.4183 84.5289L98.7658 85.8836C98.9993 86.019 99.1971 86.1812 99.3629 86.3737C99.5269 86.5663 99.6427 86.7837 99.7087 87.0279C99.7729 87.2721 99.7889 87.4985 99.7533 87.7052C99.7051 87.9922 99.5839 88.3006 99.3932 88.6321C99.2809 88.8246 99.1472 89.026 98.9904 89.2363C98.8317 89.4484 98.6695 89.6071 98.502 89.714C98.3344 89.821 98.1402 89.8941 97.9209 89.9351C97.7017 89.9778 97.5003 89.976 97.3167 89.9333C97.0226 89.8638 96.7802 89.7728 96.5859 89.6623L94.2384 88.3077L94.9425 87.0867L97.3452 88.4735C97.5591 88.5982 97.7605 88.6357 97.9494 88.5875C98.1402 88.5376 98.2952 88.4093 98.4164 88.1972C98.5359 87.9886 98.5715 87.7926 98.5198 87.6054C98.4699 87.4183 98.3362 87.2614 98.117 87.1348L95.7143 85.7481Z" fill="white"/>
<path d="M96.4985 84.1475L97.224 81.6164C97.3452 81.194 97.5413 80.8999 97.8158 80.7341C98.0885 80.5684 98.379 80.5291 98.6874 80.6183C98.9458 80.6913 99.1437 80.8357 99.2809 81.0496C99.3754 81.1922 99.4271 81.3776 99.4396 81.6057C99.6053 81.3134 99.8014 81.1209 100.026 81.0264C100.254 80.932 100.505 80.9248 100.784 81.0033C101.01 81.0692 101.199 81.1797 101.35 81.3384C101.5 81.4952 101.603 81.6806 101.655 81.8927C101.689 82.0246 101.687 82.21 101.652 82.447C101.605 82.7625 101.566 82.9693 101.537 83.0691L100.869 85.4005L96.4985 84.1475ZM98.6018 83.2759L98.7694 82.6877C98.8317 82.4756 98.8371 82.3187 98.789 82.2153C98.7408 82.1119 98.6481 82.0407 98.5127 81.9997C98.3861 81.964 98.2738 81.9783 98.1812 82.0407C98.0867 82.103 98.0083 82.2367 97.9494 82.4417L97.7783 83.0388L98.6018 83.2759ZM100.324 83.7696L100.521 83.0798C100.587 82.8481 100.593 82.6716 100.538 82.554C100.482 82.4328 100.384 82.3544 100.245 82.3134C100.115 82.2759 99.9975 82.2938 99.8905 82.3651C99.7853 82.4381 99.698 82.5914 99.6303 82.8285L99.4324 83.5147L100.324 83.7696Z" fill="white"/>
<path d="M54.3297 57.6462L53.7825 58.3182L52.6952 58.2933L53.1622 57.7175L53.7522 57.7229L53.6256 57.1472L54.0962 56.5679L54.3297 57.6462ZM55.3047 61.5729L56.0604 60.5124C56.2422 60.6247 56.4027 60.6817 56.5435 60.6835C56.7698 60.6871 56.9659 60.5873 57.1299 60.3858C57.2529 60.2343 57.3117 60.0882 57.3081 59.9491C57.3028 59.8083 57.2529 59.7014 57.1602 59.6247C57.0711 59.5534 56.9588 59.5267 56.8251 59.5481C56.6914 59.5713 56.4775 59.6978 56.1852 59.9313C55.7022 60.311 55.2958 60.5284 54.9607 60.5855C54.6256 60.6443 54.3243 60.5659 54.0552 60.3484C53.8787 60.204 53.7522 60.0187 53.6791 59.7887C53.606 59.5588 53.6078 59.3057 53.6844 59.0276C53.7611 58.7496 53.9447 58.4305 54.2334 58.074C54.5899 57.6355 54.9428 57.3682 55.2922 57.2701C55.6416 57.1721 56.0123 57.2434 56.4027 57.4894L55.6505 58.5339C55.4758 58.4359 55.3172 58.4002 55.1799 58.4287C55.0391 58.4573 54.909 58.5464 54.7878 58.6961C54.688 58.8191 54.638 58.9332 54.6398 59.0383C54.6434 59.1417 54.6808 59.2255 54.7557 59.2861C54.8109 59.3306 54.8805 59.3467 54.9642 59.3306C55.0498 59.3182 55.1888 59.2344 55.3795 59.0793C55.8554 58.6961 56.2262 58.4466 56.4918 58.3289C56.7556 58.2131 57.0015 58.1703 57.2261 58.2006C57.4525 58.2327 57.6593 58.3254 57.8464 58.4769C58.0657 58.6551 58.219 58.8815 58.3063 59.1542C58.3936 59.4251 58.3972 59.7103 58.3152 60.0062C58.235 60.3021 58.0603 60.6176 57.7894 60.9491C57.317 61.5319 56.8768 61.8439 56.4704 61.8867C56.0622 61.9276 55.6754 61.8243 55.3047 61.5729Z" fill="white"/>
<path d="M98.4467 116.313L95.2918 110.818L97.8549 109.208L101.509 114.47L104.855 112.208L98.067 103.681L95.6447 105.435L96.8122 107.296L94.3631 108.943L93.2242 106.938L90.4418 108.615L94.8569 118.383L98.4467 116.313Z" fill="#231F20"/>
<path d="M106.357 94.2734L104.84 96.1414L105.794 97.6226L103.43 100.444L101.657 100.008L99.1276 102.842L110.173 106.938L112.261 104.515L106.357 94.2734ZM105.582 101.009L106.833 99.4229L107.979 101.785L105.582 101.009Z" fill="#231F20"/>
<path d="M120.109 90.6551L118.066 89.4769L115.914 93.8136L114.221 90.9225L112.282 91.7335L112.881 93.0382C112.881 93.0382 109.885 93.6728 109.885 91.099C109.885 88.9832 113.481 88.6659 113.481 88.6659L113.339 87.8906C113.339 87.8906 107.594 87.1847 107.38 92.2629C107.168 97.3054 113.093 96.6708 113.093 96.6708L115.173 100.444L120.109 90.6551Z" fill="#231F20"/>
<path d="M122.333 81.7181L115.562 81.1905L117.925 84.3293L121.592 85.3863L120.921 88.6303L110.271 85.2098L110.66 82.882L113.179 83.0567L111.366 80.6254L111.576 77.6292L122.474 77.7343L122.333 81.7181Z" fill="#231F20"/>
<path d="M111.676 70.3675L119.581 69.5173L119.44 66.6957L122.19 66.4497L122.791 76.0766H120.182L119.97 73.0091L111.753 73.0786L111.676 70.3675Z" fill="#231F20"/>
<path d="M92.7803 42.927L97.9778 33.4872L107.662 40.2462L100.411 48.5523L97.9315 46.5417L103.113 39.6116L100.154 37.4709L95.3113 44.622L92.7803 42.927Z" fill="#231F20"/>
<path d="M112.353 45.5007L101.072 49.2421L102.491 50.8284L104.065 50.4042L106.569 53.4361L105.687 54.953L107.874 58.0562L114.467 47.8642L112.353 45.5007ZM107.485 51.3917L106.25 49.8267L108.614 49.1333L107.485 51.3917Z" fill="#231F20"/>
<path d="M120.604 59.5018L117.784 53.4362L108.191 58.7603L109.425 61.4411L111.147 60.6924C111.147 60.6924 112.934 63.785 113.423 64.6548C113.986 65.653 115.685 67.234 118.813 65.7563C122.861 63.8456 120.604 59.5018 120.604 59.5018ZM116.697 62.163C114.148 63.2075 113.366 60.4251 113.366 60.4251L117.307 58.7728C117.307 58.7728 118.914 61.2575 116.697 62.163Z" fill="#231F20"/>
<path d="M35.7746 48.5504L34.1686 51.315L41.8544 60.2984L43.0005 58.1827L41.792 56.9011L43.5977 53.6927L45.4211 53.7961L47.3853 50.545L35.7746 48.5504ZM40.4392 55.3237L38.8778 53.2133L41.3785 53.5341L40.4392 55.3237Z" fill="#231F20"/>
<path d="M39.1825 81.7269L31.3719 83.2081L31.7391 86.0083L29.0173 86.4771L27.6466 76.9286L30.2472 76.7183L30.7035 79.7609L38.8884 79.0301L39.1825 81.7269Z" fill="#231F20"/>
<path d="M50.4403 101.995L48.9164 102.574L46.1251 99.8043L46.8523 98.209L44.3694 95.3375L38.8153 106.13L41.1539 108.273L52.0089 103.433L50.4403 101.995ZM44.5155 104.289L45.4139 101.931L46.8006 103.364L44.5155 104.289Z" fill="#231F20"/>
<path d="M57.2012 106.774L56.2726 108.406C56.2726 108.406 52.9857 107.002 52.0731 106.599C51.0251 106.137 48.7186 105.89 47.0984 108.948C45.0058 112.903 49.4155 115.028 49.4155 115.028L55.31 118.19L59.7946 108.178L57.2012 106.774ZM52.492 113.634C52.492 113.634 49.7168 112.609 50.9466 110.556C52.3619 108.192 54.6559 109.95 54.6559 109.95L52.492 113.634Z" fill="#231F20"/>
<path d="M42.5781 91.0473L40.8562 91.7977C40.8562 91.7977 40.5764 91.3111 40.2074 90.6712L41.5496 88.7016L40.2056 84.7625L38.0239 87.117C37.1826 86.2811 35.6194 85.5859 33.19 86.732C29.1439 88.6428 31.3986 92.9866 31.3986 92.9866L34.2202 99.0522L43.8115 93.7281L42.5781 91.0473ZM34.6961 93.7156C34.6961 93.7156 33.0884 91.2309 35.3057 90.3254C37.8546 89.2809 38.6371 92.0633 38.6371 92.0633L34.6961 93.7156Z" fill="#231F20"/>
<path d="M38.63 71.0109L27.8659 70.257L27.636 74.1605L38.5641 74.1944L38.63 71.0109Z" fill="#231F20"/>
<path d="M30.5574 68.3533L31.9566 63.2466L39.2093 69.5636L41.5407 61.3483L39.1879 60.2147L38.3199 63.3393L31.0814 56.9332L27.9978 67.7633L30.5574 68.3533Z" fill="#231F20"/>
<path d="M47.5226 36.3764L51.066 34.2589L56.654 43.4812L54.9375 44.9892L48.4708 44.7343L50.7042 47.9427L48.6045 49.9122L40.5319 42.7255L43.1895 40.034L50.9163 41.369L47.5226 36.3764Z" fill="#231F20"/>
</svg>
