<svg width="150" height="150" viewBox="0 0 150 150" fill="none" xmlns="http://www.w3.org/2000/svg">
<path fill-rule="evenodd" clip-rule="evenodd" d="M21.7139 10H127.77C129.765 21.3595 130.095 31.525 129.936 42.7798C129.788 53.1835 128 64.3738 125.393 74.4578C124.281 78.7644 122.74 83.0119 120.997 87.1053C119.483 90.6676 117.727 94.1143 115.819 97.4804C111.358 105.35 106.062 111.865 100.185 118.729C94.6738 125.166 83.9512 135.356 76.7836 139.207C74.8704 140.234 74.0454 140.27 72.1474 139.277C68.2331 137.231 62.5461 132.517 58.8468 128.87C48.6285 118.798 39.2673 107.029 32.6793 94.3526C30.2573 89.6931 28.0869 84.8392 26.4782 79.8366C24.5121 73.7206 22.8882 67.4058 21.9441 61.0533C20.9221 54.1832 20.1867 47.2118 20.0443 40.2708C19.8365 30.1582 20.3551 20.007 21.7139 10Z" fill="#2B7B40"/>
<path fill-rule="evenodd" clip-rule="evenodd" d="M25.9848 14.9534H123.028C124.795 25.0643 125.368 34.5517 125.243 43.4131C125.086 54.3238 123.735 64.4329 121.404 73.4492C120.371 77.4486 118.971 81.5689 117.287 85.5271C115.827 88.9586 114.151 92.2468 112.312 95.492C107.822 103.413 102.371 110.617 96.9786 116.913C89.4483 125.708 81.4486 132.97 76.0483 135.614C74.8982 136.176 74.359 136.217 73.1829 135.648C69.102 133.674 64.3869 129.284 61.122 126.019C57.6914 122.589 54.4489 118.916 51.6328 115.493C45.8536 108.473 40.5384 100.732 36.2569 92.494C33.9352 88.0271 31.8356 83.3263 30.3165 78.6023C28.5438 73.09 27.1044 66.9902 26.1335 60.4604C25.1822 54.0676 24.6824 47.2611 24.5364 40.1876C24.3725 32.2649 24.7988 23.6857 25.9848 14.9534Z" fill="white"/>
<path fill-rule="evenodd" clip-rule="evenodd" d="M28.111 17.1711C27.2216 24.671 26.7621 32.5202 26.8042 40.3407C26.8409 47.0282 27.1983 53.6941 28.1513 60.1039C28.524 62.6092 29.005 65.1074 29.5737 67.5894H74.495V17.1711H28.111ZM74.6786 133.319C77.2592 132.906 81.7718 129.064 84.3291 126.77C88.255 123.246 91.9131 119.345 95.3428 115.339C100.949 108.792 106.154 101.807 110.408 94.2998C112.196 91.145 113.872 87.9169 115.291 84.5794C116.908 80.7816 118.259 76.8395 119.292 72.8437C119.703 71.2547 120.1 69.6549 120.447 68.0453H74.6786V133.319Z" fill="#2B7B40"/>
<path fill-rule="evenodd" clip-rule="evenodd" d="M92.7686 64.4669C93.1269 76.5465 80.6012 82.9805 70.003 78.3246C63.0352 75.3096 59.4497 68.6732 59.2257 62.1944C58.7546 50.0252 71.3475 43.8608 81.9242 48.3377C88.9143 51.4422 92.5671 58.0562 92.7686 64.4669Z" fill="#2A2827"/>
<path fill-rule="evenodd" clip-rule="evenodd" d="M65.9015 50.9334C63.5171 52.672 61.92 55.2911 61.0879 58.4288C61.7176 56.2612 63.6971 55.1326 65.9015 54.7259C66.8904 54.5459 67.9249 54.5002 68.8923 54.5907C69.5435 54.6587 70.1732 54.7716 70.7357 54.9525C70.3308 54.0263 69.634 53.1682 68.8923 52.4687C67.9473 51.5658 66.8904 50.8877 66.2607 50.6853C66.1254 50.7525 66.0126 50.843 65.9015 50.9334ZM87.6917 64.4346C88.9967 66.1275 90.0304 67.7765 89.7832 69.3566C89.3111 70.4404 88.5927 71.4338 87.6917 72.2919C85.0385 74.8429 80.9012 76.4238 77.5942 76.4686C77.1678 76.4686 76.763 76.4462 76.3805 76.4005C76.7854 75.701 77.2135 74.8886 77.5942 74.0305C79.3937 70.1018 80.7436 64.9093 80.7203 61.0936C80.7203 58.3616 79.7986 54.2745 77.5942 50.6172C77.1222 49.8272 76.5829 49.0596 75.998 48.3143C76.4701 48.2911 77.0102 48.3367 77.5942 48.4496C80.5411 48.9467 84.7241 50.843 87.3997 53.9816C87.3997 53.9816 83.6215 53.643 83.4191 56.5326C83.1495 59.2188 85.713 61.8836 87.6917 64.4346ZM87.6917 62.7408C89.3783 64.6155 91.0658 66.3989 90.5929 67.867C90.9978 66.8504 91.4698 63.1027 91.0425 61.8155C90.5042 60.4155 89.1311 59.3317 87.6917 58.6321C86.6347 58.1126 85.533 57.8197 84.6785 57.774C84.6785 59.355 86.1851 61.0703 87.6917 62.7408ZM87.6917 54.9292C87.8717 54.9292 88.0069 54.9525 88.0517 54.9525C88.6366 55.833 89.0639 56.1035 90.6825 59.535C90.6386 59.2645 89.3335 58.0454 87.6917 57.3002C86.7252 56.8712 85.6691 56.6006 84.6785 56.7359C84.476 54.9292 86.7485 54.8844 87.6917 54.9292ZM77.596 53.9135C78.2929 55.6745 78.8545 57.6164 79.056 59.3998C79.529 63.6446 78.7864 67.4604 77.5942 70.5757C76.6725 73.0138 75.4803 75.0014 74.4467 76.4005C73.0744 76.2877 70.4204 75.1143 68.8923 74.1433C68.397 73.8271 67.9921 73.5333 67.8344 73.3076C65.2709 69.7176 66.9137 66.7832 68.8923 63.9375C70.7581 61.2512 72.9624 58.6545 72.2199 55.6745C71.6126 53.1682 70.1508 51.8139 68.8923 50.8654C68.4194 50.5268 67.9921 50.2339 67.632 49.9401C68.0817 49.7144 68.4865 49.5334 68.8923 49.3525C70.6461 48.5849 72.0846 48.2687 73.817 48.2239C75.0316 48.8786 76.5158 51.1815 77.596 53.9135ZM71.1629 56.8488C71.2077 57.9093 70.1508 59.2645 68.8923 60.8446C67.8344 62.1765 66.6655 63.7127 65.9015 65.3832C65.0461 67.3018 64.7532 69.4471 65.9015 71.7723C65.9902 71.9533 66.103 72.1342 66.1926 72.3366C66.103 72.2462 66.0126 72.179 65.9015 72.0885C63.8315 70.3275 60.9759 65.6089 60.9526 62.3798L60.9535 62.335C60.9535 61.7707 61.0431 61.2736 61.2231 60.8446C61.9424 58.7907 63.9219 57.4355 65.9015 56.7135C66.9575 56.3516 68.0145 56.1483 68.8923 56.1035C70.1732 56.0354 71.0958 56.2845 71.1629 56.8488Z" fill="#F06A19"/>
<path fill-rule="evenodd" clip-rule="evenodd" d="M86.7835 89.5614C85.6647 89.6778 84.5227 89.7127 83.3958 89.7208C82.0962 89.7297 80.7929 89.6984 79.4932 89.6429C77.4169 89.5551 75.3335 89.4091 73.2662 89.2049C72.494 89.1287 71.721 89.0445 70.9525 88.9388C70.5073 88.8779 70.0013 88.8125 69.5677 88.6979C63.2045 87.3597 56.7106 85.8584 51.579 81.8107C51.3237 81.5697 51.373 81.4506 51.4187 81.3073C51.484 81.0977 51.7044 81.0126 52.0125 81.1129C55.814 82.0615 59.9701 83.1507 63.8002 83.9855C67.3777 84.7648 70.9489 85.2924 74.6196 85.4643C78.3816 85.6417 82.1051 85.4124 85.8125 84.8615C86.8685 84.7048 87.9676 84.5185 89.0111 84.308C89.3918 84.2318 89.7716 84.1754 90.1514 84.0903C91.1223 83.8726 92.0906 83.6424 93.0705 83.4749C94.3048 83.2635 95.6699 83.1122 96.897 83.4194C97.4837 83.5609 97.8958 84.1799 98.1474 84.6716C98.469 85.3004 98.7028 86.2042 98.0516 86.7246L98.0444 86.7309L98.0364 86.7371C95.0447 88.9505 90.4487 89.2299 86.7835 89.5614ZM79.1752 91.0536L79.7959 91.0384C80.6782 91.1289 80.5009 91.7478 80.0826 91.9216C79.426 92.1679 78.8304 92.7421 78.3512 93.2204C78.0099 93.5581 77.7743 93.9298 77.3963 94.2612C79.1546 94.5201 80.9998 94.572 82.7662 94.6374C84.8881 94.7171 86.9796 94.8488 89.021 95.4498L89.1929 95.5L89.2942 95.6415C89.8826 96.4512 89.8558 97.8172 89.7169 98.7649L89.7008 98.8822L89.6292 98.9798C88.729 100.206 87.122 100.955 85.5599 100.975C84.7914 101.142 83.9431 101.304 83.1549 101.311C80.0145 101.882 76.6529 102.263 73.6182 103.297C77.6068 103.2 81.6904 102.702 85.6862 103.009L86.1565 102.814C87.2268 103.509 87.5233 104.245 87.5672 105.424C87.5753 105.64 87.5771 105.859 87.5636 106.06C87.5135 106.806 87.2913 107.697 86.7924 108.273C86.0624 109.117 85.2392 109.383 84.1026 109.17L84.0891 108.738C84.0855 108.595 83.944 108.411 83.8276 108.311C83.5705 108.089 82.8387 108.096 82.5073 108.078C82.0505 108.052 81.6098 108.026 81.2587 107.872C78.5706 107.776 75.7688 107.931 73.0843 108.023C70.7581 108.103 68.492 108.111 66.1738 107.873L66.0932 107.864L66.0198 107.833C64.6941 107.277 64.3636 106.007 63.9722 104.807C63.9005 103.939 64.2713 103.144 64.7004 102.686C65.6866 101.635 67.1824 101.441 68.4794 100.906L68.4982 100.869L68.5197 100.89C71.0134 100.083 73.602 99.399 76.1728 98.7998C75.1418 98.7711 74.1099 98.7335 73.0843 98.8007C70.5163 98.9682 67.8479 99.4071 65.5648 100.29L65.3453 100.367L65.1393 100.263C64.3546 99.8603 63.9659 99.3632 63.4016 98.7461C63.2869 98.6207 63.1696 98.4988 63.0424 98.3851L62.857 98.2176L62.883 97.9757C62.8964 97.8548 62.8892 97.733 62.8677 97.613C62.8095 97.2914 62.6483 96.9698 62.4996 96.6787C62.2416 96.178 61.9631 95.6809 61.8995 95.1166C61.8323 94.5138 62.0186 94.0812 62.3643 93.5957C64.7855 92.7743 67.2523 92.5996 69.7809 92.3076C71.2723 92.1348 72.8093 91.8938 74.2488 91.471L74.3231 91.4486H74.401C75.003 91.4486 75.6282 91.2301 76.2059 91.0823C77.2046 90.8288 78.1854 90.6909 79.1752 91.0536Z" fill="#2A2827"/>
<path fill-rule="evenodd" clip-rule="evenodd" d="M86.8702 87.6974C85.7506 87.8192 84.6085 87.8559 83.4826 87.8649C82.182 87.8747 80.8787 87.8407 79.5791 87.7834C77.9318 87.7099 76.281 87.5988 74.6365 87.4484V83.2734L74.7054 83.277C78.4675 83.4624 82.1919 83.2215 85.8993 82.6437C86.9544 82.4789 88.0544 82.2836 89.097 82.0633C89.4785 81.9827 89.8583 81.9236 90.2381 81.834C91.2082 81.6065 92.1765 81.3646 93.1564 81.1882C94.3925 80.9669 95.7566 80.8075 96.9829 81.13C97.5696 81.2786 98.0389 81.928 98.2915 82.4449C98.6131 83.1041 98.8469 84.1127 98.1957 84.66L98.1876 84.6663L98.1805 84.6725C95.1879 86.996 90.5346 87.3498 86.8702 87.6974ZM79.2611 89.083L82.8278 89.0535L80.3126 90.0549C79.6561 90.3129 79.0613 90.9148 78.5803 91.4173C78.24 91.772 77.8602 92.1616 77.4831 92.5101C79.2414 92.7815 81.0857 92.8352 82.852 92.9051C84.9749 92.9884 87.1228 93.1263 89.1659 93.7578L89.3361 93.8107L89.4382 93.9585C90.0258 94.8085 89.9999 96.2425 89.861 97.2368L89.8449 97.3604L89.7723 97.4625C88.873 98.7497 87.2088 99.5657 85.6467 99.5863C84.8781 99.7618 84.029 99.932 83.2408 99.9392C80.4183 100.478 77.4177 100.831 74.6365 101.685V97.6829C75.1766 97.5422 75.7176 97.4061 76.2586 97.2735C75.7176 97.2583 75.1766 97.2565 74.6365 97.2681V89.5533C75.1918 89.5202 75.7615 89.315 76.2927 89.1735C77.2905 88.9075 78.2713 88.7024 79.2611 89.083ZM74.6365 101.963C78.3268 101.817 82.0871 101.395 85.7721 101.692L86.2423 101.487C87.3127 102.217 87.6952 103.14 87.74 104.377C87.748 104.604 87.7498 104.833 87.7364 105.045C87.6862 105.828 87.379 106.611 86.8792 107.217C86.1483 108.103 85.2964 108.382 84.1598 108.159L84.1472 107.705C84.1427 107.555 84.0299 107.362 83.9134 107.257C83.6564 107.024 82.9255 107.031 82.5932 107.012C82.1363 106.985 81.6965 106.957 81.3454 106.796C79.1437 106.713 76.8641 106.808 74.6365 106.897V101.963Z" fill="white"/>
<path fill-rule="evenodd" clip-rule="evenodd" d="M74.6787 83.2752V87.452C74.2363 87.4126 73.7938 87.3696 73.354 87.323C72.581 87.2433 71.8071 87.1546 71.0385 87.0444C70.5934 86.9808 70.0882 86.9118 69.6538 86.7918C63.2915 85.3864 56.7966 83.6899 51.665 79.4415C51.4106 79.189 51.4599 79.034 51.5047 78.8835C51.571 78.6632 51.7904 78.5736 52.0994 78.6793C55.9 79.6744 60.057 80.8183 63.8862 81.6934C67.4557 82.5094 71.0179 83.0925 74.6787 83.2752ZM74.6787 89.5506V97.2673C74.1753 97.278 73.672 97.3004 73.1703 97.3344C70.6023 97.5109 68.011 97.9758 65.5935 98.8688L65.374 98.9494L65.168 98.8393C64.3833 98.4174 63.9946 97.8647 63.4303 97.2171C63.3156 97.0854 63.1983 96.9573 63.0729 96.8382L62.8857 96.6627L62.9117 96.4083C62.9251 96.2811 62.9179 96.1539 62.8964 96.0285C62.8382 95.6908 62.6779 95.3531 62.5283 95.0477C62.2712 94.5219 61.9918 93.9997 61.9291 93.4076C61.861 92.7752 62.0473 92.3211 62.3931 91.8114C64.8142 90.9489 67.3392 90.7652 69.8669 90.4589C71.3583 90.278 72.8954 90.0254 74.3348 89.5811L74.41 89.5578H74.488C74.5515 89.5578 74.6151 89.5551 74.6787 89.5506ZM74.6787 97.6712V101.672C74.3509 101.773 74.0258 101.879 73.7042 101.994C74.0284 101.986 74.3536 101.975 74.6787 101.962V106.895C74.1727 106.916 73.6702 106.937 73.1721 106.954C70.8451 107.038 68.5493 107.047 66.2312 106.797L66.1515 106.788L66.078 106.756C64.7515 106.172 64.421 104.838 64.0295 103.579C63.9579 102.668 64.3287 101.834 64.7586 101.353C65.7448 100.25 67.2685 100.046 68.5655 99.4833L68.5861 99.4752L68.6058 99.468C70.5898 98.7945 72.6329 98.2024 74.6787 97.6712Z" fill="#2A2827"/>
<path fill-rule="evenodd" clip-rule="evenodd" d="M97.593 83.8297C97.6414 83.7688 97.6324 83.6004 97.6252 83.5306C97.6002 83.3075 97.5151 83.0711 97.4174 82.8704C97.3252 82.6796 97.0036 82.161 96.7815 82.1046C95.7147 81.8251 94.4114 81.9586 93.341 82.1512C91.9885 82.3939 90.6565 82.7352 89.3112 83.02C88.7272 83.1436 88.1396 83.2816 87.5475 83.3604C83.2767 84.128 78.9907 84.4397 74.6545 84.2256C67.6822 83.8817 61.0261 81.9398 54.0637 80.1322C58.3372 83.1105 64.1262 84.5078 69.3823 85.6695C69.9905 85.8048 70.5969 85.958 71.215 86.0466C71.97 86.155 72.7296 86.2419 73.4883 86.3207C75.5359 86.5339 77.5701 86.6557 79.6258 86.7471C80.9066 86.8044 82.192 86.8376 83.4747 86.8286C85.3736 86.8134 87.2609 86.6396 89.1473 86.43C91.975 86.1147 95.1119 85.5656 97.2777 84.0626C97.3601 84.0062 97.5357 83.9068 97.593 83.8297ZM74.539 90.4787C73.061 90.9274 71.5222 91.1585 69.9914 91.3439C67.719 91.6198 65.2996 91.6986 62.9851 92.5567C62.8695 92.7681 62.8176 92.9867 62.8445 93.2402C62.8901 93.6692 63.1544 94.2066 63.3434 94.5909C63.6067 95.1274 63.8351 95.6613 63.8396 96.2552C64.3502 96.7899 64.8509 97.4912 65.4671 97.8979C67.9115 97.0246 70.5163 96.5355 73.0996 96.3582C75.0298 96.2256 76.9467 96.2471 78.8734 96.4424L79.6938 97.4662C75.3299 98.5786 72.4654 99.0525 68.9586 100.242C68.4158 100.476 67.8453 100.651 67.2917 100.858C66.1219 101.296 64.9655 101.911 64.9288 103.294C65.1939 104.16 65.5128 105.401 66.3709 105.833C68.6093 106.069 70.9731 106.086 73.2205 106.005C75.9605 105.906 78.584 105.712 81.3312 105.821L81.4271 105.825L81.5139 105.863C81.8283 105.996 82.3156 106.014 82.6551 106.035C83.3116 106.074 84.0963 106.139 84.6095 106.603C84.8129 106.788 84.9437 107.01 85.0198 107.256C86.0337 107.149 86.6554 106.013 86.7503 105.017C86.7745 104.762 86.7548 104.116 86.7073 103.862C86.6204 103.395 86.324 102.915 85.9854 102.567L85.6719 102.673C85.4784 102.614 85.344 102.618 85.1765 102.608C80.9523 102.325 76.7218 102.931 72.5012 102.931C72.2459 102.791 71.9817 102.621 71.7327 102.385C71.8617 102.125 71.8384 101.913 71.8921 101.694C75.4436 100.1 79.3203 99.6652 83.0931 98.9405L83.1415 98.9316H83.1907C83.9261 98.9316 84.7547 98.7569 85.4703 98.5921L85.5277 98.5795H85.5859C86.787 98.5795 88.2032 97.9364 88.9377 96.9681C89.0156 96.3152 89.0496 95.2842 88.7558 94.6912C88.5695 94.6366 88.2972 94.5578 88.1091 94.5112C84.2683 93.5653 80.2501 94.1511 76.377 93.3154L75.9685 93.2276V92.4349L76.2167 92.2835C76.8204 91.9145 77.3694 91.2409 77.8603 90.7286C78.1075 90.4706 78.395 90.209 78.6709 89.9672C78.5357 89.9359 78.3968 89.9188 78.2553 89.9126C77.7116 89.8902 77.0828 89.978 76.5597 90.1177C75.8996 90.2932 75.2269 90.4643 74.539 90.4787Z" fill="#2B7B40"/>
<path fill-rule="evenodd" clip-rule="evenodd" d="M104.529 33.9452L101.004 39.5426L105.586 34.3573C106.934 35.5996 108.179 36.8053 109.495 38.2178C110.401 39.1888 111.364 40.097 111.543 41.6807C111.667 42.8057 111.351 44.0104 110.715 44.9984C110.466 45.3854 110.149 45.7123 109.835 46.0213C109.756 46.0993 109.676 46.1736 109.597 46.2453L114.088 42.7188L116.951 46.5695L110.524 51.6017L111.444 53.523C111.86 51.4333 112.929 50.551 113.943 49.9768C115.066 49.3418 116.451 49.2549 117.68 49.6571C118.935 50.0673 119.87 50.9155 120.443 52.1086C120.969 53.2032 121.107 54.4393 120.683 55.5921C120.261 56.7386 119.377 57.5707 118.312 58.1556L117.009 58.8489L116.052 57.0002C115.943 58.7343 115.099 60.1226 113.507 60.8858C110.885 62.1425 107.844 61.3498 106.481 58.659C105.873 57.4588 105.864 55.8796 106.338 54.6113C106.358 54.5584 106.378 54.5065 106.399 54.4554L104.898 55.5733L102.218 51.8292L102.218 51.8283L100.311 49.9473L100.794 46.5229L98.89 48.6968L96.3453 46.3993L96.1813 46.6483L92.5295 44.2953L93.6796 42.3471C91.8272 43.2858 89.7313 43.4228 87.7911 42.6794C86.607 42.2253 85.4981 41.429 84.6472 40.441L84.5961 40.9865L76.7657 40.0173L74.5049 40.3102L72.8183 36.9558L69.9529 37.2997L69.0464 40.9972L66.9934 41.188L58.2001 44.6975L56.8834 41.4576L58.4348 33.2967L54.8 34.7245L53.2155 30.5935L55.0615 29.9029L54.2787 27.5812L59.1111 25.7458L59.8913 27.8275L62.324 26.9434L63.561 29.9459L61.8663 38.4579L65.3731 37.0337L68.1811 25.9751L71.8169 25.5326L76.7308 34.643L77.8567 25.1788L82.4079 25.719L81.0732 36.129L82.9256 36.3502C82.8288 35.133 83.0268 33.887 83.472 32.7289C83.9476 31.4856 84.545 30.3642 85.499 29.5231C87.5251 27.7388 90.5571 27.0616 93.221 28.0819C96.7483 29.4335 97.9567 31.7248 98.1152 34.8365L100.204 31.3002L104.529 33.9452ZM91.6544 32.4001C90.0071 31.7677 88.2202 32.4601 87.5815 34.2543C87.3907 34.7899 87.2555 35.6991 87.3925 36.2625L88.4916 33.1731L93.5515 35.1357C93.5327 33.9417 92.7839 32.8328 91.6544 32.4001ZM39.8889 40.4347C42.465 37.5505 46.0721 37.512 49.4911 39.0383L46.1912 42.6516C44.9722 42.5379 44.115 42.6185 43.2201 43.6199C42.0494 44.9303 42.543 46.8794 43.8032 48.0053C45.0725 49.1393 47.061 49.0345 48.0893 47.8101C48.8676 46.883 48.7593 46.1897 48.598 45.0047L52.0268 41.3752C53.1761 43.7578 54.13 47.7492 51.3712 50.8349C50.1915 52.1552 48.3938 53.1548 46.7493 53.3895C46.468 53.4298 46.1868 53.4504 45.9073 53.4531C46.0918 53.7827 46.2324 54.133 46.3157 54.4993C46.6624 56.022 46.0882 57.2868 45.3806 58.6142L43.3339 62.3216L30.3379 55.3225C31.0831 53.7147 31.7469 52.3747 32.6524 51.0624C33.2732 50.1631 34.1044 49.3848 35.1219 48.9853C36.3956 48.4855 37.5708 48.6816 38.7532 49.3328C38.8848 49.4063 39.0129 49.4878 39.1374 49.5782C38.7335 48.9521 38.428 48.2776 38.2372 47.579C37.5753 45.1588 38.1584 42.4438 39.8889 40.4347ZM111.245 55.3449L110.74 55.6754C110.517 55.8214 110.15 56.1349 110.378 56.5639C110.567 56.9178 110.925 56.8622 111.157 56.7135C111.642 56.4027 111.277 55.541 111.245 55.3449ZM108.727 46.9036C107.693 47.5297 106.583 47.6506 105.227 47.1723L104.932 49.8658L108.727 46.9036ZM105.946 40.7912L104.767 42.2244C105.313 42.6901 105.998 43.4184 106.651 42.6919C107.312 41.9557 106.446 41.24 105.946 40.7912Z" fill="#2A2827"/>
<path fill-rule="evenodd" clip-rule="evenodd" d="M102.956 34.3618L96.1454 45.2609L94.0789 43.9684L100.886 33.0818L102.956 34.3618ZM58.5968 27.0097L59.2534 28.6901L56.2043 29.8644L55.5487 28.184L58.5968 27.0097ZM59.7559 31.6952L55.3489 33.3998L54.5069 31.1972L61.6691 28.4267L62.3794 30.228L60.5396 40.1221L65.5574 38.1731L65.9587 39.2246L69.0794 26.9927L71.2444 26.7186L77.3953 38.148L78.8248 26.3585L81.2334 26.6568L79.9839 37.0866L83.9143 37.5541L83.6277 39.8964L77.277 39.1243L77.3003 38.9326L75.1345 39.1978L73.3896 35.8164L69.1636 36.3216L68.2571 40.0156L66.3448 40.2332L66.394 40.3604L58.793 43.2876L58.011 41.249L59.7559 31.6952ZM72.2404 33.5637L70.5806 30.3651L69.7369 33.8646L72.2404 33.5637ZM93.1823 38.5627L88.2308 36.6647L89.0844 34.4379L96.7482 37.3759L96.5923 37.7574C95.9779 39.2614 94.8349 40.5172 93.4251 41.3179C91.7411 42.2755 89.8897 42.322 88.0982 41.635C86.5809 41.0537 85.36 39.9403 84.6354 38.4866C83.797 36.8035 83.7128 34.8338 84.3855 33.0791C85.6807 29.6987 89.4525 27.8732 92.8706 29.1836C95.2371 30.0901 96.7948 31.8287 96.982 34.4128L97.0259 35.0443L94.3486 34.0187L94.293 33.8261C93.967 32.7074 93.0802 31.8547 92.0054 31.4426C89.8502 30.6168 87.5268 31.8833 86.7251 33.9757C86.2683 35.1661 86.3354 36.533 86.9598 37.6509C87.4022 38.4445 88.0875 39.0401 88.9366 39.3662C90.5149 39.9708 91.9561 39.5901 93.1823 38.5627ZM40.6869 41.2884C41.5056 40.3712 42.5168 39.6537 43.7073 39.3106C44.8341 38.9864 45.9913 39.0365 47.1092 39.3715L47.7174 39.5525L45.8901 41.5974L45.6877 41.5786C44.4176 41.4595 43.3311 41.9593 42.4909 42.9007C40.9547 44.6196 41.3121 47.244 42.9826 48.7363C44.6558 50.2303 47.2507 50.2832 48.786 48.5634C49.6468 47.5996 49.9648 46.694 49.7883 45.4033L49.7623 45.2188L51.7016 43.0485L51.9228 43.7068C52.7039 46.0366 52.2874 48.3404 50.641 50.1829C48.202 52.913 44.0136 53.0169 41.3139 50.6048C38.6115 48.1899 38.2443 44.0212 40.6869 41.2884ZM39.8082 52.1732C40.8347 51.5166 41.9821 51.5318 43.1098 52.1203C44.1175 52.647 44.989 53.5884 45.2452 54.717C45.5354 55.9889 45.1055 57.0486 44.5161 58.1539L43.0023 60.9951L31.6589 54.9203L33.0455 52.2995C33.5749 51.2989 34.3165 50.4202 35.3941 49.9975C36.3937 49.6051 37.3548 49.7529 38.2801 50.2626C39.0379 50.68 39.6084 51.3482 39.8082 52.1732ZM34.8334 53.9323L37.2876 55.241L37.422 54.9812C37.6782 54.485 37.9657 53.8768 37.8905 53.3045C37.8385 52.9076 37.5286 52.5977 37.1909 52.4141C36.8765 52.2439 36.4806 52.1597 36.1366 52.286C35.6924 52.449 35.3592 52.9444 35.1469 53.3448L34.8334 53.9323ZM42.086 57.8054L42.6145 56.83C43.1528 55.8366 43.2594 54.9311 42.1648 54.3103C41.7895 54.0972 41.3309 54.0157 40.9099 54.1249C40.3438 54.2718 39.9425 54.7869 39.6837 55.2831L39.174 56.2541L42.086 57.8054ZM109.801 52.7034L110.783 54.7143L110.444 54.8979C109.584 55.3619 109.123 56.1734 109.578 57.1086C110.025 58.0285 111.003 58.2524 111.887 57.8063C112.206 57.646 112.516 57.4194 112.665 57.0835C112.851 56.6679 112.78 55.9343 112.713 55.4909C112.657 55.104 112.575 54.726 112.559 54.3327C112.536 53.6726 112.653 53.0196 112.963 52.432C113.342 51.7137 113.722 51.3428 114.426 50.9442C115.31 50.4435 116.406 50.3136 117.375 50.6307C118.377 50.9586 119.103 51.5802 119.56 52.5323C119.971 53.3869 120.096 54.3515 119.764 55.2535C119.424 56.1779 118.813 56.8264 117.955 57.2976L117.588 57.4991L116.555 55.43L116.874 55.2374C117.521 54.846 117.827 54.2181 117.485 53.5024C117.155 52.8127 116.292 52.5986 115.633 52.939C115.041 53.2435 114.929 53.8473 114.977 54.4599C115.017 54.9678 115.169 55.4604 115.212 55.971C115.282 56.8022 115.153 57.5466 114.756 58.2855C114.365 59.012 113.826 59.4957 113.084 59.8513C110.938 60.8796 108.622 60.4209 107.499 58.2022C107.015 57.2465 106.91 56.1842 107.288 55.1729C107.706 54.0578 108.399 53.4379 109.433 52.8969L109.801 52.7034ZM102.252 43.5492L98.9481 47.2145L97.1495 45.5905L105.749 36.0368L108.604 38.5878C109.564 39.445 110.363 40.4795 110.511 41.7962C110.651 43.0467 110.206 44.1842 109.313 45.0611C108.544 45.818 107.826 46.2489 106.728 46.325C105.888 46.3823 105.112 46.1485 104.41 45.7258L103.853 51.6366L101.599 49.5899L102.252 43.5492ZM106.012 39.3724L103.325 42.3489L103.827 42.795C104.44 43.3476 105.128 43.9021 105.971 44.0257C106.594 44.118 107.208 43.8474 107.623 43.3853C108.001 42.9643 108.198 42.4259 108.078 41.8625C107.937 41.1988 107.314 40.544 106.826 40.1015L106.012 39.3724ZM115.508 46.3581L105.258 54.0846L103.79 52.1391L114.033 44.4225L115.508 46.3581Z" fill="white"/>
<path fill-rule="evenodd" clip-rule="evenodd" d="M102.6 34.4451L96.0639 44.9035L94.4364 43.886L100.97 33.4374L102.6 34.4451ZM58.4589 27.3223L58.9399 28.5521L56.3423 29.5526L55.8622 28.3228L58.4589 27.3223ZM60.0936 31.2859L55.4985 33.0639L54.8411 31.3459L61.5223 28.7608L62.1107 30.254L60.1993 40.5324L65.4079 38.5089L66.0591 40.2117L58.9408 42.9526L58.2798 41.2239L60.0936 31.2859ZM73.5374 35.5378L68.954 36.086L68.0485 39.7782L66.0268 40.0084L69.2873 27.2274L71.1002 26.9981L77.3783 38.6612L75.2832 38.9183L73.5374 35.5378ZM72.6426 33.776L70.4911 29.6297L69.3983 34.1665L72.6426 33.776ZM79.6946 37.3132L83.6259 37.7807L83.402 39.608L77.5655 38.8977L79.0515 26.6478L80.945 26.8825L79.6946 37.3132ZM93.6714 38.4722L88.5658 36.5151L89.2331 34.7729L96.4087 37.5228L96.3523 37.6589C95.7593 39.1091 94.6567 40.3201 93.297 41.0931C91.6731 42.0157 89.9219 42.0569 88.1914 41.3932C84.9068 40.1347 83.3796 36.4273 84.6282 33.1722C85.8742 29.919 89.4929 28.1661 92.7784 29.4255C95.0499 30.2961 96.5431 31.9478 96.7231 34.4316L96.7384 34.6574L94.5618 33.8225L94.5421 33.7545C94.1936 32.556 93.2486 31.6415 92.0976 31.1999C89.8073 30.3221 87.336 31.6576 86.4833 33.8834C85.6314 36.1066 86.5513 38.7293 88.8444 39.608C90.66 40.304 92.3153 39.7674 93.6714 38.4722ZM40.8795 41.4612C42.5088 39.6367 44.6621 38.9084 47.0349 39.6196L47.2517 39.685L45.7845 41.3269L45.7128 41.3206C44.3594 41.1934 43.1923 41.7255 42.2965 42.7278C40.6627 44.5568 41.0327 47.3407 42.8098 48.9297C44.5914 50.5205 47.3475 50.5626 48.9786 48.7363C49.8887 47.7178 50.2326 46.7415 50.0445 45.3684L50.0356 45.3021L51.5986 43.5536L51.6765 43.7892C52.4307 46.0366 52.033 48.2356 50.4476 50.01C48.1035 52.6335 44.0844 52.7321 41.4859 50.4113C38.8883 48.0905 38.5363 44.0848 40.8795 41.4612ZM39.6192 52.6309C40.626 51.8068 41.7887 51.7235 42.9898 52.3505C43.9294 52.8414 44.7535 53.721 44.9927 54.7743C45.2676 55.98 44.8449 56.9858 44.2877 58.032L42.8958 60.6449L32.0083 54.8128L33.2748 52.4204C33.7738 51.4772 34.4715 50.6379 35.4882 50.2384C36.417 49.8747 37.2966 50.0172 38.1547 50.4892C38.9788 50.9433 39.5485 51.7056 39.6192 52.6309ZM34.4832 54.0389L37.3978 55.5939L37.6531 55.0995C37.9371 54.5477 38.2318 53.9073 38.1476 53.2713C38.0849 52.7885 37.7275 52.4105 37.3145 52.1866C36.933 51.9797 36.4627 51.8901 36.0471 52.0424C35.5339 52.2314 35.1648 52.7598 34.9176 53.2229L34.4832 54.0389ZM42.1908 58.1548L42.842 56.9536C43.4493 55.834 43.521 54.7815 42.293 54.0846C41.8585 53.8383 41.3318 53.7478 40.8455 53.8741C40.2014 54.0416 39.7509 54.597 39.4544 55.1622L38.8247 56.3624L42.1908 58.1548ZM109.685 53.0572L110.441 54.6041L110.319 54.6695C109.336 55.2007 108.827 56.16 109.345 57.2214C109.857 58.2748 110.988 58.5498 112.003 58.0383C112.379 57.8493 112.727 57.5824 112.902 57.1892C113.113 56.7153 113.044 55.9495 112.971 55.4533C112.914 55.0762 112.833 54.7053 112.818 54.3238C112.796 53.7084 112.903 53.1011 113.193 52.5529C113.55 51.8758 113.889 51.5461 114.554 51.1699C115.375 50.7051 116.396 50.5823 117.295 50.877C118.227 51.1825 118.899 51.7531 119.327 52.6443C119.706 53.4352 119.828 54.3291 119.521 55.164C119.203 56.0274 118.636 56.6276 117.831 57.07L117.699 57.1426L116.894 55.5285L117.008 55.4595C117.775 54.9947 118.117 54.2226 117.72 53.3904C117.326 52.5664 116.301 52.3021 115.514 52.7088C114.824 53.0644 114.663 53.7586 114.719 54.4805C114.759 54.9893 114.911 55.4864 114.954 55.9925C115.02 56.778 114.9 57.4686 114.527 58.1619C114.164 58.8391 113.667 59.2852 112.972 59.6175C110.95 60.5875 108.792 60.1836 107.731 58.0858C107.278 57.1928 107.179 56.2057 107.531 55.2634C107.923 54.2145 108.569 53.6412 109.553 53.1262L109.685 53.0572ZM102.596 42.7797L98.9302 46.849L97.515 45.5717L105.769 36.4022L108.431 38.7812C109.339 39.5928 110.113 40.5754 110.254 41.8249C110.385 42.9956 109.969 44.0534 109.132 44.8766C108.409 45.5878 107.748 45.9954 106.71 46.0661C105.775 46.1306 104.932 45.8064 104.193 45.2707L103.643 51.0965L101.871 49.486L102.596 42.7797ZM105.993 39.007L102.958 42.3686L103.653 42.9875C104.31 43.5805 105.031 44.1502 105.934 44.2828C106.645 44.3867 107.342 44.0875 107.817 43.559C108.25 43.0753 108.469 42.4537 108.333 41.8088C108.176 41.0806 107.532 40.3917 106.999 39.909L105.993 39.007ZM115.145 46.308L105.309 53.7227L104.153 52.1902L113.984 44.7853L115.145 46.308Z" fill="#2A2827"/>
<path fill-rule="evenodd" clip-rule="evenodd" d="M102.4 34.4908L101.016 33.6354L94.6344 43.8403L96.0174 44.7047L102.4 34.4908Z" fill="white"/>
<path fill-rule="evenodd" clip-rule="evenodd" d="M114.942 46.2803L113.956 44.986L104.356 52.2189L105.337 53.5204L114.942 46.2803Z" fill="white"/>
<path fill-rule="evenodd" clip-rule="evenodd" d="M110.111 41.8411C110.224 42.8532 109.924 43.8959 109.031 44.7737C108.351 45.4428 107.722 45.8521 106.701 45.9229C105.714 45.99 104.835 45.6058 104.074 45.0003L103.527 50.7965L102.021 49.4287L102.787 42.3534L98.9195 46.6448L97.7184 45.561L105.781 36.6056L108.335 38.8888C109.204 39.6654 109.974 40.6202 110.111 41.8411ZM105.912 44.4252C106.614 44.5282 107.374 44.2667 107.923 43.6549C108.439 43.0807 108.605 42.4018 108.472 41.7784C108.343 41.1738 107.89 40.5217 107.096 39.8015L105.982 38.8037L102.754 42.3794L103.558 43.0942C104.237 43.7086 104.978 44.2882 105.912 44.4252Z" fill="white"/>
<path fill-rule="evenodd" clip-rule="evenodd" d="M109.622 53.2534L110.252 54.5433C109.176 55.1237 108.673 56.1726 109.215 57.2851C109.766 58.4146 110.985 58.7128 112.068 58.1664C112.56 57.9192 112.871 57.6111 113.033 57.2483C113.196 56.8856 113.24 56.2944 113.113 55.4318C113.059 55.0708 112.976 54.6937 112.963 54.3184C112.941 53.7335 113.041 53.1495 113.32 52.6201C113.663 51.9725 113.976 51.6626 114.625 51.2954C115.447 50.8296 116.426 50.7445 117.25 51.0141C118.095 51.2909 118.765 51.8059 119.197 52.707C119.587 53.5203 119.661 54.3659 119.387 55.1147C119.11 55.8635 118.62 56.4726 117.762 56.9438L117.082 55.5823C118.038 55.0045 118.221 54.107 117.85 53.3287C117.399 52.3873 116.261 52.1615 115.447 52.5807C114.698 52.9677 114.515 53.7192 114.576 54.4913C114.615 54.9947 114.773 55.5635 114.811 56.0051C114.88 56.8426 114.726 57.4893 114.401 58.0939C114.075 58.6994 113.626 59.1446 112.91 59.4876C110.971 60.4174 108.891 60.0591 107.859 58.0204C107.403 57.1193 107.342 56.1824 107.666 55.3136C107.932 54.6006 108.345 53.9207 109.622 53.2534Z" fill="white"/>
<path fill-rule="evenodd" clip-rule="evenodd" d="M42.9235 52.4777C43.8246 52.9489 44.6236 53.7944 44.8529 54.8066C45.118 55.9737 44.7006 56.9509 44.1605 57.964L42.8375 60.4496L32.2026 54.7537L33.402 52.4876C34.0003 51.3581 34.7241 50.6935 35.541 50.3728C36.426 50.0252 37.2599 50.1605 38.0857 50.6155C38.9447 51.0894 39.5287 51.9215 39.4795 52.9471C40.4863 51.9806 41.6686 51.823 42.9235 52.4777ZM34.7904 53.1558L34.2879 54.0981L37.4587 55.7892L37.7812 55.1658C38.2541 54.2477 38.3526 53.7317 38.2908 53.2525C38.2317 52.793 37.9164 52.3487 37.3826 52.0594C36.9052 51.8015 36.4 51.7594 35.9969 51.908C35.4783 52.0979 35.0869 52.5986 34.7904 53.1558ZM42.2499 58.3492L42.9692 57.0226C43.5819 55.894 43.7073 54.7224 42.3637 53.9592C41.837 53.6601 41.27 53.6153 40.8087 53.7344C40.1781 53.8983 39.6846 54.4107 39.3254 55.0959L38.6303 56.4225L42.2499 58.3492Z" fill="white"/>
<path fill-rule="evenodd" clip-rule="evenodd" d="M40.9872 41.557C42.5735 39.7817 44.6668 39.0598 46.9939 39.7575L45.7255 41.1773C44.373 41.0501 43.1494 41.557 42.1892 42.6319C40.5133 44.5084 40.8645 47.3837 42.7141 49.0363C44.5647 50.6898 47.4095 50.7095 49.0863 48.8321C49.9721 47.8414 50.3895 46.8355 50.1871 45.3486L51.5414 43.8349C52.2911 46.0742 51.8639 48.2087 50.3403 49.9141C48.0866 52.4365 44.1652 52.6111 41.5828 50.3037C38.9996 47.9964 38.7335 44.0794 40.9872 41.557Z" fill="white"/>
<path fill-rule="evenodd" clip-rule="evenodd" d="M89.3166 34.9583L96.219 37.6043C95.7407 38.775 94.7859 40.0818 93.2273 40.9677C91.9214 41.7093 90.2428 42.0255 88.2427 41.2588C85.0843 40.0478 83.5222 36.4568 84.7619 33.2233C86.0016 29.9897 89.5683 28.3497 92.7266 29.5598C94.9507 30.4125 96.4044 32.0185 96.58 34.4415L94.6802 33.7141C94.3622 32.6196 93.4943 31.5814 92.1498 31.0655C89.7994 30.1653 87.2368 31.5152 86.3482 33.8315C85.4605 36.1478 86.4432 38.8412 88.7935 39.7423C90.0189 40.2126 91.9662 40.4159 93.9314 38.4176L88.7514 36.4327L89.3166 34.9583Z" fill="white"/>
<path fill-rule="evenodd" clip-rule="evenodd" d="M83.2766 39.4477L77.7258 38.7724L79.1769 26.8082L80.7847 27.008L79.5352 37.4395L83.4647 37.9071L83.2766 39.4477Z" fill="white"/>
<path fill-rule="evenodd" clip-rule="evenodd" d="M71.0206 27.1531L77.1518 38.5439L75.364 38.7634L73.6209 35.3829L68.8386 35.9544L67.9331 39.6466L66.2178 39.8418L69.403 27.3582L71.0206 27.1531ZM72.8667 33.8943L70.442 29.2213L69.2086 34.3341L72.8667 33.8943Z" fill="white"/>
<path fill-rule="evenodd" clip-rule="evenodd" d="M65.8737 40.1285L59.0241 42.7664L58.4294 41.2096L60.2817 31.0593L55.581 32.8776L55.0283 31.4292L61.4408 28.9472L61.9621 30.2684L60.0103 40.7608L65.3246 38.6953L65.8737 40.1285ZM58.3774 27.5087L58.7527 28.4698L56.4247 29.3664L56.0485 28.4053L58.3774 27.5087Z" fill="white"/>
</svg>
