<svg width="150" height="150" viewBox="0 0 150 150" fill="none" xmlns="http://www.w3.org/2000/svg">
<path d="M33.4637 97.4341L33.1794 98.4499L34.1457 98.0269L91.1731 73.0633L148.201 48.0997L148 47.1417H101.103H100.856L100.706 47.3371L95.3029 54.3703L97.0193 47.7214L97.1806 47.0965H96.5351H91.4022H91.074L90.9435 47.3976C88.6268 52.7428 86.8151 56.5555 85.5228 58.8492C84.9206 59.918 84.451 60.6204 84.1126 60.9973C84.123 60.9201 84.1362 60.8337 84.1521 60.7381C84.2225 60.3154 84.3413 59.7496 84.4952 59.0848C84.8026 57.7573 85.2431 56.0649 85.6949 54.3947C86.1463 52.7257 86.6078 51.0836 86.9566 49.8585C87.1309 49.246 87.277 48.738 87.3795 48.3831C87.4307 48.2057 87.471 48.0666 87.4986 47.9718L87.53 47.8638L87.538 47.8363L87.54 47.8293L87.5405 47.8276L87.5407 47.8272C87.5407 47.8271 87.5407 47.827 87.0607 47.6869L87.5407 47.827L87.7276 47.1869H87.0607H82.0183H81.639L81.5368 47.5522L80.0252 52.9537L74.071 60.7048L77.8174 47.9408L78.0054 47.3H77.3376H71.8429H71.4565L71.359 47.6738L69.0829 56.4065L65.3423 57.3112L68.0053 47.8449L68.1841 47.2095H67.524H61.3961H61.0122L60.9131 47.5805L57.6868 59.6566C57.6749 59.6702 57.6626 59.6844 57.6499 59.699C56.7224 60.7649 53.5005 64.4678 48.5402 70.9443C47.8102 71.8964 47.212 72.507 46.7302 72.8652C46.2417 73.2282 45.9338 73.2873 45.7605 73.2651C45.6073 73.2454 45.4417 73.1457 45.2714 72.8616C45.0982 72.5727 44.9591 72.1519 44.8572 71.6304C44.6545 70.5924 44.6256 69.3013 44.6512 68.2494C44.6639 67.7277 44.6897 67.2729 44.7123 66.9488C44.7167 66.885 44.7211 66.8263 44.7251 66.7732C50.08 65.1752 54.7492 60.3919 56.8641 55.9694C57.9401 53.7195 58.4061 51.4567 57.8495 49.7068C57.566 48.8156 57.019 48.0677 56.1787 47.5482C55.3464 47.0337 54.2593 46.7632 52.9189 46.7573L52.9186 46.7573C46.8243 46.7335 42.8627 51.4279 40.46 55.9369C39.2499 58.2077 38.4102 60.4753 37.8733 62.1724C37.6045 63.0218 37.4109 63.7304 37.2842 64.2279C37.2256 64.458 37.1813 64.643 37.1505 64.7761L32.7687 66.9006C32.5128 65.5606 31.8205 64.2419 31.1785 63.2351C30.7945 62.6329 30.4169 62.1246 30.1351 61.7667C30.1147 61.7407 30.0948 61.7156 30.0754 61.6912C33.7442 59.7445 37.7002 55.4132 39.7928 51.1433C40.8949 48.8945 41.5161 46.5916 41.249 44.615C41.1143 43.6181 40.7525 42.6996 40.1095 41.9243C39.4668 41.1496 38.5644 40.5433 37.3877 40.1369C32.7567 38.5264 28.125 40.2386 24.7204 42.2717C23.0087 43.2938 21.581 44.4121 20.5818 45.2739C20.0817 45.7052 19.6877 46.0734 19.4177 46.3348C19.2827 46.4655 19.1786 46.5695 19.1077 46.6415C19.0723 46.6775 19.0451 46.7055 19.0265 46.7248L19.0051 46.7471L18.9993 46.7532L18.9976 46.755L18.9971 46.7556C18.9969 46.7558 18.9968 46.7559 19.3605 47.099L18.9968 46.7559L18.9115 46.8463L18.8785 46.966L16.8887 54.1792L16.4024 55.9419L17.7179 54.6719C20.3474 52.1335 22.8684 49.7063 25.1232 48.4363C26.2462 47.8037 27.2434 47.4942 28.1138 47.5577C28.9561 47.6193 29.7544 48.036 30.4916 49.0257L30.4934 49.0281C31.1313 49.8742 31.0442 51.1109 30.3181 52.6778C29.6039 54.2191 28.3433 55.913 26.9547 57.5022C25.5712 59.0855 24.084 60.5387 22.9404 61.5977C22.3692 62.1267 21.8849 62.5562 21.544 62.853C21.3735 63.0014 21.239 63.1166 21.1473 63.1944C21.1015 63.2333 21.0664 63.2628 21.0429 63.2826L21.0165 63.3047L21.0101 63.31L21.0086 63.3113L21.0083 63.3115L21.3277 63.6962L21.0083 63.3116L20.5352 63.7045L21.0164 64.0874C23.0818 65.7311 24.026 67.6206 24.4573 69.0939C24.6735 69.8323 24.7609 70.467 24.7944 70.9136C24.8077 71.0916 24.8125 71.2393 24.8135 71.3513C6.9711 82.4824 0.834818 95.0799 1.55605 102.771C1.9203 106.655 4.06685 109.36 7.40429 109.772C10.6748 110.176 14.878 108.34 19.3365 103.704C27.3824 95.3391 30.9388 87.2334 32.4794 81.2029C33.2493 78.1892 33.515 75.6968 33.5877 73.9524C33.624 73.0802 33.612 72.3949 33.5907 71.9248C33.5843 71.7848 33.5771 71.6639 33.5701 71.5629L36.7056 70.1921C36.8304 73.027 37.1932 75.1707 37.7533 76.7341C38.3607 78.4297 39.2246 79.5056 40.3312 79.9839C41.4374 80.462 42.66 80.2883 43.8624 79.7683C45.0659 79.2478 46.3124 78.355 47.5264 77.2852C49.957 75.1433 52.3502 72.2081 54.1273 69.8243C54.6163 69.1684 55.06 68.5524 55.4464 68.0038L53.3831 75.7784L53.1377 76.7031L54.037 76.3766L60.3909 74.0702L60.6399 73.9798L60.705 73.7231L63.4807 62.7743L67.2357 61.8312L64.7109 71.5754L64.4843 72.4501L65.3458 72.1775L71.1345 70.3459L71.284 70.2986L71.3797 70.1744L77.7985 61.8415C77.7757 62.3382 77.777 62.8983 77.832 63.4647C77.9161 64.3301 78.1297 65.2593 78.6171 65.9984C79.1215 66.7632 79.9066 67.3014 81.0423 67.3612C82.2182 67.423 83.3139 66.7479 84.25 65.8536C85.1989 64.9469 86.0681 63.7348 86.8001 62.5415C87.2382 61.8274 87.6319 61.112 87.9687 60.4602L87.5584 64.3446L87.4692 65.1898L88.2513 64.8573L92.932 62.8674L93.0497 62.8174L93.1289 62.717L101.096 52.6188H103.065L100.92 59.3614L100.618 60.3118L101.56 59.9854L106.784 58.1765L107.011 58.0979L107.091 57.8718L108.963 52.6188H123.095L35.9218 89.3522L35.6995 89.4459L35.6345 89.6782L33.4637 97.4341ZM50.8772 52.1074L50.8777 52.1075C51.2007 52.1852 51.3651 52.335 51.4574 52.5157C51.5605 52.7177 51.6056 53.0238 51.5481 53.4521C51.4326 54.3126 50.9321 55.4556 50.1793 56.6452C49.4332 57.8241 48.4699 59.0005 47.4827 59.9245C46.7994 60.564 46.132 61.0566 45.5384 61.357C45.5941 61.1051 45.6626 60.8072 45.7439 60.4753C46.0013 59.4244 46.3846 58.0394 46.8897 56.6892C47.398 55.3305 48.0155 54.0461 48.7274 53.1692C49.4443 52.2859 50.1518 51.9321 50.8772 52.1074ZM24.5887 77.0767C24.5438 77.4147 24.4857 77.8235 24.4121 78.2937C24.1836 79.7539 23.8063 81.804 23.2116 84.1591C22.0201 88.8771 19.9648 94.784 16.5117 99.6297C15.6406 100.844 14.71 101.669 13.8502 102.13C12.9864 102.593 12.2356 102.668 11.6745 102.47C11.1297 102.279 10.654 101.791 10.4052 100.88C10.1533 99.9573 10.1466 98.6297 10.5541 96.8675C12.0186 90.5889 15.7417 85.4823 19.1233 81.9328C20.8116 80.1606 22.4078 78.7839 23.5808 77.8511C23.9668 77.5442 24.3067 77.2855 24.5887 77.0767Z" fill="#71A6DC" stroke="white"/>
<path d="M103.253 82.0347V81.5347H102.753H102.256H99.3842H99.0903H98.7934L98.6513 81.7952L98.5194 82.0371L97.5284 83.7263L97.5284 83.7263L97.5263 83.7298L97.0967 84.476L96.6652 85.2255H97.53H98.4119H99.4721V94.426V94.9235V95.4235H99.9721H100.47H102.256H102.753H103.253V94.9235V94.426V82.5321V82.0347Z" fill="#71A6DC" stroke="white"/>
<path d="M107.04 82.7844L107.04 82.7844L107.035 82.789C106.084 83.7408 105.577 84.9302 105.577 86.3082C105.577 87.5917 106.035 88.7061 106.885 89.6313L106.885 89.6313L106.889 89.6353C107.465 90.2488 108.132 90.6625 108.873 90.8786L106.125 94.6517L105.547 95.446H106.53H109.831H110.084L110.234 95.2417L114.214 89.8148L114.215 89.8127C115.09 88.6069 115.577 87.3977 115.577 86.2178C115.577 84.8997 115.065 83.7311 114.067 82.7822C113.097 81.838 111.911 81.3311 110.555 81.3311C109.197 81.3311 108.011 81.8388 107.04 82.7844ZM109.721 87.0968L109.715 87.091L109.71 87.0853C109.474 86.8494 109.359 86.5742 109.359 86.1726C109.359 85.8354 109.461 85.5767 109.732 85.3051C109.973 85.0646 110.25 84.954 110.6 84.954C110.975 84.954 111.252 85.0669 111.49 85.3051C111.74 85.555 111.864 85.8366 111.864 86.1952C111.864 86.5685 111.753 86.8386 111.501 87.0741L111.496 87.0796L111.49 87.0853C111.223 87.3519 110.944 87.4589 110.6 87.4589C110.226 87.4589 109.956 87.348 109.721 87.0968Z" fill="#71A6DC" stroke="white"/>
<path d="M124.89 91.7778H122.625L123.078 91.2453C123.078 91.2452 123.078 91.2451 123.078 91.245C123.602 90.6296 124.037 90.0811 124.381 89.6218C124.758 89.1498 125.044 88.6989 125.238 88.3355C125.664 87.5814 125.865 86.7745 125.865 85.9464C125.865 84.6603 125.382 83.5334 124.445 82.6685C123.553 81.7807 122.408 81.3311 121.069 81.3311C120.137 81.3311 119.041 81.5238 118.117 82.231C117.18 82.9474 116.492 84.1357 116.276 85.9781C116.276 85.9783 116.276 85.9786 116.276 85.9788L116.209 86.5426L116.141 87.1022H116.705H117.27H119.057H119.509H119.959L120.006 86.6545L120.051 86.2289C120.133 85.5586 120.329 85.2773 120.482 85.1509C120.639 85.022 120.844 84.9767 121.114 84.9767C121.453 84.9767 121.681 85.0723 121.869 85.2598L121.876 85.2669L121.883 85.2737C122.062 85.439 122.152 85.6386 122.152 85.9464C122.152 86.1128 122.087 86.3601 121.863 86.7259L121.863 86.7258L121.861 86.7293C121.739 86.934 121.547 87.2122 121.28 87.5685C121.014 87.9225 120.68 88.346 120.276 88.8396C120.276 88.8399 120.275 88.8403 120.275 88.8407L116.14 93.8345L116.139 93.8357L115.462 94.6485L114.778 95.4686H115.846H116.908H124.89H125.388H125.888V94.9686V94.4711V92.7752V92.2778V91.7778H125.388H124.89Z" fill="#71A6DC" stroke="white"/>
<path d="M128.799 90.7987L128.734 90.8533L128.799 90.7987ZM128.799 90.7987L128.751 90.715L129.187 90.4689L128.799 90.7987ZM128.463 81.5347H128.011L127.966 81.9849L127.92 82.4372L127.92 82.4371L127.919 82.4488L127.422 88.9611L127.381 89.4923L127.914 89.4991L129.678 89.5217L129.889 89.5244L130.038 89.3753C130.438 88.9752 130.71 88.841 130.9 88.7886C131.06 88.7443 131.181 88.7468 131.365 88.7505C131.423 88.7517 131.487 88.753 131.561 88.753C132.018 88.753 132.365 88.9049 132.655 89.1944C132.936 89.4761 133.096 89.8421 133.096 90.3559C133.096 90.8368 132.942 91.2152 132.64 91.555C132.364 91.8451 132.029 91.9814 131.561 91.9814C131.177 91.9814 130.926 91.9055 130.741 91.7784C130.502 91.6074 130.21 91.2897 129.921 90.752L129.921 90.7519L129.916 90.743L129.622 90.2229L129.324 89.6959L128.863 90.088L128.411 90.4724L128.704 90.8174L128.411 90.4724L127.06 91.6208L126.726 91.8875L126.379 92.1655L126.615 92.5429L126.839 92.9026C127.915 94.6615 129.47 95.6044 131.425 95.6044C132.941 95.6044 134.269 95.1121 135.3 94.1077C136.355 93.1012 136.877 91.7913 136.877 90.288C136.877 88.8413 136.408 87.5811 135.472 86.6176C134.741 85.8489 133.84 85.3746 132.807 85.2029H135.45H135.948H136.448V84.7029V84.2054V82.5095V82.0347V81.5347H135.948H135.925H135.428H128.915H128.463Z" fill="#71A6DC" stroke="white"/>
</svg>
